<svg width="698" height="195" viewBox="0 0 698 195" fill="none" xmlns="http://www.w3.org/2000/svg">
<path d="M356.56 194.422C320.534 194.721 349.151 194.77 306.183 194.502C270.766 194.281 285.684 194.89 241.438 194.248C238.252 194.392 239.305 194.341 238.635 194.517C230.512 194.566 146.813 194.364 130.272 194.358C128.087 194.308 125.903 194.258 123.718 194.208C118.197 194.223 94.2457 194.313 91.5462 194.298C68.8549 194.168 48.9841 194.131 25.8259 194.103C23.1267 193.967 23.8173 194.021 23.5128 193.867C16.5713 193.842 15.008 193.916 10.6847 194.047C9.14003 194.045 7.00246 194.042 4.35157 194.038C2.34135 194.118 -0.0281789 192.3 -2.16067e-05 189.677C0.0622281 147.804 0.245955 33.5121 0.475135 4.67724C0.618635 1.59862 3.30951 0.841825 4.10061 0.881192C4.18701 0.913317 4.26966 0.948376 4.35156 0.986019C2.51389 0.967005 0.690968 2.64504 0.752899 4.67724C0.826686 11.6923 0.829927 19.6878 0.832904 27.5187C0.844639 56.766 0.727803 86.7244 0.681349 115.89C0.642049 140.508 0.604503 165.096 0.566283 189.677C0.513466 191.693 2.33008 193.518 4.35157 193.472C41.2897 193.53 78.2171 193.59 115.212 193.659C138.615 193.703 161.915 193.742 185.398 193.756C196.642 193.762 208.82 193.727 219.942 193.762C234.901 193.808 249.698 194.004 263.277 193.807C274.745 193.639 366.525 193.788 385.239 193.795C406.185 193.804 427.112 193.761 448.038 193.758C463.402 193.755 478.929 193.806 494.232 193.791C509.84 193.776 525.245 193.688 540.853 193.668C591.299 193.601 641.832 193.554 692.352 193.499C694.387 193.546 696.218 191.709 696.166 189.677C696.143 168.975 696.118 148.275 696.089 127.585C696.099 126.834 696.225 117.01 696.224 116.868C696.203 101.361 695.972 63.1019 696.145 50.579C696.216 49.6726 696.288 48.7661 696.36 47.8596C696.358 46.3308 696.357 44.8019 696.355 43.273C696.204 43.476 696.28 43.2323 696.127 44.0441C696.083 34.2576 696.085 19.8979 696.089 4.67725C696.14 2.70052 694.355 0.890191 692.352 0.937917C690.313 0.937382 688.268 0.936911 686.226 0.936605C654.604 0.932204 604.248 1.16837 573.803 0.948831C571.409 0.931719 571.651 0.798267 571.306 0.727358C569.932 0.727506 568.558 0.727655 567.185 0.727803C564.912 0.794307 561.056 0.9503 557.707 0.947366C539.42 0.932702 529.292 1.31409 513.948 1.00996C500.877 1.02463 490.423 1.1669 480.234 1.11605C477.515 1.01044 476.703 0.961023 474.653 0.846118C473.388 0.841554 472.122 0.83699 470.857 0.832427C468.056 0.884259 464.585 0.949301 460.384 1.02754C433.877 1.10431 406.192 1.15176 379.421 1.14394C371.161 1.1415 358.699 1.29842 354.538 1.29403C327.543 1.2686 301.623 1.37524 275.177 1.36497C273.329 1.36446 266.328 1.28625 265.516 1.28282C257.154 1.24762 252.081 1.10045 244.916 1.17623C244.537 1.25185 244.158 1.32748 243.779 1.40311C242.189 1.42266 240.599 1.44221 239.01 1.46176C233.042 1.37374 234.137 1.38207 229.083 1.25493C219.241 1.34637 225.126 1.42508 220.418 1.44024C214.39 1.45979 183.604 1.3454 179.541 1.3884C172.011 1.46811 170.467 1.59183 157.986 1.64318C157.214 1.61694 156.442 1.59071 155.671 1.56447C149.379 1.35324 149.663 1.32633 141.118 1.27792C139.806 1.29813 138.494 1.31834 137.182 1.33854C139.353 1.4334 141.26 1.51949 143.249 1.61631C135.248 1.77373 63.6802 1.57963 47.3947 1.55225C44.7422 1.48184 42.0248 1.41582 39.0679 1.35274C37.2926 1.3534 35.5173 1.35406 33.7421 1.35472C23.7115 1.31071 11.7801 1.20407 4.35156 1.03244C4.93562 0.947854 5.51968 0.863268 6.10373 0.778682C36.4127 1.15077 110.266 0.185565 124.211 1.03193C123.663 1.05021 123.115 1.06848 122.568 1.08676C118.711 1.21731 115.748 1.27891 116.052 1.43196C117.73 1.44223 119.407 1.45251 121.085 1.46278C130.401 1.25985 127.764 0.959589 127.358 0.670111C148.608 0.412444 142.844 0.833399 158.39 0.758114C187.414 0.618265 212.116 0.269604 242.663 0.41043C258.961 0.485734 255.917 0.479886 264.38 0.238817C281.429 0.221705 283.52 0.349841 298.599 0.40852C303.613 0.428079 312.219 0.195807 324.519 0.199719C327.685 0.326842 326.833 0.272085 326.975 0.429534C328.199 0.438491 329.423 0.447449 330.648 0.456406C333.915 0.325853 332.72 0.39577 332.862 0.230985C333.957 0.236525 335.053 0.242065 336.148 0.247605C337.082 0.29634 338.017 0.345075 338.951 0.39381C347.663 0.41921 453.876 0.027146 457.583 0.0666946C502.641 0.552252 502.561 -0.211042 550.522 0.232449C553.505 0.261299 571.934 -0.0203007 585.208 0.00804687C591.48 0.102905 591.237 0.122463 595.438 0.275496C597.021 0.281864 598.605 0.288232 600.189 0.294599C603.213 0.144971 602.421 0.197246 603.517 0.0314805C604.755 0.0272565 605.993 0.0230325 607.231 0.0188085C608.875 0.0500958 610.519 0.0813831 612.163 0.11267C621.458 0.016344 620.525 -0.0144604 629.272 0.00607282C635.219 0.142988 638.731 0.267211 645.815 0.31122C648.216 0.250258 650.618 0.189297 653.02 0.128335C665.299 0.14545 675.53 0.287756 690.773 0.239836C691.163 0.238612 691.696 0.237136 692.352 0.235435C693.961 0.115083 696.788 1.61724 696.808 4.67725C696.843 19.8212 696.908 49.456 696.935 47.9409C696.552 69.3335 697.287 91.2945 696.678 106.294C696.731 114.412 696.769 119.913 696.799 128.194C696.658 136.962 696.658 134.283 696.648 143.416C696.758 148.876 696.832 149.221 696.993 151.555C696.993 152.509 696.993 153.463 696.993 154.417C696.935 154.038 696.878 153.66 696.82 153.281C696.703 163.721 696.961 174.199 697.05 189.677C697.132 192.056 694.997 194.442 692.352 194.4C690.125 194.405 687.8 194.405 685.366 194.4C685.007 194.383 684.648 194.367 684.289 194.35C686.258 194.302 688.227 194.254 690.196 194.206C685.264 194.082 682.605 194.07 676.434 193.986C672.578 194.1 672.496 194.123 670.02 194.26C668.6 194.273 667.179 194.287 665.759 194.3C663.526 194.191 661.496 194.104 658.411 194.009C656.95 194.021 655.488 194.033 654.027 194.045C643.189 194.802 614.552 194.211 603.814 194.475C603.449 194.508 603.084 194.541 602.718 194.574C600.472 194.578 598.226 194.582 595.979 194.585C595.688 194.549 595.398 194.512 595.107 194.476C597.509 194.393 599.91 194.311 602.312 194.228C601.73 194.21 601.148 194.192 600.566 194.174C577.61 194.269 555.567 194.324 532.511 194.43C528.777 194.329 530.015 194.372 528.249 194.237C526.936 194.241 525.623 194.245 524.311 194.249C521.124 194.389 517.898 194.529 514.61 194.669C495.592 194.718 482.358 194.43 464.903 194.569C457.069 194.631 455.038 194.632 448.442 194.585C448.483 194.461 449.215 194.466 446.779 194.357C445.662 194.364 444.546 194.371 443.429 194.377C442.496 194.443 441.562 194.508 440.629 194.574C439.397 194.574 438.166 194.573 436.934 194.573C436.339 194.513 435.743 194.452 435.148 194.392C411.929 194.48 419.885 194.722 386.355 194.622C385.543 194.602 384.731 194.582 383.919 194.562C385.374 194.492 386.829 194.423 388.283 194.354C381.038 194.322 381.525 194.317 374.908 194.391C372.554 194.509 372.046 194.538 370.524 194.662C360.802 194.687 361.228 194.653 356.56 194.422Z" fill="#34140B"/>
</svg>
