<svg width="36" height="36" viewBox="0 0 36 36" fill="none" xmlns="http://www.w3.org/2000/svg">
<path d="M14.0707 27.3034C12.9428 24.9082 12.8559 26.7612 13.7058 23.9095C14.2284 22.4781 13.7047 22.3225 13.8242 21.5873L17.8261 24.2875C17.434 24.5326 16.9031 24.6266 15.6468 24.4705C15.669 24.9429 15.6558 24.7782 15.8555 25.2689C15.5334 25.755 10.0799 27.1373 8.56346 26.6524C8.40028 26.4889 8.24965 26.3205 8.10302 26.146C7.89037 26.1377 7.29922 26.1109 6.71197 25.9351C6.12487 25.7714 5.58747 25.4506 5.51013 25.3581C4.37479 24.0681 4.05415 22.795 3.84974 21.5898C3.80082 21.276 3.76988 20.9923 3.7533 20.6587C4.14168 20.4277 3.98697 20.4954 4.44575 20.4397C4.49503 20.0004 4.28082 19.9003 3.91203 19.5582C3.97161 19.1484 4.20722 17.8855 5.3141 16.929C6.39369 15.9768 7.93548 15.6067 9.33537 15.5283C12.1657 15.3848 14.716 16.1957 14.959 16.6685C14.9457 16.7808 14.9296 16.8926 14.9107 17.004C14.4376 17.4316 13.8489 17.3845 13.2911 17.3625C11.7118 17.3056 10.0622 17.0026 8.56681 17.2767C6.57422 17.5596 5.18376 19.0013 5.58788 21.1987C5.74464 22.567 6.45811 23.9191 7.8777 24.4205C9.15408 24.8945 10.6138 24.7605 11.9386 24.4053C12.5808 24.2307 13.2089 23.8785 13.8463 23.7101C14.6992 23.4867 15.7751 23.5935 16.1756 22.6729C16.2294 22.5631 16.3505 22.4346 16.5301 22.2774L16.1733 22.0366C16.0252 23.5627 15.7907 27.7444 16.361 28.7036C16.7686 29.9249 17.9154 30.9633 19.2067 31.1586C19.9912 31.3093 20.8131 31.3351 21.5914 31.1598C21.7345 31.1273 21.872 31.0885 22.003 31.0428C22.909 30.7309 23.639 30.0197 24.1224 29.2758C25.8047 26.1514 23.6398 22.6634 21.906 20.0223L21.2119 18.851L22.5028 19.0603C23.2577 19.0881 24.076 19.057 24.8446 18.9718C24.8862 19.0006 25.4547 19.3483 25.4664 19.3438C26.4006 19.2543 28.1918 18.145 28.8916 18.2498C29.0365 18.416 29.1867 18.5785 29.3426 18.7366C29.4167 18.6862 29.4875 18.6348 29.5585 18.5801C29.2956 18.2124 29.4327 18.3959 29.1433 18.0372C29.5675 17.5672 30.1606 16.9852 30.2152 16.0666C30.2399 15.7333 30.1767 15.3646 30.036 14.9465C29.5006 13.3562 28.4746 13.2644 27.1845 12.8934C27.0594 12.8541 27.0256 12.456 26.982 12.2467C26.9053 12.2561 26.8282 12.267 26.7508 12.2792C26.6467 12.4965 26.5367 12.9921 26.3642 13.0221C25.3778 13.2152 25.3141 14.4779 24.2002 13.9671C23.5591 14.3038 23.2604 14.9452 22.7003 15.0861C22.4105 14.8864 22.3036 14.7772 22.0272 14.5394C21.956 14.5652 21.8871 14.5901 21.8208 14.6139C21.7633 14.8297 21.6948 15.1001 21.6305 15.4197C21.5325 15.507 21.4233 15.6027 21.3512 15.6755L19.2759 16.9869L19.613 14.6504C19.5274 13.3508 19.4044 11.9395 19.2799 10.6567C19.2398 10.2087 18.6635 9.66055 18.6309 9.46788C18.4431 8.12683 17.5276 7.26126 17.201 7.15905C17.1829 7.14523 17.1327 6.87869 17.1062 6.86322C16.962 6.71524 16.7725 6.25812 16.5065 6.50555C16.5109 6.73283 16.5185 6.95995 16.5292 7.18685C16.489 7.24962 16.4492 7.31377 16.4093 7.37938C16.1747 7.15271 16.2228 7.16794 15.9292 6.84841C15.9028 6.87762 15.8802 6.90595 15.861 6.93319C15.6509 7.25478 15.8998 7.391 15.7623 7.48151C15.6772 7.54095 15.3621 7.59084 15.1453 7.66966C14.9216 7.74623 14.7743 7.85219 14.8011 7.92498C14.9116 8.18921 15.2402 8.3566 15.3398 8.55128C15.261 8.54091 15.1815 8.53383 15.1015 8.52996C14.4551 8.53046 14.3623 8.53538 14.1967 8.83226C14.2548 8.88501 14.314 8.93644 14.3742 8.98673C14.6595 8.90711 14.9207 8.85702 15.214 8.82796C15.441 8.92978 15.3799 9.46979 15.5431 10.3944C15.6864 11.2913 16.0113 12.3763 16.1594 12.7576C16.0319 12.9751 15.918 13.1873 15.8235 13.4135C15.8698 13.4969 15.9156 13.5779 15.9607 13.6561C16.0941 14.1788 16.1622 14.9069 15.9332 15.4854C15.7169 15.6186 15.4863 15.7306 15.255 15.8409C15.2543 14.8289 14.1477 13.7991 13.3772 12.6127C12.5944 11.4597 12.2453 10.0781 13.4878 9.60439C13.5453 9.62539 13.6028 9.64578 13.6605 9.66558C14.0721 9.80364 14.2778 9.89741 14.7278 9.80717C14.7462 9.73156 14.7663 9.65894 14.7878 9.58758C14.1395 9.29186 13.2556 9.43165 12.3913 9.54091C11.5773 8.28437 12.8445 8.64568 12.7867 7.82204C12.7069 6.52309 13.555 4.78074 15.118 4.34251C15.4578 4.2407 15.784 4.19915 16.17 4.23012C17.3102 4.39211 17.0067 4.40746 17.8107 3.81103C19.1994 4.18657 19.1771 4.74708 19.765 5.61035C19.9304 5.89228 20.8934 6.02292 21.2375 6.8479C20.9714 7.19688 21.0978 7.07674 20.6649 7.26506C20.6695 7.3474 20.6727 7.42955 20.6747 7.51152C21.1145 7.57242 20.891 7.5743 21.3598 7.41602C21.3687 7.49066 21.3767 7.56517 21.3838 7.63955C21.2646 7.74447 21.1439 7.84694 21.0219 7.9471C21.3244 8.39205 22.6994 13.5325 22.5378 14.9463L19.6769 13.2591C19.8219 13.1435 19.892 13.0966 19.9293 13.087C23.0466 12.9228 21.9686 10.7952 25.436 11.0426C25.6222 11.0798 26.6659 9.92642 27.8261 10.052C28.3264 10.3593 28.3124 10.4267 28.5622 10.9279C28.6799 10.9676 28.7961 11.0116 28.9102 11.0603C29.2585 10.6886 29.1603 10.8266 29.4011 10.38C29.516 10.4033 29.6315 10.431 29.7473 10.4636C29.8597 10.6095 29.9645 10.7607 30.0574 10.915C30.9561 11.1077 30.9975 11.0254 31.561 11.6935C31.626 12.404 31.4529 12.8381 31.5625 13.3734C31.8007 13.455 32.04 13.5606 32.2768 13.6886C32.344 13.929 32.3683 14.1725 32.3728 14.4207C32.3722 15.0765 32.2713 15.6743 32.2642 16.5611C32.2747 16.8081 32.1267 17.9682 31.4868 18.846C30.8814 19.7271 30.1205 20.208 30.2201 20.2202C28.383 19.996 27.4634 22.316 26.2155 20.6423C25.7324 20.8554 25.3958 20.9921 24.8817 21.1003C24.3267 20.6916 24.4985 20.6899 23.944 20.6556C23.5983 20.9811 23.5789 21.1988 23.4066 21.6786C23.3452 21.6758 23.287 21.6728 23.2281 21.6695C23.2607 21.4983 23.2903 21.3268 23.321 21.1554C22.9889 20.9607 22.6964 21.0559 22.2502 21.1967L23.7079 18.8471C24.2621 19.1985 24.9813 19.5467 25.3053 20.3772C25.2705 20.4202 25.2357 20.4632 25.2008 20.5062C25.0146 20.456 24.8352 20.4212 24.6471 20.3716C24.4585 20.8128 24.4986 20.9771 24.4316 21.4214C24.8444 21.4938 24.9044 21.4641 25.3435 21.4385C25.4167 21.5035 25.4915 21.5737 25.5634 21.6389C25.3201 21.8968 25.1278 22.1159 24.9349 22.4009C25.0016 22.4692 25.0682 22.5389 25.1347 22.61C27.5343 22.4445 26.4084 24.8815 27.2374 25.5113C27.3393 25.5258 27.4412 25.5411 27.5432 25.5573C27.5744 25.7276 27.6019 25.9015 27.6249 26.0808C27.5177 26.1114 27.4103 26.1413 27.3028 26.1705C27.044 25.9994 26.7807 25.8457 26.5152 25.7088C26.466 25.7554 26.4165 25.8014 26.3667 25.8467C26.8105 27.333 26.8133 29.4464 25.4029 31.2686C24.9427 31.2892 25.1117 31.3038 24.7287 31.0997C24.6477 31.1839 24.5748 31.2569 24.494 31.3323C24.5382 31.8282 24.5066 32.3506 24.4421 32.8647C23.5929 33.4189 22.8264 33.422 22.1253 33.4385C21.5298 33.4443 20.9883 33.4564 20.3016 33.6719C19.5981 33.8661 19.3658 33.8484 18.7572 33.5999C18.8321 33.2342 18.8959 33.2641 18.7387 32.8977C18.6332 32.8949 18.5277 32.8891 18.4223 32.8802C18.2855 33.046 18.1405 33.2073 17.9876 33.3635C17.868 33.3227 17.7393 33.2742 17.6183 33.2235C17.6277 33.0319 17.6431 32.8415 17.6644 32.6527C16.5832 32.2804 16.1442 32.1372 15.6355 31.8955C15.1642 31.6463 14.5107 31.1204 14.0821 29.6907C14.1122 29.6027 14.1437 29.5162 14.1767 29.431C14.4142 29.4731 14.6514 29.5069 14.8877 29.5317C14.7615 28.9667 14.7987 29.0108 14.4394 28.5926C14.052 28.5151 13.959 28.4985 13.5667 28.4719C13.321 27.7387 13.4433 27.743 14.0707 27.3034Z" fill="#F6F2EC"/>
</svg>
