<svg width="110" height="104" viewBox="0 0 110 104" fill="none" xmlns="http://www.w3.org/2000/svg">
<path d="M13.325 63.8376C15.9147 67.6725 19.8221 72.3679 23.0446 75.7844C24.0523 76.8537 23.9009 76.016 24.616 76.7405C26.0168 78.1538 27.0785 79.6958 28.5735 81.0553C29.0681 81.4999 29.005 80.4467 29.5098 80.9186C32.4799 83.5514 34.1946 86.1766 39.2337 89.0092C40.1231 89.4043 41.2333 90.0237 43.4347 90.0725C43.8657 90.0648 44.287 90.0444 44.71 90.006C45.1522 89.9621 45.4795 89.9312 46.1958 89.7881C46.5157 89.7206 46.8471 89.6356 47.1975 89.52C47.5639 89.3924 47.8472 89.304 48.504 88.9579C49.6219 88.3544 51.184 87.0892 51.7531 84.8042C52.2083 82.4801 51.7103 81.5715 51.3747 80.6088C50.9969 79.7435 50.7502 79.3985 50.4212 78.9136C50.0722 78.4215 49.8668 78.1832 49.5983 77.8695C49.3484 77.5809 49.0446 77.2543 48.8254 77.0317C46.923 75.1232 45.1872 73.7611 43.4924 72.3692C40.0448 69.5787 36.7771 66.9817 33.6129 64.2014C27.3733 58.6965 21.4321 52.6437 18.255 45.7447C16.0488 41.2105 15.2475 35.3459 18.0164 30.913C18.0711 30.8185 18.1259 30.7259 18.1806 30.6352C18.5326 30.0602 18.8469 30.6972 18.9501 30.6097C20.5185 29.3854 19.1585 29.3763 19.696 28.3049C22.1729 23.8251 24.4308 23.9239 27.7368 27.8937C28.9156 29.4601 26.7999 28.6705 28.4912 29.8021C28.6086 29.888 28.8078 29.1145 29.1844 29.5171C30.0762 30.4558 31.271 32.645 31.798 33.539C32.8166 35.2307 32.9725 35.5738 33.779 37.2892C34.8929 39.6783 36.325 42.4959 37.1167 45.2723C37.2807 45.8575 36.4254 45.2998 36.6288 46.2488C36.839 47.1979 37.6447 49.6361 38.0198 50.4304C38.4016 51.2247 38.7793 50.735 38.9313 50.8524C40.2176 51.8267 39.6592 55.0778 39.7055 55.4526C40.7411 62.3742 42.4261 68.25 42.5349 74.6321C42.5517 77.0104 42.3721 79.2983 41.8727 81.4211C41.4435 83.5222 40.3023 85.103 40.0755 85.033C40.2565 84.9517 40.4891 84.8937 40.7017 84.8824C41.1181 84.8605 41.3485 84.9752 41.3843 84.9963C41.4265 85.0238 41.3416 84.9882 41.2176 84.8915C40.9792 84.7139 40.6091 84.3373 40.2809 83.9412C39.5926 83.1131 38.9201 82.0962 38.297 81.0444C37.0481 78.9227 35.9463 76.6067 34.9898 74.0588C34.7899 73.5226 35.7248 73.8826 35.4846 73.2278C34.9505 71.7598 34.4479 70.2714 34.007 68.8143C33.7851 68.0783 33.5831 67.3663 33.4136 66.6765C33.3743 66.5168 33.3332 66.341 33.2989 66.184C33.2658 66.0332 33.2348 65.8795 33.2118 65.7508C33.1904 65.6356 33.1739 65.5093 33.1718 65.5006C33.1695 65.4925 33.1737 65.5216 33.1675 65.6478C33.1339 65.7326 33.2535 66.0538 32.7361 67.0852C32.2458 67.9213 31.8036 68.1408 31.6013 68.275C31.3986 68.3906 31.3183 68.4107 31.2918 68.4194C31.245 68.4294 31.3708 68.3857 31.5294 68.3513C31.8529 68.2778 32.3288 68.2069 32.8114 68.1475C33.7951 68.0271 34.8912 67.9321 36.0007 67.8236C38.2385 67.5987 40.5533 67.3726 43.0764 66.7414C43.9594 66.505 42.6829 66.1088 43.5393 65.8291C44.3504 65.5504 45.2595 65.2092 46.2746 64.5681C47.3266 63.977 48.1262 62.7173 48.2924 61.7025C48.5017 60.6278 48.3657 59.7882 48.2164 59.0511C47.8876 57.5608 47.3369 56.3014 46.8936 55.1722C45.9595 52.8652 45.2562 50.8801 45.5815 49.139C43.6651 46.3214 41.0819 43.1531 38.7229 41.269C37.1986 40.0606 37.8769 41.923 36.5651 39.9737C36.2646 39.5372 37.1878 39.6298 36.6973 39.0049C34.6149 36.3675 31.8767 33.9303 29.4421 31.5194C28.9382 31.0229 29.4365 30.7096 29.3426 30.5051C28.5321 28.7749 25.2655 28.2425 24.6224 28.0481C22.5218 27.4051 20.5307 26.1313 17.0893 27.3322C16.5475 27.5659 16.0464 27.9667 15.706 28.4121C15.3791 28.8395 15.2135 29.2162 15.0888 29.5943C14.8581 30.3719 14.8667 30.7451 14.8617 31.261C14.8678 31.6563 14.9034 32.0215 14.9582 32.399C15.0066 32.7293 15.0635 33.0298 15.1351 33.3547C15.4039 34.5584 15.7776 35.6856 16.2061 36.7891C16.5754 37.7184 15.4369 36.8825 15.7812 37.8065C17.5588 42.4093 19.9344 46.6834 22.4813 50.5354C23.0539 51.391 23.1443 50.2541 23.4464 50.6459C24.7688 52.3593 23.9685 53.3826 25.2522 55.0255C25.5227 55.3723 25.8657 54.8792 25.9582 54.9165C27.403 55.4879 26.8264 57.1018 26.9703 57.3907C28.7606 61.0333 31.3452 62.4589 33.4374 65.7638C33.6944 66.1656 32.5058 65.6991 33.2615 66.7977C34.6871 68.7194 35.5752 70.4274 38.3118 72.6467C41.6024 74.7369 44.8389 75.9803 48.7936 76.4154C50.6584 76.4797 53.4911 76.7901 55.6968 73.8992C57.4255 70.8769 56.3133 68.6792 55.7559 67.0333C55.1546 65.6403 55.0435 66.8461 54.9505 66.7748C53.4952 65.7811 54.2921 64.4496 54.1119 63.9786C54.0747 63.8862 54.0358 63.7938 53.9953 63.7014C54.0196 63.7362 54.0717 63.7907 54.1236 64.0366C54.1762 64.2335 54.149 64.7278 53.9706 65.0452C53.7962 65.3764 53.6245 65.4959 53.5661 65.5458C53.4944 65.5998 53.4916 65.5963 53.5151 65.5862C53.6354 65.526 54.0444 65.369 54.4155 65.218C55.183 64.9094 56.0149 64.5058 56.7567 64.0779C58.2726 63.2127 59.5068 62.2785 61.0049 61.7201C63.2395 58.8906 64.311 55.7231 65.0269 52.6693C66.153 48.3779 68.6754 43.5461 70.3109 38.5337C71.1336 35.9844 71.9048 33.3509 71.9119 30.2623C71.8897 28.7306 71.6501 26.976 70.6118 25.3385C69.5875 23.6815 67.7537 22.6516 66.1738 22.316C64.6293 21.9547 62.9558 21.9592 61.4424 22.3682C61.2338 22.424 61.7232 23.0039 61.3246 23.1124C58.9811 23.8628 58.1978 24.3532 57.3245 24.415C56.4846 24.5221 55.6596 24.365 54.0014 24.9474C53.1184 25.2604 52.5074 28.0143 52.4737 28.2252C52.2626 29.0362 53.4962 29.1737 53.385 29.404C52.491 31.2287 50.2543 28.9545 48.5957 30.5601C48.5481 30.6114 49.167 30.856 49.0702 31.0263C48.7539 31.577 48.1542 31.7187 48.0791 31.9603C48.0283 32.1035 48.1617 32.2623 48.1688 32.4775C48.1796 32.6889 47.9863 32.8699 47.723 32.8424C47.1989 32.805 46.6387 32.169 46.7415 30.9673C46.761 30.7695 47.5537 30.6438 47.9282 30.021C48.181 29.8218 48.3626 29.748 48.3691 29.5048C48.3644 29.3803 48.5179 28.8044 49.1364 28.0732C49.7223 27.3543 50.6317 26.6453 50.9995 26.325C51.7731 25.6674 50.8784 25.5473 50.918 25.4887C53.0027 23.3401 51.9356 23.6187 52.892 21.8861C53.9909 20.1909 54.5465 22.968 55.2106 23.0599C55.8632 23.135 57.8005 21.9953 58.3309 21.7158C58.8392 21.4118 58.0998 21.1377 58.5778 20.9402C61.8677 19.7999 60.1025 22.1933 61.1015 22.5937C63.1606 23.703 65.1513 22.0757 67.0099 23.5058C67.4328 23.887 66.7876 23.8609 67.0484 24.2458C67.6826 25.2662 68.2052 26.0784 68.404 27.2761C68.4958 27.878 68.5051 28.6099 68.326 29.4286C68.2558 29.8545 66.9825 31.6887 67.7066 33.0767C67.813 33.2737 68.3902 32.8141 68.3823 33.7544C68.3764 35.1896 67.9502 37.7582 67.3782 39.1965C66.9568 40.2701 66.4889 38.7964 66.3599 40.2286C66.2972 40.8655 67.0991 39.876 66.9354 41.0716C66.7788 42.2841 65.7707 45.1881 65.3374 46.2654C64.9105 47.3548 64.5368 46.5282 64.4635 46.6018C64.0332 47.0601 62.9314 48.9886 62.8503 49.1744C58.9827 58.2607 55.4895 66.9039 50.0882 75.027C49.6525 75.6784 49.3547 74.8789 49.2823 74.9746C47.6717 77.0138 50.2838 76.2291 49.7948 78.1195C48.7848 77.1552 48.4127 78.2164 47.2801 79.6503C46.7165 80.3614 46.5527 79.6524 46.4607 79.6927C45.0806 80.3056 45.3981 81.6418 45.4517 81.9265C45.5114 82.1262 45.421 82.3964 45.3657 82.5351C45.3269 82.6187 45.3221 82.6414 45.2449 82.7364C45.2173 82.7704 45.1952 82.793 45.1857 82.7991C45.181 82.8021 45.1795 82.8009 45.1841 82.7938C45.1865 82.7902 45.1904 82.785 45.1967 82.7779C45.2233 82.7695 45.1233 82.7816 45.4726 82.6089C45.57 82.5728 45.7205 82.5153 45.9828 82.5381C46.2409 82.5515 46.6056 82.7473 46.765 82.9936C47.0707 83.4998 46.9484 83.6854 46.9557 83.7846C46.9316 83.9165 46.9415 83.8635 46.9356 83.895C46.9301 83.9245 46.9284 83.9376 46.9298 83.9436C46.9326 83.9549 46.9472 83.9381 46.9695 83.9093C47.0279 83.8241 47.0574 83.8029 47.1008 83.7469C47.1836 83.6436 47.2735 83.5054 47.3347 83.334C47.3808 83.2072 47.3956 83.0759 47.3711 82.9411C47.2845 82.4982 46.8869 82.6004 46.6371 82.5325C46.5104 82.5013 46.416 82.4435 46.3945 82.2917C46.3831 82.2167 46.3935 82.107 46.4202 81.9687C46.4387 81.8532 46.4774 81.7042 46.5406 81.493C47.1597 81.1031 47.987 82.902 48.5998 81.4521C50.5928 76.2444 50.3045 66.7381 50.7479 62.6719C51.1299 58.6163 51.4067 57.3266 51.5783 54.9686C51.9329 50.7066 52.6252 52.3885 53.5311 49.9056C54.4776 47.4481 51.9437 48.2015 51.5296 47.7195C51.1223 47.2325 51.7191 46.937 51.5588 46.4182C51.4001 45.8982 50.8287 46.8066 50.989 45.7086C51.1386 44.5531 52.8959 41.884 53.5485 41.7222C54.8934 41.3638 55.4544 42.9139 56.1464 40.3674C56.1909 40.2233 55.4225 40.3866 55.6244 39.845C56.2655 38.1806 57.347 36.582 58.7237 36.5079C60.1701 36.4013 61.8261 37.6777 63.1991 39.0563C63.8948 39.7385 64.3321 40.7485 64.6129 41.8338C64.7724 42.4819 65.3602 41.7902 65.4571 42.1824C66.1417 46.5124 64.8143 44.9912 63.3758 47.0556C65.1099 46.744 66.0934 48.1834 65.3868 51.4305C64.9387 53.3717 64.2901 52.8413 63.4595 53.9169C63.2084 54.2461 63.3167 55.6912 62.9052 55.8294C61.5646 56.2636 60.7502 54.699 60.2138 57.9177C60.1898 58.062 60.9316 57.8302 60.805 58.315C59.9659 61.4249 58.7048 61.3729 57.2567 64.4913C56.1213 66.9372 54.7284 71.6095 53.3587 74.3957C55.0879 75.2388 53.276 77.6587 51.529 78.0101C50.5617 79.7826 49.3655 81.5577 48.4134 83.2591C48.0897 83.8357 48.791 83.7974 48.793 83.8998C48.8233 85.5009 47.2356 85.4612 46.9505 85.7479C44.8176 87.9422 42.8115 90.6556 41.0257 90.8036C40.7534 90.7996 40.5957 90.7411 40.5738 90.7074C40.5696 90.6615 40.7094 90.8113 40.7121 90.7581C40.7314 90.6458 40.9561 90.0148 41.3128 89.5524C41.354 89.4946 41.7022 89.539 41.9829 89.4328C42.2593 89.3398 42.4494 89.128 42.282 88.3965C42.2662 88.2882 41.0561 89.2793 41.9631 87.4733C42.8996 85.6465 44.5828 81.9238 46.8033 79.855C47.3449 79.3427 49.2714 78.4931 49.4282 76.8056C49.4472 76.5795 49.0119 76.5348 49.0009 76.1816C48.9695 75.0498 50.3584 75.4126 50.0311 73.8797C49.699 72.3446 50.2549 70.0676 52.494 67.9847C52.5582 67.9244 53.8504 67.8735 54.3161 67.0546C55.072 65.7343 55.9001 63.7454 56.5041 62.3019C56.7969 61.5991 57.226 62.2958 57.2875 62.1774C58.1617 60.28 58.8782 58.178 57.8841 56.0894C56.6027 53.7445 54.9729 51.6997 52.9297 49.2273C52.3067 48.4599 51.2012 45.6353 49.3699 44.6501C47.376 43.6021 46.4332 47.3274 43.764 43.3686C42.6895 41.8089 43.8016 37.0765 39.7417 36.2514C35.0273 31.2988 29.5491 28.0777 24.1057 24.0395C23.8766 23.878 23.5706 22.3996 22.7468 22.1196C22.1991 21.9491 21.616 21.9046 21.0706 22.218C20.9108 22.3108 20.7819 22.4559 20.723 22.611C20.6708 22.7535 20.669 22.893 20.688 23.0249C20.7361 23.2805 20.8112 23.3938 20.8921 23.6267C20.9932 23.8825 21.1054 24.1014 21.2639 24.3871C22.6936 26.9179 24.5089 29.0996 26.9262 30.671C27.9454 31.3127 27.8797 30.6186 29.0931 31.3073C30.3104 31.9722 30.8117 33.0669 32.6888 33.5626C34.1152 33.931 36.0038 33.1176 37.8131 33.671C37.317 35.0639 38.5395 35.5307 40.556 36.7541C40.9428 36.9904 40.307 37.2894 40.4801 37.4258C41.1789 37.9907 42.0796 37.894 42.7213 38.4687C42.8775 38.6076 42.6947 39.0776 42.8118 39.2179C43.7961 40.4188 46.2866 40.2809 46.7188 40.2712C48.3951 40.2255 48.7187 41.1251 49.8582 41.4023C50.9938 41.6915 49.6825 40.5416 50.9374 41.0369C53.5728 42.0759 56.584 44.3936 58.2785 46.8419C58.9473 47.8172 57.9301 47.5162 58.0135 47.6649C59.1552 49.6272 60.4497 51.9328 59.2468 53.3316C62.8173 54.6507 59.1832 54.7504 59.4998 57.8863C59.5148 58.1417 61.0845 58.7805 61.4757 57.7359C61.856 56.7201 61.4593 55.0285 61.6734 53.4702C61.7001 53.2819 62.0377 52.6217 62.3195 51.9282C62.6001 51.2024 62.8148 50.4451 62.814 50.2767C62.7163 47.5384 60.1786 48.3102 60.0516 48.2802C58.2381 47.768 58.1072 44.9586 57.6438 44.3473C55.8479 41.7235 53.4225 40.6062 51.4717 39.0861C50.1793 38.1095 50.7436 36.6094 49.5643 36.0913C45.6352 34.4416 43.5049 36.069 40.7376 32.8581C40.1534 32.1755 41.5213 30.8463 38.3975 31.0591C38.2045 31.0758 35.7807 31.4312 35.0463 30.214C34.9544 30.0616 35.1736 29.5999 35.0154 29.4799C33.9697 28.6882 33.0342 28.6851 31.9636 27.8769C30.8844 27.0597 29.7809 26.022 28.6497 25.3305C27.976 24.9336 26.6018 24.9189 26.17 24.7835C24.9582 24.417 25.1661 22.9802 24.3463 22.7306C24.3064 22.7195 24.2646 22.7123 24.2203 22.7088C23.7569 22.693 23.331 22.9898 22.9088 23.2183C22.6977 23.3306 22.4784 23.4099 22.2431 23.3783C22.1241 23.3562 22.0145 23.3477 21.8904 23.2377C21.7658 23.1659 21.7153 23.0095 21.6133 23.1406C22.2066 23.4249 22.7235 23.988 22.803 24.8048C22.9158 25.6083 22.545 26.5041 22.3613 27.218C21.6216 27.3815 21.2071 27.3016 21.0642 27.2843C20.9163 27.26 20.863 27.2391 20.8624 27.2364C20.8679 27.2311 21.0077 27.2717 21.1845 27.3417C21.3404 27.4014 21.5466 27.4899 21.7746 27.5967C21.9741 27.6887 22.1973 27.7975 22.4395 27.922C23.3487 28.3853 24.3787 28.9825 25.3381 29.5747C27.3101 30.7968 29.275 32.173 31.1381 33.7113C31.6016 34.0971 30.6729 34.2633 31.1576 34.6926C33.1707 36.484 35.2947 37.6515 37.2294 39.7066C38.7236 41.3004 39.9027 43.4963 41.3187 45.2321C43.3718 45.154 45.2883 47.97 46.9036 49.7179C47.4778 50.3368 47.7545 50.0367 48.2312 50.4178C50.0117 51.8873 48.2916 51.881 48.4929 52.4872C49.2711 55.0735 51.9243 53.4911 53.4341 56.1792C53.4873 56.2698 53.2556 57.6932 53.0503 58.4358C52.8291 58.3819 52.6775 58.3202 52.6426 58.2946C52.238 58.0011 52.4212 58.1091 52.6498 58.0773C52.8868 58.0799 53.2257 58.0047 53.2814 58.1611C53.4581 58.9657 53.3326 60.5878 51.9322 62.2937C51.5193 62.8114 49.8715 63.7158 49.8522 65.2391C49.8475 65.4436 50.3558 65.6386 50.3073 65.7781C49.3723 68.2726 47.8917 67.4187 46.5927 68.3467C45.2883 69.2728 44.8903 71.87 44.8815 72.4637C44.8606 74.0005 45.7437 71.8796 45.8504 71.8723C47.1408 71.7888 46.0084 73.1129 45.3039 74.2576C46.5411 75.3665 45.3753 76.8436 44.5696 75.439C44.4863 75.2791 45.2096 74.5223 45.3039 74.2576C43.3105 74.2783 41.9357 75.8484 41.849 78.617C41.8178 79.9145 43.0665 79.5197 40.9678 82.0973C40.041 83.261 39.3785 82.1905 38.3965 83.1711C37.4287 84.1906 36.6456 85.4759 35.9927 87.3333C35.7422 88.2682 35.2057 89.2594 35.534 91.5984C35.6491 92.7759 36.9371 94.6818 38.1902 95.1842C39.5555 95.8179 40.2316 95.7559 41.026 95.7727C41.688 95.7604 42.2893 95.6458 42.8301 95.4885C43.3197 95.3446 43.7201 95.1849 44.1192 95.0067C45.729 94.1992 44.5352 95.5895 45.5947 95.0263C48.2436 93.4202 49.1171 91.5772 50.7626 89.9859C50.9089 89.8397 51.0988 90.6441 51.5508 90.0922C54.8885 85.9264 56.7243 81.9832 59.1808 77.3923C60.3625 75.1915 62.6343 71.3168 63.5954 68.897C65.3087 64.7203 66.3325 59.203 67.5934 55.5059C68.4134 53.0714 68.8812 53.7724 69.5823 52.77C70.9707 50.8286 69.9941 46.5296 69.7405 45.9322C69.7516 45.9299 69.3489 48.2914 69.1502 47.0057C68.5336 46.1917 69.7338 45.9659 69.7405 45.9322C69.7131 45.6674 69.4915 40.4483 68.8772 39.005C68.6887 38.278 69.4079 38.4525 69.2774 38.058C68.9612 37.1417 68.4159 36.0557 67.6283 35.1066C67.0972 34.4316 66.5497 33.8094 65.9686 33.2376C65.2426 32.5467 64.5981 31.9939 63.5836 31.373C61.9129 30.194 57.8569 29.1987 54.8742 30.7848C49.4077 34.0354 49.1417 37.387 48.0354 40.1594C48.0094 40.2713 48.7157 40.3407 48.6504 40.5918C47.7829 44.1596 46.5408 46.1063 45.4872 48.8121C44.4642 51.4943 44.3027 53.7373 45.2431 55.508C44.7963 57.5481 44.9502 60.5409 45.0703 62.2542C45.1899 63.9624 43.8316 64.0413 43.7877 64.188C42.4175 68.6777 42.9412 71.4257 42.4536 75.9575C42.371 76.6875 42.23 77.5952 42.0278 78.5413C41.9394 78.9494 41.8075 79.4907 41.7037 79.806C41.6419 80.0059 41.5855 80.1521 41.5498 80.2207C41.5133 80.3012 41.4859 80.2828 41.6221 80.0161C41.5105 80.1963 41.4097 80.3617 41.3144 80.523C41.2668 80.6038 41.2204 80.6836 41.1741 80.7658C41.1571 80.7951 41.1139 80.8748 41.0635 80.9734C41.0147 81.0689 40.9641 81.1716 40.9063 81.2991C40.8485 81.4284 40.7836 81.5771 40.7016 81.812C40.6607 81.9308 40.6151 82.072 40.5656 82.265C40.5594 82.2892 40.5532 82.3142 40.547 82.3403C40.5383 82.3804 40.5451 82.3349 40.4985 82.5644C40.4413 82.9292 40.3185 83.4003 40.4595 84.4552C40.5348 85.3786 41.4615 87.7811 43.7878 88.6909C46.034 89.5279 47.3563 88.8993 47.9949 88.6749C48.6649 88.3849 48.9518 88.1596 49.1849 87.9923C49.2871 87.9166 49.4211 87.8057 49.4312 87.7969C49.4449 87.7856 49.4581 87.7746 49.4709 87.7637C49.5222 87.7203 49.5675 87.6807 49.6087 87.6438C49.6909 87.57 49.7569 87.5072 49.8149 87.4506C49.93 87.338 50.0137 87.2495 50.0879 87.1695C50.2245 87.0229 50.3748 86.8441 50.4202 86.7928C50.4786 86.7256 50.5347 86.6599 50.5902 86.594C50.7011 86.4622 50.8101 86.3288 50.9214 86.1898C51.0153 86.0739 51.0846 85.9901 51.1668 85.8875C51.3221 85.6952 51.5033 85.4617 51.6347 85.2957C52.9184 83.6597 53.3061 82.4804 54.4663 81.0472C54.623 80.8519 54.9915 81.3859 55.0519 81.3342C56.7838 79.9411 54.9913 80.0342 54.9998 79.5325C55.0073 77.728 55.077 76.6638 56.7792 74.6822C57.1859 74.2007 59.8665 73.793 60.5386 72.8653C61.3767 71.7126 60.4541 71.8113 61.3555 70.5802C61.433 70.4715 61.8246 70.7281 62.2534 69.9121C64.2606 66.1024 66.1816 61.7918 68.1162 57.7111C68.379 57.1513 68.7182 58.1822 69.109 57.3742C70.9398 53.5807 72.6863 49.2217 73.662 45.0659C73.8973 44.0443 73.2049 44.5112 73.1275 44.2486C72.6659 42.6492 74.4791 41.1278 74.5894 40.7852C76.1651 36.1102 76.6906 31.5666 75.8213 26.1889C75.3883 22.3289 72.0704 17.0879 67.4044 15.2757C66.8524 14.8017 61.9441 12.3983 60.07 13.8904C59.9044 13.9718 58.2142 15.3258 56.5787 14.7612C56.4698 14.7316 57.4548 13.8644 55.5485 14.3131C53.676 14.7647 50.5673 15.3183 48.518 17.213C47.8384 17.8423 46.8846 19.7006 44.1721 20.7215C44.0803 20.7652 42.8296 21.0284 41.5246 22.0118C40.2154 22.9329 38.8828 25.0314 39.2898 26.5666C39.3533 26.8061 39.7847 26.9414 39.9831 27.5908C40.2484 28.2424 39.9699 29.3722 40.2828 32.1585C40.2852 32.2261 40.2871 32.2954 40.2886 32.3663C40.3105 33.0027 39.6053 32.0335 39.8947 33.6674C40.0583 34.3851 40.2716 35.0916 40.8517 36.1533C41.47 37.1149 42.2612 38.8402 45.3593 40.1399C46.846 40.7241 48.6502 40.7519 49.8666 40.4844C51.1102 40.2297 51.9741 39.8112 52.5942 39.4995C53.8991 38.8084 54.6032 38.301 55.3439 37.8889C55.886 37.5955 58.1023 36.9323 58.2893 35.4694C58.3239 35.237 57.6686 35.1199 58.0686 34.6068C59.8984 32.1713 62.0552 31.0069 62.7274 30.5275C62.9876 30.3337 62.6517 29.4678 63.0634 29.1907C63.2977 29.0432 63.713 28.9298 64.2027 29.0568C64.4769 29.1242 64.4936 29.2331 64.336 29.3368C64.1539 29.4547 63.7984 29.7473 63.4867 30.0356C63.1814 30.3172 62.7985 30.5385 62.4789 30.1294C62.1701 29.6917 62.2058 29.5977 62.1877 29.8941C62.1785 30.177 62.1348 30.74 62.0229 31.4015C61.802 32.7418 61.36 34.432 60.8209 36.1849C59.7372 39.7559 58.2754 43.393 56.7445 47.8972C56.3052 49.3263 56.1803 47.8519 55.5118 50.2687C55.5008 50.3125 55.49 50.3567 55.4792 50.4011C55.0671 52.1453 54.2442 54.0773 53.4077 55.0295C52.9876 55.5188 52.6781 55.758 52.2132 56.0174C51.9576 56.1542 51.7108 56.2715 51.0348 56.5284C50.6396 56.7021 50.3242 56.7174 48.8732 57.5049C48.2132 57.9868 46.4345 58.6619 45.2271 61.9742C44.2964 65.4102 45.4526 67.1529 45.8449 68.0321C46.8824 69.6463 47.3038 71.1269 47.5491 70.4406C47.661 70.2047 47.8712 69.7481 48.1196 69.4557C48.36 69.1646 48.5966 69.004 48.7328 68.9756C49.0173 68.914 48.9934 69.2238 49.012 69.5132C49.0231 69.8126 49.0989 70.0408 49.2222 70.0675C49.2851 70.0811 49.356 70.0484 49.469 69.9396C49.5836 69.8314 49.7642 69.605 50.0689 69.3831C50.6833 68.9787 50.6404 68.7644 50.4558 68.3523C50.2727 67.9679 50.0467 67.5255 49.9624 67.4921C48.1079 66.8052 45.105 66.3668 43.4507 65.0572C43.5008 65.0875 43.5399 65.1117 43.5705 65.1302C43.7272 65.2221 43.7681 65.0268 43.9029 64.9052C44.0143 64.7648 44.1555 64.6543 44.1333 64.6116C43.5782 63.9322 41.8543 62.1988 40.8281 60.6562C40.3289 59.9089 40.8671 59.7763 40.3704 59.1328C39.2043 57.6047 38.0601 56.2632 36.6193 54.9086C36.4869 54.7831 36.5893 56.1355 35.7759 54.9058C34.4704 52.9239 32.5149 50.6366 31.5635 48.016C31.2832 47.235 32.2903 46.6317 30.7239 45.5164C30.3985 45.2811 29.386 46.3855 29.4717 44.0112C29.4781 43.6139 29.3362 39.8721 27.6788 38.9077C27.2397 38.6572 25.7044 38.1637 25.4764 37.2438C25.4492 37.1164 26.2372 37.3098 25.9664 36.5803C25.4949 35.3122 24.9806 34.0283 24.6005 32.8789C24.4055 32.2922 24.2475 31.7324 24.179 31.3468C24.1389 31.134 24.1318 30.9964 24.1473 30.976C24.1556 30.9732 24.1715 31.0129 24.1838 31.1261C24.195 31.2641 24.2049 31.5077 24.1413 31.9078C24.0616 32.4015 23.9323 32.8404 23.9736 32.9244C24.004 33.0331 24.1518 32.9121 24.2724 32.8419C24.391 32.7745 24.5028 32.7415 24.4509 33.0698C24.3019 33.3806 24.4769 34.1945 22.3264 35.9591C21.9465 36.2337 21.5336 36.4679 21.1203 36.6491C19.3081 37.3905 18.6255 36.9828 18.6536 37.0376C18.6526 37.0328 19.0877 37.1884 19.558 37.4316C20.5417 37.926 21.8237 38.7532 22.9076 39.5146C23.7395 40.1048 23.5478 39.2404 23.6429 39.2422C25.1895 39.2853 24.8961 40.7812 25.1378 41.1047C26.7051 43.1747 28.5299 44.2004 30.0414 46.1346C30.4558 46.6679 29.6752 46.7186 29.7226 46.8555C30.2232 48.2483 30.3863 46.7433 31.0532 47.3305C32.9217 48.9812 34.5908 51.2083 35.8936 53.2552C36.3659 54.0038 35.2142 53.5806 35.643 54.2512C36.708 55.9421 37.7229 57.7076 38.3732 59.1391C38.6943 59.8174 38.8991 60.505 38.9162 60.4515C38.924 60.4287 38.9218 60.3489 38.9379 60.1483C38.9464 60.0499 38.9602 59.9271 38.9868 59.776C39.0162 59.605 39.0619 59.3993 39.1362 59.1642C39.3388 58.2546 40.5781 56.5742 41.7718 56.0751C42.0224 55.9993 41.8149 56.1574 41.5043 56.2828C41.0073 56.4776 41.4466 56.9409 41.3609 57.0899C40.6476 58.1604 38.6433 57.1558 38.2356 57.0703C36.2684 56.7088 35.4969 57.2202 33.5114 57.261C32.6658 57.2812 31.7763 57.3096 30.6794 57.4217C30.1066 57.4853 29.5111 57.555 28.6477 57.7566C28.1852 57.8711 27.6697 58.0044 26.9115 58.3301C26.1299 58.781 24.8442 58.9612 23.0856 61.7474C22.3961 63.0379 22.2972 63.8487 22.2018 64.4607C22.1805 64.626 22.1713 64.7255 22.1636 64.8092C22.1558 64.8969 22.1498 64.9803 22.145 65.0603C22.1355 65.2202 22.131 65.3662 22.1295 65.5028C22.1271 66.0823 22.1555 66.3634 22.1811 66.6594C22.2456 67.2946 22.2989 67.6034 22.3753 68.0392C22.5043 68.7557 22.6542 69.4034 22.8075 70.0146C23.1146 71.2305 23.4499 72.3449 23.8098 73.4508C24.5363 75.6715 25.3508 77.7975 26.2614 79.9046C28.27 84.1786 29.6126 87.8935 34.1544 92.434C34.8951 93.0798 35.8629 93.8764 37.4571 94.5287C39.0524 95.2382 41.9736 95.5357 44.2563 94.4305C50.4896 91.0131 50.7566 86.6104 51.5549 83.7646C52.1253 80.7949 52.1963 78.1259 52.1648 75.6141C52.0648 70.5249 51.4629 65.7728 50.6528 60.6246C50.5354 59.9032 51.3856 60.5008 51.293 59.8814C50.015 51.8317 47.6459 44.2501 44.7608 36.4785C44.5176 35.8389 45.5372 36.4904 45.1635 35.4523C44.409 33.3414 43.1473 30.6901 41.8074 28.6762C41.1668 27.7183 41.3735 29.3488 40.7416 28.3914C39.2025 26.0841 37.6361 23.6645 35.6138 21.1553C34.75 20.1129 36.6601 21.1666 35.4619 19.8402C33.849 18.134 31.9735 16.4026 29.0611 15.0663C26.2564 13.693 21.7645 13.3015 18.3985 14.7435C11.8633 17.7033 9.96738 21.9797 8.01296 25.6176C6.51557 28.6939 5.59856 32.0775 5.48852 35.6093C5.47118 36.487 6.83279 37.3172 6.59509 39.0382C6.19769 39.1821 5.72548 39.1925 5.29858 39.268C6.98099 57.9873 20.1497 67.205 30.1371 76.3655C30.5838 76.7475 29.3149 76.6651 30.1753 77.4048C32.649 79.5325 35.0865 81.6131 37.3116 83.5284C38.3848 84.4488 39.5374 85.491 39.9852 85.9199C40.0756 85.9896 40.0946 86.0239 39.9326 85.663C39.875 85.5172 39.6619 85.0669 39.5389 84.3451C39.4228 83.7571 39.3255 82.165 40.0651 80.6777C40.8681 79.0944 41.7602 78.5143 42.4646 78.096C43.2339 77.6928 43.3951 77.7173 43.6291 77.6613C44.0404 77.6034 43.9525 77.6908 43.8385 77.7378C43.7187 77.7818 43.6777 78.1616 43.5014 78.4902C43.7407 78.6443 44.0075 78.8159 44.2009 78.9564C44.3841 79.0927 44.4523 79.1802 44.3913 79.0959C44.3916 79.075 44.1668 78.9101 43.7202 78.4805C43.3204 78.0885 42.8213 77.5132 42.6855 77.1996C42.6536 77.1121 43.3853 76.9191 42.8313 76.4055C39.5251 73.2807 35.7982 69.0955 32.2158 65.2931C31.635 64.6743 31.6792 65.7973 31.2606 65.3589C28.2859 62.2322 25.8295 58.1749 22.8851 55.2132C20.9176 53.2318 20.5835 54.7319 18.7896 54.2064C18.5365 54.1337 17.5117 52.7525 16.9157 53.0573C15.419 53.8341 14.4337 55.5996 12.7767 56.3413C12.6877 56.3815 12.5497 56.2676 12.4135 56.1276C12.2749 55.9841 12.0927 55.7501 11.9539 55.6053C11.8624 55.5016 11.794 55.4374 11.7361 55.4027C11.7112 55.3912 11.6418 55.3191 11.594 55.2809C11.5658 55.2552 11.5359 55.2291 11.4785 55.1568C11.4185 55.067 11.3365 55.0113 11.1043 54.4843C10.9927 54.2315 10.8366 53.6984 10.804 53.2433C10.7856 53.0284 10.7871 52.8962 10.7829 52.941C10.7796 52.9797 10.7761 53.1885 10.8019 53.4331C10.9528 54.5631 11.2491 54.9236 11.3001 55.0863C11.4458 55.3942 11.4133 55.3913 11.4339 55.4947C11.464 55.676 11.3958 55.7436 11.4463 56.0168C11.4332 56.1097 12.1926 57.7026 12.2002 58.247C12.1886 58.602 11.3408 58.5815 11.4578 59.218C11.5992 59.8871 12.4363 60.0767 12.7609 61.0719C13.0892 62.0761 12.1983 62.1669 13.325 63.8376ZM45.637 69.9118C46.109 71.4914 43.7351 71.4599 44.4808 69.8844C44.5196 69.8083 45.6144 69.8296 45.637 69.9118ZM28.3991 29.2803C30.602 29.6039 30.7312 31.6625 29.1594 31.4647C27.5682 31.2611 27.7333 29.1881 28.3991 29.2803ZM28.596 29.2898C26.247 28.6882 28.077 25.8559 29.4496 27.6365C29.5335 27.7376 28.7316 29.3204 28.596 29.2898ZM22.6217 59.9339C22.5775 59.9281 21.8254 58.9782 21.822 58.9211C22.0274 57.9452 23.5597 59.8841 22.6217 59.9339ZM46.9478 38.4801C46.0892 38.5807 44.3285 37.2642 45.3981 37.1075C46.2694 36.978 48.0325 38.3531 46.9478 38.4801ZM67.8855 22.7529C67.8506 22.745 67.1446 22.1458 67.2712 22.0104C67.7403 21.5227 68.6461 22.676 67.8855 22.7529ZM57.4122 68.0139C59.595 63.0732 57.7346 59.3118 56.1709 64.5041C55.8557 65.4276 57.7658 62.9055 57.5429 64.1358C57.0809 66.4964 54.8562 67.1069 54.5033 69.7223C54.4462 70.2085 57.3202 68.2802 57.4196 68.0074C57.4171 68.0096 57.4146 68.0118 57.4122 68.0139ZM48.3591 71.0988C48.3864 71.1387 48.2738 72.3878 48.2398 72.4084C47.4181 72.9942 47.6439 70.4875 48.3591 71.0988ZM65.2944 23.0981C65.3184 23.0859 65.5616 23.1201 65.9132 23.2072C66.9138 23.3634 68.5787 24.4837 68.5666 24.6229C68.7373 25.3665 68.2377 25.2282 67.6614 24.9739C67.0555 24.6923 66.2766 24.351 65.6672 24.0485C65.084 23.7492 64.7447 23.4224 65.2944 23.0981ZM53.3807 74.4632C52.0836 75.2983 51.2468 76.612 51.5312 78.0044C52.1532 76.8344 52.7899 75.6722 53.3807 74.4632Z" fill="#A0677E"/>
<path d="M1.59182 29.3511C1.5882 29.3219 1.58467 29.2927 1.58133 29.2631C1.326 26.2913 1.19534 25.9044 1.0421 25.5582C1.00918 24.9323 0.8204 25.0149 3.51518 20.8577C4.20678 19.9169 4.70125 19.2767 5.04134 18.7475C6.02992 17.2802 6.20434 16.5099 6.98639 15.6368C7.75254 14.8316 9.32955 13.7815 12.7612 13.7586C12.9396 12.8344 12.8912 13.1569 12.6252 12.2433C12.9636 12.0215 14.2938 11.4856 16.1145 11.1074C18.6229 10.6066 21.2293 10.6155 24.2032 11.4657C25.6304 11.9003 26.4955 12.5035 26.9827 12.7797L27.0019 12.789C28.9953 13.917 30.414 15.1075 31.0634 15.6157C31.1871 16.0487 31.2972 16.4804 31.3943 16.9103C32.1663 17.3486 35.1994 19.7809 35.3739 20.2185C36.0785 21.4875 36.6964 22.6881 37.2688 23.887C38.2213 25.8674 38.7986 27.6778 39.5852 29.3299C39.112 29.985 39.3246 29.77 38.6223 30.2068C38.7045 30.4197 38.796 30.5787 38.8984 30.6984C39.0852 30.9325 39.2621 31.0227 39.4782 31.0494C39.6832 31.0664 39.9604 31.0418 40.0978 30.7974C40.0766 30.7829 40.0407 30.7535 39.9562 30.7049C39.8848 30.6689 39.6013 30.5258 39.2045 30.5898C38.812 30.661 38.6914 30.8453 38.7351 30.8176C38.7726 30.8041 38.9012 30.6688 39.0471 30.4625C39.2086 30.2423 39.3313 30.0164 39.6836 29.5244L39.5779 29.6956C39.8319 29.3993 39.9832 28.571 40.5759 27.3199L40.5349 27.4175C42.6023 22.6173 46.7733 16.2956 51.1788 13.6943C52.0541 13.1782 52.9105 13.0212 53.6632 12.8342C55.254 12.5863 56.4921 12.9033 57.0211 13.0049C57.0395 13.0086 57.0514 13.0142 57.0627 13.02C57.1299 13.2108 57.1971 13.4015 57.2643 13.5922C57.2474 13.6144 57.2302 13.6363 57.2128 13.6579L57.203 13.6607C56.145 14.6261 54.8575 14.8423 54.574 15.0541C54.3013 15.1776 54.0574 15.2819 53.8301 15.386C53.4056 15.5739 52.9553 15.8247 52.9329 15.8387C50.4161 17.7702 47.9667 20.2653 46.1502 23.2112C45.1131 24.8884 44.1965 26.6681 43.3664 28.5017L43.3309 28.586C43.016 29.0919 42.8683 30.0627 42.248 31.1441L42.1743 31.2634C41.9625 31.5156 41.6465 32.1043 41.1949 32.6331C40.9546 32.9021 40.6783 33.2189 40.1307 33.4591C39.5797 33.7313 38.7237 33.572 38.3448 33.2705C37.5402 32.6542 37.4306 32.1075 37.2017 31.7205C36.1058 29.6352 35.4945 27.5097 34.4818 25.616C33.396 23.5862 32.035 21.6764 30.4256 19.9666C28.9737 18.4273 27.3026 17.0658 25.414 16.0281C24.7599 15.6737 24.0891 15.2589 23.2951 15.0319C22.823 14.8962 22.3436 14.8025 21.8617 14.738C20.3096 14.539 18.6589 14.7704 17.1135 15.0238C17.0089 15.0413 16.9043 15.0582 16.7998 15.0743C14.688 15.3764 12.01 15.4335 10.9213 17.5464C10.6677 18.082 9.40004 19.1217 8.28179 20.8712C7.22825 22.44 6.32089 24.5981 5.79929 26.6858C5.53064 27.6521 5.21156 28.6581 5.09796 29.6093C4.93675 30.9078 4.80777 32.1866 4.62844 32.7035L4.58561 32.9275C4.5735 33.2773 4.56514 33.5685 4.5619 33.7888C4.52399 36.1947 4.66364 38.5988 4.7295 41.0025L4.75478 41.1534C4.92706 41.6095 4.9712 42.1896 5.02321 42.777C5.0424 42.9947 5.06053 43.2174 5.08879 43.447C5.3311 45.4313 5.53192 47.4677 6.1434 49.3781C6.83354 51.5436 8.05114 53.4639 9.05979 55.4467C10.357 57.9963 11.8423 60.4365 13.3974 62.8316C17.533 69.196 22.0977 75.3099 27.4699 80.5394C27.5005 80.6506 27.9609 82.1226 27.9808 82.1352C29.5737 83.7049 34.3525 86.3503 35.1835 88.0974C35.0465 88.4793 34.9116 88.8623 34.779 89.2466C34.9581 89.3726 35.1376 89.4975 35.318 89.6215C35.7811 88.9596 35.5619 89.3062 35.9655 88.583C36.2559 88.7328 36.5671 88.9119 36.8967 89.1127C36.7905 89.0296 37.0427 89.1413 37.2641 89.2041C37.5134 89.2923 37.7656 89.3394 38.2582 89.6245L37.5061 89.406C38.0722 89.3929 38.671 89.3907 39.2891 89.3933L38.5765 89.5856C38.8456 89.4367 38.9524 89.4034 39.096 89.3418C39.2302 89.2869 39.354 89.2388 39.4733 89.1918C39.7059 89.1008 39.9472 89.003 40.0696 88.9411C40.4296 88.7566 40.7838 88.5396 41.1276 88.2946C42.4563 87.3688 43.7055 85.6383 45.1133 83.7372L45.1036 83.7484C47.1322 81.0026 49.1461 78.0988 51.2081 76.4217C51.4794 76.2006 52.0419 76.6432 52.38 76.8239C52.493 76.6639 52.6056 76.5036 52.7178 76.3431C52.6141 75.8718 52.2403 74.9467 52.5201 74.567C54.0515 72.4647 53.0803 70.1844 55.5917 69.2095C56.048 68.3838 56.2894 67.5442 56.5397 66.7763C56.6891 66.2205 56.8691 65.5357 57.3859 64.8457C57.4072 64.8192 57.429 64.7929 57.4513 64.7668C58.1379 64.711 58.4251 64.7443 59.105 64.8002C59.2171 64.6561 59.329 64.5123 59.4408 64.3684C59.401 63.8835 59.3479 63.2805 59.2755 62.5599C59.5139 62.0072 59.751 61.4553 59.977 60.9092L59.9684 60.9257C61.1814 57.9516 62.4949 54.9468 63.9106 52.0925C64.2356 51.438 64.358 50.4301 64.4671 49.6386L64.4783 49.6151C64.5509 49.1327 64.6189 48.731 64.7239 48.534C65.7723 46.5466 66.5551 44.531 67.2533 42.5495C67.517 41.8176 67.7386 41.1852 67.8432 40.7419L67.8538 40.7086C68.0457 40.007 68.2292 39.3045 68.4182 38.5995C68.4814 38.3736 69.0908 37.5837 69.1283 37.4806C69.5328 36.4609 70.4204 35.909 70.1425 34.9083C69.7468 34.807 69.3507 34.7075 68.9543 34.6097C68.8751 34.3954 68.7939 34.1828 68.7106 33.9719C69.2544 33.2633 69.1964 33.4012 69.9232 32.7932C69.5055 31.4841 69.0418 32.2344 68.9852 31.6296C68.9411 31.1128 69.2009 29.151 69.1667 27.7587L69.1684 27.7767C69.1643 27.2057 69.0919 26.6631 68.9933 26.5044C68.4995 25.6873 67.9054 25.5464 67.399 24.1706C67.3252 24.0036 67.2536 23.8138 67.1847 23.6023C67.3106 23.4868 67.4362 23.3727 67.5611 23.2568C68.5577 22.3126 68.7134 22.3004 68.7479 21.2119C68.6068 21.0772 68.4648 20.9474 68.3218 20.822C67.891 21.1958 67.4897 21.5141 67.0287 21.8433C66.6638 21.5928 66.3401 20.3307 65.9126 19.3167C65.4387 18.2466 65.2322 17.8843 64.7559 17.5492C64.0045 17.253 63.8677 17.1629 63.8337 17.121C63.8178 17.036 62.8105 16.9035 62.1298 16.7532C61.8349 16.5113 61.4955 16.2578 61.0788 15.935L62.3961 16.1496C62.1958 15.9686 61.9898 15.7928 61.775 15.621C61.5212 15.6245 61.2675 15.628 61.0137 15.6315C59.5798 15.3956 57.8742 14.824 56.8123 13.904C56.8958 13.4506 56.9793 12.9972 57.0628 12.5437C58.3952 13.1571 60.3164 13.0926 62.3961 12.8409L62.1292 12.7975C63.1421 13.0084 63.9502 12.8384 64.7051 12.8694C65.1762 12.8833 65.6716 12.9914 66.1879 13.0837C69.7076 13.6092 71.354 17.4118 69.4369 18.8397C69.3214 18.809 69.206 18.7802 69.0909 18.7535C68.2703 18.5677 67.841 18.4466 67.112 18.8216C67.1295 18.9893 67.1437 19.1611 67.1544 19.336C68.5074 19.8406 69.9592 19.1826 71.4073 18.6012C73.5933 21.2115 71.1369 20.9358 71.8911 23.0006C71.9555 23.1955 72.0215 23.3928 72.0879 23.5851C72.5393 24.9077 73.1757 26.0655 73.6475 27.3638C74.5149 29.7491 75.052 32.3412 74.2553 35.0972C73.5342 37.445 73.6101 36.9531 74.6394 38.4665C74.2551 40.6098 73.6188 41.0475 72.8663 42.3259L72.8709 42.3112C72.7131 42.5958 72.5412 42.8932 72.3552 43.2251C72.1787 43.5404 72.2196 44.0727 72.2531 44.6888C72.2825 45.4123 72.2735 46.2944 71.8652 47.1593C71.0533 47.2947 71.372 47.3032 70.5969 46.9688C70.4792 47.1093 70.3613 47.2493 70.2432 47.389C70.6779 48.1122 70.411 47.7976 71.2023 48.1908C71.1079 48.3222 71.0134 48.4532 70.9189 48.584C70.6249 48.5948 70.331 48.6049 70.0373 48.6144C69.8659 48.8946 69.4173 50.1016 68.8412 51.7229L68.8478 51.7092C67.631 55.2709 65.6736 60.8382 64.6344 63.359L64.621 63.3845C64.277 64.1931 64.0342 64.6813 63.956 64.7472C62.7868 65.7007 62.0275 66.49 61.5109 67.2314C61.1522 67.7172 60.9253 68.3965 60.6238 69.148C59.8946 71.146 59.824 73.1367 56.2683 75.871C55.9056 76.1411 55.6158 79.2314 54.3164 80.7202C53.3579 81.159 53.2941 81.0667 52.2704 81.0606C52.1038 81.2236 51.9368 81.3862 51.7693 81.5481C52.1361 82.3866 51.9841 82.1242 52.5884 82.7954C52.4947 82.9534 52.4005 83.1112 52.3059 83.2688C52.0246 83.3562 51.7433 83.4424 51.4621 83.5273C51.0156 84.9157 51.2264 84.9169 50.3228 85.8424C49.4551 86.0022 48.7578 86.0146 48.0948 86.3007L48.0827 86.3147C47.891 86.3914 47.701 86.4948 47.5096 86.6343C47.5336 87.1071 47.5547 87.5836 47.5662 88.0675C46.2574 89.3842 44.7029 90.1079 42.6615 91.7656C42.5223 91.8736 42.2479 92.0766 41.8567 92.3201C41.5126 92.5205 41.2601 92.642 41.0006 92.7733C40.8737 92.8371 40.7498 92.8991 40.6443 92.9557C40.5605 92.9995 40.3829 93.105 40.5742 93.0176L40.0852 93.3306L39.2891 93.3644C38.7182 93.4134 38.1028 93.4669 37.5061 93.5214L36.8344 93.5499L36.0532 93.0994C36.1997 93.2022 36.1625 93.1849 36.1042 93.1771C36.0406 93.1643 35.935 93.1379 35.8059 93.103C35.6754 93.0672 35.5216 93.0239 35.3214 92.9522C35.114 92.8705 34.8891 92.8076 34.4288 92.4992C33.5029 91.9574 32.8499 91.5687 32.8884 91.678C31.6727 88.1666 26.6152 88.8499 27.3097 84.9275C26.2699 84.2868 25.5624 83.8418 24.6169 83.0559C24.304 81.595 24.5701 81.8915 23.7298 80.8564C22.7602 80.6457 22.4295 80.8605 21.5446 81.1605C21.4533 81.052 21.3623 80.9434 21.2715 80.8345C21.5436 80.6787 21.8153 80.5224 22.0868 80.3656C21.4621 78.3881 18.3394 78.3886 16.4937 75.4354C16.5352 75.3395 16.5768 75.2436 16.6185 75.1479C16.9979 75.232 17.3771 75.3138 17.7561 75.3933C17.8596 74.4196 17.6867 74.0667 17.5321 73.0766C16.7078 72.9741 16.6026 73.0331 15.793 73.1561C15.6147 73.026 15.4368 72.8953 15.2592 72.7642C15.5519 72.1638 15.7711 71.6538 15.9432 70.9966C15.7708 70.8573 15.599 70.7178 15.427 70.5771C11.1471 71.5099 11.5504 66.2076 9.56028 65.6002C9.38043 65.6449 9.20053 65.6895 9.02056 65.7339C8.97071 65.6601 8.92095 65.5864 8.87128 65.5127C8.73434 65.3091 8.59841 65.1059 8.4635 64.9031C8.60983 64.7672 8.75624 64.6314 8.90281 64.4959C9.35573 64.5645 9.80638 64.6272 10.2586 64.6908C10.3676 64.7055 10.4766 64.72 10.5855 64.7345C10.6177 64.6362 10.65 64.5379 10.6825 64.4398C10.6903 64.4157 10.6981 64.3916 10.706 64.3675C8.56191 61.7412 6.72506 59.0006 4.81782 55.9346C5.09466 55.1954 4.95532 55.4589 5.52592 54.9358C5.43168 54.7588 5.33836 54.5809 5.24602 54.4022C4.36617 54.2247 3.48691 54.0157 2.60659 53.7701C1.34037 50.9418 2.31691 48.5104 1.09071 45.9683C0.679112 45.086 0.556809 44.685 0.564684 44.0776C0.551377 43.7659 0.570123 43.4778 0.608359 43.2046C1.27312 43.1625 1.25416 43.2575 1.80547 42.8517C1.75725 42.6971 1.71038 42.5639 1.66365 42.4565C1.30501 42.3987 0.947124 42.3689 0.595012 42.3894C0.591244 42.3492 0.590338 42.3582 0.616374 42.4481C0.839698 42.4188 1.06328 42.387 1.28626 42.3493L1.06059 41.0025C1.16088 40.9761 1.26117 40.9497 1.36147 40.9233C0.889654 37.6042 -0.407887 38.7414 0.126828 33.9483C0.235147 33.8322 0.343467 33.7162 0.451787 33.6001C0.823168 33.8081 1.19455 34.016 1.56593 34.224C1.68534 33.4867 1.73423 33.3095 1.60879 32.9275L1.86176 31.6049C1.7237 31.8997 1.70521 31.911 1.65842 31.9189C1.61769 31.9163 1.57905 31.8612 1.5336 31.7743C0.939661 31.48 0.792204 31.3947 0.145374 31.1586C0.126635 29.9687 0.292347 30.0087 1.59182 29.3511Z" fill="#34140B"/>
<path d="M90.1772 82.2071C87.4707 84.027 83.6755 86.0595 80.6661 87.4377C79.7248 87.8693 80.0453 87.3617 79.3864 87.6455C78.0972 88.1976 76.9956 88.924 75.6591 89.4159C75.2183 89.5753 75.5381 88.9033 75.0834 89.0778C72.4465 90.0106 70.6308 91.2715 66.5907 91.7859C65.9049 91.8083 65.0149 91.9189 63.5623 91.3663C63.2828 91.2469 63.0129 91.1218 62.7467 90.9846C62.4693 90.8385 62.2642 90.7318 61.834 90.4484C61.6429 90.3196 61.4488 90.1762 61.2505 90.0079C61.0445 89.8271 60.8845 89.6959 60.5463 89.2957C59.9753 88.605 59.2873 87.3689 59.516 85.7203C59.8301 84.0772 60.3982 83.6116 60.8718 83.0709C61.1458 82.7988 61.269 82.7056 61.4485 82.5637C61.6172 82.4335 61.7819 82.3192 61.9441 82.2143C62.3022 81.9852 62.5 81.8836 62.7583 81.7498C62.998 81.6274 63.2826 81.4946 63.4851 81.4071C65.2331 80.6642 66.7273 80.2347 68.203 79.7746C71.194 78.8655 74.0158 78.0353 76.8187 77.0578C82.3518 75.1156 87.8351 72.7362 91.7361 69.0696C94.3777 66.6908 96.4521 63.0686 95.8125 59.4348C95.8018 59.3592 95.7906 59.2848 95.7789 59.2117C95.7007 58.7422 95.3269 59.0755 95.2827 58.9909C94.5809 57.774 95.4721 58.1284 95.404 57.2856C94.9686 53.6986 93.4655 53.1608 90.2561 54.8775C89.0718 55.5881 90.6631 55.6342 89.2584 55.9247C89.159 55.9496 89.2334 55.391 88.8809 55.5541C88.0502 55.9306 86.6904 57.0446 86.1093 57.4893C84.9965 58.3246 84.8036 58.5078 83.8231 59.4151C82.4633 60.6816 80.7825 62.1435 79.531 63.7488C79.2691 64.0879 79.9755 63.9504 79.5916 64.5169C79.2034 65.0817 78.0322 66.4622 77.577 66.8819C77.1175 67.3 77.0002 66.8794 76.8698 66.9158C75.7716 67.2114 75.2771 69.4857 75.1477 69.7185C72.6411 73.9697 69.9868 77.3649 68.2293 81.5095C67.5901 83.0599 67.1031 84.6035 66.8689 86.1234C66.5948 87.6109 66.923 88.9456 67.0901 88.9607C66.9928 88.8589 66.8551 88.7589 66.7185 88.6952C66.4527 88.5714 66.2736 88.5857 66.2455 88.5899C66.2115 88.5967 66.2767 88.5958 66.3837 88.5653C66.5869 88.5122 66.9282 88.3642 67.2476 88.1922C67.9165 87.8332 68.6248 87.3469 69.3101 86.8245C70.6871 85.7686 72.0195 84.5467 73.3182 83.1345C73.5906 82.837 72.8843 82.8242 73.2144 82.4597C73.9511 81.642 74.6726 80.8028 75.3454 79.9675C75.6848 79.5454 76.0047 79.1338 76.2976 78.728C76.4365 78.5354 76.5694 78.3431 76.6737 78.1768C76.7181 78.1072 76.7622 78.0291 76.7658 78.0242C76.7694 78.0196 76.7589 78.0376 76.7295 78.1219C76.7291 78.1863 76.5659 78.3654 76.6317 79.1773C76.7315 79.8549 76.9627 80.1153 77.0594 80.2567C77.1613 80.3859 77.2083 80.4202 77.2232 80.4329C77.251 80.4517 77.1802 80.3897 77.0855 80.325C76.8932 80.191 76.6008 80.0182 76.3009 79.8513C75.6894 79.5113 74.9978 79.1582 74.3011 78.7927C72.8973 78.0515 71.4437 77.2891 69.9609 76.2066C69.4463 75.8177 70.3852 75.8972 69.8994 75.4871C69.4429 75.0896 68.9389 74.6252 68.4447 73.9367C67.9134 73.2713 67.723 72.2354 67.8825 71.5271C68.0296 70.7684 68.3405 70.2554 68.633 69.8129C69.2418 68.9255 69.9349 68.2482 70.5231 67.6276C71.7436 66.367 72.7281 65.2558 72.9759 64.0309C74.9734 62.6973 77.4994 61.3117 79.5393 60.7063C80.8549 60.3209 79.9191 61.3587 81.2919 60.4324C81.6037 60.2268 80.9759 60.0421 81.4617 59.7638C83.52 58.5923 85.9539 57.7259 88.1824 56.796C88.643 56.6051 88.4003 56.2679 88.5157 56.1591C89.5029 55.2429 91.778 55.7624 92.2497 55.806C93.7935 55.9432 95.4314 55.639 97.3637 57.3372C97.6558 57.6335 97.8775 58.0281 97.9825 58.4094C98.0834 58.7758 98.0923 59.066 98.074 59.3465C98.0195 59.9169 97.9153 60.1584 97.7823 60.4972C97.6738 60.7545 97.5542 60.9836 97.4186 61.2159C97.2995 61.4194 97.1831 61.6005 97.0505 61.7939C96.5567 62.5097 96.0149 63.1471 95.4432 63.7548C94.9563 64.2645 95.9212 64.0202 95.452 64.533C93.0731 67.0713 90.3906 69.2352 87.7075 71.0777C87.107 71.4852 87.3486 70.7177 87.0476 70.8936C85.7303 71.6629 85.9827 72.5446 84.7093 73.278C84.4409 73.4329 84.3472 73.0194 84.2768 73.0192C83.1815 73.0091 83.1315 74.2176 82.9612 74.3683C80.8279 76.2748 78.7619 76.5206 76.5207 78.126C76.2465 78.3205 77.1466 78.3312 76.3622 78.8489C74.9224 79.7269 73.8901 80.6079 71.515 81.3323C68.8121 81.8252 66.3685 81.7787 63.6697 81.0144C62.4337 80.5615 60.5044 80.0165 59.8207 77.5436C59.4835 75.1065 60.793 73.9618 61.5925 73.0328C62.3533 72.2815 62.1075 73.0995 62.1871 73.0775C63.401 72.8137 63.2321 71.7315 63.4743 71.4713C63.5238 71.4201 63.5743 71.3693 63.626 71.3189C63.6008 71.3353 63.5524 71.3571 63.4534 71.5043C63.3669 71.6191 63.2539 71.9499 63.2867 72.205C63.3725 72.7244 63.4835 72.6943 63.4417 72.6801C63.3791 72.609 63.1534 72.3978 62.951 72.2009C62.5312 71.7957 62.0942 71.3115 61.7224 70.8354C60.9602 69.8684 60.3997 68.9308 59.5678 68.1691C58.8526 65.7245 58.9888 63.3667 59.3278 61.1784C59.7252 58.0737 59.3526 54.2449 59.6076 50.5331C59.7433 48.6478 59.9348 46.721 60.7465 44.6991C61.1659 43.7032 61.7866 42.6192 62.8986 41.8244C64.0065 41.0131 65.4766 40.8273 66.5974 41.0272C67.7019 41.2009 68.7938 41.6476 69.6748 42.3162C69.7964 42.4079 69.3234 42.6576 69.5553 42.8342C70.889 43.9462 71.2717 44.4744 71.8262 44.7463C72.347 45.0389 72.9278 45.1548 73.8581 45.9753C74.3528 46.414 74.0252 48.3776 73.9915 48.5244C73.9154 49.1109 73.0726 48.8737 73.0845 49.0539C73.1871 50.4846 75.2498 49.5896 75.9099 51.0806C75.9276 51.1269 75.4583 51.1224 75.4766 51.2596C75.5379 51.7039 75.8922 51.956 75.8786 52.1356C75.8745 52.2436 75.747 52.3127 75.6852 52.4511C75.6217 52.5862 75.6988 52.7563 75.8772 52.8091C76.2284 52.9254 76.7637 52.6585 77.0143 51.8456C77.054 51.7107 76.5657 51.4163 76.4881 50.9065C76.377 50.7107 76.2792 50.6153 76.3389 50.4562C76.3749 50.3767 76.4272 49.9603 76.2164 49.3183C76.0237 48.6929 75.617 47.9881 75.4612 47.6809C75.1293 47.0456 75.7459 47.2044 75.7355 47.1557C74.9409 45.1972 75.5647 45.6626 75.3976 44.2756C75.1276 42.8754 74.0303 44.5441 73.572 44.428C73.1256 44.3039 72.1609 43.0442 71.8882 42.7204C71.6366 42.3867 72.192 42.4037 71.9321 42.1477C70.084 40.528 70.6043 42.5621 69.8452 42.5583C68.2055 42.736 67.3355 41.142 65.7423 41.5806C65.3651 41.7167 65.7929 41.872 65.5205 42.0538C64.8336 42.5527 64.2752 42.9448 63.8278 43.6784C63.6102 44.0462 63.4122 44.5198 63.313 45.0997C63.2463 45.3967 63.5933 46.9338 62.753 47.6494C62.6314 47.7499 62.3757 47.2962 62.1323 47.913C61.7567 48.8525 61.3562 50.6462 61.3501 51.7382C61.3418 52.5521 62.0371 51.7123 61.7429 52.6834C61.6156 53.1165 61.3529 52.2568 61.144 53.0819C60.926 53.9163 60.8176 56.0834 60.8162 56.9026C60.8075 57.7284 61.2701 57.2869 61.2985 57.3544C61.4587 57.7684 61.6694 59.3218 61.6734 59.4649C61.801 66.4333 61.8017 73.0131 63.1868 79.758C63.2997 80.2997 63.7054 79.8557 63.7275 79.9375C64.2418 81.6988 62.7414 80.4921 62.5619 81.8586C63.4768 81.4957 63.4397 82.2886 63.8013 83.5266C63.982 84.1414 64.2763 83.721 64.3258 83.7718C65.066 84.5383 64.5055 85.3282 64.3954 85.5007C64.3035 85.6163 64.291 85.8161 64.2908 85.9224C64.2942 85.9875 64.2915 86.0041 64.3168 86.0862C64.326 86.1161 64.3346 86.137 64.3394 86.144C64.3417 86.1473 64.3431 86.1472 64.3421 86.1415C64.3416 86.1386 64.3405 86.1344 64.3384 86.1282C64.3244 86.1133 64.3795 86.1553 64.2284 85.9699C64.184 85.925 64.1202 85.8577 63.974 85.7929C63.8357 85.7264 63.5637 85.6983 63.3562 85.7982C62.941 86.0253 62.9626 86.2343 62.9267 86.2996C62.8982 86.4293 62.912 86.3674 62.906 86.3956C62.9017 86.417 62.8993 86.4263 62.8968 86.4302C62.892 86.4373 62.8868 86.4226 62.8799 86.3981C62.8643 86.3274 62.8505 86.3047 62.837 86.2568C62.8102 86.1672 62.7882 86.0528 62.794 85.9243C62.7977 85.8304 62.8227 85.7418 62.8736 85.6611C63.0469 85.3944 63.2799 85.5664 63.4612 85.588C63.5523 85.6011 63.6292 85.5882 63.6833 85.4948C63.7105 85.4486 63.7326 85.3752 63.7517 85.2763C63.7701 85.1959 63.7841 85.0883 63.7985 84.9336C63.4967 84.5145 62.4809 85.4722 62.4632 84.3607C62.5359 80.4256 65.2365 74.2852 66.0209 71.5081C66.8428 68.7545 67.0026 67.8375 67.5134 66.2499C68.4077 63.3685 67.5108 64.2848 67.5746 62.4206C67.605 60.5625 69.0624 61.7271 69.4603 61.5217C69.8552 61.3112 69.5432 60.9598 69.785 60.663C70.0261 60.365 70.1596 61.1106 70.3449 60.35C70.5524 59.5543 70.1084 57.3431 69.7245 57.0638C68.94 56.4729 68.1641 57.3381 68.3839 55.4893C68.3928 55.3834 68.852 55.6936 68.863 55.286C68.8831 54.0279 68.5976 52.6969 67.7168 52.284C66.7992 51.8314 65.3802 52.226 64.1187 52.7627C63.4829 53.0243 62.93 53.5691 62.4592 54.2054C62.1839 54.5866 61.9822 53.9785 61.8153 54.2093C60.2242 56.86 61.4936 56.2171 61.8888 57.9487C60.8376 57.2849 59.8144 57.9656 59.4187 60.2768C59.1989 61.6656 59.763 61.4901 60.0219 62.4141C60.0991 62.6962 59.6466 63.6124 59.8791 63.812C60.6407 64.4516 61.5863 63.6439 61.0869 65.8916C61.0645 65.9923 60.6408 65.644 60.5955 65.9947C60.3228 68.2511 61.1608 68.5516 61.2839 70.9752C61.3802 72.8761 61.0568 76.3011 61.2165 78.4869C59.8635 78.5798 60.409 80.6432 61.4582 81.3359C61.6225 82.752 61.9357 84.2296 62.109 85.5951C62.1684 86.0579 61.7201 85.8471 61.6918 85.9135C61.2495 86.9537 62.2974 87.3467 62.4085 87.611C63.2227 89.6092 63.8179 91.9124 64.9447 92.4825C65.1242 92.5524 65.2432 92.556 65.2662 92.5398C65.2806 92.5108 65.1498 92.5724 65.1626 92.536C65.1804 92.456 65.1995 91.9808 65.0879 91.5835C65.0762 91.5346 64.8368 91.4714 64.6813 91.3273C64.5251 91.1948 64.4566 91.0033 64.7591 90.5704C64.7979 90.5024 65.3276 91.4724 65.2111 90.0504C65.081 88.6078 64.9636 85.7261 64.0585 83.7841C63.8398 83.3056 62.8048 82.2389 63.148 81.0936C63.1952 80.9406 63.4916 81.0269 63.5921 80.7987C63.9115 80.0668 62.9078 79.9358 63.5266 79.02C64.1492 78.104 64.3872 76.4673 63.4738 74.5112C63.4479 74.455 62.6166 74.0785 62.5286 73.4197C62.3833 72.3555 62.3676 70.835 62.3546 69.7306C62.3491 69.1936 61.8845 69.535 61.8755 69.4414C61.8061 67.9718 61.8941 66.4093 63.0938 65.3097C64.5534 64.1145 66.1613 63.2097 68.1536 62.1343C68.7641 61.7979 70.2332 60.245 71.6908 60.0872C73.2707 59.9319 72.9015 62.6182 75.6928 60.7388C76.8076 60.0044 77.3327 56.6144 80.2039 57.1534C84.5945 55.1675 89.0259 54.5163 93.6513 53.3222C93.8435 53.2775 94.4343 52.392 95.0474 52.4282C95.4521 52.4631 95.844 52.5876 96.1183 52.9428C96.2902 53.1632 96.245 53.4247 96.1471 53.5725C96.0487 53.7225 95.9683 53.7796 95.8532 53.91C95.7221 54.047 95.5902 54.1612 95.4128 54.3044C93.8076 55.5803 92.043 56.5251 90.0463 56.9106C89.2105 57.0594 89.4373 56.6229 88.4621 56.7509C87.4909 56.8622 86.8737 57.445 85.516 57.2705C84.4865 57.1327 83.4675 56.0991 82.1388 55.9806C82.0946 57.0232 81.1723 57.0039 79.5311 57.2685C79.2158 57.3203 79.5523 57.6847 79.4031 57.7279C78.7971 57.9118 78.234 57.6094 77.6627 57.8148C77.5239 57.8642 77.5191 58.2201 77.4055 58.2808C76.4447 58.8048 74.8537 58.0532 74.5739 57.9321C73.4905 57.457 73.0412 57.9593 72.2232 57.8379C71.4047 57.7254 72.5657 57.3217 71.6147 57.3123C69.6179 57.2917 67.0371 58.007 65.282 59.1574C64.5869 59.6173 65.3312 59.6909 65.2373 59.7659C63.972 60.7455 62.5161 61.9091 62.9323 63.1434C60.2501 63.0576 62.5986 64.0879 61.5629 66.0545C61.4856 66.2176 60.2908 66.2188 60.3112 65.4318C60.3311 64.6666 61.0375 63.6656 61.3098 62.5895C61.3422 62.4592 61.296 61.938 61.2955 61.4094C61.3041 60.8603 61.3641 60.308 61.4092 60.1981C62.1979 58.4332 63.6518 59.6125 63.7427 59.6266C65.0633 59.7737 65.8924 57.9715 66.3568 57.695C68.2245 56.4568 70.1048 56.3705 71.7815 55.8947C72.8843 55.5993 72.9122 54.4684 73.8198 54.4428C76.8234 54.4075 77.7852 56.0374 80.4426 54.6724C81.0049 54.3811 80.4625 53.1486 82.4476 54.1172C82.5693 54.1794 84.0592 55.0555 84.8611 54.4546C84.9614 54.3793 84.9404 54.0192 85.0754 53.9827C85.9682 53.7427 86.5803 53.9892 87.4939 53.745C88.4153 53.4974 89.4113 53.1119 90.3335 52.9604C90.879 52.8799 91.7808 53.2356 92.0988 53.2619C92.99 53.3444 93.2329 52.3452 93.8384 52.4049C93.8661 52.4083 93.894 52.4144 93.9225 52.4233C94.2305 52.5354 94.4295 52.8434 94.6446 53.1052C94.7527 53.2349 94.875 53.3451 95.0374 53.3868C95.1216 53.4034 95.1939 53.4287 95.3053 53.3888C95.4062 53.3741 95.4824 53.2857 95.5136 53.3944C95.0508 53.4179 94.5597 53.6371 94.2851 54.1485C93.9943 54.6429 93.9869 55.3261 93.9304 55.8531C94.3744 56.1634 94.6691 56.223 94.7728 56.2515C94.8775 56.2755 94.919 56.2762 94.9211 56.2747C94.92 56.2699 94.8196 56.2592 94.685 56.2579C94.5676 56.2555 94.4108 56.2584 94.2326 56.2678C94.0782 56.2749 93.9039 56.2867 93.7129 56.3036C92.9959 56.3651 92.1659 56.4817 91.3818 56.6141C89.7702 56.8893 88.1221 57.2673 86.4977 57.7782C86.0929 57.9073 86.6557 58.2627 86.2256 58.4147C84.4362 59.0513 82.7394 59.2505 80.9315 60.0804C79.5336 60.7256 78.1822 61.8482 76.7977 62.6071C75.4768 62.0105 73.4795 63.3427 71.9616 64.0564C71.4226 64.3085 71.3211 64.0388 70.9088 64.1613C69.3567 64.649 70.4822 65.1021 70.1902 65.445C68.9975 66.9293 67.6823 65.1896 65.9843 66.546C65.925 66.5915 65.6984 67.5937 65.6364 68.1324C65.792 68.1549 65.9048 68.1544 65.9342 68.1469C66.2794 68.0595 66.1305 68.0808 65.9898 67.999C65.8343 67.9376 65.6331 67.7978 65.5557 67.8838C65.2282 68.3569 64.8803 69.4528 65.3449 70.9388C65.4779 71.3865 66.3158 72.4148 65.926 73.4162C65.875 73.5511 65.4913 73.5439 65.4861 73.648C65.4383 75.5274 66.6316 75.3615 67.2356 76.3129C67.8435 77.2643 67.4177 79.0686 67.2667 79.4593C66.8745 80.47 66.8574 78.8486 66.7896 78.8156C65.9682 78.4188 66.3586 79.5851 66.5168 80.5206C65.4153 80.9179 65.7872 82.193 66.6848 81.4879C66.7815 81.4057 66.5085 80.7187 66.5168 80.5206C67.8144 81.0628 68.2983 82.454 67.6239 84.2879C67.3017 85.145 66.5896 84.5554 67.2809 86.7978C67.5796 87.8052 68.2952 87.2796 68.6784 88.1819C69.0422 89.1059 69.2148 90.1551 69.1513 91.5441C69.0682 92.2235 69.1574 93.0129 68.3259 94.4566C67.9397 95.1973 66.594 96.1034 65.6411 96.0997C64.5809 96.1519 64.1552 95.9319 63.6314 95.732C63.2049 95.5497 62.8443 95.3172 62.5337 95.0728C62.251 94.849 62.0337 94.641 61.8203 94.4199C60.9772 93.4631 61.394 94.6906 60.8488 94.0414C59.5382 92.288 59.4538 90.8503 58.7978 89.373C58.7407 89.2385 58.4042 89.7144 58.2544 89.2337C57.1717 85.6233 57.0129 82.5577 56.6193 78.9033C56.428 77.1506 55.9662 74.0136 55.9769 72.1761C55.96 68.9901 56.7478 65.1094 56.9 62.3572C57.007 60.547 56.516 60.882 56.3225 60.0402C55.9277 58.4021 57.7014 55.8497 58.0251 55.5259C58.0184 55.5217 57.6581 57.1723 58.1274 56.3847C58.7454 56.0157 58.0205 55.5497 58.0251 55.5259C58.1128 55.3603 59.6363 52.0051 60.4187 51.2243C60.7339 50.7986 60.2177 50.7221 60.4071 50.4986C60.8569 49.9819 61.5012 49.4154 62.2688 49.003C62.7942 48.7027 63.3164 48.4414 63.8472 48.2218C64.5038 47.963 65.0716 47.7726 65.8977 47.636C67.3013 47.3093 70.209 47.7314 71.742 49.5573C74.4613 53.1321 73.7497 55.3966 73.7411 57.5031C73.7285 57.5839 73.2485 57.4415 73.2249 57.6232C72.8499 60.1872 73.1474 61.7901 73.1213 63.8392C73.0814 65.865 72.5943 67.3749 71.5118 68.2834C71.2649 69.7363 70.3735 71.6528 69.8423 72.7414C69.3128 73.8269 70.1797 74.2389 70.1697 74.3465C69.879 77.6463 68.8105 79.3048 67.932 82.3975C67.7932 82.8967 67.6457 83.5272 67.5281 84.1989C67.4781 84.4889 67.4214 84.8776 67.4059 85.1111C67.3936 85.258 67.3918 85.3684 67.397 85.4226C67.3996 85.4848 67.4224 85.4797 67.4038 85.2691C67.4292 85.4168 67.4514 85.5519 67.4711 85.6828C67.4896 85.8276 67.5102 85.8759 67.5329 86.3017C67.5365 86.4022 67.5396 86.5177 67.5307 86.6952C67.5259 86.7849 67.5181 86.8908 67.4987 87.0326C67.4962 87.0503 67.4936 87.0687 67.4907 87.0877C67.4881 87.104 67.4915 87.0839 67.4827 87.1373C67.4732 87.1936 67.4617 87.2547 67.4465 87.3246C67.3723 87.603 67.3209 87.9913 66.838 88.7189C66.5888 89.0739 66.1825 89.5406 65.501 89.9099C64.8323 90.2856 63.8892 90.4478 63.1573 90.3336C61.6423 90.0701 61.1494 89.4165 60.8328 89.1195C60.2684 88.4708 60.2259 88.217 60.2234 88.2479C60.2016 88.2064 60.1828 88.1688 60.1658 88.134C60.132 88.0646 60.1057 88.0064 60.083 87.9544C60.0379 87.8509 60.0067 87.7712 59.9795 87.6994C59.8652 87.387 59.8451 87.3139 59.8039 87.1914C59.7661 87.0756 59.7301 86.9593 59.694 86.8386C59.6636 86.7395 59.6401 86.6649 59.6135 86.5761C59.5627 86.409 59.5056 86.2068 59.4639 86.0647C59.0569 84.6543 59.1148 83.7796 58.735 82.5348C58.6842 82.3655 58.3023 82.6171 58.2765 82.5672C57.5124 81.1971 58.6594 81.7331 58.7863 81.4027C59.258 80.2201 59.4935 79.5057 58.9042 77.7584C58.7655 77.3355 57.121 76.358 56.9267 75.5731C56.6833 74.5969 57.2603 74.9061 56.9963 73.8617C56.9743 73.77 56.6506 73.8343 56.5858 73.1868C56.28 70.1626 56.1629 66.8337 55.9762 63.6516C55.9523 63.2157 55.4583 63.8 55.4163 63.1679C55.2216 60.2011 55.2316 56.8867 55.6919 53.9097C55.8081 53.1787 56.1372 53.6681 56.2572 53.5168C56.9815 52.5934 56.1985 51.1168 56.2169 50.8636C56.4223 47.3912 57.2789 44.2816 59.2672 40.9982C60.5725 38.5833 64.1392 36.0369 67.6686 36.0967C68.1543 35.9345 71.9935 35.6684 72.8227 37.1414C72.9093 37.2386 73.6549 38.5729 74.8727 38.6377C74.9517 38.6472 74.5376 37.8188 75.6642 38.6181C76.7681 39.4104 78.6529 40.5971 79.4915 42.3801C79.7692 42.9719 79.9013 44.44 81.4046 45.8282C81.453 45.8811 82.201 46.3852 82.794 47.3756C83.4061 48.3254 83.7221 50.0544 83.0492 50.9512C82.9443 51.0908 82.6271 51.0647 82.3256 51.4358C81.98 51.7905 81.8615 52.6019 80.9217 54.3358C80.9015 54.3811 80.8811 54.4277 80.8606 54.4755C80.6778 54.8858 81.3952 54.4394 80.7735 55.4309C80.4756 55.858 80.1478 56.2644 79.4869 56.8042C78.8246 57.2704 77.8452 58.19 75.4705 58.2074C72.9804 58.1153 71.5191 56.5437 70.9306 55.8626C70.2636 55.067 69.937 54.5482 69.5624 54.0832C69.2857 53.7474 68.0129 52.7275 68.277 51.7211C68.3158 51.56 68.775 51.657 68.6491 51.2154C68.0962 49.1378 66.9941 47.8055 66.6806 47.313C66.5614 47.117 67.0098 46.6397 66.8134 46.3491C66.6989 46.1904 66.4571 46.0059 66.1032 45.9589C65.9059 45.9302 65.8658 45.9969 65.9412 46.1067C66.029 46.2322 66.184 46.5179 66.3114 46.7893C66.4364 47.0545 66.628 47.301 66.9454 47.1181C67.2634 46.9136 67.2654 46.8418 67.1991 47.0401C67.1305 47.2272 67.0104 47.6067 66.9089 48.0688C66.6993 49.0037 66.5417 50.2263 66.4312 51.5157C66.1963 54.1387 66.1914 56.905 66.0019 60.258C65.9113 61.31 66.3829 60.3777 66.1808 62.1371C66.1765 62.1671 66.1722 62.1973 66.1677 62.2277C65.9763 63.4771 66.004 64.9583 66.2993 65.8025C66.4446 66.2338 66.5838 66.4725 66.8196 66.7658C66.9507 66.9232 67.0812 67.0656 67.4553 67.4129C67.6678 67.6313 67.8698 67.7251 68.6097 68.6242C68.9135 69.1143 69.8976 70.0243 69.8135 72.5132C69.5152 75.0104 68.2961 75.8451 67.8073 76.3159C66.7019 77.096 66.0357 77.954 66.0586 77.4348C66.0483 77.2489 66.0312 76.8924 65.9454 76.6348C65.8646 76.3794 65.752 76.2121 65.6703 76.1574C65.5004 76.042 65.4346 76.2511 65.3465 76.436C65.2606 76.6299 65.151 76.7596 65.0634 76.7445C64.9599 76.7377 64.9612 76.5575 64.6892 76.0718C64.3941 75.6464 64.4812 75.5192 64.7114 75.2989C64.9335 75.0964 65.1985 74.8671 65.2626 74.8676C66.6585 74.9108 68.7361 75.4212 70.164 75.0042C70.1233 75.0106 70.0913 75.0161 70.0664 75.0201C69.9399 75.0385 69.9647 74.8999 69.9088 74.7846C69.8731 74.6632 69.8101 74.5534 69.836 74.5314C70.3783 74.2346 71.9632 73.559 73.0417 72.8229C73.5656 72.4668 73.2489 72.2371 73.7437 71.9482C74.9098 71.2588 76.0122 70.6855 77.312 70.1823C77.4317 70.1354 77.0072 70.9926 77.8639 70.4045C79.2411 69.4552 81.1238 68.4789 82.4385 67.018C82.8282 66.5816 82.3296 65.9197 83.6481 65.6064C83.923 65.539 84.2927 66.5301 84.8645 64.9547C84.9654 64.6932 86.0475 62.284 87.3855 62.0936C87.7387 62.0464 88.8725 62.1315 89.2647 61.5905C89.3162 61.5144 88.75 61.4316 89.1199 61.0264C89.7632 60.3226 90.4388 59.6195 90.9909 58.9689C91.2732 58.6373 91.5243 58.3133 91.6707 58.0796C91.7528 57.9514 91.7937 57.8636 91.7884 57.8469C91.7847 57.848 91.6864 57.8975 91.5447 58.4642C91.466 58.814 91.4359 59.1352 91.3868 59.18C91.3384 59.2435 91.2734 59.1247 91.2129 59.0465C91.153 58.9708 91.0885 58.9194 91.0363 59.1493C91.052 59.3913 90.7252 59.8896 91.6734 61.6093C91.8468 61.8829 92.0506 62.1391 92.2681 62.3623C93.2556 63.3269 93.8083 63.2415 93.7751 63.2699C93.7766 63.2669 93.4509 63.2532 93.079 63.2873C92.305 63.3494 91.2481 63.55 90.3381 63.7601C89.6383 63.9251 89.9922 63.4107 89.9296 63.3866C88.9075 63.004 88.7037 64.0602 88.4601 64.2075C86.8885 65.1449 85.4247 65.3309 83.9256 66.1942C83.5137 66.4328 84.0104 66.6734 83.9432 66.7503C83.2477 67.5281 83.5392 66.5006 82.9481 66.7074C81.2906 67.2905 79.6109 68.3035 78.2183 69.2959C77.7117 69.66 78.5762 69.6892 78.1186 70.0138C76.9756 70.8365 75.8456 71.7214 75.0422 72.4846C74.6532 72.8427 74.3376 73.2379 74.341 73.1977C74.3325 73.1582 74.4618 73.0187 74.538 72.2955C74.646 71.6457 74.279 70.2177 73.6311 69.5754C73.4876 69.4596 73.5816 69.6183 73.7518 69.7829C74.0253 70.0422 73.6157 70.2287 73.6323 70.3489C73.8159 71.2384 75.3913 71.1132 75.6804 71.1655C77.0616 71.451 77.4306 71.9902 78.7172 72.5436C79.265 72.7813 79.8394 73.0361 80.5271 73.4006C80.8848 73.5942 81.2557 73.7977 81.7668 74.1584C82.039 74.356 82.3407 74.5799 82.7501 74.9935C83.1421 75.4963 83.9349 75.9524 84.3499 78.245C84.4598 79.2725 84.3101 79.8294 84.2108 80.2552C84.1112 80.6257 84.057 80.76 83.9825 80.9563C83.8308 81.3362 83.7379 81.5125 83.6429 81.6994C83.4328 82.0978 83.3163 82.2856 83.1512 82.5503C82.8774 82.9847 82.6082 83.3684 82.3465 83.7274C81.8244 84.4409 81.3107 85.0805 80.7832 85.7081C79.7214 86.9672 78.6273 88.1409 77.4753 89.2768C75.0334 91.5378 73.1727 93.6101 69.0074 95.3727C68.3529 95.5986 67.5091 95.8629 66.295 95.8668C65.0644 95.9076 63.0763 95.328 61.8752 93.9988C58.7044 90.113 59.6909 87.1604 59.9213 85.0875C60.3329 82.9938 60.9918 81.2293 61.6761 79.595C63.0863 76.2933 64.7356 73.3456 66.6258 70.1943C66.8932 69.7537 66.1796 69.9187 66.4039 69.5382C69.3672 64.6131 72.92 60.2841 76.8609 55.968C77.189 55.6144 76.3504 55.7696 76.8691 55.19C77.9206 54.0098 79.4465 52.6111 80.8548 51.6502C81.5268 51.194 80.9604 52.2054 81.6266 51.7472C83.2431 50.647 84.9065 49.4812 86.8928 48.3777C87.733 47.9257 86.2061 48.1069 87.3401 47.5582C88.8464 46.871 90.5297 46.2378 92.7869 46.1387C94.9823 45.9868 98.0189 46.9249 99.8356 48.7595C103.322 52.4268 103.434 55.7264 103.75 58.624C103.917 61.0344 103.622 63.4926 102.76 65.8328C102.539 66.4114 101.429 66.593 101.13 67.7817C101.351 67.9813 101.657 68.1135 101.916 68.2763C95.8638 80.0718 84.8208 82.5981 75.8719 85.9359C75.479 86.067 76.3299 86.3502 75.5721 86.6054C73.393 87.3396 71.2499 88.0527 69.2896 88.7142C68.3448 89.031 67.3163 89.4065 66.9116 89.5675C66.8344 89.5888 66.814 89.6058 67.0166 89.4113C67.095 89.3292 67.3542 89.0898 67.6263 88.647C67.858 88.2928 68.3433 87.2612 68.2457 86.0937C68.1318 84.8439 67.7036 84.24 67.354 83.7814C66.9582 83.3171 66.8505 83.2937 66.7124 83.1952C66.4608 83.05 66.496 83.1306 66.5586 83.1919C66.6255 83.2524 66.553 83.5102 66.5807 83.771C66.3837 83.809 66.164 83.851 66.0004 83.892C65.8444 83.933 65.7768 83.9726 65.8397 83.9334C65.8452 83.9196 66.0363 83.8714 66.4419 83.709C66.807 83.5587 67.2852 83.3151 67.457 83.1461C67.501 83.0973 67.0739 82.7767 67.5717 82.588C70.5588 81.4227 74.1009 79.6759 77.4475 78.141C77.9907 77.8906 77.6649 78.6132 78.0543 78.4378C80.8251 77.1833 83.5032 75.1826 86.2106 74.0279C88.0203 73.2549 87.8419 74.3245 89.1532 74.4574C89.3378 74.4771 90.3727 73.8461 90.6816 74.2038C91.4543 75.1092 91.6312 76.5255 92.5179 77.4506C92.6142 77.5498 92.9832 77.3095 93.2502 77.1879C93.3374 77.1444 93.3991 77.1206 93.4461 77.1133C93.4655 77.1124 93.5299 77.0836 93.5712 77.0714C93.5965 77.062 93.6229 77.0529 93.6796 77.0209C93.7426 76.9781 93.8108 76.9634 94.1021 76.6803C94.242 76.5446 94.4851 76.2371 94.6268 75.948C94.6957 75.8122 94.7297 75.7253 94.7206 75.7557C94.7124 75.7819 94.6595 75.9195 94.578 76.0728C94.1803 76.7722 93.8912 76.9292 93.8148 77.0221C93.6381 77.1849 93.6601 77.1916 93.6193 77.2537C93.5517 77.3642 93.5784 77.4266 93.4731 77.5919C93.4571 77.6561 92.5396 78.496 92.3907 78.85C92.3044 79.0852 92.8638 79.297 92.619 79.6822C92.3497 80.0821 91.7525 79.9838 91.2771 80.5484C90.7971 81.1179 91.3553 81.4138 90.1772 82.2071ZM67.4486 77.5992C66.7227 78.5071 68.2827 79.1163 68.2115 77.888C68.2063 77.8279 67.4851 77.5514 67.4486 77.5992ZM89.4597 55.6083C87.9345 55.2347 87.3056 56.5465 88.3848 56.8348C89.4786 57.1244 89.9191 55.7249 89.4597 55.6083ZM89.3207 55.5637C91.0149 55.7945 90.5688 53.4561 89.2004 54.2558C89.1188 54.2996 89.224 55.5477 89.3207 55.5637ZM85.1343 77.1849C85.1647 77.1928 85.9074 76.7715 85.9247 76.735C86.0486 76.0423 84.5345 76.9032 85.1343 77.1849ZM74.8978 56.6999C75.4323 56.9937 76.931 56.6004 76.2735 56.2138C75.7384 55.8977 74.2226 56.3288 74.8978 56.6999ZM65.3706 40.8549C65.3955 40.859 66.0158 40.6559 65.969 40.5336C65.7923 40.0898 64.8944 40.6016 65.3706 40.8549ZM60.252 73.232C60.1301 69.4216 62.34 67.4551 61.9905 71.2657C61.9526 71.9532 61.3702 69.7971 61.1909 70.6609C60.8693 72.3273 62.1623 73.3166 61.7023 75.1208C61.6112 75.4539 60.2418 73.4306 60.2489 73.2258C60.2499 73.2279 60.251 73.23 60.252 73.232ZM65.3557 77.6532C65.3273 77.6721 65.0709 78.5188 65.0877 78.5413C65.47 79.1424 65.9847 77.4432 65.3557 77.6532ZM66.9647 41.772C66.9523 41.7576 66.7845 41.7155 66.532 41.6792C65.8371 41.5157 64.4523 41.806 64.4234 41.9003C64.1151 42.3413 64.4784 42.3835 64.9223 42.3703C65.3929 42.347 65.9922 42.3307 66.4704 42.2946C66.9304 42.2536 67.2381 42.1298 66.9647 41.772ZM61.1843 78.5252C61.8117 79.4151 62.0118 80.4964 61.4583 81.3316C61.3606 80.4017 61.2512 79.4724 61.1843 78.5252Z" fill="#A0677E"/>
<path d="M106.963 62.7662C106.972 62.75 106.981 62.7338 106.99 62.7173C107.939 60.8495 108.127 60.6226 108.32 60.4374C108.512 60.0318 108.615 60.1505 107.947 56.7003C107.744 55.9059 107.591 55.3578 107.508 54.9227C107.247 53.6966 107.336 53.1461 107.055 52.3675C106.767 51.6376 106.014 50.5326 103.775 49.6078C103.902 48.956 103.849 49.1798 104.264 48.6526C104.101 48.4181 103.375 47.7168 102.287 46.9879C100.78 45.9952 99.0739 45.3089 96.9049 45.0754C95.8574 44.9807 95.1324 45.1454 94.7408 45.1967L94.7257 45.1977C93.1241 45.4061 91.8815 45.8081 91.3225 45.9681C91.1272 46.2183 90.9411 46.4714 90.764 46.7268C90.1436 46.8084 87.5184 47.5933 87.2886 47.8331C86.4927 48.4757 85.7716 49.0966 85.0805 49.7285C83.9342 50.7707 83.0782 51.8015 82.1272 52.6729C82.2632 53.227 82.1811 53.0299 82.5245 53.5021C82.4148 53.6191 82.3132 53.6986 82.2149 53.7497C82.0307 53.8536 81.8913 53.8657 81.743 53.8257C81.6045 53.7823 81.4297 53.6924 81.4053 53.4956C81.4231 53.4917 81.4543 53.4821 81.5219 53.4728C81.578 53.4683 81.8005 53.45 82.0427 53.5967C82.2801 53.7471 82.3107 53.8998 82.2894 53.8703C82.2685 53.8517 82.2202 53.7292 82.1793 53.5555C82.1319 53.3687 82.1114 53.1884 82.0109 52.773L82.0348 52.913C81.947 52.6522 82.067 52.0705 82.01 51.0949L82.0111 51.1697C81.9277 47.4821 80.8707 42.2415 78.6779 39.3717C78.2418 38.8019 77.7234 38.472 77.2807 38.1499C76.306 37.5656 75.4128 37.4443 75.0401 37.3704C75.0271 37.368 75.0178 37.3685 75.0089 37.3693C74.9146 37.4762 74.8203 37.5832 74.726 37.6901C74.7312 37.7091 74.7366 37.728 74.7423 37.7467C75.1844 38.6634 75.9691 39.1465 76.0988 39.3606C76.2443 39.5134 76.376 39.6461 76.497 39.7744C76.7252 40.0102 76.9537 40.2941 76.9648 40.3093C78.0998 42.2397 79.0419 44.5205 79.4513 46.9284C79.6864 48.3007 79.8156 49.7081 79.8738 51.1279L79.8747 51.1924C79.947 51.6066 79.7871 52.2806 79.9069 53.1524L79.9236 53.25C79.9954 53.4711 80.0465 53.9401 80.2021 54.4058C80.2882 54.6455 80.3852 54.9261 80.6798 55.2283C80.9681 55.5523 81.5691 55.6751 81.8964 55.5786C82.5851 55.3894 82.8014 55.0609 83.0533 54.8686C84.3208 53.7962 85.2822 52.5687 86.4447 51.5994C87.6908 50.5606 89.0851 49.6733 90.5888 48.9827C91.9452 48.3615 93.3978 47.9149 94.9068 47.7377C95.4282 47.6797 95.9765 47.5865 96.5555 47.6489C96.8991 47.6854 97.2364 47.7512 97.5677 47.8367C98.636 48.1185 99.655 48.7087 100.599 49.2845C100.662 49.3229 100.725 49.3609 100.788 49.3985C102.088 50.1559 103.824 50.9024 103.978 52.573C104.003 52.991 104.559 54.009 104.829 55.4526C105.103 56.7584 105.126 58.4103 104.916 59.9134C104.836 60.6166 104.779 61.3591 104.602 62.0111C104.364 62.9033 104.11 63.7738 104.091 64.1586L104.06 64.3166C103.976 64.5469 103.905 64.7382 103.849 64.8824C103.238 66.4667 102.511 68.0027 101.832 69.558L101.776 69.65C101.543 69.9019 101.361 70.2686 101.173 70.6381C101.102 70.7761 101.031 70.9176 100.952 71.061C100.269 72.2938 99.6 73.5714 98.6959 74.6578C97.6724 75.8907 96.369 76.8232 95.1856 77.852C93.6637 79.1748 92.0478 80.376 90.3982 81.5292C86.0126 84.5927 81.4127 87.3782 76.5192 89.3709C76.4697 89.4355 75.7796 90.2758 75.7633 90.2787C74.3072 90.882 70.4848 91.3426 69.4797 92.2645C69.4683 92.5506 69.4551 92.8369 69.4401 93.1234C69.2898 93.1583 69.1394 93.1923 68.9888 93.2254C68.8612 92.6696 68.9128 92.9545 68.8403 92.3743C68.6106 92.3951 68.3595 92.4297 68.0906 92.4736C68.1819 92.4475 67.9875 92.4535 67.8261 92.4358C67.6398 92.4273 67.4626 92.3911 67.0652 92.4468L67.6143 92.5036C67.2476 92.3447 66.8567 92.1843 66.4519 92.0219L66.8666 92.3366C66.6235 92.0471 66.5255 91.981 66.3843 91.8411C66.2563 91.7198 66.1243 91.5918 66.0607 91.5188C65.8745 91.3032 65.7006 91.0679 65.5409 90.8172C64.9163 89.8589 64.5564 88.3948 64.138 86.7771L64.1413 86.787C63.5406 84.4541 62.991 82.0222 62.0864 80.3792C61.9674 80.1627 61.4828 80.303 61.2141 80.3316C61.1825 80.197 61.1512 80.0623 61.1203 79.9275C61.3125 79.6468 61.8011 79.1408 61.7185 78.8182C61.2726 77.0372 62.5096 75.8031 61.1254 74.4996C61.0451 73.8375 61.1094 73.2234 61.1485 72.654C61.1975 72.2511 61.2604 71.7555 61.1043 71.1671C61.0976 71.1451 61.0906 71.1229 61.0831 71.1008C60.6491 70.8823 60.4525 70.8279 59.9933 70.6842C59.9581 70.5602 59.9229 70.4364 59.8879 70.3127C60.042 70.0061 60.236 69.6257 60.4735 69.1736C60.4637 68.7481 60.4544 68.3234 60.4508 67.9056L60.4522 67.9186C60.4447 65.6525 60.3797 63.3397 60.2082 61.0982C60.1686 60.5835 60.3551 59.8911 60.4929 59.3442L60.4918 59.3259C60.5716 58.9917 60.633 58.7116 60.6165 58.5551C60.456 56.9769 60.4767 55.4508 60.5437 53.9694C60.5646 53.4209 60.5868 52.9486 60.6355 52.6311L60.6374 52.6065C60.6972 52.097 60.7628 51.589 60.8255 51.078C60.8439 50.9136 60.6542 50.2353 60.657 50.1579C60.662 49.3838 60.2276 48.7874 60.6736 48.2067C60.959 48.2455 61.2442 48.2855 61.5292 48.3268C61.6375 48.2076 61.7468 48.0901 61.857 47.9743C61.6887 47.3667 61.6902 47.4722 61.3758 46.8818C61.9947 46.1366 62.0995 46.7503 62.2964 46.3698C62.4617 46.0438 62.81 44.6933 63.2001 43.792L63.1943 43.8034C63.348 43.4305 63.5391 43.0941 63.6456 43.0165C64.1839 42.6135 64.6093 42.6784 65.3028 41.915C65.3957 41.8251 65.4932 41.7195 65.5947 41.5988C65.543 41.4898 65.491 41.3819 65.44 41.2729C65.0383 40.391 64.9398 40.3417 65.205 39.6209C65.3328 39.5703 65.4598 39.5232 65.5865 39.4792C65.7691 39.838 65.9473 40.1527 66.1615 40.4903C66.466 40.4236 67.0109 39.6851 67.5578 39.1365C68.1497 38.5636 68.3799 38.3816 68.7807 38.2889C69.3501 38.2948 69.4636 38.2721 69.4972 38.2538C69.5307 38.2025 70.2258 38.3838 70.7118 38.4661C70.9677 38.3866 71.2554 38.311 71.6115 38.2109L70.6939 38.0016C70.8734 37.9361 71.0552 37.8755 71.2417 37.8199C71.4066 37.8895 71.5716 37.9592 71.7365 38.0288C72.7359 38.255 74.0017 38.3338 74.9388 38.0138C75.0041 37.6951 75.0694 37.3764 75.1346 37.0577C74.1013 37.1053 72.8623 36.5528 71.569 35.836L71.7548 35.8783C71.037 35.7473 70.5536 35.4216 70.0518 35.2413C69.7401 35.1253 69.3876 35.0644 69.0257 34.9877C66.5877 34.3971 64.5073 36.4444 65.382 37.887C65.4655 37.8977 65.5485 37.9095 65.6308 37.9226C66.2161 38.0193 66.5286 38.0543 66.9057 38.4933C66.8499 38.5982 66.7952 38.7068 66.7421 38.8182C65.7247 38.7882 64.9499 37.9724 64.1575 37.2074C62.0385 38.3336 63.7167 38.8058 62.6779 39.9557C62.5838 40.0667 62.4879 40.1788 62.3932 40.2875C61.7487 41.0323 61.0268 41.6204 60.3754 42.3441C59.1785 43.6734 58.1429 45.2258 57.9355 47.239C57.7865 48.9659 57.8668 48.624 56.7942 49.3407C56.4792 50.8443 56.7794 51.2995 56.9336 52.3348L56.9344 52.3239C56.9625 52.5522 56.9963 52.7925 57.0302 53.0591C57.0623 53.312 56.8953 53.649 56.7107 54.0427C56.5003 54.5082 56.2729 55.0878 56.3115 55.7622C56.8064 56.0661 56.5959 55.9872 57.1908 55.974C57.2306 56.0971 57.2707 56.2199 57.311 56.3426C56.8359 56.7003 57.0935 56.5653 56.4723 56.6127C56.4993 56.7236 56.5265 56.8344 56.5538 56.945C56.7431 57.03 56.9325 57.1145 57.122 57.1986C57.16 57.4273 57.1345 58.335 57.0829 59.5475L57.0822 59.5368C56.937 62.1878 56.746 66.3471 56.7594 68.2729L56.7615 68.2931C56.7728 68.9147 56.8026 69.2993 56.8364 69.3632C57.3481 70.2956 57.6359 71.0125 57.778 71.6338C57.8844 72.0465 57.8536 72.551 57.8524 73.1223C57.8019 74.6238 57.3208 75.9445 58.924 78.6775C59.0898 78.9503 58.4631 81.0484 58.9194 82.3668C59.4301 82.9079 59.4962 82.8645 60.167 83.1318C60.2328 83.2827 60.2991 83.4332 60.3658 83.5836C59.9046 84.0348 60.0732 83.9034 59.501 84.1822C59.5206 84.3104 59.5405 84.4386 59.5607 84.5668C59.7215 84.6986 59.8826 84.8295 60.044 84.9596C59.9692 85.9861 59.8311 85.931 60.1774 86.776C60.7012 87.1097 61.1529 87.3026 61.5104 87.6639L61.5146 87.6763C61.6206 87.7778 61.7183 87.8966 61.8072 88.0397C61.6667 88.3426 61.5271 88.6487 61.3918 88.9622C61.8998 90.1707 62.7251 91.0562 63.6222 92.6815C63.6845 92.7887 63.8098 92.9932 64.0003 93.255C64.1721 93.4771 64.3051 93.6236 64.44 93.7784C64.5062 93.8538 64.5708 93.9273 64.6248 93.9923C64.6681 94.0432 64.7564 94.1594 64.6545 94.0516L64.8913 94.3858L65.4024 94.619C65.7626 94.8026 66.1509 95.001 66.5267 95.1951L66.9578 95.3918L67.5871 95.3047C67.3781 95.3475 67.5801 95.3446 67.7481 95.3728C67.8429 95.3841 67.9548 95.3965 68.1046 95.4028C68.2617 95.4045 68.4253 95.423 68.8077 95.3436C69.5566 95.2352 70.0867 95.1543 70.0326 95.2156C71.7556 93.2422 74.8798 95.0325 75.4633 92.283C76.3123 92.1402 76.8923 92.0371 77.718 91.7744C78.3088 90.9021 78.0565 91.0253 78.8793 90.5717C79.5687 90.6915 79.728 90.9197 80.2269 91.351C80.3153 91.3043 80.4035 91.2574 80.4916 91.2104C80.355 91.0362 80.2188 90.8618 80.0829 90.6871C81.0141 89.56 83.0545 90.3897 85.0417 88.9488C85.0399 88.8751 85.0381 88.8014 85.0362 88.7277C84.766 88.6819 84.4966 88.6346 84.2279 88.586C84.4177 87.9217 84.624 87.7369 84.987 87.1305C85.5527 87.2824 85.6058 87.3489 86.1024 87.6444C86.2533 87.6067 86.4041 87.5685 86.5549 87.5299C86.5223 87.0596 86.5139 86.6678 86.5753 86.1923C86.7248 86.147 86.874 86.1015 87.0236 86.0551C89.5738 87.802 90.7125 84.2274 92.1736 84.3588C92.2793 84.4358 92.3851 84.5128 92.4909 84.5896C92.543 84.5547 92.595 84.5197 92.647 84.4847C92.7903 84.3879 92.9329 84.2911 93.0747 84.1943C93.015 84.0666 92.9552 83.9389 92.8953 83.8113C92.5811 83.7359 92.27 83.6572 91.9576 83.5787C91.8826 83.5593 91.8075 83.5399 91.7325 83.5204C91.7375 83.4476 91.7423 83.3748 91.7471 83.302C91.7484 83.2842 91.7496 83.2663 91.7509 83.2484C93.8465 82.1005 95.7716 80.7962 97.8288 79.2975C97.8433 78.7406 97.8647 78.9499 97.6301 78.4563C97.7385 78.3656 97.8465 78.274 97.9542 78.1817C98.5761 78.2993 99.206 78.396 99.8463 78.4692C101.422 76.9556 101.426 75.1062 102.9 73.7691C103.401 73.3023 103.587 73.0724 103.742 72.6745C103.834 72.4731 103.898 72.2789 103.945 72.0893C103.522 71.8853 103.509 71.9524 103.256 71.5411C103.328 71.453 103.394 71.3786 103.453 71.321C103.702 71.3787 103.944 71.4546 104.168 71.562C104.181 71.5372 104.179 71.544 104.137 71.5967C104.002 71.52 103.867 71.4417 103.734 71.3599L104.24 70.5356C104.178 70.4896 104.117 70.4436 104.056 70.3976C105.241 68.3521 105.789 69.4403 106.706 66.1637C106.666 66.0591 106.626 65.9544 106.586 65.8498C106.288 65.8872 105.99 65.9247 105.692 65.9621C105.809 65.4508 105.824 65.3207 106.004 65.1061L106.188 64.1739C106.201 64.4046 106.21 64.4161 106.239 64.4334C106.266 64.442 106.307 64.4155 106.36 64.3698C106.826 64.3342 106.945 64.3178 107.43 64.3349C107.758 63.5604 107.638 63.5446 106.963 62.7662Z" fill="#34140B"/>
</svg>
