<svg width="388" height="1034" viewBox="0 0 388 1034" fill="none" xmlns="http://www.w3.org/2000/svg">
<path d="M5.88281 30.3232H375.883V1013.32H5.88281V30.3232Z" fill="#FDC104"/>
<path d="M31.6576 12.0114C46.8213 11.5294 66.6984 12.0448 81.8048 12.7521C86.5391 12.9715 84.1418 13.9521 87.4099 14.1477C93.8018 14.529 99.7567 14.0481 106.073 14.5023C108.167 14.6576 105.561 16.211 107.756 16.3383C119.784 17.0248 131.163 16.6291 143.348 16.9593C203.367 18.5884 262.363 19.1715 323.116 19.8793C339.289 20.0666 358.278 21.0217 375.883 21.0582L385.02 20.9332L385.148 30.3232C385.139 34.5233 385.183 38.6446 385.302 42.63C385.375 45.0454 386.738 43.6054 386.851 44.0649C388.571 51.2727 385.819 48.8762 385.453 53.5823C384.009 72.2608 383.883 93.0312 384.409 111.007C384.637 118.654 387.345 110.987 385.825 118.687C385.723 119.222 384.275 117.281 384.12 119.378C383.773 124.135 384.032 133.158 383.917 136.844C383.689 143.948 383.703 145.124 383.687 151.843C383.652 161.029 382.932 171.954 383.26 181.81C383.334 183.913 384.819 181.128 385.071 184.483C385.323 187.841 385.197 196.724 384.848 199.719C384.498 202.715 383.331 201.439 383.064 201.97C380.807 206.331 383.932 216.607 384.01 217.928C385.327 242.035 383.546 262.707 383.551 285.335C383.559 302.513 384.147 320.881 384.066 337.226C383.964 356.7 383.16 373.204 383.298 392.122C383.311 394.118 385.056 391.779 385.076 394.217C385.279 420.125 385.089 445.852 383.91 471.647C383.791 474.234 382.258 470.9 382.047 473.485C380.788 489.309 377.763 514.347 384.434 523.745C384.174 534.464 383.905 547.477 382.56 557.067C381.694 563.25 380.025 557.244 380.737 564.84C380.896 566.553 382.358 564.325 382.485 566.894C383.021 577.709 382.545 589.526 383.301 600.225C383.458 602.402 384.768 601.807 385.003 602.424C386.914 607.606 383.756 616.234 383.526 618.115C381.815 632.436 382.489 642.894 382.447 656.236C382.437 659.332 384.196 655.672 384.249 658.651C384.501 674.102 384.35 690.108 383.569 705.237C383.392 708.603 381.893 705.508 381.731 707.116C381.036 714.207 383.867 715.779 383.255 722.579C383.13 724.013 381.847 723.205 381.706 723.467C379.494 727.56 382.629 731.116 382.698 732.169C383.643 745.486 380.371 753.998 380.835 766.863C380.893 768.402 382.517 764.932 382.583 769.258C383.031 798.08 382.585 828.563 381.286 857.093C381.087 861.529 379.867 858.362 379.717 858.641C377.368 863.191 380.515 866.134 380.634 867.581C381.487 878.991 378.847 889.65 382.596 897.403C381.552 936.178 382.701 974.811 381.461 1013.32L381.536 1018.82L375.883 1018.9C366.399 1018.6 356.922 1018.15 347.452 1017.48C346.843 1017.44 347.935 1015.89 346.719 1015.82C332.081 1014.95 334.893 1017.36 325.207 1020.31C322.767 1021.05 315.345 1017.49 314.688 1017.23C312.296 1016.27 314.777 1013.96 313.976 1013.78C307.346 1012.32 308.427 1019.94 299.483 1019.94C299.203 1019.93 300.378 1018.53 299.628 1018.39C297.296 1017.95 294.983 1018.51 292.701 1018.02C287.478 1016.91 285.618 1013.2 277.641 1015.36C276.631 1015.64 278.173 1019.96 270.188 1019.76C267.004 1019.67 252.914 1019.75 248.964 1019.47C245.02 1019.19 247.728 1017.79 247.447 1017.73C236.819 1015.89 240.849 1015.13 235.524 1012.4C230.2 1009.68 231.677 1016.16 229.506 1016.89C227.332 1017.61 219.54 1016.09 217.625 1015.56C215.711 1015.03 218.098 1014.14 216.397 1013.84C205.113 1011.89 211.444 1017.06 207.726 1018.09C198.96 1020.53 192.133 1015.72 184.108 1015.25C181.936 1015.12 183.708 1016.22 181.775 1016.32C174.117 1016.71 169.511 1015.21 160.799 1016.59C159.374 1016.81 152.331 1019.7 147.772 1017.58C147.126 1017.27 148.961 1016.08 145.697 1015.81C140.822 1015.4 132.038 1015.14 126.797 1015.54C122.927 1015.84 127.362 1017.81 122.492 1017.2C120.328 1016.93 124.339 1015.77 120.273 1015.35C116.228 1014.93 105.886 1014.99 101.95 1015.03C98.0219 1015.07 100.172 1016.56 99.8546 1016.66C97.9335 1017.24 90.3945 1017.97 89.7281 1017.96C60.7639 1018.12 33.743 1016.27 5.88281 1016.29L2.95994 1016.33L2.91887 1013.32C2.91565 1008.86 2.86433 1004.38 2.74895 999.857C2.68554 997.29 1.10602 999 1.08007 998.608C0.418286 989.818 4.61782 996.749 6.02347 990.608C2.8182 991.496 3.39856 987.871 3.04704 981.679C2.87504 978.696 1.63393 980.321 1.50688 980.048C-0.378211 975.624 2.05664 972.543 2.55473 971.749C4.38698 968.819 2.22205 965.63 3.44676 963.636C4.66231 961.643 6.46434 966.229 6.44126 960.291C5.29387 958.626 2.29545 963.034 1.8095 958.526C-0.0286574 941.515 2.32391 909.762 2.56828 896.084C2.81245 882.435 2.60076 878.026 3.01542 870.072C3.76518 855.704 1.54055 860.969 0.522268 852.048C-0.495891 843.101 4.97777 847.451 6.15445 846.164C7.33061 844.902 6.11988 843.523 6.76645 841.953C7.41287 840.388 8.21293 843.776 8.45565 840.095C8.69814 836.411 6.6057 826.34 5.37534 825.034C2.76874 822.274 0.032999 826.812 0.994251 817.065C1.0513 816.505 2.49057 818.324 2.63603 816.177C3.74404 799.128 3.81272 781.417 4.7927 764.389C4.9297 762.048 6.53085 764.141 6.62869 762.779C7.65282 748.586 4.95309 753.659 1.95403 745.88C5.94513 747.627 8.38692 743.326 8.41049 732.554C8.42605 726.079 6.68293 727.194 5.45438 723.006C5.08403 721.749 6.28092 717.167 5.46116 716.337C2.78146 713.599 -0.218282 717.915 0.976185 706.809C1.03295 706.322 2.49977 707.874 2.58861 706.19C3.17006 695.307 0.367143 694.005 0.0277019 682.242C-0.238644 673.021 1.47054 656.622 1.74852 646.123C6.23569 646.344 5.20819 636.427 2.11437 632.404C2.24103 625.59 2.06613 618.231 2.49376 611.645C2.63955 609.379 3.93871 610.868 4.07908 610.582C6.28113 606.2 3.27118 603.237 3.15318 601.767C2.00611 585.827 4.2874 572.84 2.05791 557.627C1.97761 557.088 -1.13932 556.213 1.13652 552.146C1.2934 551.883 2.71155 556.907 2.82121 549.751C2.93112 542.594 4.60202 529.102 3.1577 519.165C2.80998 516.761 0.279674 510.679 2.25664 505.798C2.52509 505.147 3.41904 505.859 3.91648 504.92C5.50155 501.885 2.35111 500.229 5.02756 496.662C7.7039 493.095 9.70828 485.676 7.86172 475.656C7.80803 475.337 5.31102 472.964 5.3505 469.813C5.41567 464.783 5.93585 457.641 5.91959 452.389C5.9109 449.874 4.36037 451.483 4.33201 451.047C3.46315 434.137 4.84543 422.101 5.44535 403.986C5.55839 400.665 3.44401 391.122 5.11564 384.693C6.94555 377.634 14.5577 384.888 12.7442 368.662C12.0188 362.117 2.36139 353.832 7.3649 342.071C6.12506 319.261 8.68584 298.167 6.9155 275.294C6.83706 274.266 4.14176 271.013 4.17845 268.595C4.23812 265.005 5.49786 263.034 5.58085 260.471C5.9603 249.73 4.88251 239.901 5.05015 229.544C5.11106 225.613 6.41362 226.988 6.48642 222.298C6.55801 217.611 4.84278 214.486 5.67118 208.135C6.30261 203.339 9.80848 198.543 10.2171 192.177C6.75897 191.934 6.8302 187.561 5.91733 179.79C5.74021 178.296 4.53659 179.897 4.39073 179.191C3.77038 176.315 4.76792 173.653 4.09263 170.922C3.93045 170.258 2.74947 170.227 2.55022 169.684C0.811002 165.066 3.4675 157.458 3.93003 156.151C5.68664 151.143 4.15064 148.802 4.84238 144.961C5.53404 141.126 6.39867 146.86 6.81839 142.38C7.68654 133.095 7.49581 121.164 7.55008 111.733C7.56444 107.97 5.98801 110.537 5.95346 109.998C5.55363 102.218 7.2305 94.3489 4.09037 90.0346C12.2096 84.6398 3.30285 85.3425 4.9282 74.2204C5.05966 73.3442 8.89917 72.2296 9.46285 75.5933C10.026 78.9567 8.82582 84.0569 9.70449 88.7237C9.91069 89.8287 13.5086 96.1593 13.7265 97.023C15.4298 103.789 9.69217 104.748 9.37704 105.106C5.97616 109.165 9.85219 116.901 10.12 118.938C11.3472 128.257 10.5403 136.175 11.4163 143.97C11.9824 149.068 15.7408 149.567 15.6257 153.57C15.2455 166.878 10.0026 171.523 14.5485 184.063C15.5181 186.752 19.6259 184.08 16.3958 193.715C16.1922 194.32 13.2373 201.474 15.1063 205.606C15.342 206.125 16.5391 206.109 16.6397 206.793C17.2902 211.381 16.3365 214.441 16.7933 219.439C17.2501 224.436 17.931 230.445 17.525 236.151C17.2822 239.589 15.0517 244.002 14.5056 245.648C12.9325 250.295 15.5117 255.279 13.6068 258.159C11.6923 261.062 8.78483 255.386 7.54782 263C10.6581 263.282 13.8505 263.93 16.9785 264.383C16.8689 281.07 15.8632 297.488 16.0006 314.231C16.0208 316.307 17.6929 314.184 17.7576 316.409C18.0232 325.797 16.8312 333.997 17.3059 343.733C17.6797 351.269 19.4501 359.533 19.8962 367.413C16.3371 372.226 17.5453 383.92 17.2201 392.414C17.1077 395.39 16.1572 395.191 15.847 397.307C14.7001 405.29 17.8453 401.55 18.3402 403.738C20.4526 413.128 13.3338 413.932 13.5097 425.003C13.5166 425.589 17.3112 432.759 17.5475 433.746C19.0884 440.02 16.2268 434.784 15.9464 438.711C15.434 445.88 14.5278 450.862 15.6393 459.274C15.9685 461.726 18.3336 467.61 16.5042 472.373C16.2647 473 15.0104 472.653 14.937 473.158C13.7126 482.287 17.6536 482.527 18.9883 487.743C20.3228 492.961 17.6022 501.02 16.8181 502.66C14.7897 506.95 15.9512 499.372 15.7522 499.14C13.3833 496.41 13.7912 502.287 13.591 506.778C9.72677 507.428 9.95872 513.709 13.3991 511.434C13.7748 511.175 13.4145 507.68 13.591 506.778C17.3824 510.72 17.8679 517.622 14.325 525.245C12.6644 528.814 10.7283 525.44 11.4366 536.28C11.7563 541.2 14.4171 539.299 15.1425 543.64C16.7975 553.559 14.3155 566.447 14.7066 576.673C14.8486 580.384 16.305 576.769 16.4523 579.305C16.8475 586.036 15.7547 591.972 16.3145 598.732C16.3671 599.344 17.8917 597.848 17.9111 599.95C18.0882 615.886 17.1117 629.763 17.0846 646.402C17.0722 654.441 17.9131 668.814 17.744 677.142C17.46 691.576 15.243 709.333 15.7816 721.664C16.1263 729.706 17.6512 727.942 18.6902 731.388C20.7042 738.037 17.0967 749.808 16.5381 751.393C16.5196 751.441 16.1601 744.521 15.3773 748.213C13.7463 750.36 16.531 751.315 16.5381 751.393C16.1772 752.434 15.8311 766.258 16.1226 769.003C16.2819 770.495 17.7267 769.66 17.7824 770.438C19.0754 788.924 19.4426 807.442 18.767 826.19C18.7378 826.52 17.1218 826.023 17.0733 826.799C16.3548 837.653 18.3317 844.603 19.5055 853.555C20.6787 862.506 20.2858 869.604 17.5114 874.903C17.8607 881.656 16.6342 891.345 15.89 896.921C15.1457 902.496 18.2916 903.274 18.3538 903.765C20.3443 919.066 18.5437 927.911 18.2634 943.785C18.1248 951.332 18.5811 966.303 18.9251 974.474C19.2022 980.932 18.465 984.823 18.9364 990.774C18.9993 991.579 20.4 990.765 20.454 991.011C22.1298 997.652 18.7056 994.461 18.0941 995.832C15.8701 1000.8 14.6857 1003.87 15.7319 1012.38C15.7631 1012.63 15.8739 1012.95 16.0436 1013.32L5.88281 1003.16C8.35225 1002.03 13.08 998.267 16.19 998.016C20.8392 997.65 19.0845 999.417 23.9526 998.989C24.3691 998.954 24.2824 997.864 27.2868 997.912C41.2331 998.121 56.4379 998.755 70.9307 998.646C72.9104 998.635 70.3724 996.906 73.2326 996.862C86.6541 996.657 101.365 996.721 114.44 997.53C117.659 997.735 115.641 998.946 116.34 999.305C120.629 1001.48 126.712 998.32 127.715 998.26C151.656 996.741 169.978 999.601 194.379 998.239C195.707 998.159 205.931 994.771 210.492 997.677C210.804 997.87 215.317 1000.84 219.308 998.811C219.556 998.684 216.743 997.153 221.651 997.309C226.558 997.465 234.456 996.443 241.202 998.124C243.338 998.654 248.385 1001.62 254.755 999.256C255.171 999.091 265.005 993.745 268.515 997.433C269.084 998.04 268.489 1001.94 276.092 999.942C277.545 999.554 274.908 998.684 278.735 998.14C284.599 997.302 292.368 998.348 299.576 996.609C300.833 996.301 306.184 993.652 310.477 995.663C311.149 995.978 309.872 997.281 312.139 997.426C322.918 998.126 334.206 997.254 345.15 998.156C349.027 998.473 347.045 1000.58 351.086 1001.14C355.128 1001.71 363.27 1002.25 367.499 1001.29C371.729 1000.33 367.108 996.968 373.445 996.699C374.258 996.665 375.07 996.633 375.883 996.604L359.164 1013.32C358.207 986.603 360.07 960.113 360.35 933.418C360.393 929.338 359.191 932.72 359.169 926.708C359.079 904.542 357.953 866.273 360.505 847.039C362.55 831.628 364.106 851.021 364.938 839.245C365.335 833.562 361.432 827.414 361.309 826.042C360.061 812.641 361.79 803.328 361.26 791.266C361.15 788.775 359.568 791.218 359.491 789.098C359.217 781.857 359.923 774.247 359.794 767.328C359.733 764.224 358.524 764.795 358.618 761.939C358.827 755.105 359.335 749.061 360.467 742.398C360.57 741.791 362.073 745.886 362.129 740.829C362.215 732.646 363.333 722.488 362.179 713.072C361.832 710.278 359.07 710.169 360.977 704.164C361.376 702.904 364.692 704.511 361.827 697.516C361.35 696.339 357.486 684.588 359.977 678.822C360.633 677.3 363.346 673.417 362.92 670.058C362.852 669.602 361.368 671.427 361.224 668.644C360.74 658.832 360.898 648.55 360.433 638.471C360.306 635.779 358.771 639.788 358.631 635.776C358.243 624.745 358.634 610.972 359.114 600.184C359.294 596.207 360.566 598.956 360.704 598.667C362.955 594.013 359.917 591.262 359.74 589.717C358.679 580.111 360.106 572.796 359.729 563.942C359.628 561.498 358.18 563.231 358.051 562.744C356.789 557.7 359.39 561.457 359.677 558.264C360.489 549.319 360.372 539.347 360.187 530.3C360.117 526.977 358.437 530.712 358.394 527.73C358.105 510.08 358.265 491.732 359.191 474.507C359.368 471.263 360.662 473.304 360.957 472.628C363.024 467.969 360.205 461.141 359.936 459.57C358.71 452.426 359.854 449.651 359.641 443.343C358.578 412.524 359.335 374.472 359.803 345.381C360.405 307.473 361.636 278.057 361.316 241.908C361.297 239.61 359.577 241.927 359.539 239.946C359.124 214.376 359.796 189.202 359.3 163.58C359.262 161.477 357.631 164.508 357.515 161.133C357.267 154.211 357.356 145.443 357.877 138.444C358.128 135.031 359.527 139.609 359.751 136.173C360.276 128.173 360.392 119.597 360.131 111.378C360.016 107.881 358.348 113.158 358.328 108.612C358.188 82.4088 357.961 56.6023 359.204 30.3232L375.883 47.0025C371.108 46.7767 366.317 46.5025 361.506 46.1703C359.361 46.022 357.478 42.6318 352.917 43.282C352.574 44.2228 352.592 45.3296 352.442 46.3352C307.366 46.8769 262.75 45.7017 217.547 45.5199C215.641 45.5127 218.935 47.3089 215.245 47.304C193.889 47.2774 173.151 47.7751 151.307 45.9897C149.139 45.8151 150.251 42.655 143.864 43.1329C142.738 43.2201 133.118 43.6416 130.631 44.3276C130.293 44.431 132.048 45.906 128.948 45.949C110.934 46.173 92.0561 45.8363 74.0731 44.935C71.1709 44.7868 74.2616 43.216 72.1944 43.0968C57.531 42.263 41.5814 43.457 27.5699 42.0309C18.191 41.0706 21.6633 38.3555 16.6795 35.6828C15.9746 35.3057 10.167 35.246 9.86662 33.691C9.09557 29.7808 11.9086 25.4992 10.7544 21.3314C10.5105 20.4336 2.73252 21.4005 7.33758 19.2311C7.65929 19.086 13.2984 18.366 14.6873 17.63C15.6543 17.1212 13.9117 15.5398 15.8847 14.8884C17.8575 14.2377 20.0254 15.5634 23.2963 14.7981C26.5658 14.0234 25.1282 12.2243 31.6576 12.0114ZM12.5635 922.025C11.0527 927.188 16.586 927.95 15.2622 922.366C15.1916 922.095 12.6376 921.759 12.5635 922.025ZM11.6895 297.395C9.24898 304.144 12.8376 308.763 14.7224 304.001C16.6052 299.241 12.4294 295.339 11.6895 297.395ZM9.90774 227.408C7.98347 235.296 15.8298 236.538 14.2437 228.089C14.154 227.598 10.0195 226.946 9.90774 227.408ZM39.7918 34.9218C39.7205 34.8483 35.5458 34.7767 35.446 34.8495C33.223 36.6069 41.5709 36.7488 39.7918 34.9218ZM7.96786 157.957C6.90647 160.42 8.13172 167.51 9.45156 164.45C10.5133 161.987 9.28817 154.891 7.96786 157.957ZM183.891 1012.55C183.972 1012.63 186.965 1012.7 186.905 1012.24C186.702 1010.74 182.537 1011.16 183.891 1012.55ZM7.87753 39.9184C7.58218 57.358 1.10071 67.932 1.83208 48.9404C1.9644 45.5011 3.89897 56.3526 4.48331 51.9752C5.54789 43.9656 1.47832 38.6469 3.65904 30.4733C4.05818 28.9936 7.90878 38.9235 7.88656 39.9494C7.88355 39.9391 7.88054 39.9287 7.87753 39.9184ZM5.91733 924.998C5.84417 925.101 5.77479 929.245 5.84732 929.344C7.60397 931.588 7.74477 923.241 5.91733 924.998ZM358.539 1015.97C358.767 1016.13 368.383 1016.27 368.696 1016.13C373.712 1013.25 354.273 1012.95 358.539 1015.97ZM1.86821 645.958C0.101008 641.437 -0.10706 636.029 2.11211 632.425C1.9943 636.918 1.97695 641.44 1.86821 645.958Z" fill="#FDC104"/>
<path d="M336.745 5.31177C321.644 5.09364 301.753 5.16984 286.766 5.35214C282.074 5.40977 284.451 5.20275 281.174 5.24139C274.813 5.32057 268.803 5.56035 262.579 5.68127C260.492 5.72199 263.083 5.38776 260.892 5.43694C248.9 5.7128 237.536 6.2377 225.417 6.7882C177.569 9.53791 129.221 11.0647 83.3369 23.897C72.1466 27.6732 60.75 31.1143 48.9787 33.4519C39.9792 35.1794 29.8089 36.5974 19.4242 35.2386L19.6322 35.2524C20.1532 35.2497 20.4497 34.9512 20.4965 34.8903C20.5581 34.8115 20.5006 34.8722 20.4379 35.0265C20.405 35.1038 20.3668 35.2046 20.3264 35.3253C20.2905 35.4338 20.2866 35.4468 20.2662 35.5122C20.2316 35.6246 20.196 35.7494 20.1599 35.8856C20.0151 36.4311 19.8645 37.1573 19.7175 38.0381C19.4533 39.659 19.3245 40.7106 19.1377 42.3893C18.7728 45.8436 18.6031 48.0599 18.3643 51.5362C17.9881 57.1166 17.7032 63.3973 17.5167 68.8701C17.4332 71.344 17.7111 69.8795 17.7112 70.3516C17.721 77.7771 17.3744 75.0474 17.1624 79.7807C16.3541 98.4241 16.0011 119.116 15.8661 137.158C15.8144 144.704 16.3407 137.104 16.0084 144.777C15.9859 145.314 15.7722 143.364 15.7244 145.469C15.6142 150.362 15.5754 159.187 15.5277 162.902C15.4337 170.036 15.4276 171.277 15.3815 177.89C15.3167 187.072 15.1472 197.934 15.1658 207.825C15.1705 209.943 15.4208 207.137 15.4503 210.52C15.4792 213.887 15.4352 222.67 15.3727 225.69C15.3095 228.691 15.1231 227.414 15.0786 227.945C14.7027 232.376 15.1966 242.527 15.2086 243.869C15.4005 267.958 15.1365 288.572 15.1889 311.179C15.2298 328.3 15.3873 346.744 15.44 362.945C15.5032 382.546 15.4507 398.715 15.5725 417.8C15.5849 419.771 15.8558 417.463 15.8716 419.865C16.0396 445.727 16.1628 471.322 16.1071 497.26C16.1008 499.835 15.8355 496.525 15.8143 499.086C15.7316 509.464 15.5463 523.639 15.6939 534.888C15.7699 540.56 15.9601 545.765 16.3344 548.981C16.3014 559.671 16.2776 572.607 16.076 582.307C15.946 588.37 15.665 582.418 15.7937 590C15.8225 591.73 16.0556 589.474 16.0809 592.079C16.1867 602.763 16.1325 614.746 16.2752 625.315C16.3049 627.49 16.5161 626.898 16.5556 627.516C16.8755 632.834 16.3795 641.233 16.3459 643.195C16.0954 657.433 16.2241 667.961 16.2404 681.229C16.244 684.32 16.523 680.663 16.5368 683.641C16.6041 699.049 16.6047 715.086 16.4979 730.145C16.4735 733.511 16.2264 730.416 16.2023 732.025C16.0988 739.125 16.5597 740.653 16.4683 747.458C16.4496 748.892 16.2406 748.084 16.2181 748.346C15.864 752.448 16.3758 755.973 16.3881 757.028C16.5546 770.334 16.0306 778.815 16.1125 791.66C16.1228 793.195 16.3844 789.733 16.3971 794.049C16.4833 822.827 16.4035 853.195 16.1468 881.73C16.1071 886.16 15.9146 882.998 15.8897 883.277C15.5013 887.825 16.006 890.687 16.0223 892.175C16.1383 903.608 15.6813 914.221 16.2641 921.951C16.1378 938.513 16.0584 955.06 15.9486 971.589C15.9507 987.356 15.761 1003.31 18.1871 1018.6C18.9399 1022.42 19.7524 1026.56 22.1765 1028.76C24.6644 1030.79 28.4235 1027.5 31.1201 1025.07C36.778 1019.76 41.9043 1013.58 48.413 1008.95C48.9157 1008.6 48.159 1009.45 49.1761 1008.74C55.3619 1004.61 58.6762 1004.46 61.0177 1004.21C63.4043 1004.18 65.4447 1003.91 70.0099 1006.37C70.7273 1006.78 71.903 1007.65 73.1123 1008.85C74.1604 1009.88 75.2553 1011.19 76.1008 1012.34C76.7663 1013.25 77.3473 1013.87 77.4832 1014.01C79.1294 1015.67 77.0574 1014.36 77.6311 1014.9C82.8272 1018.9 82.581 1017.56 90.8652 1019.72C91.1238 1019.78 89.9909 1019.77 90.6802 1019.94C92.8126 1020.46 95.239 1020.7 97.3845 1020.96C102.61 1021.51 104.366 1022.2 112.364 1021.52C113.398 1021.39 111.702 1020.9 119.701 1020.28C122.805 1020.1 136.738 1018.37 140.68 1017.8C144.553 1017.29 141.931 1017.9 142.21 1017.87C152.733 1016.62 148.775 1017.32 154.087 1016.96C159.456 1016.57 157.795 1015.76 159.916 1015.32C162.036 1014.87 169.764 1013.92 171.671 1013.72C173.582 1013.52 171.236 1014.02 172.932 1013.81C184.102 1012.46 177.737 1012.57 181.394 1011.86C189.993 1010.22 196.883 1010.1 204.846 1009.29C207.003 1009.08 205.225 1009.09 207.144 1008.87C214.754 1008.02 219.354 1007.85 228.032 1007.12C229.451 1006.99 236.468 1006.2 241.047 1006.51C241.693 1006.55 239.862 1006.76 243.124 1006.78C247.989 1006.78 256.77 1007.06 262.002 1007.41C265.858 1007.67 261.463 1006.98 266.312 1007.5C268.469 1007.75 264.45 1007.55 268.496 1008.02C272.519 1008.43 282.727 1009.99 286.577 1010.89C290.415 1011.72 288.368 1011.03 288.682 1011.08C290.579 1011.36 297.927 1013.22 298.548 1013.46C304.855 1015.36 310.923 1017.7 316.705 1020.51L316.39 1020.44C332.553 1019.78 348.157 1011.6 357.361 998.459C362.825 990.704 364.923 980.964 366.058 971.373C366.337 968.858 365.89 970.505 365.93 970.121C366.648 961.415 366.72 968.37 367.399 962.248C366.815 963.098 367.192 959.519 367.299 953.328C367.342 950.394 367.101 951.984 367.087 951.718C366.874 947.247 367.259 944.258 367.343 943.429C367.643 940.567 367.262 937.322 367.435 935.364C367.604 933.365 367.965 937.961 367.87 932.003C367.656 930.367 367.246 934.718 367.088 930.273C366.476 913.287 365.649 881.65 365.394 867.997C365.096 854.388 365 849.956 364.951 842.04C364.904 827.685 364.606 832.933 364.388 824.051C364.199 815.112 365.102 819.44 365.289 818.156C365.329 817.887 365.352 817.612 365.364 817.332C365.41 816.33 365.305 815.239 365.387 814.016C365.491 812.465 365.623 815.828 365.66 812.17C365.697 808.36 365.336 798.505 365.131 797.077C364.699 794.291 364.272 798.886 364.394 789.176C364.401 788.612 364.641 790.442 364.657 788.281C364.772 771.242 364.675 753.557 364.714 736.571C364.72 734.21 364.994 736.32 365.001 734.944C365.065 720.874 364.662 725.815 364.117 718.105C364.777 719.829 365.142 715.581 365.058 704.792C365.008 698.357 364.734 699.462 364.5 695.27C364.43 693.996 364.585 689.444 364.445 688.619C363.987 685.889 363.538 690.225 363.636 679.104C363.641 678.615 363.892 680.17 363.892 678.48C363.891 667.663 363.424 666.311 363.263 654.597C363.136 645.383 363.26 629.023 363.205 618.544C363.935 618.756 363.674 608.854 363.134 604.855C363.09 598.027 362.992 590.734 362.998 584.125C363 581.861 363.225 583.346 363.245 583.061C363.56 578.679 363.044 575.758 363.011 574.278C362.673 558.375 362.92 545.365 362.419 530.22C362.401 529.679 361.887 528.793 362.22 524.734C362.243 524.473 362.518 529.471 362.471 522.35C362.424 515.234 362.575 501.668 362.26 491.849C362.183 489.379 361.724 483.378 362.006 478.494C362.045 477.835 362.195 478.554 362.268 477.604C362.502 474.542 361.978 472.888 362.386 469.383C362.794 465.764 363.064 458.438 362.703 448.388C362.693 448.075 362.274 445.768 362.262 442.541C362.244 437.56 362.294 430.34 362.275 425.184C362.265 422.609 362.019 424.259 362.013 423.812C361.954 418.772 361.936 413.946 361.946 409.667C361.978 399.233 362.221 389.723 362.472 377.042C362.539 373.636 362.346 364.279 362.735 357.704C363.156 350.781 364.256 357.981 364.263 341.778C364.269 335.244 362.863 326.982 363.907 315.201C364.156 292.461 364.996 271.399 365.13 248.562C365.137 247.536 364.759 244.28 364.809 241.857C364.884 238.26 365.122 236.319 365.181 233.759C365.431 223.03 365.419 213.231 365.605 202.884C365.674 198.958 365.865 200.332 365.946 195.656C366.025 191.001 365.792 187.84 366.009 181.512C366.174 176.752 366.803 171.936 366.94 165.587C366.381 165.322 366.443 161.041 366.369 153.211C366.354 151.717 366.144 153.317 366.127 152.61C366.053 149.735 366.237 147.091 366.148 144.392C366.127 143.736 365.936 143.705 365.908 143.155C365.663 138.474 366.137 130.923 366.217 129.645C366.527 124.641 366.286 122.246 366.408 118.441C366.529 114.644 366.656 120.318 366.734 115.889C366.895 106.587 366.84 94.5883 366.772 85.3278C366.743 81.487 366.509 84.1096 366.499 83.5598C366.369 75.7286 366.521 67.8717 365.929 63.6171C367.136 58.4486 365.731 58.7567 365.675 47.8639C365.667 46.9663 366.255 45.7787 366.454 49.2669C366.642 52.4285 366.582 57.694 366.814 62.3179C366.872 63.3625 367.563 69.6762 367.609 70.586C367.982 77.3816 367.051 78.2474 367.006 78.629C366.503 82.7274 367.184 90.4234 367.236 92.4435C367.482 101.927 367.351 109.667 367.476 117.462C367.555 122.522 368.162 123.035 368.126 127.074C367.999 140.292 367.109 144.961 367.727 157.511C367.856 160.222 368.554 157.54 367.924 167.133C367.885 167.719 367.322 174.93 367.572 179.013C367.603 179.53 367.798 179.516 367.805 180.198C367.851 184.768 367.655 187.842 367.658 192.832C367.661 197.807 367.681 203.818 367.525 209.514C367.431 212.945 366.997 217.343 366.881 218.984C366.549 223.613 366.882 228.607 366.523 231.475C366.161 234.366 365.79 228.697 365.455 236.286C365.955 236.576 366.461 237.23 366.96 237.691C366.645 254.362 366.165 270.754 365.858 287.421C365.821 289.498 366.134 287.374 366.1 289.616C365.957 299.026 365.6 307.248 365.487 316.869C365.396 324.51 365.525 332.612 365.446 340.564C364.78 345.253 364.76 356.847 364.564 365.518C364.497 368.463 364.346 368.256 364.263 370.307C363.949 378.438 364.52 374.622 364.567 376.827C364.78 386.013 363.603 386.865 363.529 398.039C363.523 398.531 364.094 405.828 364.135 406.766C364.202 408.527 364.216 409.301 364.196 409.667C364.148 410.594 363.903 408.812 363.872 411.504C363.794 418.665 363.662 423.806 363.878 432.006C363.942 434.581 364.353 440.225 364.085 445.133C364.05 445.776 363.845 445.421 363.836 445.94C363.691 454.839 364.335 455.395 364.586 460.429C364.838 465.64 364.457 473.672 364.343 475.313C364.047 479.622 364.177 472.017 364.143 471.809C363.739 469.121 363.848 474.892 363.852 479.475C363.23 480.159 363.318 486.328 363.857 484.083C363.916 483.812 363.831 480.411 363.852 479.475C364.497 483.31 364.633 490.379 364.122 497.862C363.883 501.41 363.54 498.099 363.748 508.892C363.843 513.781 364.258 511.882 364.414 516.238C364.771 526.111 364.487 538.982 364.647 549.208C364.704 552.896 364.907 549.299 364.954 551.823C365.082 558.549 364.961 564.462 365.116 571.217C365.13 571.83 365.363 570.329 365.386 572.434C365.567 588.323 365.542 602.198 365.695 618.798C365.769 626.817 366.04 641.175 366.089 649.474C366.175 663.877 365.974 681.639 366.164 693.909C366.287 701.972 366.519 700.19 366.716 703.62C367.097 710.271 366.603 721.944 366.524 723.591C366.522 723.622 366.41 716.732 366.312 720.397C366.064 722.549 366.522 723.515 366.524 723.591C366.475 724.668 366.519 738.406 366.584 741.186C366.62 742.673 366.848 741.839 366.863 742.614C367.197 761.09 367.362 779.462 367.306 798.25C367.302 798.586 367.038 798.082 367.033 798.869C366.973 806.208 367.102 811.902 367.249 817.332C367.318 820.023 367.399 822.693 367.473 825.528C367.706 834.483 367.738 841.537 367.372 846.808C367.533 853.555 367.547 863.185 367.575 868.77C367.599 874.304 368.136 875.113 368.159 875.588C368.913 890.757 368.959 899.692 369.388 915.486C369.601 923.041 370.023 937.948 369.988 946.187C369.975 952.675 369.76 956.523 369.479 962.541C369.439 963.335 369.716 962.548 369.71 962.791C369.494 969.552 369.163 966.219 368.954 967.619C368.058 972.582 367.75 975.634 365.885 984.132C365.482 986.047 364.463 991.96 362.692 995.363C360.953 998.727 360.833 998.435 359.676 1000.09C359.312 1000.58 358.844 1001.23 358.136 1002.17C357.858 1002.51 358.116 1002.59 356.047 1004.96C346.498 1015.82 331.553 1022.98 316.39 1023.54L315.357 1023.31C315.173 1023.22 314.988 1023.13 314.804 1023.04C313.05 1022.22 315.181 1023.52 312.642 1022.36C300.712 1016.95 286.624 1013.39 273.889 1011.57C270.761 1011.13 272.749 1011.19 272.076 1011.05C267.929 1010.15 261.876 1010.19 260.897 1010.15C237.298 1008.98 219.058 1010.06 195.012 1013.25C193.711 1013.41 183.727 1015.32 179.135 1015.53C178.817 1015.55 174.327 1015.73 170.419 1016.66C170.18 1016.72 172.979 1016.54 168.153 1017.25C163.318 1017.97 155.515 1019.37 148.849 1020.1C146.68 1020.34 141.661 1020.62 135.383 1021.84C135.027 1021.94 125.278 1024.04 121.672 1023.73C121.087 1023.67 121.672 1023.08 114.029 1023.93C112.576 1024.07 115.282 1024.07 111.372 1024.36C105.512 1024.74 97.4728 1024.66 90.0124 1023.41C88.7139 1023.22 82.8864 1022.33 78.909 1019.44C78.3026 1018.99 79.5831 1019.61 77.5165 1018.18C76.1006 1017.14 74.7212 1015.89 73.5537 1014.49C68.0275 1007.23 59.4054 1005.1 52.031 1010.28C48.9874 1012.28 50.3251 1010.88 47.229 1013.25C44.135 1015.62 38.5418 1021.42 35.6548 1024.58C32.6359 1027.76 36.6365 1024.82 31.6672 1029.36C30.4622 1030.37 29.1636 1031.37 27.5625 1032.15C25.9372 1032.96 23.3647 1033.58 21.0475 1032.38C16.7643 1029.65 16.4759 1026.46 15.4464 1023.45C13.9128 1017.55 13.433 1011.81 13.0134 1006.09C12.265 994.591 12.2698 983.261 12.3788 971.565C12.4277 967.126 12.4711 962.441 12.5038 957.868C12.5323 953.842 12.3202 957.209 12.3469 951.206C12.4506 929.003 12.3578 890.866 12.7915 871.683C13.1413 856.304 13.3712 875.677 13.5195 863.903C13.59 858.193 12.9617 852.12 12.9427 850.731C12.7494 837.343 13.0317 828.065 12.9453 816.014C12.9272 813.522 12.6709 815.965 12.6583 813.845C12.6131 806.641 12.7252 799.018 12.7008 792.125C12.6892 789.028 12.4936 789.598 12.5071 786.748C12.537 779.926 12.6149 773.889 12.7927 767.247C12.8089 766.641 13.0563 770.727 13.0609 765.68C13.0676 757.503 13.238 747.361 13.0392 737.976C12.9795 735.2 12.5316 735.082 12.833 729.077C12.8958 727.821 13.4358 729.414 12.9616 722.45C12.8829 721.319 12.2391 709.505 12.6339 703.806C12.7378 702.275 13.1717 698.378 13.097 695.033C13.0852 694.58 12.8477 696.397 12.8197 693.626C12.7251 683.846 12.7327 673.574 12.639 663.512C12.6135 660.846 12.3719 664.814 12.3419 660.846C12.2586 649.736 12.2959 636.142 12.353 625.282C12.3747 621.323 12.5861 624.058 12.608 623.77C12.9641 619.181 12.4663 616.401 12.4346 614.842C12.2445 605.282 12.4623 598.011 12.3853 589.103C12.3648 586.657 12.1329 588.391 12.1111 587.905C11.8978 582.9 12.326 586.617 12.3672 583.479C12.4834 574.407 12.4494 564.68 12.409 555.513C12.394 552.237 12.1256 555.905 12.1155 552.989C12.0932 546.958 12.0812 540.758 12.0841 534.888C12.0845 523.088 12.0696 511.577 12.113 500.107C12.1256 496.918 12.3455 498.922 12.39 498.256C12.7012 493.553 12.207 486.688 12.1553 485.201C11.9177 478.112 12.0863 475.112 12.0175 468.999C11.6698 438.086 11.5848 400.26 11.5395 371.16C11.4791 333.245 11.5926 303.933 11.5221 267.816C11.5182 265.521 11.24 267.835 11.2332 265.857C11.1595 240.313 11.3087 215.19 11.359 189.635C11.3641 187.507 11.0834 190.57 11.0828 187.16C11.0803 180.122 11.1499 171.658 11.2921 164.473C11.3604 161.049 11.5501 165.641 11.6145 162.199C11.7644 154.327 11.8695 145.55 11.9249 137.475C11.9481 134.051 11.6142 139.206 11.6659 134.767C12.1719 103.617 12.1314 73.4228 15.0584 41.9411C15.1934 40.7835 15.4544 39.7861 15.742 38.6502C15.8611 38.2524 16.0975 37.0647 16.3119 36.1901C16.4226 35.7275 16.5372 35.2715 16.6618 34.8269C16.693 34.7156 16.7249 34.6051 16.7578 34.495C16.7742 34.44 16.7909 34.3851 16.8079 34.3303C16.817 34.3011 16.823 34.2817 16.8355 34.2427C16.8572 34.1749 16.8795 34.1078 16.9024 34.0412C17.0995 33.5055 17.2619 33.0229 17.7799 32.4211C18.0579 32.0067 18.344 31.7518 18.54 31.5704C18.7491 31.3909 18.8815 31.2424 19.292 31.1033C19.4042 31.09 19.5183 31.0832 19.6322 31.0831L19.9757 31.1059C40.6385 33.1763 61.7746 26.3614 81.9372 19.7899C104.461 12.7068 127.854 10.2429 151.208 7.63481C153.105 7.43874 149.82 7.48567 153.452 7.11179C174.687 4.95991 195.42 3.40642 217.233 2.501C219.4 2.41398 218.305 2.97822 224.689 2.57498C225.819 2.49808 235.4 1.97568 237.895 1.76283C238.232 1.73166 236.469 1.56775 239.564 1.42791C257.555 0.625164 276.389 0.126567 294.411 0.00127411C297.302 -0.0171359 294.231 0.28225 296.284 0.272135C310.855 0.203965 327.019 -0.0416014 340.858 0.532881C350.339 0.969591 346.895 1.31144 351.752 1.97268C352.438 2.04442 358.32 2.495 358.613 2.83325C359.312 3.54574 356.401 3.93418 357.515 4.72959C357.677 4.82327 359.533 4.98639 360.77 5.29779C360.891 5.32934 360.985 5.35847 361.056 5.38366C361.217 5.43496 361.284 5.47612 361.25 5.46487C361.221 5.45531 361.084 5.37975 360.949 5.22018C360.812 5.06471 360.717 4.84472 360.684 4.75626C360.651 4.66219 360.642 4.70564 360.694 4.88286C360.74 5.05621 360.908 5.33425 361.052 5.4645C361.424 5.73825 360.97 5.52446 360.637 5.52101C360.393 5.37141 355.019 4.94947 353.604 5.01582C352.582 5.03399 354.422 5.40429 352.299 5.38093C350.628 5.3882 348.026 5.04899 345.068 5.07416C341.857 5.1016 343.107 5.4113 336.745 5.31177ZM367.776 893.79C367.699 899.004 368.62 899.729 368.224 894.121C368.204 893.844 367.779 893.529 367.776 893.79ZM365.488 270.617C364.961 277.361 365.452 282.002 365.851 277.242C366.25 272.455 365.647 268.581 365.488 270.617ZM366.425 200.762C365.992 208.636 367.245 209.899 367.117 201.453C367.11 200.962 366.45 200.302 366.425 200.762ZM328.671 1.48426C328.77 1.4949 332.925 1.55469 332.995 1.54619C335.205 1.2874 326.92 1.16617 328.671 1.48426ZM366.863 131.433C366.679 133.857 366.83 140.963 367.065 137.9C367.255 135.421 367.093 128.4 366.863 131.433ZM205.109 1009.7C205.026 1009.7 202.061 1010.02 202.13 1010.09C202.357 1010.31 206.475 1009.78 205.109 1009.7ZM364.094 13.6557C365.724 30.8356 364.908 41.6024 363.939 22.6924C363.725 19.3469 364.774 29.9495 364.576 25.6145C364.161 17.8038 363.229 12.2531 361.92 4.52112C361.798 3.93897 362.409 5.43883 363.015 8.10468C363.566 10.3873 364.032 13.0769 364.099 13.689C364.098 13.6779 364.096 13.6668 364.094 13.6557ZM366.795 896.821C366.787 896.938 366.909 901.027 366.924 901.127C367.28 903.34 367.035 895.077 366.795 896.821ZM40.2027 1016.51C39.9905 1016.63 33.3439 1023.52 33.0875 1023.75C29.9158 1027.68 43.5197 1013.79 40.2027 1016.51ZM363.223 618.378C362.894 613.864 362.809 608.468 363.134 604.875C363.158 609.351 363.198 613.865 363.223 618.378Z" fill="#34140B"/>
</svg>
