<svg width="1450" height="485" viewBox="0 0 1450 485" fill="none" xmlns="http://www.w3.org/2000/svg">
<path d="M2.99805 29.7599C2.99805 25.8939 6.13205 22.7599 9.99805 22.7599H1436C1439.86 22.7599 1443 25.8939 1443 29.7599V471.76C1443 475.626 1439.86 478.76 1436 478.76H9.99805C6.13206 478.76 2.99805 475.626 2.99805 471.76V29.7599Z" fill="#FDC104"/>
<path d="M46.0026 9.39718C67.1846 9.04547 94.9507 9.42153 116.053 9.93771C122.666 10.0978 119.317 10.8134 123.882 10.9561C132.811 11.2344 141.129 10.8834 149.953 11.2149C152.877 11.3282 149.237 12.4617 152.303 12.5546C169.106 13.0556 185.001 12.7669 202.022 13.0078C285.861 14.1966 368.273 14.6222 453.138 15.1386C481.12 15.3079 515.136 16.3367 544.039 15.8868C547.413 15.8332 545.401 14.8383 546.043 14.7563C556.111 13.5009 552.764 15.5095 559.338 15.7764C585.429 16.8301 614.443 16.9217 639.553 16.5377C650.236 16.3714 639.525 14.3952 650.282 15.5045C651.029 15.5794 648.318 16.636 651.248 16.7487C657.891 17.0021 670.496 16.8133 675.646 16.897C685.569 17.0637 687.211 17.053 696.597 17.0651C709.428 17.0907 724.69 17.6159 738.457 17.3765C741.396 17.3223 737.505 16.2392 742.192 16.0549C746.882 15.8709 759.291 15.9627 763.475 16.218C767.659 16.4735 765.878 17.3248 766.618 17.5199C772.711 19.1669 787.065 16.8858 788.911 16.8294C822.585 15.8682 851.461 17.1676 883.07 17.1639C907.066 17.1584 932.725 16.7294 955.557 16.7882C982.76 16.8625 1005.81 17.4494 1032.24 17.3485C1035.03 17.3391 1031.76 16.0656 1035.17 16.0516C1071.36 15.9034 1107.29 16.0422 1143.33 16.9019C1146.94 16.9893 1142.28 18.1074 1145.9 18.2615C1168 19.1803 1202.98 21.3877 1216.1 16.5196C1231.08 16.7097 1249.25 16.9061 1262.65 17.8874C1271.29 18.519 1262.9 19.737 1273.51 19.2173C1275.9 19.1015 1272.79 18.0348 1276.38 17.9418C1291.49 17.5513 1307.99 17.898 1322.94 17.3469C1325.98 17.2322 1325.15 16.2764 1326.01 16.1043C1333.25 14.7104 1345.3 17.0146 1347.93 17.1821C1367.93 18.4306 1382.54 17.9393 1401.18 17.9698C1405.5 17.9774 1400.39 16.6935 1404.55 16.6547C1414.93 16.5663 1425.49 16.5458 1436 16.6118C1443.03 16.4737 1449.26 22.8302 1449.04 29.7599C1448.95 37.3978 1448.81 44.9712 1448.61 52.3936C1448.48 57.0946 1447.38 52.7715 1447.27 55.018C1446.76 64.923 1448.82 67.1189 1448.38 76.6184C1448.29 78.6212 1447.35 77.4928 1447.25 77.8585C1445.63 83.5757 1447.92 88.5436 1447.97 90.0141C1448.66 108.617 1446.27 120.507 1446.61 138.478C1446.65 140.628 1447.84 135.78 1447.89 141.823C1448.21 182.085 1447.89 224.667 1446.94 264.519C1446.8 270.715 1445.91 266.292 1445.8 266.682C1444.08 273.037 1446.38 277.149 1446.46 279.169C1447.09 295.109 1445.16 309.998 1447.9 320.827C1447.19 371.303 1447.87 421.605 1447.23 471.76C1447.32 477.754 1441.89 483.036 1436 482.831C1422.75 482.608 1409.51 482.279 1396.28 481.795C1395.43 481.767 1396.96 480.635 1395.26 480.584C1374.81 479.949 1378.74 481.707 1365.21 483.857C1361.8 484.396 1351.43 481.801 1350.52 481.61C1347.17 480.909 1350.64 479.226 1349.52 479.091C1340.26 478.024 1341.77 483.589 1329.28 483.591C1328.89 483.582 1330.53 482.558 1329.48 482.456C1326.22 482.136 1322.99 482.543 1319.8 482.19C1312.51 481.375 1309.91 478.67 1298.76 480.244C1297.35 480.448 1299.51 483.605 1288.35 483.456C1283.91 483.394 1264.22 483.448 1258.71 483.243C1253.2 483.039 1256.98 482.022 1256.59 481.978C1241.74 480.633 1247.37 480.075 1239.93 478.084C1232.5 476.1 1234.56 480.832 1231.53 481.36C1228.49 481.887 1217.6 480.777 1214.93 480.391C1212.26 480.005 1215.59 479.359 1213.21 479.14C1197.45 477.713 1206.29 481.489 1201.1 482.24C1188.86 484.018 1179.32 480.509 1168.11 480.165C1165.08 480.072 1167.55 480.871 1164.85 480.946C1154.15 481.232 1147.72 480.137 1135.55 481.141C1133.56 481.304 1123.72 483.414 1117.35 481.866C1116.45 481.643 1119.01 480.768 1114.45 480.572C1107.64 480.278 1095.37 480.087 1088.05 480.379C1082.65 480.596 1088.84 482.037 1082.04 481.589C1079.02 481.389 1084.62 480.546 1078.94 480.241C1073.29 479.936 1058.84 479.973 1053.34 480.002C1047.86 480.032 1050.86 481.125 1050.42 481.198C1047.73 481.62 1037.2 482.147 1036.27 482.146C989.33 482.279 946.042 480.437 900.339 481.047C896.752 481.093 899.141 482.246 898.594 482.265C886.315 482.748 895.996 479.683 887.419 478.657C888.658 480.996 883.595 480.573 874.946 480.829C870.778 480.955 873.048 481.86 872.668 481.953C866.487 483.329 862.183 481.552 861.074 481.188C856.981 479.851 852.526 481.431 849.741 480.538C846.957 479.651 853.364 478.336 845.069 478.352C842.743 479.19 848.901 481.378 842.603 481.732C818.841 483.074 774.485 481.357 755.379 481.179C736.312 481 730.153 481.155 719.042 480.852C698.972 480.305 706.327 481.929 693.866 482.672C681.367 483.415 687.443 479.42 685.646 478.562C683.883 477.703 681.957 478.587 679.763 478.115C677.577 477.643 682.311 477.06 677.168 476.882C672.022 476.705 657.953 478.232 656.13 479.13C652.274 481.032 658.613 483.029 644.998 482.327C644.215 482.286 646.756 481.235 643.758 481.129C619.942 480.321 595.201 480.271 571.415 479.555C568.144 479.455 571.069 478.287 569.165 478.216C549.34 477.468 556.427 479.438 545.561 481.627C548 478.714 541.992 476.933 526.945 476.915C517.9 476.904 519.457 478.176 513.607 479.073C511.852 479.343 505.452 478.469 504.292 479.068C500.468 481.023 506.496 483.212 490.983 482.34C490.302 482.299 492.469 481.229 490.118 481.164C474.916 480.739 473.097 482.785 456.664 483.033C443.784 483.227 420.876 481.98 406.21 481.777C406.519 478.502 392.666 479.252 387.047 481.51C377.529 481.417 367.249 481.545 358.049 481.233C354.883 481.127 356.963 480.179 356.564 480.076C350.442 478.469 346.304 480.666 344.25 480.752C321.983 481.589 303.842 479.924 282.592 481.551C281.837 481.61 280.616 483.884 274.935 482.223C274.567 482.109 281.586 481.074 271.59 480.994C261.592 480.914 242.745 479.695 228.865 480.748C225.506 481.002 217.01 482.849 210.191 481.406C209.283 481.21 210.277 480.558 208.966 480.195C204.727 479.038 202.412 481.337 197.43 479.384C192.448 477.431 182.084 475.968 168.086 477.316C167.641 477.355 164.327 479.177 159.925 479.148C152.898 479.101 142.922 478.721 135.585 478.733C132.072 478.739 134.32 479.871 133.71 479.892C110.089 480.526 93.2769 479.517 67.9716 479.079C63.3329 478.997 50.0019 480.54 41.0215 479.32C31.1607 477.984 41.2936 472.43 18.6281 473.753C15.9756 473.907 13.1188 474.609 9.99805 475.439C8.3759 476.475 4.45075 475.574 3.72812 471.76C2.8697 466.592 2.62102 460.804 4.07957 454.241C3.17482 422.379 5.0435 392.912 3.75163 360.961C3.69439 359.525 1.72755 354.981 1.75432 351.603C1.79787 346.588 2.71713 343.836 2.77769 340.255C3.05459 325.251 2.26809 311.52 2.39043 297.054C2.43487 291.562 3.38539 293.482 3.43852 286.931C3.49076 280.385 2.23911 276.019 2.84361 267.148C3.30438 260.448 5.86272 253.749 6.16092 244.855C3.63741 244.516 3.68938 238.408 3.02324 227.552C2.89399 225.465 2.01567 227.703 1.90923 226.715C1.45654 222.698 2.18447 218.98 1.6917 215.165C1.57335 214.237 0.711551 214.194 0.566152 213.435C-0.703004 206.984 1.23552 196.357 1.57305 194.531C2.8549 187.535 1.73403 184.266 2.23882 178.9C2.74353 173.543 3.37448 181.553 3.68077 175.295C4.31428 162.324 4.1751 145.658 4.2147 132.484C4.22518 127.228 3.07482 130.814 3.0496 130.061C2.75784 119.192 3.9815 108.201 1.69005 102.174C7.61488 94.638 1.11537 95.6198 2.30144 80.0834C2.39737 78.8595 5.19918 77.3026 5.61051 82.0012C6.02145 86.6995 5.14565 93.8241 5.78684 100.343C5.93731 101.887 8.56279 110.73 8.72183 111.936C9.96477 121.387 5.77785 122.726 5.54789 123.227C3.06617 128.897 5.89462 139.703 6.09006 142.549C6.98559 155.567 6.39677 166.627 7.03598 177.516C7.44911 184.638 10.1917 185.334 10.1077 190.926C9.83028 209.515 6.00435 216.004 9.32168 233.521C10.0292 237.278 13.0268 233.545 10.6697 247.004C10.5211 247.849 8.36481 257.842 9.72872 263.615C9.90069 264.34 10.7743 264.317 10.8477 265.273C11.3224 271.682 10.6264 275.956 10.9597 282.937C11.2931 289.918 11.79 298.312 11.4937 306.282C11.3165 311.086 9.68885 317.249 9.29037 319.548C8.14243 326.041 10.0246 333.002 8.63449 337.025C7.23741 341.081 5.11573 333.151 4.21305 343.788C6.48272 344.181 8.81232 345.086 11.0949 345.72C11.015 369.029 10.281 391.964 10.3813 415.352C10.396 418.251 11.6162 415.286 11.6634 418.394C11.8573 431.508 10.9874 442.963 11.3338 456.563C11.4607 461.461 11.8083 466.578 12.1764 471.76C12.4814 470.617 11.5908 469.043 9.99805 468.842C12.3071 468.71 14.6063 468.601 16.8833 468.534C23.6068 471.131 39.9416 470.249 51.8074 470.487C55.964 470.569 55.6862 471.262 58.6422 471.489C69.7941 472.326 64.5684 470.031 67.6255 469.669C80.7423 468.128 81.8653 473.323 97.3297 473.194C98.1491 473.189 108.164 470.42 109.543 470.248C118.308 469.123 110.994 471.212 116.479 471.416C126.494 471.79 133.452 472.451 145.203 471.64C148.629 471.4 156.848 469.674 163.501 471.009C164.376 471.184 163.893 472.099 164.597 472.153C177.349 473.046 177.684 470.17 184.972 469.196C192.26 468.223 203.517 470.208 205.808 470.78C211.801 472.26 201.216 471.413 200.891 471.558C197.078 473.287 205.288 472.989 211.561 473.135C212.469 475.955 221.242 475.786 218.064 473.275C217.703 473.001 212.821 473.264 211.561 473.135C217.068 470.368 226.709 470.014 237.358 472.599C242.343 473.811 237.63 475.224 252.772 474.707C259.644 474.474 256.989 472.532 263.053 472.003C276.908 470.795 294.912 472.606 309.196 472.321C314.38 472.217 309.33 471.154 312.873 471.047C322.275 470.759 330.567 471.556 340.01 471.148C340.866 471.109 338.775 469.997 341.712 469.982C363.973 469.853 383.357 470.566 406.6 470.586C417.83 470.595 437.907 469.981 449.541 470.104C469.704 470.312 494.508 471.93 511.732 471.536C522.967 471.285 520.502 470.172 525.316 469.414C534.604 467.944 551.047 470.577 553.261 470.984C553.328 470.998 543.661 471.26 548.819 471.831C551.819 473.022 553.152 470.99 553.261 470.984C554.714 471.248 574.026 471.5 577.86 471.288C579.944 471.171 578.778 470.117 579.865 470.076C605.687 469.133 631.555 468.865 657.745 469.358C658.206 469.379 657.511 470.559 658.595 470.594C673.757 471.118 683.466 469.676 695.971 468.819C708.474 467.963 718.389 468.25 725.79 470.274C735.224 470.019 748.759 470.914 756.547 471.457C764.335 472 765.422 469.705 766.107 469.659C787.481 468.207 799.837 469.521 822.012 469.725C832.554 469.827 853.466 469.494 864.881 469.243C873.902 469.04 879.337 469.578 887.649 469.234C888.774 469.188 887.638 468.166 887.981 468.127C897.258 466.904 892.8 469.403 894.715 469.849C901.659 471.472 905.95 472.336 917.83 471.573C920.57 471.398 928.552 467.8 933.547 467.59C940.041 467.323 937.59 468.612 944.39 468.3C944.972 468.274 944.851 467.479 949.048 467.514C968.529 467.666 989.769 468.129 1010.01 468.049C1012.78 468.042 1009.23 466.78 1013.23 466.748C1031.98 466.598 1052.53 466.645 1070.79 467.235C1075.29 467.385 1072.47 468.268 1073.45 468.531C1079.44 470.118 1087.93 467.812 1089.34 467.768C1122.78 466.659 1148.37 468.747 1182.46 467.753C1184.31 467.694 1198.59 465.222 1204.97 467.342C1205.4 467.484 1211.71 469.653 1217.28 468.17C1217.63 468.077 1213.7 466.96 1220.55 467.074C1227.41 467.187 1238.44 466.442 1247.86 467.669C1250.85 468.055 1257.9 470.22 1266.8 468.494C1267.38 468.374 1281.11 464.473 1286.02 467.164C1286.81 467.608 1285.98 470.456 1296.6 468.995C1298.63 468.712 1294.95 468.077 1300.29 467.68C1308.48 467.069 1319.34 467.832 1329.41 466.563C1331.16 466.338 1338.64 464.405 1344.63 465.872C1345.57 466.102 1343.79 467.053 1346.95 467.16C1362.01 467.67 1377.78 467.034 1393.07 467.692C1398.48 467.923 1395.71 469.46 1401.36 469.872C1407.01 470.284 1418.38 470.68 1424.29 469.978C1430.2 469.275 1423.74 466.825 1432.59 466.629C1433.73 466.604 1434.86 466.581 1436 466.559C1433.21 466.432 1430.63 468.894 1430.65 471.76C1430.36 438.155 1431.48 404.763 1431.66 371.137C1431.69 365.438 1430.82 370.163 1430.8 361.764C1430.74 330.801 1429.91 277.342 1431.78 250.475C1433.27 228.947 1434.4 256.038 1435.01 239.588C1435.3 231.65 1432.45 223.062 1432.36 221.145C1431.45 202.425 1432.71 189.415 1432.33 172.566C1432.25 169.087 1431.09 172.499 1431.04 169.538C1430.84 159.423 1431.35 148.792 1431.26 139.127C1431.21 134.791 1430.33 135.59 1430.4 131.6C1430.55 122.053 1430.92 113.611 1431.75 104.304C1431.82 103.456 1432.92 109.175 1432.96 102.112C1433.02 90.6803 1433.84 76.4904 1433 63.338C1432.74 59.4355 1430.73 59.2825 1432.12 50.894C1432.41 49.1343 1434.83 51.3794 1432.74 41.6078C1432.55 40.7251 1431.65 35.5812 1431.14 29.7599C1430.65 32.436 1433.48 35.2743 1436 34.8372C1434.81 34.7405 1433.71 34.588 1432.73 34.3668C1430.6 33.8884 1425.18 31.9084 1420.49 32.2196C1419.85 32.2692 1422.4 33.3516 1418.51 33.4572C1404.81 33.8104 1390.44 33.6949 1376.36 34.0339C1372.6 34.1266 1378.2 35.2467 1372.6 35.349C1357.19 35.6321 1337.95 35.3469 1322.88 34.9963C1317.32 34.865 1321.16 33.9372 1320.76 33.8362C1314.26 32.1939 1310.42 34.4106 1308.26 34.5399C1294.84 35.3138 1284.62 34.2726 1272.25 34.5481C1268.84 34.6213 1271.26 35.6783 1270.58 35.7725C1263.53 36.6934 1268.78 34.7952 1264.32 34.586C1251.83 33.9936 1237.9 34.0785 1225.26 34.2136C1220.62 34.2647 1225.84 35.4903 1221.67 35.522C1197.01 35.7332 1171.38 35.6159 1147.32 34.9403C1142.79 34.8109 1145.64 33.8672 1144.7 33.6516C1138.19 32.1436 1128.65 34.2006 1126.46 34.3965C1116.48 35.2911 1112.6 34.4566 1103.79 34.6124C1060.74 35.3879 1007.59 34.8352 966.949 34.4937C913.995 34.0542 872.905 33.1565 822.407 33.3896C819.198 33.4032 822.434 34.6587 819.668 34.6865C783.948 34.9892 748.783 34.4986 712.992 34.8612C710.055 34.8887 714.289 36.0789 709.575 36.1631C699.905 36.3441 687.657 36.2794 677.881 35.8994C673.112 35.7163 679.508 34.6951 674.708 34.5316C663.532 34.1487 651.552 34.064 640.073 34.2548C635.187 34.3386 642.558 35.5558 636.208 35.5698C592.954 35.6906 550.474 35.9002 506.764 34.324C503.768 34.2157 501.138 31.7418 494.767 32.2163C494.287 32.9028 494.313 33.7104 494.104 34.4443C431.137 34.8396 368.813 33.982 305.669 33.8494C303.007 33.8441 307.608 35.1548 302.454 35.1512C272.622 35.1319 243.654 35.495 213.139 34.1921C210.112 34.0647 211.665 31.7587 202.743 32.1075C201.169 32.1711 187.731 32.4787 184.257 32.9793C183.785 33.0548 186.237 34.1311 181.907 34.1625C156.743 34.3259 130.373 34.0802 105.252 33.4226C101.198 33.3144 105.516 32.1681 102.628 32.0811C82.1449 31.4727 59.8651 32.344 40.2925 31.3033C27.1912 30.6026 32.0417 28.6212 25.0799 26.6709C24.0952 26.3958 15.9825 26.3522 15.563 25.2174C14.4859 22.3641 18.4154 19.2397 16.8031 16.1982C16.4624 15.5432 5.59744 16.2487 12.0302 14.6657C12.4796 14.5597 20.3568 14.0343 22.2969 13.4973C23.6477 13.126 21.2135 11.972 23.9696 11.4967C26.7254 11.0218 29.7537 11.9892 34.3228 11.4307C38.8899 10.8654 36.8817 9.55259 46.0026 9.39718ZM791.615 473.885C798.827 474.987 799.891 470.949 792.091 471.915C791.714 471.967 791.243 473.831 791.615 473.885ZM7.23538 391.833C5.45444 401.261 8.07314 407.713 9.44857 401.062C10.8225 394.412 7.77525 388.961 7.23538 391.833ZM5.93515 294.069C4.53096 305.088 10.2567 306.822 9.09921 295.021C9.0338 294.335 6.01669 293.425 5.93515 294.069ZM57.3652 26.1156C57.2656 26.062 51.4339 26.0097 51.2946 26.0628C48.1893 27.3452 59.8503 27.4488 57.3652 26.1156ZM4.51957 197.055C3.74504 200.494 4.63914 210.398 5.60227 206.124C6.37708 202.684 5.48304 192.771 4.51957 197.055ZM1167.81 478.194C1167.92 478.254 1172.1 478.309 1172.02 477.968C1171.73 476.873 1165.91 477.182 1167.81 478.194ZM4.45365 32.1673C4.23813 56.5286 -0.491599 71.2992 0.0421057 44.7699C0.138668 39.9658 1.55038 55.1241 1.97679 49.0093C2.4836 41.7099 1.39584 36.0105 1.02022 29.7599C0.633315 25.4906 4.62261 20.6546 9.74023 21.1409C10.7765 21.3083 8.53476 21.4693 6.53817 23.1605C4.44149 24.7949 3.61168 27.9796 4.11732 29.7599C4.33052 30.9776 4.46381 31.8952 4.46024 32.2106C4.45805 32.1962 4.45585 32.1817 4.45365 32.1673ZM795.768 478.735C795.913 478.788 801.7 478.839 801.839 478.786C804.973 477.504 793.314 477.401 795.768 478.735ZM1411.77 480.691C1412.09 480.805 1425.52 480.911 1425.96 480.806C1432.97 478.71 1405.81 478.489 1411.77 480.691ZM405.98 481.689C399.664 482.979 392.11 483.131 387.076 481.511C393.352 481.597 399.669 481.61 405.98 481.689Z" fill="#FDC104"/>
<path d="M1376.47 12.9648C1356.61 10.7109 1328.99 9.09083 1309.19 8.167C1302.62 7.86397 1305.96 7.83954 1301.36 7.63029C1293.14 7.25955 1285.17 7.08201 1276.4 6.76759C1273.48 6.66342 1277.13 6.50953 1274.06 6.40675C1258.42 5.87981 1242.05 5.64123 1226.28 5.38057C1144.98 4.11265 1065.57 4.79596 983.75 5.94608C956.563 6.33782 923.793 6.72371 895.954 7.41276C892.698 7.49332 894.644 7.67344 894.025 7.70473C884.308 8.19045 887.531 7.67553 881.173 7.75395C855.954 8.06788 827.959 8.71201 803.711 9.4107C793.402 9.70913 803.749 9.88507 793.364 9.90375C792.643 9.90559 795.252 9.60376 792.425 9.65128C786.021 9.75872 773.846 10.1199 768.861 10.2345C759.269 10.4534 757.684 10.4987 748.634 10.7428C736.322 11.0733 721.464 11.3728 708.205 11.8073C705.373 11.9008 709.128 12.0335 704.615 12.2045C700.085 12.3755 688.215 12.7016 684.095 12.767C680.03 12.8302 681.755 12.5901 681.035 12.568C675.102 12.3766 661.27 13.2994 659.504 13.366C627.039 14.5633 599.063 15.1617 568.634 16.1585C545.338 16.9228 520.931 17.8405 498.582 18.5974C472.627 19.4756 450.533 20.1244 424.536 21.0812C421.855 21.1797 425.003 21.3496 421.736 21.4703C386.672 22.766 352.362 24.0065 317.588 25.1189C313.909 25.2373 318.632 24.8117 314.969 24.9147C308.461 25.0991 301.178 25.2887 294.184 25.4888C275.943 26.0246 256.379 26.6825 247.424 27.748C232.97 28.1934 215.429 28.6968 202.49 28.846C194.167 28.9406 202.238 28.4452 192.004 28.8429C189.7 28.931 192.709 29.087 189.245 29.2009C174.65 29.68 158.73 29.9792 144.294 30.38C141.366 30.4617 142.172 30.6584 141.345 30.7124C134.343 31.1579 122.706 30.8275 120.168 30.823C100.829 30.8105 86.7666 31.0297 68.743 31.0016C64.5627 30.9907 69.5131 31.2881 65.4752 31.2859C57.7 31.2767 49.8252 31.2206 41.9429 31.1L41.9631 31.1002C35.9722 31.0072 31.9991 37.3729 29.6473 43.0751C27.1875 49.0874 25.7711 55.2443 24.5861 61.5366C23.7965 65.9594 24.2525 61.8335 23.8689 63.9654C22.3187 73.3547 22.6 75.5321 21.7084 84.6331C21.538 86.5436 21.4154 85.4511 21.3653 85.7988C20.5802 91.3583 20.8627 96.0495 20.8013 97.5172C20.1555 115.432 19.6285 126.898 19.916 144.25C19.9583 146.325 20.145 141.64 20.2523 147.475C20.7904 181.041 23.344 216.191 24.178 250.012C24.1567 255.281 24.1942 260.596 24.2365 265.841C24.2885 271.753 24.0303 267.532 24.0111 267.9C23.7205 274.063 24.2996 277.99 24.3515 279.963C24.7534 295.341 24.5814 309.762 25.3416 320.181C25.7278 360.893 26.4474 401.535 24.2091 442.003C23.8219 447.932 24.767 454.127 28.6651 458.447C32.4979 462.776 38.4642 464.766 44.2782 465.796C56.0862 467.735 68.3836 466.86 80.3978 465.995C81.2167 465.93 79.7694 466.309 81.4072 466.177C101.19 464.411 97.1937 464.312 110.207 462.388C113.382 461.902 123.466 461.343 124.328 461.295C127.568 461.095 124.264 461.835 125.348 461.746C134.276 461.02 132.738 459.909 144.698 458.74C145.075 458.706 143.514 459.084 144.527 459.01C147.696 458.779 150.777 458.41 153.844 458.227C160.947 457.825 163.425 458.197 174.154 457.197C175.507 457.089 173.395 456.44 184.174 455.981C188.464 455.732 207.516 455.353 212.844 455.549C218.205 455.664 214.52 455.842 214.902 455.856C229.194 456.461 223.835 456.492 230.946 457.221C238.074 458.033 236.159 456.895 239.104 456.96C242.025 457.001 252.532 458.152 255.061 458.538C257.611 458.895 254.404 458.697 256.674 458.99C261.415 459.609 263.853 459.922 265.107 460.009C267.583 460.162 264.942 459.407 268.15 459.674C280.355 460.621 289.129 461.834 299.833 462.417C302.836 462.568 300.379 462.286 303.087 462.382C313.096 462.715 320.113 463.152 331.259 463.152C333.004 463.155 343.163 462.854 348.875 463.253C349.733 463.312 347.285 463.481 351.631 463.569C358.206 463.705 370.154 463.811 377.122 463.753C382.378 463.712 376.327 463.386 382.993 463.49C385.978 463.535 380.437 463.722 386.06 463.789C391.549 463.86 405.213 463.808 410.768 463.767C416.215 463.73 413.191 463.504 413.654 463.485C416.141 463.379 426.205 463.191 427.131 463.182C472.511 462.783 514.394 462.518 558.517 461.655C561.994 461.587 559.672 461.37 560.203 461.357C571.92 461.053 562.678 461.889 570.905 461.979C569.71 461.479 574.552 461.492 582.951 461.292C587.002 461.195 584.792 461.032 585.162 461.005C591.203 460.596 595.332 460.921 596.387 460.983C600.305 461.214 604.582 460.789 607.272 460.942C609.963 461.093 603.779 461.491 611.793 461.35C614.041 461.126 608.072 460.742 614.168 460.559C637.17 459.865 679.874 459.533 698.438 459.288C716.744 459.043 722.803 458.921 733.523 458.833C752.836 458.681 745.757 458.42 757.8 458.092C769.908 457.767 764.035 458.733 765.778 458.9C767.495 459.069 769.331 458.849 771.446 458.927C773.552 459.005 768.997 459.192 773.948 459.169C778.898 459.145 792.483 458.644 794.25 458.426C797.973 457.961 791.843 457.585 805.009 457.595C805.763 457.597 803.318 457.856 806.206 457.849C829.164 457.781 853.085 457.585 876.057 457.609C879.215 457.613 876.393 457.889 878.231 457.894C897.376 457.958 890.531 457.558 901.02 457.027C898.67 457.685 904.459 458.05 918.999 458.02C927.741 458.006 926.234 457.727 931.884 457.521C933.579 457.459 939.755 457.65 940.873 457.518C944.566 457.085 938.733 456.591 953.72 456.799C954.379 456.809 952.281 457.044 954.557 457.062C969.262 457.183 971.02 456.731 986.846 456.75C999.39 456.764 1021.32 457.211 1035.61 457.427C1035.31 458.149 1048.69 458.144 1054.08 457.723C1063.23 457.872 1073.28 458.009 1082.11 458.244C1085.16 458.325 1083.15 458.498 1083.54 458.528C1089.43 458.997 1093.35 458.591 1095.38 458.615C1117.02 458.889 1134.45 459.725 1154.95 460.037C1155.67 460.048 1156.86 459.58 1162.28 460.137C1162.65 460.176 1155.84 460.167 1165.53 460.525C1175.4 460.888 1193.14 461.859 1206.82 462.272C1210.08 462.366 1218.3 462.351 1224.76 463.011C1225.63 463.1 1224.67 463.195 1225.91 463.341C1226.41 463.399 1226.88 463.444 1227.33 463.479L1227.32 463.479C1230.54 463.559 1232.74 463.204 1236.98 463.547C1241.77 463.936 1251.84 464.146 1265.33 463.499C1265.79 463.478 1268.94 462.994 1273.19 462.873C1279.97 462.684 1289.6 462.421 1296.68 462.108C1300.08 461.958 1297.9 461.802 1298.48 461.771C1321.25 460.57 1337.48 459.868 1361.82 457.638C1366.27 457.235 1379.05 455.501 1387.63 454.507C1390.91 454.135 1391.89 454.187 1392.69 454.29C1394.29 454.354 1395.19 455.221 1409.16 451.674C1413.52 450.431 1418.31 448.6 1423.31 445.453C1428.34 442.407 1433.46 436.703 1433.22 428.475C1430.71 409.53 1422.14 392.751 1422.72 374.149C1422.72 362.842 1422.12 351.38 1421.28 339.659C1421.18 338.241 1420.46 333.936 1420.23 330.666C1419.9 325.841 1419.91 323.186 1419.66 319.717C1418.61 305.282 1417.29 292.075 1416.11 278.155C1415.66 272.878 1416.03 274.691 1415.5 268.4C1414.96 262.081 1414.32 257.943 1413.74 249.381C1413.3 242.909 1413.33 236.415 1412.77 227.852C1412.2 227.612 1411.72 221.641 1410.99 211.25C1410.86 209.217 1410.78 211.421 1410.7 210.45C1410.4 206.537 1410.41 203.022 1410.22 199.288C1410.17 198.425 1409.98 198.372 1409.94 197.616C1409.89 196.766 1409.85 195.871 1409.84 194.977C1409.74 188.863 1411.26 180.923 1411.51 179.463C1412.74 172.827 1413.05 169.631 1414.02 164.565C1415.02 159.467 1413.82 167.169 1414.94 161.162C1417.24 148.904 1420.18 133.035 1422.22 120.468C1423.03 115.464 1422.23 118.837 1422.34 118.12C1423.96 107.752 1425.62 97.2388 1425.74 91.414C1427.76 84.287 1426.5 85.1339 1427.53 70.1695C1427.59 68.9796 1428.28 67.4883 1428.18 72.0596C1428.08 76.5674 1427.37 83.5075 1426.83 89.7447C1426.73 91.2588 1426.28 99.8077 1426.15 100.967C1425.19 110.082 1424.02 111.206 1423.91 111.68C1422.56 117.025 1421.45 127.4 1421.02 130.134C1419.06 142.578 1416.97 153.01 1415.3 163.43C1414.24 170.184 1414.73 170.912 1413.89 176.294C1412.69 184.177 1411.85 189.802 1411.69 194.977C1411.55 201.44 1411.75 207.668 1412.72 216.9C1413.12 220.493 1413.5 216.857 1413.92 229.849C1413.94 230.692 1414.21 240.309 1414.98 245.842C1415.07 246.537 1415.26 246.498 1415.36 247.421C1415.98 253.565 1416.18 257.708 1416.83 264.407C1417.48 271.118 1418.3 279.188 1418.89 286.862C1419.25 291.485 1419.4 297.454 1419.49 299.669C1419.76 305.952 1420.72 312.594 1420.71 316.515C1420.71 320.443 1419.65 312.833 1420.23 323.104C1420.76 323.445 1421.34 324.276 1421.9 324.844C1423.07 341.301 1424.09 357.699 1424.12 374.149C1424.1 380.009 1424.74 385.889 1425.88 391.712C1426.42 394.412 1426.11 391.589 1426.74 394.484C1429.15 406.761 1434.52 416.654 1434.81 430.829C1434.78 443.384 1420.94 449.62 1411.17 452.328C1407.35 453.086 1400.38 454.581 1392.91 455.71C1387.73 456.512 1382.27 457.269 1377.55 457.824C1373.57 458.289 1373.82 458.099 1370.95 458.373C1360.19 459.347 1365.3 459.299 1362.36 459.685C1349.73 461.232 1348.56 460.181 1333.65 461.289C1332.87 461.355 1323.25 462.594 1321.91 462.703C1313.47 463.446 1320.51 462.575 1315.2 462.828C1305.53 463.27 1298.8 463.442 1287.47 464.058C1284.15 464.24 1276.23 464.9 1269.79 464.781C1268.94 464.766 1269.4 464.549 1268.72 464.556C1256.45 464.68 1256.07 465.305 1249.05 465.652C1242.06 465.997 1231.1 465.64 1228.89 465.506C1228.01 465.459 1227.54 465.421 1227.32 465.393L1227.23 465.391C1227 465.35 1227.03 465.333 1227.23 465.331L1227.32 465.333C1228.19 465.275 1233.51 465.339 1233.65 465.312C1236.55 464.986 1232.19 465.008 1227.32 464.997L1227.25 464.995C1225.96 464.924 1224.62 464.851 1223.36 464.779C1222.54 464.106 1214.14 463.723 1217.15 464.433C1217.5 464.51 1222.17 464.688 1223.36 464.779C1218.09 465.121 1208.85 464.739 1198.48 463.705C1193.63 463.227 1198.21 463.094 1183.7 462.612C1177.08 462.401 1179.62 462.932 1173.76 462.826C1160.13 462.577 1143.18 461.626 1129.16 461.307C1124.17 461.194 1129.01 461.562 1125.62 461.494C1116.62 461.318 1108.63 460.947 1099.46 460.837C1098.63 460.827 1100.65 461.119 1097.8 461.06C1076.4 460.633 1057.58 460.172 1035.2 459.909C1024.27 459.777 1005.02 459.749 993.733 459.66C974.274 459.494 950.288 459.09 933.695 459.194C922.849 459.261 925.227 459.508 920.577 459.684C911.589 460.025 895.74 459.502 893.596 459.423C893.531 459.419 902.862 459.323 897.882 459.216C894.986 458.964 893.701 459.421 893.596 459.423C892.192 459.367 873.548 459.409 869.842 459.484C867.829 459.523 868.957 459.75 867.907 459.766C842.98 460.138 818.014 460.433 792.713 460.615C792.267 460.616 792.935 460.346 791.887 460.35C777.215 460.405 767.951 460.845 755.804 461.197C743.696 461.55 734.234 461.623 727.035 461.278C717.872 461.468 704.815 461.469 697.351 461.466C689.839 461.463 688.751 461.991 688.096 462.011C667.423 462.665 655.5 462.572 634.115 462.888C624.132 463.034 603.578 463.46 592.797 463.7C584.001 463.895 578.709 463.865 570.719 464.076C569.638 464.105 570.734 464.313 570.404 464.328C561.513 464.749 565.783 464.122 563.947 464.053C557.404 463.802 552.969 463.685 541.554 464.04C538.892 464.122 531.329 465.043 526.5 465.166C520.139 465.325 522.525 465.001 515.917 465.172C515.355 465.186 515.467 465.362 511.416 465.415C492.857 465.661 472.358 465.843 452.526 466.075C449.865 466.106 453.274 466.35 449.439 466.398C431.48 466.622 411.462 466.764 393.861 466.669C389.605 466.644 392.273 466.443 391.35 466.386C385.728 466.045 377.14 466.548 375.876 466.553C343.497 466.645 318.961 466.13 285.855 464.43C284.947 464.377 281.081 464.261 277.077 464.006C272.626 463.724 267.521 463.204 264.766 462.631C264.594 462.598 264.427 462.564 264.266 462.53C263.853 462.442 257.866 461.196 252.548 461.012C252.204 461.003 255.96 461.607 249.381 460.955C242.821 460.311 232.278 459.768 223.218 459.228C220.369 459.051 213.564 458.378 205.05 458.807C204.465 458.802 191.329 459.878 186.563 459.509C185.778 459.455 186.626 458.722 176.374 459.576C174.431 459.748 177.964 459.685 172.854 460.071C164.979 460.671 154.573 461.31 144.931 462.519C143.261 462.724 136.108 463.86 130.372 464.154C129.47 464.2 131.169 463.803 128.122 464.11C113.645 465.556 98.5542 467.596 83.8073 468.835C78.4937 469.26 81.2215 468.69 75.741 469.029C70.2935 469.39 59.1833 469.79 53.3612 469.584C47.668 469.345 53.8225 470.529 45.1343 469.57C38.6931 468.614 31.619 466.788 26.4179 461.476C21.1516 456.127 20.0305 448.329 20.4835 441.778C21.9212 417.592 22.1968 393.209 22.1988 368.788C22.1881 363.284 22.0139 367.848 21.9705 359.745C21.8742 329.837 20.4843 278.371 20.7341 252.266C20.7443 251.412 20.7564 250.668 20.7695 250.012C20.7496 233.926 21.5487 257.106 21.2623 241.856C21.0418 234.22 19.9743 226.135 19.858 224.129C18.7408 206.196 18.364 193.542 17.6504 177.273C17.5048 173.889 17.3728 177.221 17.2535 174.334C16.8508 164.591 16.6778 154.285 16.514 144.929C16.4432 140.732 16.2573 141.507 16.2347 137.645C16.1925 128.377 16.3097 120.247 16.7057 111.19C16.7427 110.372 16.8512 115.897 17.0293 109.085C17.3483 97.9807 18.1924 84.3243 19.5922 71.5041C20.0483 67.7015 19.5015 67.4882 21.2388 59.4778C21.6691 57.8822 21.548 59.9464 23.3784 50.5544C23.7802 49.4196 26.7343 31.6949 37.4426 27.98C38.3856 27.6603 39.9946 27.2782 41.9631 27.377L41.9976 27.3773C44.3469 27.5566 47.4139 27.7404 50.1195 27.726C50.7324 27.7209 48.2789 27.4565 52.0247 27.4696C65.2569 27.5146 79.1114 27.5351 92.6785 27.3687C96.315 27.3226 90.8946 27.1129 96.3179 27.0501C111.155 26.8774 129.757 26.6654 144.274 26.4575C149.637 26.3815 145.934 26.6604 146.324 26.6752C152.61 26.9156 156.311 26.3408 158.387 26.2668C171.323 25.8084 181.19 25.7902 193.12 25.4043C196.412 25.2976 194.071 25.127 194.726 25.088C201.531 24.6941 196.474 25.2572 200.772 25.1826C212.829 24.9729 226.268 24.5405 238.458 24.111C242.942 23.9525 237.896 23.8459 241.916 23.7064C259.103 23.1044 276.791 22.4785 294.049 21.893C300.225 21.685 306.707 21.4738 313.393 21.2647C317.962 21.1223 315.097 21.4395 316.053 21.4516C322.447 21.5473 331.168 20.7637 333.414 20.6364C343.203 20.072 347.125 20.1117 355.343 19.772C396.884 18.0551 448.163 16.328 487.545 15.042C538.782 13.367 578.273 12.2603 627.029 10.6824C630.133 10.5826 626.993 10.4013 629.67 10.3117C664.259 9.16817 698.054 8.27421 732.727 7.22589C735.573 7.14047 731.475 6.98998 736.024 6.8447C745.318 6.54591 757.134 6.23826 766.588 6.07082C771.2 5.98868 765.021 6.38019 769.664 6.29301C780.498 6.0902 792.021 5.80998 803.111 5.48749C807.827 5.34995 800.704 5.25882 806.835 5.10137C848.622 4.02621 889.627 3.05119 931.872 2.59293C934.771 2.56178 937.327 3.06261 943.468 2.84366C943.928 2.68259 943.9 2.50361 944.098 2.33685C1004.91 1.13593 1065.16 0.513427 1126.04 0.337235C1128.56 0.3305 1124.2 0.0525343 1129.08 0.03862C1158.35 -0.0369496 1186 -0.0607054 1215.57 0.54416C1218.52 0.606149 1217.04 1.09654 1225.64 1.12751C1227.28 1.13041 1239.64 1.24274 1243.35 1.20103C1243.81 1.19257 1241.39 0.910402 1245.68 0.979153C1270.32 1.39076 1294.81 2.08929 1319.86 3.41866C1323.68 3.62712 1319.6 3.68453 1322.32 3.83612C1342.4 4.98022 1363.42 6.11405 1382.61 8.81476C1385.69 9.2575 1387.55 9.59407 1388.83 9.85877C1390.4 10.1696 1391.3 10.4039 1391.95 10.605C1393.24 11.0128 1393.83 11.3129 1397.06 12.1585C1397.51 12.2781 1399.59 12.7134 1401.38 13.1792C1403.61 13.7362 1405.89 14.4721 1405.99 14.6411C1406.87 15.5509 1402.81 15.1134 1404.23 16.2161C1404.4 16.3314 1407.08 17.1088 1408.5 17.6963C1409.92 18.2834 1410.66 18.6432 1408.3 17.8838C1408.12 17.8311 1406.54 17.2669 1404.3 16.6892C1403.23 16.4078 1401.83 16.081 1400.88 15.8886C1400.07 15.7248 1399.35 15.5958 1398.93 15.5358C1397.76 15.3695 1399.8 16.0633 1397.39 15.6661C1395.02 15.287 1391.86 14.4823 1387.37 13.9382C1383.31 13.4904 1385.36 14.0044 1376.47 12.9648ZM663.48 461.472C656.557 461.341 655.523 462.256 663.031 461.917C663.393 461.899 663.837 461.478 663.48 461.472ZM1423.36 369.417C1423.32 371.146 1423.29 372.765 1423.27 374.149C1423.28 380.358 1424.12 383.443 1424 378.263C1424 376.821 1423.98 375.421 1423.97 374.149C1423.91 369.956 1423.41 367.296 1423.36 369.417ZM1416.65 275.217C1417.26 285.846 1418.67 287.404 1417.43 276.07C1417.35 275.412 1416.61 274.598 1416.65 275.217ZM1365.99 8.13808C1366.11 8.15578 1371.41 8.69094 1371.5 8.69495C1374.35 8.69121 1363.77 7.61793 1365.99 8.13808ZM1411.84 181.95C1411.13 185.309 1410.71 194.635 1411.19 190.663C1411.51 187.278 1412.58 177.957 1411.84 181.95ZM300.112 462.868C299.984 462.851 295.936 462.651 296.028 462.728C296.253 462.988 301.957 463.176 300.112 462.868ZM1420.34 25.0146C1426.63 35.3063 1426.61 45.2586 1426.9 48.4595C1426.78 51.7983 1427.16 48.7818 1424.27 36.5061C1423.62 34.2481 1424.46 36.6659 1425.06 38.8494C1425.68 41.091 1426.17 43.2994 1425.64 40.3333C1423.35 30.0053 1420.06 22.4434 1410.5 17.2312C1409.58 16.8302 1412.36 17.6299 1415.01 19.5552C1417.74 21.4317 1420.03 24.4943 1420.37 25.0487C1420.36 25.0373 1420.35 25.026 1420.34 25.0146ZM659.475 460.46C659.332 460.45 653.699 460.533 653.566 460.547C650.521 460.882 661.867 460.716 659.475 460.46ZM65.5202 467.207C65.326 467.309 52.2201 467.268 51.8904 467.094C48.6189 467.078 53.2765 467.656 58.3173 467.674C63.3653 467.715 68.3726 467.324 65.5202 467.207ZM1035.83 457.449C1041.94 457.232 1049.22 457.293 1054.05 457.722C1048.02 457.617 1041.93 457.536 1035.83 457.449Z" fill="#34140B"/>
</svg>
