<svg width="756" height="669" viewBox="0 0 756 669" fill="none" xmlns="http://www.w3.org/2000/svg">
<path d="M4.06934 34.5659H748.069V657.566H4.06934V34.5659Z" fill="#FDC104"/>
<path d="M30.1108 21.2032C45.4314 20.8515 65.5142 21.2276 80.7769 21.7437C85.5602 21.9038 83.1381 22.6194 86.44 22.7622C92.898 23.0404 98.9145 22.6894 105.296 23.0209C107.411 23.1342 104.779 24.2678 106.996 24.3607C119.149 24.8616 130.646 24.5729 142.957 24.8139C203.596 26.0027 263.204 26.4282 324.585 26.9446C344.824 27.114 369.427 28.1427 390.332 27.6928C392.772 27.6393 391.318 26.6443 391.782 26.5623C399.064 25.3069 396.643 27.3155 401.398 27.5824C420.269 28.6361 441.255 28.7277 459.416 28.3438C467.143 28.1775 459.396 26.2013 467.176 27.3105C467.716 27.3854 465.756 28.442 467.875 28.5547C472.68 28.8081 481.797 28.6193 485.521 28.703C492.699 28.8697 493.886 28.8591 500.675 28.8711C509.956 28.8967 520.994 29.422 530.952 29.1826C533.077 29.1283 530.263 28.0452 533.653 27.8609C537.046 27.6769 546.021 27.7687 549.047 28.0241C552.073 28.2795 550.785 29.1308 551.32 29.3259C555.727 30.9729 566.109 28.6918 567.444 28.6354C591.8 27.6743 612.686 28.9737 635.548 28.97C652.904 28.9644 671.462 28.5354 687.977 28.5942C707.652 28.6685 724.327 29.2554 743.44 29.1545C745.457 29.1451 743.094 27.8717 745.557 27.8576C746.395 27.8529 747.232 27.8484 748.069 27.8443L754.724 27.7786L754.791 34.5659C754.916 59.8927 754.76 85.0564 753.927 110.285C753.84 112.899 752.722 109.53 752.568 112.141C751.649 128.129 749.442 153.427 754.31 162.922C754.12 173.752 753.923 186.9 752.942 196.588C752.31 202.835 751.092 196.768 751.612 204.442C751.728 206.172 752.794 203.922 752.887 206.517C753.278 217.445 752.931 229.383 753.482 240.194C753.597 242.392 754.553 241.792 754.725 242.415C756.119 247.651 753.815 256.368 753.647 258.268C752.399 272.737 752.89 283.304 752.859 296.784C752.852 299.912 754.136 296.214 754.174 299.224C754.359 314.835 754.248 331.006 753.678 346.292C753.549 349.692 752.455 346.565 752.337 348.19C751.83 355.354 753.896 356.943 753.449 363.813C753.358 365.262 752.422 364.446 752.319 364.71C750.705 368.846 752.992 372.439 753.042 373.502C753.732 386.957 751.345 395.557 751.683 408.556C751.726 410.111 752.91 406.604 752.958 410.975C753.285 440.096 752.96 470.894 752.012 499.719C751.867 504.201 750.977 501.001 750.867 501.283C749.153 505.88 751.45 508.854 751.536 510.315C752.159 521.844 750.233 532.613 752.968 540.446C752.206 579.622 753.045 618.655 752.14 657.566L752.18 661.596L748.069 661.637C738.487 661.414 728.912 661.085 719.345 660.601C718.729 660.573 719.832 659.441 718.604 659.39C703.815 658.755 706.655 660.513 696.869 662.663C694.404 663.202 686.905 660.607 686.242 660.416C683.824 659.715 686.332 658.032 685.522 657.897C678.824 656.83 679.915 662.395 670.879 662.397C670.596 662.388 671.783 661.364 671.025 661.262C668.669 660.942 666.333 661.349 664.027 660.996C658.75 660.181 656.871 657.476 648.811 659.05C647.79 659.255 649.348 662.411 641.281 662.262C638.064 662.2 623.828 662.254 619.838 662.049C615.853 661.845 618.589 660.828 618.305 660.784C607.567 659.439 611.638 658.881 606.259 656.89C600.879 654.906 602.371 659.638 600.178 660.166C597.982 660.693 590.109 659.583 588.174 659.197C586.241 658.811 588.652 658.165 586.933 657.946C575.532 656.519 581.929 660.295 578.172 661.046C569.316 662.824 562.418 659.315 554.31 658.971C552.116 658.878 553.906 659.678 551.953 659.752C544.216 660.038 539.562 658.943 530.76 659.947C529.32 660.11 522.204 662.22 517.598 660.672C516.946 660.449 518.8 659.574 515.502 659.378C510.576 659.084 501.701 658.893 496.406 659.185C492.496 659.402 496.977 660.843 492.057 660.395C489.87 660.195 493.923 659.352 489.814 659.047C485.728 658.742 475.278 658.779 471.302 658.808C467.333 658.838 469.506 659.931 469.185 660.004C467.244 660.426 459.627 660.953 458.954 660.952C425.002 661.085 393.693 659.243 360.636 659.853C358.042 659.899 359.77 661.052 359.374 661.071C350.493 661.554 357.495 658.489 351.291 657.463C352.188 659.802 348.525 659.379 342.27 659.635C339.255 659.761 340.897 660.666 340.622 660.759C336.151 662.135 333.038 660.358 332.236 659.995C329.276 658.657 326.054 660.237 324.039 659.344C322.025 658.457 326.659 657.142 320.66 657.158C318.977 657.996 323.432 660.184 318.876 660.538C301.69 661.88 269.608 660.163 255.789 659.985C241.998 659.806 237.543 659.961 229.507 659.658C214.991 659.111 220.311 660.735 211.297 661.478C202.257 662.221 206.652 658.226 205.352 657.368C204.077 656.509 202.684 657.393 201.097 656.921C199.516 656.449 202.94 655.866 199.22 655.688C195.498 655.511 185.323 657.038 184.003 657.936C181.214 659.838 185.8 661.835 175.952 661.133C175.386 661.092 177.223 660.041 175.055 659.935C157.83 659.127 139.935 659.077 122.731 658.361C120.365 658.261 122.48 657.093 121.104 657.022C106.764 656.274 111.89 658.244 104.031 660.433C105.795 657.52 101.449 655.739 90.5663 655.721C84.0243 655.71 85.1505 656.982 80.9191 657.879C79.6496 658.149 75.0205 657.275 74.1818 657.874C71.4156 659.829 75.776 662.018 64.5554 661.146C64.0632 661.105 65.6306 660.035 63.9296 659.97C52.9343 659.545 51.6188 661.591 39.7334 661.839C30.6567 662.028 14.6943 660.849 4.06934 660.6L1.06504 660.63L1.03478 657.566C1.04132 657.286 1.04721 657.01 1.05242 656.738C4.32684 656.961 3.57704 646.941 1.31939 642.877C1.41182 635.993 1.28419 628.557 1.59624 621.903C1.70263 619.613 2.65066 621.118 2.7531 620.829C4.36 616.401 2.16355 613.408 2.07744 611.922C1.24039 595.817 2.90511 582.696 1.27819 567.326C1.21959 566.781 -1.05492 565.897 0.605828 561.788C0.720306 561.522 1.75517 566.599 1.83519 559.369C1.9154 552.137 3.13471 538.505 2.08074 528.466C1.827 526.037 -0.0194411 519.892 1.42321 514.96C1.61911 514.303 2.27144 515.022 2.63445 514.074C3.79111 511.008 1.49215 509.334 3.44524 505.73C5.39824 502.127 6.8609 494.631 5.51341 484.506C5.47423 484.184 3.65208 481.787 3.68089 478.603C3.72845 473.521 4.10804 466.305 4.09617 460.998C4.08983 458.457 2.95836 460.084 2.93767 459.643C2.30364 442.558 3.31233 430.398 3.75011 412.095C3.83259 408.74 2.28967 399.098 3.50951 392.602C4.84485 385.47 10.3997 392.799 9.07626 376.406C8.54693 369.793 1.49965 361.422 5.15086 349.539C4.24611 326.494 6.11479 305.181 4.82292 282.072C4.76568 281.032 2.79884 277.746 2.82561 275.303C2.86916 271.676 3.78842 269.685 3.84898 267.095C4.12588 256.243 3.33938 246.312 3.46171 235.849C3.50616 231.876 4.45668 233.265 4.50981 228.527C4.56205 223.792 3.3104 220.635 3.9149 214.218C4.37567 209.372 6.93401 204.527 7.23221 198.094C4.7087 197.849 4.76067 193.431 4.09453 185.579C3.96528 184.069 3.08696 185.688 2.98052 184.974C2.52783 182.068 3.25576 179.379 2.76299 176.62C2.64464 175.949 1.78284 175.917 1.63744 175.368C0.368285 170.703 2.30681 163.016 2.64433 161.695C3.92618 156.636 2.80532 154.271 3.3101 150.39C3.81482 146.515 4.44577 152.309 4.75206 147.783C5.38557 138.401 5.24639 126.346 5.28599 116.818C5.29647 113.016 4.1461 115.61 4.12089 115.066C3.82913 107.204 5.05279 99.2542 2.76134 94.8951C8.68617 89.4445 2.18666 90.1544 3.37273 78.9173C3.46866 78.0322 6.27046 76.9059 6.6818 80.3044C7.09274 83.7026 6.21694 88.8556 6.85813 93.5706C7.0086 94.6871 9.63408 101.083 9.79312 101.956C11.0361 108.792 6.84914 109.76 6.61918 110.122C4.13746 114.223 6.96591 122.039 7.16135 124.097C8.05687 133.513 7.46806 141.513 8.10727 149.389C8.5204 154.54 11.263 155.043 11.179 159.088C10.9016 172.533 7.07564 177.227 10.393 189.897C11.1005 192.613 14.0981 189.913 11.741 199.648C11.5924 200.26 9.4361 207.487 10.8 211.663C10.972 212.187 11.8456 212.171 11.919 212.862C12.3937 217.497 11.6977 220.589 12.031 225.638C12.3643 230.687 12.8613 236.758 12.565 242.523C12.3878 245.997 10.7601 250.455 10.3617 252.118C9.21372 256.814 11.0959 261.85 9.70577 264.759C8.3087 267.693 6.18702 261.957 5.28434 269.65C7.55401 269.935 9.8836 270.59 12.1662 271.048C12.0862 287.907 11.3523 304.496 11.4526 321.411C11.4673 323.508 12.6875 321.364 12.7347 323.612C12.9285 333.097 12.0587 341.382 12.4051 351.219C12.6779 358.833 13.9698 367.182 14.2953 375.144C11.6982 380.007 12.5798 391.821 12.3425 400.404C12.2605 403.41 11.5668 403.209 11.3405 405.347C10.5036 413.413 12.7987 409.634 13.1599 411.845C14.7013 421.332 9.50656 422.144 9.63491 433.329C9.63996 433.922 12.409 441.165 12.5814 442.163C13.7059 448.502 11.6176 443.212 11.413 447.18C11.0392 454.423 10.3779 459.456 11.1889 467.955C11.4292 470.433 13.1551 476.377 11.8201 481.19C11.6453 481.823 10.73 481.473 10.6764 481.982C9.78293 491.206 12.6588 491.449 13.6328 496.719C14.6066 501.991 12.6213 510.133 12.0492 511.79C10.569 516.125 11.4166 508.468 11.2713 508.233C9.54269 505.476 9.8403 511.414 9.69424 515.951C6.87439 516.608 7.04365 522.953 9.55416 520.655C9.82838 520.393 9.56541 516.862 9.69424 515.951C12.4609 519.934 12.8152 526.907 10.2298 534.609C9.01808 538.215 7.60525 534.806 8.1221 545.758C8.35542 550.729 10.297 548.808 10.8264 553.194C12.0341 563.215 10.2229 576.237 10.5083 586.568C10.6119 590.318 11.6748 586.665 11.7822 589.228C12.0706 596.029 11.2732 602.026 11.6817 608.856C11.72 609.475 12.8326 607.963 12.8468 610.087C12.976 626.188 12.2634 640.208 12.2436 657.019C12.2434 657.198 12.2435 657.381 12.2439 657.566L4.06934 649.391C12.2828 649.374 26.3525 648.79 34.5813 648.91C49.1647 649.118 67.1051 650.736 79.5633 650.343C87.6889 650.091 85.9061 648.978 89.3878 648.22C96.1063 646.75 107.999 649.383 109.6 649.79C109.649 649.804 102.657 650.066 106.388 650.638C108.557 651.828 109.521 649.796 109.6 649.79C110.652 650.054 124.619 650.306 127.393 650.094C128.9 649.977 128.057 648.923 128.842 648.882C147.519 647.939 166.229 647.671 185.171 648.164C185.505 648.185 185.003 649.365 185.787 649.4C196.753 649.924 203.775 648.482 212.82 647.625C221.863 646.769 229.035 647.056 234.388 649.08C241.211 648.825 251 649.72 256.634 650.263C262.267 650.806 263.053 648.511 263.548 648.466C279.008 647.013 287.945 648.327 303.983 648.531C311.608 648.633 326.734 648.3 334.99 648.049C341.515 647.846 345.446 648.384 351.458 648.04C352.271 647.994 351.45 646.972 351.698 646.933C358.408 645.71 355.183 648.209 356.568 648.655C361.591 650.278 364.694 651.142 373.287 650.379C375.269 650.204 381.042 646.606 384.655 646.396C389.352 646.129 387.579 647.418 392.498 647.106C392.918 647.08 392.831 646.285 395.866 646.32C409.957 646.472 425.319 646.935 439.962 646.855C441.962 646.848 439.398 645.586 442.288 645.554C455.848 645.404 470.711 645.451 483.922 646.041C487.173 646.191 485.135 647.074 485.841 647.337C490.174 648.924 496.32 646.618 497.334 646.574C521.522 645.465 540.034 647.553 564.687 646.559C566.029 646.5 576.359 644.028 580.967 646.148C581.283 646.29 585.842 648.459 589.874 646.976C590.125 646.883 587.283 645.766 592.242 645.88C597.2 645.993 605.179 645.248 611.995 646.475C614.153 646.861 619.252 649.026 625.689 647.3C626.108 647.18 636.044 643.279 639.591 645.971C640.166 646.414 639.564 649.262 647.246 647.801C648.714 647.518 646.049 646.883 649.916 646.486C655.84 645.875 663.69 646.638 670.973 645.369C672.243 645.144 677.65 643.211 681.987 644.679C682.666 644.908 681.375 645.859 683.666 645.966C694.557 646.476 705.961 645.84 717.019 646.498C720.936 646.729 718.933 648.266 723.016 648.678C727.1 649.09 735.326 649.486 739.599 648.784C743.872 648.081 739.204 645.631 745.606 645.435C746.427 645.41 747.248 645.387 748.069 645.365L735.869 657.566C735.171 630.569 736.53 603.805 736.734 576.834C736.766 572.712 735.889 576.129 735.872 570.055C735.807 547.659 734.985 508.994 736.848 489.561C738.34 473.99 739.476 493.585 740.083 481.686C740.373 475.945 737.524 469.733 737.435 468.347C736.524 454.807 737.786 445.397 737.398 433.211C737.318 430.694 736.164 433.162 736.108 431.02C735.908 423.705 736.423 416.016 736.329 409.025C736.284 405.889 735.402 406.466 735.47 403.581C735.623 396.676 735.994 390.569 736.82 383.838C736.895 383.224 737.992 387.361 738.033 382.253C738.096 373.984 738.911 363.721 738.069 354.208C737.816 351.385 735.801 351.275 737.192 345.207C737.483 343.935 739.903 345.558 737.812 338.491C737.465 337.302 734.645 325.43 736.462 319.603C736.941 318.066 738.921 314.143 738.61 310.749C738.56 310.288 737.478 312.132 737.372 309.32C737.019 299.407 737.134 289.018 736.795 278.835C736.703 276.115 735.583 280.166 735.48 276.113C735.197 264.967 735.482 251.051 735.833 240.152C735.964 236.134 736.892 238.911 736.993 238.619C738.635 233.917 736.419 231.137 736.289 229.577C735.515 219.871 736.557 212.48 736.281 203.534C736.208 201.065 735.151 202.816 735.057 202.324C734.136 197.228 736.034 201.024 736.243 197.798C736.836 188.76 736.751 178.685 736.616 169.545C736.565 166.188 735.339 169.961 735.307 166.948C735.096 149.115 735.213 130.577 735.889 113.174C736.018 109.897 736.962 111.959 737.178 111.276C738.686 106.569 736.629 99.6702 736.433 98.0826C735.538 90.865 736.373 88.0616 736.217 81.6876C735.852 67.0309 735.781 50.7548 735.844 34.5659L748.069 46.7912C729.866 46.7204 711.773 46.4805 696.216 46.2997C657.915 45.8603 628.195 44.9625 591.672 45.1956C589.35 45.2093 591.691 46.4647 589.69 46.4926C563.855 46.7952 538.42 46.3046 512.533 46.6672C510.409 46.6948 513.471 47.8849 510.062 47.9691C503.068 48.1502 494.209 48.0855 487.138 47.7054C483.689 47.5223 488.315 46.5011 484.843 46.3377C476.76 45.9548 468.095 45.87 459.792 46.0608C456.258 46.1446 461.589 47.3618 456.997 47.3759C425.712 47.4966 394.987 47.7063 363.372 46.13C361.205 46.0218 359.303 43.5479 354.695 44.0223C354.348 44.7089 354.366 45.5165 354.215 46.2503C308.672 46.6456 263.594 45.788 217.924 45.6554C215.998 45.6501 219.326 46.9609 215.598 46.9573C194.021 46.9379 173.069 47.301 150.998 45.9982C148.808 45.8708 149.932 43.5648 143.478 43.9135C142.34 43.9772 132.621 44.2847 130.108 44.7853C129.767 44.8608 131.54 45.9371 128.408 45.9685C110.207 46.132 91.1343 45.8862 72.9653 45.2286C70.0329 45.1204 73.1557 43.9742 71.0671 43.8872C56.252 43.2787 40.1374 44.15 25.9808 43.1093C16.5049 42.4086 20.0131 40.4273 14.9778 38.477C14.2656 38.2018 8.3978 38.1582 8.09436 37.0235C7.31534 34.1701 10.1575 31.0457 8.99129 28.0043C8.7449 27.3492 0.88645 28.0548 5.53916 26.4717C5.8642 26.3657 11.5616 25.8403 12.9649 25.3033C13.9419 24.932 12.1813 23.778 14.1747 23.3027C16.1679 22.8278 18.3583 23.7952 21.663 23.2368C24.9663 22.6714 23.5138 21.3586 30.1108 21.2032ZM281.998 652.691C287.214 653.793 287.984 649.755 282.342 650.722C282.069 650.773 281.729 652.637 281.998 652.691ZM8.30667 304.401C6.52573 311.22 9.14442 315.886 10.5199 311.076C11.8938 306.266 8.84654 302.323 8.30667 304.401ZM7.00644 233.69C5.60225 241.659 11.328 242.914 10.1705 234.378C10.1051 233.882 7.08798 233.224 7.00644 233.69ZM38.3292 37.9216C38.2572 37.868 34.0392 37.8157 33.9384 37.8689C31.6924 39.1513 40.1267 39.2549 38.3292 37.9216ZM5.59086 163.521C4.81633 166.008 5.71043 173.172 6.67356 170.081C7.44837 167.592 6.55433 160.422 5.59086 163.521ZM554.091 657C554.173 657.06 557.197 657.115 557.136 656.774C556.931 655.679 552.723 655.988 554.091 657ZM5.52494 44.2604C5.30942 61.8805 0.57969 72.5639 1.11339 53.3757C1.20996 49.901 2.62167 60.8646 3.04808 56.4419C3.82493 48.3494 0.855244 42.9758 2.44658 34.7175C2.73785 33.2225 5.54774 43.2553 5.53153 44.2917C5.52934 44.2811 5.52714 44.2708 5.52494 44.2604ZM285.002 657.541C285.106 657.594 289.292 657.645 289.392 657.592C291.659 656.31 283.226 656.207 285.002 657.541ZM730.546 659.497C730.777 659.611 740.492 659.717 740.808 659.612C745.876 657.516 726.236 657.295 730.546 659.497ZM1.13976 656.571C-0.149818 652.003 -0.301652 646.539 1.31774 642.898C1.23177 647.437 1.21911 652.006 1.13976 656.571Z" fill="#FDC104"/>
<path d="M713.935 14.3543C699.666 10.6468 680.037 8.48329 664.953 7.31533C660.381 6.96512 662.724 6.96473 659.547 6.73068C653.328 6.2853 647.108 6.0736 641.049 5.78116C638.983 5.68267 641.568 5.52142 639.396 5.42519C627.18 4.90241 616.048 4.81211 603.985 4.73476C544.271 4.49253 485.502 7.52547 425.119 11.4477C405.246 12.7537 380.943 14.3386 360.49 16.0844C358.074 16.2902 359.533 16.395 359.075 16.45C351.9 17.3089 354.257 16.671 349.573 16.9939C331.124 18.2679 310.266 20.0537 292.626 21.7325C284.943 22.4645 292.668 22.2051 284.949 22.6591C284.415 22.6911 286.326 22.2811 284.235 22.4466C279.464 22.8241 270.729 23.674 266.924 24.0117C259.821 24.6391 258.664 24.7509 252.122 25.3692C242.739 26.2555 232.275 27.1499 222.277 28.186C220.203 28.4021 222.967 28.3719 219.674 28.7373C216.507 29.0893 207.479 29.9649 204.538 30.2026C201.58 30.4412 202.822 30.127 202.296 30.136C198.197 30.1772 187.661 31.7503 186.479 31.8835C175.216 33.1274 164.043 34.2608 154.014 35.2471C142.639 36.3664 131.482 37.3633 119.797 38.3764C102.74 39.8588 84.4757 41.2661 68.1839 41.9777C51.7848 42.6772 37.4525 42.875 22.0234 42.2748L22.0716 42.2758C21.9347 42.2767 21.808 42.3035 21.6366 42.3904C21.5517 42.4342 21.4574 42.4943 21.355 42.5754C21.3038 42.6158 21.2505 42.6617 21.1959 42.7125C21.1582 42.7477 21.1197 42.7854 21.0806 42.8258C20.7667 43.1481 20.4134 43.6448 20.0599 44.3107C19.475 45.4223 19.0183 46.6506 18.5569 48.1644C18.0643 49.8716 18.9097 47.8941 18.3206 50.079C13.141 75.0367 13.0443 100.97 11.9708 126.629C11.8894 129.225 11.7194 125.91 11.6254 128.45C11.0243 144.183 10.3732 169.121 11.4597 178.496C11.3987 189.151 11.4049 202.13 11.2565 211.689C11.162 217.849 10.8441 211.876 11.0216 219.428C11.0622 221.131 11.2796 218.907 11.3231 221.471C11.5068 232.286 11.5723 243.967 11.8499 254.698C11.9067 256.861 12.1106 256.265 12.1578 256.877C12.5409 261.952 12.1691 270.695 12.1621 272.481C12.122 286.799 12.4272 297.241 12.6679 310.501C12.7247 313.63 12.9411 309.937 13.0056 312.929C13.2945 327.1 13.6086 341.769 13.5525 355.632C13.5437 356.777 13.5352 357.968 13.5269 359.2C13.5039 362.636 13.2554 359.53 13.2321 361.1C13.1365 368.148 13.6042 369.788 13.536 376.474C13.5228 377.928 13.3107 377.111 13.2892 377.376C12.9505 381.409 13.4793 385.039 13.4962 386.053C13.7253 399.265 13.2518 407.785 13.4077 420.594C13.4269 422.13 13.6683 418.659 13.7063 422.987C13.9614 451.716 14.0608 482.07 13.9117 510.501C13.8887 514.922 13.6843 511.767 13.6605 512.045C13.289 516.579 13.8032 519.51 13.8243 520.949C13.9779 532.313 13.5433 542.958 14.1357 550.656C13.9605 577.058 13.8636 603.521 13.2791 629.723C13.2435 640.392 12.9999 651.927 18.9649 660.463C25.6632 669.07 38.4815 665.2 48.34 662.674C48.9095 662.516 47.9598 663.053 49.0991 662.734C63.102 658.653 60.2345 658.979 69.3963 655.8C71.7249 654.969 79.0606 653.668 79.6968 653.594C82.0575 653.202 79.7305 654.129 80.5158 653.977C87.0325 652.803 85.6922 651.674 94.6008 650.375C94.8814 650.341 93.7335 650.72 94.4883 650.644C96.8015 650.414 99.1106 650.09 101.403 650.009C106.635 649.909 108.507 650.314 116.46 650.502C117.454 650.598 116.044 649.512 123.97 650.714C126.221 651.045 133.581 652.599 139.032 654.634C141.086 655.372 143.193 655.927 144.421 656.237C148.072 657.118 145.51 656.765 145.773 656.837C156.18 659.141 151.997 658.4 157.281 659.587C162.739 660.638 161.12 659.381 163.303 659.473C165.462 659.577 173.192 660.318 175.079 660.469C177 660.644 174.588 660.677 176.304 660.804C187.587 661.547 181.228 660.461 184.937 660.41C193.842 660.226 200.618 661.004 208.454 661.021C210.612 661.022 208.845 660.861 210.776 660.825C218.667 660.666 222.882 660.825 231.718 660.372C233.093 660.301 240.036 659.632 244.716 659.815C245.348 659.844 243.56 660.099 246.751 660.034C251.468 659.94 260.472 659.64 265.533 659.366C269.37 659.16 264.945 659.023 269.802 658.921C271.971 658.874 267.96 659.23 272.039 659.127C276.228 659.02 286.26 658.568 290.297 658.377C294.259 658.191 292.08 658.047 292.399 658.016C294.273 657.837 301.729 657.377 302.407 657.345C335.989 655.755 366.657 654.683 399.308 653.381C401.876 653.279 400.157 653.084 400.548 653.066C409.273 652.655 402.412 653.573 408.523 653.594C407.624 653.105 411.227 653.075 417.408 652.828C420.387 652.709 418.758 652.557 419.029 652.528C423.424 652.09 426.497 652.401 427.29 652.46C430.215 652.676 433.384 652.243 435.378 652.393C437.371 652.541 432.803 652.944 438.727 652.798C440.382 652.573 435.978 652.189 440.466 652.006C457.397 651.264 489.059 651.349 502.688 651.532C516.277 651.667 520.695 651.732 528.608 651.962C542.881 652.435 537.703 651.948 546.58 652.071C555.471 652.233 551.113 652.965 552.383 653.203C553.615 653.443 555.022 653.304 556.584 653.477C558.144 653.65 554.753 653.631 558.428 653.832C562.126 654.025 572.071 654.214 573.419 654.103C576.201 653.85 571.711 653.113 581.416 653.888C581.972 653.934 580.149 654.047 582.28 654.212C599.223 655.523 616.777 657.157 633.62 659.54C635.927 659.868 633.828 659.851 635.168 660.046C638 660.461 640.032 660.76 641.552 660.968L641.574 660.97C647.651 660.866 645.708 660.544 651.859 659.93C650.143 660.621 654.44 660.984 665.167 660.153C671.594 659.609 670.469 659.409 674.594 658.782C675.846 658.596 680.387 658.249 681.191 658.003C683.842 657.187 679.533 657.398 690.466 655.922C690.946 655.853 689.461 656.336 691.116 656.08C701.784 654.285 703 653.677 714.227 650.568C717.879 649.493 722.716 647.985 727.625 645.946C734.549 643.217 741.061 638.264 743.932 632.996C744.741 633.75 748.41 624.383 747.975 620.318C748.841 613.632 748.401 606.311 747.948 599.806C747.782 597.547 748.117 599.011 748.116 598.725C748.093 594.355 747.288 591.479 747.116 589.998C745.234 574.275 744.159 561.327 743.205 546.192C743.175 545.64 742.618 544.806 742.885 540.732C742.907 540.47 743.246 545.493 743.11 538.327C743.089 536.8 743.085 534.962 743.105 532.893C743.182 525.556 743.204 515.623 742.896 507.892C742.802 505.431 742.287 499.43 742.508 494.577C742.538 493.931 742.698 494.635 742.759 493.701C742.954 490.672 742.407 489.001 742.761 485.47C743.114 481.881 743.266 474.49 742.699 464.521C742.682 464.187 742.215 461.865 742.135 458.725C742.007 453.681 741.887 446.578 741.73 441.367C741.655 438.862 741.451 440.473 741.434 440.038C740.791 423.192 740.635 411.209 740.159 393.164C740.073 389.872 739.427 380.363 739.496 373.955C739.572 366.929 741.029 374.092 740.233 357.946C739.916 351.458 738.094 343.225 738.575 331.494C737.902 312.831 737.659 295.214 737.549 277.043C737.536 273.271 737.617 269.164 737.718 265.083C737.738 264.146 737.439 260.736 737.558 258.396C737.732 254.929 738.053 252.761 738.198 250.338C738.849 239.661 739.314 229.848 740.016 219.535C740.28 215.667 740.4 217.055 740.721 212.373C741.043 207.68 740.969 204.595 741.517 198.28C741.93 193.532 742.808 188.793 743.273 182.455C742.729 182.158 743.017 177.853 743.333 170.087C743.393 168.604 743.103 170.181 743.121 169.479C743.191 166.62 743.506 163.98 743.551 161.254C743.562 160.591 743.373 160.548 743.371 160.007C743.351 155.401 744.176 147.855 744.314 146.555C744.849 141.587 744.708 139.251 744.992 135.424C745.272 131.614 745.162 137.323 745.424 132.872C745.969 123.606 746.337 111.791 746.506 102.351C746.571 98.6441 746.273 101.169 746.276 100.638C746.343 92.8145 746.601 85.0221 746.033 80.7291C747.25 75.3 745.913 76.0155 745.724 65.0006C745.701 64.0954 746.276 62.9759 746.521 66.3317C746.758 69.592 746.721 74.7798 746.926 79.3955C746.985 80.5509 747.612 86.7872 747.64 87.6719C747.91 94.5156 746.945 95.35 746.896 95.7332C746.311 99.8301 746.783 107.462 746.768 109.551C746.732 118.797 746.296 126.742 746.101 134.485C745.966 139.568 746.548 140.104 746.337 144.081C745.608 157.338 744.487 161.906 744.474 174.432C744.465 177.123 745.301 174.485 744.176 184.053C744.105 184.667 743.176 191.713 743.208 195.872C743.212 196.391 743.407 196.387 743.379 197.067C743.19 201.569 742.827 204.722 742.578 209.621C742.32 214.65 742.038 220.592 741.604 226.263C741.348 229.599 740.7 234.103 740.515 235.662C739.967 240.334 740.101 245.155 739.625 248.119C739.156 250.975 738.988 245.38 738.384 252.823C738.872 253.141 739.354 253.833 739.837 254.319C739.448 261.857 739.055 269.587 739.003 277.043C738.964 285.805 739.078 294.758 739.277 303.727C739.325 305.813 739.55 303.665 739.61 305.918C739.86 315.258 739.882 323.4 740.233 333.098C740.507 340.631 741.039 348.809 741.354 356.67C740.924 361.498 741.484 373.105 741.701 381.587C741.777 384.54 741.617 384.349 741.633 386.458C741.701 394.432 742.092 390.673 742.241 392.851C742.881 402.199 741.753 403.028 742.128 414.053C742.148 414.635 742.985 421.76 743.053 422.741C743.495 428.978 742.871 423.78 742.946 427.691C743.081 434.842 743.083 439.802 743.506 448.177C743.63 450.622 744.18 456.472 744.012 461.22C743.99 461.843 743.778 461.505 743.779 462.005C743.826 471.136 744.466 471.298 744.813 476.531C745.159 481.677 744.897 489.718 744.804 491.398C744.566 495.716 744.593 488.064 744.555 487.885C744.11 485.178 744.309 491.053 744.365 495.509C743.752 496.12 743.909 502.459 744.424 500.159C744.481 499.904 744.354 496.374 744.365 495.509C745.058 499.413 745.27 506.343 744.794 513.911C744.565 517.53 744.231 514.054 744.435 524.922C744.514 529.782 744.938 527.997 745.064 532.242C745.07 532.458 745.075 532.675 745.081 532.893C745.281 542.669 745.515 555.074 746.456 564.976C746.798 568.619 746.718 565.027 746.968 567.553C747.637 574.202 748.108 580.084 748.92 586.779C748.994 587.387 749.081 585.878 749.307 587.959C750.453 603.556 754.212 618.409 745.933 634.5C743.133 639.747 735.904 645.635 728.72 648.508C725.526 649.888 722.467 650.989 719.943 651.81C706.056 656.396 688.354 658.873 676.114 660.3C668.103 661.212 669.894 661.239 666.463 661.719C659.849 662.659 648.01 662.578 646.44 662.481C646.375 662.497 653.315 662.189 649.614 662.197C647.479 662.007 646.499 662.477 646.44 662.481C646.07 662.468 644.07 662.503 641.574 662.489L641.335 662.472C636.903 661.793 630.589 660.961 628.818 660.777C627.333 660.618 628.133 660.954 627.359 660.867C609.149 658.85 590.766 657.381 572.136 656.204C571.806 656.181 572.317 655.947 571.543 655.896C560.863 655.184 553.814 655.214 544.976 655.096C536.055 654.983 529.016 654.764 523.754 654.214C517.007 654.137 507.405 653.834 501.842 653.688C496.282 653.54 495.508 654.056 495.021 654.063C479.812 654.378 470.995 654.165 455.195 654.378C447.682 654.475 432.777 654.893 424.654 655.189C418.257 655.418 414.336 655.421 408.429 655.693C407.629 655.73 408.445 655.93 408.201 655.947C401.613 656.441 404.766 655.78 403.401 655.727C398.464 655.539 395.344 655.455 386.912 655.948C384.976 656.061 379.316 657.085 375.745 657.278C371.117 657.528 372.849 657.169 368.021 657.441C367.61 657.465 367.7 657.637 364.729 657.756C350.782 658.318 335.718 658.91 321.266 659.602C319.291 659.696 321.835 659.858 318.984 659.998C305.753 660.65 290.924 661.334 277.996 661.764C274.837 661.867 276.808 661.586 276.12 661.557C271.744 661.394 265.722 662.154 264.738 662.203C240.875 663.379 222.792 663.598 198.215 663.808C196.895 663.832 186.622 664.279 182.117 663.643C181.868 663.605 177.286 662.983 173.265 663.098C173.026 663.103 175.773 663.507 170.947 663.213C166.059 662.909 157.898 662.434 151.415 661.121C149.106 660.636 144.152 659.49 137.925 657.748C137.922 657.747 137.919 657.746 137.916 657.745C137.495 657.507 128.186 655.609 124.981 654.569C124.455 654.426 125.129 653.657 117.759 653.13C116.343 653.065 118.881 653.414 115.174 653.204C109.504 652.906 101.926 652.923 94.9946 654.14C93.7642 654.332 88.6896 655.523 84.5361 656.093C83.8815 656.181 85.0752 655.703 82.8801 656.158C72.4986 658.314 61.9853 661.994 51.4016 665.041C47.7048 666.07 49.4437 665.231 45.5264 666.203C41.5543 667.219 33.4032 668.848 28.7209 668.419C26.4101 668.251 26.5088 668.35 26.2936 668.493C26.1011 668.549 25.4925 668.906 22.0461 667.459C14.5581 663.944 12.0147 656.067 10.7614 649.587C9.53834 642.881 9.41747 636.416 9.57185 629.641C9.9464 615.391 10.2209 600.889 10.3603 586.521C10.398 582.474 10.1795 585.851 10.2171 579.834C10.369 557.761 10.1715 519.656 10.5159 500.496C10.798 485.14 11.1138 504.455 11.2095 492.73C11.2542 487.056 10.5953 480.966 10.5693 479.58C10.3084 466.232 10.5384 456.964 10.3827 444.938C10.3504 442.474 10.1081 444.899 10.0833 442.791C9.99591 435.523 10.0637 428.024 9.99873 421.078C9.96914 417.984 9.77705 418.592 9.77401 415.734C9.76429 408.868 9.80876 402.949 9.95133 396.237C9.96438 395.634 10.2329 399.702 10.2114 394.681C10.1762 386.514 10.298 376.379 10.0781 367.031C10.0134 364.259 9.56156 364.151 9.86193 358.12C9.90786 357.224 10.201 357.766 10.1851 355.632C10.1789 354.872 10.1262 353.729 9.98298 351.686C9.91096 350.505 9.13475 338.808 9.43385 333.103C9.51593 331.651 9.88425 327.534 9.75722 324.358C9.73797 323.906 9.53044 325.722 9.45674 322.96C9.19874 313.14 9.02866 302.919 8.77143 292.878C8.70246 290.205 8.5257 294.201 8.43079 290.2C8.16889 279.199 8.00255 265.436 7.92764 254.714C7.90022 250.747 8.14551 253.486 8.1638 253.197C8.46267 248.53 7.93475 245.788 7.88623 244.266C7.59156 234.692 7.7443 227.409 7.60726 218.564C7.57074 216.133 7.35022 217.859 7.32526 217.375C7.08072 212.353 7.53181 216.093 7.55433 212.91C7.62021 203.975 7.55775 194.054 7.52443 185.018C7.51236 181.709 7.24034 185.427 7.23344 182.459C7.19124 164.854 7.35962 146.546 7.89702 129.369C7.99902 126.183 8.16267 128.193 8.22591 127.531C8.66961 122.764 8.41434 116.081 8.42642 114.484C8.47509 107.192 8.763 104.666 9.03145 98.2238C9.42999 89.0608 10.0026 79.0844 11.0518 68.9447C11.5637 64.094 12.2076 58.8622 13.216 53.6404C13.3385 53.0127 13.4516 52.4581 13.5913 51.8105C13.7453 51.0974 13.9033 50.4113 14.0658 49.7523C14.4152 48.3611 14.6513 47.4698 15.1717 45.9049C15.4126 45.1944 15.6637 44.5296 15.9294 43.9084C16.0622 43.5977 16.1988 43.298 16.34 43.0087C16.4706 42.7377 16.7277 42.2452 16.9396 41.894C17.3863 41.1471 17.8822 40.4751 18.5003 39.8898C19.342 39.0741 20.6469 38.3587 22.0716 38.3746L22.1798 38.3768C35.452 38.9226 48.3969 38.7357 59.917 38.3707C94.3804 37.1363 121.775 34.7554 153.634 31.5464C156.359 31.2663 159.254 30.9668 162.333 30.647C164.682 30.4033 162.276 30.3693 164.316 30.1541C189.678 27.4864 214.538 25.0916 239.992 22.5579C242.072 22.3513 239.042 22.3773 242.389 22.0365C249.394 21.3222 257.914 20.5281 264.929 19.957C268.352 19.6779 263.784 20.3327 267.233 20.047C275.331 19.377 283.552 18.6405 291.898 17.8451C295.387 17.512 290.142 17.7127 294.61 17.3075C325.322 14.5226 355.539 11.938 386.666 9.93589C388.794 9.79959 390.7 10.2066 395.223 9.76591C395.554 9.58852 395.522 9.41091 395.659 9.23727C440.478 5.85034 484.898 3.27802 529.953 1.59358C531.864 1.52322 528.551 1.35507 532.249 1.21856C553.357 0.450764 574.333 -0.159615 596.036 0.0371249C598.213 0.0597308 597.128 0.565666 603.481 0.489682C604.593 0.468676 614.101 0.449579 616.686 0.378869C617.026 0.366432 615.263 0.105037 618.383 0.136835C636.172 0.334884 655.278 1.03939 673.195 2.72596C676.072 3.00202 672.989 2.98601 675.029 3.18676C689.693 4.67581 705.446 6.45068 719.109 10.755C728.396 14.0051 724.336 13.0995 729.154 15.6905C729.893 15.9989 734.712 18.9516 734.863 19.5691C735.101 20.5394 732.366 19.3654 732.927 20.6179C733 20.7463 734.564 21.9321 735.349 22.8086C736.137 23.6871 736.52 24.1891 735.107 22.9154C735.133 22.7131 730.635 19.4798 729.53 19.1854C728.708 18.8345 730.005 19.8166 728.342 19.0564C726.648 18.3041 724.66 17.1798 721.847 16.3022C718.915 15.4446 719.813 15.9376 713.935 14.3543ZM476.842 653.181C471.703 652.978 470.954 653.883 476.507 653.621C476.776 653.607 477.107 653.191 476.842 653.181ZM738.294 287.012C737.979 293.685 738.655 298.262 738.879 293.594C739.104 288.739 738.392 284.96 738.294 287.012ZM740.94 217.486C740.113 225.319 741.301 226.662 741.598 218.202C741.615 217.719 740.988 217.033 740.94 217.486ZM706.798 8.89285C706.901 8.91217 711.163 9.85208 711.234 9.87143C713.566 10.0913 705.056 8.20095 706.798 8.89285ZM744.877 148.388C744.582 150.836 744.397 157.894 744.776 154.863C745.084 152.424 745.247 145.343 744.877 148.388ZM208.673 661.457C208.587 661.445 205.64 661.454 205.705 661.529C205.894 661.773 210.015 661.671 208.673 661.457ZM741.684 31.038C745.88 48.0569 744.944 58.7143 742.76 40.0223C742.233 36.6502 744.25 47.3093 743.668 42.9274C742.47 35.1528 741.222 29.5764 737.096 22.9753C736.675 22.4465 738.131 23.7252 739.371 25.9208C739.947 26.8887 740.547 28.1553 740.958 29.1405C741.344 30.049 741.62 30.8211 741.695 31.0674C741.691 31.0576 741.688 31.0478 741.684 31.038ZM473.875 652.128C473.772 652.116 469.646 652.146 469.547 652.16C467.316 652.468 475.627 652.406 473.875 652.128ZM37.6945 665.498C37.6136 665.496 35.1383 665.936 32.775 666.055C30.2954 666.221 27.9214 665.91 27.7696 665.886C25.3375 665.651 28.7927 666.681 32.4761 666.448C36.1299 666.285 39.8127 665.332 37.6945 665.498ZM744.029 632.867C746.028 628.93 747.205 623.815 747.972 620.338C747.401 624.703 746.235 629.065 744.029 632.867Z" fill="#34140B"/>
</svg>
