<svg width="104" height="104" viewBox="0 0 104 104" fill="none" xmlns="http://www.w3.org/2000/svg">
<path d="M30.5619 53.2611C31.6073 53.1457 32.7525 53.0745 33.9414 53.0354C32.2772 53.1115 31.2093 53.7379 30.84 54.0113C30.4221 54.3266 30.4652 54.3986 30.5761 54.3339C30.8404 54.1898 31.453 53.553 31.9908 52.907C32.4901 52.2965 32.7565 52.8894 33.1259 52.4508C33.8733 51.5276 34.1565 50.3661 34.9176 49.2979C35.1741 48.9385 35.7144 49.7775 35.9649 49.393C37.3363 47.2589 38.0623 44.8575 39.1845 42.3936C40.4351 39.6469 41.6193 36.7997 42.831 33.8945C43.4409 32.4381 44.0591 30.9475 44.7716 29.3694C45.1199 28.6086 45.5092 27.7581 46.0425 26.7825C46.1635 26.5632 46.3529 26.2275 46.5325 25.941C46.6296 25.7855 46.7085 25.6633 46.8429 25.4648C46.9828 25.259 47.1371 25.0448 47.3199 24.8152C47.6503 24.453 48.1749 23.5981 49.879 22.6849C50.9023 22.0859 53.3702 21.5836 55.2685 22.3849C56.9914 23.0485 57.9573 24.1747 58.4892 24.9619C59.3809 26.3942 60.2996 27.8991 61.1421 29.8932C61.561 30.9276 62.0055 32.1129 62.1962 33.812C62.434 35.4765 61.9755 37.9331 61.1786 39.3576C59.5282 42.1799 59.4161 41.9734 59.2416 42.4335C59.0751 42.7919 58.9461 43.565 59.0043 44.6222C58.9316 43.7585 58.5645 42.9654 58.3042 42.583C58.0422 42.1807 57.7811 41.9372 57.6662 41.841C57.3987 41.6234 57.3901 41.6662 57.4746 41.7177C57.6546 41.8411 58.1542 42.0715 58.7085 42.2733C62.1494 43.5178 67.6634 45.098 72.3197 45.4167C72.8753 45.4544 72.6499 44.6787 72.7631 44.6332C74.5185 43.9392 73.7914 45.3394 74.8259 45.684C76.2896 46.1663 77.6345 46.5043 79.5533 47.0185C79.7631 47.0801 80.114 47.1741 80.4906 47.3068C80.6293 47.3618 81.0124 47.4716 81.5845 47.7899C81.7329 47.8742 81.9017 47.9777 82.1008 48.1241C82.2053 48.2154 83.0706 48.7688 83.6299 50.0142C83.9166 50.6437 84.1006 51.5306 83.9981 52.3919C83.9509 52.8203 83.8421 53.2301 83.6991 53.5879C83.6277 53.767 83.5482 53.9336 83.4647 54.0869C83.3706 54.2567 83.3504 54.2852 83.2921 54.3776C82.8755 55.015 82.4567 55.3663 82.1301 55.6103C81.4836 56.0747 81.0319 56.2152 80.8069 56.2994C80.6487 56.3531 80.5113 56.3923 80.3841 56.4253C80.1341 56.49 79.9039 56.5344 79.7136 56.5665C79.4453 56.6091 79.1846 56.6416 78.9072 56.6721C78.4364 56.7213 78.0162 56.7543 77.5765 56.7888C77.2024 56.817 76.7962 56.8474 76.3544 56.8805C75.2749 56.9622 73.9823 57.2243 72.8602 57.5402C71.2852 57.9922 73.1797 59.0841 71.44 58.6268C71.3162 58.5982 71.5463 57.7424 71.0894 57.7618C70.0299 57.8078 68.1636 58.4444 67.3712 58.607C65.8011 58.9244 65.5882 58.998 64.1353 59.4342C62.1774 60.019 59.7174 60.4272 57.6713 61.3326C57.2373 61.5274 58.0941 62.0766 57.428 62.4557C56.7617 62.8331 54.8533 63.4499 54.1548 63.5073C53.4556 63.5631 53.5069 62.8724 53.3445 62.7782C51.9846 61.9776 50.3972 64.3858 50.1345 64.533C45.2817 67.1585 40.6062 68.0304 35.837 70.0675C34.7151 70.5489 33.5271 71.0991 32.411 71.6405C32.2397 71.7222 32.0969 71.792 31.9855 71.8481C31.9424 71.8705 31.8126 71.932 31.7733 71.9532C31.761 71.9596 31.7508 71.965 31.7436 71.9692C31.74 71.9712 31.7371 71.9729 31.7351 71.9743C31.7341 71.9749 31.7334 71.9755 31.7329 71.9759C31.731 71.9768 31.7288 71.9783 31.7769 71.9551C31.8113 71.9372 31.8169 71.9395 32.0096 71.832C32.0658 71.7992 32.1322 71.7634 32.2934 71.6549C32.3774 71.5966 32.4826 71.5268 32.6816 71.3568C32.8786 71.1336 33.2026 71.0692 33.8216 69.7869C33.8962 69.6093 33.9702 69.401 34.0314 69.1524C34.0697 69.0054 34.1372 68.6541 34.1491 68.3411C34.1649 68.015 34.1437 67.645 34.062 67.2593C34.0417 67.1633 34.0177 67.0666 33.9901 66.9699C33.9901 66.9699 33.9901 66.9699 33.9901 66.9699C33.9901 66.9699 33.9901 66.9699 33.9901 66.9699C34.0021 67.0106 33.9564 66.8558 33.9684 66.8965C33.9684 66.8965 33.9684 66.8965 33.9684 66.8965C33.9684 66.8965 33.9684 66.8965 33.9684 66.8965C33.9684 66.8965 33.9684 66.8965 33.9684 66.8965C33.9684 66.8965 33.9684 66.8965 33.9684 66.8965C33.9684 66.8965 33.9684 66.8965 33.9684 66.8965C33.9684 66.8965 33.9684 66.8965 33.9684 66.8965C33.9684 66.8965 33.9684 66.8965 33.9684 66.8965C33.9811 66.9368 33.9329 66.7839 33.9456 66.8241C33.9456 66.8241 33.9456 66.8241 33.9456 66.8241C33.9456 66.8241 33.9456 66.8241 33.9456 66.8241C33.9456 66.8241 33.9456 66.8241 33.9456 66.8241C33.9456 66.8241 33.9456 66.8241 33.9456 66.8241C33.9456 66.8241 33.9456 66.8241 33.9456 66.8241C33.9456 66.8241 33.9456 66.8241 33.9456 66.8241C33.959 66.8643 33.9079 66.7117 33.9214 66.7518C33.9214 66.7518 33.9214 66.7518 33.9214 66.7518C33.9214 66.7518 33.9214 66.7518 33.9214 66.7518C33.9214 66.7518 33.9214 66.7518 33.9214 66.7518C33.9214 66.7518 33.9214 66.7518 33.9214 66.7518C33.8552 66.5597 33.7731 66.368 33.6794 66.1867C32.8486 64.6465 31.6401 64.2272 31.0886 64.0554C29.8536 63.7561 29.6035 63.9197 29.3255 63.9254C28.8611 63.9967 28.7785 64.0403 28.669 64.0687C28.3468 64.1717 28.3765 64.1712 28.3255 64.189C28.2942 64.2016 28.2834 64.2061 28.2763 64.209C28.2729 64.2104 28.2737 64.2099 28.2726 64.2103C28.2712 64.2107 28.2703 64.2109 28.2699 64.2109C28.269 64.2108 28.2699 64.2101 28.2719 64.2088C28.2761 64.2062 28.285 64.2016 28.297 64.1955C28.4545 64.1203 28.5488 64.0717 28.6964 63.9995C28.7691 63.9638 28.8506 63.9242 28.9407 63.8806C29.0067 63.8478 29.0618 63.8198 29.1277 63.787C29.7234 63.4934 30.2097 63.2475 30.8655 62.9271C32.0758 62.3242 33.3488 61.6789 34.5703 61.1177C38.6561 59.2381 42.3406 58.0044 46.3849 56.2035C46.8163 56.0131 45.9401 55.3595 46.4665 55.1259C52.0446 52.6663 57.8732 50.5791 64.1607 49.6851C64.7856 49.6009 64.1972 50.594 64.8268 50.5608C68.8422 50.241 74.5313 51.2491 77.529 48.0839C80.3531 48.4365 84.4614 49.9559 86.2908 52.7852C86.5708 53.0624 86.8826 53.4564 87.1108 53.9848C87.3528 54.5204 87.4771 55.2845 87.3939 55.9093C87.239 57.0758 86.7161 57.6625 86.503 57.9214C86.3717 58.072 86.2328 58.2036 86.1391 58.2836C86.0503 58.3595 85.9676 58.4231 85.8902 58.4787C85.729 58.5942 85.6162 58.6582 85.5188 58.7107C85.1414 58.9082 84.9758 58.9388 84.8223 58.9753C84.6622 59.0111 84.5615 59.0149 84.4624 59.0168C84.2704 59.0174 84.16 58.979 84.0627 58.9365C83.8897 58.8434 83.8257 58.7116 83.7566 58.6102C83.6191 58.4029 83.4483 58.3428 82.5616 58.7729C82.1605 58.9619 82.9057 59.5922 82.281 59.8153C79.6918 60.717 76.9405 60.8941 74.5249 61.6775C74.0281 61.8382 74.2772 62.5164 74.1519 62.6641C74.0228 62.8122 73.8734 62.9209 73.709 62.9977C72.7604 63.5097 70.9968 62.4812 70.6269 62.4373C67.2251 62.1161 64.9833 62.9329 61.9799 63.5113C61.2953 63.6434 62.2925 64.4126 61.6382 64.5739C58.2061 65.4059 54.6019 66.0738 51.1273 66.3834C50.3518 66.4506 50.8775 65.51 50.4979 65.5017C48.8296 65.4747 48.8018 67.046 47.2095 67.0529C46.8745 67.0564 46.9079 66.3394 46.8332 66.2777C45.6622 65.3087 45.2286 67.1381 45.0019 67.2261C42.1379 68.3789 39.8412 67.08 37.0328 67.9788C36.6932 68.0893 37.6696 68.7655 36.7054 69.0233C33.6281 69.8517 30.4354 70.6088 27.2708 71.3004C25.6814 71.6495 24.1159 71.9755 22.5711 72.3108C22.3806 72.3522 22.2144 72.3867 22.0229 72.4293C21.8188 72.4756 21.6262 72.5193 21.446 72.5601C21.1125 72.6328 20.7056 72.7335 20.4145 72.8047C20.2884 72.8325 20.0965 72.8888 20.0067 72.9096C19.9597 72.9204 19.9301 72.9251 19.9268 72.9166C19.9303 72.8999 19.9995 72.8757 20.2611 72.6441C20.2941 72.6139 20.3303 72.5794 20.37 72.539C20.4194 72.4862 20.4161 72.4986 20.5698 72.3164C20.7969 72.0264 21.2322 71.4342 21.2349 70.3958C21.2671 69.3573 20.4981 68.3566 20.1703 68.1355C19.9424 67.9469 19.7505 67.8401 19.5979 67.7657C18.9999 67.5034 18.8984 67.5697 18.8932 67.5648C18.861 67.5815 18.9695 67.6117 19.1473 67.6318C19.3592 67.6542 19.5707 67.677 19.7819 67.7C20.7918 67.8081 20.0712 68.4672 20.1345 68.5485C21.1755 69.8179 21.8445 68.1125 22.1722 68.0466C24.7652 67.5704 27.2281 68.9523 28.9507 66.8856C39.9826 67.3344 50.9174 65.5325 62.0113 66.7067C62.1523 66.7195 61.9505 67.5705 62.2314 67.5926C65.6152 67.868 64.8945 66.6053 67.0287 64.8891C67.567 64.458 69.379 66.2831 69.537 66.4158C70.1147 66.9043 69.6133 68.1801 69.8027 68.2705C71.3656 68.9764 70.8947 64.8728 72.9531 64.7634C73.0178 64.7669 72.7871 65.5387 72.9636 65.605C73.1836 65.6887 73.3983 65.686 73.6113 65.6679C73.9826 65.638 74.3346 65.5785 74.6717 65.7257C74.9939 65.868 75.2463 66.1032 75.4778 66.3568C75.7661 66.6104 76.016 66.8841 76.2659 67.1068C76.7557 67.5693 77.2371 67.7309 78.471 67.433C78.6506 67.4084 78.7646 66.7851 79.2655 66.3412C79.4031 66.2375 79.5215 66.1246 79.7853 66.1027C80.0772 66.1023 80.4627 66.1525 80.984 66.4984C81.1133 66.5866 81.2498 66.6958 81.3887 66.8336C81.5259 66.9718 81.6686 67.1284 81.8404 67.4144C82.1667 67.944 82.3819 68.7141 82.3392 69.4425C82.276 70.2572 82.1283 70.5864 81.9289 71.0181C81.7401 71.4061 81.4533 71.7801 81.2648 71.9785C79.8534 73.5324 76.7931 74.8671 75.8498 75.1432C74.8878 75.4033 75.2051 74.439 75.127 74.4382C72.4354 74.5055 73.0963 73.7654 71.4563 72.8362C69.8011 71.9037 71.3491 75.06 71.0153 75.6055C70.7065 76.1429 68.669 76.0069 68.1834 75.8711C67.673 75.7472 68.0328 75.1137 67.6103 75.0903C64.7906 74.9444 67.093 77.108 66.4504 77.914C64.8939 79.8232 62.5953 77.8228 60.7628 78.1152C60.2603 78.1958 60.8265 78.6429 60.4105 78.8264C58.7781 79.5368 57.5255 79.0574 55.7892 80.3147C55.502 80.5215 54.34 82.4615 53.0151 81.6238C52.8283 81.502 53.0726 80.7681 52.3062 80.8196C51.1634 80.8961 49.162 81.2555 48.0372 81.7476C47.2061 82.1118 48.4537 82.9113 47.2766 82.8505C46.7529 82.8218 47.5154 82.001 46.5465 81.9964C45.5885 81.9923 43.2571 82.5396 42.381 82.742C41.4956 82.9499 42.1462 83.6407 42.0861 83.7091C41.7059 84.1099 40.0703 84.8334 39.915 84.86C36.1328 85.6333 32.3697 85.9262 28.6409 85.9306C28.1865 85.9297 27.7824 85.9299 27.3558 85.9445C27.1531 85.951 26.9577 85.9595 26.7655 85.9742C26.6019 85.9821 26.3814 86.019 26.4121 85.9979C26.4275 85.9858 26.4662 85.9826 26.6476 85.8658C26.7054 85.8218 26.9787 85.6604 27.1965 85.244C27.3208 85.0249 27.433 84.5642 27.3642 84.1992C27.293 83.798 27.1686 83.6238 27.0675 83.4738C26.9621 83.3287 26.8664 83.2408 26.7913 83.1785C26.7346 83.1324 26.6958 83.1065 26.6593 83.0832C26.5898 83.0395 26.5392 83.0171 26.5241 83.0116C26.4814 82.9953 26.4813 83.0007 26.4921 83.0076C26.5536 83.0436 26.7409 83.1044 26.9216 83.1536C27.2927 83.2549 27.7149 83.3437 28.1392 83.423C29.8476 83.7363 31.6442 83.9237 33.4624 83.9971C33.6151 84.0033 33.7686 84.0096 33.9231 84.0161C34.5318 84.0448 34.2195 83.1541 34.3133 83.1497C36.4698 83.0423 34.5419 85.0942 35.8509 86.0334C35.8863 84.2907 36.6823 84.7083 38.1453 84.7608C38.8461 84.7853 38.5861 84.061 38.6604 84.0038C39.8569 83.1758 40.3445 84.6089 40.4673 84.9056C40.9467 86.0034 41.9014 84.9983 42.2203 85.7369C42.5416 86.4712 41.317 87.219 42.6577 87.4754C43.1585 86.944 42.4768 85.1524 43.5553 85.1028C47.6192 84.9323 54.4026 87.6266 57.445 88.0998C60.4648 88.6117 61.4559 88.5373 63.2065 88.8275C66.3875 89.2602 65.2233 88.046 67.0592 87.3887C68.8362 86.6603 68.3069 89.6763 68.6622 90.2799C69.0379 90.8724 69.2601 90.1798 69.6758 90.4653C70.1019 90.7473 69.3681 91.3129 70.2697 91.2888C71.202 91.2883 73.2589 89.5346 73.2726 88.791C73.3609 87.2481 71.9979 86.2365 73.9552 85.9671C74.0718 85.9471 74.0574 86.8116 74.4928 86.6956C77.9985 85.7422 80.8291 82.9312 83.0068 79.7902C83.2811 79.3988 83.7431 79.9892 83.9798 79.9569C84.0006 79.9312 84.1176 79.7857 83.9832 79.5476C83.8512 79.3713 83.7737 79.3787 83.7226 79.3541C80.1225 78.9711 81.6369 80.4167 80.0084 82.1998C80.135 80.3999 79.3895 79.268 77.748 79.0803C77.3934 79.0397 76.9961 79.0441 76.5561 79.0966C75.073 79.2749 75.4466 80.1787 74.5813 80.9619C74.3212 81.1978 73.1938 80.697 73.0639 81.1622C72.6363 82.6833 73.8391 84.1523 71.2324 83.8625C71.1176 83.8476 71.3602 83.0131 70.9714 83.0189C68.454 83.0531 68.372 84.5989 65.7053 85.1496C63.6133 85.5839 59.717 85.1503 57.2728 85.2412C57.0708 82.8265 54.8768 83.5989 54.0713 85.3356C52.4832 85.3949 50.7681 85.5938 49.2179 85.4184C48.6854 85.3584 49.0097 84.6443 48.9402 84.5708C47.8914 83.4154 47.2492 85.0502 46.9 85.1184C43.1455 85.7698 40.1976 84.3908 36.4878 85.0992C36.3653 85.1224 35.9486 86.5916 35.2391 85.5931C35.1898 85.534 35.1401 85.4666 35.0905 85.3901C35.0744 85.3634 35.1796 85.3029 35.2991 85.2208C35.49 85.0656 35.7139 84.8371 35.3936 84.634C35.2421 84.5481 34.9901 84.4641 34.6406 84.3841C34.429 84.335 34.2241 84.2731 33.9116 84.1672C33.6075 84.0586 33.4221 83.9806 32.9795 83.7658C32.8846 83.7164 32.791 83.6635 32.697 83.6039C32.6263 83.556 32.4529 83.4536 32.2805 83.3028C32.1943 83.2275 32.1051 83.139 32.0168 83.0273C31.9728 82.9715 31.9291 82.9097 31.8875 82.8409C31.8491 82.7761 31.7997 82.6907 31.7465 82.5539C31.5016 82.0439 31.7499 81.2412 31.9402 81.0515C32.2882 80.597 32.6528 80.4646 32.8161 80.3904C33.0114 80.3077 33.287 80.2155 33.4244 80.1832C34.8441 79.8264 36.1421 79.639 37.2584 79.0303C37.7397 78.7496 38.9581 77.1602 40.2573 78.0508C40.4245 78.1729 40.3352 78.6744 40.585 78.9095C41.3842 79.6588 41.566 77.9134 42.5536 79.2393C43.5764 80.5606 45.3673 81.4176 47.5374 80.1568C47.6053 80.1196 47.9801 78.7161 48.7074 78.654C49.8637 78.5562 51.5237 78.6552 52.7218 78.5175C53.2975 78.4508 52.8392 77.6572 52.9376 77.6312C56.7558 76.7503 59.587 77.2179 63.759 77.1256C64.534 77.1094 66.5788 75.7565 68.155 76.5045C69.8429 77.3254 68.6353 81.5906 72.2514 80.2255C73.1105 79.9002 73.972 77.8699 75.0701 76.7637C75.9296 75.9704 76.5995 75.6851 78.184 76.1543C80.886 74.6719 80.7476 71.3078 80.3395 69.1467C79.9465 66.8009 79.2878 64.6293 78.8637 62.4715C78.7767 61.9428 78.6805 61.5573 78.5485 61.0731C78.5144 60.9439 78.1139 60.7159 77.7178 60.5172C77.5228 60.4379 77.3123 60.2487 77.1582 60.1488C77.0012 60.0326 76.9001 59.9672 76.8725 59.8401C76.8577 59.7669 76.854 59.7246 76.8817 59.733C76.9038 59.7445 76.9395 59.8238 77.1241 59.9352C77.2152 59.9847 77.349 60.0455 77.5568 60.0359C77.75 60.0241 77.8914 59.9373 77.9589 59.8755C78.0972 59.7364 78.046 59.7299 78.0404 59.7135C78.0254 59.7005 78.0009 59.7017 77.9731 59.712C77.9166 59.7333 77.8473 59.7926 77.7905 59.8215C77.6711 59.8945 77.5438 60.0124 77.44 60.1358C77.3427 60.233 77.2631 60.3498 77.22 60.4959C76.5346 62.8852 76.867 65.2028 76.4766 67.5575C76.3364 68.436 75.6739 68.0489 75.5065 69.1141C75.3408 70.1755 76.1775 70.9996 75.5619 72.3975C75.0936 73.453 73.0833 74.3222 72.6885 75.7444C74.537 76.0233 74.3812 77.015 74.6443 78.8505C74.6955 79.203 75.3877 78.921 75.4452 79.0922C75.6946 79.7814 75.0769 80.3398 75.355 81.0007C75.4213 81.163 76.0534 81.252 76.1423 81.3956C76.9268 82.6107 75.2416 84.1227 74.9382 84.4051C73.8148 85.3681 74.5276 86.0813 73.971 86.8759C73.3992 87.6808 73.2577 86.2538 72.7922 87.2143C72.604 87.5572 72.3707 88.0854 72.1878 88.2878C71.2486 89.6018 69.6336 90.3087 68.0595 90.3425C67.2756 90.3596 67.8193 91.1947 67.7087 91.2171C65.8619 91.4463 64.3625 90.1204 62.9243 91.4683C63.0461 86.8995 61.7315 91.6031 59.5833 89.7556C59.4179 89.6044 60.0526 87.6196 60.8392 87.6282C61.6161 87.6313 62.4226 88.6408 63.5152 88.4772C63.8045 88.4603 65.4913 86.8885 65.6273 86.7841C66.8846 86.0966 66.6614 89.1401 66.7503 89.3295C67.0655 90.2824 67.7493 90.2414 68.2386 89.8849C68.753 89.5311 69.0116 88.8876 69.1251 88.7804C69.8761 88.0885 70.1479 87.8498 70.4473 87.2723C70.3879 87.3615 70.3942 87.344 70.4071 87.2723C70.4161 87.2142 70.4288 87.1307 70.442 87.022C70.475 86.7805 70.4703 86.5833 70.459 86.2935C70.3847 85.2223 68.3992 84.7373 68.6102 83.9114C69.2735 81.1677 72.2167 80.4075 70.1388 77.2936C69.6934 76.6251 67.418 76.9551 69.415 74.9947C69.5412 74.8709 71.3211 73.4395 70.4289 72.3764C70.3164 72.2432 69.6733 72.1711 69.6377 72.0088C69.4113 70.9261 70.0052 70.2875 69.8967 69.1073C69.7855 67.9496 69.5901 66.4875 69.9746 65.2037C70.2085 64.3989 71.5423 63.5253 71.8887 63.1835C72.8845 62.1938 71.6867 60.823 72.8535 60.2034C74.0205 59.6768 75.2411 61.3969 76.3289 59.6586C74.7281 59.1396 73.1316 58.4388 71.6252 57.6246C71.6903 57.4437 71.8413 57.0238 72.0997 56.5438C72.1672 56.4183 72.2455 56.2814 72.3417 56.1293C72.3899 56.0532 72.4426 55.9733 72.5013 55.889C72.5306 55.8468 72.5615 55.8036 72.594 55.7592C72.6223 55.72 72.7234 55.5857 72.8017 55.4908C73.1418 55.0836 73.6241 54.5518 74.5294 54.0265C75.4062 53.5055 76.8777 53.0698 78.3333 53.28C81.0514 53.7682 81.8285 55.0017 82.4259 55.6935C82.9514 56.3978 83.1935 57.0452 83.2271 57.1214C83.3877 57.5222 83.4716 57.8204 83.5402 58.0879C83.5738 58.2212 83.6018 58.3453 83.6267 58.4647C83.6453 58.5564 83.6562 58.6168 83.6693 58.6906C83.6943 58.8328 83.7156 58.9702 83.7347 59.1066C83.7726 59.3769 83.8035 59.6647 83.8164 59.8349C83.8884 60.6964 83.8956 61.3392 83.9062 62.1328C83.7758 63.3597 84.3887 65.7144 85.1025 68.8677C85.2286 69.4957 86.0015 68.6681 86.1586 69.3919C86.4454 70.9386 86.5985 72.968 85.5605 75.6139C84.5387 78.3447 81.8073 80.4403 79.841 81.2998C78.3474 82.0136 77.0495 82.5212 75.8028 82.9555C74.8807 83.3753 73.9109 83.8084 72.9438 84.0395C71.6336 82.2465 69.0088 83.1729 67.0442 83.1929C66.357 83.2009 66.3478 82.6854 65.842 82.5677C63.9695 82.1322 64.984 83.7391 64.5106 84.0554C62.4821 85.4064 61.9137 81.5952 59.3952 81.9462C59.2634 81.9631 57.835 84.1711 57.6265 84.3213C56.287 85.2972 57.3171 83.6354 56.4089 83.5773C54.7513 83.472 53.5611 83.105 51.7274 83.9109C51.1816 84.1499 50.011 85.5669 48.8177 84.7104C48.6621 84.5982 48.6614 83.9157 48.5436 83.8894C46.3995 83.4754 46.6266 85.5966 45.5371 86.4599C44.4902 87.3172 42.5191 86.103 42.0864 85.7387C40.9862 84.7891 42.7522 85.17 42.7909 85.0579C43.2244 83.7061 41.9159 84.1057 40.9424 84.143C40.4706 82.0993 39.1046 82.4412 39.8953 84.1992C39.9776 84.3911 40.7159 84.0796 40.9424 84.143C40.3361 86.308 38.9818 86.7744 37.0762 85.2137C36.6178 84.8522 36.5091 84.3799 36.2523 84.104C36.0642 83.8175 35.4097 83.7769 34.8451 84.1916C34.8037 84.2321 34.8316 84.2682 34.9035 84.2926C34.961 84.3246 35.1217 84.3186 35.3518 84.2287C35.5781 84.1416 35.8603 83.9784 36.1358 83.7212C36.4401 83.4415 36.8447 82.7288 36.9469 81.9945C37.0808 81.266 36.8911 80.3806 36.7071 79.8944C36.5691 79.4529 36.3615 79.058 36.1431 78.7394C35.9414 78.4284 35.6463 78.1502 35.5923 78.0376C35.5034 77.9028 35.42 77.7964 35.3808 77.7293C35.3133 77.5693 35.4823 77.5425 35.7275 77.5451C35.9219 77.5388 36.1854 77.5763 36.5197 77.6413C38.1254 77.9585 39.8736 78.7857 41.4398 78.7363C42.2322 78.7094 41.5154 77.8764 42.0533 77.8288C43.4708 77.6946 44.7173 78.3155 46.1682 78.0095C46.2983 77.9805 45.9784 77.158 46.4229 77.1452C49.7913 77.0206 52.8266 77.3441 56.4919 76.988C58.2608 76.8197 61.3915 75.9778 63.2697 75.815C66.5164 75.5374 70.729 76.1348 73.538 75.4692C75.3721 75.0389 74.8632 74.2764 75.5961 73.6168C75.9849 73.2675 76.4972 73.1335 77.0395 73.1306C78.4488 73.1257 80.096 74.0339 80.3914 74.2229C80.3962 74.2312 78.8086 74.6075 79.7186 74.9297C80.3159 75.7492 80.3743 74.2287 80.3914 74.2229C80.4793 74.2774 80.8779 74.2958 81.4341 74.2895C81.7104 74.2868 82.0234 74.2778 82.3818 74.2658C82.5696 74.2595 82.7584 74.2522 83.028 74.2459C83.1726 74.2435 83.3104 74.2384 83.6126 74.2461C83.7781 74.2544 83.9401 74.248 84.4375 74.3204C84.7441 74.3969 84.9531 74.3164 86.1586 74.8788C86.6127 75.1618 88.0352 75.7362 88.8847 78.0852C89.2372 79.168 89.1864 80.1914 89.0372 80.8965C88.8923 81.5693 88.7133 81.9508 88.5602 82.2636C88.2044 82.9399 87.893 83.5119 87.8038 83.774C87.6638 84.1832 88.4558 84.3766 88.3657 84.5867C86.2484 89.7276 80.9795 94.3816 75.3153 95.7423C75.2145 95.7591 75.0812 94.8834 74.8532 94.9307C71.6976 95.5135 69.9829 96.8013 67.4858 97.6475C65.0097 98.4576 63.0166 98.1743 61.7324 96.6102C59.9572 96.717 57.5979 95.7982 56.3046 95.2126C55.0142 94.6306 54.576 96.2756 54.4505 96.2923C50.5651 96.7734 48.6477 95.3807 45.0806 94.497C43.3803 94.0692 40.0119 93.6213 38.2482 93.4934C36.8429 93.39 36.0992 92.8617 34.8467 92.9408C34.6787 92.9518 34.7392 93.7246 34.6855 93.7466C33.2642 94.4712 34.1285 92.7212 33.8908 92.3573C33.5169 91.7886 33.2 91.3378 32.824 91.0449C32.2269 90.6515 31.5212 90.52 30.3407 90.7196C29.8682 90.8012 28.2008 93.2997 27.2133 93.3207C25.9007 93.3272 26.654 92.5004 24.9793 92.4173C24.8985 92.4098 24.847 92.5549 24.6335 92.6571C24.5232 92.7069 24.4006 92.7533 24.1572 92.7448C23.879 92.7178 23.6732 92.7335 22.7175 92.3594C22.5033 92.2714 22.2669 92.168 21.9683 92.0152C21.5702 91.8073 21.0783 91.5393 20.4052 90.9961C19.9538 90.6244 19.3146 90.0452 18.6799 89.09C18.3523 88.5795 18.0822 88.1259 17.7584 87.2303C17.4313 86.3061 17.2374 85.1714 17.299 84.0355C17.3518 82.9024 17.6648 81.7903 18.0644 80.9388C18.3703 80.2787 18.7256 79.7341 19.0723 79.2909C19.756 78.4163 20.4722 77.8623 20.8814 77.5752C21.5657 77.1006 22.0689 76.8683 22.4788 76.6906C22.7984 76.556 23.017 76.4803 23.2367 76.4085C23.7075 76.2594 23.8777 76.2251 24.1312 76.166C24.9671 75.9877 25.3985 75.9556 25.806 75.9146C26.6235 75.8419 27.2617 75.8243 27.9198 75.809C29.7993 75.8061 31.8992 75.6771 33.9412 75.3129C34.3524 75.2412 33.6764 74.4034 34.2668 74.2837C37.0627 73.7161 40.204 73.1139 43.104 72.9034C43.8161 72.8547 43.5312 73.5908 43.7241 73.7461C44.9142 74.681 45.8398 72.702 46.042 72.6187C50.9679 70.5665 55.3216 70.9654 60.2522 68.647C60.5272 68.5177 62.0886 66.0882 63.507 67.2608C63.5838 67.3454 65.0877 68.5313 65.5196 67.2112C65.5461 67.1285 64.707 66.5498 65.7171 66.2788C66.7693 65.9913 68.1061 64.9033 69.723 65.2185C70.2097 65.327 71.87 66.3769 72.3615 64.7167C72.3849 64.6554 72.4392 63.802 72.5516 63.1852C72.5907 62.8867 72.6051 62.6687 72.6208 62.6675C72.6287 62.6727 72.6359 62.8963 72.7524 63.4551C72.7946 63.6389 73.2152 64.0701 73.2997 64.5987C73.3515 64.9087 73.2598 65.0138 72.5856 66.4256C72.5065 66.6108 72.4224 66.8245 72.3401 67.077C72.2991 67.2032 72.2586 67.3392 72.2203 67.4861C72.1808 67.6352 72.1245 67.8839 72.0885 68.1119C71.9291 69.038 71.9683 70.3766 72.4704 71.624C73.5253 74.0844 74.969 74.7646 75.5675 75.2195C75.9088 75.4765 75.6871 75.5646 75.6249 75.7362C75.591 75.8195 75.6028 75.9257 75.7218 76.0614C75.8335 76.1952 76.0681 76.3537 76.2405 76.463C76.5698 76.7215 76.2447 76.6639 75.8315 76.6839C75.3296 76.6968 74.8738 76.7438 74.1969 77.0406C73.9916 77.1269 73.7881 77.232 73.588 77.3609C73.3103 77.5419 72.1708 79.0357 71.1353 78.0036C70.973 77.8419 71.2259 77.1228 70.7051 77.0722C68.2281 76.8285 65.6772 77.4464 63.144 77.1052C62.2466 76.9858 62.6344 75.8227 61.6911 75.5719C60.7475 75.3213 58.8635 75.1372 57.9229 75.7128C56.9819 76.2887 58.1481 78.0391 56.7005 78.2681C50.4045 79.2627 44.0313 78.547 37.6292 78.6425C36.6789 78.6559 37.4917 79.2752 36.0909 79.3397C31.5228 79.5617 23.9458 80.2089 19.115 79.3297C18.759 79.301 18.3993 79.2631 17.9773 79.2C17.7572 79.1669 17.5654 79.1336 17.2508 79.073C16.7071 78.967 16.0584 78.8713 14.8733 78.362C14.2802 78.092 13.5195 77.7096 12.5937 76.9023C11.8001 76.2316 10.5265 74.7425 9.99264 72.8114C9.40951 70.8732 9.67826 68.7682 10.2039 67.4387C10.729 66.0702 11.3631 65.2786 11.8555 64.7185C11.9127 64.6546 11.9974 64.5637 12.0231 64.5374C12.0478 64.5119 12.0724 64.4869 12.0966 64.4625C12.1451 64.4136 12.1926 64.367 12.2392 64.3222C12.3324 64.2327 12.4218 64.1509 12.5076 64.0754C12.8508 63.7741 13.1367 63.567 13.3857 63.3997C13.8819 63.0704 14.2391 62.8937 14.5488 62.7493C14.7189 62.6702 14.8057 62.6386 14.8835 62.611C14.9642 62.5822 15.0414 62.5562 15.1159 62.5323C15.6244 62.3722 16.0416 62.2853 16.3014 62.258C16.5406 62.2392 16.7394 62.238 16.9074 62.2476C17.2431 62.2672 17.4531 62.3301 17.5732 62.4172C17.8139 62.592 17.6919 62.8661 17.5423 63.1307C17.2229 63.6736 16.8932 64.1113 18.5068 63.8159C20.0178 63.5608 20.8323 61.1598 21.1424 61.0046C24.1255 59.5001 26.4511 59.9 29.1289 58.9603C29.6847 58.7664 28.9261 58.0683 29.4042 57.9119C31.0166 57.3755 32.8267 57.3463 34.3868 56.9171C35.0936 56.7211 34.8056 56.117 35.4639 56.0188C37.0438 55.7755 38.4645 55.7382 40.1125 55.9994C40.2612 56.0235 39.5156 57.0211 40.6605 56.7981C42.5208 56.4335 44.9433 56.5223 46.9426 55.4549C47.5342 55.136 47.2443 53.671 48.8236 54.3882C49.1529 54.5384 49.1658 56.3673 50.4188 54.5188C50.6394 54.2084 52.8682 51.6047 54.4557 52.6519C54.8657 52.9288 56.0509 54.1814 56.7676 53.7993C56.8632 53.7421 56.2895 53.0413 56.9033 52.8357C59.0912 52.1209 61.4092 51.7418 63.6937 51.0414C64.285 50.8567 63.2164 50.2188 64.1204 49.9664C66.2857 49.3659 69.0078 48.9764 71.6271 48.793C71.9623 48.7752 72.2646 48.7632 72.5793 48.7493C73.4516 48.7149 72.9634 49.4845 73.0374 49.5489C74.2361 50.5959 74.5764 48.8754 74.8834 48.7278C76.7928 47.8283 78.5932 48.2783 79.8685 47.7394C80.1487 47.6068 79.7301 46.9095 79.7672 46.827C79.8937 46.4346 79.784 46.6559 79.9013 46.9194C79.9447 47.0555 80.0018 47.2145 80.0359 47.354C80.0564 47.5001 80.1262 47.5921 79.8856 47.7349C79.7248 47.8339 79.5811 47.8863 78.9164 48.318C78.8326 48.3743 78.7542 48.4286 78.6443 48.508C78.5232 48.5954 78.39 48.6961 78.2425 48.8164C78.095 48.9368 77.9331 49.0767 77.7553 49.2457C77.5235 49.4656 77.2634 49.7345 76.9796 50.0858C76.55 50.6551 75.3542 52.0902 75.1024 54.7962C74.8067 57.8914 76.4938 60.5787 77.6785 61.6408C78.0292 61.5179 77.7131 61.2912 76.8637 61.2251C76.5266 61.2008 76.7293 62.1597 76.4445 62.1344C74.6932 61.9735 71.2448 62.24 67.8714 62.5366C67.2254 62.5904 67.4556 61.8181 67.2879 61.6937C66.1108 60.8232 65.1226 62.6743 64.8642 62.9014C63.6378 63.944 62.9106 63.5258 61.6872 64.0455C55.7108 66.5898 47.9305 69.5729 41.8747 72.1703C39.9393 72.9932 38.1017 73.7742 36.1453 74.5551C35.741 74.7169 35.3833 74.8568 35.0683 74.9771C34.9367 75.0256 34.6795 75.1306 34.5142 75.1939C34.3253 75.2679 34.2087 75.3093 34.0036 75.3901C33.7764 75.4807 33.6538 75.5245 33.4457 75.6056C33.3763 75.6335 33.3174 75.6566 33.259 75.6792C33.2294 75.6907 33.2002 75.7019 33.1637 75.7162C33.1544 75.7198 33.1447 75.7236 33.134 75.7277C33.1185 75.7339 33.1638 75.7155 33.025 75.7725C32.9928 75.7855 32.9554 75.8007 32.8885 75.8266C32.8159 75.854 32.7444 75.8845 32.4851 75.9712C32.336 76.017 32.193 76.0761 31.6448 76.1999C31.34 76.2532 30.9962 76.3719 29.8631 76.3862C29.6155 76.3849 29.2111 76.3728 28.7117 76.3C28.5833 76.2805 28.5323 76.2741 28.3028 76.2298C28.1733 76.2043 28.034 76.1735 27.8869 76.1364C27.4444 76.0183 27.2918 75.9773 26.7365 75.7548C25.2493 75.3143 21.9408 72.6042 21.7011 69.0195C21.4747 65.6499 22.6118 64.3351 23.05 63.5478C23.2309 63.282 23.2835 63.2139 23.4406 63.0128C23.4933 62.9463 23.5445 62.8839 23.5932 62.8261C23.6798 62.7239 23.7003 62.7014 23.7507 62.6445C23.9477 62.4238 24.1287 62.2464 24.2448 62.1371C24.7853 61.6372 25.0391 61.479 25.2311 61.3413C25.599 61.0922 25.7285 61.0261 25.845 60.9581C26.2334 60.7437 26.2374 60.7522 26.3148 60.7123C26.3722 60.6846 26.4035 60.67 26.4322 60.6566C26.5088 60.6211 26.47 60.6394 26.483 60.6335C26.4901 60.6306 26.497 60.6277 26.5037 60.625C26.6076 60.5825 26.7079 60.5426 26.8455 60.4861C26.9945 60.43 27.1743 60.3604 27.3899 60.2754C27.5501 60.215 27.7124 60.1537 27.8978 60.0825C29.3216 59.5392 30.6561 59.0405 32.0512 58.5078C34.7891 57.4657 37.5714 56.3739 40.5185 55.1248C41.007 54.9188 40.1649 54.2537 40.5834 54.0645C46.0895 51.6336 51.7556 49.8855 57.531 47.7043C58.0044 47.5282 57.0381 46.9158 57.791 46.6053C59.3597 45.9543 61.4208 45.3691 63.1841 45.163C64.0434 45.0614 63.1489 46.0991 64.004 45.9847C65.9872 45.7266 68.0929 45.2534 70.2177 44.6849C71.1287 44.4438 69.5577 43.829 70.7656 43.5872C72.1793 43.3103 73.7005 43.0584 75.3679 42.9264C75.7321 42.8969 76.0474 42.8685 76.3096 42.8426C76.5973 42.8147 76.8906 42.7816 77.0311 42.7621C77.1273 42.7494 77.167 42.7413 77.1156 42.7501C77.0978 42.7536 77.027 42.7646 76.8503 42.8067C76.7626 42.8278 76.6501 42.8565 76.5004 42.9007C76.4255 42.9229 76.3411 42.9491 76.2449 42.9811C76.1968 42.9972 76.1456 43.0147 76.0912 43.0341C76.0537 43.0474 75.9407 43.0877 75.8004 43.1435C75.2535 43.3903 74.4309 43.6368 72.9572 44.9468C72.5932 45.2852 72.1923 45.7078 71.7853 46.2585C71.5804 46.5368 71.3843 46.8305 71.1773 47.1929C70.8439 47.7776 70.534 48.4699 70.3092 49.247C69.2439 52.4965 70.6725 56.2814 71.9014 57.6684C72.5134 58.4569 73.0629 58.9411 73.5104 59.2983C73.7836 59.5122 73.9101 59.5985 74.086 59.718C74.4135 59.9375 74.6807 60.0888 74.9061 60.208C75.3557 60.4432 75.6453 60.5562 75.8613 60.6386C76.1088 60.7298 76.1241 60.7311 76.216 60.7611C76.2903 60.7843 76.3458 60.8002 76.3878 60.8117C76.4714 60.8345 76.5015 60.8403 76.4998 60.8393C76.4003 60.8065 75.7046 60.67 75.0711 60.5565C74.4426 60.4417 73.745 60.3174 73.0243 60.1834C70.196 59.6571 67.1848 58.9937 64.1488 57.9979C63.6433 57.8318 63.5073 55.9532 62.3495 56.1006C62.1757 56.5859 62.0722 57.1751 61.9377 57.7031C59.8939 57.3787 57.8294 56.9861 55.5345 56.3348C54.3326 55.982 53.1871 55.6289 51.6012 54.8995C51.2298 54.7252 50.7974 54.5092 50.3188 54.2341C49.8476 53.9602 49.3702 53.6672 48.7176 53.1644C47.7598 52.3057 45.2098 50.6322 44.6157 45.9109C44.4569 43.7076 44.4759 41.0851 45.4347 38.1159C46.295 35.2324 48.6956 32.202 48.1981 32.9658C47.9615 33.3381 47.6666 34.9281 47.8181 35.4745C47.9191 36.0683 47.9894 35.9909 47.8922 35.7498C47.7156 35.2357 47.1136 34.1447 46.4351 33.1118C47.1631 34.1411 48.9026 36.3122 52.7142 36.512C54.3953 36.575 55.9062 35.9868 56.5714 35.62C57.2008 35.2865 57.6271 34.9596 57.9438 34.6893C58.6019 34.104 58.7045 33.9128 58.8519 33.7346C58.9785 33.567 59.0431 33.4608 59.0613 33.43C59.0906 33.3786 59.2843 33.5249 59.489 33.654C59.6822 33.8026 59.9361 33.8481 59.9167 33.8798C58.731 36.2672 57.148 41.8896 54.5263 46.1644C54.2596 46.6115 52.7522 45.7723 52.4639 47.2756C52.4183 47.5387 51.8096 49.762 51.9285 50.4572C51.95 50.5545 52.8496 50.4504 52.5922 51.1604C51.038 55.2802 49.1348 59.535 45.6344 63.8256C45.0389 64.5256 44.9184 63.2342 44.4825 63.7288C42.5934 65.4151 41.3665 68.8632 34.6193 69.7573C33.0922 69.8131 31.5849 69.7998 30.1607 69.5099C27.9712 69.0589 28.7273 67.5664 27.5404 66.1556C27.3705 65.9566 26.0394 65.9613 25.9471 65.1236C25.7047 63.0161 26.2919 60.6837 25.9569 58.4395C25.9201 58.1981 25.4687 58.2193 25.0821 58.1577C24.9865 58.1424 24.8888 58.1218 24.7584 58.0945C24.7078 58.08 24.5984 58.0671 24.4936 58.054C24.4012 58.0514 24.2853 58.0516 24.1273 58.0637C24.0337 58.073 24.009 58.0683 23.8194 58.1019C23.6358 58.1411 23.3986 58.1907 22.9959 58.3442C22.5989 58.516 21.9813 58.7243 21.0865 59.6174C20.1753 60.4238 19.2982 62.6314 19.6476 64.2066C19.9335 65.7753 20.5341 66.4184 20.7897 66.774C21.0734 67.1204 21.1793 67.2089 21.1358 67.1761C21.0913 67.1283 20.8886 66.9745 20.4918 66.4187C20.1418 65.8963 19.3546 64.6556 19.5685 62.6785C19.7927 60.6808 21.1391 59.3347 21.8452 58.8659C22.6083 58.3424 23.0469 58.2196 23.3597 58.1074C23.6548 58.01 23.9151 57.9568 23.9007 57.9541C24.3075 57.8341 24.5181 57.7816 24.5999 57.7237C24.8099 57.6087 24.9243 57.4849 25.082 57.3317C25.2095 57.246 26.5073 56.8203 26.8081 56.4141C27.0214 56.133 26.5991 55.2896 27.0404 54.9251C27.478 54.5608 27.9974 55.263 28.7211 54.8272C29.4473 54.3857 29.0943 53.425 30.5619 53.2611ZM50.6657 92.4677C49.6331 91.4405 48.8854 94.342 50.3171 93.8864C50.3873 93.8608 50.7198 92.5186 50.6657 92.4677ZM81.8254 65.3548C80.9341 67.1247 83.1115 67.7604 83.7974 66.377C84.4827 65.019 82.104 64.8383 81.8254 65.3548ZM73.8114 67.7219C75.0648 66.0439 70.8936 65.2222 71.5037 67.2837C71.5381 67.4018 73.7387 67.8199 73.8114 67.7219ZM32.8561 65.5712C32.8355 65.5325 31.8727 65.5288 31.8524 65.5687C31.373 66.5367 33.3024 66.5434 32.8561 65.5712ZM72.8515 83.6374C73.5069 83.1908 73.0863 81.4754 72.2801 82.0615C71.633 82.5459 72.0371 84.2113 72.8515 83.6374ZM60.2903 76.7329C60.3218 76.7702 60.9905 76.6077 60.9026 76.3709C60.6211 75.6091 59.7755 76.106 60.2903 76.7329ZM53.6127 84.5063C56.5661 86.8043 57.3178 91.0864 53.494 88.3887C52.833 87.89 55.5989 88.3816 54.8698 87.5595C53.6361 86.1026 51.2457 87.1839 50.4606 84.8243C50.3849 84.4997 53.4726 84.4326 53.6212 84.5066C53.6184 84.5065 53.6155 84.5064 53.6127 84.5063ZM50.6583 88.8095C50.6425 88.7668 49.7156 88.5482 49.6855 88.5818C48.9939 89.4144 50.8703 89.8574 50.6583 88.8095ZM59.5172 67.671C59.4598 67.59 57.2515 67.6394 57.1842 67.721C56.1242 69.3379 60.5899 69.2427 59.5172 67.671ZM57.228 85.1807C56.2795 86.2385 55.0103 86.4659 54.0762 85.3364C55.126 85.3162 56.1763 85.2288 57.228 85.1807Z" fill="#A0677E"/>
<path d="M80.4026 58.5516C78.6313 59.5286 77.8636 59.6994 77.3618 59.9591C76.8806 60.1816 76.7005 60.3062 76.5011 60.338C76.1475 60.3976 75.4045 60.066 73.4004 58.9727C70.3593 57.3376 71.3282 60.4957 68.862 57.3795C69.0099 58.1535 68.9634 57.8786 69.2983 58.7708C69.2817 58.8651 69.2883 58.7997 69.1307 58.8307L65.8332 51.2654C68.6196 51.4888 73.1711 52.0561 74.3363 52.0808C74.5513 52.3519 74.7664 52.623 74.9814 52.8941C75.5247 52.812 77.882 52.322 78.1477 52.4067C78.6893 52.5763 79.2145 52.7166 79.732 52.834L80.2141 52.8739C83.923 54.0774 84.4659 57.1661 84.6616 59.2001C83.9676 59.6174 84.2445 59.4918 83.4182 59.607C83.4061 59.7529 83.4075 59.8733 83.424 59.9805C83.4915 60.4425 83.8632 60.6161 84.4202 61.0696C84.3527 61.5546 84.254 62.5271 83.6687 63.8119C83.1854 65.0341 81.4783 66.9256 79.3202 66.8613C76.6084 66.8163 73.2205 67.1128 70.46 66.9424C69.088 66.8581 67.8173 66.6571 67.0499 66.2188C66.669 66.0087 66.4822 65.7102 66.5524 65.5697C66.6165 65.4325 66.7663 65.4124 66.8939 65.3925C67.0978 65.3869 67.3018 65.3857 67.5058 65.3889C67.7361 65.3323 67.8534 64.9554 67.7482 64.6293C67.6523 64.3073 67.5165 64.1611 67.5206 64.0976C67.5174 63.9788 67.8376 64.0394 68.1972 64.0373C70.4339 64.0221 73.594 64.0449 76.4829 63.9068C77.3315 63.8629 78.1904 63.8259 79.067 63.8237C80.2631 64.1209 81.4032 62.1773 81.4451 60.0837C81.5206 58.5096 81.101 56.6748 79.6524 56.2442L79.732 56.2508C78.4281 56.1273 77.1237 55.9988 75.8185 55.8632C73.5153 55.6248 71.2221 55.4155 68.9109 55.3413C67.9119 55.3102 66.838 55.4605 65.8332 55.3536L66.1358 56.0478C66.2135 55.981 66.2936 55.9209 66.3757 55.8678C67.6495 55.0747 68.846 55.9145 69.9876 54.81C70.357 54.4505 71.8363 54.4156 73.6066 54.7482C75.3758 55.0153 77.4645 55.7439 79.38 55.1539C80.948 54.483 81.0317 53.0386 81.1403 52.5753C81.3664 50.2926 80.572 48.0865 78.93 46.4833C78.4448 46.0504 77.8042 45.6726 77.0592 45.6328C76.142 45.5637 75.186 45.4795 74.2694 45.5284C72.7263 45.6078 71.2174 46.0845 69.6801 46.1958C64.6587 46.5629 59.6289 46.8156 54.6073 47.1213L53.1982 47.0365L53.6805 45.8355C54.4148 43.5004 55.5861 41.4643 57.433 39.7124C57.4406 39.7113 57.4551 39.7093 57.4756 39.7066C57.4998 39.7694 57.6702 39.8677 57.8878 39.8296C58.1053 39.7921 58.3087 39.6953 58.3108 39.6879C58.8417 38.432 57.7687 34.7048 58.6889 33.5376C59.0789 33.4538 59.4688 33.3675 59.8583 33.2789C59.8492 33.1265 59.8393 32.9765 59.8289 32.827C59.0132 32.8509 59.4261 32.8258 58.5975 32.9073C58.2915 31.7168 58.3251 29.8077 58.1963 27.9159C58.0315 25.5091 56.8529 21.8598 56.5013 19.4094C56.4489 19.0909 56.6493 19.1067 56.5484 18.7743C56.5075 18.6609 56.6902 17.9642 56.7652 17.5861C56.648 17.5561 56.5268 17.5352 56.4051 17.5222C56.1372 17.8544 55.8958 18.7025 55.6757 18.7144C54.1947 18.8961 54.3294 21.1572 52.465 20.3407C52.4329 20.3639 52.4024 20.3875 52.3735 20.4114L53.2106 18.982C53.2603 20.2521 53.8638 21.3435 53.4878 22.3155C52.8878 22.5277 52.6123 22.5757 51.9696 22.7047C51.9295 22.8284 51.8894 22.9493 51.8487 23.0716C52.0911 23.3865 52.3942 23.7773 52.7508 24.2633C52.6327 26.9228 52.9011 29.3865 50.7043 32.7583C50.6483 32.827 50.5483 32.9526 50.4827 33.034C49.9923 33.6459 49.9553 35.12 49.6864 35.4416C48.0118 37.4651 46.9639 39.8766 45.3892 41.9383C45.2815 42.0811 44.5331 42.3881 44.4702 42.4429C43.8338 42.992 42.8946 42.9275 42.8111 43.7394C43.1203 44.0108 43.4294 44.2822 43.7387 44.5533C43.7326 44.7416 43.7264 44.9301 43.7201 45.1188C42.9893 45.3128 43.0889 45.2525 42.2398 45.2491C42.0711 46.3233 42.7564 46.1057 42.5505 46.5287C42.2887 47.0684 40.006 49.1583 39.962 49.6163C39.8754 50.4713 40.3291 50.9871 39.8349 52.1434C39.675 52.1219 39.5153 52.1002 39.3557 52.0783C38.0701 51.9027 37.9606 51.8053 37.2612 52.3245C37.2728 52.4952 37.285 52.665 37.2979 52.8339C37.8391 52.9625 38.3313 53.0777 38.8676 53.2312C38.9658 53.7158 38.1112 54.9259 37.0323 56.2299L35.0866 58.5991L32.69 58.4502C30.398 58.3006 27.6888 57.9185 26.7695 57.8334C26.5084 57.452 26.241 57.0944 25.9499 56.7527C25.7752 56.7563 25.6005 56.7599 25.4258 56.7634C24.4386 56.5251 23.2643 55.9474 22.5332 55.0178C22.5907 54.5596 22.6482 54.1014 22.7056 53.6432C25.0364 55.218 29.9833 52.3706 32.69 53.2369L32.754 53.2408L32.806 53.1776C33.44 52.7137 34.216 52.5506 35.2064 52.8916C35.2563 52.9916 35.3037 53.095 35.3518 53.1974C35.6981 53.9255 35.8035 54.3493 36.4923 54.8115C36.6318 54.7134 36.773 54.6131 36.9157 54.5107C36.5625 53.1232 35.0912 52.3823 33.7976 51.4952C33.8936 48.9812 35.4108 50.7742 35.9759 49.2986C37.0393 46.5394 36.9392 43.4618 39.3271 41.4773C40.6019 40.4195 40.4009 40.6419 39.8355 39.2009C40.75 37.79 41.4348 38.0293 42.568 37.0188C42.9444 36.6841 42.4312 35.255 43.1673 34.2898C43.9098 34.4426 43.6197 34.3364 44.3152 34.8302C44.4261 34.7614 44.5362 34.6936 44.6456 34.6269C44.2652 33.9511 44.5031 34.2666 43.792 33.727C43.8818 33.6558 43.9708 33.5856 44.0591 33.5165C44.3262 33.5991 44.5927 33.6825 44.8587 33.7668C45.1252 33.507 45.9378 31.8506 47.0381 29.8254C47.5691 28.0954 47.4146 23.7986 47.5638 23.7569C49.5946 21.3672 48.6219 20.167 48.3338 18.7111L48.3247 17.3282L49.7513 16.2907C50.6149 15.5096 51.8092 14.7699 54.2575 15.0405C54.4771 15.0813 55.0174 14.5478 56.1903 14.2141C56.7757 14.0578 57.5703 13.9681 58.4876 14.2206C59.4 14.457 60.3567 15.1292 60.8556 15.8843C61.3064 17.4038 61.041 17.4646 60.6201 18.2326C60.5739 18.2804 60.5242 18.3315 60.4706 18.3868C60.4856 18.5708 60.5018 18.7796 60.5047 18.9439C61.3698 19.0902 61.0751 19.0763 61.9792 19.0068C62.0298 19.1336 62.0801 19.2642 62.1302 19.3986C62.0025 19.6257 61.8654 19.8125 61.7313 20.021C62.4173 20.9052 62.5641 20.7845 62.5913 21.7115C61.9456 22.4294 61.3264 22.8717 61.1771 23.6097C61.5339 23.8069 61.8915 24.0219 62.2464 24.2214C62.2931 25.4799 61.6249 26.576 61.993 28.0917C62.1885 28.7279 62.8255 33.4691 62.9705 33.2972C60.9033 35.3658 64.6963 38.2452 60.9904 39.4442C60.9347 40.422 61.2062 41.1637 59.8509 42.6758C59.8374 42.6946 59.8237 42.7137 59.8098 42.7329C58.8173 42.5817 58.9388 42.4613 58.3763 42.97C58.5147 43.7114 58.8149 43.9842 59.3892 44.6661C59.3464 44.7184 59.3034 44.7721 59.2613 44.826C59.0299 44.6154 58.8004 44.4026 58.5726 44.1878C57.4642 44.4714 58.2991 46.4698 58.3001 47.3753L54.6073 42.2519C54.8624 42.2069 55.162 42.1946 55.451 42.2281C55.4859 42.3191 55.521 42.41 55.5561 42.501C55.3647 42.7614 55.1711 43.0218 54.9744 43.2822C55.4662 43.9497 55.729 44.0186 56.3296 44.4715C56.7123 43.8518 56.7202 43.7299 56.9615 42.9883C57.1006 42.9159 57.2413 42.8435 57.3833 42.771C57.6036 43.359 57.7983 43.8333 58.1058 44.3497C58.2535 44.2844 58.3923 44.2191 58.5364 44.1538C59.6034 40.0538 62.4246 43.253 63.4808 41.8228C63.5168 41.6436 63.5527 41.4643 63.5887 41.2851C63.8097 41.2657 64.0309 41.2462 64.2521 41.2268C64.2807 41.4238 64.3094 41.6207 64.338 41.8177C64.1014 42.2653 63.865 42.7129 63.6286 43.1604C63.6859 43.2584 63.7432 43.3564 63.8005 43.4543C66.0612 42.9378 68.2306 42.6414 70.5017 42.0667C70.8695 42.6122 70.7471 42.3792 70.9191 43.1129C71.0457 43.0917 71.1806 43.0705 71.3093 43.0494C71.6206 42.2866 71.9423 41.5288 72.2637 40.7739C74.106 40.5139 75.3869 42.0132 77.0592 41.3533C77.1634 41.3411 77.2685 41.3305 77.3744 41.3216C80.0068 41.2559 80.7407 41.9 81.8468 43.0801C81.3863 43.5742 81.3215 43.4693 81.2824 44.2371C81.465 44.3623 81.6452 44.4999 81.807 44.6295C82.188 44.5255 82.5794 44.4422 82.975 44.3735C83.1219 44.5664 83.2602 44.7634 83.386 44.9561C83.1747 45.2285 82.9556 45.4924 82.7296 45.7481C83.8752 47.2433 84.3733 47.6365 84.9273 48.3115C85.3969 49.019 86.0565 49.839 85.6139 52.8871C85.4899 53.0313 85.3636 53.1664 85.2326 53.309C84.9008 52.9786 84.5512 52.6911 84.1916 52.4344C83.8971 53.6104 83.9343 53.4447 83.8922 54.8638C84.2844 55.5976 84.363 55.7875 84.7287 56.5225C83.2851 59.0008 82.1835 59.1335 80.8361 58.7941C80.7017 58.7252 80.5576 58.6449 80.4026 58.5516Z" fill="#34140B"/>
<path d="M59.2233 90.5447C56.6694 92.1121 58.6669 92.4203 55.6889 90.9099C53.2363 89.661 54.2082 92.9802 51.1879 89.4361C50.9488 90.2097 51.0289 89.9359 50.9607 90.888C50.6216 91.0368 48.4479 90.6721 46.4901 90.3322L45.3458 90.1406C44.1074 89.533 42.9624 88.9671 42.515 88.8099C42.4516 88.5053 42.3883 88.2006 42.3249 87.896C41.9322 87.8572 40.188 87.8164 40.0339 87.6784C38.7342 86.5311 37.4714 85.9182 35.9752 85.2809C36.0186 84.5221 35.9763 84.8142 36.209 84.0128C35.7875 83.7369 35.5612 84.0875 35.058 84.6723C34.8897 84.5973 34.6117 84.4737 34.2496 84.3108L34.9032 84.399C31.6637 84.1566 22.231 83.3602 21.4389 81.9699C21.4246 81.7663 21.4103 81.5628 21.396 81.3592C21.9375 80.447 22.6752 80.3938 23.3932 80.3438C25.4337 80.1986 27.5518 80.7472 29.5992 80.9172C31.3281 81.0612 33.0545 81.1957 34.7806 81.334L35.1797 81.3878C37.6798 82.5282 40.176 83.677 42.6585 84.8863C43.9178 85.4989 45.1785 86.09 46.4717 86.602L46.5785 86.6199C46.8249 86.643 47.0767 86.6635 47.3297 86.6808C48.1119 86.7335 48.9726 86.565 49.7431 86.7677C50.7849 87.0402 51.7954 88.1275 52.7676 87.0782C53.5898 86.1912 59.9877 87.1254 61.2959 87.1888C62.0911 87.2301 62.8875 87.189 63.6837 87.144L63.738 87.1423C64.3921 87.039 65.0495 86.9487 65.7094 86.9179C66.7748 86.8682 67.8464 87.1455 68.9056 87.0977C69.9861 87.05 71.0861 86.6331 72.1821 86.5812C73.1916 86.5324 74.2 86.4908 75.2028 86.4287C75.639 86.3924 76.0818 86.3564 76.5234 86.319C80.0187 86.015 80.8406 81.1986 79.4907 78.7963C79.54 78.7561 79.9181 77.9723 79.8933 77.953C79.6127 77.558 78.8176 77.247 78.2685 77.329L78.8437 77.3768C77.9805 77.7037 77.1294 77.8942 76.6377 77.4977C76.5208 77.121 76.4039 76.7443 76.287 76.3676C76.1825 76.392 76.078 76.4164 75.9735 76.4409C76.101 77.2467 76.0267 76.8401 76.1982 77.6531C75.3806 78.0756 73.997 78.171 72.6402 78.3456C70.5611 78.6148 67.4787 80.2083 65.227 79.6207L65.18 76.374C65.1325 76.4191 65.1809 76.4785 65.2455 76.5352C65.3441 76.621 65.4218 77.3383 65.4819 77.7184C65.5792 77.707 65.658 77.6952 65.7556 77.6792C65.8537 77.2995 65.9274 76.4256 66.1386 76.3956C67.3309 76.2066 67.4638 74.0115 68.9279 75.3187C69.7852 74.9982 70.2937 74.0575 71.0688 74.1355C71.404 74.6381 71.5289 74.882 71.8269 75.4471C71.9193 75.4483 72.012 75.4495 72.1049 75.4508C72.2258 75.1292 72.3747 74.7268 72.5634 74.2423C74.3019 73.3786 76.2448 72.6821 78.3216 72.5055C78.3505 72.5031 78.38 72.4989 78.4098 72.4931C78.5652 72.4488 78.6903 72.2099 78.7249 71.9915C78.7678 71.771 78.7253 71.5803 78.7502 71.5811C79.0689 71.5676 78.8298 70.9015 78.801 70.2565C78.8025 70.22 79.1876 69.9632 79.1968 69.9285C79.3369 69.6787 79.9972 69.1769 79.5218 69.1585C79.1576 69.3464 78.7967 69.5404 78.4393 69.7408C78.3393 69.7791 78.2439 69.8269 78.1548 69.8842C78.5318 69.5935 78.5118 69.6352 78.982 69.13C78.7624 69.2607 78.6317 69.4564 78.5165 69.5921C78.4054 69.732 78.3202 69.8273 78.3192 69.8781C78.3048 69.9541 78.6246 69.9177 78.7124 69.795L79.0404 69.822C78.5132 69.7101 78.0429 69.6323 77.916 69.7282C77.3727 70.1385 77.2381 70.8039 76.3551 71.0469C76.3068 70.9027 76.2586 70.7586 76.2104 70.6144C75.8166 69.4536 75.8423 69.3087 75.2559 69.0229C75.1598 69.1286 75.0638 69.2343 74.9678 69.34C75.0989 69.8595 75.2135 70.3307 75.3314 70.8603C74.7385 71.6899 69.7811 70.4394 68.6494 70.2457C68.4794 69.8572 68.3038 69.4923 68.1109 69.1427C67.9868 69.1413 67.8626 69.1399 67.7385 69.1385C67.0473 68.8723 66.2369 68.2618 65.7552 67.3121C65.8143 66.8559 65.8734 66.3997 65.9325 65.9436C67.9692 68.0421 73.3372 63.0245 74.1281 67.6442C74.0858 67.7416 74.0436 67.839 74.0014 67.9364C73.7038 68.6322 73.4834 68.9573 73.4715 69.7865C73.5865 69.8468 73.7015 69.9071 73.8164 69.9674C74.5111 68.8951 74.3919 67.2626 74.4263 65.6947C75.9664 64.3595 75.4727 66.6218 76.5749 66.2577C77.4957 65.9554 78.365 65.4243 79.233 65.0056L79.3103 65.012C80.6851 64.547 82.6475 65.3755 83.052 66.9773C83.3786 68.4867 83.1779 68.0968 84.6839 68.5593C85.1032 70.2194 84.367 70.5083 83.8724 71.7661C83.6839 72.1368 84.7523 73.3321 83.9654 74.5716C83.1977 74.4855 83.4997 74.5603 82.7913 74.0876C82.6864 74.1526 82.5799 74.2136 82.4728 74.2698C82.8248 74.955 82.5965 74.6328 83.2667 75.2241C83.1631 75.2978 83.0574 75.3684 82.951 75.4345C82.6894 75.3248 82.4347 75.2041 82.1881 75.0728C81.9632 75.2341 80.7962 76.5855 78.8681 77.0754C76.7951 77.8434 74.202 79.3403 74.0149 79.2441C70.3747 77.4546 71.5314 81.499 67.5012 80.0557C67.3901 80.014 67.1622 80.3114 66.7853 80.6738C66.6021 80.8532 66.3725 81.0517 66.0658 81.226C65.7333 81.3927 65.4329 81.5769 64.6033 81.5649L64.5004 74.4487C64.6498 74.382 64.7999 74.3437 64.947 74.3473C65.4526 74.7951 65.4506 74.9024 65.8567 75.6824C65.9711 75.7011 66.0856 75.7199 66.2 75.7386C66.2966 74.9066 66.2812 75.1947 66.2322 74.2949C66.3147 74.2602 66.3972 74.2255 66.4798 74.1908C66.6171 74.3426 66.7545 74.4945 66.8919 74.6463C67.4628 74.0392 67.375 73.8831 67.9961 73.9081C68.511 74.5847 68.8477 75.2169 69.3713 75.384C69.4916 75.0337 69.6119 74.6833 69.7323 74.333C70.5953 74.3054 71.4108 74.9692 72.43 74.5639C72.8685 74.3899 76.0158 73.4474 75.8597 73.2848C76.8197 74.285 77.5435 73.5186 78.2439 73.1069L79.5642 73.2165C80.8469 73.312 82.0588 74.2817 81.3867 75.8343C82.1556 76.2946 82.6308 76.728 83.0917 77.4528C82.656 78.5239 82.5699 78.2388 82.6911 79.0428C83.3647 79.4109 83.7558 79.3998 84.6549 79.539C84.6645 79.6374 84.6728 79.7366 84.6795 79.8332C84.3657 79.8188 84.052 79.8082 83.7384 79.8001C83.0078 80.9722 85.5151 82.3672 84.4259 84.804C84.3271 84.8088 84.2285 84.8126 84.13 84.8154C83.9614 84.5277 83.7813 84.2532 83.5911 83.993C82.8097 84.2316 82.663 84.4309 82.0203 84.7376C82.4261 85.318 82.524 85.3883 83.047 85.9733C83.0357 86.1397 83.0189 86.3084 82.995 86.4807C82.3665 86.3717 81.8589 86.2737 81.2718 86.1891C81.239 86.3377 81.2014 86.4861 81.1557 86.6373C82.3711 88.3799 81.403 89.6496 80.0583 90.1433C78.6854 90.6797 77.3281 90.3778 76.632 91.0933C76.5974 91.2211 76.5612 91.3486 76.5234 91.476C76.5158 91.5279 76.5081 91.5798 76.5004 91.6317C76.3371 91.6511 76.175 91.6702 76.0136 91.6891C75.9934 91.4921 75.9731 91.295 75.9532 91.098C76.1266 90.651 76.2995 90.2039 76.4716 89.7563C76.43 89.6584 76.3885 89.5604 76.3472 89.4623C75.9507 89.5869 75.5604 89.6971 75.1724 89.8008L75.1115 89.7997C73.8438 90.0983 72.6093 90.303 71.3778 90.6728C71.1489 90.1143 71.2224 90.3515 71.1394 89.6124C71.0478 89.6288 70.956 89.6451 70.865 89.6616C70.607 90.4121 70.3504 91.1581 70.0963 91.9019C68.8345 92.1092 68.023 90.5261 66.9122 91.2875C66.4242 91.6289 66.3049 91.6376 65.8867 91.3961C65.8667 90.7237 65.9145 90.7482 65.7394 90.166C65.6696 90.2047 65.5997 90.2437 65.5297 90.2828C65.4842 90.6399 65.4418 90.997 65.4003 91.3542C65.3241 91.356 65.2477 91.358 65.1709 91.3603C65.1172 91.0359 65.0627 90.7115 65.0071 90.3874C64.5122 90.5782 64.2636 90.8595 64.0613 91.1269L63.6098 91.141C63.1224 91.6148 62.8265 92.0564 61.2877 91.6711C61.2329 91.5606 61.1782 91.4501 61.1235 91.3395C61.2325 90.9663 61.3417 90.593 61.4507 90.2198C60.9468 90.0405 60.9816 90.0123 60.5107 90.4058C60.3335 91.0381 60.2949 91.1937 60.1751 91.8669C59.4917 91.9859 59.5255 91.801 59.2233 90.5447Z" fill="#34140B"/>
</svg>
