<svg width="336" height="39" viewBox="0 0 336 39" fill="none" xmlns="http://www.w3.org/2000/svg">
<path d="M0.839099 7.03845L0.158202 29.0595C0.0714372 31.8656 2.31141 34.1931 5.11875 34.2139L204.578 35.6924H244.586H324.62C325.225 35.6924 325.838 35.6083 326.335 35.2636C330.792 32.1729 334.194 18.033 333.982 8.37276C333.928 5.90877 331.77 4.17535 329.306 4.17416C306.607 4.16323 282.974 -0.586282 257.937 3.08391C257.699 3.11876 257.459 3.1375 257.218 3.13857C147.53 3.62917 30.6819 2.45869 5.81238 2.18951C3.0885 2.16003 0.923287 4.31571 0.839099 7.03845Z" fill="#FDC104"/>
<path d="M220.082 37.387C207.145 37.9512 214.765 38.1211 204.578 37.7026L204.563 37.7026C203.247 37.6389 201.634 37.5633 199.641 37.4754C185.283 36.8524 191.322 38.2141 173.391 36.6679C172.096 36.9593 172.524 36.8558 172.25 37.2245C168.956 37.2886 135.019 36.53 128.312 36.4585C127.427 36.3519 126.541 36.2458 125.656 36.1401C123.417 36.1498 113.704 36.2314 112.61 36.1905C103.41 35.8575 95.3532 35.7187 85.963 35.5833C84.8703 35.3279 85.1496 35.4278 85.0282 35.1485C82.2138 35.0808 81.5788 35.21 79.824 35.4291C71.8048 35.3043 24.3837 34.6145 5.11926 34.145C3.02274 34.0932 1.58048 32.7627 0.991957 31.6448C0.374439 30.496 0.414302 29.5583 0.449782 29.1697C0.506584 29.1366 0.563715 29.1047 0.62114 29.0738C0.63342 31.1866 2.57521 33.5455 5.12411 33.4913C6.3943 33.4896 7.68396 33.4951 8.96278 33.5006C20.8229 33.549 32.9698 33.8056 44.7962 33.9586C70.6301 34.2906 96.382 34.6254 122.215 35.0474C131.704 35.2022 141.152 35.3514 150.674 35.4526C155.234 35.5009 160.172 35.4667 164.682 35.5724C170.747 35.7128 176.744 36.1827 182.253 35.8044C184.486 35.6503 194.219 35.7059 204.577 35.817C215.804 35.8538 227.765 35.954 231.712 35.9648C236.005 35.9769 240.296 35.9587 244.586 35.9363C248.784 35.9146 252.981 35.8889 257.178 35.886C263.408 35.8814 269.704 36.0066 275.91 35.9733C282.239 35.9402 288.486 35.7212 294.816 35.6683C304.744 35.5854 314.68 35.5117 324.62 35.4391C325.193 35.4362 325.76 35.3468 326.184 35.0447C332.399 28.1109 333.355 17.5843 333.501 8.38331C333.493 6.26453 331.393 4.64334 329.305 4.71266C321.949 4.76998 314.606 4.34485 307.289 3.89332C306.988 3.84622 303.04 3.19802 302.983 3.19522C296.698 2.72303 281.222 2.60557 276.168 2.3198C275.8 2.11256 275.43 1.90624 275.058 1.70088C274.437 1.71844 273.818 1.73945 273.199 1.76409C273.295 2.20793 273.19 1.9849 273.531 2.42844C269.655 2.67076 264.002 2.99616 258.052 3.86839C257.779 3.90809 257.502 3.92963 257.222 3.9306C255.691 3.93564 254.139 3.94017 252.589 3.9461C239.762 3.99253 219.339 4.80631 206.991 4.12422C206.021 4.07086 206.119 3.64367 205.98 3.41689C205.424 3.41765 204.864 3.41838 204.306 3.41907C203.382 3.63238 201.816 4.13481 200.458 4.12683C193.06 4.08185 188.933 5.33122 182.711 4.33757C177.405 4.38439 173.169 4.85467 169.033 4.68415C167.933 4.33193 167.605 4.16681 166.777 3.78229C166.266 3.76626 165.756 3.75017 165.246 3.73404C164.104 3.90526 162.687 4.12061 160.981 4.38096C150.226 4.62447 139.032 4.76858 128.149 4.71217C124.811 4.69395 119.716 5.22768 118.061 5.20853C107.102 5.08803 96.5784 5.4312 85.8494 5.35255C85.0977 5.34792 82.3083 5.05253 81.9492 5.03818C78.4997 4.89511 76.5426 4.34739 73.5905 4.6086C73.4328 4.8846 73.2752 5.16072 73.1178 5.43696C72.4658 5.50559 71.8171 5.57435 71.1716 5.64323C68.7589 5.30919 69.2108 5.34208 67.187 4.86369C63.1311 5.17913 65.5508 5.48268 63.6297 5.52911C61.2906 5.59271 48.6335 5.09741 47.077 5.24786C43.99 5.5289 43.3925 5.99164 38.3014 6.15857C37.9851 6.05759 37.6705 5.95654 37.3575 5.85541C34.8147 5.04022 34.9915 4.93851 31.4627 4.72993C30.9301 4.80312 30.4035 4.87645 29.8829 4.94993C30.7403 5.31745 31.5075 5.65012 32.3201 6.02317C30.2946 6.4113 16.4304 6.13917 5.77279 5.84697C5.01504 5.77694 4.40814 6.41734 4.36132 7.14735C4.26588 9.09868 4.18862 10.6848 4.14284 11.7199C3.83565 12.7865 3.54422 13.8799 3.2609 15.0708C3.24294 15.7905 3.22498 16.5102 3.20704 17.2299C2.91698 21.2904 2.35418 26.1136 1.5783 29.1034C1.24715 28.8563 0.916199 28.6091 0.585461 28.3619C1.35452 23.3046 1.29742 15.2053 1.23065 7.05055C1.12487 4.61355 3.29648 2.27365 5.81119 2.29866C14.4557 2.12417 22.0199 2.24161 24.6364 3.73841C24.42 3.80664 24.205 3.87493 23.9912 3.94326C22.3748 4.43058 21.1666 4.6585 21.2873 5.24749C21.9648 5.29174 22.6576 5.33603 23.3653 5.38034C27.094 4.62778 26.0612 3.47433 25.9033 2.36429C34.5252 1.46309 32.2337 3.04516 38.4971 2.81177C50.3364 2.3777 60.2655 1.17724 72.6867 1.79817C79.3304 2.12638 78.0289 2.09135 81.5079 1.24331C88.3791 1.23728 89.3274 1.70775 95.3686 1.96021C97.4126 2.04354 100.899 1.23853 105.89 1.28927C107.18 1.74922 106.834 1.5524 106.889 2.11096C107.389 2.14584 107.891 2.18067 108.394 2.21543C109.71 1.76162 109.227 2.00613 109.288 1.42369C109.727 1.4463 110.168 1.46886 110.609 1.4914C110.984 1.66604 111.36 1.84048 111.737 2.01473C115.273 2.12424 158.355 1.00991 159.853 1.15078C178.118 2.84056 178.112 0.324646 197.547 1.82063C198.75 1.91443 206.237 1.02455 211.612 1.12542C214.156 1.43062 214.058 1.49248 215.764 1.97807C216.407 1.99846 217.048 2.01876 217.69 2.03898C218.914 1.56678 218.594 1.73181 219.037 1.20917C219.539 1.19633 220.041 1.18349 220.543 1.17064C221.209 1.26976 221.876 1.36862 222.543 1.46721C226.313 1.16622 225.935 1.07078 229.481 1.1359C231.893 1.56324 233.319 1.94769 236.192 2.08008C237.165 1.89012 238.139 1.70066 239.113 1.51169C244.092 1.56041 248.244 1.98759 254.423 1.82487C254.901 1.81239 255.9 1.79157 257.212 1.76505C257.379 1.76069 257.554 1.74433 257.736 1.71376C263.953 0.55418 275.67 0.0164672 275.057 0.000447512C283.796 0.954569 292.826 -0.594519 298.797 1.58825C302.095 1.66882 304.329 1.73408 307.681 1.8972C311.196 2.55466 310.114 2.48068 313.801 2.75678C316.027 2.5872 316.175 2.38563 317.143 1.98688C317.527 2.00958 317.911 2.03162 318.295 2.05292C318.134 2.20603 317.973 2.35911 317.812 2.51216C321.253 2.96818 324.749 2.68862 329.306 2.40872C331.927 2.17082 335.861 4.17442 335.976 8.329C335.987 8.86941 335.984 9.43419 335.966 10.0035C335.917 10.1555 335.867 10.308 335.817 10.4559C335.725 9.74675 335.618 9.03634 335.491 8.33963C335.468 8.17685 335.438 8.01828 335.402 7.85896C335.399 8.02708 335.388 8.18606 335.373 8.34222C335.112 10.1796 335.04 11.3025 334.63 13.6602C334.792 15.271 334.839 15.311 335.079 16.3787C335.038 16.9677 334.988 17.5587 334.93 18.1476C334.491 19.0184 334.114 19.8044 333.606 20.9966C333.516 21.5904 333.417 22.1863 333.31 22.78C333.756 25.98 332.634 32.4572 327.445 36.8635C326.384 37.5667 325.344 37.6048 324.62 37.6069C322.904 37.5884 321.409 37.6206 320.347 37.7867C320.199 37.8732 320.051 37.9596 319.903 38.0459C318.992 38.0525 318.081 38.059 317.17 38.0655C317.052 37.9701 316.934 37.8747 316.816 37.7794C317.79 37.5662 318.764 37.3522 319.738 37.1373C319.502 37.0894 319.266 37.0416 319.03 36.9938C309.721 37.2269 300.782 37.3488 291.432 37.5928C289.919 37.3349 290.42 37.4446 289.704 37.1018C289.172 37.1106 288.64 37.1194 288.107 37.1282C286.815 37.4795 285.507 37.8265 284.174 38.1702C276.462 38.2625 271.095 37.5385 264.017 37.8583C260.84 37.9991 260.017 37.9978 257.342 37.8764C257.358 37.5778 257.655 37.59 256.667 37.3266C256.215 37.3416 255.762 37.3565 255.309 37.3715C254.93 37.5277 254.552 37.6837 254.173 37.8394C253.674 37.8371 253.174 37.8348 252.675 37.8325C252.434 37.6876 252.192 37.5428 251.951 37.3983C247.989 37.4768 246.266 37.6243 244.586 37.7482C242.272 37.9192 240.041 38.0436 232.165 37.8829C231.835 37.835 231.506 37.7872 231.177 37.7394C231.767 37.5808 232.357 37.4219 232.947 37.2625C230.008 37.1829 230.206 37.1718 227.523 37.3365C226.568 37.6041 226.362 37.6697 225.745 37.9539C221.803 37.9966 221.975 37.9176 220.082 37.387Z" fill="#FDC104"/>
</svg>
