<svg width="436" height="38" viewBox="0 0 436 38" fill="none" xmlns="http://www.w3.org/2000/svg">
<path d="M253.816 37.4218C234.795 37.7205 249.904 37.7699 227.218 37.5025C208.518 37.2814 216.394 37.8902 193.033 37.2482C191.351 37.3919 191.907 37.3411 191.554 37.5171C187.265 37.566 143.073 37.3641 134.339 37.3577C133.186 37.3077 132.032 37.2576 130.879 37.2076C127.964 37.2227 115.318 37.3132 113.893 37.2975C101.912 37.1684 91.4205 37.1313 79.1932 37.1029C77.768 36.967 78.1327 37.0208 77.9719 36.8668C74.3069 36.8418 73.4815 36.9162 71.1988 37.0472C63.8971 37.0273 31.5077 36.9405 4.10937 36.8144C1.86075 36.854 -0.0672754 34.8167 0.00228132 32.6772C0.0601175 21.0949 0.125094 10.9189 0.194905 4.67725C0.2131 3.09056 1.15773 1.95978 1.99547 1.44681C2.85432 0.91308 3.60313 0.873198 3.97665 0.875323C4.02199 0.911447 4.06623 0.948364 4.10938 0.986019C2.34849 0.991848 0.495213 2.61663 0.555007 4.67725C0.586156 7.59209 0.588509 10.7056 0.590716 13.7713C0.595472 20.0293 0.579113 26.3488 0.55488 32.6772C0.499497 34.5691 2.20207 36.2949 4.10937 36.2579C11.3029 36.2897 18.4854 36.3261 25.579 36.3475C59.2176 36.4492 92.7494 36.5391 126.388 36.6594C138.744 36.7034 151.046 36.7421 163.445 36.7558C169.382 36.7621 175.811 36.7274 181.684 36.7616C189.582 36.8076 197.395 37.0042 204.564 36.8066C210.619 36.6394 259.078 36.7875 268.958 36.7949C280.017 36.8037 291.067 36.7612 302.115 36.7577C310.227 36.7553 318.425 36.8056 326.505 36.791C334.746 36.7763 342.88 36.6883 351.12 36.6678C377.755 36.6007 404.436 36.5543 431.109 36.4987C433.145 36.5437 434.972 34.7051 434.918 32.6772C434.897 23.3418 434.876 14.0077 434.852 4.67725C434.851 4.1091 434.72 3.54405 434.469 3.0364C434.416 2.92405 434.131 2.28343 433.486 1.73815C432.858 1.17747 431.871 0.831533 431.109 0.83207C430.428 0.815841 429.939 0.804452 429.917 0.804599C421.729 0.82612 401.529 1.05687 394.917 0.884261C394.438 0.812389 393.96 0.740518 393.481 0.668646C392.674 0.670429 391.867 0.672212 391.059 0.673995C391.166 0.824597 391.038 0.748356 391.466 0.90139C384.908 0.957622 374.46 0.939539 364.129 0.936605C347.433 0.932204 320.846 1.16837 304.772 0.948831C303.508 0.931719 303.635 0.798267 303.453 0.727358C302.728 0.727506 302.003 0.727655 301.277 0.727803C300.077 0.794307 298.041 0.9503 296.273 0.947366C286.618 0.932702 281.27 1.31409 273.169 1.00996C266.268 1.02463 260.748 1.1669 255.369 1.11605C253.933 1.01044 253.504 0.961023 252.422 0.846118C251.754 0.841554 251.086 0.83699 250.418 0.832427C248.939 0.884259 247.106 0.949301 244.888 1.02754C230.893 1.10431 216.276 1.15176 202.141 1.14394C197.779 1.1415 191.2 1.29842 189.003 1.29403C174.75 1.2686 161.065 1.37524 147.101 1.36497C146.125 1.36446 142.429 1.28625 142.001 1.28282C137.586 1.24762 134.907 1.10045 131.124 1.17623C130.924 1.25185 130.724 1.32748 130.523 1.40311C129.684 1.42266 128.845 1.44221 128.006 1.46176C124.855 1.37374 125.433 1.38207 122.765 1.25493C117.568 1.34637 120.675 1.42508 118.189 1.44024C115.007 1.45979 98.7523 1.3454 96.6069 1.3884C92.6312 1.46811 91.8163 1.59183 85.226 1.64318C84.8186 1.61694 84.4111 1.59071 84.0037 1.56447C80.6817 1.35324 80.8317 1.32633 76.3201 1.27792C75.6274 1.29813 74.9346 1.31834 74.2418 1.33854C75.3884 1.4334 76.395 1.51949 77.4452 1.61631C73.2208 1.77373 35.4341 1.57963 26.8356 1.55225C25.4351 1.48184 24.0003 1.41582 22.4391 1.35274C21.5018 1.3534 20.5645 1.35406 19.6271 1.35472C14.3311 1.31071 8.03156 1.20407 4.10938 1.03244C4.41775 0.947854 4.72612 0.863268 5.0345 0.778682C21.0372 1.15077 60.0306 0.185565 67.3933 1.03193C67.1042 1.05021 66.815 1.06848 66.5258 1.08676C64.4898 1.21731 62.9252 1.27891 63.0859 1.43196C63.9716 1.44223 64.8573 1.45251 65.743 1.46278C70.6618 1.25985 69.2696 0.959589 69.0552 0.670111C80.2745 0.412444 77.2314 0.833399 85.4395 0.758114C100.764 0.618265 113.806 0.269604 129.934 0.41043C138.54 0.485734 136.932 0.479886 141.401 0.238817C150.402 0.221705 151.506 0.349841 159.468 0.40852C162.115 0.428079 166.659 0.195807 173.153 0.199719C174.825 0.326842 174.375 0.272085 174.45 0.429534C175.096 0.438491 175.743 0.447449 176.389 0.456406C178.114 0.325853 177.483 0.39577 177.558 0.230985C178.137 0.236525 178.715 0.242065 179.293 0.247605C179.787 0.29634 180.28 0.345075 180.773 0.39381C185.373 0.41921 241.452 0.027146 243.409 0.0666946C267.199 0.552252 267.157 -0.211042 292.479 0.232449C294.055 0.261299 303.785 -0.0203007 310.793 0.00804687C314.105 0.102905 313.977 0.122463 316.195 0.275496C317.031 0.281864 317.867 0.288232 318.703 0.294599C320.3 0.144971 319.882 0.197246 320.46 0.0314805C321.114 0.0272565 321.768 0.0230325 322.421 0.0188085C323.289 0.0500958 324.157 0.0813831 325.025 0.11267C329.933 0.016344 329.44 -0.0144604 334.059 0.00607282C337.199 0.142988 339.053 0.267211 342.793 0.31122C344.061 0.250258 345.329 0.189297 346.597 0.128335C353.08 0.14545 358.482 0.287756 366.53 0.239836C369.992 0.219296 394.521 0.127815 393.524 0.0940763C404.819 0.47646 416.414 -0.258456 424.333 0.350318C426.881 0.318934 428.94 0.292903 431.109 0.270686C432.728 0.239671 434.501 1.19954 435.25 3.05146C435.472 3.66857 435.522 4.21884 435.509 4.67725C435.416 7.55153 435.414 7.00829 435.405 11.218C435.516 14.1006 435.589 14.2828 435.751 15.515C435.751 16.0187 435.751 16.5225 435.751 17.0262C435.693 16.8263 435.636 16.6264 435.578 16.4265C435.475 21.2448 435.66 26.0785 435.767 32.6772C435.877 34.9231 433.88 37.42 431.109 37.4001C429.934 37.4047 428.706 37.4052 427.421 37.4003C427.232 37.3835 427.042 37.3667 426.853 37.3499C427.892 37.3018 428.932 37.2537 429.971 37.2057C427.367 37.0824 425.963 37.0697 422.705 36.9861C420.669 37.1005 420.626 37.123 419.319 37.2599C418.569 37.2733 417.819 37.2867 417.069 37.3C415.89 37.1915 414.818 37.1039 413.189 37.0086C412.418 37.0206 411.646 37.0327 410.874 37.0447C405.152 37.8017 390.032 37.211 384.363 37.4751C384.17 37.5082 383.977 37.5413 383.784 37.5743C382.598 37.5779 381.412 37.5815 380.226 37.5851C380.073 37.5488 379.919 37.5124 379.766 37.476C381.034 37.3934 382.302 37.3108 383.57 37.2281C383.262 37.21 382.955 37.192 382.648 37.1739C370.528 37.2692 358.889 37.3239 346.716 37.4301C344.744 37.3294 345.398 37.3724 344.466 37.2369C343.772 37.2408 343.079 37.2447 342.386 37.2486C340.704 37.3895 339 37.5294 337.264 37.6687C327.223 37.7176 320.236 37.4296 311.02 37.5689C306.883 37.631 305.811 37.6321 302.329 37.5851C302.35 37.4609 302.736 37.4658 301.451 37.3572C300.861 37.3639 300.271 37.3706 299.682 37.3773C299.189 37.4428 298.696 37.5083 298.203 37.5738C297.553 37.5735 296.903 37.5732 296.252 37.5729C295.938 37.5126 295.624 37.4522 295.31 37.3919C283.05 37.4799 287.251 37.722 269.547 37.6222C269.119 37.602 268.69 37.5818 268.261 37.5616C269.029 37.4923 269.798 37.423 270.566 37.3538C266.74 37.3225 266.997 37.3171 263.504 37.3915C262.261 37.5088 261.993 37.5377 261.189 37.6624C256.056 37.6868 256.281 37.6526 253.816 37.4218Z" fill="#34140B"/>
</svg>
