<svg width="248" height="248" viewBox="0 0 248 248" fill="none" xmlns="http://www.w3.org/2000/svg">
<path d="M244.59 213.923C244.59 224.183 198.373 232.5 141.36 232.5C84.3478 232.5 38.1302 224.183 38.1302 213.923C38.1302 203.664 84.3478 195.347 141.36 195.347C198.373 195.347 244.59 203.664 244.59 213.923Z" fill="#DFCCD4"/>
<path fill-rule="evenodd" clip-rule="evenodd" d="M118.637 158.556C118.465 158.818 118.259 159.131 118.009 159.512C118.164 159.276 118.302 159.066 118.425 158.879C118.501 158.763 118.571 158.656 118.637 158.556Z" fill="#34140B"/>
<path fill-rule="evenodd" clip-rule="evenodd" d="M187.961 179.338L187.98 179.356C189.145 180.464 190.31 181.572 191.476 182.68C190.304 181.566 189.132 180.452 187.961 179.338ZM141.31 161.072C141.261 161.022 141.209 160.97 141.155 160.914L140.932 160.688C141.074 160.832 141.199 160.959 141.31 161.072Z" fill="#34140B"/>
<path fill-rule="evenodd" clip-rule="evenodd" d="M160.382 41.2168C155.267 41.6285 136.867 48.5837 132.15 54.0047C130.023 56.4479 127.737 60.373 125.649 63.9575C123.104 68.3264 120.854 72.1894 119.548 72.247C118.186 72.3071 114.824 70.1893 111.49 68.0893C111.117 67.8543 110.743 67.614 110.368 67.3734C108.571 66.2202 106.742 65.046 104.77 64.2726C101.494 62.9833 87.21 57.3619 76.0596 62.6217C64.7398 67.9614 60.4617 79.3791 59.6726 86.6455C58.8832 93.912 62.9075 106.581 65.278 110.572C67.1187 113.672 73.8723 117.903 78.2137 120.622L78.2226 120.627C83.6227 124.01 88.5669 128.106 93.4827 132.178L93.4873 132.182C93.9922 132.6 94.4967 133.018 95.0015 133.435L95.0101 133.454C96.9349 134.667 102.971 138.636 107.773 141.795C112.709 145.039 117.781 147.927 122.965 150.73L123.402 150.963C123.069 151.473 122.926 151.86 122.586 152.38C121.478 154.076 120.467 155.625 120.405 155.744C120.346 155.841 120.292 155.931 120.241 156.015C119.918 156.55 119.733 156.855 119.544 157.157C119.292 157.558 119.032 157.955 118.425 158.879C118.302 159.066 118.164 159.276 118.009 159.512C112.03 168.523 107.199 177.977 102.3 187.566L101 190.108C99.5762 193.233 97.9148 196.876 97.1027 198.361C97.0342 198.487 96.9705 198.608 96.9093 198.724L96.8975 198.747C96.4167 199.658 96.0985 200.26 94.9916 200.401C93.1239 199.227 91.9705 198.254 90.9921 197.428L90.9871 197.423C89.1785 195.896 87.9686 194.875 83.9498 194.025C82.1486 193.64 77.2363 193.219 75.8387 194.025C69.2264 197.84 69.4207 203.196 74.4508 208.167C81.2546 214.892 90.8541 219.147 95.1583 219.686C95.916 219.793 96.8114 220.074 97.7467 220.368C102.946 222.002 106.045 219.686 107.093 217.816C109.202 214.056 111.316 210.296 113.43 206.535C114.579 204.491 115.728 202.446 116.877 200.401C118.468 197.569 120.302 194.299 121.974 191.315C123.338 188.878 124.595 186.632 125.523 184.969C126.182 183.786 127.384 181.833 128.861 179.431L128.879 179.402C131.457 175.212 134.868 169.666 137.707 164.473C137.765 164.367 137.822 164.326 137.861 164.276L137.904 164.222L140.785 160.537C140.864 160.621 140.915 160.673 140.932 160.688L141.155 160.914C141.591 161.357 141.84 161.609 142.086 161.866C142.412 162.208 142.732 162.557 143.476 163.371C143.627 163.536 143.796 163.72 143.986 163.928C151.232 171.922 159.169 178.885 167.219 185.947L169.352 187.82C172.016 189.95 175.121 192.435 176.355 193.581C176.46 193.679 176.562 193.77 176.659 193.858L176.677 193.874C177.438 194.559 177.941 195.013 177.82 196.14C176.263 197.713 175.063 198.628 174.045 199.403L174.04 199.407C172.159 200.84 170.9 201.799 169.155 205.573C168.37 207.264 166.829 212.02 167.277 213.587C169.399 221.004 174.575 222.052 180.501 218.233C188.518 213.068 194.817 204.569 196.329 200.441C196.607 199.717 197.084 198.898 197.582 198.041C200.352 193.282 198.851 189.684 197.302 188.215C194.195 185.266 191.087 182.311 187.98 179.356L187.961 179.338L187.923 179.302C186.245 177.706 184.567 176.111 182.888 174.516C180.544 172.288 177.837 169.718 175.365 167.376C173.348 165.463 171.487 163.702 170.109 162.4C169.13 161.475 167.537 159.836 165.58 157.82L165.577 157.817L165.555 157.794C162.075 154.212 157.448 149.448 153.059 145.391C153.067 145.385 152.669 144.959 152.207 144.469C153.485 142.043 154.861 139.44 156.254 136.804C160.829 128.146 165.59 119.137 167.677 114.9C169.441 112.331 170.606 110.112 171.484 108.438L171.488 108.432C172.618 106.279 173.995 104.33 175.393 102.353C175.485 102.223 175.577 102.093 175.668 101.963L175.733 101.872L175.738 101.866C179.158 97.0241 184.109 90.0142 185.017 87.5762C186.497 83.6013 190.069 72.8315 189.974 70.6016C189.965 70.3885 189.962 70.0842 189.958 69.7047C189.924 66.1124 187.277 54.3728 181.263 49.4188C174.613 43.9405 165.497 40.8051 160.382 41.2168ZM136.121 131.019C136.594 130.145 137.069 129.267 137.545 128.387C140.965 122.064 144.454 115.612 148.094 109.463L148.098 109.457C150.08 106.108 151.678 103.159 153.2 100.348C155.962 95.2485 158.477 90.6039 162.595 84.8625C164.944 81.585 166.669 79.1498 166.927 78.536C168.756 74.1733 169.112 67.4709 166.941 63.8431C164.769 60.2153 158.509 59.5605 153.418 60.5297C145.904 61.9599 134.231 77.48 130.633 84.2868C130.385 84.7572 130.143 85.2384 129.9 85.7221C129.218 87.0782 128.526 88.4535 127.654 89.6633C126.445 91.3433 121.915 90.6115 119.436 90.2112C115.17 89.5248 110.959 86.6148 106.887 83.8003C104.704 82.2917 102.561 80.8104 100.471 79.7137C97.5083 78.1636 93.8085 77.8144 89.718 78.5633L89.1906 78.6596C82.8827 79.809 79.36 80.4509 80.1408 87.6946C80.5562 91.5068 81.7097 93.974 83.8139 97.2094C90.3583 107.27 99.6767 112.849 109.244 118.576C111.356 119.84 113.48 121.112 115.589 122.44C119.461 124.88 124.609 128.169 129.858 131.538L134.505 134.278C135.095 133.229 135.53 132.282 135.817 131.657C135.95 131.368 136.051 131.149 136.121 131.019Z" fill="#34140B"/>
<path d="M206.393 29.0051C207.617 28.3176 210.817 26.4297 212.188 26.6237C223.517 28.23 213.342 39.0866 209.401 42.867C205.941 46.1845 202.175 50.8858 197.842 52.9411L195.511 54.0838C191.694 55.9325 191.252 55.8233 187.422 54.3739C187.13 52.3396 185.424 49.4104 186.211 47.5187C187.356 44.6454 190.419 43.0981 192.267 41.1701C195.001 38.3166 197.079 35.9971 200.308 33.6796C202.46 32.1348 203.936 30.3321 206.393 29.0051Z" fill="#34140B"/>
<path d="M38.096 139.532C44.8466 139.116 51.351 143.792 44.7963 150.488C40.8342 154.536 30.9677 160.799 25.4347 161C22.4525 160.972 20.6313 161.044 17.7195 160.24C16.8093 159.304 16.3486 158.767 15.5534 157.717C16.8322 155.883 18.5573 154.094 19.8377 152.078C20.9319 150.356 23.6534 148.254 25.2139 146.884C29.3736 143.233 32.4969 140.107 38.096 139.532Z" fill="#34140B"/>
<path d="M150.167 15.5C152.04 15.5594 153.086 16.4052 154.337 17.6822C155.214 22.2623 153.991 25.6122 153.019 30.1539C152.514 32.5138 150.979 34.183 151.096 37.1424C151.172 39.0619 147.026 42.1211 145.434 43.4688C142.706 43.7079 142.289 44.3073 139.302 43.8368C139.079 43.7128 138.896 43.7509 138.643 43.7479C137.66 43.7366 136.094 43.138 135.291 42.542C134.962 42.2975 134.484 41.7953 134.452 41.3571C134.341 39.8598 140.554 25.1259 141.644 22.904C142.523 21.1102 143.6 19.0667 144.888 17.5575C146.255 15.956 148.212 15.6238 150.167 15.5Z" fill="#34140B"/>
<path d="M86.396 29.9194C88.3904 29.617 90.4213 29.7143 92.3814 30.2057C96.0257 31.1522 97.6976 33.0072 99.5417 36.303C101.478 39.5259 104.45 44.7392 102.035 48.4717C101.89 48.6953 96.6196 52.434 96.0951 52.7612C87.3912 55.0361 83.5198 40.1634 79.8082 34.34C82.8933 32.8669 82.4334 30.4967 86.396 29.9194Z" fill="#34140B"/>
<path d="M34.8369 51.0298C36.7351 51.1105 37.4461 51.5787 39.4751 52.1652C44.222 53.537 55.3623 59.1486 56.7779 64.0629C57.4638 66.4442 50.478 71.0375 47.4473 71.1651C45.994 71.4072 43.5236 70.5735 42.3149 69.6828C38.8976 67.1644 35.5714 64.4911 32.1949 61.912C30.3673 60.5161 28.3623 59.3411 26.5676 57.8967C26.2938 57.6758 25.4859 55.8647 25.2821 55.4168C27.2541 54.4769 27.7897 53.5352 29.1912 51.7877C31.3252 51.3695 32.675 51.0658 34.8369 51.0298Z" fill="#34140B"/>
<path d="M18.5961 98.8438C21.918 98.8187 25.079 99.66 28.3428 100.28C30.9181 100.769 38.7581 101.224 39.1587 104.827C38.4655 108.26 34.5374 109.796 32.0158 112.003C30.3892 111.598 26.9583 111.708 25.1096 111.66C22.9923 111.697 20.1026 112.047 18.022 111.761C14.0465 111.215 10.6319 110.417 6.57846 110.022C5.31143 108.324 5.06512 108.003 3.41016 106.672C7.26338 102.685 7.84278 101.001 13.3524 99.9432C15.072 99.6133 16.5787 99.0762 18.5961 98.8438Z" fill="#34140B"/>
</svg>
