<svg width="36" height="36" viewBox="0 0 36 36" fill="none" xmlns="http://www.w3.org/2000/svg">
<path d="M19.5653 12.5529C20.5009 12.737 20.6077 12.459 19.8742 12.9653C19.2679 13.3828 21.052 12.9699 19.2099 13.6597C19.6405 13.622 19.4883 13.636 20.011 13.5611C20.1672 13.6111 19.6844 14.4505 19.6884 14.601C19.543 14.6435 19.3977 14.686 19.2523 14.7285C19.3049 14.7708 19.6062 14.9429 19.5636 14.9741C19.2123 15.2359 19.1296 15.4302 19.0776 15.6498C18.6783 15.7364 18.8368 15.7055 18.3806 15.779C18.3162 15.8524 18.5388 15.8322 18.9333 15.8105C18.8637 16.041 18.394 17.6465 17.5377 17.8872C17.4262 17.9053 17.3147 17.9233 17.2032 17.9414C16.7047 17.9433 16.6771 17.8509 16.6513 17.761C16.576 17.5054 16.881 17.1845 16.9783 16.903C17.1917 16.2879 17.3706 15.68 17.6391 15.0563C17.7372 14.8274 17.8195 14.6017 17.8276 14.386C17.8309 14.2827 17.7111 14.1901 17.7972 14.0751C17.9128 13.9205 18.4752 13.6982 17.8707 13.6679C17.3591 13.6424 17.6712 12.7556 17.6671 12.5853C17.6642 12.3944 17.5093 12.2273 17.4702 12.0422C17.4417 11.9062 17.5695 11.7446 17.5048 11.6148C17.4397 11.4823 17.1575 11.3853 17.0751 11.2556C16.6853 10.6472 16.4243 10.0172 16.0215 9.41037C16.048 9.3994 16.4083 9.25378 16.4067 9.25274C16.3214 9.1243 15.5844 8.88908 16.0788 8.69803C16.2906 8.6569 16.5024 8.61578 16.7143 8.57465C16.7069 8.56183 16.6995 8.54902 16.6921 8.5362C16.2459 8.60724 16.4715 8.57001 16.019 8.6476C15.8351 8.56265 15.8613 8.3778 15.843 8.20192C15.8123 7.91781 15.0425 7.57717 15.6512 7.20467C15.6986 7.17544 16.0946 7.11625 16.3043 7.08058C16.302 7.0684 16.2997 7.05621 16.2973 7.04403C16.097 7.05432 15.6292 7.09163 15.6333 7.0604C15.6515 6.89053 14.5068 6.97551 15.3872 6.69883C15.3256 6.58897 14.8894 6.56112 15.0261 6.44685C15.3354 6.37405 15.4808 6.34408 15.8186 6.27298C15.8304 6.25959 15.8421 6.24621 15.8539 6.23282C15.6964 6.23166 15.4988 6.2306 15.261 6.22908C14.9968 6.02792 14.8178 5.80277 14.8039 5.56036C14.7998 5.48555 14.3173 5.44652 14.3246 5.40738C14.3626 5.15489 14.0106 4.97269 14.0045 4.73205C14.0035 4.71532 14.2256 4.61692 14.2347 4.60811C14.3275 4.51733 14.7567 4.40442 14.5222 4.37534C14.2975 4.40673 14.0727 4.43811 13.848 4.46949C13.7878 4.4643 13.7277 4.4591 13.6675 4.45391C13.9202 4.36022 13.897 4.37381 14.2669 4.27029C13.9823 4.22451 13.7571 4.3132 13.7056 4.27816C13.6393 4.23338 13.9358 3.90617 13.8027 3.88969C13.556 3.85916 13.1871 3.90227 13.0176 3.81452C13.0943 3.79558 13.171 3.77664 13.2477 3.75769C13.8653 3.60447 13.9454 3.59463 14.0771 3.49615C14.0154 3.49374 13.9537 3.49132 13.892 3.4889C13.6137 3.55188 13.3612 3.60846 13.0769 3.67071C12.5991 3.6717 13.0756 2.94405 13.1342 2.78619C13.3393 2.73016 13.5313 2.67557 13.7142 2.6202C13.7097 2.60467 13.7053 2.58913 13.7009 2.5736C13.8175 2.46389 14.1172 2.30844 14.6157 2.16328C14.8673 2.1296 15.1188 2.09593 15.3704 2.06226C14.3092 2.50368 17.2728 2.7188 14.783 3.23225C14.7281 3.23577 14.6731 3.23928 14.6182 3.2428C14.2258 3.26841 14.0391 3.27029 13.5858 3.34336C13.5577 3.36305 13.5295 3.38274 13.5014 3.40242C14.1159 3.39225 15.0024 3.2307 15.86 3.09401C16.6533 3.16512 15.3973 3.30721 15.642 3.41128C16.0968 3.60591 17.1646 3.66599 16.7893 4.00322C16.5886 4.18322 16.6017 4.15338 17.3281 4.11806C17.4024 4.26228 17.0255 4.33983 16.8724 4.50133C16.8213 4.55504 17.5218 4.52504 17.5272 4.63656C17.1547 4.72324 17.3159 4.69047 16.8493 4.76411C16.8244 4.77915 16.7996 4.79419 16.7747 4.80923C17.1663 4.77836 16.9574 4.79984 17.4461 4.72536C17.4312 4.73767 17.4162 4.74999 17.4013 4.76231C17.2582 4.79305 17.115 4.82378 16.9718 4.85452C16.9085 4.94392 18.2177 5.71117 18.1056 5.76242C16.7285 6.38756 18.9912 6.03598 17.7428 6.66767C17.6614 6.70755 18.5217 6.7425 18.456 6.87394C18.1835 6.97349 18.1252 6.98032 17.6773 7.08814C17.6606 7.1052 17.6439 7.12225 17.6272 7.1393C18.075 7.0975 17.9189 7.11446 18.4119 7.04804C18.4261 7.05714 18.4404 7.06625 18.4546 7.07535C18.3641 7.1044 18.2736 7.13344 18.1831 7.16249C18.4816 7.20113 18.5716 7.17865 18.5228 7.26611C18.1252 7.3821 17.7618 7.47053 17.6411 7.55395C17.8251 7.54735 18.0092 7.54075 18.1932 7.53416C18.1595 7.65156 17.7517 7.80824 17.9149 7.92219C17.9849 7.97124 18.3203 8.3436 18.4177 8.31126C17.3137 8.67787 19.5228 8.53594 17.7388 8.94959C17.9066 8.99773 18.0258 9.0295 18.1257 9.08965C17.7203 9.2326 17.7166 9.20872 17.6988 9.29491C18.0339 9.29281 18.2519 9.26217 18.7349 9.20859C18.7358 9.21717 18.7367 9.22575 18.7375 9.23433C18.5664 9.2574 18.3953 9.28048 18.2242 9.30355C17.8032 9.48916 19.1551 9.40042 19.0467 9.62971C18.9974 9.64063 18.9481 9.65155 18.8989 9.66247C18.7536 9.66701 18.6083 9.67154 18.4631 9.67608C18.1046 9.77672 18.0706 9.80629 17.8312 9.89977C18.1757 9.88157 18.2425 9.87197 18.6518 9.83112C18.6935 9.83764 18.7351 9.84417 18.7767 9.85069C18.4579 9.92051 18.2012 9.97886 17.9228 10.0502C17.9606 10.0577 17.9983 10.0652 18.0361 10.0727C20.2951 9.82143 18.5837 10.3484 19.3813 10.3228C19.4799 10.3108 19.5785 10.2989 19.6771 10.2869C19.6909 10.3053 19.7046 10.3237 19.7184 10.3421C19.611 10.3614 19.5036 10.3807 19.3962 10.4C19.1479 10.4166 18.8996 10.4332 18.6513 10.4497C18.5985 10.4632 18.5457 10.4767 18.4929 10.4902C18.8073 10.6512 19 10.8227 19.3465 10.9796C19.0531 11.0592 19.1789 11.0284 18.7798 11.1064C18.7932 11.1163 18.8066 11.1262 18.82 11.1361C19.2419 11.0998 19.6611 11.0643 20.0788 11.0295C20.25 11.1767 19.4144 11.4272 19.8517 11.5188C20.0466 11.5602 20.0525 11.5778 19.9224 11.6582C19.5542 11.715 19.5675 11.7062 19.2491 11.7778C19.2705 11.7847 19.2918 11.7916 19.3132 11.7985C19.5087 11.7767 19.7043 11.7549 19.8998 11.7331C19.9006 11.7442 19.9013 11.7554 19.9021 11.7665C19.7241 11.7995 19.5461 11.8326 19.3681 11.8656C19.6611 12.0323 20.3677 11.8501 20.1184 12.195C20.0596 12.2115 20.0008 12.2281 19.942 12.2446C19.7346 12.2635 19.5272 12.2823 19.3198 12.3012C19.2371 12.3802 19.2206 12.3783 19.4501 12.4032C19.8012 12.3703 19.8874 12.3615 20.2592 12.3178C20.3451 12.3933 20.243 12.4052 19.5653 12.5529ZM25.9004 10.8233C25.7206 9.89504 25.4395 9.88406 26.1475 10.4052C26.7319 10.8361 25.7232 9.30861 26.9944 10.8021C26.805 10.4137 26.8726 10.5508 26.6171 10.0886C26.6039 9.92753 27.5113 10.1097 27.641 10.0581C27.7309 10.1797 27.8208 10.3014 27.9107 10.423C27.9284 10.3607 27.9688 10.0259 28.0116 10.0556C28.3675 10.299 28.567 10.3141 28.7774 10.2927C28.998 10.6364 28.9135 10.4989 29.1435 10.8997C29.2308 10.9362 29.1323 10.7356 28.9699 10.3758C29.1962 10.3673 30.7664 10.2938 31.2877 11.0134C31.344 11.1114 31.4003 11.2093 31.4566 11.3072C31.6395 11.7701 31.5691 11.825 31.5 11.8777C31.3046 12.0288 30.914 11.8473 30.6332 11.8462C30.0194 11.8433 29.4244 11.8702 28.7832 11.8187C28.5479 11.8003 28.3213 11.7954 28.1302 11.8564C28.039 11.8862 28.0018 12.027 27.8703 11.9835C27.6936 11.9252 27.2952 11.473 27.4886 12.0446C27.6525 12.5283 26.7659 12.5199 26.619 12.5779C26.4536 12.6412 26.3643 12.8384 26.2171 12.9335C26.109 13.0032 25.9216 12.9358 25.832 13.0371C25.7402 13.1397 25.7583 13.4329 25.6751 13.5509C25.2866 14.1065 24.8323 14.5493 24.4499 15.1167C24.4307 15.0956 24.1727 14.8068 24.1724 14.8087C24.0914 14.9288 24.1544 15.6887 23.8081 15.2898C23.6952 15.1059 23.5823 14.9221 23.4694 14.7382C23.4609 14.7492 23.4524 14.7601 23.444 14.7711C23.6682 15.1633 23.5536 14.9653 23.7859 15.3614C23.7787 15.5594 23.608 15.5937 23.4614 15.6667C23.2249 15.7855 23.2079 16.6095 22.6618 16.1619C22.6191 16.1271 22.4235 15.7777 22.3161 15.5941C22.3063 15.6001 22.2966 15.6062 22.2868 15.6122C22.3686 15.7952 22.5713 16.2182 22.5426 16.2244C22.3879 16.2614 22.8782 17.2987 22.3169 16.5681C22.2435 16.6602 22.3779 17.0747 22.2286 16.9839C22.0526 16.7194 21.9736 16.5938 21.7888 16.3023C21.7728 16.2956 21.7569 16.2889 21.7409 16.2822C21.7972 16.4291 21.8681 16.6131 21.9533 16.8347C21.874 17.1443 21.7429 17.3822 21.5366 17.4721C21.4729 17.4998 21.6143 17.9607 21.5776 17.9664C21.3436 18.0113 21.3128 18.3964 21.1053 18.4786C21.0911 18.4849 20.9245 18.3096 20.9135 18.304C20.8007 18.2465 20.5461 17.8833 20.6061 18.1106C20.7152 18.3096 20.8243 18.5086 20.9333 18.7075C20.9507 18.7651 20.968 18.8227 20.9854 18.8803C20.8118 18.6751 20.8321 18.6923 20.6073 18.3813C20.671 18.6605 20.8302 18.8417 20.8183 18.9007C20.8034 18.9766 20.4103 18.8049 20.4444 18.9338C20.5075 19.1729 20.6792 19.5022 20.6644 19.6877C20.62 19.6224 20.5756 19.5571 20.5312 19.4918C20.173 18.9663 20.1353 18.8949 20.0015 18.8038C20.0219 18.8619 20.0422 18.9201 20.0626 18.9783C20.2186 19.2169 20.3598 19.4338 20.5175 19.6783C20.6921 20.1221 19.8845 19.9104 19.7256 19.906C19.6022 19.7332 19.4848 19.5721 19.37 19.4196C19.3581 19.4286 19.3461 19.4377 19.3342 19.4467C19.1961 19.3732 18.9517 19.144 18.6438 18.7266C18.523 18.5034 18.4021 18.2802 18.2813 18.057C19.052 18.9034 18.1617 16.0797 19.5148 18.2314C19.5378 18.2813 19.5609 18.3313 19.5839 18.3813C19.749 18.7379 19.8185 18.9109 20.047 19.3091C20.0744 19.3291 20.1018 19.349 20.1292 19.3689C19.8969 18.8008 19.4337 18.0279 19.0026 17.274C18.7761 16.5139 19.3567 17.6364 19.3585 17.3758C19.3627 16.8912 19.0268 15.8794 19.4572 16.1211C19.6871 16.2505 19.6563 16.2477 19.3614 15.5836C19.4601 15.4687 19.6648 15.7946 19.8612 15.8856C19.9266 15.916 19.6457 15.2742 19.7409 15.2338C19.952 15.5525 19.8648 15.4131 20.0987 15.8235C20.1208 15.8418 20.143 15.8602 20.1651 15.8785C19.9958 15.5243 20.0905 15.7117 19.8478 15.281C19.864 15.2909 19.8802 15.3009 19.8963 15.3108C19.9752 15.4342 20.0541 15.5576 20.1329 15.6809C20.2339 15.7113 20.4265 14.2503 20.512 14.3382C21.5578 15.42 20.4284 13.428 21.4331 14.3879C21.4974 14.4509 21.215 13.64 21.3535 13.6593C21.5394 13.881 21.5665 13.9331 21.8234 14.3152C21.8443 14.3253 21.8653 14.3354 21.8862 14.3455C21.6869 13.9425 21.7585 14.0822 21.5213 13.645C21.524 13.6289 21.5268 13.6127 21.5296 13.5966C21.5878 13.6715 21.646 13.7464 21.7042 13.8213C21.6294 13.5315 21.577 13.455 21.671 13.4725C21.9168 13.8054 22.126 14.1152 22.2426 14.2009C22.1699 14.0318 22.0972 13.8628 22.0245 13.6938C22.1392 13.6879 22.424 14.0172 22.464 13.8293C22.4813 13.7486 22.6839 13.3184 22.6203 13.2381C23.3414 14.1481 22.4143 12.1393 23.4236 13.6665C23.4046 13.4952 23.3889 13.3743 23.405 13.2623C23.6771 13.5938 23.6576 13.6048 23.7392 13.594C23.6155 13.2831 23.5095 13.0901 23.2872 12.6581C23.2943 12.6546 23.3015 12.651 23.3086 12.6475C23.391 12.7992 23.4733 12.951 23.5557 13.1028C23.8706 13.4352 23.3016 12.2065 23.5409 12.2344C23.5683 12.2768 23.5957 12.3191 23.6232 12.3615C23.68 12.4951 23.7367 12.6287 23.7935 12.7623C24.0116 13.0636 24.0498 13.0858 24.2183 13.2787C24.0772 12.9641 24.0445 12.9051 23.86 12.5375C23.8506 12.4968 23.8411 12.456 23.8317 12.4152C24.0085 12.6894 24.1527 12.9095 24.3161 13.1457C24.3089 13.1082 24.3017 13.0707 24.2945 13.0332C23.254 11.0128 24.3357 12.4365 24.0233 11.7031C23.9771 11.6152 23.9308 11.5273 23.8845 11.4394C23.8955 11.4208 23.9066 11.4022 23.9176 11.3836C23.9735 11.4773 24.0294 11.571 24.0853 11.6647C24.19 11.8903 24.2947 12.1159 24.3995 12.3414C24.4304 12.3863 24.4614 12.4311 24.4924 12.4759C24.5183 12.1324 24.5977 11.8987 24.6085 11.5268C24.7846 11.7742 24.712 11.6671 24.9251 12.0133C24.9289 11.9977 24.9327 11.9821 24.9364 11.9665C24.7514 11.5858 24.5679 11.2073 24.3857 10.83C24.4517 10.624 24.974 11.3213 24.8948 10.8857C24.86 10.6913 24.8732 10.6803 24.9906 10.7756C25.174 11.1 25.1615 11.0903 25.3398 11.3636C25.338 11.3416 25.3362 11.3195 25.3345 11.2975C25.2444 11.1226 25.1542 10.9477 25.0641 10.7728C25.0736 10.7686 25.083 10.7644 25.0924 10.7601C25.186 10.9151 25.2795 11.0701 25.373 11.2251C25.4117 10.8997 24.9959 10.3007 25.3873 10.4229C25.4231 10.4723 25.4589 10.5217 25.4947 10.5711C25.5865 10.7579 25.6784 10.9447 25.7703 11.1316C25.8693 11.1834 25.8736 11.1993 25.8118 10.9781C25.6554 10.6621 25.6164 10.5847 25.4431 10.2529C25.4777 10.1491 25.5252 10.2402 25.9004 10.8233ZM28.3595 22.8288C29.1665 22.3178 29.0484 22.0408 28.8731 22.9172C28.7275 23.6408 29.7294 22.1078 28.8802 23.8834C29.1656 23.5587 29.0651 23.674 29.391 23.2585C29.5393 23.1873 29.7797 24.1344 29.8885 24.2417C29.813 24.3731 29.7376 24.5044 29.6622 24.6358C29.73 24.6305 30.0693 24.5484 30.0603 24.6007C29.9899 25.0346 30.0667 25.2337 30.1834 25.4302C29.9551 25.769 30.0481 25.6371 29.7694 26.0057C29.7744 26.1037 29.9214 25.9353 30.1919 25.6473C30.3035 25.8639 31.0919 27.3621 30.6409 28.1291C30.5729 28.2192 30.5048 28.3094 30.4368 28.3996C30.0771 28.7449 29.9922 28.6964 29.9102 28.6484C29.6761 28.5135 29.6713 28.0683 29.5439 27.7952C29.2661 27.1981 28.9683 26.6301 28.7243 25.9888C28.6344 25.7536 28.5354 25.5318 28.3896 25.3684C28.3194 25.2906 28.1675 25.3055 28.149 25.162C28.1241 24.9692 28.375 24.4185 27.916 24.8134C27.5275 25.1479 27.1302 24.2839 27.0074 24.1622C26.8711 24.0246 26.6414 24.0093 26.483 23.9009C26.3668 23.8211 26.3457 23.6147 26.2076 23.5644C26.0674 23.5124 25.7948 23.6362 25.6438 23.5982C24.9339 23.4222 24.302 23.1416 23.5836 22.9757C23.595 22.9494 23.7537 22.5943 23.7517 22.5946C23.5997 22.5595 22.9006 22.896 23.1243 22.4152C23.2488 22.2389 23.3733 22.0627 23.4978 21.8865C23.4834 21.8822 23.4691 21.8779 23.4547 21.8737C23.1815 22.2335 23.3188 22.0506 23.0455 22.4196C22.8526 22.4843 22.7417 22.331 22.6047 22.2151C22.3828 22.0285 21.5858 22.3105 21.7648 21.618C21.7786 21.5639 22.0238 21.2474 22.1506 21.0766C22.1403 21.0693 22.1301 21.062 22.1198 21.0547C21.982 21.2005 21.6694 21.5505 21.6504 21.5249C21.5441 21.3881 20.7748 22.2401 21.218 21.4303C21.0961 21.3924 20.7606 21.673 20.7793 21.4952C20.9521 21.2285 21.0363 21.1063 21.231 20.8211C21.2301 20.8032 21.2293 20.7853 21.2284 20.7674C21.1135 20.8753 20.9696 21.0108 20.7963 21.1738C20.4635 21.209 20.1756 21.1678 19.9952 21.0001C19.9395 20.9483 19.5627 21.2526 19.5404 21.219C19.3905 21.0081 19.0075 21.1177 18.8338 20.9459C18.8213 20.9344 18.9131 20.7091 18.9134 20.6965C18.9168 20.566 19.1484 20.1873 18.958 20.3278C18.8173 20.5059 18.6766 20.6839 18.5359 20.8619C18.4887 20.8996 18.4415 20.9373 18.3943 20.975C18.5114 20.7322 18.5042 20.7581 18.6993 20.4271C18.461 20.5901 18.3602 20.8103 18.2983 20.8202C18.2188 20.8332 18.2035 20.3893 18.0955 20.4691C17.8954 20.617 17.6585 20.9031 17.4741 20.9559C17.5163 20.8891 17.5585 20.8223 17.6008 20.7555C17.9403 20.2173 17.9915 20.1548 18.0176 19.9919C17.9712 20.0328 17.9248 20.0736 17.8784 20.1144C17.7212 20.3524 17.578 20.5681 17.4159 20.8098C17.0706 21.1402 16.9041 20.2792 16.8356 20.1233C16.9447 19.9409 17.0454 19.7685 17.1389 19.6018C17.1248 19.5934 17.1107 19.5851 17.0966 19.5768C17.1039 19.4161 17.2116 19.0957 17.4707 18.6455C17.6292 18.4473 17.7877 18.2491 17.9463 18.0509C17.488 19.1059 19.7857 17.2183 18.3433 19.3119C18.306 19.3523 18.2687 19.3928 18.2314 19.4333C17.9652 19.7228 17.8313 19.853 17.5543 20.2192C17.5478 20.253 17.5413 20.2868 17.5347 20.3207C17.9726 19.8892 18.5011 19.1594 19.0262 18.4676C19.6507 17.9722 18.841 18.9428 19.0914 18.8501C19.5575 18.6786 20.3732 17.9858 20.3384 18.4913C20.3196 18.7614 20.3082 18.7306 20.8094 18.2035C20.9646 18.2577 20.7461 18.5746 20.7488 18.7983C20.7495 18.8728 21.2358 18.3675 21.3181 18.4454C21.1093 18.7658 21.203 18.6306 20.9168 19.0064C20.9094 19.0346 20.9019 19.0627 20.8945 19.0909C21.1564 18.7981 21.0202 18.958 21.3218 18.5663C21.3196 18.5856 21.3175 18.6049 21.3154 18.6242C21.2333 18.7455 21.1512 18.8667 21.0691 18.988C21.0861 19.097 22.5737 18.7548 22.5285 18.8696C21.9706 20.2771 23.3623 18.4586 22.9021 19.7821C22.8712 19.8674 23.5189 19.2993 23.5637 19.4408C23.4363 19.7016 23.3989 19.7469 23.1503 20.1348C23.1502 20.1588 23.1501 20.1827 23.15 20.2067C23.4449 19.8672 23.3438 19.9873 23.6541 19.5986C23.6709 19.5954 23.6876 19.5922 23.7043 19.5891C23.6592 19.6728 23.614 19.7564 23.5689 19.8401C23.8122 19.6624 23.8616 19.5839 23.8878 19.6815C23.6813 20.0407 23.4803 20.3562 23.4515 20.5004C23.5802 20.3686 23.7089 20.2368 23.8375 20.105C23.8956 20.2141 23.7104 20.6101 23.9087 20.5808C23.9939 20.5684 24.4986 20.6093 24.5464 20.5184C24.0045 21.5483 25.5048 19.9202 24.5034 21.4537C24.6588 21.3732 24.7675 21.3141 24.8821 21.2892C24.689 21.6735 24.6695 21.6586 24.7172 21.7339C24.9585 21.5011 25.0948 21.3283 25.407 20.9558C25.4136 20.9615 25.4203 20.9671 25.427 20.9728C25.3193 21.1078 25.2116 21.2427 25.1038 21.3777C24.9294 21.8039 25.8462 20.8062 25.9288 21.0487C25.9008 21.0907 25.8728 21.1326 25.8448 21.1746C25.7428 21.2782 25.6408 21.3817 25.5388 21.4853C25.3499 21.8062 25.346 21.8514 25.2384 22.0849C25.4751 21.8338 25.5167 21.7807 25.7845 21.4684C25.8192 21.4445 25.8539 21.4205 25.8886 21.3966C25.7069 21.6676 25.5619 21.8874 25.4104 22.1317C25.4431 22.1111 25.4757 22.0906 25.5083 22.07C26.9678 20.3275 26.0988 21.8937 26.6584 21.3247C26.7215 21.2479 26.7845 21.1711 26.8475 21.0943C26.8704 21.0983 26.8933 21.1023 26.9161 21.1062C26.8519 21.1945 26.7877 21.2827 26.7235 21.3709C26.5553 21.5543 26.3871 21.7378 26.2189 21.9212C26.1902 21.9675 26.1614 22.0138 26.1327 22.0602C26.4736 21.9609 26.7337 21.9534 27.0949 21.829C26.9384 22.0897 27.0078 21.9804 26.7736 22.3128C26.7903 22.3108 26.807 22.3088 26.8236 22.3068C27.1037 21.9891 27.3823 21.6739 27.6604 21.3603C27.8879 21.3497 27.4588 22.1095 27.8399 21.8748C28.0102 21.7705 28.0268 21.7794 27.9892 21.928C27.7623 22.2236 27.7659 22.2079 27.5856 22.4801C27.6059 22.4703 27.6262 22.4606 27.6465 22.4509C27.7728 22.3001 27.8991 22.1492 28.0254 21.9983C28.0338 22.0059 28.0422 22.0136 28.0506 22.0212C27.9449 22.1682 27.8392 22.3152 27.7335 22.4622C28.0629 22.3819 28.4465 21.761 28.5084 22.1853C28.4775 22.238 28.4465 22.2907 28.4156 22.3433C28.2786 22.5002 28.1417 22.6571 28.0047 22.814C28.0004 22.9289 27.9871 22.9389 28.1708 22.7988C28.4019 22.5324 28.4583 22.4665 28.6968 22.178C28.8121 22.1739 28.7465 22.2531 28.3595 22.8288ZM15.7237 29.8008C16.424 30.4632 16.6663 30.2564 15.7641 30.3515C15.0189 30.4292 16.7691 30.971 14.8189 30.6604C15.2077 30.8497 15.0699 30.7834 15.5577 30.9856C15.6642 31.1144 14.7955 31.655 14.7173 31.7992C14.5699 31.7635 14.4225 31.7277 14.2751 31.6919C14.2971 31.7593 14.4614 32.0792 14.408 32.0864C13.9654 32.1501 13.7892 32.2905 13.6255 32.4707C13.237 32.344 13.3893 32.3976 12.9591 32.2287C12.8643 32.2645 13.0657 32.3616 13.4149 32.5472C13.2302 32.7285 11.957 33.9994 11.0939 33.7794C10.9886 33.7383 10.8834 33.6971 10.7782 33.656C10.3508 33.3974 10.3774 33.2958 10.4041 33.1973C10.4784 32.9167 10.9135 32.7728 11.1496 32.5578C11.666 32.0884 12.149 31.6077 12.7171 31.159C12.9253 30.9939 13.1182 30.8239 13.2423 30.6243C13.3011 30.5286 13.249 30.3785 13.385 30.3149C13.5677 30.2293 14.1695 30.313 13.6689 29.9687C13.2451 29.6774 13.9935 29.0029 14.0824 28.8399C14.1835 28.6582 14.1417 28.4194 14.2087 28.2242C14.2581 28.0809 14.4552 27.995 14.4703 27.8387C14.4866 27.6795 14.2978 27.4406 14.2977 27.2749C14.2945 26.4969 14.4132 25.7656 14.398 24.9821C14.4266 24.9856 14.8139 25.0362 14.8131 25.0344C14.8099 24.8686 14.3071 24.2615 14.8337 24.3393C15.0372 24.4111 15.2407 24.4829 15.4442 24.5547C15.4449 24.5387 15.4455 24.5227 15.4461 24.5067C15.0259 24.3408 15.2392 24.4235 14.8099 24.2604C14.6987 24.0842 14.8215 23.9233 14.9013 23.7476C15.0292 23.4633 14.5556 22.7395 15.2785 22.7057C15.335 22.7028 15.7058 22.8537 15.9046 22.9296C15.9092 22.9168 15.9138 22.9041 15.9184 22.8914C15.7415 22.7965 15.3211 22.5874 15.3415 22.5601C15.4493 22.4091 14.424 21.8915 15.3273 22.0901C15.3342 21.9541 14.9762 21.7 15.1551 21.6635C15.4592 21.7563 15.5999 21.8039 15.9274 21.9132C15.9448 21.9067 15.9621 21.9002 15.9794 21.8937C15.8453 21.8103 15.6768 21.7061 15.4743 21.5805C15.3574 21.2525 15.3265 20.9464 15.4463 20.7103C15.4833 20.6374 15.0918 20.3486 15.1193 20.3154C15.2889 20.0968 15.0867 19.7409 15.212 19.5105C15.2202 19.4941 15.4637 19.5173 15.4762 19.5136C15.6049 19.4764 16.0333 19.5939 15.8485 19.444C15.6392 19.3563 15.4299 19.2685 15.2207 19.1808C15.172 19.1445 15.1234 19.1081 15.0748 19.0718C15.3418 19.1153 15.3146 19.116 15.6872 19.2115C15.4685 19.0196 15.2277 18.9857 15.2027 18.9257C15.1703 18.8488 15.6016 18.6947 15.4967 18.6096C15.3022 18.4519 14.9632 18.2999 14.8659 18.1286C14.9418 18.1507 15.0177 18.1729 15.0936 18.1951C15.705 18.3729 15.7789 18.4055 15.945 18.3812C15.8935 18.3467 15.842 18.3122 15.7905 18.2777C15.5184 18.1919 15.2716 18.1134 14.9947 18.0237C14.5854 17.7751 15.3879 17.3368 15.5238 17.2183C15.7296 17.2725 15.9235 17.3212 16.11 17.3644C16.1146 17.3475 16.1193 17.3305 16.124 17.3135C16.2832 17.2708 16.6239 17.2805 17.1292 17.4037C17.3626 17.5033 17.5961 17.6029 17.8296 17.7025C16.6823 17.5652 19.1006 19.3161 16.692 18.5007C16.6431 18.4753 16.5942 18.4499 16.5453 18.4245C16.1958 18.2438 16.0351 18.1481 15.6077 17.9803C15.5729 17.9842 15.5381 17.9881 15.5034 17.992C16.0345 18.3033 16.8806 18.6138 17.6884 18.9326C18.3283 19.414 17.1769 18.8923 17.3297 19.1184C17.613 19.5397 18.4938 20.1541 17.9898 20.2766C17.7204 20.3418 17.7478 20.3205 18.3884 20.6665C18.3736 20.8415 18.0091 20.7178 17.7905 20.7904C17.7176 20.8144 18.3331 21.152 18.2772 21.2601C17.9115 21.1474 18.0672 21.2006 17.6281 21.0265C17.5987 21.0277 17.5692 21.029 17.5398 21.0302C17.8915 21.2055 17.7011 21.1167 18.1596 21.3016C18.1402 21.3054 18.1207 21.3093 18.1013 21.3131C17.9621 21.2674 17.823 21.2216 17.6838 21.1759C17.5812 21.2273 18.2846 22.6356 18.1609 22.6255C16.6436 22.4966 18.7699 23.3463 17.3592 23.2909C17.2679 23.286 17.9848 23.7684 17.8573 23.8582C17.5701 23.8099 17.5165 23.7858 17.0749 23.6538C17.0514 23.6612 17.0279 23.6685 17.0043 23.6759C17.41 23.8703 17.2673 23.8048 17.725 23.9995C17.7323 24.0156 17.7395 24.0316 17.7467 24.0476C17.6536 24.0278 17.5604 24.008 17.4673 23.9882C17.7016 24.1805 17.7908 24.2063 17.7016 24.2634C17.2985 24.1653 16.9396 24.059 16.7911 24.0748C16.9521 24.1646 17.1131 24.2545 17.2741 24.3444C17.1815 24.4377 16.7477 24.3727 16.8254 24.5655C16.8587 24.6484 16.9435 25.1752 17.0444 25.1956C15.901 24.9652 17.8677 25.9849 16.1171 25.4438C16.2345 25.5769 16.3193 25.6692 16.3721 25.7782C15.9477 25.7015 15.9575 25.6769 15.8955 25.749C16.1833 25.9221 16.3864 26.007 16.8286 26.2087C16.8247 26.2172 16.8208 26.2258 16.8169 26.2344C16.658 26.1668 16.4991 26.0992 16.3402 26.0316C15.8793 25.987 17.084 26.6093 16.8667 26.7692C16.8187 26.7538 16.7706 26.7384 16.7225 26.7229C16.5958 26.6514 16.4691 26.5798 16.3424 26.5082C15.9811 26.416 15.9359 26.4262 15.6804 26.3895C15.985 26.5522 16.0474 26.578 16.4197 26.7532C16.4517 26.7811 16.4838 26.809 16.5158 26.8369C16.2053 26.7364 15.954 26.6574 15.6771 26.5794C15.7053 26.6062 15.7336 26.633 15.7618 26.6598C17.8306 27.6023 16.0806 27.2061 16.7768 27.5985C16.8676 27.6387 16.9584 27.6789 17.0493 27.7192C17.0511 27.7437 17.0528 27.7682 17.0546 27.7928C16.9523 27.7549 16.8499 27.7171 16.7476 27.6792C16.5262 27.5652 16.3048 27.4512 16.0834 27.3371C16.0309 27.3223 15.9784 27.3075 15.9259 27.2926C16.1075 27.6089 16.1793 27.8714 16.3905 28.2006C16.0963 28.1225 16.2206 28.1591 15.8369 28.0244C15.843 28.0407 15.8491 28.0571 15.8552 28.0734C16.2358 28.2595 16.6136 28.4449 16.9898 28.6302C17.0564 28.8587 16.2057 28.6588 16.53 28.9737C16.6743 29.1146 16.6697 29.1343 16.5148 29.1423C16.169 29.0036 16.1852 29.0023 15.8739 28.9036C15.8884 28.9213 15.903 28.9389 15.9175 28.9566C16.0966 29.0381 16.2757 29.1197 16.4548 29.2012C16.4494 29.2121 16.444 29.223 16.4386 29.2339C16.2684 29.1722 16.0982 29.1104 15.928 29.0486C16.0882 29.3591 16.7916 29.556 16.391 29.7516C16.3318 29.7365 16.2725 29.7214 16.2133 29.7063C16.0256 29.6158 15.838 29.5253 15.6503 29.4348C15.5366 29.4662 15.5235 29.4558 15.7064 29.5992C16.0246 29.7514 16.1031 29.7882 16.4449 29.9411C16.4774 30.0572 16.3836 30.0152 15.7237 29.8008ZM9.07211 20.0331C8.80527 20.9294 9.01723 21.0776 8.69897 20.2751C8.43665 19.6121 8.54714 21.4384 8.21942 19.5123C8.19582 19.9436 8.20362 19.791 8.19866 20.3191C8.13849 20.4657 7.51855 19.86 7.39603 19.8409C7.37985 19.6908 7.36366 19.5406 7.34748 19.3904C7.30659 19.4359 7.12918 19.7073 7.10919 19.6604C6.94112 19.2731 6.79394 19.1617 6.62241 19.0766C6.60242 18.6688 6.60753 18.8301 6.60528 18.368C6.55386 18.2932 6.54228 18.5163 6.51026 18.9094C6.33211 18.8053 5.08945 18.0952 5.00195 17.2121C5.0013 17.0991 5.00065 16.9861 5 16.8732C5.06119 16.3803 5.13951 16.3672 5.21572 16.3555C5.43235 16.3203 5.65425 16.6708 5.87028 16.8101C6.34218 17.1153 6.81258 17.3851 7.28448 17.746C7.45782 17.878 7.6304 17.994 7.80434 18.0351C7.88762 18.0541 7.97782 17.95 8.0602 18.0526C8.171 18.1905 8.2806 18.7803 8.38117 18.1877C8.46611 17.686 9.14592 18.1303 9.28453 18.1524C9.43968 18.1788 9.59468 18.0512 9.74967 18.041C9.86347 18.0336 9.97848 18.1847 10.0918 18.1407C10.2074 18.0967 10.3215 17.8327 10.4371 17.771C10.9794 17.4791 11.523 17.3178 12.0657 17.0126C12.0713 17.0405 12.144 17.4189 12.1451 17.4174C12.26 17.3529 12.5433 16.6606 12.6361 17.1785C12.6428 17.3941 12.6495 17.6097 12.6562 17.8253C12.6676 17.8199 12.6789 17.8146 12.6902 17.8093C12.6887 17.3574 12.6905 17.5862 12.6845 17.1271C12.7765 16.9584 12.9231 17.0126 13.068 17.0214C13.3022 17.0346 13.6752 16.3261 13.9007 16.9847C13.9184 17.0361 13.9166 17.4364 13.9192 17.6492C13.9294 17.6487 13.9395 17.6483 13.9497 17.6478C13.9665 17.4483 13.9951 16.9803 14.0199 16.9891C14.1554 17.0331 14.2304 15.889 14.344 16.8014C14.4408 16.7573 14.5183 16.3305 14.5937 16.4831C14.6139 16.7999 14.6199 16.9482 14.6351 17.2929C14.6445 17.3066 14.6538 17.3203 14.6632 17.334C14.6839 17.1785 14.7097 16.9833 14.7408 16.7486C14.9371 16.5183 15.1422 16.3759 15.3405 16.3994C15.4016 16.4067 15.4939 15.936 15.5248 15.9491C15.7247 16.0254 15.9167 15.7055 16.1126 15.7363C16.1263 15.7379 16.1781 15.9725 16.1841 15.9828C16.2461 16.0884 16.2836 16.5299 16.3367 16.3026C16.3395 16.0757 16.3423 15.8488 16.3451 15.6219C16.3569 15.5633 16.3687 15.5046 16.3805 15.446C16.4247 15.71 16.4166 15.685 16.454 16.0664C16.5269 15.7921 16.4833 15.556 16.5182 15.5105C16.5628 15.4519 16.7908 15.795 16.8209 15.666C16.8767 15.4269 16.8881 15.0557 16.9806 14.9017C16.9863 14.9804 16.992 15.0591 16.9977 15.1378C17.0443 15.7715 17.0422 15.8522 17.1055 15.9975C17.1152 15.9369 17.125 15.8762 17.1347 15.8156C17.1186 15.531 17.1045 15.2728 17.0897 14.9823C17.149 14.51 17.6791 15.0924 17.7997 15.1745C17.8194 15.3857 17.8395 15.5838 17.8614 15.773C17.8746 15.771 17.8877 15.7691 17.9008 15.7671C17.9751 15.8991 18.0635 16.219 18.1185 16.7339C18.1142 16.9877 18.1099 17.2414 18.1056 17.4952C17.8811 16.3789 17.334 19.2745 17.2308 16.7354C17.2348 16.6806 17.2389 16.6258 17.2429 16.571C17.2715 16.1793 17.2934 15.9945 17.2912 15.5354C17.2788 15.5045 17.2663 15.4737 17.2539 15.4429C17.1849 16.0517 17.2044 16.9525 17.2074 17.8209C17.0501 18.5939 17.0927 17.331 16.9776 17.5569C16.7626 17.9764 16.5797 19.0224 16.3534 18.5999C16.2327 18.374 16.2552 18.3916 16.1925 19.1148C16.0663 19.1661 16.0508 18.7817 15.9391 18.6057C15.902 18.547 15.8382 19.2438 15.7471 19.2321C15.7237 18.8507 15.73 19.015 15.7289 18.5426C15.7198 18.5158 15.7108 18.4889 15.7017 18.462C15.6775 18.8537 15.6864 18.6439 15.6853 19.1383C15.6772 19.1217 15.6691 19.105 15.661 19.0884C15.6541 18.9422 15.6471 18.796 15.6402 18.6498C15.5757 18.5736 14.789 19.7498 14.7615 19.6312C14.4278 18.1745 14.4284 20.4644 14.0731 19.1339C14.051 19.0473 13.9145 19.8921 13.8162 19.8071C13.7698 19.5225 13.7716 19.4638 13.7404 19.0047C13.7287 18.9856 13.717 18.9665 13.7053 18.9474C13.6829 19.3963 13.6887 19.2395 13.6806 19.7368C13.6714 19.7495 13.6623 19.7621 13.6531 19.7748C13.6409 19.681 13.6287 19.5871 13.6166 19.4932C13.5477 19.7822 13.5546 19.8746 13.4898 19.813C13.4458 19.4023 13.4198 19.0296 13.3673 18.8976C13.3495 19.0805 13.3317 19.2633 13.3139 19.4462C13.223 19.3949 13.1472 18.968 13.0343 19.1117C12.9857 19.1733 12.6417 19.4478 12.6556 19.549C12.4972 18.4019 12.3345 20.6066 12.2234 18.7803C12.1633 18.9387 12.1225 19.0517 12.0612 19.1411C11.9963 18.7187 12.0161 18.7186 11.9485 18.6878C11.908 19.0193 11.9055 19.2394 11.8882 19.725C11.8811 19.7245 11.874 19.7241 11.867 19.7236C11.8698 19.551 11.8726 19.3783 11.8754 19.2057C11.7778 18.7613 11.6798 20.1108 11.5075 19.9685C11.5049 19.9182 11.5022 19.8678 11.4996 19.8174C11.5141 19.6732 11.5287 19.5289 11.5433 19.3847C11.5068 19.015 11.4871 18.9769 11.4414 18.726C11.4128 19.0693 11.4122 19.1367 11.3939 19.5475C11.3833 19.5876 11.3728 19.6277 11.3623 19.6678C11.3458 19.3422 11.3307 19.0795 11.3079 18.7935C11.2971 18.8296 11.2862 18.8658 11.2754 18.902C11.1951 21.1728 10.983 19.4009 10.9035 20.193C10.9008 20.2923 10.8981 20.3915 10.8954 20.4908C10.8787 20.5016 10.8621 20.5123 10.8455 20.5231C10.8433 20.414 10.8411 20.3049 10.839 20.1959C10.8568 19.948 10.8746 19.7001 10.8924 19.4522C10.888 19.3979 10.8837 19.3436 10.8794 19.2894C10.7094 19.5754 10.5461 19.7396 10.3754 20.0579C10.3477 19.7558 10.3569 19.8848 10.3438 19.4785C10.3341 19.4902 10.3243 19.5019 10.3146 19.5137C10.291 19.9361 10.2671 20.3558 10.2428 20.7739C10.1019 20.9206 10.0039 20.0565 9.87459 20.4746C9.81656 20.6609 9.80153 20.6639 9.75267 20.5231C9.75297 20.1505 9.75839 20.165 9.74035 19.8394C9.73208 19.8594 9.72381 19.8795 9.71554 19.8996C9.70862 20.0961 9.70171 20.2927 9.69479 20.4893C9.68567 20.4883 9.67655 20.4874 9.66743 20.4864C9.66302 20.3054 9.65861 20.1245 9.6542 19.9435C9.48222 20.2075 9.54115 20.9337 9.2928 20.6345C9.28678 20.5738 9.28077 20.5132 9.27475 20.4526C9.28553 20.2448 9.2963 20.0369 9.30708 19.8291C9.25341 19.7352 9.25702 19.7192 9.20801 19.9422C9.19057 20.2942 9.18681 20.3808 9.17554 20.7548C9.10353 20.8282 9.10668 20.7255 9.07211 20.0331Z" fill="#F6F2EC"/>
</svg>
