<svg width="36" height="36" viewBox="0 0 36 36" fill="none" xmlns="http://www.w3.org/2000/svg">
<path d="M17.1161 7.59995C15.3484 9.03168 17.0228 8.60363 14.4395 8.76145C12.2743 9.11702 14.0067 10.1363 10.8136 10.0744C10.9376 10.5282 10.8911 10.3703 11.1954 10.8033C11.0662 11.0028 10.0003 11.7303 9.12438 12.6982C8.22379 13.6468 7.61574 14.8384 7.507 15.2519C7.43223 15.2813 7.3576 15.3119 7.28316 15.3439C7.18098 15.396 7.07916 15.4491 6.97769 15.503C6.92229 15.8428 6.96372 17.2839 6.92118 17.4276C6.41069 18.7057 6.35335 19.9348 6.5892 21.298C6.23176 21.5527 6.37931 21.4751 5.93583 21.6068C5.97475 22.0511 6.22546 22.0938 6.67873 22.2176C6.81353 22.9169 7.791 25.7856 9.98651 27.8805C12.0747 30.0634 15.0086 31.1244 15.3702 31.5781C15.3592 31.6907 15.3484 31.8033 15.3378 31.9159C14.6624 32.3152 13.85 32.1374 13.1239 31.8961C11.0257 31.207 9.31628 29.6838 7.94749 28.1161C4.84409 24.6905 3.9592 19.7451 5.25554 15.6715C5.3323 15.4119 5.41574 15.1507 5.50577 14.8876C5.92585 13.6666 6.57761 12.5655 7.3468 11.5593C7.78905 10.9771 8.24718 10.2992 8.84269 9.86665C9.65701 9.27115 10.7388 9.17666 11.1348 8.20339C11.3008 7.78493 12.7579 6.84187 14.4358 6.27295C16.1059 5.67257 17.9255 5.49314 18.5305 5.44753C19.8855 5.3201 21.2652 5.21851 22.6159 5.46993C23.6096 5.65567 24.5202 6.11981 25.4114 6.53122C26.3182 6.94879 27.2971 7.33545 28.0794 8.04594C29.096 8.96599 29.9106 10.1197 30.5116 11.3816C32.01 14.695 31.7436 18.8025 29.5876 22.001C29.533 22.0368 28.7921 22.3245 28.7867 22.3232C28.2633 23.0973 26.6227 24.8979 25.4116 25.0247C25.2723 25.0453 25.1453 25.0461 25.0349 25.0241C24.9035 24.8419 24.7746 24.6584 24.648 24.4737C24.5533 24.5115 24.4582 24.5484 24.3626 24.5842C24.5124 25.0107 24.4265 24.7981 24.6199 25.2183C23.8463 25.6492 22.4619 25.9297 21.0861 26.0105C18.9747 26.284 14.8469 26.1187 13.4439 23.9596C13.3384 23.8069 13.6126 23.5125 13.7317 23.335C13.6601 23.2747 13.5898 23.2132 13.5206 23.1503C13.2749 23.1968 12.7423 23.3313 12.5782 23.137C11.7533 22.1501 10.3266 21.8784 10.7578 20.4276C10.4663 19.7027 10.0582 19.1125 9.94177 18.479C9.91287 18.3174 9.90384 18.1567 9.92177 17.9978C10.2225 17.7643 10.369 17.6985 10.7093 17.5382C10.7208 17.4464 10.7341 17.3558 10.749 17.2663C10.5964 17.0695 10.4123 16.798 10.2184 16.4495C10.1954 14.3461 11.4736 12.1472 13.2108 10.9832C13.7229 10.6093 14.3709 9.73417 14.6941 9.61069C16.6774 8.80643 18.717 8.13405 20.9823 8.52857C21.1434 8.55214 21.678 8.91593 21.7385 8.94858C22.4133 9.25128 22.6203 9.81682 23.2619 9.9074C23.4013 9.72544 23.5437 9.54539 23.6889 9.36734C23.8498 9.39281 24.0139 9.42582 24.1792 9.46623C24.2936 9.64775 24.3548 9.76347 24.3962 9.85619C24.4608 10.0327 24.4634 10.1245 24.5105 10.4979C25.312 10.8402 25.1002 10.3351 25.4374 10.5943C25.6485 10.7612 26.1932 11.4302 26.5771 12.2318C26.9786 13.0263 27.1466 13.9164 27.2458 14.1098C27.5995 14.8343 28.0762 15.0037 28.0328 16.475C27.9397 16.55 27.8455 16.6209 27.7504 16.6885C26.9669 17.2076 26.9208 17.1306 26.4542 17.8247C26.4548 17.9629 26.45 18.1031 26.4406 18.2438C26.7922 18.1982 27.1123 18.1363 27.4676 18.0519C27.5254 18.5789 26.3339 20.9555 23.6453 21.8618C21.9133 22.4691 19.8101 22.3069 18.9654 22.0207C18.7172 21.7475 18.4816 21.4693 18.2521 21.1715C18.0706 21.0995 17.8896 21.0158 17.7107 20.9186C16.7114 20.2758 16.1231 18.7661 16.4728 17.9787C16.7311 17.9546 16.9874 17.9198 17.2407 17.8744C17.0812 18.7332 18.215 19.8479 19.4336 19.8788C20.652 19.9785 21.7424 19.4692 22.6068 19.1305C23.474 18.7811 24.1247 18.419 25.0251 18.6724C25.0375 18.7424 25.0482 18.8133 25.0579 18.8847C25.1301 19.392 25.0339 19.7243 25.3657 20.0437C25.5116 19.9521 25.6557 19.8531 25.795 19.7497C25.9662 18.6341 25.0096 18.3331 24.3315 17.8055C24.4351 17.0194 24.5821 16.8909 24.8502 16.7671C25.0977 16.6514 25.4305 16.5585 25.4225 15.9873C25.2734 13.9142 23.6331 13.3426 22.5546 12.2755C22.4568 12.181 22.3549 12.081 22.2489 11.9753C21.551 11.3427 21.6044 11.4386 20.9706 11.986C20.084 11.8214 20.0085 11.4399 19.0946 11.2591C18.7777 11.2101 18.329 11.9298 17.6652 12.0631C17.4053 11.7304 17.4866 11.8814 17.3709 11.4231C17.2914 11.4143 17.2114 11.4066 17.1309 11.4C17.0389 11.8304 17.0571 11.6089 17.1811 12.0872C17.1162 12.0882 17.0511 12.0899 16.9858 12.0925C16.8915 11.9685 16.7946 11.8458 16.6951 11.7245C16.4419 11.7503 14.797 12.645 13.9585 13.963C13.0582 15.2615 13.17 16.6012 13.0975 16.6693C12.6165 17.1909 12.5272 17.7232 12.5917 18.1286C12.8563 19.3185 13.6678 19.3965 13.9116 21.3966C13.9567 21.6125 15.1938 21.7139 15.6724 22.0965C15.784 22.5054 15.7463 22.5478 15.7296 23.0634C15.7997 23.1229 15.8718 23.1815 15.9455 23.239C16.2951 22.9096 16.1861 23.0303 16.448 22.6038C16.5114 22.619 16.5752 22.6333 16.6394 22.6468C16.6811 22.7665 16.7264 22.8861 16.7764 23.0057C17.3505 22.9064 17.316 22.7962 17.7519 22.9778C17.9625 23.4524 18.0977 23.8629 18.5002 24.0571C18.6708 23.8971 18.8318 23.7327 18.9882 23.565C19.6744 23.6833 20.2978 24.1266 21.2129 23.9031C21.629 23.884 24.2687 22.954 24.0978 22.8401C24.2846 22.9217 24.4597 22.9536 24.6226 22.9494C25.8736 22.8835 25.7594 21.13 27.3418 21.8444C27.582 21.4022 27.7098 21.0931 27.9266 20.6694C28.5626 20.5184 28.4853 20.6349 28.8008 20.1897C28.6821 19.7393 28.4922 19.6181 28.1232 19.2797C28.1471 19.235 28.1706 19.1901 28.1937 19.1449C28.3391 19.24 28.4839 19.3364 28.628 19.4339C29.3759 18.9158 28.409 17.7473 28.731 16.603C28.7836 16.5916 28.8363 16.5797 28.8889 16.5676C29.0164 16.6942 29.1412 16.8262 29.2631 16.9622C29.676 16.7465 29.7391 16.5937 30.0264 16.2465C29.7059 15.9824 29.6375 15.9736 29.2364 15.8079C29.201 15.7261 29.1644 15.6448 29.1269 15.5645C29.4562 15.4501 29.7213 15.3371 30.0053 15.1461C29.9681 15.0577 29.9297 14.9708 29.8902 14.8847C27.6395 14.4013 29.0936 12.7497 28.1039 12.4728C28.0055 12.4943 27.9074 12.5167 27.8096 12.54C27.8061 12.5335 27.8025 12.5271 27.7989 12.5207C27.7463 12.4211 27.6927 12.324 27.6383 12.2296C27.731 12.1702 27.8235 12.1103 27.9158 12.0501C28.1912 12.0624 28.4693 12.0862 28.7493 12.1216C28.7531 12.1219 28.757 12.1221 28.7608 12.1224C28.763 12.1196 28.7652 12.1168 28.7674 12.114C28.8019 12.064 28.8361 12.0138 28.87 11.9633C28.0769 10.8419 27.2272 9.91171 26.1373 9.34848C26.1957 8.99461 26.1577 9.13446 26.3517 8.76471C26.2894 8.72666 26.2269 8.68969 26.1641 8.65378C25.7624 8.87179 25.3773 9.10718 25.0125 9.36145C24.2467 9.00583 23.9923 7.93847 22.9896 8.0641C22.5572 8.13328 22.466 8.11687 22.1622 7.91036C22.2353 7.54512 22.2747 7.56714 22.2041 7.22219C22.1397 7.23053 22.0753 7.23947 22.0112 7.24901C21.9276 7.43429 21.8469 7.62044 21.7689 7.80739C21.7054 7.79672 21.6415 7.78664 21.5772 7.77717C21.5701 7.59366 21.5613 7.4101 21.5508 7.22646C20.2271 7.3866 20.692 8.07576 18.8713 7.90704C18.8207 7.85157 18.7694 7.7964 18.7175 7.74154C18.773 7.52559 18.8323 7.30996 18.8953 7.09474C18.4686 7.0465 18.4859 7.02909 18.1412 7.30621C18.063 7.67517 18.0501 7.76549 18.032 8.14834C17.5205 8.3174 17.5337 8.21591 17.1161 7.59995Z" fill="#F6F2EC"/>
</svg>
