<svg width="662" height="303" viewBox="0 0 662 303" fill="none" xmlns="http://www.w3.org/2000/svg">
<g clip-path="url(#clip0_1782_10683)">
<rect width="662" height="303" fill="#610228"/>
<g opacity="0.4">
<path opacity="0.2" d="M407.547 76.2916C407.55 76.2196 407.554 76.1475 407.557 76.075C408.436 64.4344 408.363 62.6137 407.997 61.1263C408.292 58.5048 407.282 58.8785 420.446 43.6722C423.644 40.3954 425.956 38.1568 427.623 36.2758C432.476 31.0265 433.705 28.1757 437.316 25.2097C440.837 22.5022 447.583 19.2424 461.204 20.8164C462.536 17.4637 462.125 18.6412 461.687 15.1131C463.163 14.4591 468.719 13.132 476.141 12.6904C486.277 12.1693 496.72 13.7168 507.946 18.781C513.233 21.2758 516.32 24.1491 518.185 25.5835L518.25 25.6284C525.566 31.2799 530.568 36.8684 532.867 39.2864C533.165 41.0326 533.412 42.7685 533.609 44.4917C536.427 46.7287 547.011 58.3668 547.471 60.2071C549.613 65.6618 551.435 70.8143 553.062 75.9444C555.763 84.398 557.05 92.0504 559.296 99.2626C557.239 101.552 558.129 100.841 555.304 102.084C555.52 102.986 555.793 103.682 556.124 104.232C556.722 105.294 557.35 105.791 558.161 106.068C558.937 106.302 560.005 106.42 560.69 105.646C560.634 105.599 560.534 105.491 560.278 105.29C560.08 105.158 559.186 104.52 557.776 104.535C557.121 104.542 556.578 104.724 556.33 104.856C556.073 104.992 556.058 105.064 556.162 105.018C556.384 104.932 557.008 104.426 557.735 103.658C558.528 102.847 559.178 101.981 560.842 100.262L560.356 100.835C561.637 99.6532 562.737 96.3567 565.808 91.7689L565.602 92.1068C576.76 73.932 597.255 50.8709 616.536 42.8421C620.357 41.2577 623.921 41.0938 627.071 40.7515C633.687 40.6124 638.515 42.5404 640.542 43.169L640.565 43.1662C640.612 43.1927 640.657 43.2195 640.698 43.2468C640.845 43.9872 640.992 44.7276 641.139 45.468C641.056 45.5415 640.973 45.6139 640.888 45.6852L640.851 45.69C636.077 48.7167 630.786 48.7305 629.203 49.4504C628.032 49.7779 626.978 50.0509 625.984 50.3349C624.106 50.8495 622.093 51.586 621.819 51.7302C610.337 58.1235 598.975 66.9275 589.871 77.8179C584.665 84.0289 579.896 90.7199 575.449 97.6758L575.271 97.9675C573.653 99.9292 572.489 103.753 569.405 107.661L569.066 108.06C568.014 109.017 566.412 111.18 564.308 113.015C563.201 113.941 561.924 115.019 559.676 115.626C557.398 116.35 554.235 115.262 552.928 113.878C550.166 111.045 550.007 108.788 549.307 107.075C546.096 98.0435 544.848 89.0763 541.829 80.8017C538.597 71.9438 534.18 63.4221 528.646 55.5751C523.643 48.497 517.656 42.0176 510.617 36.7142C508.169 34.8933 505.699 32.8248 502.637 31.445C500.827 30.6265 498.964 29.969 497.073 29.4248C490.906 27.6855 484.067 27.5683 477.661 27.6913C477.256 27.7004 476.852 27.7077 476.449 27.7127C467.724 27.7397 457.075 26.6605 451.253 34.1642C449.855 36.0906 444.026 39.4928 438.401 45.9105C433.175 51.6087 428.223 59.7752 424.876 67.8973C423.212 71.6548 421.331 75.5189 420.313 79.2856C418.889 84.454 417.632 89.5123 416.568 91.5765L416.285 92.3818C416.036 93.7539 415.835 94.8992 415.692 95.7716C414.096 105.504 413.158 115.327 411.946 125.107L411.957 125.679C412.376 127.65 412.201 130.008 412.057 132.395C412.002 133.302 411.94 134.227 411.916 135.185C411.711 143.34 411.375 151.67 412.67 159.745C414.128 168.913 417.733 177.446 420.586 186.09C424.255 197.202 428.762 207.989 433.58 218.634C446.399 246.921 461.128 274.456 479.644 298.958C479.717 299.418 480.901 305.517 480.973 305.579C486.441 312.906 503.887 326.803 506.46 334.159C505.778 335.527 505.103 336.901 504.435 338.28C505.082 338.9 505.731 339.515 506.384 340.128C508.448 337.93 507.458 339.099 509.314 336.62C510.392 337.42 511.541 338.35 512.756 339.377C512.567 339.16 512.816 339.34 513.112 339.479C513.421 339.635 513.829 339.835 514.288 340.063C515.24 340.57 516.232 340.926 517.969 342.311L515.318 341.094C517.619 341.388 520.047 341.742 522.55 342.126L519.82 342.441C520.939 342.025 521.397 341.95 522.006 341.79C522.578 341.651 523.108 341.531 523.62 341.413C524.622 341.183 525.661 340.934 526.239 340.742C527.818 340.209 529.392 339.541 530.937 338.758C536.957 335.785 543.164 329.546 550.063 322.751L550.021 322.787C559.958 312.983 569.924 302.507 579.101 296.801C580.311 296.048 582.131 298.002 583.29 298.844C583.846 298.266 584.399 297.686 584.951 297.105C584.911 295.224 584.183 291.459 585.544 290.088C593.003 282.493 591.029 273.147 601.345 270.341C603.722 267.266 605.278 264.043 606.818 261.108L606.831 261.092C607.841 258.939 609.022 256.305 611.473 253.862C611.56 253.78 611.65 253.698 611.74 253.617C614.392 253.682 615.459 253.932 618.003 254.433C618.537 253.913 619.07 253.393 619.604 252.874C619.816 250.95 620.066 248.556 620.333 245.687C621.664 243.594 622.989 241.501 624.267 239.42L624.226 239.476C631.027 228.253 638.217 216.938 645.665 206.25C647.382 203.789 648.59 199.831 649.588 196.736L649.642 196.656C650.268 194.791 650.818 193.243 651.357 192.511C656.789 185.085 661.242 177.421 665.333 169.82C666.854 167.036 668.168 164.597 668.917 162.778L668.974 162.661C670.198 159.922 671.384 157.17 672.582 154.408C672.977 153.522 675.794 150.61 676.002 150.21C678.207 146.269 681.866 144.474 681.494 140.274C680.095 139.663 678.693 139.059 677.29 138.461C677.138 137.547 676.977 136.639 676.806 135.736C679.278 133.125 678.974 133.656 682.048 131.56C681.33 126.004 679.145 128.813 679.314 126.313C679.477 124.181 681.626 116.327 682.295 110.618L682.291 110.686C682.607 108.3 682.636 106.03 682.358 105.32C680.988 101.71 678.875 100.748 677.767 95.0079C677.584 94.2697 677.421 93.4363 677.281 92.509C677.809 92.1112 678.336 91.7213 678.86 91.3221C683.052 88.0622 683.639 88.1164 684.335 83.6828C683.883 83.0412 683.424 82.4185 682.958 81.8106C681.175 83.0653 679.527 84.1175 677.652 85.181C676.431 83.914 675.91 78.5146 674.682 73.8739C673.331 69.0025 672.248 66.8083 670.003 65.0091C667.214 63.4159 666.591 62.9142 666.324 62.6826C666.022 62.2594 662.109 61.1663 659.517 60.173C658.509 59.1098 657.349 57.9768 655.949 56.5474L660.691 58.0629C659.97 57.2622 659.224 56.4775 658.438 55.7027C657.409 55.5624 656.38 55.4221 655.352 55.2818C649.68 53.5451 643.093 50.4055 639.303 46.3689C639.891 44.7462 640.479 43.1234 641.066 41.5007C646.127 44.5734 653.951 45.494 662.518 45.8207L661.561 45.5145C665.445 46.9763 668.825 46.8308 671.879 47.4611C673.788 47.8346 675.721 48.5985 677.741 49.3041C691.592 53.7311 695.83 69.9127 688.057 74.4476C687.642 74.2441 687.226 74.0479 686.809 73.8592C683.839 72.5353 682.274 71.7117 679.385 72.7155C679.383 73.4255 679.363 74.1497 679.328 74.8831C684.148 77.9428 689.829 76.1774 695.49 74.7984C702.28 86.7107 693.313 84.0596 694.98 92.8909C695.113 93.736 695.249 94.5905 695.39 95.4252C696.32 101.034 698.059 106.117 699.059 111.627L699.058 111.639C700.89 121.762 701.308 132.468 696.597 143.129C692.407 152.201 692.994 150.275 695.813 156.84C692.951 165.219 690.274 166.661 686.576 171.404L686.602 171.352C685.817 172.406 684.964 173.507 684.027 174.741C683.143 175.909 682.913 178.025 682.59 180.481C682.177 183.366 681.505 186.862 679.33 190.116C676.17 190.302 677.365 190.473 674.687 188.816C674.14 189.322 673.593 189.825 673.045 190.328C674.154 193.377 673.378 192.017 676.076 193.913C675.623 194.392 675.171 194.87 674.718 195.347C673.601 195.264 672.484 195.178 671.368 195.09C670.516 196.125 667.941 200.697 664.576 206.855L664.608 206.808C657.412 220.369 645.911 241.512 640.092 251.042L640.028 251.129C638.119 254.184 636.823 256.015 636.476 256.242C631.358 259.48 627.884 262.258 625.366 264.95C623.593 266.764 622.245 269.348 620.572 272.126L620.587 272.107C616.282 279.69 614.578 287.471 598.899 296.71C597.308 297.619 593.875 309.554 587.768 314.805C583.759 316.119 583.583 315.734 579.655 315.294C578.891 315.86 578.126 316.423 577.36 316.984C578.135 320.39 577.749 319.309 579.565 322.16C579.085 322.735 578.604 323.308 578.121 323.881C576.973 324.106 575.825 324.325 574.679 324.54C571.909 329.74 572.721 329.828 568.539 333.042C565.1 333.305 562.415 333.076 559.661 333.889L559.608 333.934C558.786 334.156 557.949 334.485 557.079 334.961C556.811 336.799 556.53 338.65 556.209 340.522C550.16 345.057 543.615 347.218 534.442 352.521C533.828 352.859 532.631 353.483 530.957 354.196C529.508 354.768 528.423 355.099 527.299 355.463C526.748 355.639 526.207 355.811 525.735 355.974C525.502 356.054 525.284 356.134 525.137 356.199C525.064 356.231 525.01 356.259 525.005 356.273C525.008 356.283 525.036 356.293 525.285 356.209L523.277 357.097L520.363 356.777C518.024 356.613 515.5 356.438 513.051 356.278L510.526 356L507.932 353.928C508.378 354.355 508.207 354.244 507.955 354.158C507.685 354.052 507.268 353.873 506.77 353.651C506.267 353.425 505.683 353.159 504.946 352.762C504.188 352.323 503.357 351.945 501.796 350.526L501.806 350.536C498.404 347.755 496.02 345.767 496.125 346.217C492.793 331.8 473.043 330.676 477.29 315.959C473.554 312.69 471.022 310.43 467.721 306.661C467.112 300.724 468.008 302.079 465.216 297.405C461.601 295.861 460.255 296.457 456.761 296.979C456.457 296.487 456.154 295.995 455.853 295.502C456.953 295.092 458.051 294.68 459.149 294.266C457.569 286.049 445.692 283.76 439.936 270.791C440.133 270.443 440.33 270.096 440.528 269.749C441.929 270.357 443.331 270.956 444.734 271.546C445.53 267.784 445.021 266.266 444.847 262.244C441.771 261.238 441.349 261.395 438.236 261.292C437.617 260.649 436.999 260.004 436.383 259.357C437.741 257.198 438.783 255.341 439.709 252.867C439.116 252.19 438.526 251.514 437.935 250.833C421.384 251.434 425.179 230.734 417.961 226.89C417.265 226.94 416.57 226.988 415.874 227.037C415.719 226.709 415.564 226.381 415.409 226.053C414.983 225.148 414.56 224.245 414.142 223.344C414.751 222.909 415.36 222.474 415.969 222.04C417.641 222.633 419.307 223.203 420.98 223.778C421.383 223.914 421.786 224.05 422.189 224.185C422.352 223.818 422.516 223.451 422.68 223.084C422.72 222.994 422.76 222.903 422.8 222.813C415.878 210.852 410.206 198.664 404.552 185.151C405.932 182.388 405.289 183.346 407.66 181.64C407.393 180.869 407.131 180.095 406.873 179.319C403.687 178.022 400.522 176.605 397.375 175.05C394.068 162.952 398.939 153.832 395.782 142.877C394.748 139.115 394.514 137.431 394.868 135.025C394.99 133.782 395.226 132.643 395.529 131.558C398.005 131.771 397.881 132.147 400.146 130.837C400.057 130.187 399.961 129.617 399.849 129.143C398.559 128.69 397.256 128.343 395.945 128.188C395.953 127.986 395.942 127.969 395.984 128.271C396.759 128.268 397.535 128.256 398.311 128.226L398.217 123.058C398.669 122.997 399.121 122.937 399.572 122.877C399.836 109.187 394.361 113.073 399.23 93.9736C399.7 93.5636 400.17 93.1536 400.639 92.7436C401.884 93.7898 403.129 94.8359 404.374 95.882C405.244 93.017 405.537 92.3 405.327 90.7458L406.992 86.004C406.642 86.5177 406.493 86.739 406.368 86.8645C406.251 86.9801 406.171 86.9983 406.102 86.9617C405.966 86.8836 405.865 86.6021 405.756 86.1837C403.764 84.6409 403.271 84.2229 401.035 82.9157C401.746 78.0034 402.314 78.3021 407.547 76.2916Z" fill="#F6F2EC"/>
</g>
</g>
<defs>
<clipPath id="clip0_1782_10683">
<rect width="662" height="303" fill="white"/>
</clipPath>
</defs>
</svg>
