<svg width="104" height="104" viewBox="0 0 104 104" fill="none" xmlns="http://www.w3.org/2000/svg">
<g clip-path="url(#clip0_1222_9017)">
<path d="M48.4882 36.0675C48.0922 35.9695 48.1909 36.0212 48.538 35.9495C48.88 35.8902 49.4147 35.7476 49.8447 35.6301C50.1134 35.5544 50.2817 35.9902 50.4839 35.9435C50.8697 35.8634 50.93 35.4381 50.9514 35.7469C50.9554 35.8667 51.609 36.1696 51.6051 36.2807C51.5972 36.4089 51.5137 36.5704 51.3564 37.1494C51.2565 37.6343 50.8428 39.0226 51.7758 40.9653C52.2481 41.9084 52.9577 42.6082 53.5869 43.0267C54.169 43.4155 54.6501 43.5829 54.9614 43.6736C55.5808 43.84 55.7798 43.8111 55.8811 43.8135C55.1387 43.805 54.4512 43.7361 53.8243 43.6197C50.2704 42.8987 47.7855 41.8082 46.0267 41.4506C45.624 41.3576 45.3104 41.3238 45.2776 41.2942C45.2211 41.2622 45.615 41.2018 46.1154 40.7693C46.6207 40.3376 46.7963 39.7852 46.7678 39.7406C46.7512 39.668 46.6674 39.9065 46.6423 40.2655C46.5852 41.2229 46.6301 42.0724 46.7374 42.6156C46.859 43.179 46.9115 43.3001 47.0489 43.4996C47.1384 43.9625 49.7799 45.318 52.2501 45.1005C52.5391 45.0826 52.4008 44.4499 52.4579 44.4015C53.3354 43.6546 53.0061 44.9 53.5684 45.0864C54.3063 45.3221 55.0732 45.4817 55.8811 45.5795C57.6809 45.7838 59.397 45.7575 60.9684 45.5925C61.9887 45.4867 60.979 44.2486 61.9765 44.9426C62.0444 44.9895 61.7998 45.6528 62.0656 45.7229C62.6254 45.881 63.8909 45.7578 64.318 45.8074C65.3081 45.9054 65.3402 45.8989 66.2743 45.8949C66.8337 45.8953 67.5026 45.9703 68.1243 46.0146C68.447 46.0362 68.7368 46.0513 69.022 46.0423C69.2387 46.0427 69.6181 45.9818 69.4559 45.9711C69.418 45.9707 69.3279 45.9453 69.2785 45.8874C69.2278 45.8297 69.2149 45.7376 69.1895 45.6467C69.1609 45.5574 69.1328 45.4622 68.98 45.4313C68.8997 45.4188 68.7888 45.4178 68.5624 45.497C68.5053 45.5175 68.4403 45.544 68.3646 45.5801C68.3267 45.5981 68.2861 45.6187 68.2425 45.6423C68.2008 45.6652 68.1523 45.6913 68.0462 45.7628C67.6879 46.0186 67.0429 46.4826 66.5823 47.6241C66.0941 48.7947 66.3513 50.2633 66.7594 50.9796C66.9546 51.3594 67.1544 51.6167 67.3184 51.8053C67.4194 51.922 67.5076 52.0115 67.5863 52.0863C67.9093 52.3839 68.0104 52.4295 68.0447 52.4601C68.1151 52.5098 67.9832 52.4348 67.8443 52.3562C67.5448 52.187 67.1499 51.9338 66.9826 51.7569C66.6256 51.3913 67.0599 51.0137 67.0428 50.8668C66.9835 50.2495 66.4349 50.0595 65.7975 49.8999C65.169 49.7553 64.4202 49.5733 64.2848 49.4612C63.3218 48.7447 62.0857 47.0934 62.0981 45.05C62.1205 43.0432 62.9705 41.8111 63.6629 40.958C64.667 39.8504 65.6923 38.8158 66.2929 37.6196C66.6934 36.823 66.9108 35.9955 66.9279 35.416C66.945 34.8153 66.8092 34.6217 66.7447 34.4496C66.6864 34.0157 65.3173 32.6993 63.2794 32.2854C63.0676 32.2378 63.1156 33.0735 62.8629 33.0198C60.6988 32.571 58.2313 32.3038 55.7146 31.905C55.0305 31.8011 54.3624 31.6841 53.6959 31.5538C53.3678 31.4896 53.8129 30.8004 53.4855 30.6946C51.532 30.0366 48.1664 28.7496 47.4283 31.9417C46.2083 31.9507 44.8597 32.1009 43.6933 31.8449C42.9306 31.6891 43.2938 30.743 42.6006 31.353C42.4489 31.492 42.9246 32.0213 42.6906 32.1798C41.7245 32.8389 40.5201 33.2895 39.7798 34.2715C39.6328 34.4707 40.0472 34.9104 40.0607 35.0355C40.1797 36.0355 38.5617 35.5298 38.3171 35.6159C36.7493 36.0952 36.0585 37.1317 35.1758 38.2294C35.1012 38.3235 35.0285 38.4166 34.9565 38.5086C34.7852 38.7312 35.6217 38.9532 35.498 39.1648C34.8757 40.2832 34.6123 40.9764 34.3862 42.278C34.3425 42.5692 33.6273 42.3997 33.5743 42.5551C33.3786 43.3128 34.6795 43.1537 34.606 43.8597C34.5972 44.0159 34.0146 44.1247 33.962 44.1709C33.1483 44.9301 34.6513 44.8164 34.7178 44.8938C35.6725 46.0451 34.8569 47.6563 35.8641 48.974C35.9859 49.1288 36.4054 48.375 36.708 48.8312C38.6595 51.8621 41.206 55.5644 41.3319 60.4268C41.3214 61.1652 40.7086 60.6973 40.6463 60.7551C40.021 61.2583 40.3403 61.5441 40.6826 61.8077C40.8868 61.8956 41.1038 61.9354 41.1263 61.9688C41.355 62.3153 41.2026 62.3871 41.2628 62.5279C41.3116 62.6497 41.7075 62.7028 42.1534 61.9321C46.191 63.2479 53.0307 60.0078 59.2287 59.9143C59.3102 59.9098 59.365 60.6316 59.5267 60.6198C61.4832 60.4849 60.8301 59.5224 61.7071 57.8832C61.9368 57.4687 63.3101 58.7874 63.4208 58.8825C63.8424 59.2264 63.7898 60.3318 63.9149 60.387C64.9318 60.8139 63.9006 57.4706 65.0912 57.1755C65.129 57.1722 65.1279 57.834 65.2409 57.8722C65.5908 57.9933 65.8308 57.6736 66.1867 57.8184C66.9923 58.1601 67.587 59.7603 68.4167 58.59C68.5279 58.4407 67.9461 56.5244 69.0703 56.4247C69.2601 56.4099 69.7567 56.3323 70.2781 56.2753C70.9752 56.1973 71.7367 56.1403 72.0503 56.1855C72.6025 56.2642 72.2869 56.9336 72.3268 56.9576C73.8295 57.6814 73.331 58.0759 74.084 59.2809C74.8419 60.4897 74.4944 57.5359 74.7957 57.1927C75.0811 56.8486 76.1659 57.5298 76.4008 57.7752C76.6634 58.0179 76.3366 58.4226 76.5667 58.5603C78.021 59.4655 77.2414 57.0921 77.6943 56.6225C77.9599 56.3438 78.1712 56.2652 78.2644 56.3081C78.3751 56.36 78.2249 56.4911 77.9583 56.961C77.8436 57.1905 77.8367 57.4431 77.9205 57.5531C78.0014 57.6685 78.1325 57.6786 78.2508 57.6394C78.4911 57.5596 78.6916 57.3331 78.7571 57.0945C78.8276 56.8297 78.3172 57.0296 78.2794 56.7896C78.1289 55.8232 78.8161 55.21 78.2387 54.0237C78.1947 53.9357 77.8912 53.6756 77.6874 53.3376C77.4545 52.9694 77.344 52.5528 77.8771 52.2724C78.0214 52.1983 78.5567 52.4594 78.7017 52.0538C78.9213 51.4099 79.0993 50.2709 78.9468 49.5981C78.8351 49.079 77.9052 49.6217 78.2149 48.9938C78.3527 48.7195 78.858 49.2605 79.0725 48.7455C79.2877 48.2299 79.3171 46.8752 79.3137 46.3682C79.311 45.8516 78.6167 46.1149 78.5719 46.071C78.3156 45.8244 78.0084 44.852 78.01 44.7547C78.1233 41.6126 78.1297 38.7241 78.3615 35.4298C78.4253 34.5123 78.234 33.572 77.7736 32.719C77.6357 32.4652 77.0453 32.9271 77.0174 32.8913C76.3572 32.1897 78.4245 32.044 78.6348 31.0535C77.3952 31.8519 77.4388 31.3394 76.8924 30.8128C76.6269 30.5633 76.2698 31.0487 76.2034 31.0543C75.2205 31.1521 75.896 30.2172 76.0083 29.9908C76.4382 29.1833 75.4202 29.518 75.6817 28.968C75.9276 28.4082 76.9462 28.3063 76.4131 27.7315C75.8836 27.9318 75.2418 29.2612 74.7038 29.0062C72.9036 28.1212 70.6336 25.2575 69.3718 23.1387C69.2966 23.0009 69.2323 22.888 69.1628 22.7787C68.2508 21.3815 67.9289 21.296 67.406 20.8354C66.8574 20.4445 66.4957 20.6062 66.3104 20.8462C66.1025 21.0943 65.984 21.4484 65.4731 21.653C64.4196 22.0784 64.9746 19.5957 64.8323 19.0511C64.6805 18.5093 64.4817 19.0607 64.2845 18.7628C64.0795 18.4651 64.5347 18.1024 64.0433 17.9876C63.7799 17.9254 63.2686 18.1798 62.8284 18.5157C62.6639 18.6569 62.4872 18.8131 62.3386 18.9664C62.2106 19.1195 62.1179 19.2695 62.0797 19.3985C61.7337 20.5957 62.3168 21.8392 61.0606 21.4168C60.9868 21.3919 61.2106 20.7292 60.937 20.6671C58.714 20.1981 56.4201 20.2572 54.1734 19.9473C53.861 19.904 54.0912 19.1551 53.9078 19.1218C52.0242 18.7778 52.765 19.9681 51.8701 21.4133C51.952 19.5754 51.305 18.498 49.8793 18.6195C49.0298 18.6938 49.2526 19.4747 48.7651 20.0905C48.6213 20.2756 47.9663 19.7963 47.9001 20.182C47.6864 21.4427 48.3939 22.7372 46.922 22.3672C46.8567 22.3493 46.9703 21.658 46.7503 21.6449C45.3244 21.5641 45.332 22.8566 43.9008 23.2457C42.7783 23.5497 40.6142 23.1804 39.3075 23.397C38.8359 21.393 37.6657 22.1972 37.6251 23.7034C36.8073 23.8997 35.9978 24.282 35.2069 24.4269C34.9395 24.476 34.8465 23.8644 34.7895 23.8198C33.8375 23.1506 34.1441 24.5569 34.0306 24.6832C33.1473 25.582 32.1963 25.974 31.8615 26.7344C31.6269 27.274 31.4961 27.8861 31.6131 28.5894C31.6243 28.6706 32.9388 29.2204 31.8002 29.3503C31.7212 29.3628 31.2948 28.5663 30.9767 29.3956C30.6611 30.2035 29.4984 31.7183 29.936 33.0868C30.0369 33.4215 31.0597 34.3381 30.0831 34.8179C29.9503 34.8825 29.5567 34.7384 29.3152 34.8269C28.5443 35.124 29.9502 35.5063 28.6821 35.8233C27.414 36.1462 26.3949 37.0757 27.1589 38.4642C27.181 38.5074 28.3029 38.8925 28.2658 39.2934C28.2037 39.9454 27.9369 40.8769 27.9351 41.5591C27.9345 41.889 28.6472 41.687 28.6594 41.7443C29.0357 43.9344 28.4412 45.4979 28.2892 47.8772C28.2597 48.3161 29.3021 49.4932 28.6033 50.3794C27.8418 51.3665 24.2825 50.6862 25.3 52.7829C25.712 53.6362 30.2141 54.2587 28.1117 56.034C28.2614 56.5156 28.3647 56.9913 28.4401 57.4752C28.6221 58.6822 28.5909 59.951 28.3396 60.8654C28.2788 61.1097 28.1382 61.2366 28.2124 61.1532C28.3532 61.0793 28.3057 61.1558 28.0855 61.0603C27.682 60.8982 27.1707 60.5836 26.5996 60.2977C26.4932 60.2516 25.316 60.8429 25.1034 60.613C24.7796 60.2619 24.9977 59.6641 24.7906 59.4036C23.9183 58.2832 22.6723 57.7085 21.7501 56.7303C21.3956 56.3589 21.9365 56.0458 21.502 55.6037C21.0593 55.1616 20.249 55.49 19.8471 54.6779C19.5501 54.0726 19.9941 52.3867 19.2775 51.7052C18.3956 53.0275 17.911 52.6445 16.8016 52.5854C16.5906 52.5786 16.5517 53.1659 16.443 53.1901C16.0202 53.311 15.8803 52.7699 15.4758 52.9701C15.3805 53.0192 15.2277 53.538 15.1508 53.6111C14.8191 53.9319 14.5951 53.779 14.3736 53.5252C14.1557 53.27 13.9233 52.9188 13.8463 52.8165C13.558 52.4263 13.3138 52.4373 13.1311 52.5128C12.9452 52.5898 12.8136 52.7263 12.547 52.6556C11.982 52.5406 12.5342 51.8855 11.893 51.9472C11.6362 51.98 11.3672 52.0573 11.0966 52.1773C10.7923 52.352 10.738 52.7264 10.919 53.027C11.3566 54.0207 12.0745 54.9976 12.6126 55.8376C12.8809 56.2503 13.2939 55.5699 13.3462 55.6196C14.0644 56.3636 13.9988 57.6459 15.5074 57.3154C12.8108 59.9692 16.1484 57.6249 16.3391 59.2477C16.3529 59.3765 14.9732 60.4753 14.514 60.2532C14.0551 60.0309 14.1406 59.1709 13.4668 58.8874C13.308 58.8197 11.4786 59.0477 11.3328 59.0093C10.1926 58.7076 12.3058 57.1424 12.3996 57.0232C13.3982 55.716 11.3607 55.862 11.1106 55.7088C10.3137 55.2212 9.94118 54.5565 9.48472 53.9869C8.7896 52.8324 8.99813 51.3942 10.1669 50.7233C10.5509 50.4459 10.9234 50.1953 11.3115 49.9069C12.1599 49.3167 11.9236 47.6135 12.9744 47.5167C16.5483 47.5628 16.293 50.3288 19.1428 49.3356C19.736 49.1624 20.3571 47.3015 21.0158 49.4602C21.0823 49.608 21.2361 51.3552 22.2423 51.0656C22.3717 51.0297 22.7077 50.5966 22.8212 50.6274C23.5773 50.8475 23.6565 51.486 24.3541 51.8234C25.051 52.1615 25.9111 52.542 26.3563 53.2367C26.632 53.6603 26.3328 54.8046 26.3141 55.1399C26.2414 56.0867 27.5412 55.7231 27.179 56.5951C26.824 57.4802 25.3627 57.9018 25.6574 58.9962C26.6869 58.0119 27.7689 57.0266 28.8168 56.0488C29.1705 56.4158 29.482 56.7669 29.7272 57.0482C29.8565 57.1948 29.9506 57.3071 30.0121 57.3887C30.0595 57.4635 30.0742 57.487 29.8413 57.4013C29.6952 57.3493 29.4757 57.2607 29.0454 57.187C28.538 57.1081 27.7788 57.0507 26.7839 57.4472C24.6797 58.4579 24.6295 59.6838 24.5244 59.8732C24.4512 60.2051 24.4985 60.1615 24.5041 60.0945C24.5155 60.0294 24.5201 59.8813 24.5075 59.6953C24.4936 59.534 23.7341 59.7246 23.6979 59.5529C23.6125 59.1099 23.6954 58.6523 23.7214 58.0577C23.7367 57.4877 23.7345 56.9293 23.5647 56.3285C23.2803 55.3397 22.358 54.3094 22.0549 53.2505C23.6153 52.448 22.93 50.9184 23.0026 49.7473C23.0269 49.3383 23.4632 49.3377 23.587 49.0437C24.0462 47.9258 22.6397 48.5177 22.3963 48.2303C21.3641 46.9832 24.6121 46.7224 24.4862 45.2378C24.4797 45.159 22.7219 44.2215 22.6129 44.0776C21.8967 43.212 23.215 43.9242 23.3383 43.3823C23.5673 42.3883 23.9849 41.7157 23.5061 40.5372C23.3638 40.1983 22.3105 39.3195 23.1833 38.6926C23.2975 38.6095 23.8683 38.6892 23.9057 38.6203C24.539 37.3887 22.7483 37.2278 22.2015 36.4214C21.6562 35.6033 23.03 34.5615 23.418 34.3744C24.4177 33.877 23.7517 34.8969 23.8413 34.9364C24.875 35.444 24.7808 34.5978 24.9597 33.9855C26.7227 34.1355 26.745 33.2755 25.1415 33.3457C24.9655 33.3547 25.0561 33.873 24.9597 33.9855C23.3153 33.201 23.2556 32.1028 25.066 31.3273C25.9177 30.9791 26.6671 31.6274 26.6992 30.0715C26.7255 29.3662 25.4796 29.3174 25.3294 28.606C25.0411 27.1728 26.3319 25.7918 27.0363 24.5104C27.2107 24.1666 27.3895 23.8458 27.5593 23.5387C28.0446 22.7149 26.9637 23.0944 27.3026 22.5139C28.3 20.952 29.6416 20.6183 30.5694 19.7305C30.6574 19.6489 30.0428 19.2045 30.3917 18.9839C33.0265 17.3838 35.2156 17.219 37.5856 16.5904C38.7424 16.2882 40.6773 15.4903 41.8551 15.3678C43.9023 15.1336 46.4512 15.8276 48.0888 15.4079C49.1635 15.1366 48.8554 14.4687 49.2794 13.9491C50.111 12.9407 51.8599 14.4588 52.0826 14.7005C52.091 14.7077 51.1691 14.9443 51.6956 15.2628C52.0412 15.985 52.0717 14.7046 52.0826 14.7005C52.2358 14.8517 54.1147 14.8842 54.4743 14.733C54.6691 14.6488 54.52 13.9948 54.6224 13.9634C57.1056 13.2309 59.6061 12.977 62.1857 13.2668C62.2284 13.2799 62.1696 14.0201 62.2687 14.0417C62.4748 14.0835 62.6696 14.1049 62.8284 14.1093C63.9776 14.1431 64.7733 13.3778 66.1906 12.9895C67.7169 12.476 70.5363 13.3276 71.2753 15.3859C73.3051 16.4746 73.9557 18.4504 74.1625 19.2843C74.2018 19.4408 74.2718 19.5475 74.362 19.6181C74.5704 19.643 75.3715 19.0671 75.3976 19.0628C76.7112 19.2081 77.1397 20.6575 78.6496 22.2858C79.3809 23.0627 81.1624 24.6083 82.1643 25.6982C82.9587 26.5422 83.0809 27.3293 83.8331 28.2383C83.9347 28.3647 84.4209 27.9166 84.4661 27.948C85.7925 28.8359 84.0742 28.9439 83.9453 29.3089C83.4305 30.6602 83.1512 31.27 83.9977 32.8069C84.1866 33.1075 86.6179 34.0627 86.7647 34.9942C86.7964 35.1732 86.7995 35.3151 86.7848 35.4298C86.7078 35.7308 86.1596 35.6515 86.3299 36.1269C86.3469 36.1756 86.8446 36.1526 86.8299 36.4875C86.801 37.2702 86.7399 37.8419 86.7597 38.7862C86.7901 39.7853 86.8195 41.1525 86.8585 42.2097C86.8686 42.5105 87.6542 42.1079 87.6807 42.5501C87.7969 44.5554 87.6969 46.5797 87.2571 48.3155C87.1455 48.75 86.6029 48.4523 86.4346 48.5408C85.416 49.0703 86.8231 49.9626 86.8447 50.0875C87.0731 51.4717 86.9465 52.6322 86.7527 53.8492C86.6271 54.5578 86.4906 55.2341 86.4262 56.0283C86.3923 56.4429 86.3824 56.8527 86.3727 57.4945C86.3626 57.8357 86.368 58.1958 86.287 58.89C86.1557 59.5481 86.1894 60.6873 84.775 62.6949C84.5321 63.0297 83.7017 64.1653 82.3926 64.9743C81.121 65.7723 80.0432 66.0807 79.3687 66.2748C78.0747 66.6215 77.626 66.6236 77.2823 65.9669C77.2319 65.8785 76.6534 64.5103 76.2069 65.4425C76.1791 65.5011 76.498 66.1996 75.9452 66.1317C75.3995 66.0644 74.5981 66.5585 73.8113 65.8442C73.5745 65.6177 72.8804 64.3078 72.2511 65.4651C72.229 65.5109 71.9595 66.3609 71.6084 66.7869C71.4241 67.0966 71.186 67.1698 70.9181 66.479C70.8135 66.2163 70.6038 64.431 69.9301 65.4857C69.8034 65.6907 70.1629 66.0271 69.7968 66.3515C69.2517 66.8485 68.2542 66.58 67.6089 67.5574C67.4957 67.7296 67.1712 69.0593 66.4396 68.2985C66.3235 68.1797 66.3267 67.5625 66.0385 67.5685C64.6705 67.5942 63.3886 68.3644 61.9122 68.3506C61.3893 68.347 61.3763 67.3488 60.7992 67.2429C60.2208 67.1375 59.125 67.1882 58.7034 67.7635C58.281 68.3391 59.2874 69.6543 58.5047 69.9997C55.0553 71.4885 51.2471 71.6525 46.7961 72.0861C46.1105 72.1413 46.7508 72.6337 45.7126 72.7376C44.2324 72.8188 42.3947 73.1962 39.0434 72.3333C37.4201 71.8758 34.9985 70.7779 33.2469 68.3755C31.505 65.9813 31.2162 63.4632 31.2978 61.8077C31.4145 61.7687 31.5832 61.5272 31.8085 61.1878C32.1448 60.6432 32.5219 60.506 32.8903 60.5248C33.2468 60.522 33.5667 60.6128 33.5932 60.0793C33.599 59.527 31.7136 59.6823 31.6175 59.6086C30.5903 58.7367 30.7547 57.4396 29.7867 56.2793C29.5849 56.0387 29.1183 56.6707 28.9531 56.4616C28.3816 55.7489 28.1292 54.7112 27.58 53.8895C27.3323 53.5207 26.8948 53.8691 26.7216 53.4815C26.3039 52.556 26.0449 51.5961 26.0305 50.3794C26.0306 50.2708 26.9396 50.571 26.6046 49.8168C26.0623 48.576 25.866 46.798 24.9425 45.0701C24.6785 44.5616 23.39 44.7411 24.091 43.2793C24.255 42.9555 25.7494 43.2563 24.3924 41.7379C24.1069 41.603 22.5904 38.2452 24.2482 37.0767C24.6537 36.7779 26.1316 36.353 26.2764 35.6279C26.2967 35.5178 25.4914 35.6083 25.7287 34.9875C26.1891 33.8336 26.8412 32.8195 27.5597 31.8947C27.9957 31.3177 28.4397 30.7494 28.8599 30.144C29.1036 29.7935 28.1502 29.7897 28.5467 29.2675C29.6238 27.8404 31.4899 26.3421 33.1971 25.3681C33.8223 25.0134 33.7634 25.7772 33.8433 25.7969C35.1025 26.158 34.7215 24.7551 34.93 24.5251C36.1842 23.1628 37.757 23.1059 39.2214 22.3472C39.6339 22.1404 39.0955 21.6363 39.1606 21.5482C39.8801 20.67 39.6044 22.0355 40.2124 21.9626C41.9082 21.7761 43.6168 21.3462 45.119 21.0471C45.6716 20.9374 44.936 20.2625 45.442 20.1741C48.4407 19.6537 51.2271 19.7505 53.6254 20.231C54.0774 20.3243 53.7752 20.9085 53.8659 21.0462C54.4845 22.0093 55.4541 20.755 55.6714 20.6409C55.8682 20.5371 56.041 20.4755 56.1981 20.4429C56.8659 20.3136 57.2519 20.654 57.9954 20.6237C62.4932 20.771 68.6322 20.3872 75.0568 27.0398C76.8886 29.1971 77.836 32.3823 77.7329 34.7769C77.671 37.217 77.0306 38.9874 76.3953 40.4518C75.0624 43.3667 73.545 45.3236 71.9913 47.4211C72.0399 47.3639 72.1221 47.2632 72.2373 47.0624C72.3973 46.757 72.9433 47.4466 73.1152 47.1078C73.3887 46.571 73.704 45.319 73.4798 44.1011C73.2708 42.8541 72.6979 42.0163 72.3788 41.6409C72.0435 41.2515 71.8883 41.1706 71.871 41.1591C71.8526 41.1532 71.9577 41.2305 72.1446 41.336C72.3458 41.4503 72.5841 41.5719 73.0564 41.8077C73.1601 41.86 73.3237 41.9422 73.4943 42.0323C73.6502 42.1155 73.9115 42.2524 74.269 42.4761C74.3668 42.5379 74.4323 42.5791 74.5878 42.6853C74.7429 42.7919 74.9187 42.9187 75.1261 43.086C75.5613 43.5658 75.9668 43.3697 77.3547 45.9559C77.9326 47.1777 78.3648 49.3263 77.6496 51.4444C76.9593 53.5201 75.6431 54.6989 74.7937 55.3003C73.6538 56.0677 73.1714 56.1784 72.6537 56.3677C72.1046 56.5401 71.9903 56.5546 71.7635 56.6077C71.5601 56.6519 71.381 56.6845 71.2147 56.7119C71.1327 56.7253 71.048 56.7382 70.9777 56.7484C70.9243 56.7562 70.872 56.7635 70.8205 56.7705C70.7177 56.7844 70.6183 56.7967 70.5208 56.8081C70.0992 56.8558 69.8443 56.8773 69.5572 56.9021C69.2548 56.927 69.0175 56.946 68.7796 56.9658C68.5499 56.9854 68.2435 57.0072 68.0532 57.0266C67.7656 57.0515 68.2067 57.7871 67.7348 57.8518C66.7042 57.9896 65.5777 57.9592 64.6149 57.7272C64.1318 57.6153 64.7758 56.9707 64.2887 56.8711C63.284 56.6366 62.1234 56.5863 61.0339 56.7075C60.5526 56.7606 61.2826 57.5234 60.6525 57.5329C59.105 57.5644 57.5305 57.6027 55.8811 57.5782C53.2638 57.5233 50.5172 57.334 47.259 56.1694C46.8798 56.0295 46.8664 54.4556 45.9999 54.5489C45.8321 54.9509 45.71 55.4425 45.5671 55.8812C42.9063 55.3504 38.6743 53.4252 36.4737 49.5913C34.3426 45.8776 34.3603 42.7396 34.3893 40.2655C34.4946 38.5453 34.4884 36.3123 36.4373 33.3102C38.4795 30.1345 42.6044 28.9656 44.5611 28.9733C45.081 28.9518 44.1473 28.1646 45.1477 28.1335C50.4509 28.3034 52.7102 29.2367 54.7166 30.3238C54.8868 30.4318 54.5843 31.8566 55.1652 31.7124C55.2478 31.6938 55.7464 31.6106 55.8811 31.3972C56.2143 31.3421 56.5109 31.2986 56.7054 31.2483C56.7691 31.2296 56.6537 31.0393 56.6623 30.8625C56.6855 30.691 56.7619 30.5011 57.4773 30.5899C58.5727 30.8185 60.1143 30.8644 62.3968 33.0443C64.7336 35.3429 64.8263 38.9626 64.4127 40.3746C63.6092 43.3545 62.6684 44.0669 61.9089 45.0176C60.3464 46.6893 58.8841 47.5945 57.3066 48.3597C56.7978 48.5944 56.9219 47.674 56.5636 47.8287C54.1211 48.8279 51.3393 50.6693 47.5653 49.7704C45.1374 48.9787 46.2893 47.8409 45.7001 46.3669C45.6179 46.179 44.5759 45.5538 44.9747 44.9302C45.9652 43.4392 47.2541 41.946 48.2413 40.3102C48.4717 39.9671 48.2764 40.3812 48.8657 39.5782C48.917 39.5285 48.9217 39.1251 48.9791 38.7836C49.0198 38.5449 49.4696 37.9561 49.4299 37.6089C49.3595 37.2528 48.9829 37.7623 48.8638 37.3825C48.7408 37.0036 48.8733 36.1751 48.4882 36.0675ZM74.7517 22.1954C74.7472 23.1437 76.5499 21.3614 75.6333 21.3289C75.5877 21.3301 74.7516 22.1484 74.7517 22.1954ZM26.8423 59.8412C26.6449 60.4856 26.8444 60.5543 26.8079 60.5643C26.7992 60.5585 26.6847 60.4811 26.5011 60.4249C26.1375 60.2865 25.5023 60.3065 25.0815 60.2041C24.6662 60.0813 25.0161 59.6387 25.7788 59.3224C26.5304 59.0674 27.014 59.4729 26.8423 59.8412ZM23.0666 54.9156C23.2299 56.2826 25.8615 53.8314 24.4934 53.5322C24.4134 53.5134 23.0555 54.8352 23.0666 54.9156ZM49.9578 46.4334C49.9424 46.4079 49.2473 46.463 49.2287 46.4915C48.8948 47.3421 50.4182 47.2222 49.9578 46.4334ZM14.0506 50.9646C14.4061 51.4259 15.5073 51.0537 15.1542 50.3804C14.8117 49.8007 13.5152 50.3567 14.0506 50.9646ZM79.9935 57.1272C79.9566 57.1435 79.8964 57.5318 80.1065 57.5519C80.7993 57.5719 80.6383 56.9637 79.9935 57.1272ZM17.7125 63.7275C16.5562 61.7565 18.2528 58.9567 19.3562 61.2074C19.5561 61.6149 18.0306 60.928 18.1268 61.5526C18.3044 62.6943 20.2397 62.2363 20.0047 63.68C19.9604 63.9425 17.773 63.8436 17.7069 63.7264C17.7088 63.7267 17.7106 63.7271 17.7125 63.7275ZM72.9351 24.6655C72.9235 24.701 73.2942 25.0921 73.3283 25.0783C74.0909 24.6909 73.3421 23.9005 72.9351 24.6655ZM58.0198 60.9744C57.9715 60.9141 56.7449 61.1891 56.7229 61.2632C56.4447 62.7071 58.9318 62.1536 58.0198 60.9744ZM39.274 23.3491C38.9288 24.2738 38.3621 24.5365 37.6279 23.7036C38.1764 23.5872 38.717 23.4423 39.274 23.3491Z" fill="#A0677E"/>
<path d="M49.387 47.1461C48.0727 48.1276 48.1213 48.7098 48.1789 48.6424C48.2677 48.617 48.4319 48.2596 48.5566 48.0517C48.6372 47.9243 49.088 47.8946 49.1568 47.7901C49.2906 47.5781 49.0312 47.6606 49.4159 47.8533C49.5454 47.907 50.0285 47.3683 50.1348 47.4097C50.3704 47.4972 50.7916 47.81 51.3153 47.9625C51.8339 48.1238 52.2638 48.0777 52.323 48.0281C52.0078 48.082 51.692 48.1254 51.3746 48.1572C46.8723 48.5423 43.2978 48.1453 40.1065 48.2385C38.5857 48.2516 37.0507 48.4807 36.6975 48.6063C36.6197 48.6221 36.645 48.6061 36.7614 48.479C36.8733 48.3592 37.0618 48.0991 37.1592 47.8303C37.2633 47.5574 37.2689 47.3384 37.2542 47.2728C37.2392 47.2061 37.2159 47.2686 37.231 47.4199C37.3823 48.4594 37.7531 49.6112 38.2813 50.6868C39.1695 52.5998 40.6682 55.0978 42.8512 55.9796C43.0997 56.0811 43.2644 55.4573 43.3328 55.4367C44.3626 55.094 43.552 56.0895 43.9611 56.4684C45.5697 57.9527 48.1667 58.5195 50.3858 58.2813C51.3302 58.1763 50.3738 56.9463 51.3163 57.6234C51.3849 57.6681 51.1621 58.3388 51.4292 58.4005C52.035 58.545 53.1839 58.3221 53.6521 58.3088C54.5907 58.2869 54.7203 58.2569 55.6019 58.0966C56.7714 57.8849 58.2984 57.8281 59.5188 57.2777C59.7785 57.1583 59.2148 56.6269 59.6049 56.3781C59.7321 56.2968 59.9398 56.2072 60.1799 56.1206C60.7129 55.9293 61.3512 55.7653 61.6481 55.7716C62.0886 55.7809 62.1089 56.3421 62.2196 56.4319C63.1782 57.1838 63.9973 55.3265 64.1501 55.2229C67.0115 53.4031 69.8673 52.917 72.1065 51.2314C73.8162 49.9256 74.6976 48.3475 75.1321 46.9296C75.7364 45.1949 75.8902 42.8711 76.1289 39.6583C76.1607 39.314 75.3202 39.6352 75.3619 39.2005C75.4202 38.6224 75.5059 38.0266 75.6297 37.4183C75.7344 36.8832 75.7574 36.4711 75.7458 36.2028C75.7309 35.9348 75.719 35.8765 75.7207 35.7949C75.7835 35.662 75.2412 35.0185 74.1073 34.4996C73.8446 34.3766 74.3779 33.7868 74.1148 33.6223C72.5075 32.5692 68.7357 31.1674 67.5982 34.3013C66.1393 34.2406 64.3228 34.2799 62.8978 33.8239C61.9776 33.5318 62.7392 32.6713 61.6942 33.1267C61.4596 33.2293 61.8588 33.8536 61.5024 33.9573C60.0008 34.3945 58.2864 34.4292 56.812 35.0153C56.5127 35.136 56.6927 35.7145 56.622 35.8353C56.0259 36.8163 54.5573 35.5969 54.2682 35.5398C52.491 35.1959 51.1911 35.5106 49.731 35.8089C49.3871 35.879 49.0374 35.9473 48.6745 36.0059C48.2258 36.0778 48.8927 36.7809 48.4628 36.879C46.2231 37.3785 43.909 37.686 41.6978 37.7205C41.2079 37.7262 41.523 36.972 41.2824 36.9403C40.213 36.8126 40.2333 38.1271 39.2316 38.0389C39.0217 38.0222 39.0185 37.424 38.9695 37.368C38.1885 36.4913 37.9852 38.0015 37.8486 38.0632C36.1143 38.883 34.5996 37.7114 32.9273 38.4383C32.733 38.5268 33.4059 39.0953 32.8507 39.3005C29.1549 40.6652 25.6772 42.2784 22.516 44.4878C22.0273 44.8295 21.9423 44.1375 21.8691 44.1121C20.6603 43.7845 21.3974 45.1023 21.3094 45.2739C20.8528 46.0907 20.0514 46.5396 19.5875 47.1975C19.3333 47.5672 19.3149 48.0223 19.8407 48.5679C18.6702 50.0897 19.6311 53.0183 21.4369 55.5103C23.2233 58.0557 25.5301 60.429 27.7358 63.079C27.7938 63.1454 27.2407 63.6166 27.3598 63.7476C28.8116 65.3156 29.1532 64.1846 31.0015 63.7995C31.4474 63.6907 31.4619 65.6159 31.4854 65.7658C31.546 66.3149 30.7054 67.0421 30.7587 67.1733C31.2694 68.2487 32.8628 65.1473 33.9178 65.7103C33.9489 65.7332 33.509 66.2282 33.5698 66.3322C33.7608 66.6588 34.1502 66.5696 34.3395 66.9071C34.7402 67.6631 34.338 69.3596 35.7596 68.8524C35.9316 68.7744 36.4585 66.8826 37.3232 67.2585C37.4876 67.33 37.9851 67.4725 38.3647 67.5381C38.5617 67.5736 38.711 67.5888 38.7868 67.6016C38.8601 67.614 38.8402 67.6325 38.8038 67.6763C38.7892 67.695 38.7751 67.721 38.7663 67.751C39.1805 67.8211 39.0275 68.4109 39.074 68.4208C40.8908 68.697 40.4234 69.2285 41.527 70.1946C42.6075 71.1762 41.5992 68.3805 41.8342 67.9721C42.074 67.5593 43.4218 67.9548 43.7438 68.1415C44.0713 68.3214 43.8057 68.7897 44.0804 68.8735C45.8736 69.4477 44.5526 67.2878 45.0446 66.7256C46.2727 65.4071 47.6016 67.5027 48.7744 67.6457C49.0994 67.6844 48.8055 67.1996 49.092 67.1359C50.2196 66.8923 50.9337 67.5582 52.1372 66.8433C52.3438 66.7273 53.1847 65.3314 53.9045 66.2161C54.0116 66.3434 53.8233 66.9218 54.2966 66.9834C55.0044 67.0804 56.2646 66.9712 56.9403 66.6156C57.4445 66.3533 56.6234 65.626 57.3401 65.7344C57.6654 65.7785 57.2484 66.4361 57.8608 66.4711C58.4601 66.5167 59.8857 66.0387 60.4031 65.825C60.9396 65.6109 60.4018 65.076 60.4323 65.016C60.586 64.6821 61.4621 63.9838 61.539 63.95C62.4878 63.5441 63.3935 63.1824 64.3496 62.8041C67.8112 61.431 71.308 60.3743 74.3692 58.2378C74.6756 58.0242 74.0948 57.5267 74.1378 57.4877C75.0647 56.5847 75.1872 58.7507 76.2947 58.8347C75.4239 57.6458 76.009 57.6067 76.6832 56.9915C77.0048 56.6946 76.5013 56.3408 76.5035 56.2707C76.5626 55.2103 77.5383 55.9004 77.76 56.0273C78.5729 56.4954 78.4039 55.4118 78.9539 55.7129C79.5079 56.0055 79.4283 57.0671 80.1357 56.5599C80.0315 55.9905 78.7207 55.2359 79.1205 54.6805C80.6202 52.6585 84.556 50.5982 85.6645 49.095C86.7901 47.6763 86.8838 47.1057 87.3754 46.2331C88.1124 44.5745 86.9448 44.9963 86.4976 44.1481C86.43 44.0409 86.4106 43.9553 86.4309 43.8798C86.5334 43.122 88.531 43.3328 88.9752 43.1097C89.4853 42.8542 88.9094 42.7244 89.1723 42.4607C89.4349 42.1967 89.8645 42.633 89.902 42.0901C89.9374 41.503 88.7545 40.1787 88.1646 40.1017C86.9199 39.9309 85.8068 40.7596 85.9842 39.3528C85.9947 39.2722 86.6902 39.3891 86.6969 39.0848C86.6962 36.6154 86.1027 34.1629 85.0902 32.0244C84.9407 31.7212 85.7057 31.5173 85.617 31.328C84.5431 29.3691 84.1258 30.8365 82.4326 31.1315C83.8462 29.9246 84.0054 28.6452 82.9772 27.6459C82.387 27.0253 81.9072 27.6698 81.0755 27.5407C80.8132 27.4897 80.8703 26.6205 80.4994 26.7299C79.7193 26.927 79.1145 27.5029 78.641 27.4607C78.3828 27.4869 78.2377 27.3636 78.1545 26.9452C78.1419 26.8911 78.7569 26.5746 78.6684 26.4116C78.3671 25.8829 77.9221 25.9081 77.5465 26.0501C77.1512 26.194 76.8563 26.4483 76.3639 26.4482C75.6821 26.3853 73.3748 25.9552 71.6008 25.973C71.4372 23.927 70.2016 24.4918 69.1537 25.7112C68.4536 25.5546 67.664 25.2892 66.9923 24.8234C66.6258 24.5658 66.2803 24.3124 65.9835 24.0428C65.7587 23.8419 66.2121 23.4133 66.211 23.3392C66.1331 22.1479 65.1536 23.2395 65 23.2419C63.2656 23.1145 61.382 22.5385 59.3796 23.93C59.3089 23.9815 59.4661 25.4038 58.6862 24.4978C58.6332 24.4353 59.224 23.6538 58.1895 23.8114C57.8973 23.856 57.5192 23.8595 57.087 23.8654C56.0831 23.864 54.7087 23.9314 53.8406 24.6353C53.5329 24.8757 52.9522 26.218 52.0586 25.5165C51.9365 25.4213 51.933 24.9992 51.7432 24.8135C51.1291 24.2243 51.248 25.6847 50.4423 24.6319C49.6214 23.5834 48.3112 22.9857 47.1193 24.1998C47.0804 24.2363 47.0577 25.4302 46.6003 25.542C45.8952 25.7118 44.8016 25.7818 44.0761 26.0052C43.723 26.1141 44.152 26.7272 44.0943 26.7579C41.836 27.8476 39.9702 27.764 37.3563 28.3349C36.8748 28.4386 35.8615 29.7994 34.7242 29.3854C33.4689 28.9384 33.328 25.2848 31.3177 26.8883C30.4921 27.5424 30.921 32.0939 28.4853 30.5932C25.5917 32.3593 22.2094 32.5387 19.6137 34.9622C19.489 35.0759 19.7376 36.3623 19.4258 36.5382C18.9672 36.794 18.4369 36.4555 18.0959 36.6449C16.7209 37.4068 15.8498 38.7452 15.2463 39.9075C15.2341 39.932 15.2216 39.9538 15.2085 39.9734C14.966 40.3714 14.5122 40.0484 14.2657 40.6628C14.0125 41.3271 14.6385 41.9649 14.0694 42.7748C13.6432 43.3818 11.9297 43.8574 11.6408 44.8774C13.2155 45.072 13.1022 45.7299 13.5004 46.8842C13.5786 47.1037 14.1326 46.8779 14.1981 46.9802C14.4775 47.386 14.0266 47.7751 14.3496 48.155C14.4273 48.2472 14.9678 48.2299 15.0621 48.3015C15.8782 48.8855 14.766 50.0282 14.5806 50.2487C13.8636 51.0599 14.6108 51.3074 14.3826 51.9008C14.1593 52.5019 13.633 51.7356 13.5509 52.4199C13.3847 53.8531 13.8637 55.5803 14.2022 56.9372C14.3408 57.4805 14.9387 56.9229 14.9747 56.9963C15.4449 58.0415 15.0532 59.3905 16.6121 59.5545C13.3118 61.4395 17.1566 60.1029 16.9667 61.8654C16.9511 62.0055 15.3426 62.7354 14.936 62.3421C14.5312 61.9525 14.8123 61.0549 14.2191 60.5122C14.0785 60.3856 12.2233 59.9577 12.0884 59.8503C11.0439 59.074 13.5322 58.1982 13.657 58.1136C14.9914 57.1199 12.9877 56.4644 12.7941 56.1801C11.9092 54.9309 12.0253 53.6551 11.4347 52.5245C11.0552 51.7842 9.34085 51.9361 9.30865 51.2656C9.23553 48.9788 11.5933 48.2371 9.57035 46.0906C9.15658 45.6143 7.2188 45.9494 8.85327 44.3302C8.95474 44.2114 10.4478 43.1676 9.75633 42.3029C9.66856 42.1908 9.13052 42.0857 9.11087 41.9523C8.99574 41.056 9.55827 40.606 9.62999 39.6618C9.67521 39.1077 9.72918 38.477 9.89496 37.8628C10.1665 37.0254 10.6406 36.2411 11.0758 35.7826C11.7893 34.9943 13.1912 35.0632 13.612 35.0106C14.7439 34.9299 14.7404 33.4559 15.6654 33.864C16.5702 34.298 16.6088 35.8902 17.8986 35.6893C17.139 34.4841 16.4153 33.2101 15.6947 31.9701C18.1989 30.4005 20.7357 29.6945 23.0791 28.5718C23.3685 28.4333 22.757 27.8668 23.0626 27.6994C24.3743 26.9902 25.7405 27.0169 27.0486 26.2676C28.0589 25.6859 28.9576 24.4802 30.0209 23.8759C31.2719 25.1523 32.7448 24.0423 34.0101 23.7714C34.4519 23.6758 34.5623 24.098 34.9094 24.131C36.2141 24.2483 35.2261 23.0609 35.4683 22.7416C36.5129 21.3802 37.6385 24.4402 39.1836 23.8666C39.2657 23.8368 39.7704 21.8596 39.8795 21.7134C40.5793 20.76 40.2082 22.2445 40.8106 22.1942C41.9001 22.1074 42.7399 22.2885 43.7954 21.4493C44.1158 21.1985 44.6387 19.9197 45.5723 20.5256C45.6932 20.6052 45.7996 21.1719 45.8817 21.1836C47.3313 21.3569 46.9022 19.6056 47.4891 18.8103C48.0898 18.0114 49.5664 18.9069 49.9159 19.1867C50.787 19.9177 49.521 19.7011 49.5244 19.7952C49.4104 20.948 50.2196 20.5381 50.8875 20.4594C51.4147 22.1496 52.3088 21.81 51.5838 20.3702C51.4995 20.214 51.0311 20.5053 50.8875 20.4594C51.0012 18.6361 52.0079 18.1472 53.4844 19.4579C54.2182 20.0649 53.8935 21.0451 55.4289 20.3599C56.0411 20.0922 55.7269 19.1824 56.0206 18.6562C56.062 18.5838 56.115 18.5187 56.1833 18.4638C57.471 17.4343 59.546 18.1333 61.3462 17.7409C62.0232 17.6043 61.2807 17.0094 61.7614 16.8956C63.0758 16.6 64.6252 17.0941 66.3668 17.3498C66.5292 17.3744 66.343 16.5848 66.8919 16.7478C68.8144 17.3589 69.9338 18.2109 70.8757 18.9221C70.622 18.8156 70.3695 18.827 70.4064 18.8852C70.4334 18.9407 70.7057 18.9969 71.1503 18.9664C71.8735 18.9538 74.1322 18.126 76.2486 18.302C77.623 18.4024 79.5483 18.9507 81.1301 20.1308C82.7368 21.3036 83.6868 22.8106 84.3208 23.9672C84.4332 24.2084 84.5655 24.3982 84.7266 24.533C85.2846 24.9832 85.7146 24.3831 86.2351 24.2477C86.7336 24.1007 86.8932 24.4937 87.1237 25.1261C87.3422 25.7463 87.525 26.5516 87.5433 26.747C87.526 26.7335 86.5144 26.0574 86.7544 26.7481C86.5322 27.5493 87.5274 26.737 87.5433 26.747C87.5783 26.911 89.4844 29.2983 89.8322 29.776C90.0649 30.0103 90.5323 29.5101 90.6462 29.6474C93.2578 32.9842 93.979 36.1877 94.2351 39.2264C94.2308 39.2807 93.4883 39.3278 93.4872 39.453C93.4589 40.9353 94.1576 41.789 94.8064 42.854C94.9558 43.224 95.0878 43.6125 95.1908 44.0245C95.8036 46.5248 94.9812 48.5504 93.3701 49.1964C92.9658 50.7491 91.4003 52.1973 90.5071 52.8046C89.6106 53.4321 90.6307 54.4251 90.5896 54.5262C89.3698 57.3487 87.5694 57.8188 85.4347 59.3652C84.41 60.1053 82.5426 61.6813 81.5312 62.5169C80.7328 63.1879 80.0291 63.2291 79.342 63.9005C79.2478 63.9913 79.6907 64.4727 79.6701 64.514C79.1588 65.718 78.7909 64.1085 78.4625 63.9791C77.2726 63.5003 76.6065 63.2652 75.7039 64.3228C75.5028 64.5622 75.8149 66.9692 75.3872 67.3497C74.8301 67.8401 74.6832 67.0012 74.1155 67.5246C74.0661 67.5687 74.3121 68.004 73.8892 68.2011C72.0504 69.0641 69.986 69.7968 68.1131 70.7001C67.98 70.7643 67.8485 70.8284 67.7187 70.8926C67.4254 71.035 68.1398 71.5758 67.7192 71.7932C65.7585 72.8064 63.3611 73.7409 61.0087 74.0562C60.422 74.1327 60.6177 73.4962 60.4511 73.3738C59.4774 72.6251 58.7919 74.2831 58.6008 74.3529C54.4172 76.0535 50.7337 74.626 47.9761 75.5155C47.786 75.5654 46.8765 77.2317 46.1882 76.0087C46.1471 75.9253 45.3772 74.678 45.1203 75.6872C45.1065 75.7503 45.5602 76.3667 45.0105 76.4161C44.4586 76.4673 43.7432 77.1414 42.7427 76.6578C42.5565 76.5645 42.1198 76.1275 41.6895 76.0892C40.5316 76.369 39.5002 76.5046 38.6015 76.9236C38.3872 77.0893 34.9895 79.0486 34.7186 77.1455C34.6838 76.8372 35.2438 75.1825 33.5552 75.5613C33.2248 75.6283 33.5837 76.1897 32.7736 76.1494C31.5511 76.0915 30.4405 75.054 28.9478 75.1667C28.6866 75.1911 27.239 75.7903 27.0352 74.6043C27.0045 74.4195 27.499 74.0181 27.1883 73.7584C25.752 72.5409 23.9391 71.8053 22.6946 70.3588C22.2586 69.8485 23.1057 69.282 22.7348 68.6691C22.3646 68.0588 21.4961 67.0246 20.6814 66.8938C19.859 66.7573 19.4323 68.4365 18.5291 67.7912C14.6582 64.8374 11.718 60.7371 9.87966 54.2722C9.65333 53.2697 9.29519 54.2872 8.97997 52.6804C8.32558 49.8975 8.91071 44.3956 11.7887 41.059C13.4684 38.914 15.5797 37.0513 17.3672 36.3326C20.1618 35.2658 17.8595 38.0341 19.7417 37.0217C20.618 36.5681 20.5209 34.4808 20.7182 34.2862C22.513 32.4423 24.446 32.3611 26.3043 31.3075C26.695 31.0907 26.0138 30.5885 26.3553 30.4106C27.5256 29.7977 28.9034 29.6611 30.02 29.2548C30.5183 29.0727 30.2665 28.5711 30.7512 28.4735C31.9003 28.2408 32.9465 28.2135 34.1138 28.471C34.219 28.4949 33.7364 29.3148 34.5333 29.1545C35.8222 28.8953 37.4723 29.0805 38.7895 28.2978C39.1779 28.0641 38.9768 26.8143 40.0272 27.5123C40.2464 27.6588 40.279 29.1933 41.0841 27.7203C41.2185 27.4744 42.6673 25.4309 43.686 26.4166C43.9598 26.6748 44.7266 27.8055 45.1794 27.5312C45.2402 27.4894 44.8631 26.8643 45.2552 26.7311C46.155 26.4324 47.0929 26.2539 48.0304 26.0345C48.524 25.9189 49.0308 25.7903 49.5236 25.6297C49.9028 25.5046 49.2016 24.9135 49.7722 24.749C51.3466 24.2941 53.4162 24.1209 55.0717 24.0803C55.6818 24.0667 55.36 24.7073 55.4135 24.7629C56.27 25.6703 56.4701 24.2334 56.6934 24.1174C58.0767 23.4175 59.2962 23.9065 60.6465 23.565C61.0214 23.4729 60.6715 22.8477 60.7403 22.7797C61.4693 22.1107 61.0166 23.3636 61.5331 23.4355C62.9785 23.643 64.5518 23.4401 66.0402 23.2667C66.5842 23.203 65.9248 22.4704 66.4178 22.423C69.3822 22.1532 72.6477 22.155 76.3315 23.3949C77.0143 23.64 76.4299 24.1103 76.5434 24.2766C77.2798 25.411 79.2198 24.7642 79.7197 24.8737C81.7715 25.2439 82.3899 26.2176 84.0445 27.7306C87.7382 31.0732 88.0936 36.9097 87.2849 39.8976C86.8978 41.1214 87.0723 44.1872 86.2316 48.2436C85.3367 52.7149 82.2428 56.5062 79.6076 58.4864C76.9185 60.5821 74.352 61.8848 71.643 63.2776C71.2897 63.455 71.9842 63.9974 71.6873 64.157C69.1418 65.4897 66.5686 66.374 64.0289 67.2447C62.6356 67.7213 61.2413 68.1587 59.8089 68.5931C59.4454 68.7001 60.1567 69.2956 59.5724 69.4912C58.3905 69.8932 56.7964 70.1584 55.4608 70.0949C54.8159 70.064 55.5716 69.3195 54.9342 69.2981C53.4661 69.2404 51.8704 69.2932 50.3252 69.3963C49.6481 69.4387 50.6643 70.2204 49.7723 70.2114C43.8239 70.2228 36.8029 68.0292 32.642 62.7513C32.3565 62.3917 33.1567 61.0217 32.3389 60.5896C31.9786 60.8351 31.6103 61.1829 31.2523 61.4741C28.1819 58.3091 26.099 54.4375 25.231 49.8765C24.9276 48.2015 24.7112 45.7483 25.8983 42.9968C27.0838 40.2184 29.4844 38.4415 31.163 37.6642C34.6326 36.1171 36.8105 36.1494 38.9155 35.9293C39.2445 35.9055 38.6055 35.1321 39.2474 35.083C42.8639 34.8328 45.8085 34.6481 48.3654 35.1639C48.6081 35.2127 48.6878 36.6699 49.3557 36.3459C49.4061 36.319 49.6545 36.2262 49.8805 36.0971C50.7913 35.8007 51.9522 35.6212 52.4683 35.4829C52.6083 35.4474 51.9259 34.7173 53.1671 34.7867C57.0653 34.9727 60.6496 38.1125 61.8279 40.6591C63.1658 43.2632 63.4133 45.6042 63.3018 47.7858C63.2505 48.4863 62.5169 47.7644 62.4695 48.2465C61.9901 51.3596 62.1508 56.0396 56.6459 58.7542C54.8497 59.4049 54.1494 58.9406 53.7743 58.5074C53.3944 58.0351 53.1624 57.458 52.5441 56.8461C52.3381 56.7101 51.0222 56.4601 51.194 55.738C51.5926 53.9926 52.3301 52.1567 52.6721 50.2759C52.7979 49.8895 52.4552 50.2357 52.9031 49.3422C52.9155 49.3117 52.9642 49.2219 52.9605 49.0837C52.9589 48.9454 52.881 48.7639 52.8433 48.5919C52.7709 48.3525 53.0422 47.6458 52.804 47.3311C52.5126 47.0263 52.2046 47.6176 51.531 47.4478C50.8377 47.3373 50.6365 46.393 49.387 47.1461ZM86.4669 55.0429C85.3868 55.1066 86.9897 57.0724 87.2756 55.9787C87.2874 55.923 86.522 55.0373 86.4669 55.0429ZM21.553 31.4601C22.9681 32.0129 22.9003 30.2413 21.8736 29.7666C20.8427 29.2984 21.1087 31.3015 21.553 31.4601ZM13.0611 39.386C13.1488 39.326 13.2153 39.2642 13.2632 39.2007C14.0296 38.2473 11.8698 36.2529 11.2499 38.401C11.2462 38.4513 11.2465 38.5052 11.2511 38.5629C11.2564 38.6623 12.9864 39.4382 13.0611 39.386ZM57.1538 54.0181C57.1295 54.0188 56.5497 54.6948 56.5412 54.7304C56.7906 55.6965 58.1223 54.1596 57.1538 54.0181ZM12.7145 50.1823C13.1548 49.7652 12.5223 48.7448 11.9519 49.2494C11.4891 49.6714 12.1619 50.7159 12.7145 50.1823ZM48.8822 68.8779C48.8686 68.8405 48.429 68.8351 48.4523 69.0477C48.5301 69.7305 49.1157 69.4994 48.8822 68.8779ZM17.428 67.0676C16.6258 64.5937 18.9103 62.1548 19.5449 64.8486C19.6641 65.3405 18.2809 64.1676 18.2528 64.8583C18.2097 66.1371 20.2224 66.18 19.7314 67.6592C19.6402 67.9286 17.4671 67.2135 17.4225 67.0648C17.4243 67.0657 17.4262 67.0667 17.428 67.0676ZM84.0507 53.1367C84.0189 53.1224 83.5481 53.5041 83.5571 53.5386C83.839 54.3666 84.8148 53.5755 84.0507 53.1367ZM26.0718 62.6491C26.0869 62.5761 25.0861 61.6411 25.0131 61.6572C23.5831 62.1682 25.6736 64.1261 26.0718 62.6491ZM71.57 25.9202C70.9142 26.787 69.6907 26.8579 69.1575 25.7129C70.0145 25.9222 70.8274 25.9184 71.57 25.9202Z" fill="#A0677E"/>
<path d="M57.726 79.551C51.6275 80.7989 56.3268 81.4005 49.0957 79.3038C46.207 78.1712 45.3145 78.0741 44.2197 77.8007C43.2037 77.4783 41.7469 76.9458 39.5375 73.5988C38.7643 73.6617 39.0285 73.629 38.4985 74.0581C38.2303 73.8757 37.4757 73.213 36.5711 72.1541C35.7175 71.1455 34.6036 69.8059 33.4305 68.4904C32.8445 67.8347 32.2417 67.1835 31.6762 66.6341C31.3969 66.3624 31.1219 66.1161 30.9323 65.9645C30.8469 65.8923 30.7661 65.8451 30.8545 65.8743C30.9106 65.8883 30.9923 65.9316 31.2985 65.9681C31.5625 65.9972 32.3033 66.014 33.015 65.4557C31.4353 66.5877 30.0347 67.3669 29.374 67.7405C28.9579 67.761 28.5463 67.7707 28.1366 67.7711C27.4177 68.3245 23.7121 70.1015 23.1794 70.0715C19.2668 70.5442 15.3885 70.1543 12.012 67.7542C11.9207 67.0627 11.9081 67.2987 12.2078 66.7928C11.3584 66.0383 11.0142 66.0729 10.1378 65.9144C9.20722 64.9962 6.98175 61.9196 5.87599 57.739C4.43245 52.9185 6.60226 47.0997 9.82355 44.0127C13.0569 40.6954 16.8771 40.8213 17.3168 41.2615C17.3298 41.405 17.342 41.5485 17.3536 41.692C16.2917 42.3107 15.1382 42.6252 14 43.2912C10.8295 45.151 8.11607 48.949 7.6298 52.999C7.4695 54.366 7.54788 55.7568 7.91717 57.0698C9.00159 60.8751 10.8984 64.6185 14.3479 66.5559C17.7776 68.5229 22.2233 68.0487 25.9938 66.4991C27.9237 65.7194 29.7479 64.6749 31.4416 63.4411C31.559 63.3501 31.9709 63.5467 32.2485 63.7415C32.5472 63.9437 32.8321 64.1786 33.1121 64.4225C33.6714 64.9124 34.2056 65.4385 34.736 65.9744C35.9398 67.1939 37.304 68.4737 38.3518 69.8275C38.4614 69.9695 38.5694 70.1155 38.6765 70.2646C39.9145 72.0083 41.3517 73.8799 43.4266 74.2809C44.3413 74.4859 47.9435 76.3502 52.083 76.859C56.1968 77.4894 60.5209 76.793 61.9213 76.4099C65.1009 75.6202 68.0538 74.084 70.669 72.1593C71.8325 71.3037 72.9756 70.3919 74.0039 69.3537C74.7134 68.6359 75.2075 67.7448 75.5205 66.8301C76.3142 64.4315 76.0439 61.9983 75.9783 59.6157C75.9655 59.1928 75.9496 58.7689 75.9405 58.3473C81.212 58.9185 86.9325 60.0012 91.4245 56.9519C95.991 54.2803 98.7551 48.9241 97.4332 43.9799C97.4708 43.8781 97.5627 42.3743 97.5325 42.3482C96.9305 39.9253 92.6589 36.3562 91.2902 35.2058C91.3083 34.903 91.3179 34.5978 91.318 34.2904C91.1054 34.1896 90.8897 34.0947 90.6716 34.0061C90.4673 34.5434 90.5547 34.2639 90.4231 34.8442C88.9597 34.3644 86.7051 33.7627 84.3077 34.0905L81.0904 34.4846L83.5097 32.364C83.7868 32.1182 84.031 31.8763 84.2723 31.6037C85.7928 30.0132 86.3695 27.0704 85.2151 24.5925C84.1454 22.0735 82.0075 20.1628 80.3708 18.6943C80.1093 18.4612 80.3914 18.0403 80.4818 17.7798C80.3018 17.6771 80.1189 17.5774 79.933 17.4809C79.5061 17.5421 78.7439 17.835 78.3108 17.6452C76.847 17.011 75.5803 17.2455 74.4747 17.2374C73.6468 17.2228 72.8877 17.0743 72.0279 16.5134C70.0765 16.3608 68.5075 16.8357 67.0487 16.685C66.6383 16.2962 66.5302 16.1139 66.1849 15.6966C65.9923 15.6918 65.8036 15.6893 65.6187 15.6888C65.2158 15.9247 64.7394 16.229 64.2092 16.6281C60.4184 17.4964 58.6546 19.9692 57.5107 23.9116L56.5751 26.4281L54.6618 24.682C54.6108 24.6374 54.5591 24.5925 54.5069 24.5473C53.6039 23.75 51.7881 23.1883 51.3033 22.8565C48.1145 20.6301 44.4956 19.4512 40.9538 18.6739C40.7074 18.6149 39.8044 18.158 39.6912 18.1335C38.57 17.8405 37.8775 17.2329 36.8618 17.5089C36.8069 17.7967 36.7543 18.0849 36.704 18.3732C36.491 18.4481 36.2817 18.5266 36.0755 18.6086C35.2689 18.3113 35.4236 18.3344 34.6892 17.92C33.4072 18.4369 34.246 18.6294 33.6424 18.784C33.2101 18.8955 31.7462 19.0878 30.4926 19.4972C29.46 19.8241 28.576 20.1977 28.3876 20.3695C27.5964 21.1088 27.6053 21.6011 26.3645 22.628C26.2283 22.5983 26.0891 22.5716 25.9503 22.5457C24.8252 22.3582 24.7627 22.2553 23.7731 22.8497C23.693 23.0217 23.613 23.1976 23.5408 23.3704C23.9955 23.4406 24.3937 23.5276 24.8201 23.651C24.3432 24.4195 20.7056 28.0989 20.824 31.4202C20.7637 32.6261 20.675 33.6299 20.6147 34.2312C20.3191 34.663 20.0308 35.1228 19.7244 35.6254C19.6846 35.953 19.6358 36.2802 19.5644 36.6326C19.155 38.137 19.0725 37.0065 18.9859 38.0488C18.9186 38.7585 18.8491 39.5635 18.6667 40.1863C18.3312 40.1736 17.9963 40.1631 17.662 40.1545C17.6927 39.6081 17.6375 38.9962 17.5569 38.3527C17.5193 38.0361 17.4747 37.7049 17.4807 37.4571C17.4841 37.333 17.4974 37.2381 17.5353 37.0777C17.573 36.9193 17.6275 36.7139 17.6686 36.5098C17.9853 34.8415 17.8001 33.1181 17.6474 31.4202C17.0884 27.3568 19.4481 23.4096 21.4904 23.8382C21.4953 23.9411 21.5003 24.0448 21.5075 24.1471C21.5643 24.8698 21.5527 25.3108 22.0526 25.6115C22.2009 25.4671 22.3552 25.3241 22.5112 25.1878C22.6325 23.8137 21.6371 23.2592 20.7469 22.5886C22.3779 19.5297 22.8496 21.3691 24.551 19.7832C26.0675 18.5 27.5955 17.3193 29.2681 16.3279C31.3331 15.1084 33.799 14.3219 36.5176 14.5909C39.1331 14.9207 38.5868 14.9313 40.0803 14.1699C42.8545 14.5521 43.0783 15.1531 45.282 16.0977C45.9955 16.4256 47.6236 16.0718 49.4184 16.9676C49.6583 17.6272 49.6283 17.3809 49.3784 17.9263C49.5362 18.0443 49.6919 18.1631 49.8455 18.2824C50.5332 18.0838 50.2437 18.233 50.5603 17.6896C50.7062 17.7922 50.8505 17.8953 50.9931 17.9989C51.032 18.2332 51.0724 18.4693 51.1085 18.7041C51.546 19.0044 54.0962 20.2024 56.8013 22.2086L54.4162 22.8537C54.9586 20.4494 56.1477 16.9674 58.5827 15.2124C60.9008 13.4559 62.8901 13.1545 63.0669 13.1208C69.6131 13.7524 70.3836 12.5169 75.0545 13.4206C76.004 13.6393 77.0716 14.025 78.2184 14.7003C78.6236 14.9112 82.0616 15.1346 83.9119 16.783C84.5613 17.7626 84.4732 17.8068 84.6011 18.7232C84.7797 18.9292 84.9476 19.1342 85.1162 19.3505C85.8887 19.3486 85.6483 19.3853 86.2536 19.1167C86.4126 19.2762 86.5717 19.4435 86.7247 19.6117C86.8168 19.921 86.9019 20.2362 86.9729 20.5481C88.1975 21.7689 88.2459 21.5996 88.8257 23.1788C88.7275 24.4451 88.4361 25.173 88.3842 26.4535C88.6474 26.8686 88.8831 27.3204 89.0818 27.8066C88.7994 30.2409 87.4625 31.9238 85.7094 33.9482C85.6292 34.0387 85.4956 34.1843 85.3104 34.3686L83.9476 31.4201C85.0108 31.1928 87.2212 31.0395 89.0968 31.4226C90.9768 31.7647 92.4347 32.4776 92.3256 32.3461C94.8392 35.1295 99.4262 36.6244 98.5197 40.1591C99.2669 41.3107 99.71 42.1711 100.106 43.5565C99.8144 45.1388 99.7699 44.6571 99.7866 46.1951C100.199 47.1204 100.454 47.2077 101.032 47.6901C101.014 47.8656 100.993 48.0422 100.968 48.2167C100.76 48.1179 100.552 48.0211 100.342 47.9279C99.4811 49.982 100.482 53.1128 97.3895 56.355C97.2976 56.3602 97.2058 56.3647 97.1142 56.3684C97.229 55.9803 97.3225 55.5977 97.4005 55.2162C96.4941 55.562 96.1396 55.8734 95.1738 56.3234C94.9733 57.0814 95.0165 57.1492 95.0102 57.8234C94.8485 58.0159 94.6804 58.2071 94.5058 58.3969C93.9338 58.2996 93.4852 58.2045 92.8569 58.1738C92.7072 58.3141 92.5532 58.4535 92.3949 58.5918C92.3636 58.6191 92.3321 58.6463 92.3006 58.6733C92.2513 60.3858 90.5498 61.3937 88.7726 61.756C86.9757 62.1507 85.2119 61.9482 84.2647 62.4569C84.2007 62.5837 84.1363 62.7103 84.0699 62.8365C83.6553 62.8509 83.2513 62.8537 82.8435 62.8457C82.7987 62.7045 82.7549 62.5632 82.7123 62.4218C83.1538 62.1329 83.5832 61.8313 83.9971 61.517C83.8967 61.4479 83.7978 61.3781 83.7005 61.3076C82.2298 61.4218 80.7697 61.3529 79.363 61.1893C78.6605 61.1085 77.9623 61.0009 77.3034 60.897C76.975 60.8458 76.6527 60.7947 76.3869 60.7665C76.267 60.7547 76.136 60.7472 76.1373 60.7637C76.1478 60.7686 76.1591 60.7967 76.4421 60.7836C76.5228 60.7775 76.6254 60.7655 76.7582 60.7347C76.8696 60.708 77.1023 60.6482 77.3929 60.48C77.9776 60.2302 78.689 59.0816 78.6223 58.3765C78.6954 59.1579 78.7928 60.0512 78.8678 60.9662C78.4672 61.5684 78.6358 61.3726 78.1092 61.6402C78.1151 61.8551 78.1191 62.0706 78.1205 62.2892C78.6236 62.8482 79.1079 63.4465 79.5603 64.1081C79.3248 66.8109 78.1475 69.0564 76.0801 71.2948C75.6417 71.7477 75.2126 72.228 74.7877 72.7778C73.9174 73.8784 73.6193 74.1131 72.5849 74.6647C72.3115 74.2777 72.4212 74.2225 71.8419 74.1306C71.7024 74.262 71.561 74.3922 71.4186 74.5208C71.4285 74.8167 71.4339 75.114 71.4349 75.4124C71.2542 75.5301 71.0722 75.6457 70.889 75.7591C70.6786 75.6196 70.4704 75.478 70.2639 75.3348C66.9761 77.4939 68.5986 78.0061 62.8998 79.4132C62.7433 79.3751 62.5877 79.3357 62.4328 79.2952C62.6124 78.9779 62.7849 78.6591 62.9502 78.3392C61.74 78.538 61.8256 78.4937 60.7881 78.9987C60.4814 79.5138 60.413 79.6367 60.2324 80.1503C58.568 80.5096 58.5993 80.3448 57.726 79.551Z" fill="#34140B"/>
<path d="M29.3304 82.3808C29.3299 79.9541 28.779 79.3199 28.4338 78.7078C28.0532 78.1563 27.6736 77.8832 27.2977 77.6755C27.0619 77.5497 26.8239 77.9291 26.6519 77.867C26.3185 77.7539 26.2367 77.382 25.7667 77.2674C25.6123 77.2349 25.3376 77.8791 25.1937 77.8404C24.7908 77.7354 24.4151 77.5067 23.6718 77.2374C22.973 77.0096 21.561 76.5584 19.6178 77.3476C18.836 77.6791 18.1517 78.1949 17.6722 78.7245C18.5072 78.0989 18.868 78.0824 19.0741 78.0581C19.2662 78.0626 19.2993 78.1324 19.0648 78.3938C18.9435 78.5349 18.7418 78.7179 18.4002 79.1447C18.0816 79.5582 17.4902 80.371 17.3168 81.6755C17.1383 82.9844 17.5994 84.1406 17.9392 84.6661C18.2941 85.2284 18.5671 85.4523 18.7694 85.619C18.9707 85.7376 19.1411 85.804 19.3177 85.8598C19.6536 85.9686 20.204 85.5753 20.5345 85.9476C20.5766 85.9925 20.3904 86.5596 20.3878 86.6098C20.3977 87.3892 20.6267 86.2049 20.766 86.0712C21.3344 85.5407 21.8027 85.4895 22.4396 85.5255C22.7078 85.5367 22.872 86.7395 22.909 86.0114C22.908 85.9632 22.6076 85.4024 22.6428 85.3145C22.7161 85.1219 22.9937 85.0984 23.0531 84.9977C23.1571 84.809 23.1796 84.7981 23.2986 84.6907C23.4594 84.5334 23.3546 84.1772 23.5491 84.1566C23.5942 84.1505 24.0854 84.5778 24.2108 84.594C24.2771 84.602 24.3232 84.5581 24.3335 84.4989C24.3235 84.4751 24.2894 84.4348 24.2325 84.3896C24.1119 84.2938 23.6754 84.0296 23.5776 83.9655C22.7415 83.4415 23.9346 84.109 23.9773 84.1017C24.5765 84.1903 24.0561 83.5595 24.1 82.9411C24.1647 82.4523 24.1921 81.5999 23.9739 81.3099C23.7234 80.9626 23.4372 81.2108 23.64 81.3794C23.6616 81.4006 24.2661 80.9331 24.2969 80.9627C24.3858 81.0498 24.4895 81.1857 24.5864 81.3705C24.4612 81.1662 24.2472 80.899 23.832 80.6211C23.4297 80.3471 22.7536 80.0844 22.0992 80.1304C21.9309 80.1457 21.9704 80.841 21.8215 80.9033C21.364 81.093 21.0915 81.6099 20.9641 81.6807C20.8177 81.7562 20.6361 81.4052 19.8966 80.1415C19.7487 80.3418 19.6962 80.5255 20.0052 81.0268C20.2088 81.3467 20.654 81.9255 20.462 81.68C20.4188 81.6257 20.0362 81.1136 19.9974 81.0731C19.8297 80.9069 19.9601 81.0695 19.7542 80.8108C19.7109 80.7574 19.3324 80.3275 19.2645 80.2498C18.7098 79.6254 19.6407 80.6453 19.7156 80.7128C20.1003 81.0886 20.132 81.0594 20.146 80.9975C20.1559 80.9691 20.1609 80.9377 20.183 80.9245C20.201 80.9143 19.6656 80.3613 19.6645 80.3308C19.668 80.1791 19.745 80.1974 19.9578 80.4661C20.0071 80.5267 20.4717 80.989 20.52 81.0407C20.7336 81.2567 19.8419 80.3976 20.0041 80.6158C20.0379 80.66 20.4558 81.0344 20.5002 81.0772C21.2103 81.7338 20.1733 80.838 20.1387 80.832C19.9424 80.7436 20.0932 80.9644 20.2897 81.1742C20.4829 81.389 20.7219 81.5855 20.5996 81.6005C20.5667 81.6082 19.9629 81.2297 19.9028 81.2844C19.6985 81.4693 19.604 81.799 19.6725 82.0324C19.7375 82.2707 19.9378 82.4089 20.2165 82.4351C20.2272 82.4501 20.2382 82.4647 20.2493 82.4791C20.3614 82.6169 20.8666 82.4081 20.9338 82.4119C21.9536 82.2835 20.6314 82.6478 20.6037 82.7339C20.4808 82.9528 20.7289 83.006 20.809 83.0631C20.8958 83.1306 20.8228 83.2348 20.2558 83.834C20.8207 84.0337 20.8742 84.1003 20.9786 84.1389C21.066 84.1548 21.1705 84.0393 21.3428 83.3254C21.3463 83.3088 21.52 82.6536 21.5248 82.6228C21.5789 82.2437 21.3201 83.2663 21.0863 84.5335C21.0385 84.8539 21.3359 83.3269 21.3459 83.2128C21.413 82.798 21.5811 81.8037 21.5928 81.7232C21.6559 81.086 21.1546 84.3841 21.2175 84.393C21.2192 84.3876 21.2846 83.7772 21.2945 83.717C21.3223 83.5273 21.3061 83.7708 21.3343 83.5612C21.4113 83.0764 21.4543 81.4558 21.4279 82.3986C21.4393 82.5199 21.3888 84.4163 21.5675 84.3188C21.6101 84.2955 21.6957 84.2971 21.9418 84.2326C22.0477 84.2031 22.2396 84.1423 22.443 84.0326C22.6824 83.9073 22.9192 83.7288 23.117 83.5007C23.3447 83.2302 23.3796 82.9989 23.3291 82.8916C23.2602 82.851 23.1866 82.8016 23.1195 82.755C22.9652 82.7287 22.8056 82.737 22.8137 82.707C22.828 82.6648 22.8408 82.6226 22.8519 82.5805C22.1168 82.2824 21.8669 82.0362 20.9143 81.3533C19.9837 80.6136 22.188 82.3976 22.4011 82.636C22.6104 82.879 22.0146 82.5406 21.8442 82.381C21.6675 82.2298 21.421 81.9298 21.3205 81.8446C20.7067 81.2463 22.2025 82.9434 22.4309 83.3382C22.8865 84.3343 21.5914 82.6622 21.4723 82.4939C21.4335 82.4526 21.6959 82.8534 21.7132 82.8954C21.795 83.045 21.414 82.5148 21.8192 82.9606C21.8656 83.0514 22.8147 83.9003 22.2072 83.193C22.1139 83.0969 21.7304 82.7399 21.6554 82.6482C21.5442 82.5086 21.4523 82.4388 21.6007 82.5324C21.7127 82.5978 22.4267 83.0841 22.2163 82.9152C22.1192 82.8446 21.687 82.5829 21.5333 82.4838C21.3778 82.3874 21.3854 82.4191 21.3976 82.4345C21.4097 82.4504 22.0036 82.7268 22.0429 82.747C22.1596 82.8022 22.2928 82.8611 22.3959 82.9034C22.4904 82.9534 22.5571 82.989 22.5564 82.9897C22.6011 83.0814 21.5299 82.8086 21.8733 82.9442C21.9002 82.9507 22.5778 83.0848 22.5889 83.0871C22.8771 83.1212 21.0707 82.7887 20.4605 82.7101C21.8433 82.9396 21.5919 82.9043 21.7443 82.9246C21.8191 82.933 22.358 82.9969 22.4131 83.0039C23.2349 83.0746 22.1773 82.9455 21.9596 82.9348C21.1606 82.8758 22.1057 82.9284 21.5709 82.9009C21.0394 82.8906 20.2523 82.8414 20.2615 82.8816C20.7632 82.8876 22.0743 82.9153 22.2869 82.8968C22.6899 82.8509 22.6256 82.6877 22.4217 82.5835C22.2173 82.4705 21.8953 82.4692 21.8143 82.4433C21.7271 82.4098 21.6975 82.3792 21.6621 82.3606C21.6631 82.3813 21.654 82.4065 21.6005 82.4773C21.4021 82.7454 22.0978 82.0648 22.4345 81.7727C22.7653 81.4743 21.0496 83.1433 20.6851 83.5065C20.3236 83.8724 20.7065 83.5067 20.5121 83.7122C20.319 83.9189 20.0545 84.1491 19.9978 84.2425C19.9448 84.3397 20.6352 83.7343 21.0042 83.3425C21.7906 82.5173 22.6046 81.6405 22.3164 81.9466C22.3 81.9654 21.8769 82.4313 21.8362 82.4803C21.5444 82.866 21.4905 82.8701 21.3048 83.2566C21.285 83.3132 21.0126 83.9582 21.0047 84.0012C20.9734 84.4672 21.29 83.3255 21.7459 82.0953C21.1904 83.7494 20.9155 84.785 20.8536 84.7727C20.8256 84.7681 21.1469 84.0755 21.4158 83.6097C21.5025 83.4722 21.272 83.9428 21.4541 83.6342C21.8468 82.9945 22.248 82.293 22.4567 82.014C22.5406 81.8377 22.5292 81.7711 22.3468 81.8903C22.3272 81.9084 22.0716 82.4973 22.0288 82.5197C21.7621 82.7178 22.1237 81.3722 21.0482 81.3288C20.6359 81.3375 20.2566 81.7394 20.289 81.9596C20.298 82.191 20.5405 82.2631 20.7701 82.193C21.8744 83.8465 21.3999 83.4756 21.6505 82.0739C21.8246 82.0799 21.9859 82.097 22.1291 82.1296C22.1241 82.1365 22.0945 82.1388 22.016 82.2549C21.975 82.3156 21.9582 82.8842 21.9486 82.945C21.9015 83.4246 21.9243 83.3368 21.9004 83.122C21.8822 82.9071 21.8199 82.5689 21.793 82.5463C21.6592 82.4332 21.4602 82.464 21.3628 82.529C21.2597 82.5942 21.2408 82.6738 21.2389 82.7169C21.2389 82.803 21.2704 82.7834 20.9461 82.4173C20.9267 82.3944 20.224 81.6945 20.4608 81.9086C20.4961 81.9523 20.5603 82.0238 20.6634 82.1303C20.716 82.1746 21.1668 82.6006 21.1893 82.6462C21.2165 82.6883 21.8147 83.115 21.3575 82.6767C21.2488 82.5697 20.4043 81.8546 21.0857 82.3869C21.1786 82.4587 21.4807 82.7068 21.6526 82.8402C22.2023 83.2627 21.1302 82.3974 22.0567 83.1127C22.9831 83.8282 23.7127 84.3185 23.1098 83.7771C23.0926 83.7608 22.2301 83.0911 22.2528 83.0895C22.291 83.0861 22.4971 83.1898 22.5085 83.1617C22.5135 83.1483 21.9571 82.7606 21.9484 82.7515C21.6828 82.4693 22.206 82.7756 22.4804 82.8322C22.5346 82.8386 21.7604 82.3325 22.4059 82.6761C23.1211 83.0359 25.9896 84.731 25.3956 84.161C25.1773 83.8912 21.3757 82.0556 23.3994 82.8844C23.2003 82.7088 23.3203 82.6876 23.4507 82.593C23.5773 82.5183 23.7188 82.2693 23.4 82.0879C23.3586 82.0885 23.3087 82.0936 23.2492 82.1045C23.2123 82.1057 22.1311 82.5755 22.1467 82.5712C22.1688 82.5568 22.6576 82.3024 22.6831 82.2729C22.8006 82.1407 22.3738 82.3476 22.414 82.2778C22.4264 82.2493 22.8927 81.9218 22.9003 81.8786C22.9048 81.8324 22.3055 82.2834 22.5692 82.0335C22.7717 81.8448 23.9162 80.8232 24.0031 80.6516C22.869 81.6521 22.8718 81.6081 22.5502 81.8486C22.4882 81.8958 22.1101 82.2621 22.0614 82.3033C21.8565 82.4815 22.1646 82.1724 21.944 82.3692C21.8912 82.4166 21.5211 82.7768 21.4577 82.8366C20.9086 83.3627 21.7178 82.5292 21.8516 82.3772C22.3719 81.8116 21.8959 82.2857 22.0922 82.0551C22.2857 81.8218 22.5679 81.5682 22.675 81.4169C22.8934 81.101 22.7782 81.1094 22.751 81.0542C22.7378 81.0343 22.2965 81.5642 22.2841 81.5734C22.1395 81.6792 22.5781 81.0897 21.6762 82.1254C23.9378 79.3883 21.4358 82.373 21.8495 81.793C21.883 81.7461 22.943 80.444 23.1169 80.2678C23.2912 80.0924 22.9806 80.5166 23.2512 80.2421C23.3132 80.1764 24.3658 79.0061 24.4348 78.9397C24.9637 78.4119 23.332 80.3181 23.2428 80.4231C22.2883 81.5637 23.4382 80.3179 23.5308 80.2434C23.9412 79.8903 23.7512 80.1946 24.0621 79.9613C24.2635 79.8111 25.4066 78.6302 25.4067 78.7003C25.4206 78.9472 23.7852 80.5533 25.3437 79.3102C25.6793 79.0492 26.9869 77.8156 26.042 78.8787C25.9867 78.9505 25.0733 79.8692 25.742 79.3958C25.8269 79.3368 26.2308 79.0037 26.273 78.9858C26.55 78.8752 26.261 79.1817 26.4811 79.1412C26.7024 79.1022 27.0307 79.0477 26.9645 79.2684C26.9268 79.4028 26.1607 80.0168 25.9728 80.1675C25.432 80.6006 26.4648 80.1361 25.7663 80.5959C25.0511 81.0338 23.8999 81.5763 23.4548 81.8927C24.6672 81.2761 25.9177 80.6554 27.1466 80.0546C27.2037 80.2028 27.2206 80.3768 27.2196 80.5546C27.676 82.2587 27.193 82.9718 27.1639 83.4681C27.1518 83.5593 27.8862 83.6312 27.8885 83.7428C27.8861 84.2236 27.2995 84.2861 27.396 84.5949C27.4717 84.8355 28.0872 85.3414 28.1774 85.5907C26.7502 84.9628 27.1274 85.3718 26.937 85.4131C26.8721 85.426 26.5175 85.2091 26.3868 85.1631C25.9054 84.9889 27.1013 85.6693 27.2686 85.8104C27.9743 86.4237 25.3463 84.7545 25.354 84.8821C25.3553 84.8858 26.686 85.8802 26.7623 85.9515C27.2746 86.3958 26.2792 85.6348 26.1536 85.6009C25.9241 85.5384 25.5757 85.3446 25.9188 85.6991C26.0222 85.8016 26.8129 86.4721 26.1427 86.0322C26.0551 85.9744 25.619 85.6417 25.5904 85.6263C25.1119 85.3714 26.4804 86.4186 26.9038 86.825C27.3267 87.2321 26.3343 86.5685 26.058 86.3647C25.3389 85.8436 25.7836 86.1011 25.7166 86.0453C24.9222 85.38 25.0281 85.5334 24.9341 85.5104C23.6173 84.4515 23.6674 84.5504 24.8422 85.4903C24.9711 85.5922 24.8691 85.468 24.9341 85.5104C26.2021 86.5791 26.3021 86.7921 25.0674 85.8526C24.4892 85.4114 23.8702 84.8333 24.0371 85.1134C24.1099 85.2421 24.9936 85.9995 25.1855 86.2604C25.3198 86.4526 25.3136 86.5317 25.1939 86.6018C25.105 86.5793 24.729 86.2982 24.6184 86.5551C24.5422 86.7039 25.0815 87.0797 25.0258 87.2119C24.8555 87.5729 23.949 87.713 22.9434 88.1817C22.8486 88.2247 23.2442 88.8259 22.8835 88.9057C21.3182 89.1612 21.0236 88.8185 20.8184 88.7035C21.9228 88.9198 23.717 88.3508 24.2554 87.9226C24.5971 87.7084 24.8281 87.6205 24.7109 87.8198C24.6168 87.9994 24.0757 88.4777 23.3946 88.6873C22.4748 89.0201 21.0612 88.8685 20.376 88.4745C19.6394 88.0959 19.3648 87.6933 19.1357 87.4886C19.2074 87.4959 19.2634 87.5276 19.3024 87.6007C19.4418 87.8418 19.1215 88.4241 19.0647 88.8967C19.0189 89.358 19.2961 89.2747 19.4614 88.9969C19.6365 88.7232 19.7212 88.2716 19.7484 88.1521C19.769 88.1503 19.8329 88.0057 19.9313 87.6777C20.1423 86.9964 19.7501 88.1494 19.7484 88.1521C19.7676 88.0749 19.7268 87.9827 19.5838 87.8855C19.4444 87.7902 19.2549 87.6984 19.1653 87.7254C19.0683 87.7559 18.8289 88.3419 18.7796 88.3449C17.5302 88.335 17.0221 88.0278 16.9758 87.5929C16.9803 87.5796 17.4722 87.0722 17.4774 87.0479C17.5712 86.7032 16.902 87.2548 16.4469 87.5225C15.9935 87.7911 16.0547 87.604 16.9137 86.7457C16.8731 86.759 16.8642 86.7405 16.8771 86.7015C16.7132 86.3681 16.7775 85.8385 16.8696 85.5233C17.0009 85.1136 15.7743 85.7202 15.7313 85.7001C14.4848 85.1512 15.0757 84.2268 15.1229 83.5186C15.1401 83.1541 14.9496 82.5738 14.8303 82.2865C14.7312 82.0509 15.0674 81.978 14.8914 81.777C14.8682 81.7492 14.2602 81.6711 14.2381 81.66C13.5525 81.3261 15.0087 81.6937 15.2782 81.7053C16.2584 81.759 16.7719 81.8309 16.3654 81.5662C16.2701 81.5142 14.2166 80.8442 14.1215 80.7182C13.9983 80.5678 14.7286 80.8234 14.5791 80.6709C14.5671 80.6581 14.1105 80.5199 14.1505 80.4627C14.3301 80.1968 14.6843 80.0457 14.7235 79.8245C14.7308 79.7944 14.0162 79.5435 14.0162 79.4931C14.0168 79.3735 14.0462 79.2674 14.1256 79.192C14.2565 79.0001 14.4554 78.8113 14.7483 78.6491C14.896 78.5709 15.3107 78.9125 15.4617 78.9652C16.359 79.3103 15.3357 78.3506 15.3554 78.2762C15.4504 76.775 18.2976 76.3635 17.429 76.2515C17.4069 76.2454 17.1353 75.9692 16.889 75.8802C16.6469 75.7873 16.4336 75.8874 16.7466 76.4551C16.7742 76.5423 17.4809 77.6455 16.7293 77.1398C16.6788 77.1121 16.326 76.5175 16.1738 76.7668C16.0323 77.0034 15.3887 77.0792 15.8265 77.7388C15.9013 77.8484 16.213 78.1552 16.3467 78.3403C17.5038 76.9572 18.569 76.5255 19.0541 75.8007C19.1708 75.605 20.4372 72.9562 20.8056 74.586C20.8743 74.8493 20.9861 76.541 21.3558 75.658C21.4298 75.488 21.2898 75.1072 21.4874 74.8698C21.816 74.5065 22.0631 74.9838 22.3822 74.2554C22.4361 74.1257 22.7777 73.001 22.7856 73.8923C22.7838 74.0314 22.6615 74.5889 22.7129 74.6616C22.9521 75.0096 23.2866 74.6926 23.4347 75.137C23.4833 75.2927 23.2096 76.1732 23.2201 76.4316C23.2306 76.6898 23.2964 76.9565 23.4975 76.579C23.705 76.2034 24.0588 74.7745 24.2392 74.7101C25.0591 74.455 25.402 75.5084 26.2224 76.2241C26.3519 76.339 26.533 75.8204 26.7656 75.9797C27.1369 76.2447 27.7631 76.6002 28.4472 77.4585C29.1241 78.2733 29.7878 79.8452 29.6218 81.2309C29.5401 81.3564 29.4307 81.4741 29.2896 81.582C28.4384 82.2033 27.7137 81.5851 27.3744 81.9799C27.2103 82.1372 28.9154 82.3693 28.9666 82.4487C29.4913 83.1006 28.6731 83.5457 28.7133 84.249C28.7178 84.4043 29.4236 84.4582 29.4161 84.5982C29.3903 85.0938 28.9079 85.4462 28.767 85.8373C28.7038 86.0152 29.1836 86.2385 29.0597 86.3754C28.7691 86.6983 28.3863 86.8593 27.8137 86.7949C27.764 86.7856 27.3391 86.2589 27.1973 86.4043C26.9637 86.6444 26.4052 86.5308 26.6227 87.0291C26.6902 87.1768 27.5334 88.0421 26.8599 87.5346C26.7205 87.4271 25.7314 86.3671 26.5177 87.3487C26.6493 87.5114 27.6669 88.873 26.8953 88.1021C26.6906 87.9007 25.8691 87.044 25.9793 87.1958C25.9972 87.2197 26.4414 87.6925 26.471 87.7511C26.5466 87.9023 26.5274 87.9152 26.5802 87.9785C26.5903 88.0028 26.6038 88.0343 26.6256 88.0779C26.6514 88.1297 27.1247 88.6062 27.1478 88.6683C27.2119 88.8401 26.9796 88.8217 26.7154 88.7736C26.6172 88.7548 26.2845 88.3071 26.2412 88.2647C25.5464 87.5647 26.3793 88.6 26.4065 88.6785C26.5707 89.1466 26.053 88.764 25.9744 89.0297C25.9485 89.1038 26.3638 89.5841 26.387 89.6373C26.5937 90.1706 26.0092 89.1885 25.8622 89.1405C25.4467 89.0022 25.2094 89.2254 24.8769 89.5003C24.7524 89.6023 25.2624 90.1621 25.1353 90.2515C24.4264 90.7467 22.6281 91.5726 19.9899 90.7286C19.5279 90.5584 19.9478 90.0645 19.8791 89.9188C19.5111 88.9322 18.3077 89.7421 18.0089 89.7125C16.8656 89.7009 16.8358 89.0224 16.2745 88.6394C15.4599 88.0555 14.9659 87.4305 14.6521 86.919C14.8614 87.3469 15.057 87.5292 15.0919 87.4733C15.1337 87.42 15.0197 87.1347 14.8263 86.6792C14.4529 85.8736 14.0383 84.207 14.2042 82.8819C14.3396 81.5426 14.7495 80.671 14.9488 80.0053C14.9769 79.919 14.2488 79.7077 14.2667 79.6243C14.4349 78.9654 14.7393 78.6082 14.9579 78.3064C15.2122 77.9432 15.4987 77.5512 15.8488 77.0722C15.9269 76.9694 15.2807 76.6078 15.4049 76.4121C15.6574 76.0052 16.1975 75.6033 16.7911 75.487C17.0701 75.4358 17.1179 76.1344 17.3788 76.0826C17.9892 75.9666 18.5613 75.7456 19.1114 75.4436C19.3534 75.3131 18.7289 74.7456 19.0834 74.6261C21.5951 73.788 23.9115 74.336 24.6815 75.7377C24.7423 75.8375 24.1633 77.2027 24.4228 77.0165C24.622 76.6562 24.8442 76.2263 25.052 75.8387C25.8704 76.1458 26.4351 76.6166 27.0076 77.3107C27.3198 77.6716 27.7294 78.1216 28.2271 79.0933C28.71 80.0011 29.2758 81.9181 28.8168 83.8156C28.3715 85.686 27.4551 86.6531 26.9524 87.1605C26.4122 87.6777 26.0766 87.8788 25.8455 88.0319C25.7726 88.0782 26.3419 88.6405 26.2012 88.7338C25.8171 88.9814 25.7512 89.0702 25.8206 88.9779C25.8976 88.8635 26.1395 88.6098 26.6117 87.6109C26.6141 87.6056 26.6157 87.5998 26.6166 87.5934C25.9787 87.9348 25.5491 86.8971 23.8942 87.963C23.7489 88.0541 22.9007 88.4262 22.1093 88.5554C21.2965 88.7039 20.6363 88.6932 20.3755 88.7917C20.2959 88.8179 20.5239 89.5394 19.878 89.401C18.1381 88.9327 17.5955 88.3669 17.117 87.9052C16.6744 87.4286 16.4517 86.9712 16.3118 86.462C16.2697 86.297 16.9189 86.0193 16.8992 85.9047C16.8365 85.505 16.6009 85.222 16.358 84.6972C16.1726 84.1456 15.6839 83.4641 16.3079 81.3655C16.8629 79.8673 17.8676 79.5035 18.3871 79.6372C18.9503 79.7642 19.5046 80.0379 20.1883 80.3083C20.2755 80.3486 20.5668 80.2588 20.7582 80.3232C20.9688 80.376 21.1286 80.5354 21.1779 80.8711C21.3732 82.5722 21.8501 84.3885 22.1009 86.1958C22.0783 86.627 21.0343 86.2456 21.6908 87.1688C21.7191 87.198 21.9388 87.2853 22.2818 87.3537C22.6625 87.4196 23.1649 87.4263 23.459 87.4763C23.8891 87.5315 23.4882 88.4742 24.3973 88.3657C25.3135 88.2074 26.1238 87.0388 27.2754 85.6472C27.8367 84.9442 28.1396 84.833 28.5158 84.4822C28.8703 84.1461 29.2809 83.4845 29.3304 82.3808ZM17.7321 83.9245C18.327 83.6013 15.9678 84.1454 16.5967 84.2466C16.6301 84.2509 17.7037 83.9427 17.7321 83.9245ZM25.3994 82.4427C24.329 82.6463 25.8507 82.9802 26.699 82.8716C27.5527 82.647 25.7233 82.3092 25.3994 82.4427ZM24.1357 81.0335C23.49 81.5778 26.3515 79.6831 25.6844 79.9395C25.6463 79.9536 24.172 81.0002 24.1357 81.0335ZM19.3799 82.9478C19.4093 82.9439 19.3938 82.7097 19.3636 82.7001C18.5703 82.6379 18.6309 83.2845 19.3799 82.9478ZM23.0957 81.1242C22.7806 81.4652 23.1937 81.1207 23.5881 80.6988C23.9014 80.3553 23.4831 80.6953 23.0957 81.1242ZM20.8415 81.4954C20.8612 81.5256 20.8921 81.5445 20.7828 81.3725C20.4319 80.8176 20.5119 80.9862 20.8415 81.4954ZM22.5111 80.6696C22.5168 80.8392 20.7667 83.0694 20.9018 82.7676C20.9249 82.712 21.4946 82.0843 21.6378 81.8716C21.8947 81.481 20.7692 82.8597 21.3281 82.086C21.4288 81.9431 22.5137 80.6542 22.5137 80.6666C22.5128 80.6676 22.5119 80.6686 22.5111 80.6696ZM20.513 83.0791C20.5436 83.0698 20.5681 83.0423 20.5371 83.0488C19.7811 83.1903 19.7461 83.3068 20.513 83.0791ZM21.5377 82.6929C21.5198 82.7587 21.5216 82.8259 21.5412 82.7663C21.9509 81.5781 21.8848 81.4191 21.5377 82.6929ZM20.8033 82.2341C20.5211 81.4671 21.2949 81.0967 21.6489 82.0731C21.3099 82.0433 20.9894 82.1742 20.8033 82.2341Z" fill="#A0677E"/>
<path d="M10.4775 91.0882C10.4773 89.7402 10.1717 89.3895 9.98067 89.0509C9.76997 88.746 9.56008 88.5958 9.35218 88.4817C9.22179 88.4126 9.08901 88.6232 8.99391 88.5893C8.80953 88.5275 8.76509 88.3216 8.50487 88.2588C8.41939 88.2411 8.26605 88.599 8.18646 88.5778C7.96351 88.5203 7.75579 88.3938 7.34367 88.2446C6.9563 88.1183 6.17242 87.8676 5.09294 88.306C4.65864 88.4902 4.27854 88.7768 4.01232 89.0709C4.47875 88.7209 4.68188 88.7102 4.79891 88.6952C4.90814 88.6962 4.92903 88.7336 4.80084 88.8774C4.73452 88.955 4.62344 89.056 4.43434 89.2923C4.2581 89.5213 3.92991 89.9722 3.83364 90.6963C3.73461 91.423 3.99066 92.0647 4.17902 92.3558C4.37573 92.6674 4.52664 92.7908 4.63815 92.8825C4.74821 92.9466 4.84088 92.9817 4.93687 93.0112C5.11972 93.0688 5.42053 92.8473 5.59946 93.053C5.62228 93.0778 5.51907 93.3934 5.51752 93.4213C5.5213 93.8544 5.64926 93.1957 5.72563 93.1211C6.03729 92.8251 6.29258 92.7968 6.64264 92.8182C6.79006 92.8251 6.8832 93.4935 6.90201 93.0891C6.90131 93.0624 6.73468 92.7503 6.75374 92.7016C6.7935 92.5949 6.94596 92.5828 6.97824 92.5274C7.03464 92.4233 7.04691 92.4175 7.11182 92.3588C7.19959 92.2727 7.13946 92.0765 7.24617 92.067C7.27099 92.0641 7.54459 92.3012 7.61384 92.3109C7.65049 92.3156 7.67565 92.2919 7.68094 92.2596C7.675 92.247 7.65566 92.2252 7.62381 92.2003C7.55635 92.1476 7.31371 92.0004 7.25924 91.9648C6.79364 91.6743 7.45598 92.0477 7.47961 92.044C7.8101 92.0984 7.51863 91.7524 7.54262 91.4139C7.57825 91.1462 7.59473 90.6766 7.47526 90.5188C7.33822 90.3297 7.18163 90.4709 7.29709 90.5685C7.30942 90.5807 7.6453 90.3202 7.66278 90.3371C7.71318 90.387 7.77181 90.464 7.82651 90.5682C7.75804 90.4566 7.64033 90.3099 7.41106 90.1569C7.18895 90.0061 6.81493 89.8612 6.45319 89.8874C6.3602 89.896 6.38137 90.2826 6.29918 90.3173C6.04658 90.4233 5.89753 90.7107 5.82889 90.7495C5.74968 90.7909 5.65061 90.5948 5.24033 89.8914C5.16041 90.0016 5.13387 90.1021 5.30768 90.3795C5.42213 90.5566 5.6686 90.8794 5.5633 90.7418C5.53959 90.7113 5.32635 90.4268 5.30527 90.4039C5.21409 90.3098 5.28882 90.3984 5.17628 90.2528C5.15262 90.2227 4.94193 89.9837 4.9043 89.9404C4.59668 89.5922 5.11605 90.1581 5.15807 90.1953C5.37395 90.4027 5.39307 90.3851 5.4024 90.3492C5.40853 90.3328 5.41194 90.3147 5.42492 90.3068C5.43552 90.3006 5.13701 89.9936 5.13697 89.9762C5.14169 89.8892 5.18744 89.8968 5.30847 90.0437C5.3365 90.0768 5.59437 90.3345 5.62151 90.363C5.74156 90.4819 5.24581 90.0037 5.3372 90.1239C5.35626 90.1482 5.58856 90.3566 5.61332 90.3804C6.00896 90.7449 5.43272 90.2459 5.41359 90.2424C5.18443 90.159 5.79649 90.6699 5.67478 90.6629C5.65668 90.6669 5.32043 90.457 5.28746 90.4865C5.04358 90.7129 5.14864 91.1125 5.46475 91.1059C5.47069 91.1142 5.47676 91.1222 5.48295 91.1301C5.54511 91.2057 5.82624 91.0903 5.86364 91.0923C6.43069 91.0198 5.695 91.2218 5.67946 91.2693C5.61066 91.3897 5.74801 91.4181 5.79196 91.4489C5.83957 91.4854 5.79829 91.5424 5.48224 91.875C5.79263 91.9816 5.81725 92.0155 5.87005 92.0343C5.91337 92.0406 5.96592 91.9744 6.0561 91.5758C6.05789 91.5665 6.15479 91.2021 6.15717 91.1849C6.18375 90.9732 6.0405 91.5422 5.90809 92.2465C5.88095 92.4246 6.04458 91.5749 6.04999 91.5115C6.08672 91.2806 6.18082 90.7277 6.18714 90.6828C6.22067 90.3281 5.94203 92.1627 5.97488 92.1674C5.97572 92.1644 6.01243 91.8249 6.01773 91.7913C6.03264 91.6858 6.02304 91.8212 6.03817 91.7045C6.0797 91.4348 6.10321 90.5333 6.08654 91.0577C6.0927 91.1252 6.06489 92.18 6.16241 92.1258C6.18568 92.1129 6.23226 92.1139 6.36807 92.0782C6.42649 92.0619 6.53265 92.0283 6.64539 91.9674C6.77808 91.898 6.90955 91.7989 7.01937 91.6722C7.14579 91.5219 7.16513 91.3934 7.13701 91.3337C7.09869 91.3112 7.05773 91.2837 7.02044 91.2577C6.93461 91.2431 6.84593 91.2476 6.85041 91.231C6.85835 91.2076 6.86542 91.1841 6.87159 91.1607C6.46133 90.9969 6.32283 90.8592 5.79221 90.4804C5.27373 90.0699 6.5001 91.062 6.61827 91.195C6.7344 91.3306 6.40168 91.1437 6.30655 91.0553C6.20791 90.9715 6.07123 90.8042 6.01503 90.7571C5.67151 90.4261 6.5047 91.3691 6.63105 91.5893C6.8828 92.1447 6.16097 91.2155 6.09308 91.1229C6.07104 91.1002 6.21736 91.3229 6.22659 91.3466C6.27052 91.4308 6.05762 91.1365 6.28134 91.3858C6.3069 91.4365 6.83352 91.9098 6.49483 91.5172C6.44284 91.4639 6.2298 91.2649 6.18755 91.2145C6.12488 91.1377 6.07245 91.1006 6.15425 91.1537C6.21607 91.1909 6.61377 91.4605 6.49611 91.3676C6.44184 91.3287 6.20195 91.1824 6.11593 91.1281C6.02886 91.0753 6.03195 91.0951 6.03828 91.1046C6.04461 91.1143 6.37518 91.2676 6.39699 91.2788C6.46183 91.3097 6.53566 91.3431 6.59279 91.3671C6.64515 91.3954 6.68206 91.4156 6.68162 91.4161C6.70318 91.4746 6.10464 91.3301 6.29398 91.4133C6.30886 91.4176 6.68585 91.4917 6.692 91.4931C6.8519 91.5142 5.8474 91.3276 5.50775 91.2853C6.27692 91.4128 6.13696 91.394 6.22153 91.4068C6.26302 91.4122 6.56285 91.4474 6.59351 91.4513C7.05045 91.4917 6.46216 91.4207 6.34102 91.4149C5.89654 91.3828 6.4222 91.4128 6.12469 91.398C5.82907 91.3928 5.39124 91.3643 5.39637 91.3881C5.67543 91.3918 6.40469 91.4062 6.52296 91.397C6.74708 91.3735 6.71157 91.2858 6.59885 91.2306C6.48586 91.1705 6.30799 91.1724 6.26386 91.1594C6.21629 91.1422 6.20058 91.126 6.18151 91.1163C6.1827 91.1285 6.17812 91.1431 6.14896 91.1832C6.04104 91.3349 6.42708 90.9553 6.61592 90.7944C6.80142 90.63 5.84636 91.5576 5.64383 91.7599C5.44296 91.9637 5.6562 91.7605 5.54834 91.8751C5.44117 91.9903 5.29347 92.1178 5.26256 92.1704C5.2337 92.2251 5.61955 91.89 5.82502 91.6723C6.26296 91.2137 6.71486 90.7252 6.55635 90.8971C6.54732 90.9077 6.31164 91.1666 6.28942 91.1942C6.13022 91.4115 6.10362 91.4165 6.00422 91.6331C5.9937 91.6648 5.84173 92.0234 5.83763 92.0475C5.8235 92.3079 5.99847 91.6723 6.25386 90.9886C5.94443 91.9086 5.79257 92.4849 5.76055 92.479C5.74646 92.4771 5.9249 92.0918 6.07538 91.8331C6.1239 91.7568 5.99668 92.0191 6.09811 91.8475C6.31692 91.4919 6.53984 91.1016 6.65635 90.9466C6.70325 90.8487 6.69729 90.8119 6.59675 90.8786C6.58595 90.8888 6.44343 91.2162 6.41996 91.2288C6.2741 91.34 6.47561 90.5918 5.88022 90.5674C5.65196 90.572 5.44244 90.7949 5.46177 90.9164C5.46805 91.0442 5.60421 91.0832 5.733 91.0435C6.34719 91.9633 6.08548 91.7559 6.22585 90.9762C6.32327 90.9795 6.41361 90.9891 6.49385 91.0073C6.49215 91.0114 6.47682 91.0129 6.43421 91.0775C6.41195 91.1113 6.40227 91.4276 6.39697 91.4614C6.37002 91.9958 6.36532 91.2637 6.31261 91.2396C6.13357 91.116 5.98541 91.2971 6.00919 91.3321C6.01054 91.3789 6.02926 91.3667 5.85018 91.1618C5.83949 91.149 5.44874 90.7595 5.58094 90.8782C5.60063 90.9024 5.63642 90.9421 5.69389 91.0012C5.7232 91.0258 5.97306 91.2636 5.98685 91.2877C6.00313 91.3099 6.33808 91.5447 6.08531 91.2991C6.02519 91.2391 5.55644 90.8402 5.93619 91.1353C5.98795 91.1752 6.15591 91.3133 6.25165 91.3873C6.5579 91.6217 5.96182 91.1401 6.47773 91.5373C6.99354 91.9346 7.4005 92.2059 7.06663 91.9028C7.05714 91.8937 6.57772 91.5207 6.59082 91.5192C6.61279 91.5164 6.72846 91.5726 6.73557 91.5559C6.73869 91.548 6.42898 91.3326 6.42419 91.3275C6.27887 91.1671 6.57153 91.3351 6.72653 91.3628C6.75712 91.3657 6.32769 91.0822 6.6875 91.2719C7.0862 91.4706 8.68096 92.415 8.35245 92.0945C8.23173 91.943 6.11804 90.9201 7.24486 91.3785C7.13509 91.2784 7.20261 91.2643 7.27565 91.2092C7.34655 91.1652 7.42544 91.0241 7.24716 90.9209C7.22401 90.9208 7.19608 90.9232 7.16278 90.9289C7.14219 90.9294 6.54047 91.1899 6.54888 91.187C6.56078 91.1782 6.83243 91.0362 6.84634 91.0193C6.91049 90.9434 6.6718 91.0565 6.6927 91.0156C6.69903 90.9989 6.95859 90.8171 6.96216 90.7921C6.96397 90.7655 6.63015 91.0157 6.77588 90.8755C6.88773 90.7696 7.52361 90.2005 7.57089 90.1039C6.94006 90.6603 6.94092 90.6351 6.7607 90.7675C6.72599 90.7934 6.51595 90.9975 6.48869 91.0203C6.37429 91.1189 6.54518 90.9465 6.42203 91.0555C6.39255 91.0817 6.18664 91.282 6.15129 91.3152C5.84508 91.6071 6.29387 91.1422 6.36809 91.0574C6.65659 90.7419 6.39141 91.0052 6.49994 90.8763C6.60687 90.7459 6.7649 90.6058 6.82365 90.5209C6.94345 90.3436 6.87721 90.3463 6.86036 90.3141C6.85232 90.3024 6.60735 90.5976 6.60032 90.6026C6.51846 90.6602 6.76096 90.331 6.25847 90.9065C7.51547 89.3831 6.12386 91.0435 6.35192 90.7191C6.37038 90.6929 6.9598 89.9684 7.05716 89.871C7.15475 89.7739 6.98293 90.0107 7.1343 89.8587C7.16899 89.8223 7.75572 89.1724 7.79423 89.1355C8.08971 88.843 7.18227 89.9035 7.1327 89.962C6.6025 90.5971 7.24358 89.9053 7.29542 89.8643C7.52546 89.6694 7.42119 89.8399 7.5955 89.7115C7.70843 89.6288 8.34439 88.972 8.34513 89.0117C8.35516 89.1513 7.44628 90.0455 8.31531 89.3563C8.50241 89.2116 9.22932 88.5249 8.7053 89.118C8.67466 89.158 8.16774 89.6704 8.54031 89.4078C8.58764 89.3751 8.81228 89.1898 8.83585 89.18C8.99064 89.1194 8.83038 89.2905 8.95353 89.2688C9.0774 89.2482 9.26082 89.219 9.2248 89.3429C9.20432 89.4184 8.77876 89.7609 8.67445 89.845C8.37422 90.0869 8.94928 89.8296 8.56112 90.086C8.16359 90.3302 7.52259 90.6307 7.27591 90.8084C7.95029 90.4655 8.64595 90.1203 9.32958 89.7863C9.36192 89.8699 9.37189 89.9678 9.37178 90.068C9.62668 91.0184 9.35773 91.4179 9.34096 91.6967C9.3341 91.7479 9.74273 91.7874 9.74386 91.85C9.74198 92.1197 9.41502 92.1564 9.46777 92.3303C9.50914 92.4658 9.85064 92.7491 9.89989 92.8895C9.10553 92.5413 9.31397 92.7712 9.20699 92.796C9.17052 92.8038 8.97325 92.6831 8.9003 92.658C8.63154 92.5627 9.29722 92.9404 9.39 93.0194C9.78129 93.3625 8.31941 92.4342 8.32216 92.5074C8.32283 92.5095 9.06204 93.0642 9.10434 93.104C9.38842 93.3524 8.83548 92.9281 8.76507 92.91C8.63641 92.8767 8.44192 92.7698 8.6315 92.9687C8.68872 93.0262 9.12763 93.4004 8.75416 93.1565C8.70532 93.1245 8.46283 92.9394 8.44684 92.9309C8.17929 92.7909 8.94049 93.3735 9.17524 93.6006C9.40968 93.828 8.85642 93.4604 8.70251 93.3474C8.3018 93.0584 8.55035 93.2001 8.51315 93.1691C8.07165 92.7985 8.1297 92.8849 8.07667 92.873C7.34412 92.2841 7.37102 92.3403 8.02484 92.8627C8.09663 92.9193 8.04039 92.8496 8.07667 92.873C8.78143 93.4682 8.83594 93.588 8.14795 93.0668C7.82577 92.822 7.482 92.4999 7.57306 92.6577C7.61281 92.7301 8.10462 93.1511 8.21067 93.297C8.28487 93.4045 8.28082 93.4491 8.2137 93.4887C8.16291 93.4775 7.95231 93.3226 7.88953 93.4667C7.84644 93.55 8.1471 93.7585 8.11569 93.8324C8.01968 94.0343 7.5142 94.1131 6.95321 94.3741C6.90035 94.3981 7.12077 94.7324 6.91961 94.7769C6.0468 94.9194 5.88093 94.7283 5.76477 94.664C6.37746 94.784 7.37369 94.4679 7.67163 94.2306C7.86083 94.112 7.9883 94.0639 7.92199 94.1757C7.86857 94.2764 7.56642 94.5432 7.18659 94.6602C6.67362 94.8458 5.8857 94.7615 5.50304 94.542C5.0918 94.3311 4.93769 94.1064 4.80908 93.9919C4.84837 93.9955 4.87897 94.0129 4.90012 94.0532C4.97593 94.1865 4.79809 94.5106 4.76577 94.7731C4.73957 95.0294 4.89265 94.9826 4.98368 94.8278C5.08019 94.6753 5.12653 94.4238 5.14146 94.3573C5.15289 94.3563 5.19007 94.2763 5.24395 94.0937C5.36082 93.7145 5.14244 94.3558 5.14146 94.3573C5.1976 94.2861 4.92504 94.0995 4.8131 94.1184C4.75883 94.1352 4.62583 94.4613 4.59822 94.4628C3.89924 94.4553 3.61315 94.2814 3.58405 94.0364C3.58648 94.0289 3.86021 93.7467 3.86295 93.7331C3.9132 93.5395 3.53976 93.8451 3.2851 93.9925C3.03136 94.1403 3.06426 94.0349 3.5412 93.5565C3.51832 93.5637 3.51304 93.553 3.5199 93.5309C3.42776 93.3444 3.46262 93.0486 3.51328 92.8724C3.58561 92.6433 2.90327 92.9806 2.8793 92.9693C2.18428 92.6606 2.5124 92.1442 2.53822 91.7465C2.54756 91.5419 2.44158 91.2154 2.37548 91.0536C2.32048 90.921 2.50763 90.8795 2.40996 90.7662C2.39706 90.7506 2.05884 90.7074 2.04659 90.7011C1.66552 90.5138 2.47536 90.719 2.62535 90.7252C3.1708 90.7538 3.45655 90.7931 3.23097 90.6438C3.17805 90.6145 2.03616 90.2404 1.98348 90.1695C1.91526 90.0847 2.32139 90.2273 2.23858 90.1414C2.2319 90.1341 1.97796 90.0573 2.00042 90.0247C2.10133 89.8736 2.29964 89.786 2.32279 89.6597C2.32704 89.6425 1.92933 89.5036 1.92961 89.4749C1.93059 89.4068 1.94762 89.3462 1.9925 89.3027C2.06599 89.1944 2.17735 89.0879 2.34106 88.9963C2.42362 88.9521 2.65407 89.1425 2.73813 89.1717C3.23776 89.3627 2.66941 88.8276 2.68049 88.7861C2.73661 87.9461 4.32423 87.7147 3.84616 87.6493C3.83399 87.6458 3.68352 87.4918 3.54715 87.4418C3.41314 87.3897 3.29522 87.4448 3.46973 87.7602C3.48515 87.8086 3.87908 88.4216 3.46169 88.1396C3.43365 88.1241 3.23695 87.7939 3.15312 87.9317C3.07523 88.0625 2.71851 88.1032 2.963 88.4687C3.00472 88.5294 3.1784 88.6997 3.25314 88.8021C3.89704 88.0323 4.49012 87.7918 4.76062 87.3884C4.82558 87.2794 5.53239 85.8055 5.73818 86.7121C5.77656 86.8585 5.83853 87.7995 6.04609 87.3083C6.08761 87.2137 6.00911 87.0019 6.11994 86.8698C6.30414 86.6678 6.4435 86.9334 6.62277 86.5284C6.65307 86.4563 6.84434 85.8309 6.84979 86.3268C6.84892 86.4042 6.78062 86.7143 6.80973 86.7548C6.94539 86.9488 7.13417 86.773 7.21917 87.0209C7.24711 87.1077 7.09438 87.5974 7.10119 87.7414C7.10795 87.8853 7.14648 88.0342 7.25935 87.8245C7.37575 87.6159 7.57145 86.8207 7.6733 86.7854C8.13572 86.6456 8.33264 87.2343 8.79453 87.6362C8.8674 87.7007 8.96748 87.4117 9.09805 87.5013C9.30642 87.65 9.6571 87.8498 10.0395 88.3298C10.418 88.7854 10.7884 89.6628 10.6964 90.4361C10.651 90.5067 10.5903 90.5729 10.5118 90.6336C10.0386 90.9829 9.6352 90.6343 9.44666 90.8568C9.35543 90.9457 10.3038 91.0763 10.3323 91.1208C10.6241 91.4867 10.1686 91.7365 10.1902 92.1305C10.1925 92.2176 10.5853 92.247 10.581 92.3253C10.5661 92.6027 10.2971 92.8004 10.2179 93.0195C10.1824 93.1191 10.4494 93.2432 10.3801 93.32C10.2176 93.501 10.0038 93.5918 9.68436 93.5573C9.65665 93.5522 9.42087 93.2584 9.34127 93.3403C9.21009 93.4754 8.89776 93.4141 9.01715 93.6929C9.05422 93.7756 9.5232 94.2569 9.14753 93.9757C9.06977 93.9161 8.51988 93.3262 8.956 93.8734C9.02902 93.9641 9.59298 94.7234 9.16268 94.2955C9.04855 94.1838 8.5909 93.7079 8.65159 93.7929C8.66145 93.8063 8.90886 94.069 8.92482 94.102C8.96552 94.1874 8.95341 94.1958 8.98141 94.2323C8.98657 94.2462 8.9937 94.2641 9.00541 94.2888C9.01926 94.318 9.28325 94.5824 9.2954 94.6176C9.32903 94.715 9.19736 94.7071 9.04837 94.682C8.99302 94.6722 8.80849 94.4228 8.78433 94.3992C8.39702 94.0106 8.8598 94.5869 8.87463 94.6308C8.96419 94.8927 8.6748 94.681 8.62934 94.8301C8.61448 94.8717 8.84582 95.1386 8.85861 95.1683C8.97258 95.4657 8.6482 94.9188 8.56583 94.8925C8.3329 94.8169 8.1989 94.9424 8.01197 95.0964C7.94204 95.1535 8.22653 95.4645 8.15516 95.5145C7.75707 95.792 6.75225 96.2529 5.28061 95.7826C5.02281 95.6878 5.25688 95.4132 5.21847 95.3321C5.01266 94.7832 4.34174 95.2329 4.17521 95.2163C3.53774 95.209 3.52063 94.8312 3.20724 94.6171C2.75253 94.2908 2.47636 93.9412 2.30066 93.6546C2.55884 94.1335 2.63183 94.0235 2.38797 93.5071C2.17781 93.0551 1.94586 92.124 2.03812 91.3828C2.11333 90.6338 2.34242 90.145 2.45498 89.7706C2.47081 89.7221 2.06557 89.6051 2.07573 89.5583C2.17086 89.1882 2.34212 88.9862 2.46586 88.8151C2.6086 88.6111 2.7694 88.3912 2.96583 88.123C3.00965 88.0654 2.64967 87.8648 2.71935 87.7554C2.861 87.5279 3.16306 87.303 3.49471 87.2373C3.65059 87.2083 3.67624 87.5975 3.8221 87.5683C4.16324 87.5027 4.48339 87.3789 4.79128 87.2103C4.92671 87.1374 4.57809 86.8221 4.77638 86.7553C6.18078 86.2869 7.47712 86.5932 7.91232 87.3761C7.94663 87.4318 7.62494 88.1914 7.77033 88.0883C7.88117 87.888 8.00479 87.6489 8.12037 87.4332C8.58017 87.6065 8.89849 87.8714 9.22059 88.2611C9.39534 88.4629 9.62412 88.7143 9.90165 89.2561C10.171 89.7623 10.4861 90.8301 10.2304 91.8871C9.98242 92.9289 9.47177 93.4681 9.19113 93.7514C8.88963 94.0402 8.70182 94.1529 8.57202 94.2389C8.53113 94.2649 8.84842 94.5772 8.76942 94.6297C8.55362 94.7688 8.51473 94.8195 8.5511 94.7695C8.59173 94.7073 8.7241 94.5676 8.98485 94.0139C8.9862 94.0109 8.98709 94.0077 8.98756 94.0042C8.63234 94.1944 8.39366 93.6171 7.47175 94.2107C7.39081 94.2615 6.91842 94.4687 6.47749 94.5406C6.02465 94.6232 5.65671 94.6172 5.51136 94.6719C5.46696 94.6864 5.59424 95.0879 5.23422 95.0107C4.26427 94.7496 3.96054 94.4336 3.69264 94.1754C3.44474 93.9088 3.31934 93.6527 3.24016 93.3677C3.21631 93.2753 3.57791 93.1215 3.56661 93.0573C3.53069 92.8335 3.39868 92.6745 3.26281 92.3809C3.15896 92.0724 2.88652 91.6915 3.23396 90.5224C3.54295 89.6879 4.10218 89.4854 4.39124 89.5595C4.70467 89.63 5.01306 89.7822 5.39386 89.9323C5.5216 89.9436 5.91249 89.8555 5.9459 90.2448C6.05476 91.191 6.31931 92.2014 6.45914 93.2066C6.44659 93.4464 5.86782 93.2342 6.23182 93.7478C6.24752 93.764 6.36937 93.8126 6.55976 93.8507C6.77112 93.8875 7.05019 93.8913 7.2136 93.9192C7.45266 93.95 7.23006 94.4742 7.73529 94.414C8.24447 94.3262 8.69472 93.6765 9.3349 92.9031C9.64694 92.5124 9.8154 92.4507 10.0246 92.2557C10.2217 92.069 10.45 91.7013 10.4775 91.0882ZM3.99056 91.9775C4.3211 91.7965 3.00881 92.0989 3.35898 92.1566C3.37759 92.159 3.97478 91.9877 3.99056 91.9775ZM8.35997 91.1223C7.76456 91.2371 8.61077 91.424 9.08279 91.3624C9.55779 91.2363 8.54016 91.0475 8.35997 91.1223ZM7.65006 90.323C7.29202 90.6274 8.88387 89.5737 8.51163 89.7146C8.49035 89.7224 7.67018 90.3044 7.65006 90.323ZM4.94293 91.4055C4.95923 91.4034 4.95044 91.2721 4.93363 91.2667C4.49229 91.2316 4.52636 91.5933 4.94293 91.4055ZM7.06042 90.3607C6.88559 90.5508 7.11656 90.3604 7.33542 90.1252C7.50927 89.9337 7.27538 90.1216 7.06042 90.3607ZM5.74217 90.5675C5.75316 90.5843 5.77095 90.5944 5.71012 90.4988C5.51492 90.1902 5.55856 90.2845 5.74217 90.5675ZM6.71337 90.089C6.71992 90.1859 5.74841 91.4281 5.81996 91.2573C5.83217 91.2258 6.15107 90.8784 6.22993 90.7594C6.37131 90.5409 5.74423 91.307 6.05351 90.8754C6.10925 90.7957 6.71465 90.0802 6.71482 90.0873C6.71434 90.0878 6.71385 90.0884 6.71337 90.089ZM5.53725 91.5065C5.55422 91.5013 5.56761 91.485 5.55038 91.4886C5.12971 91.5668 5.11075 91.6336 5.53725 91.5065ZM6.16709 91.2247C6.15723 91.2613 6.16044 91.2993 6.17146 91.2662C6.40052 90.6057 6.35917 90.5158 6.16709 91.2247ZM5.75151 91.0664C5.59548 90.6392 6.02719 90.4327 6.22498 90.9757C6.03533 90.9593 5.85595 91.0325 5.75151 91.0664Z" fill="#A0677E"/>
<path d="M25.8525 89.1768C24.9543 90.2931 25.8717 90.1908 24.1787 89.8516C24.1604 89.8464 24.1426 89.8415 24.1251 89.8368C23.1538 89.4229 23.4857 90.8574 22.3175 89.2484C22.194 89.5868 22.2351 89.4667 22.1716 89.8897C21.8753 90.0598 19.5932 88.948 19.2475 88.6625C19.244 88.5263 19.2431 88.3905 19.2448 88.2554C19.0941 88.2283 18.4141 88.0933 18.3713 88.0157C18.0106 87.4202 17.6594 87.0406 17.2533 86.5937C17.4201 86.3008 17.3473 86.4106 17.5901 86.1263C17.5045 85.9683 17.3563 86.0761 17.0584 86.2327C16.8528 85.9911 16.0745 84.9453 15.6633 83.8319L15.6126 83.7252C15.5822 83.2002 15.5011 82.6684 15.5827 82.2365C15.6809 81.826 15.8813 81.5733 16.0515 81.5129C16.1429 81.5146 16.2343 81.5164 16.3257 81.5182C16.716 81.7172 16.7238 81.9301 16.7469 82.0252C16.7635 82.1362 16.8737 82.8143 16.8982 83.3212L16.7878 83.0892C16.844 83.26 16.91 83.4321 16.9881 83.5915C17.6149 84.8567 18.4989 86.0192 19.6656 86.9754C20.0953 87.3257 20.5774 87.6258 21.1118 87.8112C21.3684 87.9 21.6693 87.8809 21.9176 88.0059C22.2438 88.1743 22.5961 88.6845 22.9504 88.2139C23.0654 88.0573 23.4665 88.0248 23.9412 87.9864C24.6919 87.9534 25.5964 87.6059 25.8312 87.445C26.2778 87.1695 26.587 86.7397 26.9053 86.3529C27.1395 86.069 27.4586 85.8318 27.6222 85.4923C27.7892 85.1469 27.7645 84.7206 27.8578 84.3695C28.2989 82.7173 28.2739 80.9468 27.5505 79.5515C27.5687 79.5315 27.7863 79.2293 27.7823 79.2246C27.6141 78.8868 26.7522 78.4774 26.9375 78.0417C27.0685 77.9249 27.1984 77.8067 27.327 77.687C27.3024 77.6604 27.2775 77.6339 27.2523 77.6077C26.963 77.8311 27.108 77.716 26.8214 77.9529C26.5565 77.8243 26.3257 77.486 26.0199 77.2018C25.9332 77.1208 25.8208 77.0468 25.6926 76.9783C25.062 76.6226 24.2372 76.4355 23.9738 75.7938C23.9494 75.7328 24.1097 75.4514 24.1859 75.2969C24.1583 75.2822 24.1328 75.2687 24.1035 75.2534C23.9783 75.3693 23.7255 75.6641 23.6641 75.6251C23.3122 75.4102 22.7742 76.1884 22.7542 75.3952C22.4719 75.3328 22.1996 75.616 22.0333 75.4512C22.0377 75.1895 22.0461 75.0688 22.0589 74.7868C22.0344 74.7705 22.0098 74.7545 21.9851 74.7386C21.9033 74.8514 21.8058 74.9948 21.6953 75.171C21.1522 75.2836 20.6932 75.4281 20.255 75.5362C20.109 75.571 20.0615 76.0003 20.0063 76.015C19.5949 76.1341 19.4112 76.5923 19.0954 76.8845C19.0737 76.9045 18.8526 76.8641 18.836 76.8707C18.6752 76.9226 18.3337 76.7759 18.3931 76.9995C18.534 77.1173 18.6753 77.2346 18.8171 77.3513C18.838 77.4022 18.8595 77.4526 18.8814 77.5027C18.6477 77.4603 18.6762 77.4555 18.3691 77.3564C18.4482 77.6347 18.6701 77.6479 18.6538 77.7392C18.634 77.8432 18.1106 78.2054 18.1714 78.3301C18.2814 78.5447 18.5391 78.6982 18.5634 78.951C18.4996 78.9382 18.4356 78.9257 18.3715 78.9135C17.8543 78.8201 17.7938 78.7936 17.6223 78.9081C17.6583 78.9505 17.6947 78.9926 17.7313 79.0344C17.9617 79.0761 18.1698 79.1176 18.4015 79.1707C18.6844 79.4248 17.8696 80.5242 17.7791 80.8332C17.6026 80.8538 17.4363 80.8798 17.2768 80.9138C17.2735 80.9479 17.2708 80.9797 17.2678 81.015C17.1364 81.193 16.8602 81.3936 16.4382 81.5241C16.2336 81.5037 16.0291 81.482 15.8247 81.4592C16.2896 81.1467 15.9957 80.5647 15.9089 79.9656C15.8158 79.378 15.9214 78.8328 16.9407 79.0314C16.9787 79.057 17.0169 79.0824 17.0551 79.1078C17.3281 79.2883 17.4523 79.3902 17.8072 79.4999C17.8411 79.4767 17.875 79.4538 17.909 79.4311C17.5015 79.1018 16.8021 78.8971 16.1355 78.6741C15.7243 77.9815 16.6306 78.477 16.5983 78.0836C16.546 77.3596 16.1276 76.3537 16.8859 75.9107C17.287 75.6933 17.2185 75.7624 16.9285 75.2027C17.2148 74.8282 17.4837 75.0039 17.8727 74.8523C17.9994 74.808 17.8298 74.2135 18.1438 74.0173C18.3887 74.2262 18.2946 74.1291 18.504 74.4486C18.543 74.4496 18.5818 74.451 18.6204 74.4528C18.53 74.1371 18.5919 74.2982 18.3897 73.953C18.4238 73.9483 18.458 73.944 18.492 73.9399C18.5742 74.0291 18.6551 74.1194 18.7344 74.2106C18.8477 74.1814 19.4314 73.6049 20.229 73.2582C21.0138 72.8942 21.888 72.7952 21.9332 72.8502C22.5076 73.5244 22.7838 73.4461 23.1552 73.3673C23.5179 73.2941 23.9396 73.2347 24.2799 73.994C24.3119 74.0848 25.0741 73.7052 25.3476 73.9495C25.3753 74.2336 25.3452 74.2715 25.2445 74.6454C25.2713 74.6802 25.2997 74.7162 25.3229 74.7491C25.5798 74.482 25.4957 74.5789 25.7357 74.2549C25.768 74.2634 25.8004 74.2721 25.8329 74.2809C25.8272 74.3678 25.8209 74.4545 25.8142 74.5412C26.1437 74.4804 26.1687 74.4071 26.332 74.5824C26.2697 74.9457 26.1548 75.2347 26.2313 75.4249C26.3671 75.3416 26.5043 75.2598 26.6428 75.1795C26.7349 75.2714 26.7886 75.4003 26.8453 75.5309C26.935 75.7239 27.0224 75.9173 27.244 76.0302C27.4266 76.0901 28.432 76.9338 28.4572 76.8701C28.0232 77.8361 29.889 77.5712 28.7106 78.5768C28.9122 78.7263 29.0503 78.8337 29.1908 79.0274C28.9375 79.3592 28.9153 79.2846 28.955 79.5218C29.2507 79.5923 29.4255 79.5615 29.8233 79.5364C29.8293 79.5635 29.8351 79.5906 29.8408 79.6177C29.7021 79.6374 29.5635 79.6576 29.425 79.6784C29.1466 80.088 30.2984 80.2762 30.2249 80.9922C30.1847 81.0047 30.1445 81.0171 30.1043 81.0293C29.9851 80.978 29.8655 80.929 29.7455 80.8823C29.4555 81.0364 29.4282 81.1078 29.229 81.2734C29.5084 81.3691 29.5628 81.3716 29.8952 81.4398C29.9276 81.4796 29.9597 81.5198 29.9916 81.5605C29.7272 81.6193 29.5135 81.6695 29.2792 81.7408C29.3069 81.7799 29.3344 81.8194 29.3616 81.8592C31.1884 82.2783 29.6525 82.9863 30.212 83.3753C30.2884 83.4023 30.3647 83.4297 30.4409 83.4573C30.4352 83.525 30.4289 83.5927 30.4219 83.6603C30.334 83.6486 30.2461 83.6365 30.1583 83.6243C29.9796 83.5094 29.7991 83.3986 29.617 83.2917C29.5707 83.2981 29.5245 83.3042 29.4782 83.3101C29.5683 83.9684 29.5049 84.5945 29.4673 85.3072C29.2005 85.3037 29.3099 85.3148 28.9912 85.2211C28.9844 85.258 28.9774 85.295 28.9701 85.332C29.2398 85.5599 29.5014 85.7962 29.755 86.042C29.5766 86.6343 28.7748 86.5942 28.7338 87.217C28.7063 87.5026 28.6648 87.5573 28.4425 87.645C28.2138 87.4485 28.2361 87.4407 27.9887 87.3246C27.9794 87.3603 27.9698 87.396 27.9599 87.4318C28.0607 87.5579 28.1603 87.6852 28.2586 87.8136C28.2319 87.8421 28.205 87.8703 28.1779 87.8984C28.0579 87.8125 27.938 87.7264 27.8189 87.6392C27.4678 88.2829 28.0653 88.5908 26.9846 89.089C26.9339 89.0642 26.8833 89.0392 26.8327 89.0139C26.782 88.8457 26.7259 88.6804 26.6676 88.5162C26.4361 88.5821 26.4456 88.5602 26.3567 88.8259C26.4358 89.1102 26.4549 89.1799 26.5572 89.4698C26.2757 89.6932 26.2348 89.614 25.8525 89.1768Z" fill="#34140B"/>
<path d="M8.65363 98.1334C7.96742 99.3518 8.75511 99.3154 7.19438 98.7937C7.1777 98.7867 7.16144 98.78 7.14556 98.7736C6.36932 98.2348 6.60518 99.9995 5.71126 98.0435C5.59894 98.4658 5.63641 98.3161 5.56639 98.8398C5.30849 99.0259 3.51465 97.9223 3.263 97.6961C3.28369 97.5395 3.30739 97.3839 3.33401 97.2293C3.2118 97.2245 2.63399 97.2076 2.60901 97.1319C2.40642 96.548 2.17377 96.2302 1.89205 95.8709C2.12373 95.5314 2.02725 95.6614 2.33023 95.3125C2.28966 95.1756 2.12104 95.3229 1.79246 95.5537C1.65449 95.3592 1.14517 94.5264 0.964447 93.658L0.90171 93.5261C0.945278 93.1497 0.956359 92.7456 1.09238 92.4233C1.24232 92.1277 1.47104 91.9684 1.6827 91.9296C1.79563 91.9329 1.90856 91.9362 2.02148 91.9396C2.50769 92.081 2.52347 92.2105 2.5365 92.1985C2.51807 92.0698 2.53536 92.6601 2.49079 93.0267L2.35437 92.74C2.36763 92.8659 2.38954 92.9931 2.42618 93.1083C2.72422 94.0242 3.21952 94.8949 3.94982 95.6965C4.21964 95.9902 4.54176 96.2491 4.91631 96.3975C5.09698 96.4685 5.31829 96.4112 5.4865 96.5429C5.70256 96.7199 5.95218 97.3342 6.21826 96.7481C6.3036 96.5529 6.58407 96.508 6.91824 96.4863C7.45054 96.4725 8.1358 96.2858 8.31198 96.1717C8.64426 95.9792 8.83106 95.6297 9.05301 95.3529C9.21644 95.15 9.49682 95.0168 9.59881 94.7632C9.70321 94.505 9.58425 94.1529 9.62338 93.9004C9.81163 92.7098 9.69693 91.505 9.09428 90.6632C9.11931 90.6479 9.42974 90.3911 9.42592 90.3868C9.27803 90.1573 8.44539 90.0779 8.77337 89.6627C8.94196 89.5277 9.10917 89.3909 9.27497 89.2522C9.2559 89.2351 9.23667 89.2181 9.21728 89.2012C8.85811 89.4753 9.03915 89.3355 8.67867 89.62C8.44422 89.5868 8.32177 89.3596 8.1286 89.174C8.07404 89.1214 7.99547 89.0817 7.90424 89.0502C7.43157 88.8586 6.80581 88.8942 6.76108 88.2541C6.75676 88.193 6.9523 87.8437 7.05011 87.6547C7.03105 87.6447 7.01338 87.6356 6.99311 87.6253C6.86457 87.7827 6.59641 88.1704 6.55873 88.1415C6.3276 87.9779 5.7871 88.9924 5.93884 88.0764C5.75133 88.0568 5.53228 88.4397 5.45813 88.2661C5.49738 87.9502 5.51784 87.803 5.55893 87.4596C5.54418 87.4427 5.52931 87.4258 5.51432 87.4091C5.44736 87.5548 5.36881 87.7394 5.2865 87.9649C4.94589 88.1514 4.73616 88.314 4.51954 88.3516C4.44031 88.3667 4.52769 88.8394 4.50721 88.8349C4.31003 88.842 4.34947 89.2071 4.19144 89.3281C4.18117 89.3362 3.96764 89.2215 3.95382 89.2218C3.82542 89.207 3.44387 88.9758 3.57271 89.1807C3.74983 89.3225 3.92749 89.4637 4.10569 89.6042C4.14371 89.651 4.18231 89.6973 4.22145 89.743C3.97728 89.6295 4.0041 89.635 3.6611 89.46C3.82887 89.7011 4.06136 89.7791 4.07408 89.8422C4.09537 89.9094 3.63984 90.0178 3.73441 90.1242C3.9124 90.3038 4.24048 90.4766 4.33446 90.6447C4.25943 90.6199 4.18423 90.5955 4.10888 90.5715C3.50067 90.3826 3.42491 90.3533 3.25248 90.3946C3.30312 90.4315 3.35403 90.468 3.4052 90.504C3.68029 90.5813 3.92859 90.6554 4.20579 90.7442C4.6095 90.9694 3.85799 91.4604 3.76032 91.633C3.54758 91.6249 3.34739 91.6231 3.15545 91.6285C3.15459 91.6484 3.15405 91.6669 3.15338 91.6873C3.00789 91.7804 2.67868 91.8767 2.16056 91.9469C1.90734 91.9288 1.65421 91.9092 1.40118 91.8882C1.96806 91.6948 1.5657 91.3018 1.39107 90.8575C1.21092 90.4282 1.25343 90.017 2.48391 90.3463C2.53322 90.3715 2.58262 90.3964 2.63206 90.4212C2.9855 90.598 3.15062 90.6882 3.58811 90.8274C3.62331 90.819 3.65851 90.8108 3.6937 90.8031C3.15166 90.5073 2.29758 90.2225 1.47544 89.9421C0.874179 89.3384 2.01975 89.882 1.90333 89.5772C1.68992 89.0176 1.02137 88.0504 1.72707 87.8122C2.09639 87.7059 2.03389 87.76 1.60552 87.1493C1.8142 86.845 2.12654 87.0806 2.46404 87.0189C2.57213 87.0049 2.27895 86.3401 2.53715 86.1832C2.80623 86.4631 2.69896 86.3371 2.95631 86.7331C2.99142 86.7426 3.02625 86.7525 3.06078 86.7629C2.9138 86.394 3.00319 86.5853 2.75169 86.1596C2.782 86.1609 2.81222 86.1624 2.84233 86.1643C2.93369 86.2805 3.02329 86.3978 3.11109 86.5163C3.20456 86.508 3.60034 85.9689 4.2321 85.5941C4.84947 85.207 5.5831 85.0355 5.61611 85.1009C6.0443 85.8957 6.24782 85.7543 6.56815 85.6149C6.87242 85.4774 7.25316 85.3571 7.40145 86.1656C7.40759 86.2629 8.13861 85.6865 8.33529 85.9034C8.30067 86.2137 8.26615 86.2619 8.09513 86.6956C8.1108 86.7277 8.12761 86.7608 8.14047 86.7915C8.42687 86.4416 8.33103 86.5665 8.61639 86.1587C8.64348 86.161 8.67065 86.1635 8.6979 86.1661C8.67375 86.2623 8.6489 86.3583 8.62336 86.454C8.93319 86.3136 8.97386 86.2295 9.08267 86.3811C8.94273 86.7855 8.76864 87.1195 8.79153 87.3012C8.93522 87.1802 9.08058 87.0609 9.22754 86.943C9.29031 87.0175 9.30867 87.1394 9.3291 87.261C9.36995 87.4441 9.40774 87.6239 9.60001 87.6874C9.75275 87.7122 10.6188 88.3095 10.6714 88.2417C10.347 88.7718 10.6776 88.8015 10.9479 88.9186C11.2129 89.0257 11.4046 89.2129 10.623 89.7104C10.8323 89.8 10.9789 89.8684 11.1195 90.0081C10.7728 90.3124 10.7549 90.2527 10.7733 90.4348C11.1213 90.4551 11.3369 90.4126 11.8218 90.3528C11.8264 90.3746 11.8309 90.3963 11.8353 90.4181C11.6649 90.4471 11.4946 90.4767 11.3245 90.5071C10.9449 90.8512 12.3357 90.9183 12.2285 91.5098C12.1786 91.5207 12.1287 91.5314 12.0788 91.542C11.9326 91.5035 11.7861 91.4677 11.6394 91.4348C11.2771 91.5631 11.2415 91.6178 10.9936 91.7444C11.3381 91.8139 11.4054 91.816 11.8162 91.869C11.8563 91.9003 11.8962 91.9321 11.9358 91.9643C11.6094 92.0089 11.3458 92.0451 11.0577 92.0944C11.0927 92.1242 11.1275 92.1545 11.1621 92.1853C13.4231 92.5663 11.5725 93.0815 12.2963 93.4305C12.3916 93.4594 12.4869 93.4887 12.5821 93.5183C12.5811 93.5742 12.5795 93.6301 12.5774 93.6861C12.4696 93.6679 12.3618 93.6495 12.2541 93.6308C12.0261 93.5183 11.7963 93.4109 11.5648 93.3086C11.5091 93.3092 11.4535 93.3096 11.3979 93.3097C11.5724 93.8402 11.5819 94.3481 11.6549 94.9628C11.3446 94.9157 11.4735 94.9437 11.0887 94.8076C11.0874 94.8382 11.0859 94.8688 11.0841 94.8995C11.435 95.1448 11.7767 95.4003 12.1091 95.6674C12.0006 96.1864 11.0993 95.9951 11.1801 96.5875C11.2061 96.8615 11.1705 96.9099 10.9498 96.9539C10.6668 96.7114 10.6884 96.7087 10.4026 96.5418C10.4003 96.5752 10.3977 96.6087 10.3948 96.6423C10.5272 96.7894 10.6582 96.9379 10.7875 97.088C10.7649 97.1117 10.7421 97.1352 10.7191 97.1586C10.5757 97.047 10.4328 96.9349 10.2909 96.8216C10.0658 97.4113 10.7216 97.848 9.72616 98.2117C9.67177 98.1754 9.61773 98.1387 9.56385 98.1017C9.48563 97.9042 9.40152 97.71 9.31428 97.5175C9.10337 97.5476 9.11086 97.5235 9.07214 97.8084C9.19543 98.1447 9.22459 98.2277 9.36775 98.5766C9.12745 98.7933 9.07327 98.6994 8.65363 98.1334Z" fill="#34140B"/>
</g>
<defs>
<clipPath id="clip0_1222_9017">
<rect width="104" height="104" fill="white"/>
</clipPath>
</defs>
</svg>
