<svg width="24" height="24" viewBox="0 0 24 24" fill="none" xmlns="http://www.w3.org/2000/svg">
<path d="M10.0438 7.76121C9.90245 7.00147 9.57615 7.23561 10.3618 7.13311C11.0103 7.04932 9.94826 6.42029 11.3181 6.78701C11.1261 6.56865 11.1947 6.64514 10.9313 6.41141C10.9277 6.26392 11.9699 5.65316 12.1246 5.48923C12.2203 5.53098 12.316 5.57272 12.4117 5.61447C12.4369 5.5375 12.5084 5.17175 12.556 5.16381C12.9523 5.09402 13.1832 4.93512 13.4295 4.7307C13.6611 4.87772 13.5728 4.81564 13.8111 5.0109C13.9101 4.9708 13.81 4.85875 13.6474 4.64494C13.9113 4.43941 15.7434 2.99868 16.2972 3.255C16.3556 3.30259 16.414 3.35019 16.4724 3.39778C16.6513 3.69538 16.5654 3.81103 16.4812 3.92314C16.2429 4.24257 15.8016 4.40377 15.475 4.6474C14.7612 5.17928 14.0671 5.72419 13.3248 6.23213C13.0524 6.41893 12.7892 6.61159 12.5625 6.83829C12.4542 6.9471 12.4006 7.11854 12.2508 7.19017C12.0494 7.2866 11.619 7.18729 11.8022 7.58307C11.9576 7.91783 10.9268 8.68198 10.7516 8.86725C10.5546 9.07385 10.4363 9.34635 10.2582 9.56849C10.1273 9.73151 9.91421 9.82819 9.80256 10.0063C9.68825 10.1876 9.68791 10.4613 9.58257 10.6501C9.18163 11.3722 8.73552 12.0583 8.32111 12.7704L8.3057 12.2123C8.45645 12.3252 8.60875 12.4366 8.76342 12.5457C8.75689 12.5659 8.66478 12.8361 8.66682 12.8369C8.84273 12.961 9.53548 13.0237 9.40084 13.3843C9.30462 13.4918 9.2084 13.5993 9.11218 13.7068C9.12903 13.7195 9.14588 13.7322 9.16273 13.7449C9.38017 13.5364 9.27141 13.6434 9.48672 13.4255C9.68441 13.4715 9.84257 13.6923 10.0207 13.8902C10.3091 14.2094 11.1225 14.3845 11.0866 14.987C11.084 15.0342 10.8874 15.2147 10.7873 15.3153C10.8004 15.3287 10.8134 15.3421 10.8264 15.3555C10.9445 15.2869 11.2076 15.1113 11.2345 15.1485C11.3837 15.3497 12.0336 14.9272 11.7337 15.4961C11.8769 15.6055 12.1816 15.514 12.2025 15.6846C12.074 15.8563 12.0096 15.9321 11.8614 16.1099C11.8665 16.1287 11.8717 16.1475 11.8768 16.1663C11.9784 16.123 12.1055 16.0682 12.2586 16.0026C12.6176 16.1599 12.9448 16.3691 13.183 16.645C13.2564 16.7302 13.6011 16.6385 13.6335 16.6858C13.8482 16.988 14.2451 17.0986 14.4767 17.3746C14.4932 17.3937 14.4446 17.5702 14.4472 17.5829C14.4738 17.714 14.3068 17.966 14.484 17.9331C14.5976 17.8332 14.7113 17.7333 14.825 17.6334C14.8683 17.6223 14.9116 17.6113 14.9549 17.6002C14.8823 17.78 14.8842 17.7577 14.7462 17.9821C14.9711 17.9542 15.0309 17.788 15.0969 17.8139C15.1815 17.8468 15.302 18.3085 15.4025 18.2898C15.5887 18.2552 15.7833 18.1009 15.9745 18.1541C15.9435 18.1977 15.9124 18.2413 15.8814 18.285C15.6324 18.6368 15.5906 18.6709 15.5998 18.8219C15.6414 18.8072 15.6831 18.7925 15.7248 18.7778C15.8427 18.6262 15.9503 18.4894 16.0727 18.3369C16.3766 18.2004 16.7611 19.1754 16.8731 19.3742C16.7953 19.497 16.7244 19.6144 16.6601 19.7302C16.6776 19.7469 16.6952 19.7636 16.7127 19.7802C16.7421 19.9399 16.698 20.2043 16.5173 20.5131C16.3887 20.6233 16.26 20.7334 16.1314 20.8436C16.3907 20.0333 14.2965 20.6248 15.3991 19.3266C15.4309 19.3069 15.4626 19.2873 15.4943 19.2677C15.7204 19.1269 15.8377 19.0718 16.0578 18.859C16.0571 18.8283 16.0564 18.7976 16.0558 18.7669C15.6734 18.9528 15.2606 19.3905 14.8428 19.7913C14.2695 19.934 14.9363 19.4141 14.6817 19.3633C14.2074 19.2675 13.4693 19.5007 13.3897 19.0051C13.3474 18.7405 13.3673 18.7786 12.9373 19.0252C12.7534 18.8798 12.9205 18.6835 12.8654 18.4537C12.8471 18.3772 12.4286 18.6103 12.3196 18.4831C12.4753 18.2775 12.4035 18.361 12.6315 18.1438C12.6331 18.1194 12.6347 18.095 12.6364 18.0706C12.4157 18.2172 12.5287 18.1332 12.2874 18.3576C12.2853 18.3392 12.2831 18.3207 12.281 18.3023C12.3432 18.2262 12.4055 18.1502 12.4678 18.0741C12.4235 17.953 10.8623 17.4383 10.8854 17.3474C11.1725 16.2355 10.0616 17.2826 10.2603 16.1996C10.2745 16.1305 9.69259 16.3339 9.61013 16.1636C9.68981 15.9714 9.72056 15.947 9.90427 15.6957C9.89878 15.6712 9.89329 15.6468 9.8878 15.6224C9.64169 15.7976 9.7252 15.7337 9.47357 15.9501C9.45587 15.9436 9.43818 15.9372 9.42048 15.9307C9.45072 15.8715 9.48097 15.8123 9.51121 15.7532C9.28425 15.7931 9.24809 15.8446 9.19645 15.7298C9.34041 15.4832 9.48859 15.2782 9.48664 15.1477C9.37547 15.2075 9.26429 15.2672 9.15312 15.327C9.06356 15.1819 9.17544 14.8855 8.96354 14.8002C8.87249 14.7634 8.30615 14.4286 8.27461 14.4936C8.63208 13.7575 7.35701 14.5473 8.10379 13.5643C7.95119 13.5563 7.84507 13.5534 7.72443 13.5123C7.84778 13.2324 7.87278 13.2589 7.80259 13.1543C7.59075 13.2517 7.48068 13.3489 7.22322 13.5476C7.21454 13.5379 7.20587 13.5283 7.19719 13.5186C7.28452 13.4435 7.37186 13.3684 7.4592 13.2933C7.49373 13.1693 7.40799 13.1585 7.27899 13.1786L6.71621 12.7497L7.24264 11.8622C7.18358 11.6494 7.02207 11.3238 7.19576 11.2101C7.22459 11.228 7.25342 11.2459 7.28225 11.2638C7.33855 11.3463 7.39485 11.4287 7.45114 11.5111C7.68287 11.6185 7.72564 11.6072 7.90762 11.6508C7.76637 11.4633 7.73268 11.4334 7.54493 11.2313C7.53691 11.1993 7.5289 11.1673 7.52089 11.1353C7.70652 11.2519 7.85825 11.3435 8.03115 11.4343C8.02551 11.4035 8.01987 11.3728 8.01423 11.3421C6.95122 10.2542 8.10569 10.7171 7.79585 10.2652C7.74843 10.2188 7.70101 10.1723 7.65359 10.1259C7.66778 10.0979 7.68198 10.0699 7.69617 10.0419C7.75434 10.0858 7.81252 10.1296 7.87069 10.1734C7.97606 10.3048 8.08143 10.4363 8.1868 10.5677C8.21957 10.585 8.25233 10.6022 8.2851 10.6194C8.34037 10.2578 8.4498 9.9579 8.48949 9.5813C8.67626 9.67218 8.59963 9.62966 8.8223 9.78577C8.82783 9.76708 8.83335 9.74839 8.83888 9.7297C8.65136 9.51512 8.46561 9.30133 8.28122 9.08758C8.37305 8.82671 8.92966 9.06009 8.86941 8.69894C8.84305 8.53742 8.85929 8.51498 8.9889 8.50682C9.17855 8.66725 9.16472 8.66862 9.35212 8.78312C9.35168 8.76289 9.35123 8.74266 9.35079 8.72242C9.25872 8.6283 9.16666 8.53417 9.0746 8.44004C9.08588 8.42764 9.09716 8.41523 9.10844 8.40283C9.20594 8.47435 9.30344 8.54587 9.40094 8.61739C9.46974 8.26241 9.02972 8.03335 9.47611 7.81298C9.51414 7.83057 9.55217 7.84815 9.5902 7.86573C9.68344 7.97012 9.77668 8.07452 9.86992 8.17891C9.98128 8.14383 9.98517 8.15577 9.92945 7.99118C9.77055 7.8155 9.73087 7.77305 9.55345 7.59658C9.60123 7.46393 9.64988 7.51247 10.0438 7.76121Z" fill="#34140B"/>
</svg>
