<svg width="24" height="24" viewBox="0 0 24 24" fill="none" xmlns="http://www.w3.org/2000/svg">
<path d="M1.54496 16.8437C0.629893 15.8935 0.833745 16.8656 0.864611 15.2599C0.86803 14.986 0.830123 14.8024 0.773045 14.6667L0.808957 14.7658C0.55434 14.1853 -0.0746992 14.3392 0.679631 12.6791C0.377486 12.5829 0.484215 12.6131 0.131068 12.6257C0.0924793 12.5282 0.0598135 12.156 0.0921363 11.6626C0.109 10.3764 0.955545 8.51134 1.21722 8.10118C1.34734 8.06181 1.47739 8.02598 1.60724 7.99356C1.66791 7.77772 2.04397 6.85159 2.14669 6.78577C2.9045 6.19189 3.49546 5.69786 4.22952 5.17583C4.47976 5.32393 4.39167 5.25689 4.59151 5.49151C4.82303 5.37402 4.77989 5.22288 4.7597 4.9141C5.13938 4.66148 6.78014 3.79159 8.48319 3.54887C10.1812 3.26135 11.7985 3.53104 11.9919 3.82668C11.9949 3.90198 11.998 3.97729 12.001 4.0526C11.7214 4.38086 11.3818 4.40074 11.0456 4.43591C10.0961 4.53496 9.08368 4.50327 8.12545 4.74053C6.05266 5.25424 4.06245 6.40475 2.72334 8.23768C2.23544 8.90869 1.8616 9.68492 1.69318 10.5226C1.6191 10.8899 1.64222 11.2897 1.60138 11.6626C1.5973 11.6995 1.59257 11.736 1.58701 11.7724C1.50075 12.3027 1.19655 12.9514 1.70612 13.3538C1.8308 13.4496 1.96328 13.7927 2.15197 14.2269C2.53979 15.2949 2.96503 17.0222 2.9594 17.4615C3.04876 18.1509 2.93644 18.8474 2.37061 19.3027C2.25627 19.3997 2.13161 19.4784 1.99522 19.551C1.75748 19.6737 1.76233 20.097 2.07753 20.1827C2.33683 20.2656 2.60073 20.3396 2.87 20.3767C3.42724 20.4539 3.99709 20.3604 4.55026 20.3819C7.1475 20.4732 9.75002 20.2693 12.2409 19.6685C12.2678 19.6836 12.6509 19.8746 12.6555 19.8723C13.1953 19.7435 14.3793 19.0009 14.88 19.2062C14.9495 19.3359 15.0188 19.4655 15.0901 19.5946C15.1418 19.5759 15.1932 19.5571 15.2442 19.5381C15.1511 19.2516 15.2027 19.3953 15.0883 19.11C15.1442 19.0762 15.2056 19.0437 15.2713 19.0122L15.2209 19.9271C15.1923 19.9192 15.1631 19.9106 15.1334 19.9014L13.8422 19.2869L15.1999 18.9608C15.5815 18.8074 16.0934 18.6636 16.5806 18.4608C17.615 18.0568 18.7089 16.7683 19.6843 16.3489C19.7644 16.3155 19.9516 16.5055 20.0625 16.5949C20.0956 16.5598 20.1284 16.5245 20.1608 16.489C20.118 16.3395 19.9722 16.0349 20.0475 15.9554C20.4738 15.4892 20.0029 14.8197 20.7671 14.7107C20.9504 14.3213 20.8178 13.9096 21.0191 13.6527C21.2465 13.6438 21.3485 13.6505 21.5883 13.6573C21.6103 13.6196 21.6319 13.5815 21.6532 13.5432C21.5819 13.4222 21.4888 13.275 21.3691 13.1076C21.3998 12.6216 21.3902 12.1376 21.3502 11.6626C21.3198 11.3004 21.2723 10.9467 21.2137 10.5981C21.1734 10.3414 20.7693 10.066 20.7394 9.95383C20.5379 9.17869 19.9637 8.6096 19.4878 8.00085C19.4548 7.95788 19.4361 7.69734 19.4231 7.67366C19.3066 7.4391 19.3998 7.11494 19.1299 7.06705C19.0173 7.1687 18.9051 7.27082 18.7934 7.37342C18.7321 7.36954 18.6709 7.36638 18.6099 7.36393C18.5945 7.11418 18.6095 7.14972 18.6545 6.85459C18.3019 6.80139 18.3455 7.04083 18.2158 6.97602C18.0645 6.88876 17.4091 6.17955 17.2464 6.19966C16.9655 6.22457 16.8101 6.41771 16.4372 6.34837C16.4398 6.29135 16.442 6.23422 16.4438 6.17699C16.4526 5.71499 16.4774 5.66554 16.2687 5.47144C16.2148 5.49266 16.1611 5.51428 16.1078 5.5363C16.0998 5.73773 16.0871 5.91901 16.0651 6.12013C15.7592 6.26939 13.8469 5.32176 13.3168 5.26308C13.2535 5.11368 13.1837 4.97319 13.1024 4.83863C13.0461 4.83454 12.9897 4.83086 12.9332 4.8276C12.6252 4.71328 12.2526 4.48784 12.001 4.14545C12.0207 3.97628 12.0412 3.80715 12.0625 3.63808C12.9944 4.29084 16.0045 2.97489 15.9343 4.81399C15.9048 4.84224 15.8754 4.87058 15.8462 4.89902C15.6389 5.10275 15.5129 5.19143 15.4259 5.48494C15.4684 5.52066 15.5107 5.55669 15.5528 5.59311C15.9585 5.30638 16.0998 4.72098 16.2836 4.17107C17.1839 3.96802 16.672 4.67268 17.2205 4.76092C18.2331 4.94486 19.4454 4.895 20.121 5.89677C20.4598 6.42965 20.3687 6.33314 20.9492 6.24805C21.4155 6.72853 21.2659 6.96114 21.4917 7.49512C21.5608 7.67114 22.1402 7.70707 22.3598 8.15879C22.1885 8.38509 22.2706 8.30506 21.9904 8.44847C21.9946 8.49802 21.9983 8.54744 22.0014 8.59673C22.2904 8.59983 22.1446 8.61817 22.447 8.48671C22.4549 8.53113 22.4624 8.57554 22.4696 8.61993C22.3949 8.69273 22.3194 8.76439 22.2432 8.83489C22.2999 9.01093 23.0722 10.3378 23.2421 11.6626C23.3905 12.5808 23.3069 13.4032 23.2617 13.4556C22.5683 14.2444 22.5171 14.644 22.4472 15.1446C22.3743 15.6189 22.2546 16.1914 21.3149 16.6664C21.2067 16.7168 21.1483 17.6546 20.6993 17.9879C20.3847 18.021 20.3641 17.985 20.0404 17.8616C19.9861 17.8918 19.9315 17.9215 19.8766 17.9507C19.9777 18.2557 19.9342 18.1558 20.11 18.4403C20.0767 18.4783 20.0433 18.5159 20.0094 18.5535C19.9186 18.5456 19.8283 18.5364 19.7384 18.5263C19.5597 18.9007 19.6195 18.933 19.3072 19.0964C18.9555 19.0013 18.7117 18.8621 18.4354 18.9241C18.419 19.0753 18.3994 19.2272 18.3765 19.3796C17.9356 19.5838 17.4629 19.5013 16.9651 19.8102C16.8273 19.9 16.1113 20.2587 15.6157 20.4666L15.7569 18.4691C15.7875 18.4771 15.8172 18.4848 15.8456 18.492L18.5052 19.5378L15.7348 20.5071C15.5241 20.6102 15.3785 20.6851 15.4064 20.6993C14.4524 20.1812 13.9769 21.7879 13.1913 20.6978C12.9201 20.8567 12.7353 20.9655 12.4451 21.0729C12.0851 20.8444 12.1818 20.8299 11.852 20.8567C11.6863 21.103 11.6922 21.2498 11.6494 21.582C11.6144 21.5863 11.5794 21.5905 11.5443 21.5947C11.5437 21.4788 11.5429 21.3628 11.5419 21.2469C11.0316 21.0124 10.6459 21.965 9.76915 21.9331C9.75352 21.9005 9.73793 21.8679 9.72238 21.8353C9.78857 21.7344 9.85401 21.6333 9.91869 21.532C9.72061 21.2996 9.62213 21.281 9.38877 21.1276C9.26269 21.3641 9.26191 21.4091 9.18542 21.6874C9.13453 21.7168 9.08343 21.7461 9.03224 21.7753C8.93989 21.5622 8.85809 21.3906 8.7389 21.2044C8.68686 21.2305 8.63467 21.2565 8.58234 21.2824C8.22811 22.8136 7.13436 21.637 6.73323 22.149C6.71773 22.2148 6.70214 22.2806 6.68646 22.3463C6.60143 22.3511 6.51637 22.3555 6.43129 22.3595C6.42299 22.2865 6.41479 22.2134 6.40666 22.1403C6.50296 21.9786 6.59779 21.8164 6.69117 21.6538C6.67075 21.617 6.65041 21.5802 6.63015 21.5434C5.78009 21.7071 4.95565 21.7572 4.06554 21.8593C3.95181 21.6417 3.98665 21.7328 3.95657 21.4557C3.90693 21.4569 3.8573 21.4581 3.8077 21.459C3.65096 21.7215 3.48965 21.9807 3.32006 22.2364C2.66767 22.2196 2.28426 21.7099 1.7267 21.6517C0.73675 21.4718 0.0648354 20.3005 0.277031 19.4149C0.372666 18.8591 0.740777 18.3854 1.11964 18.1418C1.16786 18.0296 1.20021 18.0209 1.30731 18.0348C1.46569 18.226 1.44742 18.2291 1.6205 18.3669C1.62649 18.3441 1.6319 18.3213 1.63547 18.2995C1.55622 18.1941 1.47231 18.0927 1.38381 17.9958C1.39146 17.9888 1.39766 17.983 1.40269 17.9782C1.49598 18.0547 1.59138 18.1288 1.68897 18.2001C1.69071 18.0507 1.5178 17.9943 1.41022 17.9546C1.2926 17.8978 1.24411 17.9892 1.31983 17.6869C1.35828 17.6674 1.39629 17.6456 1.4341 17.6238C1.57549 17.6352 1.7169 17.6509 1.85792 17.6698C1.90118 17.4951 1.91119 17.4958 1.73271 17.3514C1.49013 17.3361 1.43087 17.3362 1.17888 17.3518C1.07252 17.1133 1.13785 17.1049 1.54496 16.8437Z" fill="black"/>
<path d="M13.6318 8.57949C13.9078 8.13134 13.6886 8.05726 14.0177 8.45847C14.289 8.78999 14.1747 7.87686 14.5136 8.83987C14.538 8.62424 14.53 8.70054 14.5351 8.4365C14.5973 8.36318 15.2385 8.66605 15.3652 8.67558C15.3819 8.75066 15.3986 8.82574 15.4154 8.90081C15.4577 8.87808 15.6411 8.74238 15.6618 8.76585C15.8356 8.95948 15.9878 9.01521 16.1652 9.05775C16.1859 9.26164 16.1806 9.18098 16.1829 9.41202C16.2361 9.44943 16.2481 9.3379 16.2812 9.14133C16.4654 9.1934 17.7505 9.54845 17.841 9.99C17.8417 10.0465 17.8424 10.103 17.843 10.1594C17.7798 10.4059 17.6988 10.4124 17.6199 10.4183C17.3959 10.4359 17.1664 10.2607 16.943 10.191C16.455 10.0384 15.9685 9.90346 15.4805 9.72303C15.3013 9.65702 15.1228 9.59905 14.9429 9.57851C14.8568 9.56898 14.7635 9.62106 14.6783 9.56972C14.5637 9.50078 14.4504 9.20587 14.3464 9.50219C14.2585 9.75304 13.5555 9.53087 13.4121 9.51986C13.2517 9.50666 13.0914 9.57042 12.9311 9.57555C12.8134 9.57921 12.6945 9.50369 12.5773 9.52569C12.4577 9.5477 12.3397 9.67971 12.2202 9.71052C11.6594 9.85648 11.0972 9.93716 10.536 10.0897C10.5302 10.0758 10.455 9.88659 10.4539 9.88732C10.3351 9.9196 10.042 10.2657 9.94609 10.0068C9.93915 9.899 9.93221 9.7912 9.92526 9.68339C9.91355 9.68606 9.90184 9.68874 9.89013 9.69141C9.89169 9.91732 9.88982 9.80295 9.89604 10.0325C9.80089 10.1169 9.64931 10.0897 9.49944 10.0853C9.25722 10.0787 8.8715 10.433 8.6383 10.1037C8.61995 10.078 8.62181 9.87782 8.61917 9.77146C8.60865 9.77168 8.59812 9.7719 8.5876 9.77212C8.57019 9.87188 8.54065 10.1059 8.515 10.1015C8.37492 10.0795 8.29735 10.6516 8.17981 10.1954C8.07969 10.2174 7.99962 10.4308 7.92157 10.3545C7.90074 10.1961 7.89452 10.122 7.87882 9.9496C7.86913 9.94275 7.85943 9.93591 7.84974 9.92906C7.82829 10.0068 7.8017 10.1044 7.76952 10.2217C7.56648 10.3369 7.35442 10.4081 7.14935 10.3963C7.08608 10.3927 6.99063 10.6281 6.95875 10.6215C6.75198 10.5833 6.55343 10.7433 6.35086 10.7279C6.3367 10.7271 6.28307 10.6098 6.27686 10.6047C6.21281 10.5518 6.17394 10.3311 6.11906 10.4448C6.11616 10.5582 6.11325 10.6716 6.11035 10.7851C6.09817 10.8144 6.086 10.8437 6.07382 10.8731C6.02811 10.741 6.0365 10.7535 5.99779 10.5628C5.92239 10.7 5.96747 10.818 5.93141 10.8408C5.88524 10.8701 5.64942 10.6985 5.6183 10.763C5.56062 10.8826 5.54879 11.0682 5.45319 11.1452C5.44727 11.1058 5.44136 11.0665 5.43545 11.0271C5.38726 10.7103 5.38943 10.6699 5.32398 10.5973C5.31393 10.6276 5.30388 10.6579 5.29383 10.6882C5.31046 10.8305 5.32507 10.9597 5.3403 11.1049C5.27902 11.341 4.73082 11.0499 4.60607 11.0088C4.58575 10.9032 4.56494 10.8041 4.54229 10.7095C4.52869 10.7105 4.51509 10.7115 4.50149 10.7125C4.42466 10.6465 4.33327 10.4865 4.27637 10.2291C4.28084 10.1022 4.28531 9.97532 4.28979 9.84844C4.52195 10.4066 5.08766 8.95877 5.19447 10.2283C5.19028 10.2557 5.18608 10.2831 5.18189 10.3106C5.15235 10.5064 5.12965 10.5988 5.13198 10.8284C5.14483 10.8438 5.15768 10.8592 5.17053 10.8746C5.24189 10.5702 5.22169 10.1198 5.21858 9.68559C5.38135 9.29909 5.3372 9.93052 5.45628 9.81759C5.6786 9.60782 5.86782 9.08483 6.1018 9.29607C6.22664 9.40902 6.20333 9.40025 6.26816 9.03865C6.39875 9.01298 6.41476 9.20518 6.53027 9.2932C6.56867 9.32254 6.6346 8.97413 6.72881 8.98C6.75306 9.17068 6.74653 9.08855 6.74762 9.32472C6.757 9.33816 6.76638 9.35159 6.77576 9.36503C6.80079 9.1692 6.79163 9.27408 6.79272 9.0269C6.80111 9.03521 6.8095 9.04352 6.81789 9.05183C6.82504 9.12493 6.8322 9.19803 6.83936 9.27114C6.90609 9.30924 7.71967 8.72114 7.74806 8.78046C8.09321 9.5088 8.09259 8.36386 8.45996 9.02909C8.48282 9.07237 8.62398 8.64997 8.72566 8.69249C8.77369 8.83478 8.77184 8.86411 8.80401 9.09366C8.81614 9.10322 8.82828 9.11277 8.84041 9.12232C8.86357 8.89788 8.8575 8.97629 8.8659 8.72764C8.87538 8.7213 8.88487 8.71497 8.89435 8.70863C8.90694 8.75556 8.91953 8.80249 8.93213 8.84943C9.00333 8.70494 8.99618 8.65873 9.06318 8.68953C9.10873 8.8949 9.13564 9.08124 9.1899 9.14725C9.20829 9.05581 9.22669 8.96436 9.24508 8.87292C9.33914 8.89859 9.41751 9.11205 9.53427 9.04017C9.5845 9.00936 9.94034 8.87214 9.92589 8.82153C10.0898 9.39511 10.258 8.29274 10.3729 9.2059C10.435 9.12668 10.4772 9.07021 10.5406 9.02546C10.6078 9.2367 10.5873 9.23673 10.6572 9.25213C10.699 9.08637 10.7017 8.97632 10.7196 8.73356C10.7269 8.73379 10.7342 8.73401 10.7415 8.73423C10.7386 8.82055 10.7357 8.90686 10.7328 8.99318C10.8337 9.21541 10.935 8.54063 11.1132 8.61178C11.116 8.63696 11.1187 8.66215 11.1215 8.68733C11.1064 8.75945 11.0913 8.83156 11.0762 8.90368C11.114 9.08851 11.1344 9.1076 11.1816 9.23302C11.2112 9.06141 11.2118 9.02766 11.2308 8.8223C11.2416 8.80224 11.2525 8.78218 11.2634 8.76212C11.2805 8.92495 11.2961 9.05628 11.3197 9.19931C11.3309 9.18122 11.3421 9.16314 11.3533 9.14505C11.4363 8.00965 11.6556 8.89558 11.7379 8.49954C11.7407 8.44991 11.7435 8.40027 11.7463 8.35063C11.7635 8.34525 11.7807 8.33987 11.7979 8.33449C11.8001 8.38903 11.8024 8.44357 11.8046 8.49811C11.7862 8.62206 11.7678 8.74601 11.7494 8.86996C11.7539 8.89709 11.7583 8.92422 11.7628 8.95134C11.9386 8.80832 12.1074 8.72624 12.2841 8.56708C12.3127 8.71813 12.3032 8.65362 12.3167 8.85678C12.3268 8.85092 12.3368 8.84506 12.3469 8.83921C12.3713 8.62796 12.396 8.41812 12.4212 8.20908C12.5669 8.13573 12.6682 8.56779 12.8019 8.35875C12.8619 8.2656 12.8775 8.26408 12.928 8.33449C12.9277 8.52079 12.9221 8.51352 12.9408 8.67635C12.9493 8.66632 12.9579 8.65629 12.9664 8.64626C12.9736 8.54797 12.9807 8.44968 12.9879 8.3514C12.9973 8.35187 13.0067 8.35235 13.0162 8.35283C13.0207 8.44332 13.0253 8.5338 13.0298 8.62429C13.2077 8.49226 13.1468 8.12918 13.4036 8.2788C13.4098 8.30911 13.416 8.33943 13.4223 8.36974C13.4111 8.47366 13.4 8.57758 13.3888 8.68151C13.4443 8.72845 13.4406 8.73644 13.4913 8.62496C13.5093 8.44894 13.5132 8.40566 13.5249 8.21863C13.5993 8.18196 13.5961 8.23331 13.6318 8.57949Z" fill="black"/>
<path d="M14.8206 11.5131C15.0667 11.0649 14.8712 10.9909 15.1648 11.3921C15.4067 11.7236 15.3048 10.8104 15.6071 11.7735C15.6289 11.5578 15.6217 11.6341 15.6263 11.3701C15.6817 11.2968 16.2536 11.5996 16.3666 11.6092C16.3815 11.6843 16.3964 11.7593 16.4113 11.8344C16.4491 11.8117 16.6127 11.676 16.6311 11.6994C16.7862 11.8931 16.9219 11.9488 17.0801 11.9913C17.0986 12.1952 17.0938 12.1146 17.0959 12.3456C17.1433 12.383 17.154 12.2715 17.1836 12.0749C17.3479 12.127 18.4941 12.482 18.5748 12.9236C18.5754 12.9801 18.576 13.0366 18.5766 13.093C18.5201 13.3395 18.4479 13.346 18.3776 13.3519C18.1778 13.3695 17.9731 13.1942 17.7739 13.1246C17.3386 12.972 16.9047 12.8371 16.4695 12.6566C16.3096 12.5906 16.1504 12.5326 15.99 12.5121C15.9131 12.5026 15.8299 12.5547 15.754 12.5033C15.6518 12.4344 15.5507 12.1395 15.4579 12.4358C15.3796 12.6866 14.7525 12.4645 14.6247 12.4535C14.4816 12.4403 14.3386 12.504 14.1957 12.5091C14.0907 12.5128 13.9846 12.4373 13.8801 12.4593C13.7734 12.4813 13.6682 12.6133 13.5616 12.6441C13.0614 12.7901 12.56 12.8708 12.0594 13.0233C12.0543 13.0094 11.9872 12.8202 11.9862 12.8209C11.8803 12.8532 11.6189 13.1993 11.5333 12.9404C11.5272 12.8326 11.521 12.7248 11.5148 12.617C11.5043 12.6197 11.4939 12.6223 11.4834 12.625C11.4848 12.8509 11.4832 12.7365 11.4887 12.9661C11.4038 13.0504 11.2686 13.0233 11.135 13.0189C10.9189 13.0123 10.5749 13.3666 10.3669 13.0373C10.3506 13.0116 10.3522 12.8114 10.3499 12.705C10.3405 12.7053 10.3311 12.7055 10.3217 12.7057C10.3062 12.8055 10.2798 13.0395 10.257 13.0351C10.132 13.0131 10.0628 13.5852 9.95801 13.129C9.86872 13.151 9.7973 13.3644 9.72769 13.2881C9.70911 13.1297 9.70356 13.0555 9.68956 12.8832C9.68092 12.8763 9.67227 12.8695 9.66363 12.8627C9.64449 12.9404 9.62078 13.038 9.59208 13.1553C9.41098 13.2705 9.22185 13.3417 9.03896 13.3299C8.98252 13.3263 8.89739 13.5616 8.86896 13.5551C8.68454 13.5169 8.50746 13.6769 8.32678 13.6615C8.31416 13.6607 8.26633 13.5434 8.26078 13.5382C8.20366 13.4854 8.16899 13.2647 8.12005 13.3784C8.11746 13.4918 8.11487 13.6052 8.11228 13.7187C8.10142 13.748 8.09056 13.7773 8.0797 13.8067C8.03893 13.6746 8.04641 13.6871 8.01188 13.4964C7.94464 13.6336 7.98485 13.7516 7.95268 13.7744C7.9115 13.8037 7.70118 13.6321 7.67342 13.6966C7.62198 13.8162 7.61143 14.0018 7.52616 14.0788C7.52088 14.0394 7.51561 14.0001 7.51034 13.9607C7.46736 13.6439 7.4693 13.6035 7.41092 13.5309C7.40196 13.5612 7.39299 13.5915 7.38403 13.6218C7.39886 13.7641 7.41189 13.8932 7.42548 14.0385C7.37082 14.2746 6.88188 13.9835 6.77062 13.9424C6.7525 13.8368 6.73394 13.7377 6.71374 13.6431C6.70161 13.6441 6.68948 13.6451 6.67735 13.6461C6.60883 13.5801 6.52731 13.4201 6.47656 13.1627C6.48055 13.0358 6.48454 12.9089 6.48853 12.782C6.6956 13.3402 7.20014 11.8924 7.29541 13.1619C7.29167 13.1893 7.28793 13.2167 7.28419 13.2442C7.25784 13.44 7.2376 13.5324 7.23968 13.762C7.25114 13.7774 7.2626 13.7928 7.27406 13.8082C7.33771 13.5038 7.31969 13.0534 7.31692 12.6192C7.46209 12.2327 7.42271 12.8641 7.52892 12.7512C7.72721 12.5414 7.89597 12.0184 8.10465 12.2297C8.216 12.3426 8.1952 12.3338 8.25302 11.9722C8.36949 11.9466 8.38378 12.1388 8.4868 12.2268C8.52105 12.2561 8.57985 11.9077 8.66388 11.9136C8.68551 12.1043 8.67969 12.0221 8.68066 12.2583C8.68902 12.2718 8.69738 12.2852 8.70575 12.2986C8.72807 12.1028 8.7199 12.2077 8.72087 11.9605C8.72836 11.9688 8.73584 11.9771 8.74332 11.9854C8.74971 12.0585 8.75609 12.1316 8.76247 12.2047C8.82199 12.2428 9.54762 11.6547 9.57294 11.7141C9.88077 12.4424 9.88022 11.2975 10.2079 11.9627C10.2283 12.006 10.3542 11.5836 10.4448 11.6261C10.4877 11.7684 10.486 11.7977 10.5147 12.0273C10.5256 12.0368 10.5364 12.0464 10.5472 12.0559C10.5679 11.8315 10.5624 11.9099 10.5699 11.6612C10.5784 11.6549 10.5868 11.6486 10.5953 11.6422C10.6065 11.6892 10.6178 11.7361 10.629 11.783C10.6925 11.6385 10.6861 11.5923 10.7459 11.6231C10.7865 11.8285 10.8105 12.0148 10.8589 12.0808C10.8753 11.9894 10.8917 11.898 10.9081 11.8065C10.992 11.8322 11.0619 12.0456 11.166 11.9738C11.2108 11.943 11.5282 11.8057 11.5153 11.7551C11.6615 12.3287 11.8115 11.2263 11.914 12.1395C11.9694 12.0603 12.007 12.0038 12.0636 11.9591C12.1235 12.1703 12.1052 12.1703 12.1676 12.1857C12.2049 12.02 12.2072 11.9099 12.2232 11.6672C12.2297 11.6674 12.2362 11.6676 12.2427 11.6678C12.2402 11.7541 12.2376 11.8405 12.235 11.9268C12.325 12.149 12.4154 11.4742 12.5743 11.5454C12.5767 11.5706 12.5792 11.5957 12.5816 11.6209C12.5682 11.693 12.5547 11.7652 12.5413 11.8373C12.575 12.0221 12.5932 12.0412 12.6353 12.1666C12.6616 11.995 12.6622 11.9613 12.6791 11.7559C12.6888 11.7358 12.6985 11.7158 12.7082 11.6957C12.7235 11.8585 12.7374 11.9899 12.7584 12.1329C12.7684 12.1148 12.7784 12.0967 12.7884 12.0786C12.8624 10.9432 13.0581 11.8292 13.1314 11.4331C13.1339 11.3835 13.1364 11.3339 13.1389 11.2842C13.1543 11.2788 13.1696 11.2735 13.185 11.2681C13.1869 11.3226 13.1889 11.3772 13.1909 11.4317C13.1745 11.5557 13.1581 11.6796 13.1417 11.8036C13.1457 11.8307 13.1496 11.8578 13.1536 11.8849C13.3105 11.7419 13.461 11.6598 13.6186 11.5007C13.6441 11.6517 13.6356 11.5872 13.6477 11.7904C13.6566 11.7845 13.6656 11.7787 13.6746 11.7728C13.6964 11.5616 13.7184 11.3517 13.7409 11.1427C13.8708 11.0693 13.9612 11.5014 14.0804 11.2923C14.134 11.1992 14.1478 11.1977 14.1929 11.2681C14.1926 11.4544 14.1876 11.4471 14.2043 11.6099C14.2119 11.5999 14.2195 11.5899 14.2271 11.5799C14.2335 11.4816 14.2399 11.3833 14.2463 11.285C14.2547 11.2855 14.2631 11.2859 14.2715 11.2864C14.2756 11.3769 14.2797 11.4674 14.2837 11.5579C14.4424 11.4259 14.388 11.0628 14.6171 11.2124C14.6226 11.2427 14.6282 11.273 14.6337 11.3033C14.6238 11.4073 14.6138 11.5112 14.6039 11.6151C14.6534 11.662 14.6501 11.67 14.6953 11.5586C14.7113 11.3825 14.7148 11.3393 14.7252 11.1522C14.7916 11.1155 14.7887 11.1669 14.8206 11.5131Z" fill="black"/>
<path d="M12.9866 14.8129C13.2328 14.3647 13.0372 14.2907 13.3308 14.6919C13.5728 15.0234 13.4708 14.1103 13.7731 15.0733C13.7949 14.8576 13.7877 14.9339 13.7923 14.6699C13.8478 14.5966 14.4196 14.8994 14.5326 14.909C14.5475 14.9841 14.5624 15.0591 14.5774 15.1342C14.6151 15.1115 14.7787 14.9758 14.7971 14.9992C14.9522 15.1929 15.0879 15.2486 15.2461 15.2911C15.2646 15.495 15.2599 15.4144 15.2619 15.6454C15.3094 15.6828 15.32 15.5713 15.3496 15.3747C15.5139 15.4268 16.6601 15.7818 16.7408 16.2234C16.7414 16.2799 16.742 16.3364 16.7426 16.3928C16.6861 16.6393 16.6139 16.6458 16.5436 16.6517C16.3438 16.6693 16.1391 16.494 15.9399 16.4244C15.5046 16.2718 15.0707 16.1369 14.6355 15.9564C14.4756 15.8904 14.3164 15.8324 14.156 15.8119C14.0792 15.8024 13.996 15.8545 13.92 15.8031C13.8178 15.7342 13.7167 15.4393 13.6239 15.7356C13.5456 15.9864 12.9186 15.7643 12.7907 15.7533C12.6476 15.7401 12.5046 15.8038 12.3617 15.8089C12.2567 15.8126 12.1506 15.7371 12.0461 15.7591C11.9395 15.7811 11.8342 15.9131 11.7276 15.9439C11.2274 16.0899 10.726 16.1706 10.2255 16.3231C10.2203 16.3092 10.1532 16.12 10.1522 16.1207C10.0463 16.153 9.78492 16.4991 9.69936 16.2402C9.69317 16.1324 9.68698 16.0246 9.68078 15.9168C9.67034 15.9195 9.65989 15.9221 9.64945 15.9248C9.65084 16.1507 9.64917 16.0364 9.65472 16.2659C9.56986 16.3503 9.43466 16.3231 9.30099 16.3187C9.08496 16.3121 8.74094 16.6664 8.53295 16.3371C8.51659 16.3114 8.51824 16.1112 8.51589 16.0049C8.5065 16.0051 8.49712 16.0053 8.48773 16.0055C8.4722 16.1053 8.44586 16.3393 8.42298 16.3349C8.29805 16.3129 8.22886 16.885 8.12403 16.4288C8.03473 16.4508 7.96332 16.6642 7.89371 16.5879C7.87513 16.4295 7.86958 16.3554 7.85557 16.183C7.84693 16.1761 7.83829 16.1693 7.82964 16.1625C7.81051 16.2402 7.78679 16.3378 7.75809 16.4551C7.577 16.5703 7.38787 16.6415 7.20497 16.6297C7.14854 16.6261 7.0634 16.8615 7.03498 16.8549C6.85056 16.8167 6.67348 16.9767 6.4928 16.9613C6.48017 16.9605 6.43234 16.8432 6.4268 16.8381C6.36967 16.7852 6.33501 16.5645 6.28606 16.6782C6.28347 16.7916 6.28088 16.905 6.27829 17.0185C6.26743 17.0478 6.25657 17.0771 6.24571 17.1065C6.20494 16.9744 6.21242 16.9869 6.1779 16.7962C6.11065 16.9334 6.15086 17.0514 6.11869 17.0742C6.07752 17.1035 5.86719 16.9319 5.83943 16.9964C5.78799 17.116 5.77745 17.3016 5.69217 17.3786C5.6869 17.3392 5.68163 17.2999 5.67636 17.2605C5.63337 16.9437 5.63531 16.9033 5.57694 16.8307C5.56797 16.861 5.55901 16.8913 5.55004 16.9216C5.56488 17.0639 5.57791 17.1931 5.59149 17.3383C5.53683 17.5744 5.0479 17.2833 4.93664 17.2422C4.91852 17.1366 4.89995 17.0375 4.87975 16.9429C4.86762 16.9439 4.8555 16.9449 4.84337 16.9459C4.77484 16.8799 4.69333 16.7199 4.64258 16.4625C4.64657 16.3356 4.65056 16.2087 4.65455 16.0818C4.86161 16.64 5.36616 15.1922 5.46143 16.4617C5.45769 16.4891 5.45395 16.5165 5.4502 16.544C5.42386 16.7398 5.40361 16.8322 5.40569 17.0618C5.41715 17.0772 5.42862 17.0926 5.44008 17.108C5.50372 16.8036 5.48571 16.3532 5.48293 15.919C5.6281 15.5325 5.58873 16.1639 5.69494 16.051C5.89322 15.8412 6.06198 15.3182 6.27067 15.5295C6.38201 15.6424 6.36122 15.6336 6.41904 15.272C6.53551 15.2464 6.54979 15.4386 6.65282 15.5266C6.68706 15.5559 6.74586 15.2075 6.82989 15.2134C6.85152 15.4041 6.8457 15.3219 6.84667 15.5581C6.85504 15.5716 6.8634 15.585 6.87176 15.5984C6.89409 15.4026 6.88592 15.5075 6.88689 15.2603C6.89437 15.2686 6.90186 15.2769 6.90934 15.2852C6.91572 15.3583 6.9221 15.4314 6.92849 15.5045C6.98801 15.5426 7.71363 14.9545 7.73896 15.0139C8.04679 15.7422 8.04624 14.5973 8.37389 15.2625C8.39428 15.3058 8.52018 14.8834 8.61086 14.9259C8.65371 15.0682 8.65205 15.0975 8.68075 15.3271C8.69157 15.3366 8.70239 15.3462 8.71321 15.3557C8.73387 15.1313 8.72846 15.2097 8.73594 14.961C8.7444 14.9547 8.75286 14.9484 8.76132 14.942C8.77255 14.989 8.78378 15.0359 8.79501 15.0828C8.85852 14.9383 8.85214 14.8921 8.9119 14.9229C8.95253 15.1283 8.97652 15.3146 9.02491 15.3806C9.04132 15.2892 9.05773 15.1978 9.07414 15.1063C9.15803 15.132 9.22792 15.3455 9.33206 15.2736C9.37686 15.2428 9.69423 15.1055 9.68134 15.0549C9.82749 15.6285 9.97752 14.5261 10.08 15.4393C10.1355 15.3601 10.173 15.3036 10.2296 15.2589C10.2895 15.4701 10.2712 15.4701 10.3336 15.4855C10.3709 15.3198 10.3733 15.2097 10.3892 14.967C10.3957 14.9672 10.4022 14.9674 10.4088 14.9676C10.4062 15.0539 10.4036 15.1403 10.401 15.2266C10.491 15.4488 10.5814 14.774 10.7403 14.8452C10.7428 14.8704 10.7452 14.8955 10.7477 14.9207C10.7342 14.9928 10.7208 15.065 10.7073 15.1371C10.741 15.3219 10.7592 15.341 10.8013 15.4664C10.8277 15.2948 10.8282 15.2611 10.8451 15.0557C10.8548 15.0356 10.8645 15.0156 10.8743 14.9955C10.8895 15.1584 10.9034 15.2897 10.9245 15.4327C10.9344 15.4146 10.9444 15.3965 10.9544 15.3785C11.0284 14.243 11.2241 15.129 11.2974 14.7329C11.2999 14.6833 11.3024 14.6337 11.3049 14.584C11.3203 14.5787 11.3356 14.5733 11.351 14.5679C11.353 14.6224 11.3549 14.677 11.3569 14.7315C11.3405 14.8555 11.3241 14.9794 11.3077 15.1034C11.3117 15.1305 11.3157 15.1576 11.3196 15.1847C11.4765 15.0417 11.6271 14.9596 11.7846 14.8005C11.8101 14.9515 11.8016 14.887 11.8137 15.0902C11.8227 15.0843 11.8316 15.0785 11.8406 15.0726C11.8624 14.8614 11.8844 14.6515 11.9069 14.4425C12.0368 14.3691 12.1272 14.8012 12.2465 14.5922C12.3 14.499 12.3138 14.4975 12.3589 14.5679C12.3586 14.7542 12.3536 14.7469 12.3703 14.9097C12.3779 14.8997 12.3855 14.8897 12.3932 14.8797C12.3995 14.7814 12.4059 14.6831 12.4123 14.5848C12.4207 14.5853 12.4291 14.5858 12.4375 14.5862C12.4416 14.6767 12.4457 14.7672 12.4497 14.8577C12.6084 14.7257 12.554 14.3626 12.7831 14.5122C12.7886 14.5425 12.7942 14.5728 12.7997 14.6031C12.7898 14.7071 12.7798 14.811 12.7699 14.9149C12.8194 14.9618 12.8161 14.9698 12.8613 14.8584C12.8774 14.6823 12.8808 14.6391 12.8912 14.452C12.9577 14.4154 12.9547 14.4667 12.9866 14.8129Z" fill="black"/>
</svg>
