<svg width="24" height="24" viewBox="0 0 24 24" fill="none" xmlns="http://www.w3.org/2000/svg">
<path d="M12.954 7.59151C12.9459 7.00808 12.6685 7.1877 13.2764 7.10939C13.778 7.04539 13.0562 6.56186 14.0451 6.84413C13.9282 6.67637 13.9701 6.73514 13.8012 6.55554C13.8177 6.44229 14.6859 5.97385 14.8243 5.84807C14.8913 5.88017 14.9583 5.91227 15.0253 5.94437C15.0543 5.88528 15.156 5.60448 15.1931 5.59842C15.5021 5.54502 15.6975 5.42314 15.9105 5.2663C16.0666 5.37931 16.0079 5.33159 16.1628 5.48164C16.2429 5.4509 16.1818 5.36481 16.0865 5.20056C16.313 5.04288 17.8869 3.93757 18.2726 4.13466C18.3106 4.17124 18.3486 4.20781 18.3866 4.24439C18.4832 4.47298 18.4031 4.56174 18.3248 4.64778C18.1029 4.89293 17.7481 5.01647 17.4692 5.20337C16.8598 5.61141 16.2636 6.02946 15.6358 6.41909C15.4054 6.56239 15.1811 6.71018 14.98 6.88414C14.8839 6.96763 14.8211 7.09924 14.6984 7.15416C14.5334 7.2281 14.2207 7.15163 14.3078 7.45561C14.3818 7.71273 13.5023 8.29895 13.3456 8.44112C13.1697 8.59966 13.0446 8.80883 12.8809 8.9793C12.7607 9.1044 12.5869 9.17854 12.4792 9.31525C12.3691 9.4544 12.3332 9.66453 12.2289 9.80949C11.7407 10.4904 11.2079 11.1297 10.7235 11.8154C10.7083 11.8122 10.505 11.7658 10.5044 11.7674C10.4018 11.9125 10.3248 12.4464 10.0539 12.3756C9.97553 12.3116 9.89715 12.2477 9.81876 12.1838C9.80832 12.1978 9.79787 12.2118 9.78743 12.2257C9.93814 12.3732 9.86072 12.2997 10.0187 12.4447C9.97518 12.5995 9.79927 12.7397 9.64014 12.893C9.38328 13.1411 9.215 13.777 8.75457 13.8028C8.71851 13.8049 8.58833 13.6709 8.51538 13.6034C8.50456 13.6146 8.49374 13.6257 8.48292 13.6368C8.5306 13.7208 8.65424 13.906 8.62459 13.9298C8.46406 14.0613 8.76075 14.5198 8.33715 14.3412C8.24731 14.4601 8.30468 14.6844 8.17298 14.7154C8.04672 14.6326 7.99131 14.5902 7.86119 14.4928C7.84657 14.4984 7.83195 14.5039 7.81733 14.5095C7.84628 14.5832 7.88295 14.6753 7.92685 14.7863C7.7912 15.074 7.61713 15.342 7.39562 15.548C7.32724 15.6115 7.38309 15.8664 7.34551 15.8953C7.1048 16.0856 7.00339 16.3982 6.78206 16.5992C6.76679 16.6134 6.63347 16.5919 6.6236 16.595C6.52198 16.6269 6.33578 16.5217 6.35359 16.654C6.42543 16.7319 6.49727 16.8098 6.56911 16.8876C6.57577 16.9197 6.58243 16.9517 6.58909 16.9838C6.45431 16.9443 6.47129 16.9438 6.30508 16.8583C6.317 17.0274 6.44191 17.0583 6.41933 17.1109C6.39056 17.1784 6.0315 17.311 6.04162 17.386C6.0604 17.525 6.17056 17.6598 6.12172 17.8103C6.08959 17.7905 6.05746 17.7707 6.02532 17.7509C5.76597 17.592 5.7416 17.5631 5.62545 17.5834C5.63498 17.6139 5.6445 17.6444 5.65403 17.6749C5.76528 17.7514 5.86572 17.8214 5.97745 17.9014C6.06941 18.1211 5.3058 18.5004 5.14866 18.6034C5.05778 18.5548 4.97072 18.5112 4.88467 18.4724C4.87115 18.4872 4.85762 18.502 4.8441 18.5168C4.72044 18.5534 4.51961 18.5431 4.29039 18.4325C4.21131 18.3441 4.13224 18.2557 4.05317 18.1673C4.66353 18.2936 4.29772 16.7484 5.24693 17.4749C5.26065 17.4974 5.27437 17.5199 5.28809 17.5423C5.38654 17.7023 5.42386 17.787 5.5778 17.9361C5.60136 17.9328 5.62493 17.9296 5.64849 17.9264C5.52199 17.6511 5.20369 17.3749 4.91388 17.0916C4.82847 16.6669 5.19918 17.1296 5.24878 16.9309C5.34209 16.5607 5.19417 16.0183 5.57749 15.9139C5.78218 15.8583 5.75208 15.8768 5.58102 15.5706C5.70021 15.4175 5.84375 15.5276 6.02224 15.4653C6.08164 15.4447 5.92042 15.146 6.02251 15.0517C6.17363 15.1522 6.11262 15.1048 6.26962 15.2595C6.28826 15.2586 6.30691 15.2577 6.32555 15.2568C6.2224 15.1015 6.28207 15.1803 6.12007 15.016C6.1343 15.0127 6.14853 15.0095 6.16277 15.0062C6.21847 15.047 6.27418 15.0878 6.32988 15.1286C6.42459 15.0841 6.88456 13.8479 6.95331 13.8575C7.79376 13.9784 7.0375 13.2234 7.85949 13.2795C7.91187 13.2842 7.78026 12.8583 7.91431 12.7804C8.05829 12.8242 8.07571 12.8455 8.26075 12.9634C8.2797 12.9571 8.29865 12.9508 8.3176 12.9444C8.19362 12.7721 8.23904 12.8302 8.0837 12.6574C8.0894 12.6433 8.09511 12.6292 8.10081 12.6152C8.14491 12.633 8.18901 12.6509 8.23311 12.6687C8.21197 12.4991 8.17403 12.4761 8.26419 12.4266C8.44722 12.5146 8.59824 12.6095 8.69836 12.5966C8.65719 12.517 8.61602 12.4375 8.57485 12.358C8.68984 12.2769 8.9124 12.3361 8.98668 12.1669C9.0187 12.0942 9.29909 11.6327 9.25061 11.6144C9.79997 11.8221 9.24779 10.9192 9.97022 11.4021C9.98276 11.285 9.98941 11.2038 10.026 11.1082C10.2354 11.1776 10.2141 11.199 10.2971 11.1362C10.2313 10.9832 10.1615 10.9078 10.0199 10.729C10.0277 10.7215 10.0354 10.714 10.0432 10.7066C10.0971 10.7666 10.1511 10.8266 10.205 10.8865C10.4569 10.928 10.1172 10.377 10.3499 10.2383C10.3694 10.252 10.3888 10.2658 10.4083 10.2795C10.4402 10.3428 10.4721 10.4062 10.5039 10.4695C10.6653 10.5521 10.6991 10.5434 10.8312 10.5769C10.7487 10.4329 10.7271 10.41 10.6113 10.2547C10.6094 10.2301 10.6075 10.2055 10.6056 10.1809C10.7309 10.2706 10.8338 10.341 10.9528 10.4108C10.9526 10.3872 10.9523 10.3636 10.952 10.34C10.2893 9.5041 11.1026 9.86013 10.927 9.51302C10.8971 9.47735 10.8673 9.44167 10.8374 9.40599C10.8518 9.3845 10.8662 9.36302 10.8806 9.34153C10.9189 9.3752 10.9572 9.40888 10.9955 9.44255C11.0582 9.54353 11.1208 9.64451 11.1834 9.74549C11.206 9.75874 11.2285 9.772 11.2511 9.78525C11.34 9.50757 11.4618 9.27739 11.5409 8.98824C11.6704 9.05812 11.6179 9.02543 11.7661 9.14541C11.7727 9.13106 11.7793 9.11671 11.786 9.10236C11.672 8.93751 11.5593 8.77326 11.4475 8.60905C11.551 8.40878 11.9418 8.58826 11.9432 8.31093C11.9443 8.18689 11.9595 8.16968 12.0587 8.16348C12.1813 8.28675 12.1706 8.2878 12.2975 8.37581C12.2998 8.36028 12.3021 8.34474 12.3044 8.32921C12.247 8.25689 12.1896 8.18456 12.1322 8.11224C12.1424 8.10273 12.1525 8.09321 12.1626 8.08369C12.2271 8.13865 12.2916 8.19362 12.3561 8.24858C12.4543 7.97605 12.1512 7.79995 12.5177 7.63097C12.5441 7.64449 12.5706 7.65801 12.5971 7.67153C12.6541 7.75174 12.7111 7.83194 12.768 7.91214C12.8569 7.88526 12.8582 7.89443 12.8375 7.76802C12.7401 7.63306 12.7156 7.60044 12.6043 7.46485C12.6578 7.36302 12.6883 7.40031 12.954 7.59151Z" fill="black"/>
<path d="M11.046 7.59151C11.0541 7.00808 11.3315 7.1877 10.7236 7.10939C10.222 7.04539 10.9438 6.56186 9.95493 6.84413C10.0718 6.67637 10.0299 6.73514 10.1988 6.55554C10.1823 6.44229 9.31409 5.97385 9.17572 5.84807C9.10872 5.88017 9.04173 5.91227 8.97473 5.94437C8.94566 5.88528 8.84397 5.60448 8.80692 5.59842C8.49795 5.54502 8.30251 5.42314 8.08952 5.2663C7.93341 5.37931 7.99215 5.33159 7.83724 5.48164C7.75712 5.4509 7.81825 5.36481 7.91346 5.20056C7.68704 5.04288 6.1131 3.93757 5.72737 4.13466C5.68939 4.17124 5.65141 4.20781 5.61343 4.24439C5.51675 4.47298 5.59686 4.56174 5.67516 4.64778C5.89707 4.89293 6.25194 5.01647 6.53082 5.20337C7.14022 5.61141 7.73639 6.02946 8.36419 6.41909C8.59461 6.56239 8.81892 6.71018 9.01998 6.88414C9.11606 6.96763 9.17892 7.09924 9.30161 7.15416C9.46655 7.2281 9.77934 7.15163 9.6922 7.45561C9.61821 7.71273 10.4977 8.29895 10.6544 8.44112C10.8303 8.59966 10.9554 8.80883 11.1191 8.9793C11.2393 9.1044 11.4131 9.17854 11.5208 9.31525C11.6309 9.4544 11.6668 9.66453 11.7711 9.80949C12.2593 10.4904 12.7921 11.1297 13.2765 11.8154C13.2917 11.8122 13.495 11.7658 13.4956 11.7674C13.5982 11.9125 13.6752 12.4464 13.9461 12.3756C14.0245 12.3116 14.1029 12.2477 14.1812 12.1838C14.1917 12.1978 14.2021 12.2118 14.2126 12.2257C14.0619 12.3732 14.1393 12.2997 13.9813 12.4447C14.0248 12.5995 14.2007 12.7397 14.3599 12.893C14.6167 13.1411 14.785 13.777 15.2454 13.8028C15.2815 13.8049 15.4117 13.6709 15.4846 13.6034C15.4954 13.6146 15.5063 13.6257 15.5171 13.6368C15.4694 13.7208 15.3458 13.906 15.3754 13.9298C15.5359 14.0613 15.2393 14.5198 15.6628 14.3412C15.7527 14.4601 15.6953 14.6844 15.827 14.7154C15.9533 14.6326 16.0087 14.5902 16.1388 14.4928C16.1534 14.4984 16.168 14.5039 16.1827 14.5095C16.1537 14.5832 16.117 14.6753 16.0731 14.7863C16.2088 15.074 16.3829 15.342 16.6044 15.548C16.6728 15.6115 16.6169 15.8664 16.6545 15.8953C16.8952 16.0856 16.9966 16.3982 17.2179 16.5992C17.2332 16.6134 17.3665 16.5919 17.3764 16.595C17.478 16.6269 17.6642 16.5217 17.6464 16.654C17.5746 16.7319 17.5027 16.8098 17.4309 16.8876C17.4242 16.9197 17.4176 16.9517 17.4109 16.9838C17.5457 16.9443 17.5287 16.9438 17.6949 16.8583C17.683 17.0274 17.5581 17.0583 17.5807 17.1109C17.6094 17.1784 17.9685 17.311 17.9584 17.386C17.9396 17.525 17.8294 17.6598 17.8783 17.8103C17.9104 17.7905 17.9425 17.7707 17.9747 17.7509C18.234 17.592 18.2584 17.5631 18.3745 17.5834C18.365 17.6139 18.3555 17.6444 18.346 17.6749C18.2347 17.7514 18.1343 17.8214 18.0225 17.9014C17.9306 18.1211 18.6942 18.5004 18.8513 18.6034C18.9422 18.5548 19.0293 18.5112 19.1153 18.4724C19.1289 18.4872 19.1424 18.502 19.1559 18.5168C19.2796 18.5534 19.4804 18.5431 19.7096 18.4325C19.7887 18.3441 19.8678 18.2557 19.9468 18.1673C19.3365 18.2936 19.7023 16.7484 18.7531 17.4749C18.7393 17.4974 18.7256 17.5199 18.7119 17.5423C18.6135 17.7023 18.5761 17.787 18.4222 17.9361C18.3986 17.9328 18.3751 17.9296 18.3515 17.9264C18.478 17.6511 18.7963 17.3749 19.0861 17.0916C19.1715 16.6669 18.8008 17.1296 18.7512 16.9309C18.6579 16.5607 18.8058 16.0183 18.4225 15.9139C18.2178 15.8583 18.2479 15.8768 18.419 15.5706C18.2998 15.4175 18.1563 15.5276 17.9778 15.4653C17.9184 15.4447 18.0796 15.146 17.9775 15.0517C17.8264 15.1522 17.8874 15.1048 17.7304 15.2595C17.7117 15.2586 17.6931 15.2577 17.6745 15.2568C17.7776 15.1015 17.7179 15.1803 17.8799 15.016C17.8657 15.0127 17.8515 15.0095 17.8372 15.0062C17.7815 15.047 17.7258 15.0878 17.6701 15.1286C17.5754 15.0841 17.1154 13.8479 17.0467 13.8575C16.2062 13.9784 16.9625 13.2234 16.1405 13.2795C16.0881 13.2842 16.2197 12.8583 16.0857 12.7804C15.9417 12.8242 15.9243 12.8455 15.7393 12.9634C15.7203 12.9571 15.7014 12.9508 15.6824 12.9444C15.8064 12.7721 15.761 12.8302 15.9163 12.6574C15.9106 12.6433 15.9049 12.6292 15.8992 12.6152C15.8551 12.633 15.811 12.6509 15.7669 12.6687C15.788 12.4991 15.826 12.4761 15.7358 12.4266C15.5528 12.5146 15.4018 12.6095 15.3016 12.5966C15.3428 12.517 15.384 12.4375 15.4252 12.358C15.3102 12.2769 15.0876 12.3361 15.0133 12.1669C14.9813 12.0942 14.7009 11.6327 14.7494 11.6144C14.2 11.8221 14.7522 10.9192 14.0298 11.4021C14.0172 11.285 14.0106 11.2038 13.974 11.1082C13.7646 11.1776 13.7859 11.199 13.7029 11.1362C13.7687 10.9832 13.8385 10.9078 13.9801 10.729C13.9723 10.7215 13.9646 10.714 13.9568 10.7066C13.9029 10.7666 13.8489 10.8266 13.795 10.8865C13.5431 10.928 13.8828 10.377 13.6501 10.2383C13.6306 10.252 13.6112 10.2658 13.5917 10.2795C13.5598 10.3428 13.5279 10.4062 13.4961 10.4695C13.3347 10.5521 13.3009 10.5434 13.1688 10.5769C13.2513 10.4329 13.2729 10.41 13.3887 10.2547C13.3906 10.2301 13.3925 10.2055 13.3944 10.1809C13.2691 10.2706 13.1662 10.341 13.0472 10.4108C13.0474 10.3872 13.0477 10.3636 13.048 10.34C13.7107 9.5041 12.8974 9.86013 13.073 9.51302C13.1029 9.47735 13.1327 9.44167 13.1626 9.40599C13.1482 9.3845 13.1338 9.36302 13.1194 9.34153C13.0811 9.3752 13.0428 9.40888 13.0045 9.44255C12.9418 9.54353 12.8792 9.64451 12.8166 9.74549C12.794 9.75874 12.7715 9.772 12.7489 9.78525C12.66 9.50757 12.5382 9.27739 12.4591 8.98824C12.3296 9.05812 12.3821 9.02543 12.2339 9.14541C12.2273 9.13106 12.2207 9.11671 12.214 9.10236C12.328 8.93751 12.4407 8.77326 12.5525 8.60905C12.449 8.40878 12.0582 8.58826 12.0568 8.31093C12.0557 8.18689 12.0405 8.16968 11.9413 8.16348C11.8187 8.28675 11.8294 8.2878 11.7025 8.37581C11.7002 8.36028 11.6979 8.34474 11.6956 8.32921C11.753 8.25689 11.8104 8.18456 11.8678 8.11224C11.8576 8.10273 11.8475 8.09321 11.8374 8.08369C11.7729 8.13865 11.7084 8.19362 11.6439 8.24858C11.5457 7.97605 11.8488 7.79995 11.4823 7.63097C11.4559 7.64449 11.4294 7.65801 11.4029 7.67153C11.3459 7.75174 11.2889 7.83194 11.232 7.91214C11.1431 7.88526 11.1418 7.89443 11.1625 7.76802C11.2599 7.63306 11.2844 7.60044 11.3957 7.46485C11.3422 7.36302 11.3117 7.40031 11.046 7.59151Z" fill="black"/>
</svg>
