<svg width="24" height="24" viewBox="0 0 24 24" fill="none" xmlns="http://www.w3.org/2000/svg">
<path d="M6.49879 7.00854C6.74832 6.75522 6.60494 6.67644 6.77802 6.98209C6.92805 7.23331 6.94319 6.61933 7.07996 7.29013C7.11803 7.15043 7.10492 7.19991 7.134 7.02627C7.18144 6.9864 7.60072 7.24006 7.69293 7.25179C7.7003 7.30268 7.70787 7.35357 7.71562 7.40445C7.74723 7.39213 7.88571 7.31179 7.89857 7.32816C8.01402 7.46536 8.12236 7.50829 8.25153 7.54159C8.26175 7.67799 8.25989 7.62411 8.25598 7.7781C8.29416 7.80442 8.30568 7.73038 8.33387 7.60015C8.46347 7.64738 9.41819 7.87118 9.50699 8.15548C9.50915 8.19308 9.51132 8.23068 9.51349 8.26827C9.47139 8.43457 9.4081 8.44148 9.34764 8.44747C9.1755 8.46519 8.995 8.35204 8.82232 8.30625C8.44666 8.20604 8.07723 8.10406 7.71861 7.95469C7.58766 7.90006 7.45799 7.84855 7.3261 7.81936C7.26242 7.80553 7.18986 7.83136 7.13058 7.78875C7.05057 7.73148 6.99971 7.5251 6.89217 7.70792C6.80038 7.86605 6.30661 7.62024 6.20752 7.58592C6.09302 7.55045 5.96692 7.56286 5.8499 7.53531C5.76402 7.51502 5.69195 7.4427 5.60396 7.43248C5.51443 7.42181 5.40406 7.48047 5.31187 7.47322C4.87847 7.43994 4.45796 7.34465 4.02396 7.2869C4.02317 7.27666 4.01494 7.13832 4.01401 7.13847C3.92369 7.12685 3.63178 7.26018 3.62769 7.07277C3.64926 7.004 3.67083 6.93524 3.69242 6.86649C3.68351 6.86487 3.67458 6.86325 3.66564 6.86162C3.61118 7.00203 3.63798 6.93064 3.58593 7.07463C3.49875 7.10054 3.39819 7.04097 3.29468 6.99624C3.12569 6.92372 2.76925 7.03427 2.68732 6.76437C2.68383 6.75315 2.69671 6.71304 2.71325 6.66795L2.93753 6.57325C2.89789 6.55854 2.85439 6.54099 2.8233 6.52931C2.8204 6.53682 2.81751 6.5443 2.81463 6.55177C2.87121 6.58916 3.00742 6.66835 2.99758 6.68486C2.94507 6.77584 3.27899 6.96856 2.96429 6.93873C2.95126 7.0129 3.06349 7.11832 2.99631 7.15308C2.89207 7.13042 2.84424 7.11729 2.73236 7.08857C2.72555 7.09385 2.71875 7.09913 2.71196 7.10439C2.75509 7.13734 2.80942 7.1782 2.87512 7.22665C2.89708 7.39216 2.89435 7.54938 2.84645 7.68393C2.83157 7.72527 2.96494 7.83145 2.95565 7.84948C2.89513 7.97706 2.97206 8.12453 2.94414 8.24056C2.94234 8.24868 2.86045 8.2692 2.85655 8.27296C2.81659 8.30652 2.66756 8.31516 2.73965 8.35739C2.81478 8.36624 2.88993 8.37492 2.9651 8.38342C2.98394 8.39201 3.00284 8.40038 3.02179 8.40852C2.93211 8.42643 2.94076 8.42237 2.81244 8.43689C2.9013 8.48595 2.98137 8.46321 2.99559 8.48358C3.0129 8.5077 2.89957 8.63426 2.9446 8.64999C3.02598 8.67587 3.14955 8.673 3.20487 8.7102C3.17906 8.71559 3.15327 8.72113 3.1275 8.72681C2.92036 8.77406 2.89356 8.77807 2.85077 8.82087C2.87159 8.82355 2.89241 8.82603 2.91323 8.82834C3.00554 8.80468 3.08962 8.78474 3.18448 8.7642C3.33791 8.76312 3.20695 9.04818 3.21395 9.13498C3.15151 9.1694 3.09372 9.20359 3.03957 9.23876C3.04315 9.2464 3.04661 9.25364 3.05021 9.26113C3.02589 9.32052 2.94947 9.4142 2.80844 9.51986C2.7297 9.55092 2.65088 9.5818 2.57199 9.61249C2.70876 9.46089 2.52073 9.39189 2.39479 9.28588C2.26895 9.1835 2.21105 9.04966 2.6212 8.93887C2.63966 8.93815 2.65811 8.93735 2.67656 8.93649C2.80826 8.92999 2.87115 8.9295 3.0207 8.89702C3.02937 8.88827 3.03811 8.87966 3.04692 8.87118C2.8407 8.8732 2.54657 8.9327 2.26234 8.98798C1.9872 8.90521 2.40906 8.87529 2.32448 8.80101C2.16904 8.66276 1.8183 8.48725 1.97589 8.3002C2.0608 8.20439 2.05304 8.22811 1.82077 8.14194C1.81921 8.0284 1.94851 8.03472 2.02313 7.9537C2.04796 7.92807 1.83092 7.82764 1.85252 7.75099C1.98091 7.75998 1.92633 7.75307 2.07987 7.78789C2.09029 7.78265 2.10072 7.77744 2.11117 7.77226C1.98887 7.72237 2.05519 7.74567 1.89519 7.70624C1.90221 7.70077 1.90929 7.69508 1.91627 7.68989C1.96499 7.69588 2.01367 7.70202 2.06233 7.7083C2.08975 7.66666 1.91421 6.92625 1.96541 6.91696C2.51356 6.83119 1.80117 6.55858 2.31901 6.45604C2.34174 6.4524 2.24547 6.35527 2.20126 6.27256L2.29588 5.79236L3.0112 5.93057C3.04852 5.90968 3.08219 5.89959 3.1014 5.91701C3.09956 6.01858 3.0909 6.03618 3.05602 6.18714C3.0621 6.19646 3.06816 6.20578 3.07421 6.2151C3.14639 6.08288 3.12257 6.12964 3.19052 5.97831C3.19869 5.97706 3.20684 5.9758 3.21499 5.97453C3.21198 6.00706 3.20896 6.03959 3.20592 6.07211C3.2918 6.00291 3.29865 5.97246 3.33782 6.01043C3.3184 6.15024 3.29066 6.27301 3.31182 6.329C3.34737 6.27761 3.38289 6.22619 3.41836 6.17477C3.47769 6.21713 3.47989 6.37143 3.5783 6.35928C3.62144 6.35458 3.90159 6.36776 3.90462 6.33254C3.87876 6.73365 4.26292 6.09485 4.12163 6.693C4.18372 6.66044 4.22662 6.63665 4.28161 6.62582C4.27793 6.77524 4.26377 6.76984 4.30874 6.79798C4.37708 6.70575 4.40487 6.63782 4.47451 6.49114C4.47947 6.49318 4.48434 6.49518 4.48939 6.49725C4.467 6.55031 4.44462 6.60337 4.42226 6.65643C4.44105 6.82191 4.66802 6.42678 4.77371 6.51603C4.76983 6.53248 4.76595 6.54894 4.76208 6.5654C4.73519 6.60676 4.70822 6.64808 4.68118 6.68937C4.66497 6.81468 4.67482 6.83184 4.67918 6.92239C4.73879 6.82232 4.74685 6.80131 4.80646 6.67727C4.81848 6.6674 4.83047 6.65751 4.84244 6.64761C4.81735 6.75395 4.79852 6.84021 4.783 6.93593C4.79491 6.92739 4.80681 6.91884 4.81868 6.91027C5.1295 6.21767 5.08243 6.82662 5.22497 6.59594C5.23748 6.56524 5.24998 6.53453 5.26246 6.50382C5.27521 6.50434 5.28794 6.50485 5.30064 6.50532C5.29057 6.5403 5.28051 6.57528 5.27046 6.61026C5.23176 6.68443 5.19284 6.75852 5.15371 6.83253C5.15099 6.8507 5.14828 6.86887 5.14558 6.88704C5.29769 6.8377 5.43076 6.82329 5.58238 6.759C5.57223 6.86124 5.5784 6.81814 5.548 6.95049C5.55608 6.94887 5.56414 6.94725 5.5722 6.94562C5.63004 6.81602 5.68734 6.68719 5.74416 6.55873C5.85439 6.54065 5.84359 6.83719 5.97144 6.72787C6.02816 6.67902 6.03848 6.68073 6.06031 6.73514C6.0282 6.85511 6.02554 6.84939 6.01046 6.9577C6.01803 6.95279 6.0256 6.94788 6.03315 6.94295C6.05473 6.88087 6.07621 6.81877 6.09761 6.75663C6.10386 6.7586 6.11012 6.76056 6.11638 6.76252C6.10427 6.8217 6.09222 6.88089 6.08023 6.9401C6.224 6.8858 6.23934 6.64084 6.38797 6.77845C6.38757 6.79909 6.38719 6.81975 6.38684 6.8404C6.3638 6.90619 6.34064 6.97195 6.31725 7.03764C6.34829 7.07695 6.3448 7.08161 6.39592 7.01697C6.43398 6.90525 6.44287 6.87767 6.47778 6.7577C6.5328 6.74484 6.52285 6.77763 6.49879 7.00854ZM8.3325 10.9356C8.50951 10.6385 8.36741 10.5885 8.57657 10.8561C8.75093 11.076 8.66945 10.4683 8.89825 11.1069C8.91145 10.9629 8.90713 11.0138 8.90725 10.8378C8.94526 10.7889 9.36669 10.9798 9.45082 10.9827C9.46345 11.0324 9.47612 11.082 9.48881 11.1316C9.5157 11.1156 9.63339 11.0207 9.64717 11.0358C9.7662 11.1604 9.86862 11.1934 9.98602 11.2165C10.0055 11.3517 9.99968 11.2982 10.0081 11.452C10.0447 11.4753 10.0495 11.4006 10.0654 11.2687C10.1871 11.2994 11.0506 11.4894 11.1298 11.7777C11.1324 11.8153 11.1349 11.8529 11.1374 11.8905C11.1067 12.057 11.0546 12.0646 10.9984 12.0719C10.8524 12.0924 10.6902 11.9845 10.5392 11.946C10.2076 11.8616 9.88029 11.7865 9.55103 11.6779C9.43069 11.6382 9.31079 11.6033 9.19131 11.5928C9.13381 11.588 9.07339 11.6242 9.01579 11.5912C8.93835 11.5469 8.86128 11.3516 8.79519 11.5501C8.73897 11.7194 8.27192 11.5717 8.17957 11.5595C8.07341 11.5477 7.9691 11.5858 7.86323 11.5804C7.78858 11.5765 7.71518 11.5178 7.65065 11.5173C7.62312 11.5191 7.58369 11.5236 7.57659 11.5486C7.50712 11.5121 7.46116 11.5335 7.42 11.521C7.04616 11.4422 6.67893 11.3629 6.2985 11.3226C6.29843 11.3126 6.29709 11.1769 6.29613 11.1771C6.21384 11.1683 5.95051 11.3149 5.95333 11.1315C5.97448 11.0627 5.99562 10.9939 6.01673 10.925C6.00887 10.9239 6.00099 10.9229 5.9931 10.9218C5.94088 11.0631 5.96666 10.9913 5.91645 11.1359C5.83788 11.1664 5.74942 11.1138 5.65812 11.0766C5.50803 11.0158 5.18821 11.1494 5.11836 10.89C5.1128 10.8698 5.15988 10.7449 5.18263 10.6777C5.176 10.6754 5.16936 10.6732 5.16273 10.6709C5.12901 10.7294 5.05702 10.8691 5.04208 10.8605C4.95984 10.8148 4.78109 11.1556 4.81191 10.8432C4.74439 10.8343 4.646 10.9499 4.61485 10.8845C4.63789 10.7805 4.65086 10.7327 4.68023 10.6211C4.67576 10.6146 4.67128 10.6081 4.66681 10.6017C4.63578 10.6456 4.59691 10.7007 4.55018 10.767C4.3975 10.7934 4.24852 10.7902 4.12421 10.7373C4.08608 10.721 3.97234 10.8469 3.95418 10.8357C3.835 10.7661 3.67396 10.8218 3.55136 10.7673C3.54254 10.7636 3.53503 10.678 3.53231 10.6734C3.50405 10.626 3.52929 10.4788 3.47039 10.5383C3.44332 10.6089 3.41626 10.6796 3.3892 10.7502C3.37537 10.766 3.36102 10.7817 3.34668 10.7973C3.3469 10.704 3.34948 10.7138 3.36744 10.5853C3.28947 10.6546 3.29154 10.7389 3.26393 10.7452C3.22956 10.7537 3.11914 10.5934 3.08566 10.6272C3.02276 10.6895 2.97746 10.8047 2.89845 10.8313C2.90338 10.8052 2.90831 10.7791 2.91326 10.7531C2.95284 10.543 2.96295 10.5181 2.93856 10.4582C2.92566 10.475 2.91281 10.4919 2.89999 10.5089C2.87861 10.6019 2.85899 10.6863 2.83624 10.7809C2.74901 10.917 2.46731 10.6124 2.40082 10.5603C2.40993 10.4889 2.41785 10.4217 2.42444 10.3572C2.4157 10.3548 2.40727 10.3526 2.39915 10.3505C2.36646 10.2924 2.33874 10.1699 2.36666 9.9979C2.39435 9.91798 2.42378 9.83866 2.45489 9.75992C2.47871 10.162 3.15357 9.37576 2.93975 10.1978C2.93096 10.2141 2.92219 10.2304 2.91342 10.2467C2.85106 10.3631 2.81644 10.4163 2.76716 10.5612C2.77184 10.5737 2.77659 10.5863 2.78142 10.5988C2.89476 10.4236 2.98164 10.1359 3.07552 9.86201C3.26144 9.65428 3.09356 10.0415 3.19469 9.99727C3.37937 9.9141 3.61364 9.62711 3.7159 9.81281C3.76739 9.91098 3.75522 9.90046 3.87645 9.6877C3.96452 9.70085 3.93268 9.82553 3.98418 9.90616C4.00151 9.9331 4.12065 9.72898 4.17935 9.7541C4.15205 9.87934 4.16631 9.82628 4.11404 9.97481C4.11706 9.98539 4.11988 9.99591 4.12263 10.0064C4.18202 9.88899 4.15284 9.95281 4.20896 9.79788C4.21229 9.80495 4.21563 9.81202 4.21897 9.8191C4.207 9.86658 4.19504 9.91406 4.18307 9.96154C4.21572 9.99996 4.85891 9.81458 4.86346 9.85852C4.91445 10.3934 5.17483 9.67583 5.25323 10.1765C5.25758 10.2088 5.44282 9.97674 5.49708 10.0269C5.49454 10.127 5.48662 10.1449 5.45395 10.296C5.45934 10.3047 5.46472 10.3135 5.4701 10.3223C5.53625 10.1872 5.51441 10.2348 5.57692 10.0812C5.58432 10.0794 5.59171 10.0776 5.5991 10.0759C5.59616 10.1081 5.59321 10.1404 5.59024 10.1726C5.66806 10.0987 5.67458 10.0682 5.7096 10.1031C5.6908 10.2421 5.66454 10.3648 5.68311 10.4186C5.71578 10.3657 5.74845 10.3128 5.78113 10.2599C5.83329 10.2975 5.83409 10.4497 5.92359 10.4319C5.96132 10.424 6.21781 10.4227 6.2202 10.3877C6.18495 10.7831 6.55621 10.1381 6.40791 10.7333C6.46662 10.6993 6.50687 10.6745 6.55733 10.662C6.54833 10.8095 6.53558 10.8046 6.57474 10.8308C6.64013 10.7377 6.66899 10.6702 6.73928 10.5239C6.74395 10.5259 6.74861 10.5279 6.75326 10.5298C6.73045 10.5827 6.70765 10.6356 6.68485 10.6885C6.69685 10.8522 6.91833 10.4558 7.01903 10.5471C7.01455 10.5634 7.01006 10.5797 7.00556 10.596C6.97809 10.6368 6.95062 10.6776 6.92314 10.7184C6.90154 10.8424 6.90967 10.8594 6.90767 10.9487C6.96859 10.8499 6.97738 10.8292 7.04033 10.707C7.05203 10.6973 7.06371 10.6876 7.07537 10.6779C7.04466 10.7825 7.02288 10.8682 7.00195 10.9626C7.01373 10.9544 7.02548 10.9462 7.0372 10.938C7.37671 10.2588 7.29526 10.8649 7.44905 10.644C7.46393 10.6144 7.47882 10.5848 7.49372 10.5552C7.50514 10.5562 7.52049 10.559 7.53377 10.5608C7.52078 10.5948 7.50777 10.6288 7.49473 10.6628C7.44906 10.733 7.40184 10.8026 7.35818 10.8738C7.3538 10.8916 7.34896 10.9092 7.34496 10.9272C7.5064 10.8949 7.6131 10.8769 7.84145 10.8833C7.82429 10.9902 7.8355 10.947 7.77913 11.0714C7.79232 11.0751 7.80592 11.0793 7.82037 11.0846C7.92026 11.012 8.05281 10.9224 8.30241 11.0554C8.29289 11.0094 8.28132 10.9659 8.26896 10.9252C7.95902 10.6199 7.94872 10.7077 7.88975 10.6885C7.85426 10.6962 7.83923 10.7213 7.83286 10.7446C7.82098 10.7918 7.84035 10.8329 7.87341 10.7664C7.90546 10.7075 7.9116 10.707 7.9312 10.7559C7.92064 10.8796 7.91782 10.8745 7.91867 10.9835C7.92379 10.9772 7.92896 10.9709 7.93419 10.9646C7.9432 10.8996 7.95202 10.8346 7.96066 10.7695C7.96567 10.7702 7.97079 10.7709 7.97602 10.7716C7.97418 10.8319 7.97241 10.8922 7.97081 10.9526C8.07652 10.8706 8.04969 10.6275 8.19746 10.7323C8.2005 10.7526 8.20359 10.7729 8.20672 10.7932C8.19827 10.8623 8.18972 10.9313 8.18105 11.0004C8.21341 11.0326 8.21136 11.0379 8.24438 10.9643C8.25816 10.8472 8.26115 10.8184 8.27084 10.6939C8.31775 10.6704 8.31361 10.7045 8.3325 10.9356ZM3.69887 20.7648C4.14334 20.5344 3.83634 20.4344 4.26623 20.7754C4.62048 21.057 4.55413 20.4294 4.93789 21.1424C4.99606 21.0062 4.97629 21.0545 5.01194 20.882C5.10919 20.8483 5.99785 21.1975 6.17887 21.2334C6.19487 21.2867 6.21087 21.34 6.22687 21.3934C6.29006 21.3883 6.56818 21.3419 6.59538 21.3622C6.82435 21.5303 7.03706 21.6025 7.28736 21.672C7.29522 21.811 7.29626 21.7567 7.27487 21.9093C7.34725 21.9463 7.3764 21.8757 7.44504 21.7541C7.47369 21.7627 7.5213 21.7768 7.58343 21.7956L7.19445 22.0292C7.42638 21.5616 8.11156 20.2179 8.39714 20.1913C8.43311 20.2025 8.46908 20.2137 8.50504 20.2249C8.63094 20.365 8.59712 20.478 8.56389 20.5879C8.47003 20.9004 8.25189 21.1791 8.10322 21.472C7.97805 21.7184 7.85464 21.9651 7.73062 22.2115L7.64636 22.3959L7.49243 22.3546C7.07178 22.2245 6.65159 22.0928 6.2324 21.9496C5.98193 21.8643 5.73172 21.7844 5.47549 21.7288C5.35277 21.7024 5.21317 21.7148 5.09627 21.6611C4.93904 21.589 4.80778 21.3684 4.62661 21.5391C4.47354 21.6836 3.48729 21.3729 3.28253 21.3322C3.05343 21.286 2.8163 21.2904 2.58546 21.2563C2.41599 21.2312 2.2532 21.1537 2.08243 21.1408C1.93497 21.1293 1.78066 21.1701 1.63052 21.1782C1.63071 21.1557 1.62848 21.1288 1.62783 21.102C1.6097 20.39 1.62423 19.6795 1.61202 18.9672L1.61391 19.0237C1.58417 18.9155 1.55458 18.8087 1.52491 18.7033C1.53292 18.6944 1.64115 18.565 1.64053 18.5638C1.59315 18.3958 1.30787 18.0013 1.46302 17.8371C1.53318 17.8185 1.60335 17.7999 1.67354 17.7815C1.66977 17.7648 1.66603 17.7481 1.6623 17.7315C1.51297 17.7511 1.58838 17.7396 1.43742 17.7663C1.36549 17.6353 1.3592 17.4112 1.34222 17.1895C1.3129 16.8371 1.04325 16.2744 1.25694 15.9215C1.27345 15.8941 1.40695 15.8941 1.47776 15.8888C1.4773 15.8735 1.47686 15.8583 1.47644 15.8431C1.40948 15.8187 1.25283 15.7772 1.25534 15.739C1.26796 15.5343 0.887509 15.4122 1.19475 15.2419C1.18304 15.0928 1.04503 14.9686 1.10097 14.8533C1.20786 14.8269 1.25766 14.82 1.37353 14.8024C1.37878 14.7884 1.38404 14.7744 1.38932 14.7605C1.33915 14.7266 1.2763 14.6836 1.201 14.6312C1.14192 14.3252 1.12274 14.0026 1.16621 13.6987C1.17943 13.6051 1.04195 13.4435 1.05284 13.3959C1.11922 13.0912 1.06118 12.7797 1.12565 12.481C1.12989 12.4603 1.22131 12.3956 1.2264 12.3872C1.27856 12.2996 1.43417 12.2698 1.37529 12.1762C1.30191 12.1574 1.22854 12.1386 1.15517 12.1197C1.1395 12.0981 1.12387 12.0764 1.10827 12.0546C1.20802 12.0046 1.1974 12.0153 1.33353 11.9838C1.26653 11.8552 1.17592 11.9053 1.17194 11.8496C1.16631 11.7776 1.35253 11.4584 1.32116 11.4039C1.26244 11.3017 1.14515 11.2588 1.12725 11.1077C1.1548 11.105 1.18235 11.1023 1.20991 11.0996C1.43195 11.0773 1.45755 11.0858 1.52662 11.0038C1.51034 10.9847 1.49408 10.9657 1.47784 10.9466C1.37988 10.9486 1.29115 10.9498 1.19174 10.9495C1.05787 10.8234 1.44173 10.078 1.51464 9.91026C1.59029 9.89876 1.66189 9.88544 1.73134 9.86872C1.73571 9.84913 1.7402 9.82914 1.74452 9.80981C1.81497 9.71319 1.95208 9.61017 2.1395 9.57219C2.21964 9.60006 2.29978 9.62791 2.37993 9.65574C1.93224 9.89087 2.66704 10.925 1.81016 10.8752C1.79385 10.8649 1.77754 10.8546 1.76123 10.8443C1.64467 10.7708 1.59247 10.7247 1.44299 10.6917C1.42854 10.7077 1.4142 10.7232 1.39968 10.7396C1.57197 10.8908 1.87119 10.9309 2.15367 10.9943C2.34934 11.2845 1.95498 11.1235 1.98859 11.3113C2.05196 11.6595 2.33489 11.9978 2.13152 12.2995C2.02332 12.4602 2.03526 12.4308 2.25505 12.566C2.23824 12.7512 2.108 12.7524 2.02243 12.9054C1.994 12.9567 2.20758 13.0879 2.18371 13.2182C2.05284 13.2332 2.10837 13.2323 1.95246 13.2103C1.94158 13.2223 1.93072 13.2343 1.91987 13.2464C2.04373 13.3011 1.97652 13.2778 2.13931 13.3034C2.13209 13.3144 2.12488 13.3254 2.11768 13.3364C2.06799 13.3394 2.01829 13.3426 1.9686 13.3458C1.91847 13.4428 2.19279 14.6266 2.16199 14.6575C1.65182 15.1211 2.41395 15.1425 1.96952 15.6531C1.94068 15.6864 2.22445 15.881 2.20067 16.0226C2.10793 16.0929 2.08838 16.0916 1.93705 16.1421C1.93131 16.1595 1.9256 16.1768 1.91992 16.1943C2.07074 16.221 2.01817 16.2145 2.18428 16.2194C2.18905 16.2325 2.19384 16.2456 2.19865 16.2587C2.16817 16.2777 2.13773 16.2969 2.10731 16.3162C2.20846 16.4127 2.23865 16.3995 2.22343 16.4944C2.09046 16.566 1.96885 16.6124 1.93018 16.6931C1.99275 16.7149 2.05538 16.7366 2.11804 16.758C2.11056 16.8913 1.97768 17.0148 2.0407 17.1763C2.06635 17.2478 2.21207 17.7399 2.24425 17.7149C1.89245 17.997 2.65307 18.1374 2.0732 18.3821C2.1381 18.4626 2.18444 18.5189 2.22743 18.6037C2.10259 18.7193 2.09812 18.6905 2.10351 18.7917C2.22206 18.8343 2.29516 18.8266 2.45904 18.8266C2.46055 18.837 2.46207 18.8475 2.4636 18.8579C2.40612 18.8629 2.34864 18.8679 2.29115 18.8728C2.27973 18.8884 2.27341 18.9033 2.27133 18.9175L2.27507 19.0292C2.22048 19.1589 2.57181 19.3356 2.50708 19.5658C2.48999 19.5683 2.4729 19.5707 2.45581 19.5731C2.40998 19.5468 2.36416 19.5204 2.31833 19.4941C2.19053 19.5374 2.1751 19.5657 2.08544 19.6265C2.19536 19.6799 2.21767 19.6829 2.35142 19.7231C2.36326 19.7402 2.3751 19.7572 2.38694 19.7742C2.27654 19.7889 2.18726 19.8033 2.08912 19.8286C2.09961 19.846 2.1101 19.8633 2.12059 19.8807C2.863 20.0714 2.24522 20.3344 2.49696 20.4781C2.52953 20.4853 2.5621 20.4924 2.59467 20.4996C2.59591 20.5248 2.59715 20.5501 2.59839 20.5754C2.56189 20.5752 2.52538 20.5751 2.48888 20.5749C2.4091 20.5405 2.32931 20.5062 2.24953 20.4718C2.23092 20.4766 2.21231 20.4814 2.1937 20.4862C2.2636 20.7454 2.29534 20.9911 2.37399 21.2519L1.74993 20.4446C1.75457 20.4436 1.75922 20.4425 1.76387 20.4414C1.78877 20.5475 1.78206 20.5028 1.77973 20.6397C1.79481 20.6382 1.80988 20.6367 1.82496 20.6352C1.88265 20.5019 1.94063 20.3696 1.99921 20.2379C2.21636 20.2237 2.31571 20.5317 2.5302 20.4254C2.62639 20.3782 2.6489 20.3808 2.71395 20.439C2.69355 20.5615 2.68628 20.5554 2.69564 20.6669C2.709 20.6623 2.72236 20.6577 2.73572 20.6531C2.75652 20.5901 2.77733 20.5271 2.79813 20.4641C2.81163 20.4666 2.82513 20.4691 2.83863 20.4717C2.83549 20.5323 2.83235 20.5929 2.82921 20.6535C3.09888 20.6082 3.05022 20.355 3.40319 20.5136C3.40887 20.535 3.41456 20.5564 3.42025 20.5778C3.39311 20.6435 3.36597 20.7093 3.33883 20.7751C3.41354 20.819 3.40732 20.8233 3.49208 20.7618C3.53684 20.6502 3.54706 20.6227 3.58385 20.5023C3.69477 20.4956 3.68458 20.5286 3.69887 20.7648ZM9.8145 14.1521C9.56887 13.905 9.486 14.0329 9.79705 13.8897C10.0538 13.7691 9.4438 13.7033 10.1197 13.6339C9.98339 13.5855 10.0317 13.6022 9.86105 13.559C9.82288 13.5105 10.1116 13.1469 10.1349 13.0652C10.1862 13.0649 10.2375 13.0645 10.2887 13.0641C10.2798 13.0339 10.2161 12.8979 10.2342 12.8877C10.3842 12.8014 10.4406 12.711 10.4916 12.6015C10.6276 12.6148 10.5742 12.6076 10.7255 12.6364C10.7569 12.6065 10.6856 12.584 10.5614 12.5366C10.6209 12.4259 11.0103 11.6303 11.3099 11.6181C11.3471 11.6242 11.3842 11.6304 11.4214 11.6365C11.5755 11.7079 11.5701 11.763 11.5645 11.816C11.5493 11.9658 11.406 12.0983 11.3326 12.2362C11.1713 12.541 11.0196 12.8417 10.8337 13.1368C10.7657 13.2448 10.7024 13.3536 10.663 13.4668C10.6442 13.522 10.6642 13.5906 10.6182 13.6381C10.5564 13.7017 10.3478 13.7303 10.5241 13.8432C10.6743 13.9386 10.4174 14.3596 10.3853 14.4491C10.3501 14.5489 10.363 14.6647 10.3381 14.7678C10.3198 14.8436 10.2496 14.9072 10.2424 14.9857C10.2348 15.0654 10.297 15.1665 10.2939 15.2488C10.2801 15.6362 10.2142 16.0123 10.1826 16.404C10.1725 16.4046 10.0366 16.4099 10.0369 16.4107C10.0306 16.4925 10.1781 16.7592 9.99336 16.7592C9.92447 16.7382 9.85559 16.7171 9.78672 16.696C9.78562 16.704 9.78451 16.7119 9.7834 16.7199C9.92458 16.7724 9.85285 16.7465 9.99741 16.7969C10.0272 16.8771 9.97353 16.9663 9.93366 17.0596C9.87025 17.2096 9.98926 17.5425 9.72488 17.6033C9.70426 17.6081 9.58186 17.5549 9.51587 17.5289C9.51325 17.5355 9.51062 17.5421 9.50799 17.5486C9.56466 17.5853 9.70046 17.6646 9.69096 17.6794C9.64063 17.7599 9.96926 17.9607 9.65838 17.9126C9.64487 17.9801 9.75297 18.0873 9.68485 18.1153C9.58261 18.0853 9.53577 18.069 9.42652 18.0318C9.41969 18.0359 9.41285 18.0401 9.40601 18.0442C9.44742 18.0785 9.49933 18.1217 9.56178 18.1736C9.57589 18.3294 9.55821 18.4817 9.49255 18.6038C9.47222 18.6415 9.58642 18.7674 9.57304 18.7854C9.49072 18.9002 9.52725 19.0705 9.45824 19.1889C9.45357 19.1973 9.36728 19.1958 9.36234 19.1981C9.31154 19.2219 9.16778 19.1808 9.21924 19.2479C9.28623 19.283 9.35321 19.3182 9.42019 19.3534C9.43403 19.3695 9.448 19.3854 9.46188 19.4015C9.36929 19.3902 9.37925 19.3888 9.25371 19.3559C9.31309 19.4421 9.39711 19.4498 9.39984 19.4784C9.40367 19.5149 9.22881 19.6091 9.25816 19.6463C9.31195 19.7167 9.41894 19.7794 9.43541 19.8607C9.41017 19.8525 9.38494 19.8443 9.35971 19.836C9.15638 19.77 9.13309 19.7565 9.06976 19.7743C9.08468 19.7896 9.0996 19.8048 9.11451 19.8201C9.20423 19.8529 9.28552 19.883 9.37659 19.9175C9.49766 20.0275 9.15437 20.2717 9.09163 20.3324C9.02282 20.3121 8.95776 20.2941 8.89474 20.2786C8.89109 20.2871 8.88744 20.2955 8.88377 20.304C8.82075 20.3297 8.6974 20.3356 8.52737 20.2903C8.45385 20.2483 8.38032 20.2064 8.30679 20.1645C8.71066 20.196 8.02539 19.4188 8.81062 19.7412C8.82564 19.752 8.84065 19.7628 8.85566 19.7736C8.96302 19.8505 9.01093 19.8921 9.14794 19.9603C9.16102 19.9573 9.1741 19.9542 9.18718 19.9512C9.02811 19.8164 8.75448 19.6921 8.49553 19.5627C8.31556 19.3481 8.67741 19.5652 8.64633 19.4599C8.58801 19.2651 8.33312 18.9951 8.52698 18.9202C8.63142 18.8785 8.61938 18.8896 8.42172 18.7451C8.44419 18.66 8.56397 18.7067 8.64988 18.6638C8.67864 18.6492 8.48851 18.5087 8.51877 18.4545C8.64037 18.4948 8.58911 18.4751 8.73151 18.5423C8.74227 18.5405 8.75303 18.5388 8.76379 18.537C8.65307 18.4659 8.71357 18.5014 8.56512 18.4299C8.57249 18.4273 8.57987 18.4247 8.58724 18.4221C8.63327 18.4388 8.67931 18.4555 8.72536 18.4721C8.76875 18.4428 8.63843 17.7907 8.67981 17.7921C9.21623 17.7822 8.5172 17.4761 9.01927 17.4319C9.0518 17.4293 8.82884 17.2343 8.88045 17.1845C8.98002 17.1924 8.99758 17.2011 9.14693 17.2406C9.15587 17.2357 9.16481 17.2308 9.17375 17.2259C9.04143 17.1544 9.08816 17.1781 8.93717 17.1095C8.93563 17.1022 8.93408 17.0949 8.93253 17.0876C8.96456 17.092 8.99659 17.0965 9.02863 17.1008C8.95718 17.0214 8.92696 17.0139 8.96245 16.9814C9.10039 17.0058 9.22215 17.0361 9.27633 17.0196C9.22434 16.9855 9.1723 16.9515 9.12022 16.9177C9.15884 16.8675 9.31019 16.8721 9.29361 16.7832C9.28694 16.7449 9.28469 16.4954 9.24947 16.4924C9.64562 16.5259 8.99379 16.1692 9.59125 16.3072C9.55552 16.2508 9.52942 16.2121 9.51525 16.163C9.66266 16.1687 9.65824 16.1813 9.68323 16.1413C9.58812 16.0787 9.51943 16.0528 9.37051 15.9884C9.37221 15.984 9.37391 15.9796 9.37561 15.9751C9.42932 15.9959 9.48303 16.0166 9.53673 16.0374C9.69853 16.0233 9.29491 15.8143 9.37621 15.7213C9.39269 15.725 9.40917 15.7286 9.42566 15.7323C9.46814 15.7568 9.51059 15.7814 9.55301 15.8061C9.67765 15.8221 9.69398 15.8134 9.78314 15.8104C9.68074 15.7558 9.65951 15.7483 9.53346 15.6935C9.52299 15.6825 9.51252 15.6716 9.50204 15.6607C9.6086 15.6842 9.69495 15.7019 9.79037 15.717C9.78121 15.7062 9.77204 15.6955 9.76286 15.6848C9.0601 15.3989 9.66517 15.4462 9.4294 15.3153C9.39836 15.3037 9.36733 15.292 9.33629 15.2804C9.33615 15.2689 9.33601 15.2573 9.33586 15.2457C9.371 15.2552 9.40613 15.2647 9.44127 15.2741C9.51665 15.31 9.59197 15.346 9.66724 15.3821C9.68537 15.3848 9.70349 15.3874 9.72162 15.39C9.66481 15.2523 9.64452 15.131 9.57507 14.9917C9.67688 15.0025 9.6339 14.9962 9.7663 15.0261C9.76441 15.0187 9.76252 15.0113 9.76062 15.0039C9.62999 14.9489 9.50021 14.8943 9.37093 14.8398C9.34988 14.7371 9.64463 14.7537 9.53385 14.6324C9.48447 14.5783 9.48611 14.5686 9.53995 14.5499C9.65964 14.5831 9.654 14.5854 9.76185 14.6026C9.75687 14.5955 9.75189 14.5883 9.74691 14.5812C9.68494 14.5594 9.62296 14.5377 9.56098 14.516C9.56288 14.5102 9.56479 14.5044 9.56669 14.4987C9.62566 14.5117 9.68463 14.5248 9.74361 14.5378C9.68875 14.4036 9.44516 14.3782 9.58342 14.245C9.60398 14.2463 9.62454 14.2475 9.6451 14.2488C9.71032 14.2732 9.77552 14.2977 9.84071 14.3223C9.88009 14.2954 9.88467 14.299 9.82101 14.2484C9.71036 14.2076 9.68305 14.198 9.56422 14.1595C9.55254 14.1069 9.58512 14.1175 9.8145 14.1521ZM15.3124 15.1865C15.6932 15.3505 15.6603 15.1204 15.5284 15.5354C15.4169 15.876 15.951 15.5607 15.4628 16.107C15.6069 16.0836 15.5561 16.0925 15.7241 16.0396C15.7935 16.0855 15.8155 16.7844 15.8475 16.9108C15.8051 16.9427 15.7628 16.9745 15.7204 17.0062C15.7484 17.0438 15.8915 17.1971 15.883 17.2227C15.8134 17.4336 15.8235 17.5949 15.848 17.7774C15.7237 17.8364 15.7737 17.8159 15.6267 17.8619C15.6182 17.9212 15.693 17.912 15.8284 17.908C15.8544 18.1009 15.9694 19.4339 15.7025 19.5956C15.6661 19.6056 15.6298 19.6156 15.5935 19.6255C15.4183 19.6032 15.3936 19.5247 15.3699 19.449C15.3018 19.2335 15.3547 18.9785 15.3397 18.749C15.3067 18.2456 15.2539 17.7462 15.2184 17.2365C15.2049 17.0484 15.1852 16.8631 15.14 16.6848C15.1179 16.5989 15.0545 16.5199 15.0586 16.4267C15.064 16.3009 15.2111 16.126 14.9891 16.0911C14.8034 16.0621 14.694 15.3383 14.6459 15.1987C14.595 15.0424 14.4953 14.9052 14.4313 14.7547C14.3841 14.6434 14.3855 14.5128 14.3261 14.4068C14.2663 14.2998 14.1384 14.2213 14.0726 14.1175C13.7616 13.6278 13.4822 13.1268 13.1547 12.6472C13.1609 12.6382 13.2445 12.5168 13.2436 12.516C13.1739 12.4136 12.8412 12.2393 12.9569 12.0773C13.0194 12.0411 13.0819 12.0049 13.1443 11.9686C13.1378 11.9586 13.1312 11.9486 13.1247 11.9385C12.9884 12.0026 13.0569 11.9692 12.9203 12.0385C12.8296 11.9751 12.7804 11.8243 12.7202 11.6864C12.6199 11.4576 12.2426 11.2047 12.3406 10.8943C12.3481 10.8699 12.47 10.8155 12.5332 10.7832C12.5328 10.7823 12.5323 10.7814 12.5319 10.7806C12.5269 10.7663 12.5235 10.7563 12.5205 10.7477C12.4519 10.752 12.2949 10.7751 12.2895 10.7507C12.2568 10.6136 11.8718 10.6726 12.1161 10.4564C12.0672 10.3668 11.9055 10.3414 11.9251 10.2493C12.0165 10.1925 12.0604 10.169 12.1621 10.1131C12.1628 10.1021 12.1634 10.0908 12.1643 10.0804C12.1084 10.0791 12.0378 10.0764 11.953 10.0736C11.8079 9.9089 11.6863 9.72601 11.6175 9.52786C11.5971 9.46873 11.4149 9.43377 11.4075 9.40287C11.4018 9.3807 11.3946 9.35892 11.3861 9.33738L12.5688 9.08385C12.5795 9.29702 12.6592 9.51368 12.6273 9.73542C12.6251 9.75295 12.5398 9.80896 12.5354 9.8156C12.4905 9.88875 12.3382 9.90982 12.402 9.98565C12.4759 10.0021 12.5497 10.0188 12.6235 10.0357C12.6401 10.0541 12.6565 10.0728 12.6728 10.0916C12.5755 10.1312 12.5855 10.1229 12.4515 10.1424C12.521 10.2512 12.6095 10.2159 12.6141 10.2631C12.6219 10.3275 12.429 10.5768 12.4551 10.6245C12.5067 10.718 12.6187 10.775 12.6205 10.9101C12.5933 10.9075 12.5661 10.9048 12.539 10.9019C12.3202 10.8784 12.2974 10.8638 12.2214 10.9164C12.235 10.9356 12.2485 10.9547 12.2619 10.9741C12.3565 10.9952 12.4426 11.0137 12.5391 11.0346C12.6597 11.1831 12.1502 11.7087 12.0395 11.8002C11.9675 11.7809 11.899 11.7641 11.8324 11.7494C11.824 11.7626 11.8156 11.7758 11.8071 11.7889C11.7198 11.8363 11.5723 11.8554 11.3986 11.7993C11.3346 11.7438 11.2705 11.6884 11.2062 11.6332C11.6775 11.6426 11.1448 10.6637 11.9355 10.9475C11.9498 10.9598 11.9642 10.9721 11.9785 10.9844C12.0807 11.0723 12.1232 11.1244 12.2608 11.1915C12.2771 11.1822 12.2933 11.1728 12.3095 11.1631C12.1662 10.9947 11.8826 10.8904 11.621 10.7667C11.456 10.5109 11.8211 10.7241 11.8002 10.5779C11.7579 10.3023 11.468 10.0496 11.645 9.86868C11.7391 9.76651 11.7296 9.78178 11.4986 9.6928C11.4953 9.57658 11.6237 9.57512 11.6886 9.46926C11.71 9.43264 11.4804 9.36504 11.4838 9.283C11.6108 9.26029 11.556 9.26633 11.7135 9.26368C11.7223 9.25466 11.7311 9.24555 11.7399 9.23637C11.6089 9.21511 11.679 9.22259 11.5142 9.22528C11.5196 9.21757 11.5249 9.20975 11.5302 9.20203C11.5787 9.1941 11.6272 9.18589 11.6757 9.1774C11.6784 9.16984 11.675 9.15254 11.6665 9.12793L12.2272 9.00773C12.3516 9.17499 12.8665 9.67311 12.8429 9.71074C12.5146 10.2144 13.2301 9.94416 12.945 10.4597C12.9337 10.4863 13.063 10.4918 13.1686 10.5831L13.1371 10.4998C13.1863 10.5191 13.2258 10.5444 13.2319 10.58C13.1666 10.6646 13.148 10.6711 13.023 10.7653C13.0224 10.7792 13.0218 10.7931 13.0212 10.8069C13.1669 10.7654 13.1169 10.7818 13.2709 10.7198C13.2787 10.7268 13.2866 10.7338 13.2945 10.7407C13.2715 10.7655 13.2484 10.7902 13.2254 10.8149C13.343 10.8397 13.3684 10.8212 13.3786 10.8922C13.274 10.9921 13.1728 11.0692 13.1559 11.1378C13.2191 11.1292 13.2823 11.1206 13.3455 11.112C13.3695 11.2051 13.2751 11.34 13.368 11.4275C13.4073 11.4636 13.6433 11.7592 13.6672 11.7305C13.3896 12.043 14.1287 11.8933 13.6235 12.2535C13.6979 12.2899 13.7499 12.3137 13.8036 12.3602C13.7031 12.4801 13.6948 12.4616 13.7149 12.5313C13.8333 12.5253 13.9013 12.4978 14.0565 12.4484C14.0595 12.4553 14.0624 12.4622 14.0653 12.4691C14.0116 12.4899 13.9579 12.5107 13.9041 12.5315C13.8107 12.6855 14.2645 12.5983 14.2952 12.7849C14.281 12.7942 14.2668 12.8036 14.2525 12.8129C14.2023 12.8183 14.1521 12.8236 14.1019 12.829C14.0049 12.9143 14.0015 12.938 13.9446 13.0162C14.0616 12.9979 14.0824 12.9895 14.2156 12.9522C14.2324 12.9571 14.2492 12.962 14.2659 12.9669C14.1737 13.0268 14.0999 13.0766 14.0223 13.1371C14.038 13.1428 14.0536 13.1484 14.0693 13.1541C14.7965 12.9276 14.3463 13.3735 14.6215 13.3453C14.653 13.3349 14.6846 13.3245 14.7161 13.3141C14.7265 13.3291 14.7369 13.3442 14.7473 13.3592C14.7148 13.3757 14.6823 13.3922 14.6498 13.4086C14.5663 13.4237 14.4828 13.4388 14.3994 13.4539C14.3846 13.4653 14.3698 13.4767 14.355 13.4881C14.5144 13.6172 14.6328 13.7561 14.801 13.8833C14.7195 13.9494 14.7554 13.9238 14.6358 13.9889C14.6434 13.9971 14.651 14.0052 14.6586 14.0133C14.7984 13.9825 14.9374 13.9525 15.0762 13.9234C15.1794 14.0447 14.953 14.2521 15.1341 14.328C15.215 14.3625 15.2222 14.3777 15.1982 14.444C15.0828 14.4899 15.0851 14.4827 14.9915 14.5411C15.001 14.5468 15.0105 14.5526 15.02 14.5583C15.0836 14.5409 15.1473 14.5235 15.2109 14.5062C15.2142 14.5154 15.2176 14.5247 15.2209 14.5339C15.1666 14.5606 15.1123 14.5873 15.058 14.614C15.2076 14.753 15.4104 14.6061 15.4145 14.8925C15.398 14.9059 15.3815 14.9192 15.365 14.9325C15.2962 14.9466 15.2274 14.9607 15.1586 14.9749C15.1502 15.04 15.1437 15.0382 15.232 15.0608C15.3483 15.0363 15.3767 15.0298 15.4975 14.9967C15.5482 15.0608 15.515 15.0699 15.3124 15.1865ZM6.40145 19.5191C6.51337 19.2214 6.42448 19.1717 6.55438 19.4391C6.66483 19.659 6.60633 19.0514 6.75743 19.6899C6.76313 19.5459 6.76131 19.5969 6.75817 19.4209C6.77972 19.3722 7.04464 19.5622 7.09886 19.5641C7.10884 19.6136 7.11893 19.6631 7.12914 19.7126C7.14545 19.6964 7.21394 19.6006 7.22362 19.6155C7.30622 19.7386 7.371 19.7703 7.44845 19.7913C7.47018 19.9258 7.46283 19.8725 7.47863 20.0257C7.50387 20.0483 7.50189 19.9738 7.5029 19.842C7.58015 19.8722 8.15295 20.0373 8.24072 20.3193C8.24657 20.3565 8.25243 20.3937 8.25829 20.4309C8.25436 20.5976 8.21849 20.6073 8.18408 20.6161C8.08669 20.6419 7.96849 20.5398 7.86486 20.5057C7.63666 20.4311 7.41555 20.3626 7.1941 20.2575C7.11473 20.219 7.03325 20.1851 6.95633 20.1751C6.9199 20.1705 6.87981 20.2069 6.84199 20.174C6.79018 20.1299 6.73931 19.9346 6.69853 20.1331C6.66313 20.3024 6.35862 20.1545 6.2985 20.1441C6.23002 20.1336 6.16043 20.1735 6.0909 20.1733C6.04012 20.1732 5.99284 20.1199 5.94153 20.1309C5.88937 20.142 5.83259 20.2257 5.77818 20.2413C5.52604 20.3161 5.27222 20.3351 5.00607 20.3878C5.00513 20.3781 4.99624 20.2479 4.99581 20.2483C4.94158 20.26 4.76351 20.4581 4.75907 20.2799C4.77185 20.2091 4.78471 20.1383 4.79766 20.0676C4.79231 20.0682 4.78696 20.0688 4.78161 20.0694C4.74872 20.2164 4.76488 20.1418 4.7335 20.2916C4.67952 20.337 4.61708 20.3037 4.55288 20.2846C4.45058 20.2548 4.21689 20.4355 4.1783 20.1947C4.17529 20.176 4.21409 20.0483 4.23317 19.98C4.22873 19.9788 4.22428 19.9777 4.21983 19.9765C4.19358 20.0381 4.13612 20.1837 4.12593 20.1775C4.07102 20.1456 3.92332 20.499 3.96428 20.1929C3.91715 20.1933 3.83872 20.3174 3.82111 20.2581C3.84528 20.1548 3.85817 20.1071 3.88773 19.9958C3.88512 19.9901 3.88251 19.9844 3.8799 19.9788C3.85457 20.025 3.82282 20.0829 3.78421 20.1525C3.67345 20.1963 3.56715 20.2094 3.48331 20.1709C3.45764 20.159 3.36339 20.2917 3.35119 20.2825C3.27207 20.2264 3.15068 20.2945 3.06896 20.2519C3.06319 20.2491 3.06901 20.1675 3.06768 20.1633C3.05361 20.1201 3.09115 19.9767 3.04064 20.0383C3.01178 20.1082 2.98291 20.1781 2.95402 20.248C2.94173 20.2642 2.92943 20.2804 2.91711 20.2965C2.93011 20.2071 2.93041 20.2161 2.96124 20.0916C2.89643 20.1643 2.88598 20.2448 2.8654 20.2529C2.83888 20.2635 2.78314 20.1178 2.75402 20.1524C2.70009 20.2165 2.64887 20.3293 2.58962 20.3606C2.59708 20.3353 2.60454 20.31 2.61201 20.2847C2.67198 20.081 2.68318 20.0565 2.67459 20.0006C2.66277 20.0176 2.65094 20.0346 2.63909 20.0516C2.60986 20.1421 2.58319 20.2243 2.55277 20.3164C2.46648 20.4514 2.31365 20.1775 2.27447 20.1309C2.29361 20.0626 2.31088 19.9982 2.32629 19.9362C2.32052 19.9345 2.31474 19.9328 2.30895 19.931C2.2949 19.8773 2.29936 19.7633 2.3436 19.5955C2.37864 19.5185 2.41366 19.4415 2.44867 19.3645C2.3983 19.7478 2.99681 18.9522 2.71512 19.7513C2.70642 19.7675 2.69772 19.7836 2.68901 19.7998C2.62696 19.9154 2.59428 19.9686 2.53658 20.1103C2.5379 20.122 2.53918 20.1336 2.54054 20.1453C2.64781 19.9701 2.7538 19.689 2.86311 19.4209C3.02681 19.2097 2.84889 19.5917 2.92549 19.5417C3.06775 19.4487 3.27293 19.1554 3.31371 19.3228C3.33613 19.4125 3.32928 19.4035 3.44232 19.1888C3.49997 19.1928 3.45963 19.3146 3.48526 19.3872C3.4938 19.4114 3.60244 19.2042 3.63788 19.2217C3.60281 19.3443 3.61948 19.2921 3.5647 19.4397C3.5653 19.4495 3.5659 19.4593 3.56651 19.469C3.62212 19.3504 3.59401 19.4146 3.65202 19.2603C3.65338 19.2668 3.65474 19.2732 3.6561 19.2796C3.64192 19.3263 3.62777 19.3731 3.61364 19.4198C3.63424 19.4557 4.08567 19.1997 4.08197 19.2389C4.06586 19.7453 4.29989 19.019 4.31085 19.4865C4.31195 19.5171 4.44848 19.2642 4.47918 19.3026C4.47128 19.3991 4.4651 19.4176 4.43548 19.5684C4.43854 19.5759 4.44162 19.5834 4.44474 19.5909C4.49508 19.4497 4.47829 19.4992 4.52699 19.3407C4.53183 19.3377 4.53667 19.3347 4.5415 19.3317C4.53786 19.3632 4.53428 19.3947 4.53075 19.4262C4.58465 19.3413 4.58982 19.3107 4.61032 19.3377C4.59174 19.4745 4.57004 19.5974 4.58042 19.6457C4.60354 19.5888 4.62655 19.5318 4.64938 19.4748C4.68175 19.5011 4.67774 19.647 4.73618 19.6122C4.76158 19.5977 4.92355 19.5418 4.92487 19.5072C4.90854 19.8956 5.12617 19.1904 5.05009 19.796C5.08575 19.7493 5.1099 19.7156 5.14095 19.6912C5.14177 19.8347 5.13373 19.8332 5.16051 19.8486C5.19756 19.743 5.21161 19.671 5.24736 19.513C5.25019 19.5136 5.25303 19.5143 5.25587 19.515C5.24461 19.5714 5.23333 19.6278 5.22202 19.6843C5.23744 19.8375 5.3537 19.4012 5.414 19.4587C5.41247 19.4754 5.41095 19.4922 5.40944 19.509C5.39613 19.5555 5.38269 19.6021 5.36914 19.6486C5.36503 19.7727 5.37143 19.7866 5.37808 19.8722C5.40734 19.7609 5.41091 19.7387 5.43871 19.6044C5.44498 19.5919 5.45123 19.5793 5.45745 19.5667C5.44835 19.6751 5.44194 19.7626 5.43802 19.8584C5.44433 19.8471 5.45063 19.8358 5.4569 19.8245C5.59529 19.0798 5.59941 19.676 5.66524 19.4178C5.67024 19.3851 5.67522 19.3523 5.68019 19.3196C5.68714 19.3168 5.69409 19.314 5.70104 19.3112C5.69771 19.3474 5.69439 19.3836 5.69108 19.4199C5.67451 19.5011 5.65768 19.5824 5.6406 19.6635C5.64025 19.6817 5.63991 19.6999 5.6396 19.7181C5.72188 19.6317 5.79354 19.584 5.87237 19.4844C5.8749 19.5857 5.87488 19.5426 5.86871 19.678C5.87305 19.6744 5.87738 19.6709 5.8817 19.6673C5.90317 19.5278 5.92412 19.3891 5.94463 19.251C6.00207 19.2065 6.02283 19.4966 6.08275 19.3605C6.10927 19.2998 6.11497 19.2991 6.13195 19.347C6.12549 19.471 6.12346 19.4661 6.12533 19.5748C6.12907 19.5683 6.13279 19.5618 6.13651 19.5553C6.14256 19.49 6.14854 19.4247 6.15445 19.3594C6.15807 19.3599 6.1617 19.3604 6.16534 19.3609C6.1643 19.4212 6.16331 19.4815 6.16236 19.5419C6.23742 19.457 6.22055 19.2143 6.3162 19.3169C6.31808 19.3372 6.31998 19.3574 6.3219 19.3777C6.31584 19.4469 6.30966 19.516 6.30336 19.5851C6.32472 19.617 6.32333 19.6223 6.34522 19.5484C6.35489 19.4313 6.35697 19.4025 6.36395 19.2779C6.39314 19.254 6.39068 19.2881 6.40145 19.5191ZM9.36831 5.6842C9.12627 5.17346 9.0337 5.54643 9.36474 5.00851C9.63816 4.56518 9.0107 4.69303 9.71578 4.18097C9.57781 4.1224 9.62674 4.14214 9.45289 4.11319C9.42766 4.03443 9.57913 3.48424 9.68398 3.08399L9.91614 3.70439C9.81161 3.57426 9.72238 3.47341 9.67642 3.43311C9.68799 3.37779 9.69954 3.32266 9.70996 3.26685C9.64703 3.23301 9.3646 3.13741 9.3484 3.11005C9.20172 2.85452 9.0116 2.70494 8.77005 2.57537C8.79116 2.4373 8.77833 2.49017 8.83186 2.34568C8.75919 2.29038 8.71284 2.35325 8.62092 2.45987C8.42475 2.2208 6.23827 1.92846 6.0461 1.68705C6.04295 1.64951 6.0398 1.61197 6.03663 1.57443C6.14087 1.40446 6.28486 1.39347 6.42445 1.38497C6.8256 1.36009 7.24298 1.47608 7.6444 1.55666C8.52843 1.71521 9.37889 2.14149 9.96358 2.76892C10.104 2.91279 10.2369 3.06053 10.3701 3.20743L10.3527 3.16083C10.3292 3.27198 10.3081 3.38353 10.2902 3.49578C10.2668 3.64382 10.2828 3.80889 10.2318 3.95213C10.1634 4.14478 9.94562 4.3181 10.1212 4.5203C10.2699 4.69111 9.98326 5.88844 9.94753 6.13518C9.90694 6.41129 9.91735 6.693 9.88894 6.97024C9.868 7.17379 9.79438 7.37346 9.78568 7.57759C9.78048 7.69585 9.7989 7.81594 9.81516 7.93591L9.81387 7.97915L9.84951 7.9835C9.94147 7.97952 10.0332 7.97678 10.1229 7.98646C10.8262 8.06165 11.526 8.15929 12.228 8.24541L12.1326 8.25048C12.384 8.14537 12.6349 8.03861 12.8845 7.92837C12.8969 7.93414 13.0601 8.01401 13.0617 8.01297C13.2517 7.92909 13.6657 7.55307 13.8774 7.66614C13.911 7.73084 13.9445 7.79553 13.9781 7.86023C13.9969 7.85228 14.0157 7.84433 14.0346 7.83638C13.9858 7.69388 14.0123 7.76545 13.955 7.62312C14.0952 7.51882 14.3515 7.45513 14.6004 7.37793C15.0025 7.25284 15.5682 6.8222 16.0214 6.90667C16.0571 6.91317 16.095 7.04117 16.1211 7.10724C16.1385 7.10148 16.1558 7.09573 16.1732 7.08997C16.1816 7.01738 16.1826 6.85316 16.2259 6.84226C16.4622 6.78145 16.4734 6.37707 16.7613 6.60379C16.9224 6.53639 17.0112 6.35825 17.156 6.36499C17.2229 6.45438 17.2483 6.49809 17.3096 6.59907C17.327 6.59824 17.3445 6.59741 17.3619 6.59658C17.3815 6.5358 17.4055 6.45971 17.4347 6.36807C17.7471 6.18664 18.0834 6.02829 18.4251 5.92629C18.5306 5.89484 18.6403 5.69455 18.6944 5.68171C19.0443 5.59555 19.3401 5.3881 19.6784 5.28975C19.702 5.28268 19.8147 5.32849 19.8261 5.32843C19.9429 5.32775 20.0524 5.44707 20.1199 5.34566C20.1015 5.27213 20.0831 5.19861 20.0647 5.12508C20.0788 5.09997 20.0929 5.07487 20.1071 5.04977C20.2097 5.10914 20.1933 5.10569 20.2964 5.20602C20.3931 5.07876 20.2943 5.02792 20.3493 4.99424C20.3673 4.98319 20.4085 4.97385 20.4604 4.96511L21.4134 4.74394L21.4439 5.59476C21.44 5.7482 21.4135 5.99062 21.4501 6.02679C21.5412 6.11682 21.6665 6.12244 21.7374 6.28133C21.7126 6.29467 21.6877 6.30801 21.6629 6.32135C21.4632 6.42978 21.436 6.42924 21.4016 6.548C21.4237 6.56293 21.4459 6.57787 21.468 6.5928C21.5588 6.55275 21.6412 6.51726 21.7341 6.47939C21.9032 6.56636 21.8244 7.53579 21.8231 7.75438C21.7574 7.79786 21.6962 7.84168 21.6383 7.88831C21.6417 7.91171 21.6452 7.9351 21.6487 7.95849C21.621 8.09637 21.5341 8.26686 21.3755 8.38559C21.2906 8.38798 21.2057 8.39037 21.1208 8.39275C21.442 7.94756 20.3661 7.08646 21.1843 6.80094C21.2033 6.80599 21.2223 6.81105 21.2413 6.81611C21.3771 6.85149 21.4429 6.88331 21.5944 6.861C21.6019 6.83759 21.6095 6.81418 21.617 6.79078C21.4007 6.69185 21.1068 6.7626 20.82 6.80256C20.5304 6.55241 20.9575 6.57831 20.858 6.38176C20.7388 6.14538 20.5365 5.94305 20.432 5.71657L20.7733 5.93513C20.6615 6.01577 20.5367 6.06851 20.3836 6.06526C20.1539 6.06023 20.1943 6.05335 20.161 6.31738C19.9502 6.40336 19.8843 6.28996 19.6752 6.29577C19.6057 6.29765 19.5679 6.55389 19.4108 6.60045C19.3317 6.49241 19.3593 6.54104 19.3091 6.39178C19.2909 6.38826 19.2726 6.38474 19.2543 6.38122C19.253 6.51882 19.2467 6.4474 19.2955 6.6048C19.2799 6.60401 19.2643 6.60322 19.2487 6.60242C19.2219 6.55986 19.1951 6.5173 19.1683 6.47474C19.0501 6.48618 17.8243 7.29355 17.7652 7.27106C17.0451 6.99317 17.2804 7.71927 16.5364 7.49328C16.4898 7.47802 16.3427 7.82136 16.1657 7.84865C16.0571 7.78402 16.0542 7.76441 15.954 7.63594C15.9319 7.63636 15.9099 7.63677 15.8879 7.63718C15.8955 7.79195 15.8895 7.73896 15.9265 7.9012C15.9121 7.91028 15.8977 7.91937 15.8833 7.92845C15.8529 7.90539 15.8224 7.88234 15.792 7.85928C15.7038 7.98896 15.725 8.01446 15.6079 8.03068C15.4905 7.92469 15.4078 7.82082 15.3045 7.8079C15.2928 7.87574 15.2811 7.94357 15.2694 8.01141C15.1085 8.04532 14.9351 7.95172 14.7567 8.05964C14.6799 8.106 14.1192 8.38299 14.1534 8.40738C13.7649 8.13092 13.7122 8.92013 13.3352 8.40208C13.2485 8.48553 13.1904 8.54385 13.0946 8.60609C12.9402 8.50792 12.9742 8.49695 12.8553 8.52452C12.82 8.65201 12.8382 8.72324 12.8583 8.88681C12.8461 8.89056 12.834 8.89432 12.8219 8.89808C12.809 8.84177 12.7961 8.78546 12.7833 8.72914C12.6183 8.66147 12.5636 8.93718 12.4025 9.08715L12.2878 9.13518L12.0482 9.10595C11.9866 9.12048 11.9225 9.12161 11.8569 9.09709C11.8556 9.07968 11.8544 9.06226 11.8532 9.04485C11.8887 9.00315 11.9242 8.96146 11.9597 8.91976C11.9206 8.78571 11.8885 8.76601 11.8252 8.66735C11.7515 8.76884 11.7458 8.79064 11.6856 8.91791C11.6643 8.92713 11.6431 8.93635 11.6218 8.94557C11.6149 8.83323 11.6063 8.742 11.5856 8.64027C11.5641 8.64809 11.5426 8.65591 11.5211 8.66373C11.225 9.37514 10.9725 8.719 10.7785 8.9482C10.767 8.9796 10.7555 9.01099 10.7439 9.04239C10.7139 9.03978 10.6839 9.03717 10.6539 9.03457C10.6575 8.99818 10.6612 8.9618 10.6648 8.92542C10.713 8.85107 10.7612 8.77673 10.8095 8.70238C10.8056 8.68309 10.8017 8.66381 10.7978 8.64452C10.4791 8.67533 10.1805 8.66885 9.85826 8.70991C9.83019 8.60117 9.83753 8.64664 9.84222 8.50925C9.8243 8.5095 9.80639 8.50975 9.78848 8.50999C9.76212 8.5584 9.73571 8.60667 9.70924 8.65481L9.11223 8.58197L9.13384 7.85761C9.04982 7.82098 8.96614 7.78413 8.8827 7.74699C8.86303 7.4898 9.16931 7.3476 9.0574 7.10076C9.00762 6.99002 9.00969 6.96305 9.06636 6.88113C9.18968 6.89585 9.18375 6.90498 9.2953 6.88515C9.29036 6.86962 9.28541 6.85408 9.28047 6.83855C9.21679 6.81871 9.15311 6.79888 9.08943 6.77905C9.09162 6.76279 9.09381 6.74654 9.096 6.73028C9.15683 6.72929 9.21767 6.7283 9.2785 6.72731C9.22636 6.41008 8.97379 6.4877 9.12387 6.05549C9.14517 6.04706 9.16648 6.03862 9.18779 6.03019C9.25441 6.05734 9.32103 6.0845 9.38765 6.11166C9.42975 6.01937 9.43431 6.02642 9.37053 5.9304C9.25753 5.88586 9.22964 5.87584 9.10808 5.84147C9.09857 5.71006 9.13194 5.71961 9.36831 5.6842ZM16.9984 11.1842C16.9722 11.5166 17.0986 11.5197 16.8346 11.336C16.6196 11.1819 16.8892 11.7312 16.4944 11.1926C16.5313 11.3321 16.5179 11.2829 16.5754 11.4493C16.5591 11.5087 16.1594 11.4326 16.0892 11.4458C16.0655 11.4008 16.0418 11.3557 16.0184 11.3105C16.0017 11.3317 15.9291 11.4477 15.9133 11.4358C15.7853 11.3382 15.6938 11.3242 15.5922 11.3194C15.5494 11.1898 15.5648 11.2414 15.5282 11.0918C15.4946 11.0741 15.5055 11.1478 15.5163 11.2797C15.4205 11.2922 14.6115 11.112 14.6944 10.7753C14.7032 10.7387 14.7121 10.7021 14.721 10.6655C14.7755 10.5097 14.7866 10.5072 14.8091 10.5058C14.8672 10.5006 14.958 10.6152 15.0648 10.6494C15.2913 10.7251 15.5551 10.7525 15.8256 10.7963C15.925 10.8121 16.0251 10.8204 16.1172 10.8035C16.1619 10.795 16.1949 10.7468 16.2477 10.7643C16.3184 10.7879 16.4424 10.9519 16.424 10.7479C16.4083 10.5767 16.7959 10.5834 16.8676 10.5603C16.9473 10.5368 17.0068 10.4655 17.0808 10.4299C17.1343 10.4042 17.2119 10.4252 17.2605 10.3876C17.3101 10.3496 17.3307 10.2439 17.3767 10.2005C17.5975 9.99336 17.832 9.82139 18.0394 9.60359C18.0464 9.61049 18.1373 9.70595 18.1374 9.70533C18.1821 9.65885 18.2069 9.38684 18.3286 9.51781C18.3641 9.58036 18.402 9.64163 18.4386 9.7036C18.4437 9.69892 18.4484 9.69444 18.4527 9.69017C18.382 9.55719 18.4183 9.62426 18.3444 9.49019C18.3477 9.46686 18.3642 9.44627 18.376 9.43379C18.4183 9.40117 18.4677 9.3865 18.5139 9.36607C18.6269 9.31572 18.7 9.01707 18.9034 9.16202C18.9193 9.17328 18.9771 9.29358 19.0094 9.35669C19.0142 9.3542 19.019 9.35171 19.0237 9.34922C19.0025 9.28557 18.9475 9.13881 18.9606 9.13569C19.0312 9.11746 18.8993 8.75744 19.0868 9.00431C19.1262 8.96868 19.1005 8.82291 19.1586 8.8511C19.2145 8.94131 19.2391 8.98431 19.2968 9.08401C19.3032 9.08594 19.3097 9.08787 19.3161 9.0898C19.3032 9.03842 19.2868 8.97403 19.2672 8.89653C19.3266 8.78204 19.403 8.69186 19.5004 8.65291C19.5305 8.64092 19.5054 8.47854 19.5219 8.47534C19.6279 8.45182 19.6721 8.31151 19.7695 8.27532C19.7762 8.27261 19.8352 8.33085 19.8395 8.33253C19.8844 8.3498 19.9668 8.47329 19.9587 8.39291C19.9268 8.32432 19.8949 8.25572 19.8631 8.18713C19.86 8.16684 19.857 8.14655 19.854 8.12625C19.9137 8.19508 19.9062 8.18948 19.9798 8.29501C19.9742 8.19597 19.9189 8.13537 19.9288 8.11366C19.9414 8.08574 20.0998 8.13563 20.0951 8.09003C20.0866 8.00549 20.0377 7.89169 20.0589 7.82412C20.0732 7.84637 20.0874 7.86861 20.1017 7.89086C20.2165 8.06982 20.2274 8.09448 20.2786 8.12329C20.2744 8.10289 20.2701 8.08248 20.2658 8.06207C20.2165 7.98058 20.172 7.90652 20.1225 7.82296C20.0815 7.66779 20.4181 7.71926 20.4873 7.71589C20.5276 7.77458 20.5661 7.82923 20.6042 7.88082C20.6102 7.87718 20.6161 7.87354 20.6221 7.8699C20.6766 7.89221 20.7654 7.96751 20.8668 8.10895C20.902 8.18594 20.9371 8.26293 20.9722 8.33992C20.7023 8.0577 20.8668 9.05165 20.4461 8.31525C20.44 8.29789 20.4339 8.28053 20.4278 8.26317C20.384 8.13926 20.3673 8.07883 20.299 7.94186C20.2886 7.93551 20.2782 7.92917 20.2678 7.92282C20.3242 8.12112 20.4654 8.38634 20.5939 8.6457C20.6325 8.91367 20.4678 8.5256 20.4463 8.61993C20.4058 8.79541 20.4721 9.15106 20.303 9.07701C20.2127 9.03735 20.2259 9.03737 20.3021 9.26848C20.2497 9.31313 20.1861 9.20161 20.1074 9.17479C20.0812 9.16583 20.153 9.38927 20.108 9.40688C20.0411 9.29812 20.0681 9.34585 19.9985 9.20464C19.9902 9.1987 19.982 9.19275 19.9738 9.18681C20.0196 9.30971 19.9931 9.24484 20.065 9.39312C20.0587 9.39003 20.0524 9.38693 20.0462 9.38384C20.0215 9.34166 19.9968 9.29948 19.9721 9.2573C19.9303 9.24945 19.7295 9.78407 19.6991 9.75491C19.3275 9.39608 19.6631 10.0817 19.2998 9.76561C19.2767 9.74482 19.3356 10.0294 19.2766 10.0268C19.2129 9.95233 19.2051 9.93434 19.1231 9.80408C19.1148 9.80107 19.1064 9.79807 19.0981 9.79507C19.1532 9.93469 19.133 9.88637 19.202 10.0372C19.1995 10.0431 19.197 10.049 19.1945 10.0549C19.175 10.0296 19.1554 10.0044 19.1359 9.97908C19.1456 10.0816 19.1624 10.1076 19.1226 10.1042C19.0416 9.99144 18.9747 9.88587 18.9305 9.8585C18.9488 9.91739 18.9672 9.97628 18.9855 10.0352C18.9349 10.0409 18.8364 9.93061 18.8039 9.99984C18.7963 10.0162 18.7557 10.0724 18.7242 10.1242L18.7412 10.1155C18.7152 10.1599 18.6952 10.2006 18.7046 10.2129C18.4502 9.91442 18.7112 10.6063 18.3784 10.0925C18.3741 10.1539 18.3726 10.1968 18.3553 10.2389C18.2592 10.1295 18.2705 10.1238 18.2339 10.1307C18.264 10.2391 18.2953 10.3055 18.3588 10.4546C18.3553 10.4562 18.3517 10.4578 18.3481 10.4594C18.3239 10.4072 18.2998 10.3549 18.2756 10.3027C18.1604 10.1944 18.3149 10.6199 18.2083 10.6189C18.1997 10.6045 18.1911 10.59 18.1825 10.5755C18.1685 10.5288 18.1545 10.4822 18.1403 10.4356C18.0692 10.3332 18.0543 10.3263 17.9959 10.2617C18.0319 10.3713 18.0413 10.3918 18.0918 10.5194C18.0924 10.534 18.093 10.5485 18.0935 10.5631C18.0383 10.4693 17.9925 10.3941 17.9403 10.3134C17.9404 10.3267 17.9405 10.34 17.9406 10.3533C18.2292 11.0545 17.8686 10.5718 17.943 10.8283C17.9557 10.8589 17.9684 10.8895 17.9811 10.9202C17.9743 10.9273 17.9675 10.9344 17.9606 10.9416C17.9442 10.9091 17.9277 10.8767 17.9113 10.8442C17.8853 10.7652 17.8591 10.6862 17.8329 10.6072C17.8231 10.5919 17.8133 10.5765 17.8035 10.5611C17.7591 10.6871 17.7027 10.7732 17.6613 10.9084C17.6061 10.8229 17.6283 10.86 17.5662 10.7395C17.563 10.7452 17.5598 10.7509 17.5566 10.7566C17.6027 10.8903 17.648 11.0233 17.6926 11.1561C17.6396 11.2333 17.4758 10.9908 17.4653 11.1473C17.4602 11.2173 17.4533 11.2214 17.4099 11.189C17.3608 11.0749 17.3655 11.0782 17.3134 10.9824C17.3119 10.9903 17.3104 10.9983 17.3089 11.0062C17.3313 11.0679 17.3536 11.1296 17.376 11.1913C17.3712 11.193 17.3664 11.1947 17.3616 11.1964C17.3356 11.1419 17.3097 11.0874 17.2837 11.0329C17.2309 11.1511 17.3551 11.3616 17.1882 11.323C17.1774 11.3056 17.1666 11.2883 17.1557 11.2709C17.1348 11.2045 17.1138 11.1382 17.0928 11.072C17.0534 11.0544 17.0534 11.0487 17.0565 11.1277C17.0921 11.24 17.1011 11.2675 17.1425 11.3852C17.1144 11.4231 17.1029 11.3908 16.9984 11.1842ZM20.7914 21.6189C20.4477 21.9981 20.7808 21.9772 20.2402 21.8195C19.7945 21.689 20.0903 22.2482 19.4568 21.7274C19.451 21.8756 19.4522 21.8234 19.4816 21.9971C19.4002 22.0645 18.414 22.0693 18.2262 22.1031C18.191 22.0594 18.1559 22.0158 18.1208 21.9721C18.0617 22.0003 17.8106 22.1466 17.7768 22.1378C17.4939 22.0664 17.2621 22.0781 16.995 22.1064C16.936 21.98 16.9551 22.0309 16.9194 21.881C16.8359 21.8734 16.8338 21.9499 16.8125 22.0885C16.8066 22.089 16.7999 22.0896 16.7926 22.0902L16.5268 22.175L16.3717 21.8606C16.2917 21.5285 15.8545 19.7094 16.077 19.483C16.1119 19.4687 16.1467 19.4545 16.1816 19.4403C16.369 19.4714 16.4161 19.584 16.4616 19.6937C16.5916 20.0051 16.6042 20.3696 16.6795 20.7007C16.7523 21.0215 16.8271 21.3411 16.9006 21.6611L16.6741 21.5375C17.085 21.5062 17.4962 21.4769 17.91 21.4567C18.1831 21.4432 18.454 21.4247 18.7217 21.3813C18.8498 21.3603 18.9799 21.297 19.1125 21.3035C19.2908 21.3123 19.4988 21.4688 19.6106 21.2429C19.7049 21.0516 20.7709 20.9747 20.9835 20.9366C21.2215 20.8946 21.4486 20.8025 21.6839 20.7486C21.8566 20.709 22.0422 20.7208 22.2118 20.6694C22.3064 20.6409 22.3957 20.5911 22.4854 20.5424L22.5303 20.5281L22.5221 20.491C22.4887 20.4135 22.456 20.3358 22.437 20.256C22.2623 19.5248 22.1213 18.788 21.9512 18.0554L21.9537 18.0712C21.9243 17.9743 21.8956 17.8785 21.8674 17.7836C21.8751 17.774 21.9804 17.6387 21.9798 17.6375C21.9282 17.4658 21.64 17.0484 21.7973 16.882C21.8676 16.8638 21.9379 16.8457 22.0083 16.8277C22.0047 16.8105 22.0011 16.7934 21.9975 16.7762C21.8479 16.794 21.9235 16.7833 21.7722 16.8084C21.701 16.6684 21.698 16.435 21.6862 16.2075C21.6643 15.8405 21.4117 15.2536 21.6288 14.8975C21.6456 14.8695 21.7791 14.871 21.8499 14.8663C21.8496 14.8505 21.8493 14.8347 21.849 14.8189C21.7823 14.7934 21.626 14.7498 21.6286 14.7109C21.6419 14.4994 21.2604 14.3832 21.564 14.2055C21.5489 14.0548 21.4062 13.9356 21.4563 13.8187C21.5617 13.7868 21.611 13.7772 21.7257 13.7527C21.7302 13.7381 21.7346 13.7235 21.7391 13.7089C21.687 13.6772 21.6216 13.6381 21.5428 13.5909C21.4627 13.2888 21.4079 12.9767 21.401 12.6765C21.399 12.5829 21.2341 12.454 21.2354 12.4075C21.2411 12.1063 21.1081 11.8321 21.0815 11.5435C21.0795 11.5236 21.147 11.4377 21.1491 11.4282C21.1716 11.3331 21.3087 11.2536 21.2218 11.1871C21.1464 11.1945 21.0711 11.202 20.9957 11.2095C20.9737 11.1956 20.9517 11.1816 20.9297 11.1677C21.0063 11.0898 21 11.103 21.1162 11.027C21.0077 10.9347 20.9412 11.0123 20.9174 10.9642C20.8885 10.9056 20.9358 10.5518 20.8835 10.518C20.7884 10.4548 20.6637 10.4621 20.5841 10.3451C20.6078 10.3312 20.6315 10.3172 20.6552 10.3032C20.8453 10.1889 20.8722 10.1853 20.8967 10.0816C20.8736 10.0723 20.8505 10.0629 20.8273 10.0536C20.7412 10.1001 20.6626 10.1411 20.5737 10.185C20.4062 10.1398 20.3859 9.34726 20.3509 9.16892C20.4089 9.11943 20.4622 9.07014 20.5117 9.0187C20.5049 9.00041 20.4982 8.98245 20.4915 8.96425C20.4986 8.84671 20.5556 8.68595 20.6883 8.54739C20.7703 8.52531 20.8522 8.50332 20.9342 8.48141C20.7015 8.91669 21.8701 9.45804 21.089 9.83891C21.0697 9.8376 21.0505 9.8363 21.0313 9.83502C20.8941 9.82652 20.8261 9.81089 20.6791 9.85373C20.6739 9.87417 20.6687 9.89452 20.6634 9.91479C20.8854 9.96126 21.169 9.85977 21.4481 9.7825C21.7581 9.95683 21.3338 9.99629 21.4474 10.1499C21.6579 10.4416 22.0568 10.6623 21.9746 11.0443C21.9291 11.2444 21.929 11.2078 22.1817 11.2738C22.2254 11.4704 22.1015 11.5152 22.0625 11.6956C22.0493 11.7553 22.2914 11.8348 22.3002 11.9803C22.1768 12.0284 22.2305 12.0139 22.0737 12.029C22.0661 12.0441 22.0583 12.0593 22.0506 12.0744C22.1839 12.102 22.113 12.0938 22.2774 12.0821C22.2729 12.0955 22.2685 12.109 22.264 12.1224C22.2162 12.1372 22.1685 12.152 22.1208 12.1667C22.1139 12.2653 22.5491 13.5023 22.5032 13.5473C22.0228 14.0763 22.7839 14.0712 22.343 14.6238C22.3143 14.6585 22.5972 14.8667 22.5711 15.017C22.4772 15.0895 22.4577 15.0867 22.3055 15.1371C22.2994 15.1552 22.2934 15.1733 22.2873 15.1914C22.4376 15.2229 22.3852 15.2149 22.5512 15.2239C22.5557 15.2378 22.5602 15.2517 22.5647 15.2656C22.5339 15.2848 22.503 15.3042 22.4722 15.3235C22.5711 15.4254 22.6016 15.4137 22.5841 15.5125C22.4495 15.5839 22.3267 15.6278 22.286 15.7096C22.348 15.7343 22.4101 15.7587 22.4722 15.783C22.4614 15.9216 22.3253 16.044 22.3848 16.2122C22.4081 16.2848 22.5467 16.7946 22.5797 16.7677C22.2253 17.0511 22.9866 17.195 22.4096 17.4468C22.4757 17.5284 22.5231 17.5854 22.5679 17.6705C22.4458 17.7904 22.4406 17.7614 22.449 17.8648C22.5689 17.9057 22.6418 17.8958 22.8057 17.8912C22.8066 17.8964 22.8075 17.9016 22.8085 17.9069L22.8154 17.9513C22.816 17.9568 22.8166 17.9623 22.8172 17.9678C22.7595 17.9704 22.7019 17.9729 22.6442 17.9754C22.5153 18.144 22.9801 18.2417 22.9651 18.5137C22.9489 18.5198 22.9328 18.526 22.9166 18.5321C22.8661 18.5153 22.8157 18.4985 22.7652 18.4817C22.6497 18.5529 22.6407 18.5849 22.5662 18.6655C22.6851 18.696 22.7076 18.6942 22.8469 18.7062C22.8622 18.7209 22.8774 18.7355 22.8926 18.7502C22.7879 18.7888 22.7038 18.8225 22.6134 18.8692C22.6274 18.8845 22.6414 18.8998 22.6553 18.9151C23.4218 18.9487 22.8749 19.3472 23.1518 19.4386C23.1852 19.4388 23.2185 19.439 23.2519 19.4393C23.2585 19.4646 23.2652 19.4898 23.2718 19.5151C23.2361 19.5228 23.2004 19.5305 23.1647 19.5382C23.0794 19.5205 22.994 19.5029 22.9087 19.4853C22.8915 19.4941 22.8744 19.5029 22.8572 19.5118C22.9835 19.7632 23.0682 20.0091 23.2054 20.2604C23.1105 20.3152 23.1515 20.2959 23.0195 20.3323C23.0252 20.3468 23.0309 20.3614 23.0366 20.376C23.1051 20.3853 23.1734 20.3948 23.2416 20.4044L23.3765 21.0152L22.6372 21.251C22.6335 21.327 22.6296 21.4028 22.6255 21.4785C22.4212 21.5722 22.2117 21.3226 22.044 21.501C21.9687 21.5807 21.946 21.5866 21.8618 21.5566C21.8362 21.4351 21.8455 21.438 21.7953 21.3378C21.7841 21.347 21.7729 21.3562 21.7617 21.3655C21.7649 21.4318 21.7681 21.4981 21.7713 21.5645C21.7573 21.5671 21.7434 21.5698 21.7294 21.5724C21.7101 21.5149 21.6907 21.4574 21.6714 21.3998C21.428 21.542 21.5684 21.7594 21.1694 21.7429C21.156 21.7251 21.1426 21.7073 21.1292 21.6895C21.1311 21.6183 21.133 21.547 21.1349 21.4758C21.0466 21.4627 21.051 21.4563 20.992 21.5449C20.99 21.6654 20.9903 21.6948 20.9993 21.8204C20.8948 21.8678 20.8924 21.8333 20.7914 21.6189ZM17.7468 19.6957C17.7315 20.0135 17.83 20.0342 17.6248 19.8186C17.455 19.6409 17.6855 20.2061 17.3587 19.6373C17.3941 19.7769 17.3814 19.7276 17.4342 19.8955C17.4264 19.9491 17.1207 19.8383 17.0695 19.8494C17.047 19.8042 17.0245 19.759 17.002 19.7138C16.9909 19.7336 16.9508 19.8431 16.9377 19.8311C16.8285 19.7323 16.7595 19.717 16.6818 19.7144C16.6286 19.5891 16.6485 19.6391 16.5962 19.4942C16.5673 19.4779 16.5875 19.5497 16.6186 19.6777C16.5378 19.6684 15.9653 19.6263 15.8247 19.3656C15.8112 19.3305 15.7977 19.2953 15.7842 19.2602C15.7513 19.097 15.7816 19.081 15.811 19.0659C15.8937 19.0225 16.0243 19.0989 16.1267 19.111C16.3519 19.1372 16.5698 19.1554 16.7994 19.2038C16.8821 19.2219 16.9657 19.2344 17.0388 19.2244C17.0735 19.2195 17.0999 19.1741 17.1436 19.1958C17.203 19.2246 17.3063 19.3977 17.2863 19.1965C17.2695 19.0257 17.5885 19.0802 17.6466 19.0705C17.712 19.0597 17.7616 19.0003 17.824 18.9783C17.8696 18.9622 17.9296 18.9971 17.972 18.9695C18.015 18.9418 18.0366 18.8441 18.0786 18.8109C18.2739 18.6547 18.4847 18.5434 18.6868 18.3891C18.6914 18.3975 18.7516 18.5126 18.7519 18.5121C18.7938 18.4796 18.8596 18.2267 18.9377 18.3859C18.9568 18.4552 18.9758 18.5246 18.9949 18.5939C18.9992 18.5911 19.0034 18.5883 19.0077 18.5855C18.9731 18.4389 18.991 18.513 18.954 18.3645C18.9798 18.3008 19.0454 18.3043 19.1066 18.2936C19.2051 18.276 19.3138 18.0111 19.4537 18.2064C19.4646 18.2217 19.4908 18.3525 19.5062 18.4217C19.5104 18.4207 19.5146 18.4197 19.5189 18.4187C19.5124 18.3521 19.493 18.1968 19.5041 18.1976C19.5637 18.2004 19.5207 17.82 19.6282 18.1087C19.6661 18.0862 19.6717 17.9402 19.7134 17.9839C19.7421 18.0859 19.754 18.1339 19.7822 18.2455C19.787 18.2492 19.7917 18.2529 19.7965 18.2567C19.7954 18.2041 19.7939 18.1381 19.7923 18.0588C19.861 17.9675 19.939 17.9046 20.0249 17.8969C20.0511 17.8947 20.0624 17.7332 20.0764 17.7351C20.1663 17.7448 20.229 17.6256 20.3148 17.6213C20.3207 17.6208 20.3559 17.6941 20.359 17.6971C20.3912 17.7273 20.4317 17.8697 20.4415 17.7912C20.4301 17.7164 20.4187 17.6416 20.4073 17.5668C20.4091 17.5467 20.4109 17.5266 20.4127 17.5065C20.4462 17.5901 20.4414 17.5824 20.4784 17.7051C20.4945 17.6097 20.4628 17.5352 20.4752 17.5178C20.4909 17.4953 20.6066 17.5922 20.6125 17.5476C20.6235 17.4651 20.6085 17.3422 20.6396 17.2851C20.6462 17.3106 20.6528 17.3361 20.6595 17.3616C20.713 17.5669 20.7164 17.5936 20.751 17.6371C20.7519 17.6165 20.7528 17.5959 20.7537 17.5752C20.7318 17.4827 20.7121 17.3987 20.6904 17.3041C20.691 17.1444 20.948 17.3002 21.0029 17.3195C21.0221 17.3877 21.0407 17.4517 21.0596 17.5125C21.0651 17.511 21.0706 17.5095 21.076 17.508C21.1142 17.5466 21.1681 17.6462 21.2175 17.8123C21.2285 17.8962 21.2396 17.98 21.2506 18.0639C21.0978 17.7108 21.0196 18.7002 20.8431 17.8714C20.8419 17.8531 20.8407 17.8348 20.8396 17.8165C20.8311 17.6856 20.8308 17.6233 20.8057 17.4723C20.7988 17.463 20.7918 17.4537 20.7849 17.4444C20.7874 17.6495 20.8434 17.9446 20.8904 18.2303C20.8653 18.4953 20.8163 18.0768 20.78 18.1589C20.712 18.3117 20.6936 18.6681 20.5761 18.5451C20.5133 18.4793 20.5235 18.4835 20.5382 18.7256C20.4892 18.7513 20.4608 18.6262 20.4044 18.5764C20.3856 18.5598 20.3991 18.7932 20.3612 18.7959C20.3295 18.6725 20.3416 18.7259 20.3138 18.5709C20.3085 18.5628 20.3032 18.5546 20.2978 18.5465C20.3105 18.6768 20.302 18.6073 20.3303 18.7697C20.326 18.7648 20.3217 18.7599 20.3174 18.7551C20.306 18.7076 20.2946 18.6601 20.2832 18.6126C20.2506 18.5922 19.9991 19.0373 19.9816 19.0008C19.7529 18.5504 19.9004 19.2993 19.6691 18.8936C19.6541 18.8671 19.6553 19.1543 19.6102 19.1348C19.5721 19.0459 19.5688 19.0266 19.5247 18.8794C19.5186 18.8742 19.5125 18.869 19.5064 18.8638C19.5281 19.0121 19.5197 18.9605 19.5507 19.1233C19.5479 19.1283 19.545 19.1332 19.5422 19.1381C19.5308 19.1085 19.5194 19.0789 19.508 19.0494C19.5002 19.1495 19.5096 19.179 19.4792 19.1646C19.4327 19.0345 19.3958 18.9154 19.3651 18.877C19.3708 18.9382 19.3766 18.9993 19.3824 19.0604C19.3421 19.0517 19.2805 18.9196 19.2451 18.9766C19.2298 19.001 19.1112 19.122 19.1248 19.1536C18.9733 18.7963 19.0781 19.5268 18.8912 18.9457C18.8793 19.0029 18.8718 19.0435 18.8541 19.0786C18.7943 18.9483 18.8022 18.9463 18.7722 18.9431C18.7825 19.0545 18.7993 19.1259 18.8315 19.2846C18.8287 19.2852 18.8258 19.2858 18.823 19.2863C18.8102 19.2302 18.7973 19.1741 18.7845 19.118C18.7091 18.9841 18.7798 19.4302 18.7003 19.4017C18.695 19.3857 18.6898 19.3697 18.6845 19.3538C18.6783 19.3057 18.6721 19.2577 18.6659 19.2096C18.6206 19.094 18.6095 19.0838 18.5701 19.0076C18.5873 19.1213 18.5928 19.1432 18.62 19.2776C18.6191 19.2916 18.6183 19.3056 18.6175 19.3197C18.5835 19.2163 18.5553 19.1332 18.5218 19.0434C18.5205 19.0562 18.5192 19.069 18.5179 19.0819C18.6787 19.8222 18.4443 19.2735 18.4811 19.5372C18.4887 19.5694 18.4963 19.6016 18.5039 19.6338C18.4983 19.6391 18.4927 19.6443 18.4871 19.6496C18.4767 19.6147 18.4663 19.5799 18.4559 19.545C18.4411 19.4634 18.4265 19.3817 18.4119 19.3001C18.4054 19.2831 18.3989 19.2661 18.3925 19.2491C18.3492 19.3597 18.2999 19.4302 18.261 19.5515C18.2227 19.4577 18.238 19.4981 18.1959 19.3692C18.1931 19.3741 18.1903 19.3789 18.1876 19.3838C18.2168 19.5219 18.2458 19.6591 18.2747 19.7958C18.234 19.8583 18.1144 19.5931 18.1035 19.7416C18.0984 19.8078 18.093 19.8105 18.0605 19.7711C18.0253 19.652 18.0289 19.656 17.9909 19.5541C17.9895 19.5614 17.9881 19.5688 17.9868 19.5762C18.0027 19.6398 18.0187 19.7034 18.0347 19.767C18.031 19.7678 18.0274 19.7685 18.0237 19.7693C18.0047 19.712 17.9857 19.6547 17.9667 19.5975C17.9238 19.7022 18.018 19.9266 17.8921 19.8606C17.8839 19.842 17.8756 19.8234 17.8673 19.8048C17.8512 19.7373 17.8352 19.6698 17.8192 19.6022C17.7888 19.5788 17.7886 19.5733 17.7911 19.6503C17.8187 19.7645 17.8258 19.7926 17.8581 19.9131C17.8374 19.9451 17.8287 19.9119 17.7468 19.6957ZM14.5725 2.70469C14.7726 2.36845 14.5665 2.35273 14.9078 2.56702C15.1891 2.74419 14.9859 2.16092 15.3975 2.74318C15.3959 2.5977 15.397 2.64909 15.3727 2.47469C15.4208 2.41711 16.0331 2.51977 16.1486 2.50696C16.1719 2.55381 16.1953 2.60066 16.2186 2.64752C16.2543 2.6262 16.4051 2.50935 16.4264 2.52167C16.6046 2.62284 16.7482 2.63657 16.913 2.63784C16.9541 2.76881 16.9405 2.71656 16.9679 2.86814C17.02 2.88474 17.0186 2.80959 17.027 2.67534C17.1991 2.68186 18.3987 2.72188 18.5288 2.99863C18.5356 3.03567 18.5424 3.07271 18.5492 3.10975C18.519 3.28133 18.4466 3.29783 18.3761 3.31355C18.1756 3.35885 17.9492 3.27815 17.7398 3.26596C17.2823 3.23909 16.8281 3.22358 16.3676 3.17839C16.1984 3.16197 16.0309 3.15071 15.8662 3.16429C15.7873 3.17098 15.7088 3.21927 15.6262 3.19834C15.5152 3.17025 15.3805 2.99338 15.319 3.2039C15.2672 3.38208 14.6078 3.3418 14.4772 3.35615C14.3308 3.37162 14.193 3.43767 14.0488 3.46517C13.9429 3.4853 13.8272 3.45354 13.7238 3.48565C13.6644 3.5039 13.6094 3.5449 13.554 3.58412L13.5064 3.60015L13.5172 3.63455C13.5459 3.67058 13.5761 3.72471 13.5913 3.76589C13.7627 4.25966 13.8914 4.76271 14.0671 5.25545C14.0587 5.26187 13.944 5.34881 13.9447 5.34985C13.982 5.45508 14.2495 5.68677 14.0915 5.79807C14.0213 5.81489 13.9512 5.83172 13.881 5.84855C13.8844 5.85894 13.8877 5.86937 13.891 5.87981C14.0398 5.85635 13.9646 5.86921 14.1152 5.84114C14.184 5.92199 14.1857 6.05732 14.2033 6.19607C14.2311 6.41445 14.5168 6.73138 14.3307 6.97396C14.3162 6.99316 14.184 7.01101 14.1142 7.02379C14.1158 7.03335 14.1173 7.04293 14.1189 7.05251C14.187 7.05878 14.3453 7.06258 14.3458 7.08609C14.3499 7.21431 14.7378 7.22998 14.4526 7.38059C14.4805 7.46878 14.632 7.52064 14.5922 7.59908C14.4905 7.63348 14.4425 7.64641 14.3309 7.67736C14.3277 7.68678 14.3245 7.6962 14.3212 7.70562C14.3754 7.71741 14.4433 7.73193 14.525 7.74961C14.6282 7.92253 14.7035 8.10748 14.7233 8.29457C14.7293 8.35224 14.8974 8.41576 14.8973 8.44527C14.8999 8.6365 15.0319 8.80039 15.0489 8.98578C15.0503 8.99869 14.9801 9.05865 14.9776 9.06476C14.9513 9.12773 14.8109 9.18456 14.8933 9.22337C14.9685 9.21495 15.0437 9.20652 15.1189 9.19809C15.1399 9.20629 15.1608 9.21448 15.1818 9.22267C15.1009 9.27699 15.108 9.26817 14.9874 9.32182C15.0879 9.37662 15.1598 9.32434 15.1796 9.35471C15.205 9.3928 15.1237 9.62477 15.1703 9.64606C15.2568 9.68651 15.3807 9.67859 15.4444 9.75841C15.4193 9.76762 15.3941 9.77684 15.369 9.78605C15.1665 9.86074 15.1396 9.86275 15.1004 9.92902C15.1218 9.93514 15.1431 9.94126 15.1644 9.94737C15.2561 9.91849 15.3393 9.8927 15.433 9.86476C15.5967 9.89533 15.4786 10.4238 15.468 10.5388C15.401 10.5672 15.3385 10.5959 15.2792 10.6259C15.2817 10.6383 15.2841 10.6507 15.2866 10.663C15.2535 10.7396 15.1602 10.8375 14.9979 10.9132C14.9136 10.9216 14.8293 10.93 14.7451 10.9384C15.0822 10.6745 14.0516 10.3038 14.8744 10.0818C14.893 10.083 14.9117 10.0841 14.9303 10.0853C15.0635 10.0932 15.1275 10.1049 15.2785 10.0803C15.287 10.0671 15.2954 10.0539 15.3038 10.0407C15.0934 10.005 14.7992 10.0679 14.5132 10.1129C14.2367 10.0041 14.659 9.9822 14.5685 9.88509C14.4004 9.70415 14.0301 9.58347 14.138 9.3511C14.1957 9.22658 14.1931 9.24872 13.946 9.22538C13.9116 9.10977 14.0362 9.07645 14.0787 8.96296C14.0929 8.92533 13.8543 8.89974 13.8456 8.81379C13.9681 8.77321 13.9148 8.78714 14.0704 8.76311C14.078 8.7533 14.0856 8.74349 14.0932 8.73368C13.9607 8.73009 14.0311 8.72817 13.8679 8.75129C13.8723 8.74287 13.8766 8.73445 13.881 8.72604C13.9282 8.71241 13.9755 8.6988 14.0227 8.68517C14.0389 8.62093 13.5421 7.94139 13.5774 7.90961C14.0114 7.52582 13.2566 7.6389 13.6459 7.24033C13.6714 7.21572 13.3739 7.12875 13.3883 7.03228C13.4757 6.97492 13.4953 6.97376 13.6424 6.92234C13.6471 6.91048 13.6518 6.89862 13.6565 6.88678C13.5054 6.88784 13.5579 6.88566 13.3928 6.90237C13.3873 6.89445 13.3819 6.88666 13.3764 6.87851C13.4057 6.86241 13.4349 6.84632 13.4642 6.83024C13.3593 6.7794 13.3298 6.79041 13.3411 6.72672C13.4705 6.6655 13.5898 6.62306 13.6261 6.56799C13.5634 6.56063 13.5005 6.55225 13.4378 6.54444C13.4419 6.45576 13.5723 6.36471 13.5093 6.26635C13.482 6.22213 13.3441 5.91504 13.3125 5.93205C13.6691 5.72921 12.919 5.68102 13.5063 5.4907C13.4456 5.44151 13.4026 5.40781 13.3646 5.35505C13.495 5.27398 13.4978 5.29292 13.4987 5.22857C13.3836 5.2059 13.3107 5.21433 13.1482 5.22157C13.1473 5.21484 13.1465 5.20813 13.1456 5.20144C13.203 5.19567 13.2603 5.1899 13.3176 5.18413C13.4507 5.07144 12.9918 5.0435 13.0152 4.87762C13.0315 4.87275 13.0477 4.86787 13.064 4.863C13.1135 4.86921 13.163 4.87552 13.2126 4.88191C13.3295 4.83021 13.3395 4.81114 13.4157 4.75437C13.2984 4.74381 13.2761 4.74659 13.1381 4.74931C13.1234 4.74136 13.1087 4.73347 13.0941 4.72563C13.1992 4.69437 13.2837 4.66765 13.375 4.63286C13.3616 4.62476 13.3482 4.61672 13.3348 4.60874C12.5744 4.64096 13.1292 4.35512 12.8576 4.32335C12.8245 4.32556 12.7913 4.32767 12.7582 4.32984C12.7522 4.31388 12.7463 4.29823 12.7404 4.2829C12.7761 4.27553 12.8117 4.26816 12.8474 4.2608C12.9316 4.26557 13.0159 4.27071 13.1003 4.2762C13.1175 4.26929 13.1348 4.26241 13.1521 4.25554C13.0343 4.11123 12.9579 3.9684 12.8285 3.81914C12.9244 3.77913 12.8832 3.79414 13.0156 3.76362C13.0104 3.75543 13.0046 3.74294 12.9996 3.73575C12.9425 3.73891 12.8837 3.72956 12.8274 3.73658L12.646 3.16336L13.4393 2.89625C13.4389 2.81173 13.4386 2.72746 13.4385 2.64335C13.562 2.57319 13.7009 2.84205 13.7988 2.68446C13.8428 2.61417 13.8567 2.61083 13.91 2.64953C13.9301 2.77208 13.9243 2.76814 13.959 2.87241C13.9656 2.86453 13.9722 2.85665 13.9789 2.84876C13.9745 2.78305 13.9702 2.71734 13.9659 2.65163C13.9745 2.65053 13.9831 2.64942 13.9916 2.64832C14.0057 2.70713 14.0197 2.76595 14.0337 2.82477C14.1799 2.71118 14.0851 2.48158 14.3334 2.54132C14.3424 2.56031 14.3513 2.57931 14.3603 2.59831C14.3616 2.66832 14.3629 2.73834 14.3642 2.80836C14.4195 2.83087 14.417 2.83669 14.4506 2.75575C14.4476 2.63728 14.4463 2.60824 14.4364 2.48349C14.4996 2.44817 14.5023 2.48243 14.5725 2.70469ZM14.0338 10.3611C14.0046 10.063 13.9761 10.0179 14.0496 10.2764C14.1149 10.4888 13.9812 9.89484 14.1417 10.5171C14.1137 10.3761 14.1236 10.426 14.0869 10.2539C14.0799 10.2056 14.1784 10.3899 14.1931 10.3925C14.207 10.4406 14.221 10.4887 14.2351 10.5368C14.2354 10.521 14.2293 10.4291 14.2352 10.4437C14.2849 10.564 14.3104 10.5955 14.336 10.6176C14.3758 10.7476 14.3604 10.6961 14.4035 10.844C14.4162 10.8663 14.3969 10.7944 14.3634 10.6677C14.3896 10.6971 14.5995 10.8779 14.7105 11.1502C14.723 11.1858 14.7354 11.2213 14.7478 11.2569C14.7939 11.4148 14.7848 11.4225 14.7761 11.4296C14.7514 11.4504 14.6851 11.3493 14.6436 11.3137C14.5519 11.2362 14.467 11.1671 14.3792 11.0657C14.3472 11.0285 14.3174 10.9961 14.294 10.9875C14.2828 10.9837 14.2797 11.02 14.2626 10.9888C14.2391 10.9469 14.1869 10.757 14.2157 10.9528C14.2393 11.119 14.1289 10.9888 14.1132 10.9834C14.0941 10.9774 14.0819 11.0221 14.0638 11.0279C14.0507 11.032 14.0312 10.9836 14.0197 10.9996C14.008 11.0156 14.0027 11.1045 13.9899 11.1262C13.93 11.229 13.8593 11.2854 13.7799 11.3851C13.7792 11.3758 13.7729 11.2494 13.7728 11.2499C13.7584 11.2711 13.7049 11.4995 13.7023 11.3262C13.7061 11.2544 13.7099 11.1827 13.7139 11.1109C13.7124 11.1126 13.7109 11.1143 13.7093 11.1159C13.6991 11.2662 13.7041 11.1901 13.6944 11.3429C13.6776 11.3981 13.6577 11.3784 13.6376 11.3735C13.6074 11.3664 13.5195 11.5934 13.5188 11.3711C13.5188 11.3538 13.5393 11.2219 13.5497 11.1518C13.5484 11.1517 13.547 11.1517 13.5457 11.1516C13.5335 11.217 13.5054 11.3705 13.5023 11.3671C13.4869 11.3498 13.4095 11.7234 13.446 11.421C13.4298 11.433 13.3917 11.5705 13.3901 11.5184C13.4075 11.4142 13.4162 11.3656 13.4366 11.2524C13.4363 11.2477 13.4359 11.243 13.4356 11.2383C13.4227 11.2886 13.4063 11.3516 13.3861 11.4273C13.3429 11.4968 13.3014 11.5362 13.2744 11.5216C13.2664 11.5172 13.2148 11.6661 13.211 11.6606C13.1872 11.6284 13.1305 11.7235 13.1033 11.7051C13.1013 11.7041 13.1151 11.6266 13.1152 11.6231C13.1157 11.5866 13.1518 11.4439 13.1229 11.5143C13.1011 11.5868 13.0793 11.6592 13.0574 11.7316C13.0501 11.7498 13.0427 11.768 13.0353 11.7862C13.0537 11.6998 13.0525 11.7081 13.0837 11.5848C13.0467 11.6691 13.0301 11.7463 13.0205 11.7593C13.0078 11.7759 13.0079 11.6561 12.9906 11.6957C12.9582 11.769 12.9186 11.8862 12.8883 11.9304C12.8956 11.9051 12.9028 11.8799 12.9101 11.8547C12.9688 11.6516 12.9777 11.6262 12.9839 11.5773C12.9762 11.596 12.9684 11.6147 12.9606 11.6334C12.933 11.7242 12.9079 11.8066 12.8798 11.8993C12.8202 12.0456 12.8011 11.8337 12.7944 11.802C12.8155 11.7347 12.8351 11.6716 12.8536 11.6112C12.8515 11.6112 12.8495 11.6111 12.8475 11.6111C12.8522 11.566 12.877 11.4614 12.9299 11.298C12.96 11.2189 12.9901 11.1399 13.0202 11.0608C12.9231 11.4219 13.3056 10.5332 13.0448 11.3383C13.0384 11.3554 13.032 11.3726 13.0256 11.3897C12.98 11.5121 12.9571 11.5694 12.9082 11.7144C12.9067 11.7247 12.9052 11.735 12.9037 11.7454C12.9788 11.5566 13.0711 11.2708 13.1632 10.9964C13.263 10.7581 13.1253 11.1559 13.163 11.089C13.2333 10.9648 13.3549 10.6375 13.3379 10.7793C13.3296 10.8554 13.3296 10.8493 13.4027 10.6195C13.4199 10.6066 13.3863 10.7303 13.3829 10.7902C13.3819 10.8102 13.4493 10.5878 13.4568 10.5939C13.4267 10.7174 13.44 10.6643 13.4001 10.8166C13.3988 10.8255 13.3975 10.8344 13.3962 10.8433C13.4318 10.7177 13.4131 10.7851 13.4549 10.6257C13.4542 10.6312 13.4536 10.6368 13.4531 10.6424C13.4415 10.6897 13.43 10.7371 13.4185 10.7845C13.4232 10.8123 13.5875 10.4479 13.5777 10.4858C13.5152 10.9685 13.655 10.2182 13.6099 10.6603C13.6079 10.6892 13.6638 10.4129 13.6667 10.442C13.6568 10.5364 13.6539 10.5558 13.6354 10.7077C13.6356 10.7142 13.6359 10.7206 13.6361 10.7271C13.6588 10.5792 13.6511 10.6309 13.6743 10.4667C13.6756 10.4627 13.6769 10.4586 13.6782 10.4545C13.675 10.4856 13.6719 10.5168 13.6688 10.5479C13.6873 10.4532 13.6903 10.4225 13.6929 10.4435C13.6795 10.5799 13.6673 10.7035 13.6674 10.7478C13.6762 10.6875 13.6848 10.6271 13.6931 10.5667C13.6988 10.5845 13.6916 10.7269 13.707 10.6802C13.7141 10.6603 13.7519 10.5715 13.7523 10.5376C13.7449 10.9203 13.7942 10.187 13.7791 10.7956C13.7871 10.743 13.7922 10.7055 13.7987 10.6758C13.8014 10.8168 13.7998 10.8167 13.8065 10.8271C13.8125 10.7167 13.8138 10.6434 13.8174 10.4816C13.818 10.4817 13.8185 10.4819 13.8191 10.482C13.8182 10.5396 13.8172 10.5971 13.8163 10.6546C13.8248 10.8029 13.8352 10.3531 13.8468 10.4004C13.8472 10.4172 13.8477 10.4339 13.8481 10.4507C13.8476 10.4988 13.8469 10.5469 13.8462 10.595C13.8508 10.7182 13.8529 10.7309 13.859 10.8144C13.8598 10.7 13.8594 10.6775 13.8582 10.5406C13.8588 10.5272 13.8594 10.5138 13.86 10.5004C13.8638 10.6089 13.8673 10.6964 13.8721 10.7916C13.8729 10.7795 13.8737 10.7675 13.8744 10.7554C13.8581 9.99864 13.8936 10.5883 13.8882 10.3241C13.8866 10.2911 13.885 10.258 13.8834 10.225C13.8843 10.2213 13.8852 10.2177 13.886 10.2141C13.8882 10.2503 13.8905 10.2866 13.8928 10.3229C13.8963 10.4055 13.8995 10.4881 13.9025 10.5707C13.9039 10.5887 13.9052 10.6067 13.9066 10.6248C13.9167 10.5287 13.9264 10.4731 13.9302 10.3663C13.9413 10.4664 13.9367 10.4236 13.95 10.5584C13.9505 10.5544 13.951 10.5505 13.9515 10.5465C13.9406 10.4061 13.9292 10.2666 13.9172 10.1278C13.9199 10.0784 13.9586 10.3639 13.952 10.2244C13.9486 10.1622 13.9491 10.1611 13.9584 10.2073C13.9742 10.3305 13.9731 10.3257 13.9884 10.4332C13.9882 10.4265 13.988 10.4198 13.9878 10.413C13.9799 10.348 13.9719 10.2829 13.9639 10.2179C13.9646 10.2181 13.9652 10.2184 13.9659 10.2186C13.9742 10.2784 13.9825 10.3381 13.9909 10.3979C13.9932 10.3087 13.9533 10.0699 13.985 10.166C13.9885 10.1859 13.9921 10.2058 13.9956 10.2257C14.0056 10.2943 14.0154 10.3628 14.0251 10.4315C14.0344 10.4617 14.0352 10.4669 14.0275 10.3929C14.0103 10.2768 14.0059 10.2483 13.9867 10.1251C13.9877 10.1002 13.9928 10.134 14.0338 10.3611Z" fill="black"/>
</svg>
