<svg width="24" height="24" viewBox="0 0 24 24" fill="none" xmlns="http://www.w3.org/2000/svg">
<path d="M15.0557 15.4247V19.6963C15.0557 20.2098 14.3595 20.6428 13.8334 20.6428L1.95653 20.63C1.43044 20.63 1 20.2098 1 19.6963V4.29061C1 3.77709 1.43044 3.35693 1.95653 3.35693H14.4392C14.9653 3.35693 14.7501 3.77709 14.7501 4.29061V8.56218C14.7501 9.0757 14.3595 9.30898 13.8334 9.30898C13.3073 9.30898 13.4349 9.0757 13.4349 8.56218V6.17658C13.4349 5.11756 12.6094 4.24212 11.5522 4.18002L3.43342 3.70315C2.29279 3.63615 1.32795 4.53671 1.31626 5.67925L1.18849 18.1679C1.17698 19.2935 2.09631 20.2069 3.22183 20.1881L11.8827 20.0432C13.1822 20.0215 14.1161 18.7855 13.7821 17.5295L13.2895 15.6773C13.2449 15.5096 13.218 15.3365 13.2315 15.1635C13.2641 14.7455 13.3969 14.3794 13.8334 14.3794C14.3595 14.3794 15.0557 14.9112 15.0557 15.4247ZM22.7132 11.2932L18.9827 7.60516C18.6001 7.23169 18.0023 7.23169 17.6197 7.60516C17.2588 7.95744 19.801 9.88803 20.4118 10.4194C20.4717 10.4715 20.5153 10.5375 20.5449 10.6111C20.6963 10.987 20.4196 11.3968 20.0143 11.3968H10.3862C9.82186 11.3968 9.30601 11.713 8.76403 11.8704C7.9574 12.1045 7.19353 11.6008 7.19353 11.9934C7.19353 12.507 7.62397 12.9271 8.15006 12.9271L20.3818 12.5353C20.856 12.5201 21.1532 13.0425 20.8978 13.4423C20.8735 13.4803 20.8458 13.5151 20.8115 13.5444C20.2599 14.0157 17.2734 15.9745 17.6197 16.335C17.811 16.5218 18.0501 16.6151 18.2893 16.6151C18.5284 16.6151 18.7914 16.5218 18.9588 16.335L22.7132 12.647C23.0958 12.2502 23.0958 11.6667 22.7132 11.2932Z" fill="#34140B"/>
<path d="M1.8993 5.87293C2.11187 8.04256 2.16828 6.32142 1.93169 8.90408C1.73624 11.0329 2.22371 10.1404 1.69207 12.7969C1.80305 12.9897 1.76374 12.9259 1.90162 12.9676C1.92694 13.3383 1.81238 16.3187 1.7488 18.1736C1.72857 18.6082 1.91304 18.9317 2.01762 19.0698C2.04432 19.1705 2.08337 19.2717 2.135 19.3704C2.26296 19.5056 2.82412 19.7638 3.21382 19.709C3.43735 19.6974 3.60933 19.6904 3.65953 19.6933C5.02615 19.7719 6.22188 19.7811 7.61526 19.7801C7.77941 19.8842 7.73716 19.8426 7.7575 19.9633C8.17536 19.9759 8.26843 19.9159 8.52675 19.8086C8.98016 19.8096 10.2824 19.8119 11.879 19.8215C12.9066 19.8951 13.9744 18.7228 13.6582 17.5624C13.5068 16.9162 13.3603 16.2834 13.2267 15.694C13.1861 15.5167 13.166 15.3349 13.1866 15.16C13.211 14.9594 13.2549 14.7589 13.3656 14.6004C13.4744 14.4375 13.6679 14.3707 13.8334 14.3839C14.7798 14.5348 14.9953 15.3424 14.9017 15.4131C14.8722 15.4178 14.8426 15.4217 14.8131 15.4247C14.7131 15.171 14.2022 14.7583 13.8334 14.7575C13.8316 14.7575 13.8297 14.7576 13.8279 14.7576C13.7301 14.7682 13.7415 14.7642 13.6944 14.8265C13.652 14.8932 13.6163 15.0377 13.6027 15.1924C13.5909 15.3072 13.6056 15.4404 13.6402 15.5841C13.7911 16.2044 13.9359 16.8284 14.0805 17.4501C14.245 18.1206 14.0796 18.8497 13.6733 19.3764C13.2563 19.9334 12.5701 20.272 11.8864 20.2644C8.99725 20.254 6.11282 20.2458 3.22246 20.2257C2.89013 20.224 2.56071 20.1396 2.27216 19.9824C1.61124 19.6299 1.19389 18.8975 1.22329 18.1683C1.24239 17.5015 1.25873 16.834 1.27069 16.1641C1.2826 15.4877 1.26282 14.7549 1.29655 14.0861C1.34187 13.1866 1.50545 12.298 1.35859 11.4796C1.26554 10.9623 1.33895 7.74039 1.38902 5.67999C1.40444 4.99915 1.77184 4.54211 1.95863 4.35953C2.33989 3.97469 2.88434 3.75853 3.42852 3.78673C4.12025 3.81911 4.81192 3.84895 5.50304 3.88807C6.42588 3.94035 7.35605 4.03462 8.27579 4.07709C9.21382 4.12064 10.143 4.10595 11.0813 4.1449C11.2386 4.1514 11.3958 4.15795 11.5531 4.16453C12.5833 4.18394 13.505 5.11978 13.4971 6.17658C13.5086 6.97162 13.5195 7.76685 13.5304 8.56218C13.5351 8.73855 13.5111 8.92651 13.529 9.06727C13.5362 9.1919 13.6628 9.19797 13.8334 9.19928C14.2549 9.20935 14.6556 8.97257 14.6219 8.56218C14.602 7.13807 14.5809 5.71401 14.5563 4.29061C14.5501 4.04025 14.6051 3.77586 14.5843 3.62519C14.5766 3.59139 14.6531 3.52525 14.4392 3.48405C14.3446 3.46847 14.273 3.45687 14.2701 3.457C13.3372 3.47391 11.0355 3.65521 10.2821 3.51959C10.2276 3.46312 10.1731 3.40665 10.1185 3.35018C10.0265 3.35158 9.93457 3.35298 9.8426 3.35438C9.85481 3.47271 9.84014 3.41281 9.88898 3.53305C9.1417 3.57723 7.9512 3.56302 6.77413 3.56072C5.45239 3.55831 3.58662 3.64716 1.95653 3.64376C1.57568 3.63691 1.26414 3.96229 1.24823 4.29061C1.23873 4.45149 1.22721 4.60587 1.21339 4.75257C1.19994 4.89664 1.09509 4.88207 1.03937 4.90282C1.03949 4.98546 1.03961 5.06809 1.03972 5.15072C1.09198 5.28748 1.21454 5.51947 1.21224 5.72094C1.20072 6.82108 1.50038 7.43036 1.26142 8.35345C1.27295 9.13981 1.38473 9.76868 1.34478 10.3816C1.2618 10.5452 1.22297 10.5941 1.13269 10.7174C1.1291 10.7935 1.12551 10.8697 1.12193 10.9458C1.16265 11.1143 1.21376 11.3231 1.27523 11.5759C1.33555 13.1705 1.37284 14.836 1.36669 16.4465C1.36477 16.9435 1.48807 17.6932 1.48462 17.9435C1.47735 18.5348 1.48383 19.1175 1.49462 19.6963C1.49698 19.923 1.72799 20.1211 1.95653 20.104C2.46858 20.0945 2.98011 20.0881 3.49495 20.0913C3.60615 20.0918 4.02724 20.1537 4.07607 20.1564C4.57908 20.1846 4.8842 20.3006 5.31526 20.2415C5.33814 20.1821 5.36102 20.1227 5.3839 20.0633C5.47955 20.0481 5.5752 20.0328 5.67085 20.0176C6.02976 20.0871 5.96391 20.0805 6.26784 20.1807C6.86005 20.1095 6.50606 20.0473 6.78932 20.0357C7.15196 20.0207 9.00392 20.1126 9.24841 20.0791C9.70148 20.0169 9.79444 19.9198 10.5454 19.8803C10.5918 19.9009 10.6382 19.9216 10.6846 19.9423C11.0629 20.1087 11.0458 20.1298 11.5598 20.1684C11.6388 20.1526 11.7177 20.1368 11.7967 20.121C11.6661 20.0463 11.5515 19.9786 11.4319 19.9024C11.6538 19.8456 12.6879 19.8484 13.8343 19.8701C13.8946 19.8799 14.0816 19.8299 14.1945 19.7539C14.3226 19.6793 14.3289 19.5955 14.3218 19.6963C14.3418 18.9555 14.3614 18.3214 14.3682 18.0142C14.4235 17.8546 14.4754 17.6911 14.5249 17.5132C14.5244 17.4064 14.5239 17.2996 14.5234 17.1928C14.5579 16.5894 14.6417 15.8716 14.7766 15.4247C14.843 15.4598 14.9095 15.495 14.976 15.5301C14.8215 16.4935 14.9604 18.1883 15.0276 19.6963C14.9989 20.3174 14.295 20.6491 13.8334 20.6369C13.2466 20.6114 12.7924 20.534 12.5768 20.3627C12.6097 20.3484 12.6427 20.3341 12.6757 20.3198C12.9078 20.2174 13.0861 20.1692 13.0679 20.049C12.967 20.0408 12.8661 20.0326 12.7652 20.0244C12.2045 20.1833 12.3629 20.4194 12.3871 20.6468C11.1085 20.8479 11.4556 20.5175 10.5203 20.5757C8.7741 20.6837 7.28774 20.956 5.45019 20.8434C4.46976 20.7831 4.65289 20.7879 4.14351 20.9768C3.11786 20.9891 2.99219 20.8883 2.08505 20.8412C2.04581 20.8392 2.00289 20.8405 1.9563 20.8443C1.63454 20.8932 0.733584 20.7569 0.626975 19.7713C0.635973 19.742 0.644526 19.7174 0.652309 19.6963C0.717387 19.5693 0.694881 19.6093 0.805367 19.6017C0.812405 19.528 0.819443 19.4544 0.826482 19.3807C0.723904 19.1842 0.778839 19.2561 0.649363 19.2476C0.653716 19.1817 0.658069 19.1157 0.662422 19.0498C0.700714 18.9936 0.739006 18.9374 0.777299 18.8812C0.797256 18.3571 0.489203 11.9673 0.520277 11.7443C0.901789 9.03365 0.302054 9.03846 0.650514 6.15319C0.671124 5.98999 0.490075 5.0586 0.473785 4.29061C0.472088 4.16991 0.487604 4.05065 0.517645 3.94009C0.779038 3.41154 0.842286 3.46045 1.16373 3.31485C1.26628 3.24065 1.37925 3.18226 1.49758 3.14181C1.69123 2.95202 1.64762 3.01712 1.71717 2.86893C1.79605 2.85365 1.87625 2.84484 1.95653 2.8425C1.9783 2.84153 2.00007 2.84056 2.02185 2.83959C2.12074 2.86417 2.21963 2.88875 2.31852 2.91333C2.87774 2.83765 2.82161 2.81345 3.34782 2.82958C3.70559 2.93716 3.91688 3.03476 4.34302 3.06934C4.4875 3.02144 4.63198 2.97354 4.77646 2.92564C5.51519 2.93909 6.13067 3.0509 7.04767 3.01325C7.44219 2.99711 10.237 2.92523 10.1234 2.89873C11.4104 3.19917 12.7316 2.62173 13.6339 3.10006C13.9371 3.0743 14.1797 3.05313 14.4392 3.03517C14.5452 3.03355 14.6684 3.02243 14.849 3.11653C15.0469 3.21453 15.1396 3.4805 15.1428 3.61156C15.0405 4.14671 14.9964 4.04552 14.9877 4.29061C14.9857 4.35519 14.9844 4.43727 14.9828 4.54844C15.0696 4.87688 15.1272 4.89764 15.2544 5.03805C15.2543 5.09544 15.2542 5.15284 15.254 5.21023C15.2088 5.18746 15.1636 5.16468 15.1184 5.14191C15.002 5.93436 15.3555 6.73046 15.3182 8.12976C15.305 8.15134 15.2918 8.17293 15.2786 8.19451C15.2408 8.07606 15.2031 7.95761 15.1653 7.83917C15.0781 8.10635 15.0613 8.26267 15.0109 8.56218C15.0053 8.60433 14.9973 8.64799 14.9854 8.69445C15.0196 9.01294 15.0144 9.04342 14.9572 9.30908C14.8712 9.4317 14.7596 9.53349 14.6435 9.60971C14.4119 9.63767 14.2327 9.61331 14.0075 9.56148C13.9495 9.57227 13.8914 9.5801 13.8334 9.5855C13.7883 9.58952 13.7446 9.5924 13.6943 9.59214C13.6187 9.63207 13.5255 9.6748 13.3515 9.63085C13.1651 9.602 12.9532 9.31052 12.9277 9.15809C12.8491 8.84913 12.8592 8.72138 12.8405 8.56218C12.7858 7.81013 12.9465 6.89913 12.808 6.46794C12.782 6.44596 12.756 6.42398 12.73 6.402C12.7284 6.32686 12.7269 6.25172 12.7253 6.17658C12.7241 6.1373 12.7211 6.09859 12.7164 6.06019C12.7438 6.04649 12.7711 6.03189 12.7981 6.01668C12.8388 6.0656 12.8769 6.11877 12.9117 6.17658C12.9418 6.24357 12.9719 6.31056 13.002 6.37756C13.0162 6.34254 13.0305 6.30752 13.0447 6.2725C13.0429 6.2405 13.0412 6.20853 13.0395 6.17658C12.9973 5.3455 12.2696 4.6942 11.5206 4.71734C11.1979 4.71455 10.8733 4.71295 10.5452 4.71339C10.3256 4.62124 10.398 4.65933 10.2982 4.54687C10.2191 4.5453 10.1401 4.54374 10.0611 4.54217C9.86323 4.64139 9.66306 4.73974 9.45917 4.83745C8.31477 4.80872 7.53326 4.5361 6.47855 4.58384C6.00518 4.60491 5.8832 4.59855 5.4892 4.53846C5.49736 4.44118 5.5411 4.44757 5.39983 4.35383C5.33247 4.35514 5.2651 4.35644 5.19774 4.35775C5.13865 4.40585 5.07957 4.45395 5.02048 4.50205C4.94653 4.49746 4.87258 4.49287 4.79864 4.48827C4.76567 4.43886 4.73269 4.38944 4.69972 4.34002C3.95111 4.33313 3.73694 4.39238 3.39139 4.41878C3.2032 4.46536 2.92791 4.42708 2.45141 4.78673C2.4181 4.79641 2.38472 4.8077 2.35143 4.82062C2.34985 4.7416 2.35587 4.65981 2.37003 4.57666C2.12087 4.77657 2.12367 4.77454 2.0315 5.05048C2.06998 5.18114 2.08591 5.20789 2.15834 5.29462C2.09482 5.54111 2.0997 5.60417 2.02172 5.68646C1.99204 5.73794 1.95215 5.79288 1.8993 5.87293ZM17.9497 12.0279C19.0177 11.7589 18.1621 11.7474 19.4516 11.9164C20.0223 11.9914 20.1537 11.8924 20.3601 11.8562C20.5407 11.8396 20.7932 11.8591 21.0676 12.0651C21.3279 12.2599 21.6143 12.7115 21.4312 13.2619C21.5129 13.4527 21.479 13.391 21.6039 13.4658C21.5914 13.5252 21.5536 13.6531 21.4589 13.8007C21.416 13.8669 21.3511 13.9575 21.2428 14.0492C20.5654 14.5635 19.1107 15.4523 18.8081 15.7182C18.734 15.7277 18.6608 15.7372 18.5877 15.7473C18.4616 15.8545 18.0307 16.3778 18.0633 16.3635C18.0516 16.369 18.0475 16.3757 18.054 16.3305C18.0614 16.3061 18.0617 16.1231 17.9468 16.0208L17.9365 16.0105C18.0179 16.1359 18.1447 16.2174 18.2893 16.2347C18.4344 16.2533 18.6109 16.1996 18.7039 16.1065L18.7189 16.0908C18.7746 16.04 18.8309 15.9884 18.8879 15.9358C19.0203 15.9555 18.976 15.9399 19.0673 16.0198C19.2289 15.8885 19.2213 15.8141 19.2412 15.6501C19.6009 15.3227 21.4135 13.6698 22.6764 12.6096C22.9648 12.3629 23.0579 11.9847 23.0129 11.7117C22.9723 11.4335 22.8447 11.2616 22.8272 11.1895C22.8459 11.1663 22.8644 11.143 22.8827 11.1196C23.201 11.2313 23.4359 11.7036 23.3669 12.1339C23.3306 12.4306 23.1822 12.7052 22.9791 12.9034L22.972 12.9105C22.4796 13.3617 21.9577 13.7912 21.4676 14.2338C20.659 14.9641 19.8539 15.6951 19.0463 16.4241C18.8449 16.6294 18.5613 16.7166 18.2893 16.7079C18.015 16.6983 17.7563 16.5696 17.5782 16.3775C17.4877 16.2612 17.5631 16.158 17.602 16.091C17.6499 16.0188 17.7037 15.9599 17.7594 15.9025C17.8725 15.7874 17.9934 15.6848 18.1175 15.5844C18.6662 15.148 19.2472 14.764 19.8194 14.3588C20.0944 14.1644 20.3729 13.9321 20.6564 13.7518C20.727 13.7065 20.8017 13.663 20.874 13.6175C20.9216 13.5857 20.9622 13.5456 20.9962 13.5052C21.269 13.2255 21.161 12.6483 20.7905 12.5525C20.7215 12.5327 20.5777 12.4651 20.3801 12.4816C19.5246 12.5554 17.5711 12.5377 17.1093 12.5477C16.4837 12.5608 15.86 12.6142 15.2354 12.6369C14.7768 12.6535 14.312 12.6288 13.8555 12.655C13.3899 12.6814 12.9322 12.7653 12.4668 12.7963C11.0311 12.8926 9.59251 12.9742 8.15436 13.0614C7.58193 13.0894 7.02056 12.6013 7.01395 11.9934C6.99081 11.9042 7.10867 11.6847 7.24176 11.6693C7.35626 11.6385 7.43104 11.6491 7.50311 11.6528C7.64506 11.6648 7.76717 11.6849 7.88993 11.6975C7.9094 11.7105 8.17697 11.8368 8.18335 11.8332C8.32206 11.8343 8.52584 11.8082 8.72234 11.7267C9.16395 11.5388 9.74097 11.2077 10.0489 11.2661C10.0878 11.3164 10.1248 11.3677 10.1593 11.4199C10.2042 11.4122 10.2493 11.4061 10.2948 11.4021C10.2813 11.2844 10.2935 11.3435 10.2588 11.2254C10.2984 11.2182 10.341 11.2126 10.3862 11.2093C10.7578 11.1792 11.2907 11.1909 11.8181 11.193C12.7626 11.1965 14.2667 11.0109 15.176 11.1834C15.2476 11.1968 15.2403 11.3017 15.2506 11.3574C15.2917 11.3573 15.3327 11.3572 15.3737 11.3571C15.4416 11.3048 15.5568 11.1822 15.6568 11.1846C16.203 11.1961 16.5055 10.8964 16.9639 11.1354C17.3543 11.1238 17.6665 11.0121 17.9708 11.052C18.0521 11.135 18.0763 11.1738 18.1376 11.2641C18.1754 11.2677 18.2131 11.2713 18.2509 11.2749C18.3346 11.2341 18.4383 11.183 18.5638 11.1216C19.0391 11.0853 19.5271 11.0574 20.0143 11.0422C20.1405 11.0363 20.233 10.9109 20.2187 10.8012C20.2171 10.785 20.2087 10.7677 20.195 10.752C20.175 10.7287 20.1503 10.7259 20.1365 10.7359C20.0119 10.6707 19.8783 10.6066 19.831 10.5652C19.2214 10.0397 18.5584 9.61681 17.9616 9.04664C17.9202 9.00793 17.8042 8.80919 17.7882 8.7884C17.6193 8.57667 17.5994 8.38974 17.3993 8.21777C17.3428 8.24086 17.2858 8.26298 17.2282 8.28394C17.1774 8.23595 17.1296 8.19039 17.0732 8.11144C17.0357 7.96532 17.0195 7.83829 17.0321 7.71985C17.0499 7.60892 17.064 7.43804 17.2818 7.259C17.3016 7.25199 17.3239 7.24444 17.3495 7.23653C17.6474 6.91607 17.4108 7.01717 17.5947 6.89411C17.7112 6.81891 18.138 6.6781 18.549 6.77144C18.9649 6.84808 19.2791 7.1287 19.3712 7.20724C19.3778 7.21269 19.3815 7.21511 19.3848 7.21694C19.5888 7.33053 19.6899 7.29381 19.9834 7.52723C19.9853 7.55809 19.9872 7.58896 19.9891 7.61982C20.0061 7.86998 19.9852 7.87905 20.14 8.08553C20.179 8.1018 20.218 8.11806 20.2571 8.13432C20.2633 8.03571 20.2704 7.94758 20.2816 7.85171C20.5385 7.93176 21.9515 9.5431 22.2823 9.90039C22.2997 9.99543 22.321 10.0894 22.3489 10.1867C22.387 10.2236 22.4251 10.2605 22.4632 10.2975C22.6519 10.5327 22.8464 10.8428 22.9094 11.0947C22.8503 11.1297 22.7912 11.1647 22.732 11.1997C22.2938 10.3553 20.1919 9.34378 20.3632 8.57802C20.3849 8.57931 20.4067 8.58061 20.4284 8.58189C20.5824 8.58993 20.6794 8.61773 20.7575 8.52583C20.7275 8.48486 20.6976 8.44389 20.6676 8.40292C20.3576 8.32068 20.2478 8.54382 20.0965 8.7141C19.5028 8.41185 19.8577 8.29767 19.4859 8.01328C19.3085 7.87741 19.1296 7.75511 18.952 7.63628C18.5258 7.36801 18.0682 7.50417 17.7837 7.77318C17.8556 7.60573 17.7943 7.73599 17.8574 7.82158C18.0687 8.20625 18.0511 8.14624 18.3465 8.18641C18.7032 8.5194 18.6871 8.63352 18.9911 8.96237C19.0937 9.0717 19.4051 9.09826 19.6837 9.3327C19.6928 9.46983 19.7005 9.42034 19.6251 9.51848C19.6485 9.54695 19.6721 9.57549 19.6961 9.60437C19.8365 9.587 19.7739 9.60662 19.8594 9.5093C19.8813 9.53291 19.9043 9.5574 19.9269 9.58153C19.9243 9.62886 19.9214 9.67602 19.9184 9.72297C19.9751 9.77837 20.236 9.95624 20.5906 10.2139C20.687 10.2893 20.7645 10.3929 20.8152 10.5023C21.0856 10.9857 20.6737 11.7765 20.0143 11.7815C19.3092 11.8405 18.695 11.8899 18.6474 11.8765C17.3016 11.495 17.304 12.0947 15.8714 11.7463C15.7823 11.7236 15.2319 11.9449 14.8354 11.9226C14.6481 11.8481 14.6553 11.8327 14.5298 11.7125C14.4825 11.7075 14.4352 11.7024 14.3879 11.6974C14.2976 11.815 14.3213 11.7739 14.2885 11.9042C14.2515 11.9075 14.2145 11.9108 14.1776 11.9141C14.1285 11.8896 14.0794 11.865 14.0303 11.8404C13.7526 11.9161 13.7805 11.9403 13.5192 11.9241C13.3416 11.8166 13.2367 11.719 13.0251 11.6844C12.9534 11.7323 12.8816 11.7802 12.8099 11.8281C12.4431 11.8146 12.1376 11.7028 11.6823 11.7405C11.5408 11.7521 10.7781 11.7928 10.3862 11.8246C10.2781 11.8372 10.2071 11.8623 10.22 11.8672C9.76072 11.6858 9.38313 12.2631 8.88337 12.2815C8.75456 12.2898 8.62962 12.2581 8.52299 12.179C8.2516 12.2482 8.05573 12.2603 7.79102 12.2464C7.54494 12.098 7.60389 12.0967 7.38872 12.0706C7.27446 12.184 7.56579 12.1657 7.69067 12.0538C7.69749 12.0216 7.69747 12.0058 7.69762 11.9934C7.69757 11.999 7.69763 12.0044 7.69779 12.0099C7.65241 12.0066 7.60706 12.0016 7.56183 11.995C7.50263 12.1167 7.60834 12.2471 7.74206 12.2971C7.88152 12.3526 8.01246 12.3396 8.15006 12.3589L8.13187 12.3592C8.13262 12.3592 8.13336 12.3592 8.13411 12.3593C8.14525 12.3721 8.15638 12.3849 8.16751 12.3978C8.15629 12.4055 8.14507 12.4132 8.13384 12.421L8.15006 12.4207C8.12692 12.4511 8.09982 12.4799 8.06864 12.506C8.09399 12.5453 8.12116 12.5708 8.15006 12.59L8.13926 12.5901C8.21718 12.6211 8.29258 12.6379 8.41117 12.676C8.5234 12.5824 8.52529 12.5647 8.59576 12.4548C8.63783 12.4429 8.6799 12.4311 8.72197 12.4192C8.79136 12.5023 8.85416 12.5692 8.94866 12.6411C8.99199 12.6302 9.03531 12.6194 9.07864 12.6085C9.38317 12.0037 10.2529 12.4401 10.5668 12.2225C10.5769 12.1962 10.587 12.1698 10.5971 12.1435C10.664 12.1385 10.731 12.1336 10.798 12.1286C10.8076 12.1569 10.8172 12.1852 10.8268 12.2134C10.7572 12.2806 10.6875 12.3478 10.6179 12.415C10.6357 12.4287 10.6536 12.4423 10.6714 12.4559C11.3543 12.3591 12.011 12.2951 12.6967 12.1897C12.8107 12.2652 12.7726 12.2326 12.8288 12.3373C12.8678 12.333 12.9069 12.3286 12.946 12.3243C13.0376 12.2107 13.1304 12.0977 13.2251 11.9851C13.7916 11.9286 14.1939 12.1421 14.7115 12.016C14.9438 11.9597 15.0044 11.957 15.2025 11.9875C15.2044 12.0851 15.1825 12.082 15.2579 12.1649C15.2911 12.1586 15.3242 12.1523 15.3574 12.146C15.3836 12.0936 15.4099 12.0413 15.4361 11.9889C15.4729 11.988 15.5096 11.9871 15.5464 11.9861C15.5657 12.0329 15.585 12.0797 15.6043 12.1265C16.2952 12.0352 16.0516 11.8527 17.0551 11.899C17.0799 11.9141 17.1046 11.9292 17.1294 11.9443C17.0877 12.0001 17.046 12.0559 17.0043 12.1117C17.2214 12.1293 17.207 12.134 17.4027 12.0693C17.47 11.9749 17.4844 11.9517 17.5267 11.8524C17.8164 11.8239 17.8045 11.8512 17.9497 12.0279Z" fill="#34140B"/>
</svg>
