<svg width="24" height="24" viewBox="0 0 24 24" fill="none" xmlns="http://www.w3.org/2000/svg">
<path d="M15.7918 6.05766C16.1986 5.63938 15.8755 5.57024 16.3607 5.9447C16.7606 6.25412 16.5922 5.40186 17.0918 6.30068C17.1278 6.09942 17.1159 6.17063 17.1235 5.9242C17.2152 5.85577 18.1603 6.13844 18.3471 6.14734C18.3718 6.21741 18.3965 6.28748 18.4211 6.35756C18.4835 6.33633 18.7539 6.20968 18.7844 6.23159C19.0407 6.41231 19.265 6.46432 19.5265 6.50403C19.557 6.69432 19.5492 6.61905 19.5527 6.83469C19.631 6.8696 19.6487 6.7655 19.6975 6.58204C19.9691 6.63064 21.8636 6.96202 21.997 7.37413C21.998 7.42685 21.999 7.47956 22 7.53228C21.9067 7.76229 21.7873 7.7684 21.6711 7.77388C21.3408 7.79031 21.0026 7.62674 20.6732 7.5617C19.9538 7.41931 19.2366 7.29336 18.5172 7.12496C18.2529 7.06335 17.9898 7.00924 17.7246 6.99007C17.5976 6.98117 17.4601 7.02979 17.3345 6.98187C17.1656 6.91752 16.9985 6.64227 16.8452 6.91884C16.7157 7.15297 15.6793 6.94561 15.468 6.93534C15.2314 6.92301 14.9951 6.98252 14.7588 6.98731C14.5853 6.99073 14.41 6.92024 14.2372 6.94077C14.061 6.96131 13.887 7.08453 13.7108 7.11328C12.884 7.24951 12.0553 7.32481 11.2279 7.4672C11.2194 7.4542 11.1085 7.27761 11.1069 7.27829C10.9318 7.30842 10.4997 7.63147 10.3583 7.38982C10.3481 7.2892 10.3378 7.18858 10.3276 7.08796C10.3103 7.09046 10.2931 7.09295 10.2758 7.09545C10.2781 7.30629 10.2754 7.19955 10.2845 7.4138C10.1443 7.49253 9.9208 7.46721 9.69986 7.4631C9.34278 7.45694 8.77415 7.78758 8.43036 7.48022C8.40332 7.45626 8.40606 7.26943 8.40216 7.17016C8.38665 7.17036 8.37114 7.17057 8.35563 7.17078C8.32996 7.26389 8.28641 7.48228 8.2486 7.47817C8.0421 7.45764 7.92773 7.99159 7.75447 7.5658C7.60686 7.58634 7.48882 7.78552 7.37377 7.71433C7.34306 7.56647 7.33388 7.49729 7.31074 7.33642C7.29645 7.33003 7.28216 7.32364 7.26788 7.31725C7.23625 7.38982 7.19705 7.48088 7.14961 7.59041C6.85028 7.69788 6.53767 7.76433 6.23536 7.75337C6.14208 7.74995 6.00136 7.96965 5.95438 7.9635C5.64955 7.9279 5.35685 8.07719 5.05821 8.06281C5.03734 8.06209 4.95829 7.9526 4.94912 7.94781C4.8547 7.89852 4.79741 7.69249 4.71651 7.79857C4.71222 7.90445 4.70794 8.01033 4.70366 8.11621C4.68571 8.14358 4.66776 8.17095 4.64981 8.19832C4.58242 8.0751 4.59479 8.08675 4.53772 7.90876C4.42657 8.03677 4.49303 8.14696 4.43986 8.16819C4.3718 8.19557 4.02416 8.03542 3.97827 8.09562C3.89324 8.2072 3.87581 8.38042 3.73487 8.45231C3.72615 8.41558 3.71744 8.37885 3.70872 8.34212C3.63768 8.04639 3.64088 8.00872 3.54439 7.94094C3.52958 7.96923 3.51476 7.99752 3.49994 8.02581C3.52447 8.15862 3.54599 8.27914 3.56846 8.41469C3.47811 8.63508 2.66995 8.36334 2.48605 8.325C2.4561 8.22643 2.42541 8.134 2.39202 8.0457C2.37198 8.04662 2.35193 8.04754 2.33188 8.04846C2.21862 7.98685 2.08388 7.83756 2 7.59727C2.0066 7.47885 2.01319 7.36043 2.01979 7.24201C2.36204 7.76294 3.196 6.41165 3.35347 7.59656C3.34729 7.62214 3.3411 7.64773 3.33492 7.67332C3.29137 7.85609 3.25791 7.94233 3.26135 8.1566C3.28029 8.17098 3.29923 8.18536 3.31818 8.19975C3.42338 7.91565 3.3936 7.49528 3.38902 7.09001C3.62897 6.72928 3.56388 7.31861 3.73943 7.21322C4.06718 7.01743 4.34612 6.5293 4.69106 6.72646C4.8751 6.83188 4.84073 6.8237 4.9363 6.4862C5.12881 6.46224 5.15242 6.64163 5.32271 6.72378C5.37932 6.75117 5.47651 6.42599 5.6154 6.43146C5.65115 6.60943 5.64152 6.53277 5.64313 6.7532C5.65695 6.76574 5.67078 6.77828 5.6846 6.79082C5.7215 6.60805 5.708 6.70593 5.7096 6.47523C5.72197 6.48299 5.73434 6.49075 5.74671 6.4985C5.75726 6.56673 5.76781 6.63496 5.77836 6.70319C5.87674 6.73875 7.07612 6.18986 7.11798 6.24523C7.62679 6.92501 7.62589 5.8564 8.16746 6.47728C8.20115 6.51767 8.40926 6.12343 8.55915 6.16312C8.62997 6.29592 8.62723 6.3233 8.67466 6.53755C8.69255 6.54646 8.71043 6.55538 8.72831 6.56429C8.76246 6.35481 8.75352 6.428 8.76589 6.19593C8.77988 6.19001 8.79386 6.1841 8.80784 6.17819C8.8264 6.22199 8.84496 6.26579 8.86353 6.30959C8.96849 6.17474 8.95796 6.13161 9.05673 6.16036C9.12388 6.35204 9.16354 6.52595 9.24353 6.58756C9.27065 6.50222 9.29777 6.41687 9.32489 6.33152C9.46355 6.35548 9.57908 6.55471 9.7512 6.48763C9.82525 6.45887 10.3498 6.3308 10.3285 6.28356C10.5701 6.8189 10.8181 5.79002 10.9875 6.6423C11.0791 6.56837 11.1413 6.51566 11.2348 6.4739C11.3338 6.67105 11.3035 6.67107 11.4067 6.68545C11.4683 6.53074 11.4722 6.42803 11.4986 6.20146C11.5093 6.20166 11.5201 6.20187 11.5309 6.20208C11.5266 6.28264 11.5223 6.3632 11.5181 6.44376C11.6668 6.65118 11.8162 6.02139 12.0789 6.08779C12.0829 6.1113 12.087 6.1348 12.091 6.15831C12.0688 6.22562 12.0466 6.29292 12.0243 6.36023C12.08 6.53274 12.1101 6.55056 12.1797 6.66762C12.2233 6.50744 12.2242 6.47595 12.2522 6.28428C12.2682 6.26555 12.2843 6.24683 12.3003 6.22811C12.3255 6.38009 12.3484 6.50266 12.3833 6.63615C12.3998 6.61927 12.4163 6.60239 12.4328 6.58551C12.5552 5.5258 12.8785 6.35268 12.9998 5.98304C13.0039 5.93671 13.008 5.89038 13.0122 5.84405C13.0375 5.83903 13.0629 5.83401 13.0883 5.82899C13.0915 5.87989 13.0948 5.9308 13.0981 5.9817C13.071 6.09739 13.0439 6.21307 13.0167 6.32876C13.0233 6.35408 13.0299 6.3794 13.0365 6.40472C13.2957 6.27123 13.5446 6.19462 13.805 6.04607C13.8471 6.18705 13.8331 6.12685 13.8531 6.31646C13.8679 6.31099 13.8827 6.30552 13.8976 6.30006C13.9335 6.1029 13.97 5.90704 14.0071 5.71193C14.2218 5.64348 14.3713 6.04674 14.5684 5.85163C14.6569 5.76469 14.6798 5.76327 14.7543 5.82899C14.7538 6.00287 14.7456 5.99608 14.7731 6.14805C14.7857 6.13869 14.7983 6.12933 14.8109 6.11997C14.8214 6.02824 14.832 5.9365 14.8425 5.84477C14.8564 5.84521 14.8703 5.84566 14.8842 5.8461C14.8909 5.93056 14.8977 6.01501 14.9044 6.09947C15.1666 5.97624 15.0768 5.63736 15.4554 5.77701C15.4645 5.8053 15.4737 5.83359 15.4829 5.86188C15.4665 5.95888 15.45 6.05587 15.4336 6.15287C15.5154 6.19668 15.5099 6.20414 15.5846 6.10009C15.6112 5.9358 15.617 5.89541 15.6341 5.72085C15.7439 5.68662 15.7391 5.73455 15.7918 6.05766Z" fill="black"/>
<path d="M15.7918 10.0577C16.1986 9.63938 15.8755 9.57024 16.3607 9.9447C16.7606 10.2541 16.5922 9.40186 17.0918 10.3007C17.1278 10.0994 17.1159 10.1706 17.1235 9.9242C17.2152 9.85577 18.1603 10.1384 18.3471 10.1473C18.3718 10.2174 18.3965 10.2875 18.4211 10.3576C18.4835 10.3363 18.7539 10.2097 18.7844 10.2316C19.0407 10.4123 19.265 10.4643 19.5265 10.504C19.557 10.6943 19.5492 10.619 19.5527 10.8347C19.631 10.8696 19.6487 10.7655 19.6975 10.582C19.9691 10.6306 21.8636 10.962 21.997 11.3741C21.998 11.4268 21.999 11.4796 22 11.5323C21.9067 11.7623 21.7873 11.7684 21.6711 11.7739C21.3408 11.7903 21.0026 11.6267 20.6732 11.5617C19.9538 11.4193 19.2366 11.2934 18.5172 11.125C18.2529 11.0633 17.9898 11.0092 17.7246 10.9901C17.5976 10.9812 17.4601 11.0298 17.3345 10.9819C17.1656 10.9175 16.9985 10.6423 16.8452 10.9188C16.7157 11.153 15.6793 10.9456 15.468 10.9353C15.2314 10.923 14.9951 10.9825 14.7588 10.9873C14.5853 10.9907 14.41 10.9202 14.2372 10.9408C14.061 10.9613 13.887 11.0845 13.7108 11.1133C12.884 11.2495 12.0553 11.3248 11.2279 11.4672C11.2194 11.4542 11.1085 11.2776 11.1069 11.2783C10.9318 11.3084 10.4997 11.6315 10.3583 11.3898C10.3481 11.2892 10.3378 11.1886 10.3276 11.088C10.3103 11.0905 10.2931 11.093 10.2758 11.0954C10.2781 11.3063 10.2754 11.1996 10.2845 11.4138C10.1443 11.4925 9.9208 11.4672 9.69986 11.4631C9.34278 11.4569 8.77415 11.7876 8.43036 11.4802C8.40332 11.4563 8.40606 11.2694 8.40216 11.1702C8.38665 11.1704 8.37114 11.1706 8.35563 11.1708C8.32996 11.2639 8.28641 11.4823 8.2486 11.4782C8.0421 11.4576 7.92773 11.9916 7.75447 11.5658C7.60686 11.5863 7.48882 11.7855 7.37377 11.7143C7.34306 11.5665 7.33388 11.4973 7.31074 11.3364C7.29645 11.33 7.28216 11.3236 7.26788 11.3173C7.23625 11.3898 7.19705 11.4809 7.14961 11.5904C6.85028 11.6979 6.53767 11.7643 6.23536 11.7534C6.14208 11.75 6.00136 11.9696 5.95438 11.9635C5.64955 11.9279 5.35685 12.0772 5.05821 12.0628C5.03734 12.0621 4.95829 11.9526 4.94912 11.9478C4.8547 11.8985 4.79741 11.6925 4.71651 11.7986C4.71222 11.9045 4.70794 12.0103 4.70366 12.1162C4.68571 12.1436 4.66776 12.171 4.64981 12.1983C4.58242 12.0751 4.59479 12.0868 4.53772 11.9088C4.42657 12.0368 4.49303 12.147 4.43986 12.1682C4.3718 12.1956 4.02416 12.0354 3.97827 12.0956C3.89324 12.2072 3.87581 12.3804 3.73487 12.4523C3.72615 12.4156 3.71744 12.3788 3.70872 12.3421C3.63768 12.0464 3.64088 12.0087 3.54439 11.9409C3.52958 11.9692 3.51476 11.9975 3.49994 12.0258C3.52447 12.1586 3.54599 12.2791 3.56846 12.4147C3.47811 12.6351 2.66995 12.3633 2.48605 12.325C2.4561 12.2264 2.42541 12.134 2.39202 12.0457C2.37198 12.0466 2.35193 12.0475 2.33188 12.0485C2.21862 11.9868 2.08388 11.8376 2 11.5973C2.0066 11.4789 2.01319 11.3604 2.01979 11.242C2.36204 11.7629 3.196 10.4116 3.35347 11.5966C3.34729 11.6221 3.3411 11.6477 3.33492 11.6733C3.29137 11.8561 3.25791 11.9423 3.26135 12.1566C3.28029 12.171 3.29923 12.1854 3.31818 12.1997C3.42338 11.9156 3.3936 11.4953 3.38902 11.09C3.62897 10.7293 3.56388 11.3186 3.73943 11.2132C4.06718 11.0174 4.34612 10.5293 4.69106 10.7265C4.8751 10.8319 4.84073 10.8237 4.9363 10.4862C5.12881 10.4622 5.15242 10.6416 5.32271 10.7238C5.37932 10.7512 5.47651 10.426 5.6154 10.4315C5.65115 10.6094 5.64152 10.5328 5.64313 10.7532C5.65695 10.7657 5.67078 10.7783 5.6846 10.7908C5.7215 10.6081 5.708 10.7059 5.7096 10.4752C5.72197 10.483 5.73434 10.4907 5.74671 10.4985C5.75726 10.5667 5.76781 10.635 5.77836 10.7032C5.87674 10.7387 7.07612 10.1899 7.11798 10.2452C7.62679 10.925 7.62589 9.8564 8.16746 10.4773C8.20115 10.5177 8.40926 10.1234 8.55915 10.1631C8.62997 10.2959 8.62723 10.3233 8.67466 10.5375C8.69255 10.5465 8.71043 10.5554 8.72831 10.5643C8.76246 10.3548 8.75352 10.428 8.76589 10.1959C8.77988 10.19 8.79386 10.1841 8.80784 10.1782C8.8264 10.222 8.84496 10.2658 8.86353 10.3096C8.96849 10.1747 8.95796 10.1316 9.05673 10.1604C9.12388 10.352 9.16354 10.526 9.24353 10.5876C9.27065 10.5022 9.29777 10.4169 9.32489 10.3315C9.46355 10.3555 9.57908 10.5547 9.7512 10.4876C9.82525 10.4589 10.3498 10.3308 10.3285 10.2836C10.5701 10.8189 10.8181 9.79002 10.9875 10.6423C11.0791 10.5684 11.1413 10.5157 11.2348 10.4739C11.3338 10.6711 11.3035 10.6711 11.4067 10.6854C11.4683 10.5307 11.4722 10.428 11.4986 10.2015C11.5093 10.2017 11.5201 10.2019 11.5309 10.2021C11.5266 10.2826 11.5223 10.3632 11.5181 10.4438C11.6668 10.6512 11.8162 10.0214 12.0789 10.0878C12.0829 10.1113 12.087 10.1348 12.091 10.1583C12.0688 10.2256 12.0466 10.2929 12.0243 10.3602C12.08 10.5327 12.1101 10.5506 12.1797 10.6676C12.2233 10.5074 12.2242 10.4759 12.2522 10.2843C12.2682 10.2656 12.2843 10.2468 12.3003 10.2281C12.3255 10.3801 12.3484 10.5027 12.3833 10.6361C12.3998 10.6193 12.4163 10.6024 12.4328 10.5855C12.5552 9.5258 12.8785 10.3527 12.9998 9.98304C13.0039 9.93671 13.008 9.89038 13.0122 9.84405C13.0375 9.83903 13.0629 9.83401 13.0883 9.82899C13.0915 9.87989 13.0948 9.9308 13.0981 9.9817C13.071 10.0974 13.0439 10.2131 13.0167 10.3288C13.0233 10.3541 13.0299 10.3794 13.0365 10.4047C13.2957 10.2712 13.5446 10.1946 13.805 10.0461C13.8471 10.187 13.8331 10.1268 13.8531 10.3165C13.8679 10.311 13.8827 10.3055 13.8976 10.3001C13.9335 10.1029 13.97 9.90704 14.0071 9.71193C14.2218 9.64348 14.3713 10.0467 14.5684 9.85163C14.6569 9.76469 14.6798 9.76327 14.7543 9.82899C14.7538 10.0029 14.7456 9.99608 14.7731 10.1481C14.7857 10.1387 14.7983 10.1293 14.8109 10.12C14.8214 10.0282 14.832 9.9365 14.8425 9.84477C14.8564 9.84521 14.8703 9.84566 14.8842 9.8461C14.8909 9.93056 14.8977 10.015 14.9044 10.0995C15.1666 9.97624 15.0768 9.63736 15.4554 9.77701C15.4645 9.8053 15.4737 9.83359 15.4829 9.86188C15.4665 9.95888 15.45 10.0559 15.4336 10.1529C15.5154 10.1967 15.5099 10.2041 15.5846 10.1001C15.6112 9.9358 15.617 9.89541 15.6341 9.72085C15.7439 9.68662 15.7391 9.73455 15.7918 10.0577Z" fill="black"/>
<path d="M15.7918 14.0577C16.1986 13.6394 15.8755 13.5702 16.3607 13.9447C16.7606 14.2541 16.5922 13.4019 17.0918 14.3007C17.1278 14.0994 17.1159 14.1706 17.1235 13.9242C17.2152 13.8558 18.1603 14.1384 18.3471 14.1473C18.3718 14.2174 18.3965 14.2875 18.4211 14.3576C18.4835 14.3363 18.7539 14.2097 18.7844 14.2316C19.0407 14.4123 19.265 14.4643 19.5265 14.504C19.557 14.6943 19.5492 14.619 19.5527 14.8347C19.631 14.8696 19.6487 14.7655 19.6975 14.582C19.9691 14.6306 21.8636 14.962 21.997 15.3741C21.998 15.4268 21.999 15.4796 22 15.5323C21.9067 15.7623 21.7873 15.7684 21.6711 15.7739C21.3408 15.7903 21.0026 15.6267 20.6732 15.5617C19.9538 15.4193 19.2366 15.2934 18.5172 15.125C18.2529 15.0633 17.9898 15.0092 17.7246 14.9901C17.5976 14.9812 17.4601 15.0298 17.3345 14.9819C17.1656 14.9175 16.9985 14.6423 16.8452 14.9188C16.7157 15.153 15.6793 14.9456 15.468 14.9353C15.2314 14.923 14.9951 14.9825 14.7588 14.9873C14.5853 14.9907 14.41 14.9202 14.2372 14.9408C14.061 14.9613 13.887 15.0845 13.7108 15.1133C12.884 15.2495 12.0553 15.3248 11.2279 15.4672C11.2194 15.4542 11.1085 15.2776 11.1069 15.2783C10.9318 15.3084 10.4997 15.6315 10.3583 15.3898C10.3481 15.2892 10.3378 15.1886 10.3276 15.088C10.3103 15.0905 10.2931 15.093 10.2758 15.0954C10.2781 15.3063 10.2754 15.1996 10.2845 15.4138C10.1443 15.4925 9.9208 15.4672 9.69986 15.4631C9.34278 15.4569 8.77415 15.7876 8.43036 15.4802C8.40332 15.4563 8.40606 15.2694 8.40216 15.1702C8.38665 15.1704 8.37114 15.1706 8.35563 15.1708C8.32996 15.2639 8.28641 15.4823 8.2486 15.4782C8.0421 15.4576 7.92773 15.9916 7.75447 15.5658C7.60686 15.5863 7.48882 15.7855 7.37377 15.7143C7.34306 15.5665 7.33388 15.4973 7.31074 15.3364C7.29645 15.33 7.28216 15.3236 7.26788 15.3173C7.23625 15.3898 7.19705 15.4809 7.14961 15.5904C6.85028 15.6979 6.53767 15.7643 6.23536 15.7534C6.14208 15.75 6.00136 15.9696 5.95438 15.9635C5.64955 15.9279 5.35685 16.0772 5.05821 16.0628C5.03734 16.0621 4.95829 15.9526 4.94912 15.9478C4.8547 15.8985 4.79741 15.6925 4.71651 15.7986C4.71222 15.9045 4.70794 16.0103 4.70366 16.1162C4.68571 16.1436 4.66776 16.171 4.64981 16.1983C4.58242 16.0751 4.59479 16.0868 4.53772 15.9088C4.42657 16.0368 4.49303 16.147 4.43986 16.1682C4.3718 16.1956 4.02416 16.0354 3.97827 16.0956C3.89324 16.2072 3.87581 16.3804 3.73487 16.4523C3.72615 16.4156 3.71744 16.3788 3.70872 16.3421C3.63768 16.0464 3.64088 16.0087 3.54439 15.9409C3.52958 15.9692 3.51476 15.9975 3.49994 16.0258C3.52447 16.1586 3.54599 16.2791 3.56846 16.4147C3.47811 16.6351 2.66995 16.3633 2.48605 16.325C2.4561 16.2264 2.42541 16.134 2.39202 16.0457C2.37198 16.0466 2.35193 16.0475 2.33188 16.0485C2.21862 15.9868 2.08388 15.8376 2 15.5973C2.0066 15.4789 2.01319 15.3604 2.01979 15.242C2.36204 15.7629 3.196 14.4116 3.35347 15.5966C3.34729 15.6221 3.3411 15.6477 3.33492 15.6733C3.29137 15.8561 3.25791 15.9423 3.26135 16.1566C3.28029 16.171 3.29923 16.1854 3.31818 16.1997C3.42338 15.9156 3.3936 15.4953 3.38902 15.09C3.62897 14.7293 3.56388 15.3186 3.73943 15.2132C4.06718 15.0174 4.34612 14.5293 4.69106 14.7265C4.8751 14.8319 4.84073 14.8237 4.9363 14.4862C5.12881 14.4622 5.15242 14.6416 5.32271 14.7238C5.37932 14.7512 5.47651 14.426 5.6154 14.4315C5.65115 14.6094 5.64152 14.5328 5.64313 14.7532C5.65695 14.7657 5.67078 14.7783 5.6846 14.7908C5.7215 14.6081 5.708 14.7059 5.7096 14.4752C5.72197 14.483 5.73434 14.4907 5.74671 14.4985C5.75726 14.5667 5.76781 14.635 5.77836 14.7032C5.87674 14.7387 7.07612 14.1899 7.11798 14.2452C7.62679 14.925 7.62589 13.8564 8.16746 14.4773C8.20115 14.5177 8.40926 14.1234 8.55915 14.1631C8.62997 14.2959 8.62723 14.3233 8.67466 14.5375C8.69255 14.5465 8.71043 14.5554 8.72831 14.5643C8.76246 14.3548 8.75352 14.428 8.76589 14.1959C8.77988 14.19 8.79386 14.1841 8.80784 14.1782C8.8264 14.222 8.84496 14.2658 8.86353 14.3096C8.96849 14.1747 8.95796 14.1316 9.05673 14.1604C9.12388 14.352 9.16354 14.526 9.24353 14.5876C9.27065 14.5022 9.29777 14.4169 9.32489 14.3315C9.46355 14.3555 9.57908 14.5547 9.7512 14.4876C9.82525 14.4589 10.3498 14.3308 10.3285 14.2836C10.5701 14.8189 10.8181 13.79 10.9875 14.6423C11.0791 14.5684 11.1413 14.5157 11.2348 14.4739C11.3338 14.6711 11.3035 14.6711 11.4067 14.6854C11.4683 14.5307 11.4722 14.428 11.4986 14.2015C11.5093 14.2017 11.5201 14.2019 11.5309 14.2021C11.5266 14.2826 11.5223 14.3632 11.5181 14.4438C11.6668 14.6512 11.8162 14.0214 12.0789 14.0878C12.0829 14.1113 12.087 14.1348 12.091 14.1583C12.0688 14.2256 12.0466 14.2929 12.0243 14.3602C12.08 14.5327 12.1101 14.5506 12.1797 14.6676C12.2233 14.5074 12.2242 14.4759 12.2522 14.2843C12.2682 14.2656 12.2843 14.2468 12.3003 14.2281C12.3255 14.3801 12.3484 14.5027 12.3833 14.6361C12.3998 14.6193 12.4163 14.6024 12.4328 14.5855C12.5552 13.5258 12.8785 14.3527 12.9998 13.983C13.0039 13.9367 13.008 13.8904 13.0122 13.8441C13.0375 13.839 13.0629 13.834 13.0883 13.829C13.0915 13.8799 13.0948 13.9308 13.0981 13.9817C13.071 14.0974 13.0439 14.2131 13.0167 14.3288C13.0233 14.3541 13.0299 14.3794 13.0365 14.4047C13.2957 14.2712 13.5446 14.1946 13.805 14.0461C13.8471 14.187 13.8331 14.1268 13.8531 14.3165C13.8679 14.311 13.8827 14.3055 13.8976 14.3001C13.9335 14.1029 13.97 13.907 14.0071 13.7119C14.2218 13.6435 14.3713 14.0467 14.5684 13.8516C14.6569 13.7647 14.6798 13.7633 14.7543 13.829C14.7538 14.0029 14.7456 13.9961 14.7731 14.1481C14.7857 14.1387 14.7983 14.1293 14.8109 14.12C14.8214 14.0282 14.832 13.9365 14.8425 13.8448C14.8564 13.8452 14.8703 13.8457 14.8842 13.8461C14.8909 13.9306 14.8977 14.015 14.9044 14.0995C15.1666 13.9762 15.0768 13.6374 15.4554 13.777C15.4645 13.8053 15.4737 13.8336 15.4829 13.8619C15.4665 13.9589 15.45 14.0559 15.4336 14.1529C15.5154 14.1967 15.5099 14.2041 15.5846 14.1001C15.6112 13.9358 15.617 13.8954 15.6341 13.7208C15.7439 13.6866 15.7391 13.7346 15.7918 14.0577Z" fill="black"/>
</svg>
