<svg width="25" height="24" viewBox="0 0 25 24" fill="none" xmlns="http://www.w3.org/2000/svg">
<path d="M7.90544 7.1218C7.93882 6.555 7.66865 6.65084 8.23857 6.7459C8.7088 6.82493 8.07253 6.15425 8.97092 6.70526C8.87416 6.51009 8.90899 6.57874 8.76475 6.3575C8.77237 6.32306 8.86782 6.27739 8.99749 6.22865L10.175 5.0972L10.9052 6.99557C10.886 7.24646 10.844 7.6436 10.8647 7.74187C10.7974 7.78035 10.7301 7.81923 10.663 7.85851C10.6979 7.9016 10.8887 8.07445 10.8733 8.10353C10.7464 8.35632 10.7497 8.54989 10.7789 8.76512C10.5944 8.85541 10.6685 8.82308 10.4512 8.90157C10.4376 8.97608 10.5479 8.95335 10.7465 8.92484C10.743 9.16133 11.068 10.6985 10.8275 11.0493C10.7811 11.0815 10.7347 11.1138 10.6883 11.146C10.4345 11.2103 10.3635 11.1109 10.3019 11.0182C10.1225 10.7501 10.1385 10.3879 10.0819 10.0898C9.95869 9.43577 9.88607 8.79958 9.89206 8.15519C9.89455 7.91911 9.89515 7.68794 9.86475 7.46349C9.85395 7.38458 9.80883 7.30538 9.79921 7.22438L9.73724 7.06327L9.63731 7.15929C9.61254 7.17343 9.5858 7.18409 9.55581 7.18884C9.39747 7.21403 9.1124 7.05213 9.172 7.37076C9.22267 7.64033 8.36496 7.9604 8.2095 8.05392C8.035 8.15787 7.90425 8.32513 7.7403 8.44407C7.61986 8.53132 7.45326 8.5542 7.3437 8.65623C7.26006 8.73367 7.21209 8.86105 7.14859 8.9668C7.13538 9.01503 7.12635 9.05472 7.11183 9.09094C6.84411 9.76287 6.5209 10.4004 6.25836 11.0764C6.24273 11.0748 6.03243 11.0502 6.03229 11.0517C5.97672 11.1948 6.06218 11.6944 5.77929 11.6532C5.68443 11.6012 5.58957 11.5492 5.49471 11.4973C5.4888 11.5111 5.4829 11.5249 5.477 11.5387C5.66675 11.6613 5.56994 11.6004 5.76597 11.7201C5.77031 11.8669 5.64234 12.0119 5.53453 12.1676C5.36073 12.4195 5.3886 13.0213 4.95154 13.0862C4.91735 13.0915 4.75146 12.9794 4.66079 12.9237C4.65367 12.9349 4.64654 12.9461 4.63942 12.9574C4.71063 13.0306 4.88553 13.1905 4.86403 13.2151C4.74834 13.3508 5.17223 13.7473 4.70957 13.6204C4.65838 13.7381 4.78098 13.94 4.66305 13.9804C4.51627 13.9152 4.45004 13.881 4.29518 13.8028C4.28273 13.8092 4.27028 13.8157 4.25783 13.8222C4.30786 13.8876 4.37087 13.9693 4.44652 14.0678C4.40162 14.3453 4.31373 14.6082 4.16146 14.8181C4.11443 14.8828 4.2447 15.113 4.21706 15.143C4.04154 15.3402 4.03718 15.6376 3.88356 15.8429C3.87308 15.8574 3.73785 15.8495 3.72924 15.8532C3.6621 15.8824 3.52449 15.8433 3.48645 15.875L3.14042 16.2423L2.88713 16.198C2.87197 16.1934 2.85636 16.2013 2.83956 16.2288C2.83589 16.3423 2.83222 16.4557 2.82855 16.5692C2.81317 16.5985 2.79778 16.6278 2.7824 16.6571C2.72466 16.5251 2.73525 16.5376 2.68635 16.3469C2.59111 16.4841 2.64806 16.6021 2.60249 16.6249C2.54417 16.6542 2.24627 16.4826 2.20695 16.5471C2.13408 16.6667 2.11915 16.8523 1.99837 16.9293C1.9909 16.8899 1.98343 16.8506 1.97597 16.8112C1.91508 16.4944 1.91783 16.454 1.83515 16.3814C1.82245 16.4117 1.80975 16.442 1.79706 16.4723C1.81807 16.6146 1.83652 16.7437 1.85577 16.889C1.77834 17.1251 1.08582 16.8339 0.928228 16.7929C0.902561 16.6873 0.876266 16.5882 0.847654 16.4936C0.830475 16.4946 0.813296 16.4956 0.796117 16.4966C0.699056 16.4306 0.583602 16.2706 0.511719 16.0132C0.51737 15.8863 0.523022 15.7594 0.528674 15.6325C0.82196 16.1907 1.5366 14.7428 1.67154 16.0124C1.66624 16.0398 1.66094 16.0672 1.65564 16.0946C1.61833 16.2905 1.58965 16.3829 1.5926 16.6124C1.60883 16.6278 1.62506 16.6433 1.6413 16.6587C1.73144 16.3543 1.70593 15.9039 1.702 15.4697C1.90762 15.0832 1.85185 15.7146 2.00228 15.6017C2.28313 15.3919 2.52217 14.8689 2.81775 15.0801C2.84649 15.1007 2.86902 15.1173 2.88713 15.1284L2.59315 15.2868C2.67947 15.2463 2.62544 15.2197 2.41531 15.0011C2.48461 14.8492 2.65626 14.938 2.81002 14.8646C2.8612 14.8402 2.61603 14.579 2.68639 14.4828C2.86249 14.5621 2.78936 14.5238 2.98736 14.6526C3.0051 14.6501 3.02283 14.6476 3.04057 14.6451C2.89441 14.511 2.97564 14.5783 2.76996 14.4412C2.78273 14.4369 2.7955 14.4326 2.80827 14.4284C2.87429 14.461 2.94032 14.4937 3.00634 14.5263C3.08453 14.4769 3.15864 13.2951 3.22791 13.2977C4.07599 13.3342 3.11935 12.7051 3.93018 12.6834C3.9822 12.6831 3.7275 12.3018 3.83366 12.2179C3.98587 12.2455 4.00908 12.2636 4.22315 12.3559C4.23956 12.3484 4.25596 12.3408 4.27237 12.3333C4.10101 12.1854 4.16229 12.2349 3.96046 12.0893C3.96175 12.0758 3.96305 12.0623 3.96435 12.0488C4.01229 12.0613 4.06024 12.0739 4.10818 12.0864C4.03698 11.9318 3.99342 11.9139 4.0657 11.8602C4.26887 11.9251 4.44318 11.9992 4.53601 11.9782C4.47242 11.9085 4.40883 11.8388 4.34525 11.7691C4.43204 11.684 4.66476 11.7187 4.68585 11.556C4.69502 11.4861 4.82766 11.0352 4.77534 11.0226C5.36823 11.1652 4.56444 10.3814 5.40691 10.7624C5.38396 10.6532 5.36606 10.5777 5.37277 10.4862C5.59585 10.5315 5.58161 10.5532 5.64308 10.4878C5.5337 10.3525 5.44363 10.2892 5.25331 10.1368C5.25857 10.1293 5.26383 10.1217 5.2691 10.1141C5.33917 10.1646 5.40924 10.2151 5.47932 10.2657C5.73502 10.2814 5.2419 9.80338 5.4251 9.65454C5.44805 9.66549 5.47099 9.67644 5.49393 9.68739C5.54368 9.74297 5.59343 9.79854 5.64318 9.85412C5.8238 9.91592 5.85389 9.90492 5.99148 9.92404C5.86867 9.79849 5.84093 9.77927 5.68259 9.64631C5.6734 9.6238 5.66421 9.60128 5.65501 9.57877C5.80289 9.65028 5.92337 9.70611 6.05924 9.75984C6.05192 9.73808 6.04459 9.71632 6.03726 9.69457C5.14669 8.98251 6.039 9.23834 5.76539 8.93375C5.72587 8.90349 5.68636 8.87324 5.64685 8.84299C5.65431 8.82188 5.66178 8.80076 5.66924 8.77965C5.71633 8.8073 5.76343 8.83494 5.81053 8.86259C5.90127 8.95017 5.99201 9.03775 6.08274 9.12533C6.1085 9.13555 6.13425 9.14576 6.16 9.15598C6.16272 8.8918 6.21149 8.66851 6.20127 8.39464C6.31704 8.43659 6.30302 8.42926 6.38149 8.47301L6.63283 8.2166C6.64752 8.23491 6.66674 8.25883 6.6935 8.2915C6.70065 8.27948 6.7078 8.26745 6.71495 8.25543C6.62068 8.06389 6.52752 7.87328 6.43531 7.683C6.5454 7.5183 6.89571 7.80179 6.91646 7.53384C6.92616 7.41413 6.94149 7.40174 7.03398 7.42361C7.1392 7.57735 7.12924 7.57537 7.24091 7.69619C7.24413 7.68181 7.24735 7.66742 7.25058 7.65304C7.20234 7.56693 7.1541 7.48081 7.10586 7.3947C7.11595 7.38835 7.12604 7.38199 7.13613 7.37563C7.19214 7.44693 7.24815 7.51823 7.30416 7.58953C7.41451 7.35345 7.14537 7.09787 7.49751 7.03735C7.52115 7.05788 7.5448 7.0784 7.56845 7.09893C7.61572 7.19254 7.663 7.28616 7.71027 7.37977C7.79464 7.37873 7.79529 7.38799 7.78489 7.25985C7.70394 7.10189 7.68347 7.06344 7.58965 6.90098C7.64639 6.81746 7.67209 6.86212 7.90544 7.1218ZM12.4162 10.7206C12.6296 10.3265 12.6548 10.2561 12.4755 10.615C12.3387 10.917 12.7092 10.0825 12.3243 10.9652C12.41 10.7673 12.3796 10.8373 12.4834 10.5945C12.5083 10.5255 12.3958 10.8068 12.3986 10.8179C12.3757 10.8894 12.3532 10.961 12.3311 11.0328C12.3401 11.0118 12.3821 10.8827 12.3753 10.9051C12.3253 11.0922 12.3201 11.1485 12.3184 11.1917C12.2759 11.3911 12.293 11.3123 12.2441 11.5381C12.2408 11.5757 12.2656 11.4669 12.3068 11.2747C12.2934 11.3274 12.3492 11.6919 12.3884 12.1318C12.3885 12.1883 12.3887 12.2447 12.3888 12.3012C12.3768 12.5477 12.3569 12.554 12.3399 12.5594C12.2887 12.5755 12.251 12.3968 12.2191 12.3228C12.1463 12.1606 12.0984 12.0102 12.0914 11.8193C12.0888 11.7494 12.0888 11.6881 12.0773 11.6618C12.0719 11.6496 12.0428 11.6941 12.0532 11.6429C12.0659 11.5736 12.1771 11.3003 12.047 11.5668C11.9337 11.7917 11.954 11.5533 11.9503 11.5375C11.9419 11.5176 11.8944 11.5636 11.8758 11.5581C11.8622 11.554 11.8919 11.4833 11.8692 11.4947C11.8463 11.5059 11.7605 11.6072 11.7302 11.6235C11.5878 11.7019 11.4757 11.7162 11.3131 11.7757C11.3216 11.7646 11.4396 11.6163 11.4391 11.6169C11.4071 11.6317 11.1387 11.8549 11.3064 11.6569C11.3799 11.5781 11.4536 11.4994 11.5273 11.4207C11.5244 11.4217 11.5215 11.4226 11.5186 11.4235C11.3627 11.587 11.4415 11.5041 11.2835 11.6707C11.2154 11.7223 11.2179 11.6869 11.2059 11.6687C11.1877 11.6415 10.889 11.8419 11.1068 11.5921C11.1239 11.5728 11.2713 11.4373 11.3493 11.365C11.3482 11.3642 11.3471 11.3633 11.3461 11.3625C11.2712 11.4284 11.0958 11.5835 11.0966 11.5777C11.1003 11.5492 10.6653 11.921 10.9943 11.6045C10.9685 11.6084 10.7997 11.7396 10.8494 11.6805C10.967 11.5744 11.0225 11.5252 11.1516 11.4109C11.1559 11.4055 11.1602 11.4 11.1645 11.3945C11.1038 11.4431 11.0274 11.5039 10.9352 11.5766C10.8285 11.6292 10.7525 11.6492 10.7421 11.6179C10.7391 11.6084 10.5467 11.7447 10.5485 11.7365C10.5579 11.6872 10.4129 11.7616 10.405 11.726C10.4042 11.7236 10.4922 11.6456 10.4957 11.6417C10.5316 11.6017 10.7041 11.4639 10.6086 11.526C10.5178 11.594 10.427 11.662 10.3361 11.7299C10.3116 11.7461 10.287 11.7621 10.2623 11.7782C10.3634 11.6929 10.3542 11.7014 10.5032 11.5823C10.3864 11.6551 10.2959 11.7313 10.2743 11.7403C10.246 11.7515 10.3619 11.6195 10.3071 11.6538C10.2051 11.7169 10.0539 11.8245 9.98193 11.8564C10.0133 11.8326 10.0446 11.8087 10.0759 11.7849C10.3283 11.5932 10.3615 11.5701 10.4146 11.5196C10.3891 11.536 10.3635 11.5524 10.3379 11.5688C10.2237 11.6536 10.12 11.7307 10.0035 11.8174C9.805 11.9461 9.9892 11.7018 10.0129 11.6633C10.0982 11.601 10.1782 11.5424 10.2544 11.4862C10.2524 11.4851 10.2504 11.4839 10.2484 11.4828C10.2963 11.4359 10.4211 11.3348 10.6305 11.1848C10.7362 11.1146 10.8419 11.0444 10.9475 10.9741C10.5052 11.3168 11.7332 10.5469 10.7041 11.29C10.6814 11.3054 10.6587 11.3208 10.636 11.3362C10.4738 11.4461 10.3963 11.4965 10.2091 11.6294C10.1977 11.6399 10.1863 11.6505 10.1749 11.6611C10.4297 11.4942 10.7945 11.23 11.1483 10.9782C11.4743 10.7697 10.9577 11.1328 11.0585 11.0795C11.246 10.9808 11.6779 10.6853 11.524 10.8321C11.4422 10.9112 11.4482 10.9045 11.7398 10.6906C11.7682 10.6855 11.6168 10.8039 11.5552 10.868C11.5347 10.8896 11.8136 10.6806 11.8145 10.6912C11.6663 10.8112 11.7304 10.7599 11.5451 10.9064C11.5352 10.9155 11.5253 10.9247 11.5155 10.9338C11.6707 10.8144 11.5879 10.8787 11.7816 10.7253C11.7757 10.7311 11.7697 10.7369 11.7637 10.7428C11.7069 10.7888 11.6501 10.8349 11.5934 10.881C11.5708 10.9142 12.0752 10.6014 12.0289 10.6381C11.4998 11.1397 12.3595 10.3836 11.8851 10.8509C11.855 10.8821 12.1747 10.6059 12.1484 10.64C12.0469 10.7398 12.0253 10.7597 11.8599 10.9188C11.8537 10.9262 11.8476 10.9336 11.8414 10.941C12.0064 10.7888 11.9488 10.8421 12.1303 10.672C12.1354 10.6682 12.1405 10.6644 12.1456 10.6606C12.1122 10.6936 12.0788 10.7266 12.0455 10.7596C12.1543 10.6644 12.187 10.6318 12.1683 10.6568C12.0226 10.8015 11.8905 10.933 11.8469 10.9828C11.9137 10.9203 11.9803 10.8577 12.0468 10.7948C12.0337 10.8181 11.8873 10.9738 11.9458 10.9305C11.9712 10.9125 12.0882 10.8347 12.1217 10.7966C11.7396 11.2248 12.4969 10.4236 11.8884 11.1044C11.9459 11.0497 11.9863 11.0101 12.0201 10.9802C11.8844 11.1422 11.8833 11.1413 11.8782 11.1573C11.9903 11.0351 12.0626 10.9522 12.2228 10.7697C12.223 10.7702 12.2232 10.7707 12.2234 10.7712C12.1668 10.8363 12.1101 10.9014 12.0534 10.9665C11.9154 11.1409 12.3594 10.6327 12.3195 10.6921C12.3036 10.7116 12.2877 10.7311 12.2718 10.7506C12.2252 10.8057 12.1785 10.8606 12.1316 10.9154C12.0158 11.0595 12.005 11.0754 11.9289 11.1752C12.0396 11.044 12.0609 11.0179 12.1916 10.8594C12.2048 10.8443 12.218 10.8292 12.2311 10.814C12.1295 10.9413 12.0479 11.0442 11.96 11.157C11.9722 11.1436 11.9843 11.1301 11.9963 11.1166C12.7082 10.2321 12.1665 10.933 12.4122 10.6223C12.4422 10.5828 12.4722 10.5433 12.5022 10.5037C12.5059 10.4998 12.5095 10.4957 12.5131 10.4917C12.4804 10.5354 12.4478 10.5791 12.4151 10.6228C12.3402 10.7215 12.2649 10.82 12.1892 10.9181C12.1731 10.9399 12.157 10.9618 12.1409 10.9836C12.2368 10.8768 12.2928 10.816 12.3895 10.6893C12.3043 10.8141 12.3408 10.7608 12.2257 10.9283C12.2296 10.9238 12.2334 10.9194 12.2372 10.9149C12.3581 10.7416 12.4772 10.5689 12.5949 10.3961C12.6352 10.3349 12.4005 10.6976 12.516 10.5234C12.5666 10.4451 12.5669 10.4435 12.5301 10.5036C12.4319 10.6619 12.4354 10.6555 12.3502 10.7943C12.3558 10.7859 12.3613 10.7775 12.3668 10.7692C12.4186 10.6856 12.4703 10.602 12.5217 10.5183C12.5216 10.5187 12.5214 10.5192 12.5212 10.5196C12.4741 10.5969 12.4271 10.6742 12.3802 10.7515C12.4536 10.6417 12.6355 10.3273 12.5597 10.4564C12.5448 10.4828 12.5299 10.5092 12.5151 10.5356C12.4641 10.6262 12.4128 10.7166 12.3613 10.8068C12.3397 10.8485 12.3362 10.8557 12.3916 10.759C12.4772 10.6052 12.4981 10.5673 12.5882 10.4034C12.6051 10.3708 12.5797 10.4155 12.4162 10.7206ZM10.2898 20.699C10.2371 21.1524 10.3674 21.2129 10.2842 21.2473L10.0711 21.5216L9.44636 21.691C9.39059 21.6782 9.27705 21.6122 8.98445 21.5075C8.34374 21.2776 8.74002 22.1376 7.84989 21.3089C7.83236 21.5304 7.83734 21.4522 7.8694 21.7145C7.74686 21.8092 6.31124 21.74 6.03575 21.776C5.98729 21.7079 5.93884 21.6398 5.89038 21.5717C5.80267 21.6093 5.4282 21.8089 5.37966 21.7931C4.97223 21.6644 4.63405 21.6639 4.24357 21.6855C4.16555 21.4917 4.19017 21.5694 4.14737 21.3423C4.0263 21.3244 4.01863 21.4388 3.97916 21.6446C3.57233 21.6592 0.735874 21.7692 0.468083 21.366C0.457397 21.3105 0.44671 21.255 0.436024 21.1995C0.532549 20.9337 0.706599 20.8983 0.876051 20.8642C1.35753 20.7666 1.88231 20.8573 2.37671 20.8461C3.45675 20.8218 4.53056 20.7807 5.61516 20.7839C6.0135 20.7848 6.40885 20.7781 6.80111 20.7339C6.98888 20.7125 7.18204 20.6277 7.37462 20.6478C7.63362 20.6748 7.92687 20.9252 8.10331 20.5956C8.18706 20.4387 8.7159 20.3597 9.21816 20.3135L9.25914 20.3024L9.27311 20.2844C9.5627 20.0211 9.85689 19.7939 9.95851 19.7007C10.2169 19.4648 10.4257 19.1775 10.6785 18.9342C10.8644 18.7555 11.1064 18.6354 11.2813 18.4466C11.4596 18.2546 11.5635 17.9836 11.7387 17.7861C12.5582 16.8586 13.4462 15.9927 14.2532 15.0625C14.2709 15.0654 14.521 15.0944 14.5219 15.0924C14.6957 14.8932 14.9197 14.2109 15.2449 14.2517C15.3312 14.3181 15.4176 14.3843 15.5042 14.4504C15.5207 14.4303 15.5371 14.4104 15.5533 14.3906C15.3917 14.2327 15.4751 14.311 15.3039 14.1574C15.3533 14.0377 15.4635 13.9115 15.5827 13.7845C15.6671 13.6943 15.7433 13.615 15.8232 13.5161C15.9732 13.3319 16.0677 13.02 16.0926 12.7746C16.1187 12.5197 16.1007 12.3916 16.1894 12.1798C16.2025 12.1464 16.3831 12.0608 16.4767 12.0098C16.467 11.9906 16.4568 11.9716 16.4461 11.953C16.3398 11.9676 16.1185 12.0562 16.1013 12.0265C16.0445 11.9339 15.8831 11.9755 15.7811 12.0028C15.6736 12.0271 15.6233 12.0288 15.6381 11.7822C15.4739 11.7299 15.2957 11.903 15.194 11.8057C15.1898 11.6438 15.1905 11.5688 15.1863 11.3938C15.1683 11.3842 15.1504 11.3748 15.1322 11.3657C15.0806 11.4376 15.0195 11.5297 14.9575 11.6439C14.5962 11.7403 14.2828 11.8853 14.0168 12.0209C13.9793 12.0399 13.9599 12.1066 13.9538 12.1734C13.9219 12.2731 13.8963 12.3769 13.8628 12.3962C13.4709 12.627 13.2083 13.0091 12.8372 13.2531C12.8114 13.2704 12.6477 13.2426 12.6336 13.2463C12.4885 13.2843 12.2914 13.1534 12.259 13.3157C12.3194 13.4119 12.3798 13.5082 12.4401 13.6044C12.4353 13.6438 12.4305 13.6832 12.4257 13.7225C12.2676 13.6727 12.2898 13.6722 12.1104 13.5657C12.0548 13.7731 12.2037 13.8123 12.1523 13.8766C12.1112 13.9282 11.8917 14.0097 11.7287 14.086C11.4693 14.2515 11.1824 14.3106 11.1078 14.3471C10.7297 14.5011 10.5518 14.7663 9.8064 14.4687C9.78521 14.4096 9.7676 14.3505 9.75337 14.2918C9.67002 13.8148 9.72106 13.8273 9.56991 13.439C9.51459 13.3975 9.46084 13.35 9.40995 13.2967C9.31312 13.4495 9.24368 13.6065 9.18486 13.7898C9.02271 13.7279 8.59359 12.8611 8.97748 12.0415C9.16016 11.6708 9.49248 11.2056 9.58386 11.0536C9.69847 11.0529 9.80742 11.0486 9.91382 11.0389C9.9243 11.011 9.93479 10.9831 9.94527 10.9552C10.0707 10.8248 10.295 10.7009 10.5806 10.6842C10.6941 10.7417 10.8076 10.7993 10.9211 10.8569C10.3063 11.0791 10.8707 12.3818 10.215 12.5537C10.1065 12.5954 9.9707 12.6449 9.79361 12.6907C9.76865 12.6682 9.74433 12.6449 9.72082 12.6202C9.55219 12.4415 9.52271 12.2742 9.30393 12.2023C9.25835 12.2752 9.21664 12.3557 9.18143 12.4419C9.40452 13.008 9.90709 12.7785 10.3294 12.8057C10.5309 12.9558 10.4969 12.9488 10.4442 13.0573C10.3919 13.1455 10.3333 13.2967 10.5063 13.3405C10.775 13.3981 10.9724 13.1919 10.9813 13.0309C11.102 12.7353 11.2453 12.4734 11.5642 12.4002C11.8527 12.3342 11.8059 12.3566 11.7129 11.9794C11.9316 11.793 12.0713 11.9296 12.3287 11.8551C12.4144 11.8304 12.3309 11.4626 12.5028 11.348C12.6564 11.4729 12.5972 11.4142 12.7357 11.6055C12.7602 11.6046 12.7847 11.6037 12.8093 11.6028C12.7408 11.4113 12.7851 11.5084 12.6442 11.3054C12.664 11.3015 12.6838 11.2977 12.7036 11.2938C12.7586 11.3444 12.8137 11.395 12.8687 11.4456C12.9104 11.4298 13.0364 11.2878 13.1957 11.0955C13.6729 10.4898 14.9079 10.1245 14.9708 10.2019C15.4536 10.5914 15.6516 10.5575 15.9504 10.5402C16.2182 10.5271 16.6414 10.5572 16.8408 11.2403C16.8501 11.2835 17.0109 11.3154 17.1932 11.4273C17.3746 11.5341 17.5678 11.737 17.5976 11.9505C17.5024 12.1694 17.4679 12.1711 17.2533 12.305C17.2477 12.3451 17.2408 12.385 17.2326 12.4244C17.4588 12.4961 17.3795 12.4786 17.6282 12.5113C17.6341 12.5469 17.6392 12.5827 17.6435 12.6189C17.5939 12.6638 17.543 12.7058 17.491 12.745C17.5992 13.0059 17.6423 13.0152 17.5519 13.2211C17.3078 13.3104 17.109 13.3063 16.9864 13.4159C17.0466 13.503 17.1072 13.5863 17.163 13.6763C17.0047 13.9143 16.7199 13.954 16.59 14.2307C16.5678 14.2758 16.4987 14.3999 16.4012 14.5484C16.2519 14.7862 16.0709 15.0566 16.1077 15.0656C15.4435 14.9148 15.9194 15.9758 15.1121 15.4766C15.0637 15.6282 15.0321 15.733 14.9577 15.8602C14.7065 15.802 14.7395 15.7724 14.6144 15.8636C14.6564 16.0482 14.725 16.1345 14.8567 16.3422C14.8444 16.3529 14.8321 16.3635 14.8198 16.3742C14.7673 16.3054 14.7147 16.2366 14.6622 16.1678C14.3488 16.1491 14.6272 16.8036 14.2852 17.0091C14.264 16.9942 14.2428 16.9793 14.2217 16.9644C14.1991 16.8882 14.1765 16.8121 14.1538 16.736C13.9697 16.6517 13.9225 16.6678 13.7623 16.6414C13.8269 16.813 13.8481 16.8393 13.9521 17.0212C13.9473 17.0521 13.9425 17.0829 13.9377 17.1138C13.802 17.0162 13.6897 16.94 13.5567 16.8663C13.5503 16.896 13.5438 16.9257 13.5372 16.9555C14.1472 17.9305 13.2036 17.5791 13.3298 17.9956C13.3579 18.0369 13.3861 18.0782 13.4143 18.1195C13.3898 18.1482 13.3652 18.177 13.3406 18.2058C13.3009 18.1681 13.2613 18.1303 13.2216 18.0926C13.1699 17.973 13.1181 17.8534 13.0665 17.7338C13.0413 17.7199 13.016 17.7059 12.9908 17.692C12.7968 18.0529 12.5755 18.358 12.3967 18.7316C12.2498 18.6603 12.3081 18.6947 12.1507 18.5629C12.1383 18.5819 12.126 18.6008 12.1137 18.6197C12.2154 18.8123 12.316 19.004 12.4157 19.1956C12.2328 19.4594 11.7807 19.2869 11.7114 19.6354C11.6807 19.7907 11.6575 19.8144 11.5307 19.8365C11.404 19.6999 11.4177 19.6969 11.2773 19.6053C11.2708 19.6252 11.2642 19.645 11.2577 19.6649C11.3138 19.747 11.3699 19.8291 11.4262 19.9112C11.4113 19.9245 11.3963 19.938 11.3813 19.9514C11.3121 19.8922 11.243 19.8331 11.1738 19.774C10.9889 20.1316 11.3326 20.3029 10.8418 20.5726C10.8113 20.5601 10.7808 20.5476 10.7502 20.5352C10.6939 20.4447 10.6377 20.3542 10.5818 20.2635C10.4654 20.3121 10.4643 20.302 10.4668 20.4566C10.564 20.6083 10.5888 20.6446 10.7039 20.7941C10.6206 20.9294 10.5891 20.8887 10.2898 20.699Z" fill="black"/>
<path d="M13.3475 20.0426C13.7957 20.2315 13.8698 20.0813 13.4685 20.3067C13.137 20.4925 14.0502 20.4143 13.0871 20.6461C13.3028 20.663 13.2265 20.6574 13.4905 20.661C13.5019 20.6676 13.5042 20.6839 13.5 20.7062L13.7513 21.4839L12.2307 21.9754C12.1061 21.9523 11.7819 21.735 11.7087 21.7269C11.6972 21.6518 11.6858 21.5768 11.6743 21.5017C11.6454 21.5244 11.5199 21.6601 11.5057 21.6367C11.3868 21.443 11.2827 21.3873 11.1614 21.3448C11.1472 21.1409 11.1509 21.2215 11.1493 20.9905C11.1129 20.9531 11.1047 21.0646 11.0821 21.2612C10.956 21.2091 10.0769 20.8541 10.0151 20.4125C10.0146 20.356 10.0141 20.2995 10.0137 20.2431C10.057 19.9966 10.1124 19.9901 10.1663 19.9842C10.3195 19.9666 10.4765 20.1419 10.6293 20.2115C10.9631 20.3641 11.2959 20.499 11.6297 20.6795C11.7524 20.7455 11.8745 20.8035 11.9975 20.824C12.0564 20.8335 12.1202 20.7814 12.1785 20.8328C12.196 20.8482 12.2134 20.8747 12.2307 20.9035L12.4671 20.8271L12.428 20.7062C12.5283 20.6468 12.6551 20.5869 12.4248 20.5316C12.174 20.4718 12.3961 19.9903 12.4071 19.8923C12.4204 19.7825 12.3566 19.6728 12.3515 19.5632C12.3478 19.4825 12.4233 19.401 12.4013 19.3211C12.3793 19.2389 12.2473 19.1582 12.2165 19.0764C12.1917 19.0123 12.1688 18.9459 12.1471 18.881C12.1363 18.8478 12.1258 18.8159 12.1154 18.7828C12.1129 18.7756 12.1103 18.766 12.1077 18.7585C12.1065 18.7561 12.1052 18.7488 12.1039 18.7466C12.1038 18.7464 12.1038 18.7463 12.1037 18.7462C12.1036 18.7461 12.1036 18.746 12.1036 18.746C12.1035 18.7463 12.1035 18.745 12.1035 18.745C12.1035 18.7449 12.1035 18.7449 12.1035 18.7449C12.1035 18.7449 12.1035 18.7449 12.1035 18.7449C12.1035 18.7449 12.1035 18.7449 12.1035 18.7449C12.1035 18.7449 12.1035 18.7449 12.1035 18.7449C11.9622 18.7449 12.4993 18.7449 12.3579 18.7449C12.3579 18.7449 12.3579 18.7449 12.3579 18.7449C12.3579 18.7449 12.3579 18.7449 12.3579 18.7449C12.3579 18.7449 12.3579 18.7449 12.3579 18.7449C12.3579 18.7449 12.3579 18.7449 12.3579 18.7449C12.3579 18.7449 12.3579 18.7449 12.3579 18.7449C12.3579 18.7449 12.3579 18.7449 12.3579 18.7449C12.3579 18.7449 12.3579 18.7449 12.3579 18.7449C12.3579 18.7449 12.3579 18.7449 12.3579 18.7449C12.3579 18.7449 12.3579 18.7449 12.3579 18.7449C12.3579 18.7449 12.3579 18.7449 12.3579 18.7449C12.3579 18.745 12.3579 18.7451 12.358 18.7454C12.358 18.747 12.358 18.7459 12.358 18.7462C12.3582 18.7465 12.3583 18.7468 12.3585 18.7471C12.3588 18.7478 12.3591 18.7487 12.3594 18.7497C12.3601 18.7514 12.3607 18.7553 12.3613 18.7567C12.3664 18.7717 12.3714 18.7871 12.3764 18.8059C12.3792 18.7617 12.6603 18.7431 12.8626 18.6148C12.8662 18.6286 12.9302 18.8129 12.9316 18.812C13.0098 18.773 13.1399 18.4049 13.2422 18.6494C13.2646 18.755 13.2872 18.8605 13.3101 18.9659C13.3176 18.9619 13.3251 18.9579 13.3325 18.9539C13.2925 18.7316 13.3134 18.844 13.2698 18.6186C13.3157 18.525 13.4159 18.5337 13.5122 18.5174C13.6132 18.5002 13.7165 18.3251 13.8289 18.2786L13.4289 18.7515C13.428 18.6776 13.4658 18.6116 13.5872 18.5671C13.614 18.5572 13.813 18.5783 13.919 18.5871C13.9195 18.5799 13.92 18.5728 13.9205 18.5656C13.8224 18.5438 13.5916 18.5004 13.5977 18.4834C13.6292 18.3902 13.0652 18.2805 13.5271 18.2459C13.512 18.1756 13.3051 18.0998 13.3864 18.0543C13.5454 18.0559 13.6196 18.059 13.7922 18.0655C13.7996 18.0596 13.8071 18.0537 13.8146 18.0477C13.7387 18.0254 13.6434 17.9976 13.5288 17.964C13.4281 17.8144 13.3717 17.6629 13.3973 17.5245C13.4052 17.4818 13.1775 17.3934 13.1863 17.3724C13.2383 17.2354 13.0926 17.0844 13.1217 16.948C13.1235 16.9385 13.2439 16.9136 13.2494 16.9099C13.3063 16.8716 13.5286 16.8671 13.4192 16.8184C13.3066 16.8052 13.1939 16.7919 13.0812 16.7786C13.0528 16.7674 13.0245 16.7562 12.9961 16.745C13.1306 16.727 13.1176 16.7315 13.31 16.7241C13.1787 16.6592 13.0581 16.6781 13.038 16.6513C13.0119 16.617 13.1987 16.4735 13.1366 16.4459C13.0216 16.3948 12.8377 16.3682 12.7676 16.2955C12.8072 16.2954 12.8467 16.2953 12.8863 16.2952C13.2048 16.2939 13.2449 16.2994 13.3216 16.2621C13.2921 16.2522 13.2626 16.2424 13.2331 16.2325C13.0904 16.2297 12.9609 16.2268 12.8154 16.2227C12.5846 16.1575 12.9116 15.8133 12.961 15.7325C13.0675 15.7292 13.1674 15.7249 13.2631 15.7189C13.263 15.7095 13.263 15.7001 13.2629 15.6908C13.3338 15.6451 13.4992 15.5988 13.7593 15.5857C13.8852 15.6013 14.0112 15.617 14.1371 15.6327C13.5659 15.7352 14.9681 16.2643 13.6975 16.2106C13.6705 16.2051 13.6436 16.1995 13.6166 16.1939C13.4237 16.1543 13.3333 16.1297 13.1047 16.1084C13.0885 16.1156 13.0723 16.1228 13.0561 16.13C13.3541 16.2089 13.8037 16.24 14.2359 16.2811C14.6094 16.4303 13.9841 16.3374 14.0884 16.4297C14.282 16.6019 14.7895 16.7827 14.5634 16.921C14.4425 16.9947 14.4528 16.9797 14.8082 17.0598C14.8249 17.1513 14.6325 17.143 14.5371 17.2129C14.5053 17.2361 14.8475 17.3157 14.8352 17.3792C14.6438 17.3767 14.726 17.3805 14.4909 17.3577C14.4769 17.3628 14.4629 17.3678 14.4489 17.3729C14.6421 17.4094 14.5383 17.3927 14.7842 17.418C14.7754 17.4229 14.7665 17.4278 14.7577 17.4327C14.6845 17.4303 14.6112 17.4279 14.538 17.4255C14.4956 17.4671 15.0254 18.0794 14.9644 18.0928C14.2162 18.2553 15.3555 18.3688 14.6685 18.5526C14.6239 18.5639 15.0346 18.702 14.9854 18.767C14.8405 18.7855 14.8115 18.7813 14.5809 18.7804C14.5705 18.7877 14.5602 18.795 14.5499 18.8023C14.7716 18.8404 14.694 18.8285 14.9409 18.8589C14.9465 18.866 14.9522 18.8731 14.9578 18.8802C14.9135 18.8838 14.8692 18.8875 14.8248 18.8911L14.8876 19.1814L14.198 19.6321C14.1966 19.6292 14.1951 19.6263 14.1936 19.6234C14.1788 19.7771 14.1936 19.821 14.1358 19.8042C14.0493 19.6143 13.9859 19.4381 13.9308 19.3837C13.9392 19.4758 13.9478 19.5678 13.9554 19.66C13.879 19.6518 13.7761 19.4564 13.7066 19.5446C13.6783 19.5834 13.4379 19.7682 13.4552 19.8155C13.2458 19.2698 13.2596 20.3805 13.0584 19.4839C13.0196 19.5678 12.9911 19.6273 12.943 19.6761C12.8721 19.4695 12.8903 19.4683 12.8339 19.4561C12.8082 19.6233 12.8097 19.7333 12.802 19.9765C12.795 19.9765 12.7881 19.9765 12.7812 19.9765C12.7814 19.8901 12.7815 19.8038 12.7813 19.7174C12.6897 19.4956 12.609 20.1809 12.3451 20.0772C12.3446 20.0517 12.3442 20.0262 12.344 20.0007C12.3762 19.9326 12.4069 19.8639 12.4324 19.7942C12.4097 19.6052 12.3908 19.5834 12.3611 19.4498C12.2916 19.6106 12.2824 19.643 12.2035 19.8349C12.1799 19.8496 12.1552 19.8635 12.1292 19.8767C12.145 19.7113 12.1612 19.5783 12.1784 19.4313C12.1554 19.4415 12.1311 19.4508 12.1055 19.4587C11.8784 19.8092 11.6334 19.8641 11.4055 19.6651C11.1686 19.4681 11.1062 19.0289 11.1402 18.8059C11.147 18.7908 11.1467 18.7823 11.1316 18.7709C11.124 18.7649 11.1128 18.7604 11.0968 18.7569C11.0888 18.7554 11.0797 18.7512 11.0693 18.7495C11.064 18.7485 11.0585 18.7477 11.0526 18.7471C11.0497 18.7467 11.0467 18.7464 11.0436 18.7462C11.0432 18.7464 11.0428 18.7457 11.0424 18.745C11.0423 18.7449 11.0423 18.7449 11.0422 18.7449C11.0422 18.7449 11.0422 18.7449 11.0422 18.7449C11.0422 18.7449 11.0422 18.7449 11.0422 18.7449C11.0422 18.7449 11.0422 18.7449 11.0422 18.7449C11.0422 18.7449 11.0422 18.7449 11.0422 18.7449C9.72161 18.7449 14.7398 18.7449 13.4193 18.7449C13.4193 18.7449 13.4193 18.7449 13.4193 18.7449C13.4193 18.7449 13.4193 18.7449 13.4193 18.7449C13.4193 18.7449 13.4193 18.7449 13.4193 18.7449C13.4193 18.7449 13.4193 18.7449 13.4193 18.7449C13.4193 18.7449 13.4193 18.7449 13.4193 18.7449C13.4193 18.7449 13.4193 18.7449 13.4193 18.7449C13.4193 18.7449 13.4193 18.7449 13.4193 18.7449C13.4193 18.7449 13.4193 18.7449 13.4193 18.7449C13.4193 18.7449 13.4193 18.7449 13.4193 18.7449C13.4193 18.7449 13.4193 18.7449 13.4193 18.7449C13.4193 18.7449 13.4193 18.7449 13.4193 18.7449C13.4193 18.7449 13.4193 18.7449 13.4193 18.7449C13.4194 18.745 13.4195 18.7451 13.4196 18.7453C13.4198 18.7458 13.42 18.746 13.4202 18.746C13.421 18.746 13.4218 18.7461 13.4226 18.7462C13.4242 18.7463 13.4258 18.7464 13.4275 18.7466C13.4771 18.7478 13.5267 18.7496 13.5764 18.752C13.5818 18.7632 13.5871 18.7759 13.5925 18.7872C13.538 18.7888 13.4834 18.7904 13.4289 18.792C13.305 18.7791 13.181 18.7654 13.0571 18.7549C13.0299 18.7572 13.0028 18.7599 12.9757 18.763C13.1187 18.8831 13.2008 19.0008 13.3599 19.1201C13.2089 19.1396 13.2734 19.1332 13.0702 19.1425C13.0761 19.1495 13.0819 19.1565 13.0878 19.1636C13.299 19.18 13.5089 19.1966 13.7179 19.214C13.7913 19.3136 13.3592 19.3834 13.5683 19.4748C13.6614 19.5157 13.6629 19.5262 13.5925 19.5611C13.4062 19.5609 13.4135 19.557 13.2507 19.5699C13.2607 19.5757 13.2707 19.5815 13.2808 19.5873C13.379 19.5921 13.4773 19.597 13.5756 19.6019C13.5751 19.6083 13.5747 19.6148 13.5742 19.6212C13.4837 19.6244 13.3932 19.6275 13.3027 19.6306C13.4347 19.7523 13.7978 19.7106 13.6482 19.8864C13.6179 19.8907 13.5876 19.8949 13.5573 19.8992C13.4534 19.8916 13.3494 19.884 13.2455 19.8763C13.1986 19.9143 13.1906 19.9118 13.3021 19.9465C13.4781 19.9588 13.5214 19.9615 13.7084 19.9694C13.7451 20.0204 13.6937 20.0181 13.3475 20.0426Z" fill="black"/>
<path d="M24.216 9.20283C24.4017 10.0732 24.6778 9.54478 23.9599 10.2597C23.3469 10.7935 24.2934 10.9702 22.99 11.2922C23.1381 11.4623 23.0847 11.4036 23.3008 11.556C23.2941 11.7773 21.9597 12.9894 21.6923 13.1844C21.6071 13.1635 21.5224 13.1417 21.4383 13.1189C21.3779 13.2142 21.1087 13.6434 21.0493 13.6604C20.5736 13.8154 20.2286 14.01 19.8254 14.2346C19.6669 14.0959 19.7237 14.1547 19.5893 13.9667C19.4581 14.01 19.4945 14.119 19.53 14.3302C19.2686 14.4744 17.933 15.0726 16.8653 15.1439L16.8141 15.1647L16.7426 15.1258C16.3257 14.6945 16.0176 14.3091 16.0399 14.1301C16.0699 14.0821 16.0998 14.0342 16.1298 13.9863C16.395 13.867 16.5633 13.9713 16.7267 14.0732C16.8947 14.1776 17.0503 14.3039 17.2 14.4397L16.6252 14.355C16.9454 14.3128 17.2883 14.2754 17.6092 14.1812C18.7069 13.8565 19.7623 13.3248 20.7493 12.6408C21.1117 12.3887 21.455 12.104 21.7491 11.7694C21.8901 11.6088 21.9855 11.393 22.1466 11.249C22.3621 11.058 22.7697 10.958 22.639 10.5826C22.5659 10.2934 23.4087 8.7808 23.4536 8.40397C23.5551 8.01492 23.5513 7.60891 23.5773 7.2142C23.5834 7.12187 23.5961 7.02903 23.6097 6.93503C23.6389 6.72958 23.6741 6.53154 23.6596 6.34014C23.6381 6.0313 23.4965 5.75571 23.4416 5.46559C23.2323 4.16709 22.5162 2.65318 21.2859 2.74971C21.2792 2.73331 21.1304 2.53367 21.1242 2.53554C20.8312 2.54276 20.2865 3.00679 20.0093 2.83978C19.9599 2.74255 19.9104 2.64547 19.8595 2.54891C19.8336 2.56062 19.8077 2.57257 19.7817 2.58477C19.8618 2.79605 19.8192 2.68982 19.9101 2.90109C19.7323 3.05299 19.4099 3.1616 19.1011 3.3257C18.587 3.58862 18.089 4.39017 17.4735 4.50531C17.4243 4.5146 17.2944 4.36238 17.2188 4.2872C17.1999 4.30435 17.1811 4.32156 17.1623 4.33884C17.1977 4.44137 17.3043 4.66101 17.2576 4.69868C17.1977 4.74761 17.1667 4.81527 17.1485 4.88759L16.7408 5.21852L16.4764 4.86564C16.2421 4.79803 15.9672 4.87988 16.0612 4.48755C15.878 4.3457 15.6045 4.39448 15.5186 4.22933C15.5801 4.07621 15.614 4.00874 15.6896 3.84952C15.6756 3.83021 15.6615 3.81097 15.6473 3.7918C15.5601 3.82371 15.4531 3.86622 15.3259 3.92029C14.885 3.7511 14.4544 3.59878 14.0601 3.44869C13.9346 3.39961 13.692 3.57871 13.6415 3.56186C13.2675 3.43944 12.94 3.60794 12.6901 3.67428C12.673 3.67825 12.5623 3.59405 12.5506 3.59386C12.4475 3.57916 12.2821 3.41651 12.2598 3.56345C12.3157 3.66227 12.3725 3.76056 12.4302 3.85833C12.4328 3.89143 12.4363 3.92427 12.4407 3.95683C12.3172 3.88255 12.3337 3.8858 12.1695 3.77268C12.1684 3.95276 12.3009 3.99541 12.2781 4.04614C12.2561 4.09092 11.8899 4.27294 11.9166 4.36627C11.9666 4.51248 12.1148 4.62323 12.1162 4.7898C12.0768 4.78073 12.0371 4.77213 11.9973 4.76398C11.6753 4.70362 11.6371 4.68791 11.5213 4.77549C11.5417 4.80543 11.5624 4.8352 11.5832 4.86482C11.7275 4.88689 11.8572 4.91122 12.001 4.944C12.1605 5.09365 11.6138 6.01157 11.5542 6.30604C11.4437 6.33386 11.3395 6.3658 11.2393 6.40463C11.2365 6.43511 11.2338 6.46587 11.2312 6.49692C11.1465 6.65289 10.9695 6.8434 10.7034 6.96496C10.5776 6.94551 10.4518 6.92575 10.326 6.90568C10.8825 6.45092 9.75286 4.7597 11.0797 4.90063C11.1026 4.91816 11.1256 4.93559 11.1487 4.95291C11.3139 5.07564 11.3883 5.14769 11.6086 5.21222C11.6311 5.1924 11.6535 5.17319 11.6759 5.15462C11.4316 4.92783 10.9983 4.80585 10.5856 4.66941C10.3712 4.14469 10.9131 4.49429 10.9313 4.1911C10.9621 3.65873 10.8997 2.83729 11.6118 2.61426C11.9783 2.52483 11.8945 2.57038 11.9342 2.15414C12.311 1.9818 12.4212 2.16103 12.7545 2.19782C12.8585 2.21456 13.0309 1.84558 13.3259 1.86579C13.3884 2.06029 13.3717 1.97734 13.3598 2.21313C13.3843 2.22825 13.4085 2.24363 13.4325 2.25927C13.5188 2.0707 13.4848 2.173 13.5126 1.92729C13.5364 1.9381 13.5601 1.94913 13.5835 1.96038C13.5955 2.03549 13.6064 2.11064 13.616 2.18578C13.702 2.21185 14.3251 2.18096 14.9277 2.3114C15.5286 2.42711 16.0911 2.66092 16.1056 2.70693C16.405 3.80103 17.1055 3.02699 17.3623 4.06741L16.3166 4.03324C16.3496 4.02587 16.3846 4.01926 16.4215 4.01351C16.4911 4.00547 16.4759 3.44067 16.7155 3.29505C16.9052 3.32107 16.9205 3.34697 17.1306 3.47132C17.1609 3.45888 17.1912 3.4466 17.2216 3.43448C17.1279 3.22188 17.1649 3.29282 17.0275 3.08434C17.0435 3.06357 17.0595 3.04285 17.0757 3.02218C17.1312 3.03831 17.1865 3.05483 17.2415 3.07174C17.304 2.84264 17.263 2.81561 17.4274 2.73448C17.6471 2.82985 17.8096 2.94354 17.9636 2.9196C17.9525 2.81705 17.9426 2.71408 17.934 2.61071C18.1613 2.49523 18.4456 2.57189 18.6831 2.36392C18.7717 2.26149 19.623 1.75514 19.5823 1.73287C19.8956 1.92891 20.0704 1.74407 20.2789 1.61142C20.4831 1.47893 20.725 1.40591 20.9119 1.85579C21.0863 1.77047 21.2161 1.71635 21.4192 1.69377C21.5987 1.93193 21.5275 1.91883 21.729 1.98009C21.892 1.85121 21.9346 1.75107 22.0699 1.53947C22.095 1.54802 22.12 1.55692 22.1449 1.56617C22.1056 1.64375 22.0672 1.7217 22.0296 1.8C22.2283 2.1094 22.9021 1.6644 23.3551 2.21918C23.3439 2.24397 23.3325 2.26862 23.3209 2.29314C23.2306 2.30191 23.1419 2.31458 23.0552 2.33107C23.0156 2.55119 23.0454 2.61103 23.037 2.79756C23.2257 2.75831 23.2541 2.74078 23.4567 2.6691C23.4949 2.68724 23.5324 2.7055 23.5687 2.72299C23.4656 2.86075 23.382 2.97252 23.296 3.10593C23.3284 3.12422 23.3608 3.14341 23.3931 3.16349C24.534 2.84259 24.0024 3.90961 24.4168 3.99065C24.467 3.98591 24.5172 3.98139 24.5674 3.97708C24.5866 4.02798 24.6052 4.07954 24.6233 4.13177C24.5719 4.15133 24.5205 4.17125 24.4689 4.18997C24.3352 4.16322 24.2014 4.13926 24.068 4.11983C24.0451 4.13923 24.0221 4.1585 23.999 4.17764C24.2593 4.61456 24.4044 5.08715 24.5941 5.54536C24.4484 5.63384 24.5111 5.60381 24.3104 5.65253C24.3179 5.67951 24.3252 5.70667 24.3324 5.73402C24.5467 5.79207 24.7588 5.8442 24.97 5.90748C25.0549 6.3187 24.6182 6.57345 24.8123 6.94524C24.8208 6.96189 24.8283 6.97738 24.8351 6.9919C24.8964 7.12929 24.8882 7.17947 24.8152 7.30323C24.6295 7.28765 24.638 7.27346 24.4716 7.31124C24.4797 7.33529 24.4877 7.35938 24.4956 7.3835C24.5917 7.41165 24.6878 7.44039 24.7837 7.4697C24.7808 7.49572 24.7776 7.52294 24.7743 7.54966C24.683 7.55329 24.5916 7.55653 24.5003 7.5594C24.569 8.06039 24.9639 7.95788 24.6695 8.65371C24.636 8.6646 24.6025 8.67529 24.569 8.68578C24.4748 8.6316 24.3802 8.57836 24.2853 8.52608C24.2061 8.66551 24.2009 8.6517 24.2757 8.81398C24.4341 8.90533 24.4732 8.92708 24.6455 9.00721C24.625 9.22589 24.5759 9.2052 24.216 9.20283Z" fill="black"/>
</svg>
