<svg width="68" height="68" viewBox="0 0 68 68" fill="none" xmlns="http://www.w3.org/2000/svg">
<path d="M12.9867 21.6678C12.9855 21.6577 12.9843 21.6476 12.9831 21.6374C12.8421 20.0008 12.7749 19.7618 12.6851 19.5682C12.6602 19.1999 12.5356 19.2825 14.0715 16.922C14.4525 16.4071 14.7269 16.054 14.9169 15.762C15.4811 14.9337 15.5802 14.5024 16.0175 14.014C16.4458 13.5641 17.3273 12.9779 19.2519 12.9708C19.3524 12.4541 19.3251 12.6344 19.1772 12.1228C19.3657 11.9998 20.1034 11.7043 21.1139 11.4949C22.5149 11.2158 23.9736 11.2204 25.6384 11.6956C26.4361 11.9381 26.9206 12.275 27.1934 12.4294L27.2041 12.4346C28.3206 13.0651 29.1157 13.7311 29.4794 14.0152C29.5486 14.2572 29.6102 14.4986 29.6645 14.7389C30.0962 14.9834 31.7931 16.3405 31.8909 16.5851C32.285 17.2935 32.6308 17.9638 32.9511 18.6332C33.4848 19.7403 33.8082 20.7523 34.2487 21.6749C33.9841 22.0415 34.103 21.9211 33.7102 22.166C33.7558 22.2837 33.8065 22.3719 33.8631 22.4384C33.9679 22.5703 34.0668 22.6208 34.1878 22.6354C34.3025 22.6445 34.4581 22.63 34.5333 22.4911C34.5212 22.4828 34.501 22.4664 34.4548 22.44C34.4149 22.42 34.2578 22.3407 34.0367 22.3758C33.8179 22.4149 33.749 22.5181 33.7731 22.5032C33.7936 22.4962 33.8655 22.421 33.9472 22.3059C34.0375 22.183 34.1062 22.0569 34.3038 21.7816L34.2445 21.8774C34.3862 21.713 34.4708 21.2507 34.8028 20.5514L34.7797 20.6061C35.9369 17.9256 38.2719 14.396 40.7364 12.9452C41.2265 12.6571 41.7056 12.5698 42.1268 12.4656C43.0174 12.3276 43.71 12.5051 44.0059 12.5624C44.0162 12.5645 44.0229 12.5677 44.0292 12.5709C44.0668 12.6777 44.1043 12.7845 44.1418 12.8913C44.1323 12.9037 44.1227 12.9159 44.113 12.928C43.5157 13.4699 42.7951 13.5904 42.6357 13.7089C42.484 13.7774 42.3483 13.8352 42.2217 13.893C41.9831 13.9983 41.7296 14.139 41.7169 14.1468C40.31 15.2234 38.9402 16.614 37.9239 18.2575C37.3427 19.1945 36.8291 20.1892 36.3639 21.2142L36.344 21.2614C36.1681 21.5432 36.0853 22.0855 35.738 22.6896L35.6966 22.7564C35.5782 22.897 35.4011 23.2261 35.148 23.5216C35.0134 23.6719 34.8584 23.8489 34.552 23.9826C34.2437 24.1339 33.7667 24.045 33.5546 23.8769C33.1045 23.533 33.0427 23.2272 32.9147 23.0111C32.3013 21.8467 31.959 20.6597 31.3923 19.6026C30.7847 18.4694 30.0233 17.4034 29.1234 16.4492C28.3102 15.5887 27.3744 14.8279 26.3171 14.2483C25.951 14.0504 25.5754 13.8187 25.1312 13.692C24.8694 13.6169 24.6037 13.5649 24.3365 13.5289C23.4654 13.4165 22.5389 13.5467 21.6716 13.6867C21.6169 13.6957 21.5623 13.7044 21.5076 13.7127C20.3272 13.8795 18.831 13.9068 18.2195 15.0861C18.0765 15.3866 17.36 15.9692 16.7293 16.9526C16.1387 17.8292 15.631 19.0342 15.3392 20.1988C15.1888 20.7385 15.0102 21.3003 14.9466 21.8312C14.8563 22.5575 14.7839 23.2719 14.6841 23.5582L14.66 23.6839C14.6535 23.8743 14.6489 24.0331 14.6471 24.1538C14.6259 25.5007 14.7044 26.8466 14.7412 28.1923L14.7554 28.2768C14.851 28.5294 14.876 28.8508 14.9048 29.1763C14.9157 29.3 14.9259 29.4266 14.9419 29.5572C15.077 30.664 15.1896 31.7997 15.5312 32.865C15.9175 34.075 16.5991 35.1475 17.1637 36.2549C17.8899 37.679 18.7214 39.0416 19.5918 40.379C21.9068 43.9328 24.4617 47.3459 27.4673 50.2641C27.4844 50.3263 27.7422 51.1489 27.7534 51.1559C28.6446 52.0319 31.3174 53.5061 31.7823 54.4825C31.7057 54.6963 31.6304 54.9107 31.5564 55.1257C31.6565 55.196 31.7569 55.2657 31.8578 55.3349C32.1166 54.9641 31.994 55.1583 32.2196 54.7533C32.3828 54.8372 32.5577 54.9377 32.743 55.0503C32.6835 55.0039 32.8248 55.0663 32.9487 55.1014C33.0882 55.1507 33.2292 55.1769 33.5048 55.3361L33.0846 55.2142C33.4014 55.2069 33.7366 55.2057 34.0824 55.2072L33.6843 55.3144C33.9491 55.1745 34.0408 55.1552 34.1862 55.0947C34.3164 55.0438 34.4514 54.9893 34.52 54.9547C34.7196 54.8526 34.9161 54.7327 35.1068 54.5975C35.8519 54.0809 36.5526 53.1124 37.3423 52.0485C38.4706 50.5238 39.5963 48.9061 40.7484 47.9722C40.9002 47.8489 41.2147 48.097 41.4038 48.1984C41.4671 48.1091 41.5301 48.0196 41.5929 47.9299C41.535 47.6664 41.3263 47.1487 41.4829 46.9368C42.3401 45.7632 41.7975 44.4874 43.2026 43.9451C43.4596 43.4814 43.5949 43.0095 43.7361 42.5785C43.8197 42.2686 43.9214 41.8865 44.2122 41.5018C44.2225 41.4891 44.2331 41.4764 44.2439 41.4638C44.6281 41.4332 44.7887 41.4521 45.1691 41.484C45.2318 41.4035 45.2945 41.3232 45.3571 41.2429C45.3349 40.9718 45.3053 40.6346 45.2651 40.2317C45.3995 39.921 45.5332 39.6106 45.6606 39.3037L45.6557 39.3129C46.3343 37.6536 47.0689 35.9775 47.8606 34.3854C48.0431 34.0187 48.1116 33.453 48.173 33.0101L48.1793 32.9969C48.2198 32.7292 48.2578 32.5066 48.3162 32.3971C48.9036 31.2864 49.3422 30.1599 49.7333 29.0525C49.881 28.6438 50.0049 28.2908 50.0633 28.0439L50.0692 28.0253C50.1766 27.6339 50.2792 27.2421 50.3849 26.8488C50.4203 26.7227 50.7614 26.2818 50.7823 26.2242C51.0087 25.6549 51.5055 25.3468 51.35 24.7878C51.1285 24.7311 50.9068 24.6754 50.685 24.6207C50.6407 24.501 50.5952 24.3822 50.5486 24.2644C50.8529 23.8688 50.8205 23.9458 51.2272 23.6063C50.9934 22.8751 50.7339 23.2942 50.7021 22.9564C50.6774 22.6683 50.8222 21.5764 50.8034 20.7991L50.8043 20.8092C50.8021 20.4887 50.7613 20.1833 50.7059 20.0942C50.4304 19.6391 50.0991 19.559 49.8163 18.7964C49.774 18.7017 49.7331 18.5939 49.6937 18.4734C49.7641 18.4088 49.8344 18.3452 49.9043 18.2803C50.4618 17.7526 50.5489 17.7456 50.5679 17.138C50.4889 17.0629 50.4094 16.9907 50.3294 16.9208C50.0884 17.13 49.864 17.3079 49.6061 17.492C49.4021 17.3529 49.2208 16.6507 48.9823 16.088C48.7179 15.4943 48.6046 15.2936 48.3368 15.1057C47.9166 14.9404 47.8396 14.8898 47.8202 14.8663C47.8098 14.8182 47.2416 14.7439 46.8572 14.6585C46.694 14.5249 46.5068 14.3847 46.2774 14.2069L47.0144 14.3267C46.901 14.2239 46.7843 14.124 46.6625 14.0265C46.5207 14.0285 46.3789 14.0304 46.2371 14.0324C45.4359 13.9004 44.4828 13.5805 43.8894 13.0656C43.9361 12.8118 43.9827 12.5581 44.0294 12.3043C44.775 12.6481 45.8505 12.6114 47.0144 12.4701L46.8656 12.4459C47.4322 12.5632 47.8843 12.468 48.307 12.4851C48.5708 12.4927 48.8481 12.5529 49.137 12.6044C51.101 12.8957 52.023 15.0135 50.9524 15.8129C50.8878 15.7959 50.8232 15.78 50.7588 15.7653C50.2996 15.6629 50.0595 15.5963 49.652 15.8071C49.6618 15.9005 49.6698 15.9963 49.6758 16.0937C50.4327 16.3725 51.2449 16.0037 52.0548 15.677C53.2797 17.1337 51.9048 16.9818 52.3274 18.1349C52.3642 18.246 52.402 18.3584 52.4399 18.4679C52.6927 19.2061 53.0488 19.8523 53.3127 20.5774C53.7975 21.9087 54.0971 23.356 53.6517 24.8943C53.248 26.2063 53.2905 25.9313 53.8663 26.7776C53.6511 27.9747 53.2952 28.2196 52.8743 28.9325C52.7882 29.0838 52.6917 29.2504 52.5871 29.4364C52.4885 29.612 52.5109 29.9085 52.5296 30.2518C52.546 30.6567 52.5412 31.1508 52.3121 31.6349C51.8578 31.7099 52.0361 31.715 51.6025 31.5274C51.5366 31.6058 51.4706 31.684 51.4046 31.7619C51.6476 32.1665 51.4983 31.9904 51.941 32.2109C51.8882 32.2843 51.8353 32.3575 51.7823 32.4305C51.6178 32.4362 51.4534 32.4416 51.2891 32.4467C51.1933 32.6029 50.9426 33.2755 50.6207 34.1792C49.9439 36.1581 48.8489 39.2653 48.2657 40.6773L48.2582 40.6916C48.064 41.1472 47.9269 41.4223 47.8829 41.4592C47.2318 41.9883 46.8078 42.427 46.5189 42.8392C46.3176 43.1096 46.1897 43.489 46.0205 43.9083C45.6094 45.0273 45.5736 46.1416 43.5792 47.67C43.3762 47.8206 43.2131 49.548 42.4857 50.379C41.9495 50.6232 41.9138 50.5716 41.3412 50.567C41.2479 50.658 41.1545 50.7487 41.0608 50.839C41.2656 51.3083 41.1807 51.1614 41.5185 51.5373C41.466 51.6256 41.4133 51.7137 41.3603 51.8017C41.2029 51.8503 41.0456 51.8981 40.8883 51.9453C40.6381 52.7211 40.756 52.722 40.2503 53.2385C39.7688 53.3261 39.3812 53.3328 39.0129 53.4884L39.0062 53.4962C38.8959 53.5393 38.7867 53.598 38.6767 53.6779C38.69 53.9424 38.7015 54.209 38.7077 54.4796C37.9748 55.2148 37.1044 55.6176 35.9612 56.5417C35.8842 56.6012 35.733 56.7125 35.5179 56.8461C35.326 56.9577 35.1847 57.0256 35.0394 57.099C34.9684 57.1347 34.899 57.1694 34.8398 57.201C34.7929 57.2255 34.6931 57.2846 34.8001 57.2359L34.5271 57.4103L34.0824 57.4291C33.7632 57.4566 33.4187 57.4866 33.0846 57.5171L32.7097 57.533L32.2731 57.2819C32.414 57.3755 32.2663 57.3132 32.1344 57.2839C31.9715 57.2257 31.8484 57.2497 31.364 56.9471C30.8448 56.6441 30.4782 56.4264 30.4997 56.4876C29.8194 54.5248 26.9914 54.9125 27.3787 52.7182C26.7971 52.361 26.4013 52.1129 25.8723 51.6745C25.6969 50.8579 25.8459 51.0234 25.3756 50.4455C24.8333 50.3288 24.6484 50.4492 24.1535 50.618C24.1024 50.5574 24.0515 50.4967 24.0007 50.436C24.1528 50.3485 24.3048 50.2608 24.4566 50.1729C24.1067 49.0678 22.3601 49.0714 21.3268 47.4222C21.35 47.3685 21.3733 47.3148 21.3966 47.2613C21.6089 47.3079 21.821 47.3532 22.033 47.3973C22.0907 46.8528 21.9938 46.6556 21.9071 46.1022C21.446 46.0458 21.3872 46.0789 20.9343 46.1485C20.8345 46.0759 20.735 46.0031 20.6356 45.9299C20.7992 45.594 20.9217 45.3086 21.0178 44.941C20.9213 44.8633 20.8252 44.7855 20.7289 44.707C18.335 45.2328 18.5593 42.268 17.4458 41.9304C17.3452 41.9556 17.2446 41.9806 17.1439 42.0056C17.116 41.9645 17.0882 41.9234 17.0604 41.8822C16.9837 41.7685 16.9076 41.655 16.832 41.5417C16.9139 41.4656 16.9958 41.3895 17.0777 41.3136C17.3312 41.3516 17.5834 41.3862 17.8364 41.4214C17.8974 41.4295 17.9583 41.4375 18.0192 41.4454C18.0371 41.3905 18.0552 41.3356 18.0733 41.2808C18.0777 41.2672 18.0821 41.2537 18.0865 41.2401C16.8864 39.774 15.8581 38.2436 14.7903 36.5308C14.945 36.1174 14.8671 36.2648 15.1863 35.972C15.1336 35.8731 15.0813 35.7737 15.0296 35.6738C14.5372 35.5752 14.0452 35.4589 13.5525 35.3221C12.8435 33.7413 13.3898 32.3815 12.7036 30.9608C12.4748 30.4712 12.4058 30.2467 12.4091 29.9111C12.4011 29.7335 12.4119 29.5699 12.4339 29.415C12.8059 29.3914 12.7953 29.4442 13.104 29.2188C13.077 29.133 13.0508 29.0593 13.0247 29.0002C12.824 28.9689 12.6238 28.9535 12.427 28.9669C12.4251 28.9462 12.4249 28.9534 12.4406 29.0066C12.5562 28.9919 12.6719 28.9758 12.7875 28.957L12.659 28.1923C12.7247 28.175 12.7903 28.1578 12.856 28.1405C12.5919 26.2858 11.8658 26.9213 12.165 24.2429C12.2257 24.1781 12.2863 24.1132 12.3469 24.0484C12.5547 24.1646 12.7626 24.2808 12.9704 24.397C13.0361 23.9924 13.0636 23.8897 12.9981 23.6839L13.14 22.9436C13.009 23.2341 13.0163 23.115 12.9535 23.0317C12.6211 22.8652 12.5385 22.8181 12.1765 22.6856C12.166 22.017 12.2581 22.0455 12.9867 21.6678Z" fill="#F6F2EC"/>
</svg>
