<svg width="48" height="48" viewBox="0 0 48 48" fill="none" xmlns="http://www.w3.org/2000/svg">
<path d="M17.5178 40.248C19.4281 41.5525 17.7341 41.1717 20.4795 41.299C22.5556 41.2284 21.8284 42.1956 24 41.3676C24.1526 41.3027 24.3175 41.226 24.495 41.1349C24.6979 41.4163 24.6311 41.3162 24.6854 41.6666C25.2417 41.9337 30.3055 40.4612 31.1324 39.8325C31.214 39.6859 31.2927 39.5388 31.3685 39.3915C31.6879 39.2916 33.0502 38.7325 33.1686 38.603C34.2 37.6425 35.0786 36.8402 36.0147 35.816C35.9329 35.5109 35.9803 35.6158 35.7717 35.3885C36.0148 35.0632 36.1812 35.0979 36.5482 35.0804C37.0076 34.5463 38.7164 32.1895 39.4037 29.5508C40.1674 26.9311 39.9085 24.3239 39.6084 24.0147C39.5331 24.0097 39.4578 24.0048 39.3825 24C39.0546 24.4521 39.0227 25.0067 38.9582 25.5525C38.7785 27.0967 38.5934 28.7161 38.0307 30.2121C36.8146 33.4688 34.4219 36.3209 31.3258 38.188C30.1897 38.8751 28.9538 39.4141 27.6479 39.7435C27.0199 39.9022 26.3242 39.9474 25.6965 40.0808C25.1327 40.2019 24.5631 40.4286 24 40.4316C23.7261 40.4331 23.4585 40.3815 23.2095 40.2399C22.5429 40.09 17.392 39.1151 16.4825 38.3936C15.4032 37.8487 14.4459 37.0992 13.5383 36.3183C12.8719 35.7459 12.1668 35.1822 11.618 34.4894C11.0577 33.7827 10.6869 32.9609 10.2698 32.1825C8.91429 29.6598 8.24098 26.8091 8.35712 24C8.40705 22.7331 8.61315 21.4797 8.97421 20.2811C8.9629 20.239 8.86092 19.6463 8.86669 19.638C9.11815 18.7832 10.3709 17.0553 10.4388 16.3122C10.3385 16.1976 10.2392 16.082 10.1408 15.9652C10.1875 15.8919 10.2348 15.819 10.2826 15.7466C10.5348 15.9118 10.4109 15.8218 10.6502 16.0178C11.0952 15.4871 11.6757 14.5707 12.3874 13.7616C13.5236 12.3915 15.9734 11.1372 17.2846 10.0741C17.3878 9.98648 17.2621 9.75116 17.2189 9.6146C17.289 9.58183 17.3594 9.54955 17.4301 9.51777C17.6027 9.58519 17.9228 9.78526 18.0886 9.71052C19.0263 9.30035 19.7499 9.87935 20.3972 9.09088C21.1015 8.95297 21.6996 9.14535 22.2262 8.98045C22.3474 8.75388 22.3828 8.65102 22.4724 8.41126C22.5413 8.39543 22.6103 8.38005 22.6797 8.36511C22.8432 8.45553 23.0451 8.57146 23.2802 8.7172C23.5183 8.73162 23.7583 8.7498 24 8.77176C25.213 8.88168 26.4251 9.09164 27.5868 9.36272C28.0223 9.46021 28.5611 9.95556 28.7658 10.0192C30.1269 10.4311 31.2489 11.2464 32.378 12.0114C32.4571 12.0639 32.8441 12.153 32.8824 12.1746C33.2727 12.3818 33.6717 12.329 33.8623 12.695C33.778 12.8222 33.6933 12.9491 33.608 13.0756C33.6438 13.1591 33.6787 13.2428 33.7125 13.3265C34.0576 13.4049 34.0041 13.3781 34.3716 13.3796C34.6096 13.8739 34.2777 13.7655 34.4264 13.9606C34.6266 14.1902 35.8153 15.274 35.8536 15.5125C35.9475 15.9234 35.7925 16.1235 36.033 16.7071C36.0978 16.7128 36.1627 16.7188 36.2277 16.7254C36.7528 16.7858 36.7975 16.7501 37.0941 17.0978C37.0905 17.1775 37.0862 17.257 37.0813 17.3362C36.8609 17.3219 36.6632 17.3158 36.4455 17.3198C36.4546 17.7641 38.0237 20.9593 38.086 21.8298C38.2454 21.9406 38.3954 22.0602 38.5394 22.1975C38.5493 22.2894 38.5584 22.3814 38.5666 22.4737C38.7097 22.9809 38.9482 23.593 39.2896 24C39.4588 23.9681 39.6279 23.9352 39.7968 23.9013C39.2286 22.3457 39.9439 17.7306 37.9327 17.6911C37.9117 17.7332 37.8905 17.7752 37.8692 17.8171C37.7154 18.113 37.6602 18.3026 37.3718 18.406C37.3196 18.3347 37.2666 18.2634 37.2133 18.1931C37.3883 17.5918 37.9798 17.4504 38.517 17.2298C38.4425 15.9081 37.8388 16.5909 37.5339 15.7686C36.9311 14.2544 36.5083 12.6323 34.9689 11.6286C34.1467 11.1171 34.2962 11.241 34.1921 10.5471C33.3901 9.91261 33.1345 10.058 32.3182 9.70379C32.0477 9.59234 31.8271 8.92986 31.1471 8.62069C30.8681 8.7718 30.961 8.69451 30.8226 8.97733C30.7499 8.96397 30.6773 8.95112 30.6046 8.93878C30.5334 8.62289 30.5411 8.7791 30.664 8.47304C30.5992 8.45723 30.5344 8.4419 30.4698 8.42701C30.3809 8.49558 30.2927 8.56477 30.2053 8.63457C29.8696 8.40634 25.7567 6.78602 24 6.80838C23.6359 6.77809 23.4008 6.77545 23.3615 6.79053C20.7734 7.96424 20.4529 6.45454 17.9414 8.22988C17.8016 8.33917 16.5425 8.24799 15.8405 8.698C15.5924 9.04771 15.6249 9.0766 15.5598 9.46697C15.4846 9.52545 15.4101 9.5845 15.3361 9.64409C15.0262 9.48229 15.1209 9.54743 14.8897 9.30052C14.8206 9.33344 14.7518 9.36683 14.6832 9.40069C14.6318 9.50782 14.5818 9.61507 14.5333 9.72243C13.9574 9.87956 13.9638 9.80038 13.5568 10.1534C13.431 10.5933 13.423 10.9161 13.1589 11.2547C12.9713 11.2543 12.7826 11.2572 12.5928 11.2636C12.0603 11.7918 11.8287 12.4204 11.1641 13.0451C10.8327 13.2721 9.10823 15.4929 9.1447 15.3922C9.17594 16.8411 7.31272 17.5142 8.17764 18.7896C7.92846 19.2139 7.76505 19.5093 7.58781 19.9766C7.74239 20.5508 7.77621 20.393 7.69243 20.9242C7.41688 21.2008 7.27045 21.1993 6.92791 21.2892C6.91905 21.3473 6.91054 21.4051 6.90235 21.4628C7.01958 21.4566 7.13679 21.451 7.25397 21.4458C7.41655 22.1732 6.6408 22.8081 6.55438 24C6.54502 24.1383 6.54567 24.2827 6.55926 24.433C6.59337 24.4543 6.62752 24.4755 6.66171 24.4966C6.75442 24.373 6.84843 24.2511 6.94368 24.1309C7.19336 24.4268 7.22226 24.5826 7.40835 24.9378C7.19328 25.1796 7.14949 25.1881 6.88771 25.3585C6.8678 25.4468 6.84855 25.5352 6.82999 25.6239C7.05886 25.7384 7.24549 25.8431 7.45644 26.0019C7.44279 26.0906 7.42983 26.1796 7.41758 26.2687C5.98535 27.1479 7.54359 28.6881 7.26109 29.4377C7.2052 29.4798 7.14943 29.5222 7.09378 29.5649C7.13136 29.7021 7.17057 29.8387 7.21138 29.9748C7.28604 29.9677 7.36066 29.9604 7.43523 29.9528C7.5401 29.756 7.64816 29.5623 7.75927 29.3719C7.80471 29.3941 7.85018 29.4161 7.89568 29.4378C8.16039 30.8126 8.64458 32.0855 9.23315 33.4052C9.52749 33.4907 9.41415 33.4729 9.69961 33.4144C9.73698 33.4853 9.77477 33.5558 9.81325 33.6263C9.68935 33.945 9.57629 34.2706 9.47502 34.6043C10.1282 35.6494 11.1128 35.8861 11.6981 36.8419C11.9712 37.272 12.0705 37.3618 12.447 37.5625C12.606 37.3715 12.5659 37.3505 12.8209 37.2818C12.8648 37.3363 12.9092 37.3907 12.9539 37.4448C12.9152 37.5826 12.8776 37.721 12.8412 37.86C12.9021 37.9082 12.9633 37.9561 13.0248 38.0035C13.1288 37.9318 13.2323 37.8595 13.3353 37.7867C14.3876 38.7678 13.6971 38.9492 15.6526 39.8268C15.717 39.8151 15.7813 39.8031 15.8453 39.7907C15.8275 39.6255 15.812 39.4607 15.7987 39.2963C16.2224 39.4495 16.1976 39.4242 16.5009 39.7367C16.5318 40.0113 16.537 40.077 16.5206 40.344C17.0659 40.643 17.0766 40.5659 17.5178 40.248Z" fill="#34140B"/>
<path d="M21.2011 23.7699C20.7737 24.3748 20.7314 23.8763 21.0525 24.6369C21.3179 25.2639 20.5193 24.9674 21.3382 25.7737C21.1441 25.8198 21.2127 25.8048 20.9777 25.8053C20.906 25.9429 21.1065 27.4045 21.1014 27.6912C21.1663 27.7322 21.2311 27.7732 21.296 27.8142C21.2713 27.9088 21.1312 28.3177 21.1499 28.3654C21.3033 28.7663 21.3365 29.1127 21.3553 29.5154C21.5341 29.5706 21.4631 29.5553 21.668 29.5703C21.6955 29.692 21.5952 29.7144 21.4171 29.781C21.4437 30.1995 21.6218 33.1187 22.0042 33.3417C22.0542 33.3456 22.1043 33.3495 22.1544 33.3534C22.38 33.2207 22.3944 33.038 22.4081 32.8601C22.4476 32.3545 22.3165 31.8286 22.2785 31.3207C22.1951 30.2114 22.1272 29.1064 22.0191 27.9959C21.9796 27.588 21.9472 27.1822 21.9482 26.7748C21.9489 26.5798 22.0051 26.3711 21.9686 26.1764C21.9196 25.9146 21.6699 25.6461 21.9441 25.4234C22.1762 25.2354 22.054 23.6373 22.0595 23.3129C22.0649 22.9497 22.1387 22.5901 22.1603 22.2281C22.1714 22.0424 22.1482 21.8537 22.1441 21.6668L22.1649 21.5126L22.2939 21.5238C22.3744 21.5183 22.4546 21.5163 22.5346 21.5222C22.8051 21.5417 23.072 21.6591 23.3425 21.6865C24.0314 21.7569 24.7212 21.8103 25.4111 21.866L25.2192 21.6831C25.2003 22.2654 25.1797 22.8479 25.1458 23.4306C25.1588 23.443 25.3349 23.6049 25.3344 23.6074C25.3187 23.8772 25.0433 24.5543 25.2837 24.76C25.3801 24.7711 25.4766 24.7822 25.5731 24.7932C25.572 24.8198 25.5709 24.8464 25.5698 24.873C25.3691 24.8791 25.4708 24.8784 25.2663 24.8742C25.2018 25.0929 25.2424 25.4343 25.2627 25.7728C25.2949 26.3199 25.0224 27.2067 25.3403 27.7196C25.365 27.76 25.5426 27.7472 25.6373 27.7486C25.6382 27.7724 25.6392 27.7962 25.6401 27.82C25.5535 27.8636 25.3489 27.9404 25.3556 27.9981C25.3904 28.3138 24.891 28.5136 25.3088 28.7596C25.3002 28.9869 25.1195 29.1769 25.1957 29.3501C25.3386 29.3903 25.4051 29.4012 25.5598 29.4293C25.567 29.4509 25.5741 29.4725 25.5812 29.4942C25.5146 29.546 25.4308 29.6102 25.3301 29.688C25.25 30.1518 25.21 30.634 25.2427 31.097C25.2529 31.2398 25.0543 31.4656 25.0636 31.5373C25.12 32.003 24.9997 32.4585 25.0354 32.9157C25.0376 32.9476 25.1477 33.0638 25.1529 33.0776C25.1975 33.1956 25.3424 33.2696 25.3371 33.3647L25.9736 32.6967C25.9539 32.6947 25.9336 32.6861 25.9123 32.6687C25.9057 32.5678 25.8991 32.467 25.8925 32.3662C25.865 32.3401 25.8374 32.314 25.8099 32.288C25.7065 32.4053 25.7255 32.3942 25.6379 32.5637C25.4673 32.4418 25.5693 32.3369 25.4877 32.3167C25.3832 32.2906 24.8497 32.4431 24.7793 32.3858C24.6488 32.2795 24.622 32.1145 24.4057 32.0461C24.3923 32.0811 24.379 32.116 24.3656 32.151C24.2566 32.4327 24.2615 32.4685 24.1134 32.5331C24.0906 32.5061 24.0679 32.4792 24.0452 32.4523C24.0828 32.3258 24.1158 32.211 24.1503 32.0819C24.0117 31.872 22.7714 32.1308 22.4891 32.1673C22.4432 32.2612 22.3961 32.3492 22.3448 32.4333C22.314 32.4324 22.2833 32.4316 22.2525 32.4307C22.0787 32.4894 21.8719 32.6315 21.7432 32.8604C21.7533 32.9732 21.7634 33.086 21.7735 33.1987C22.2988 32.7026 23.5787 33.9896 23.8204 32.8611C23.8109 32.8367 23.8014 32.8123 23.7919 32.788C23.7251 32.6139 23.6737 32.5318 23.679 32.3277C23.7081 32.314 23.7371 32.3003 23.7662 32.2866C23.9277 32.5572 23.882 32.9575 23.8749 33.3435C24.2432 33.6871 24.1433 33.1258 24.4127 33.2262C24.9157 33.4126 25.3438 33.8775 25.8732 33.6897C25.9128 33.6757 25.9458 33.6637 25.9736 33.6545L26.2798 33.6811L26.2938 33.3185C26.2288 33.1503 26.2742 33.1695 26.5442 33.0302C26.5528 32.734 26.3804 32.706 26.2896 32.4488C26.2594 32.3632 26.5616 32.1993 26.5461 31.9867C26.3741 31.94 26.4478 31.9513 26.238 31.9589C26.225 31.9383 26.2121 31.9177 26.1991 31.8971C26.3702 31.8321 26.2781 31.8573 26.4975 31.8443C26.4892 31.8256 26.4809 31.807 26.4726 31.7884C26.4069 31.7754 26.3412 31.7624 26.2755 31.7493C26.2344 31.6001 26.6679 29.7364 26.6121 29.6747C25.9278 28.926 26.9444 28.8783 26.3138 28.0766C26.2728 28.0268 26.6325 27.6897 26.5837 27.4617C26.4521 27.3593 26.4262 27.3647 26.2189 27.3018C26.2091 27.2748 26.1993 27.2478 26.1895 27.2208C26.3863 27.1589 26.3173 27.1759 26.5372 27.1463C26.5417 27.1246 26.5463 27.1029 26.5509 27.0812C26.5079 27.0548 26.4648 27.0283 26.4218 27.0019C26.5423 26.8348 26.5841 26.8489 26.5495 26.6989C26.3622 26.6047 26.1938 26.5519 26.1293 26.4321C26.2085 26.3866 26.2876 26.3411 26.3668 26.2956C26.3338 26.0842 26.1357 25.9162 26.1868 25.6493C26.2087 25.5344 26.2917 24.7244 26.3382 24.7549C25.8111 24.4092 26.7715 23.9818 25.9482 23.7613C26.0118 23.6173 26.0573 23.5197 26.0902 23.3744C25.8953 23.2317 25.8975 23.2781 25.8762 23.1206C26.0188 23.019 26.1162 23.0083 26.3298 22.9575C26.3288 22.941 26.3278 22.9245 26.3268 22.908C26.2505 22.9183 26.1742 22.9285 26.0979 22.9388C25.8896 22.7203 26.4776 22.4623 26.395 22.0627C26.3724 22.0576 26.3497 22.0525 26.327 22.0473C26.2647 22.0845 26.2023 22.1217 26.1399 22.1588C25.9717 22.0814 25.9525 22.0362 25.836 21.9347C25.9851 21.8606 26.015 21.8578 26.1953 21.8061C26.2119 21.7807 26.2285 21.7552 26.2452 21.7298C26.1293 21.7047 26.031 21.681 25.9309 21.6488L25.9481 21.2001L25.4111 21.1535C25.4014 21.1795 25.391 21.2055 25.3799 21.2321C25.3545 21.216 25.3292 21.1999 25.3039 21.1838C25.116 20.1746 24.6197 20.9621 24.4337 20.6101C24.4273 20.5659 24.421 20.5218 24.4147 20.4777C24.3757 20.4729 24.3368 20.4681 24.2979 20.4633C24.2928 20.5118 24.2878 20.5603 24.2828 20.6088C24.3244 20.719 24.366 20.8291 24.4076 20.9393C24.3975 20.9634 24.3875 20.9875 24.3774 21.0117C23.9795 20.8845 23.5975 20.8116 23.1979 20.6701C23.1332 20.8044 23.1547 20.747 23.1241 20.9276C23.1013 20.9224 23.0786 20.9172 23.0558 20.912C23.0006 20.7242 22.9447 20.5377 22.8877 20.3519C22.6612 20.3071 22.482 20.4744 22.2939 20.5232L21.3038 20.4372L21.1446 21.6195C21.1627 21.7061 21.1562 21.7933 21.0937 21.8851C21.0046 22.0168 21.0016 22.0519 21.0587 22.1691C21.2242 22.1762 21.2183 22.1632 21.3609 22.2122C21.3511 22.2311 21.3413 22.25 21.3314 22.2689C21.2434 22.2809 21.1554 22.293 21.0673 22.305C21.0668 22.3264 21.0662 22.3477 21.0656 22.369C21.1454 22.3831 21.2253 22.3972 21.3052 22.4113C21.1689 22.8077 20.8531 22.6548 20.9585 23.2415C20.9848 23.2568 21.011 23.2722 21.0372 23.2875C21.1307 23.2667 21.2242 23.2458 21.3176 23.225C21.3534 23.3524 21.3609 23.3443 21.2565 23.4542C21.0983 23.4876 21.0594 23.4945 20.8921 23.513C20.8516 23.6798 20.8976 23.6746 21.2011 23.7699ZM27.0484 15.2308C27.18 14.6366 27.413 14.8813 26.7999 14.6209C26.3771 14.4892 26.8094 14.1835 26.367 14.2086C26.2898 14.2221 26.1757 14.2455 26.0251 14.2982C26.1203 14.1278 26.0857 14.1873 26.2294 14.0016C26.2118 13.9439 25.948 13.7945 25.6527 13.7022C25.3577 13.605 25.0475 13.5737 24.9529 13.5504C24.9085 13.6066 24.8656 13.6636 24.824 13.7212C24.773 13.6826 24.5319 13.5076 24.4962 13.5253C24.2458 13.6394 24.0585 13.6832 23.8525 13.7196C23.8274 13.7242 23.802 13.7287 23.7764 13.7333C23.7528 13.915 23.7587 13.8432 23.7607 14.0486C23.6967 14.0837 23.6793 13.9856 23.6256 13.8136C23.509 13.8405 23.0145 13.9791 22.6572 14.2878C22.2908 14.589 22.1231 14.9994 22.2277 15.1691C22.2615 15.2062 22.2953 15.2434 22.3291 15.2805C22.5228 15.3992 22.575 15.362 22.6321 15.3247C22.788 15.2246 22.8803 14.995 23.0625 14.8651C23.2833 14.7055 23.5551 14.5897 23.8525 14.5124C24.0761 14.4542 24.3093 14.4157 24.5554 14.4061C24.7655 14.3978 24.9837 14.4249 25.181 14.5115C25.2762 14.5535 25.3438 14.6509 25.4518 14.6728C25.5788 14.6969 25.8191 14.6215 25.8128 14.8039C25.8104 14.8255 25.8052 14.8523 25.7948 14.8836C25.7567 15.0015 25.914 15.164 26.0663 15.3529C26.2216 15.5382 26.3654 15.7591 26.3971 15.8417C26.4725 16.0254 26.4559 16.2297 26.4683 16.418C26.4739 16.5008 26.5004 16.583 26.5152 16.6673C26.5253 16.7249 26.53 16.7829 26.5185 16.8399C26.4901 16.9845 26.3539 17.1065 26.2966 17.2301C26.1108 17.6374 25.828 17.9614 25.4828 18.1809C25.3266 18.2855 25.1638 18.3638 24.9963 18.412C24.9993 18.425 25.0133 18.6093 25.0106 18.6096C24.8745 18.6537 24.515 18.4571 24.4834 18.6969C24.4997 18.7916 24.5151 18.8864 24.5297 18.9815C24.5161 18.9823 24.5025 18.983 24.4889 18.9836C24.4468 18.7872 24.4673 18.8868 24.4288 18.6863C24.3198 18.6346 24.1788 18.6825 24.0264 18.6952C23.9746 18.6996 23.915 18.6884 23.8525 18.6696C23.6122 18.6007 23.4009 18.4222 23.1735 18.5954C23.1502 18.6125 23.1021 18.7838 23.073 18.8738C23.0618 18.8703 23.0507 18.8668 23.0396 18.8632C23.0463 18.7725 23.0823 18.5656 23.0583 18.5615C22.9111 18.5293 23.0753 18.0447 22.8002 18.3584C22.7248 18.2956 22.7694 18.0986 22.6772 18.1169C22.5811 18.2214 22.5377 18.2713 22.4343 18.3855C22.4226 18.3845 22.4109 18.3833 22.3991 18.3821C22.4229 18.3135 22.4545 18.2283 22.497 18.1285C22.4729 18.0701 22.4491 18.0135 22.4244 17.9591C22.3653 17.8283 22.308 17.7164 22.2346 17.6229C22.2001 17.5791 22.3424 17.4086 22.3282 17.3942C22.2256 17.2769 22.3149 17.1003 22.277 16.9713C22.2745 16.9627 22.1652 16.9416 22.16 16.9369C22.1066 16.8978 21.9077 16.8834 22.0045 16.8275C22.1048 16.8171 22.2052 16.8071 22.3056 16.7975C22.3309 16.7869 22.3564 16.7767 22.3819 16.7668C22.263 16.7408 22.2744 16.747 22.104 16.7212C22.2235 16.6583 22.3282 16.6932 22.3497 16.6673C22.3499 16.6671 22.3501 16.6668 22.3503 16.6665C22.374 16.635 22.2339 16.4551 22.2962 16.4396C22.4071 16.4153 22.5708 16.4344 22.6476 16.4021C22.6141 16.3917 22.5806 16.381 22.5473 16.37C22.2795 16.2789 22.2448 16.2678 22.1953 16.2056C22.2233 16.2061 22.2511 16.2071 22.2789 16.2084C22.3965 16.2564 22.5042 16.2968 22.6264 16.3391C22.8269 16.3708 22.6819 16.0687 22.7187 15.9717C22.6515 15.9051 22.5908 15.8399 22.5361 15.7741C22.5429 15.7672 22.5497 15.7604 22.5567 15.7537C22.547 15.6744 22.4923 15.5263 22.3742 15.323C22.2934 15.2442 22.2122 15.1658 22.1305 15.0879C22.2145 15.3508 21.9456 15.3503 21.7325 15.4645C21.5224 15.5695 21.3998 15.7702 21.9163 16.0045C21.9404 16.0093 21.9645 16.0143 21.9886 16.0195C22.1605 16.0569 22.2422 16.0743 22.4308 16.1521C22.4406 16.1645 22.4506 16.1766 22.4607 16.1884C22.1924 16.1337 21.8158 15.9994 21.4538 15.8649C21.0666 15.944 21.6207 16.0558 21.4944 16.1516C21.3204 16.2934 21.0062 16.453 20.9446 16.6673C20.9241 16.7379 20.9324 16.8127 20.9849 16.8854C21.0986 17.039 21.0883 16.9993 20.782 17.1342C20.7893 17.322 20.9634 17.3127 21.0782 17.4384C21.1164 17.477 20.8467 17.6591 20.9048 17.7914C21.0752 17.7607 21.0038 17.7786 21.1986 17.7003C21.2143 17.7072 21.2301 17.7138 21.2459 17.7203C21.0993 17.8198 21.1802 17.772 20.9796 17.8617C20.9913 17.8699 21.003 17.878 21.0148 17.886C21.0782 17.8684 21.1413 17.8501 21.2042 17.8311C21.2358 17.8748 21.3239 18.5603 21.527 18.9026C21.5897 19.0254 21.6473 19.1063 21.6646 19.1026C22.0661 19.0121 22.0972 19.1356 22.1622 19.2916C22.2194 19.4397 22.3195 19.6177 22.6748 19.4365C22.7125 19.4108 22.7939 19.8364 22.963 19.8366C23.0629 19.7302 23.0659 19.7038 23.1513 19.5133C23.1694 19.5083 23.1872 19.5031 23.2049 19.4978C23.1997 19.6998 23.2044 19.6297 23.1776 19.8495C23.1907 19.8575 23.2037 19.8655 23.2168 19.8733C23.2423 19.8353 23.2672 19.797 23.2914 19.7584C23.3753 19.9 23.3633 19.9398 23.4648 19.9228C23.5495 19.7474 23.5969 19.5848 23.671 19.5299C23.6913 19.6123 23.713 19.6944 23.7364 19.7764C23.777 19.7706 23.8149 19.7486 23.8525 19.7225C23.9385 19.6629 24.0176 19.583 24.13 19.6194C24.1944 19.6522 24.7142 19.6872 24.7088 19.7264C24.7651 19.4507 24.8991 19.533 25.0362 19.5685C25.1686 19.6059 25.2985 19.5952 25.1951 19.1946C25.3014 19.2216 25.3779 19.2381 25.4763 19.2272C25.4621 19.0171 25.4352 19.0338 25.5067 18.9713C25.6351 19.0628 25.6944 19.1403 25.8406 19.3014C25.8497 19.2947 25.8589 19.288 25.8679 19.2812C25.8194 19.2216 25.7712 19.1618 25.7232 19.1017C25.719 18.8867 26.1068 19.1718 26.3154 19.0475L26.3038 19.0585C26.3277 19.0449 26.3484 19.0261 26.3646 19.0009C26.352 18.9819 26.3393 18.9629 26.3266 18.944C26.2651 18.9147 26.2045 18.8841 26.1446 18.8526C26.0701 18.6965 26.078 18.6651 26.0418 18.5422C26.1795 18.6188 26.2021 18.6384 26.3553 18.7416C26.3795 18.7416 26.4038 18.7413 26.4281 18.7408C26.3372 18.6252 26.2642 18.5314 26.1877 18.425C26.2097 18.4239 26.2319 18.4223 26.254 18.4205C27.1266 18.9552 26.7034 18.1783 27.0572 18.2439C27.0985 18.2604 27.1398 18.2766 27.1812 18.2926C27.1997 18.2677 27.2178 18.2425 27.2356 18.2169C27.1938 18.192 27.1519 18.1673 27.1099 18.1427C26.997 18.1231 26.8852 18.1002 26.7744 18.0743C26.7562 18.0571 26.7379 18.04 26.7195 18.0231C26.9532 17.8452 27.113 17.614 27.3085 17.3599C27.1857 17.2884 27.239 17.3144 27.0653 17.2607C27.0732 17.2468 27.081 17.2327 27.0887 17.2186C27.2799 17.2137 27.4706 17.2012 27.6606 17.1818C27.738 16.983 27.5172 16.8201 27.5099 16.6673C27.5079 16.6251 27.521 16.5824 27.5587 16.5343C27.6377 16.4323 27.6369 16.4025 27.5674 16.3232C27.4025 16.3388 27.4097 16.3462 27.2629 16.3307C27.2705 16.3166 27.278 16.3024 27.2854 16.2881C27.3711 16.2676 27.4566 16.2462 27.542 16.224C27.5397 16.2082 27.5373 16.1922 27.5348 16.1764C27.454 16.1791 27.3733 16.1824 27.2926 16.1861C27.3604 15.8897 27.7082 15.9072 27.4455 15.4984C27.4164 15.4964 27.3873 15.4946 27.3583 15.4931C27.2775 15.5421 27.1961 15.5897 27.114 15.6357C27.0456 15.5636 27.0419 15.5746 27.1046 15.4611C27.2392 15.3759 27.2721 15.3549 27.4179 15.2721C27.3947 15.1331 27.3518 15.1532 27.0484 15.2308Z" fill="#34140B"/>
</svg>
