<svg width="29" height="4" viewBox="0 0 29 4" fill="none" xmlns="http://www.w3.org/2000/svg">
<path d="M19.5384 0.506811C20.1147 -0.0857463 19.6569 -0.183694 20.3443 0.346795C20.9109 0.785139 20.6722 -0.422231 21.3801 0.851092C21.431 0.565972 21.4142 0.666856 21.4249 0.317747C21.5548 0.220799 22.8938 0.621257 23.1584 0.633864C23.1934 0.733132 23.2283 0.832401 23.2633 0.931669C23.3516 0.901604 23.7347 0.722179 23.7779 0.753213C24.1409 1.00924 24.4588 1.08292 24.8293 1.13917C24.8724 1.40876 24.8614 1.30212 24.8663 1.6076C24.9773 1.65706 25.0023 1.50959 25.0715 1.24968C25.4562 1.31854 28.1401 1.78799 28.3291 2.37182C28.3305 2.4465 28.3319 2.52118 28.3333 2.59586C28.2012 2.9217 28.032 2.93037 27.8674 2.93812C27.3995 2.9614 26.9203 2.72967 26.4537 2.63754C25.4345 2.43582 24.4185 2.25739 23.3993 2.01882C23.025 1.93154 22.6522 1.85489 22.2765 1.82773C22.0967 1.81513 21.9019 1.88399 21.7239 1.81612C21.4846 1.72495 21.2479 1.33502 21.0307 1.72682C20.8472 2.0585 19.379 1.76474 19.0796 1.75019C18.7446 1.73273 18.4098 1.81703 18.075 1.82382C17.8292 1.82866 17.5808 1.7288 17.336 1.75789C17.0863 1.78699 16.8399 1.96154 16.5902 2.00227C15.4191 2.19527 14.245 2.30195 13.0728 2.50367C13.0608 2.48524 12.9037 2.23508 12.9014 2.23605C12.6533 2.27873 12.0413 2.73638 11.841 2.39404C11.8265 2.2515 11.812 2.10895 11.7975 1.96641C11.773 1.96994 11.7485 1.97348 11.7241 1.97702C11.7273 2.27571 11.7234 2.1245 11.7364 2.42802C11.5377 2.53954 11.2211 2.50368 10.9081 2.49786C10.4023 2.48913 9.59672 2.95753 9.10968 2.52211C9.07137 2.48817 9.07524 2.22349 9.06973 2.08285C9.04775 2.08315 9.02578 2.08344 9.00381 2.08374C8.96744 2.21563 8.90575 2.52502 8.85218 2.5192C8.55964 2.49012 8.39762 3.24654 8.15216 2.64335C7.94306 2.67244 7.77583 2.95462 7.61283 2.85376C7.56933 2.6443 7.55634 2.54629 7.52354 2.31839C7.5033 2.30934 7.48306 2.30029 7.46282 2.29124C7.41802 2.39404 7.36249 2.52304 7.29528 2.67821C6.87124 2.83047 6.42836 2.92459 6.0001 2.90908C5.86795 2.90423 5.6686 3.21546 5.60203 3.20675C5.17019 3.15632 4.75554 3.36781 4.33247 3.34745C4.3029 3.34643 4.19091 3.19131 4.17793 3.18453C4.04416 3.1147 3.96299 2.82282 3.84838 2.97311C3.84232 3.1231 3.83625 3.2731 3.83018 3.4231C3.80475 3.46187 3.77932 3.50064 3.75389 3.53942C3.65843 3.36485 3.67595 3.38136 3.5951 3.12921C3.43764 3.31056 3.53179 3.46666 3.45647 3.49673C3.36005 3.53552 2.86756 3.30864 2.80255 3.39392C2.6821 3.552 2.6574 3.7974 2.45773 3.89923C2.44538 3.8472 2.43304 3.79516 2.42069 3.74313C2.32004 3.32418 2.32459 3.27081 2.18789 3.1748C2.1669 3.21488 2.14591 3.25496 2.12492 3.29503C2.15966 3.48318 2.19016 3.65392 2.22198 3.84594C2.09399 4.15816 0.949097 3.77319 0.688574 3.71888C0.64614 3.57924 0.60267 3.44829 0.555368 3.3232C0.526968 3.3245 0.498568 3.32581 0.470168 3.32711C0.309706 3.23983 0.118837 3.02834 0 2.68793C0.00934333 2.52017 0.0186867 2.35241 0.02803 2.18465C0.512891 2.92263 1.69434 1.0083 1.91742 2.68692C1.90866 2.72317 1.8999 2.75942 1.89114 2.79566C1.82945 3.05459 1.78204 3.17677 1.78691 3.48031C1.81375 3.50069 1.84058 3.52106 1.86742 3.54144C2.01645 3.13896 1.97427 2.54344 1.96777 1.96931C2.3077 1.45827 2.2155 2.29317 2.4642 2.14385C2.92851 1.86648 3.32367 1.17497 3.81233 1.45428C4.07306 1.60363 4.02436 1.59203 4.15976 1.11391C4.43249 1.07997 4.46593 1.33411 4.70717 1.45049C4.78736 1.48928 4.92505 1.02861 5.12181 1.03637C5.17246 1.2885 5.15883 1.17989 5.1611 1.49217C5.18069 1.50993 5.20027 1.5277 5.21985 1.54546C5.27213 1.28653 5.253 1.4252 5.25527 1.09838C5.2728 1.10937 5.29032 1.12035 5.30784 1.13134C5.32279 1.228 5.33774 1.32466 5.35268 1.42132C5.49205 1.47169 7.19118 0.694098 7.25047 0.772537C7.97128 1.73556 7.97 0.221692 8.73724 1.10128C8.78496 1.1585 9.07978 0.599996 9.29213 0.656219C9.39245 0.844354 9.38857 0.883144 9.45577 1.18666C9.48111 1.19929 9.50644 1.21192 9.53178 1.22455C9.58016 0.927784 9.56748 1.03146 9.58502 0.702695C9.60482 0.694318 9.62463 0.68594 9.64444 0.677562C9.67073 0.739616 9.69703 0.801669 9.72333 0.863722C9.87203 0.672674 9.8571 0.611579 9.99703 0.652303C10.0922 0.923851 10.1483 1.17023 10.2617 1.25751C10.3001 1.1366 10.3385 1.0157 10.3769 0.894791C10.5734 0.928734 10.737 1.21098 10.9809 1.11593C11.0858 1.0752 11.8289 0.893759 11.7988 0.826844C12.141 1.58524 12.4923 0.127656 12.7322 1.33506C12.8621 1.23032 12.9501 1.15564 13.0826 1.09648C13.2228 1.37579 13.18 1.37582 13.3261 1.39618C13.4134 1.17701 13.419 1.0315 13.4563 0.710526C13.4716 0.71082 13.4868 0.711115 13.5021 0.71141C13.496 0.825539 13.49 0.939667 13.4839 1.0538C13.6946 1.34764 13.9063 0.455431 14.2784 0.549499C14.2842 0.582799 14.2899 0.616099 14.2956 0.649399C14.2641 0.744752 14.2326 0.840105 14.2011 0.935458C14.28 1.17985 14.3226 1.20509 14.4213 1.37092C14.483 1.14401 14.4843 1.09939 14.5239 0.827854C14.5466 0.801332 14.5694 0.77481 14.5921 0.748288C14.6278 0.963587 14.6603 1.13723 14.7096 1.32634C14.733 1.30243 14.7564 1.27852 14.7798 1.25461C14.9531 -0.24665 15.4113 0.924755 15.583 0.401102C15.5889 0.33547 15.5947 0.269839 15.6006 0.204207C15.6365 0.197093 15.6724 0.189978 15.7084 0.182863C15.713 0.254978 15.7177 0.327093 15.7223 0.399207C15.6839 0.563097 15.6455 0.726986 15.6071 0.890875C15.6164 0.926743 15.6257 0.962611 15.635 0.998479C16.0022 0.809367 16.3548 0.700841 16.7237 0.490393C16.7834 0.690117 16.7636 0.604828 16.7919 0.873447C16.8129 0.8657 16.8339 0.857955 16.8549 0.850208C16.9058 0.570901 16.9574 0.293435 17.01 0.0170376C17.3143 -0.0799441 17.526 0.49134 17.8052 0.214942C17.9305 0.0917766 17.963 0.0897613 18.0686 0.182863C18.0679 0.429195 18.0562 0.419579 18.0952 0.634875C18.113 0.621614 18.1309 0.608353 18.1487 0.595092C18.1637 0.465134 18.1786 0.335176 18.1936 0.205218C18.2133 0.205849 18.233 0.206481 18.2527 0.207112C18.2622 0.326756 18.2717 0.4464 18.2812 0.566044C18.6527 0.391475 18.5254 -0.0886083 19.0618 0.109233C19.0748 0.149311 19.0878 0.189389 19.1008 0.229466C19.0775 0.366876 19.0542 0.504285 19.0309 0.641695C19.1468 0.703761 19.1391 0.714335 19.2449 0.566928C19.2826 0.334187 19.2907 0.276964 19.315 0.0296671C19.4706 -0.0188215 19.4637 0.0490823 19.5384 0.506811Z" fill="#F6F2EC"/>
</svg>
