<svg width="24" height="24" viewBox="0 0 24 24" fill="none" xmlns="http://www.w3.org/2000/svg">
<path d="M8.25553 10.0831C8.04932 9.5967 8.04133 9.26558 8.02021 9.07101C8.0063 8.87231 8.00052 8.78978 8.0196 8.70417C8.04114 8.61983 8.08778 8.52419 8.24459 8.33036C8.40373 8.14616 8.67804 7.8303 9.25523 7.5859C9.36575 7.54086 9.46684 7.50663 9.56046 7.47811C9.73583 7.49138 9.6929 7.33648 9.68611 7.27301C9.68191 7.17564 9.73495 7.2895 10.2087 7.06245C10.0133 6.99543 10.082 7.01978 9.83692 6.99455C9.82515 6.98046 9.82692 6.94747 9.82741 6.89631C9.78669 6.44662 9.75554 5.63989 9.72723 4.97868C9.73819 4.74321 9.65973 4.54207 9.61147 4.46781C9.64938 4.39883 9.68228 4.3254 9.70957 4.2482C9.63043 4.15503 9.20172 4.00343 9.16737 3.98375C9.03194 3.827 8.84572 3.72633 8.64118 3.68639C8.35719 3.64165 8.0651 3.6486 7.75649 3.70335C7.64194 3.53603 7.67701 3.60507 7.61411 3.39856C7.4183 3.4161 7.40329 3.53333 7.36024 3.74333C7.07209 3.80359 5.79002 4.28481 5.15227 5.45242C4.44498 6.58779 4.79169 8.03602 4.70143 8.27295C4.65457 8.29727 4.60777 8.3217 4.56101 8.34622C4.23594 8.19066 4.09984 7.82566 4.02818 7.46853C3.80458 6.43077 4.22125 5.33908 4.80904 4.5744C5.72337 3.34246 7.23801 2.72294 8.64118 2.83982C9.22418 2.87987 9.76817 3.15759 10.1288 3.57336C10.4491 3.93828 10.6312 4.3956 10.6645 4.8537C10.6816 5.07316 10.7012 5.29254 10.7244 5.512C10.7598 5.84513 10.8559 6.19822 10.8522 6.53292C10.8514 6.6088 10.8446 6.68534 10.8355 6.7619C10.7802 7.12104 10.5803 7.32278 10.6469 7.68263C10.6744 7.81313 10.4596 8.2313 9.97106 8.43618C9.29823 8.66637 8.93202 9.6548 9.25222 10.2104C9.35469 10.4361 9.4422 10.6133 9.49548 10.7114C9.79645 11.268 10.2002 11.7648 10.6151 12.2396C10.9185 12.5883 11.2092 12.9693 11.5827 13.2489C11.9635 13.5346 12.4152 13.6961 12.8246 13.9137C12.9753 13.9937 13.1247 14.0696 13.2776 14.1448C13.7677 14.3952 14.3835 14.1717 14.627 13.7343C15.0369 13.0189 16.039 12.6871 16.8383 13.0603C17.4833 13.3424 18.1295 13.622 18.7785 13.8952C18.7862 13.907 18.8441 13.9983 18.8958 14.079C18.9467 14.1501 18.985 14.2147 18.9872 14.2156C19.2092 14.3214 19.6236 14.5291 19.9118 14.8877C20.2065 15.236 20.3361 15.6986 20.2375 15.9222C20.1415 15.9651 20.0445 16.0044 19.9466 16.04C19.953 16.0848 19.9581 16.1301 19.9617 16.1754C20.1723 16.1637 20.0659 16.1755 20.2792 16.1415C20.3602 16.4811 20.2756 17.0304 19.9867 17.4968C19.9249 17.599 19.8594 17.6985 19.79 17.7968C19.2893 18.6503 17.9037 19.913 16.803 19.7154C16.7217 19.704 16.7032 19.5173 16.6785 19.4207C16.6373 19.4268 16.596 19.4323 16.5547 19.4371C16.4984 19.5373 16.3915 19.7658 16.2799 19.7657C15.7124 19.7621 15.2336 20.2214 14.8395 19.6602C14.4229 19.5495 14.0041 19.5584 13.7415 19.3063C13.7441 19.1318 13.7613 19.0593 13.7999 18.8901C13.7907 18.8811 13.7814 18.872 13.7723 18.8629C13.7537 18.8442 13.7351 18.8254 13.7166 18.8067C13.6058 18.8162 13.4678 18.8286 13.3012 18.8421C12.5943 18.4567 11.888 17.9873 11.2754 17.4526C11.0862 17.2884 10.6564 17.2037 10.5643 17.1128C9.97199 16.5371 9.29471 16.0906 8.74211 15.4866C8.70325 15.4449 8.63573 15.2124 8.62251 15.1907C8.48375 14.968 8.53349 14.7152 8.30925 14.6219C8.2222 14.6832 8.13506 14.7445 8.04784 14.8057C7.99487 14.7869 7.94177 14.7678 7.88857 14.7483C7.86013 14.5274 7.87341 14.5606 7.908 14.3268C7.61461 14.1778 7.64687 14.3869 7.53691 14.2885C7.39165 14.1644 6.92632 13.3143 6.80698 13.2476C6.57812 13.127 6.40856 13.1915 6.12199 12.9132C6.13794 12.8722 6.15399 12.8313 6.17006 12.7903C6.29918 12.459 6.33554 12.4463 6.24312 12.1899C6.19699 12.1722 6.15086 12.1544 6.10475 12.1364C6.03181 12.2661 5.9653 12.383 5.88842 12.5109C5.54138 12.4377 4.59838 10.3601 4.42704 9.88358C4.47639 9.76455 4.52022 9.64738 4.55778 9.52594C4.5322 9.47736 4.50677 9.4287 4.48148 9.37993C4.39808 9.07491 4.37623 8.67804 4.50186 8.37315C4.61699 8.34025 4.73205 8.30712 4.84701 8.27376C4.74384 9.36525 7.00224 10.6035 6.24472 11.568C6.21418 11.5679 6.18364 11.5677 6.15308 11.5675C5.93567 11.5674 5.81384 11.5356 5.63767 11.658C5.65336 11.7098 5.66925 11.7615 5.68533 11.8133C6.08145 11.9037 6.3879 11.6021 6.72124 11.3718C7.36934 11.6979 6.78603 11.8839 7.14015 12.207C7.80736 12.8056 8.63165 13.0624 9.06947 13.8629C9.30722 14.2904 9.25785 14.2201 9.6723 14.1732C10.0276 14.5193 9.94015 14.6858 10.1939 15.0591C10.2789 15.1828 10.6861 15.1295 10.9402 15.378C10.885 15.5708 10.9198 15.4981 10.7715 15.6613C10.7892 15.6952 10.8072 15.7293 10.8248 15.7629C11.0195 15.6947 10.9271 15.7422 11.0874 15.5763C11.1054 15.6037 11.1234 15.631 11.1416 15.6584C11.1153 15.727 11.0891 15.7957 11.0631 15.8645C11.211 16.1034 13.9646 17.6332 14.0321 17.7098C14.1184 17.8863 14.2071 18.0244 14.2965 18.1337C14.5366 18.4484 14.8129 18.4393 15.0674 18.4449C15.3356 18.446 15.5603 18.4824 16.062 18.7674C16.1491 18.8141 16.5627 18.4035 16.8469 18.3627C17.0209 18.4544 17.0228 18.4811 17.1899 18.6526C17.2313 18.6482 17.2728 18.643 17.3143 18.6371C17.3126 18.4139 17.3191 18.4894 17.2583 18.264C17.2829 18.2479 17.3071 18.2314 17.3311 18.2147C17.3833 18.2399 17.4368 18.2638 17.4914 18.2864C17.6321 18.0664 17.5849 18.0421 17.7733 17.9613C17.992 18.0486 18.1695 18.1381 18.3531 18.0701C18.3483 17.9642 18.3389 17.8599 18.3256 17.7572C18.558 17.5779 18.8908 17.5112 19.0543 17.143C19.0659 17.116 19.0915 17.0616 19.1228 16.9887C19.2838 16.6925 19.2009 16.0644 19.1452 16.1089C19.3956 15.8756 19.1905 15.6392 19.0224 15.5262C18.8456 15.3954 18.7398 15.3456 18.8736 14.9054C18.7376 14.8641 18.6321 14.8488 18.52 14.8305C18.4563 14.8153 18.3903 14.7976 18.318 14.7755C18.1726 14.4824 18.244 14.5181 18.0071 14.3836C17.7925 14.4492 17.7374 14.5365 17.5739 14.708C17.5486 14.6952 17.5232 14.6823 17.4979 14.6694C17.544 14.6024 17.5901 14.5353 17.6362 14.4683C17.3955 14.1316 16.8275 14.4457 16.2735 14.1899C16.2588 14.1841 16.245 14.1764 16.2315 14.1663C16.2367 14.143 16.2413 14.1196 16.2456 14.0961C16.2888 14.0437 16.3381 13.9947 16.3932 13.9505C16.397 13.9489 16.4007 13.9474 16.4045 13.9458C16.4035 13.9418 16.4025 13.9378 16.4015 13.9339C16.4009 13.7525 16.3593 13.7116 16.2614 13.5721C16.1527 13.7142 16.1491 13.7476 16.0939 13.9344C16.0724 13.9515 16.0523 13.9694 16.0338 13.9881C16.0037 13.8364 15.9624 13.7144 15.8807 13.5909C15.8528 13.6119 15.8264 13.6339 15.8017 13.6569C15.8092 14.0659 15.8146 14.2072 15.7734 14.266C15.736 14.3225 15.6351 14.3172 15.5837 14.3721C15.4463 14.5645 15.3183 14.721 15.2613 14.8898C15.2756 14.9388 15.2884 14.9885 15.3001 15.0387C15.1953 15.1308 15.082 15.2142 14.9617 15.2874C14.9209 15.2519 14.881 15.2157 14.8421 15.1787C14.9124 15.0104 14.9571 14.8407 14.9779 14.676C14.9396 14.6742 14.9016 14.6713 14.8643 14.6671C14.3653 15.1454 13.5205 15.3082 12.8069 14.9762C12.5562 14.8825 12.3024 14.7839 12.0383 14.6802C12.0126 14.4959 12.0138 14.5681 12.0704 14.3786C12.0328 14.3604 11.9946 14.3416 11.9566 14.3226C11.7623 14.4295 11.5629 14.5299 11.3591 14.624C10.7855 14.2938 10.7018 13.693 10.1471 13.409C9.8964 13.2747 9.84549 13.2195 9.74561 13.005C9.87846 12.8927 9.88863 12.9153 9.95118 12.7545C9.92001 12.7323 9.88891 12.7099 9.85788 12.6871C9.7674 12.7218 9.6762 12.7553 9.58494 12.7884C9.5587 12.7554 9.53263 12.7222 9.50674 12.6887C9.56033 12.6203 9.61415 12.5521 9.66863 12.4847C9.11583 11.9425 8.95786 12.3422 8.5057 11.3142C8.51717 11.2771 8.52874 11.2402 8.54043 11.2032C8.64826 11.1971 8.75537 11.1892 8.86303 11.1818C8.7863 10.9588 8.80131 10.9698 8.60925 10.8339C8.42857 10.8446 8.3858 10.85 8.20826 10.8875C8.18154 10.8478 8.16002 10.8135 8.14346 10.7831C7.97364 10.4402 8.04523 10.367 8.25553 10.0831Z" fill="black"/>
</svg>
