<svg width="24" height="24" viewBox="0 0 24 24" fill="none" xmlns="http://www.w3.org/2000/svg">
<path d="M5.27387 13.6507C4.25517 13.6873 4.83776 14.0698 4.04653 13.1665C3.75574 12.7735 3.58729 12.7841 3.41876 12.716C3.26535 12.651 3.08388 12.4792 3.11955 11.7682C2.90975 11.8202 2.98276 11.7998 2.77047 11.9262C2.68026 11.86 2.37741 11.312 2.24108 10.6942C2.09005 10.0778 2.12115 9.42841 2.12709 9.22105C2.19637 9.16473 2.26667 9.11077 2.33788 9.05919C2.31901 8.95413 2.26686 8.5515 2.28354 8.35795L2.28356 8.35786C2.28649 8.30937 2.2917 8.27484 2.29862 8.26249C2.58779 7.74961 2.80791 7.3356 3.1248 6.89098C3.3194 6.93846 3.24681 6.91295 3.43258 7.02253C3.54316 6.91555 3.47555 6.83295 3.38625 6.64381C3.55042 6.43038 4.39046 5.63331 5.40247 5.43714C6.40916 5.19867 7.32044 5.55171 7.37464 5.77267C7.36719 5.82488 7.35966 5.87709 7.35206 5.92928C7.16779 6.1301 7.00311 6.11837 6.83162 6.12101C6.35803 6.12783 5.82816 6.07635 5.33061 6.2528C4.36797 6.58765 3.54245 7.43104 3.2109 8.52137L3.21091 8.52136C3.17187 8.64728 3.13907 8.77531 3.11272 8.90573C3.01895 9.36815 3.02335 9.86373 3.15733 10.3336C3.2217 10.5601 3.36632 10.7702 3.43568 10.9942C3.5226 11.289 3.50721 11.7344 3.91246 11.7678C4.07655 11.7803 4.43271 12.1438 4.89252 12.4289C5.3441 12.7244 5.89359 12.9172 6.11243 12.9596L6.11244 12.9596C6.12134 12.9615 6.12968 12.9632 6.13741 12.9648C6.39904 13.0167 6.66856 13.0146 6.9309 12.9876L6.79938 12.8004C6.74715 12.9598 6.69428 13.1189 6.63342 13.2748C6.5207 13.5633 6.33821 13.8272 6.24182 14.121C6.14314 14.4205 6.14121 14.7545 6.05014 15.0571C5.7015 16.2192 5.31405 17.3684 4.95422 18.5277L4.73142 18.126C4.99916 18.1507 5.26711 18.1739 5.53536 18.195C5.54801 18.2104 5.71238 18.4187 5.71532 18.4186C5.85399 18.4295 6.09124 18.3994 6.33051 18.387L5.99097 18.5607C6.05801 18.2669 6.15282 17.9777 6.33525 17.9097C6.43379 17.9371 6.53232 17.9645 6.63085 17.9919C6.64203 17.963 6.65321 17.9342 6.66438 17.9054C6.47281 17.8172 6.57103 17.8593 6.37104 17.7807C6.40924 17.521 6.60578 17.173 6.78127 16.8197C7.06447 16.2486 7.20897 15.1908 7.75296 14.7723C7.79555 14.7393 7.9616 14.825 8.05399 14.862C8.06586 14.837 8.07774 14.812 8.08961 14.787C8.02576 14.7052 7.86303 14.5401 7.89614 14.4811C8.07518 14.1582 7.68347 13.7419 8.20146 13.6489C8.29774 13.4028 8.21023 13.1263 8.36378 12.9724C8.52075 12.9875 8.59016 13.0029 8.75296 13.0358C8.76982 13.0156 8.78668 12.9954 8.80354 12.9752C8.76282 12.8928 8.71132 12.7902 8.64962 12.6662C8.78561 12.1384 8.96888 11.6071 9.21379 11.1261C9.2894 10.9777 9.20106 10.6559 9.24313 10.5831C9.25361 10.5646 9.26382 10.546 9.27378 10.5274L9.8987 11.7491C9.89838 11.749 9.89806 11.749 9.89774 11.7489L9.28911 10.4953C9.44949 10.2295 9.47409 9.91767 9.49361 9.62908L9.49359 9.62918C9.49993 9.53928 9.50608 9.4512 9.51631 9.36303C9.51971 9.33675 9.63422 9.23546 9.63887 9.22211C9.69106 9.09619 9.89346 9.00017 9.77802 8.88978C9.672 8.89272 9.56601 8.89633 9.46007 8.90059C9.43068 8.88001 9.40105 8.8602 9.37122 8.84117C9.48256 8.74062 9.47332 8.75888 9.63606 8.65252C9.48185 8.52544 9.39119 8.6387 9.35626 8.57563C9.32269 8.50148 9.32242 8.02179 9.23106 7.99166C9.08169 7.94083 8.92035 8.00119 8.77586 7.90232C8.80172 7.87441 8.82726 7.84614 8.85251 7.81751C9.05222 7.58346 9.08364 7.56017 9.05917 7.41422C9.02425 7.41508 8.98953 7.41657 8.95502 7.41865C8.87157 7.52706 8.79233 7.62184 8.69918 7.72367C8.57914 7.74627 8.44287 7.5452 8.26432 7.34238C8.09097 7.1368 7.86543 6.93581 7.77045 6.87626C7.77691 6.77166 7.77561 6.6712 7.76573 6.57301C7.74057 6.56445 7.71524 6.55624 7.68973 6.54838C7.56918 6.44044 7.42925 6.2521 7.34072 5.99327C7.37143 5.87844 7.40321 5.76384 7.43606 5.6495C7.67056 5.95502 8.16713 5.88658 8.64899 6.03182C9.12214 6.16289 9.50428 6.49202 9.14344 6.97903C9.11812 6.98929 9.09292 6.99975 9.06785 7.0104C8.88963 7.08743 8.79735 7.11799 8.64948 7.273C8.65648 7.30027 8.66295 7.3275 8.66892 7.35466C8.96719 7.25818 9.26437 6.96272 9.55913 6.68358C10.1196 6.79135 9.57892 7.06428 9.82975 7.25061C10.2833 7.60524 10.9624 8.02465 10.8415 8.74752C10.7647 9.11725 10.7625 9.03272 11.1006 9.23408C11.1094 9.58086 10.9642 9.65414 10.8401 9.8666L10.8401 9.86664C10.8193 9.90118 10.7984 9.93932 10.7776 9.98283C10.7286 10.0814 11.0021 10.3548 10.8959 10.6356C10.7031 10.6447 10.7821 10.6512 10.5746 10.5771C10.5533 10.598 10.5319 10.6185 10.5104 10.6387C10.6528 10.774 10.5716 10.7134 10.7838 10.804C10.7668 10.8249 10.7496 10.8456 10.7323 10.8661C10.661 10.8589 10.5899 10.8508 10.5192 10.8416C10.4994 10.87 10.4692 10.9656 10.4218 11.1028L10.1209 10.4831C10.1213 10.4831 10.1216 10.4831 10.1219 10.4831L10.431 11.0873C10.2635 11.6843 9.95307 13.1657 9.88508 13.2013C8.87755 13.7228 9.84017 14.1868 8.86018 14.7867C8.79762 14.8232 8.99069 15.3293 8.83842 15.5529C8.66381 15.6089 8.64129 15.5925 8.41155 15.5754C8.38962 15.6003 8.36769 15.6251 8.34576 15.65C8.50778 15.7961 8.44885 15.7499 8.64813 15.8708C8.64258 15.8959 8.63703 15.9209 8.63149 15.946C8.57762 15.9567 8.52376 15.9675 8.4699 15.9782C8.50968 16.2056 8.55669 16.2075 8.45401 16.3537C8.22925 16.3781 8.04187 16.3661 7.92421 16.4678C7.97995 16.5485 8.03569 16.6293 8.09143 16.71C7.96204 16.9224 7.69288 17.0213 7.61943 17.3271C7.58774 17.4586 7.29513 18.3574 7.35422 18.3437C6.93324 18.4411 7.06665 18.8119 7.00056 19.0492L6.13575 19.4915C5.99018 19.4922 5.87043 19.4131 5.81481 19.0819C5.6408 19.1263 5.52244 19.159 5.3508 19.1711C5.21097 18.9462 5.26415 18.9556 5.08534 18.9095C4.95009 19.0427 4.9254 19.1427 4.83973 19.3576C4.82082 19.3541 4.80192 19.3505 4.78302 19.347C4.80452 19.269 4.82603 19.191 4.84753 19.1129C4.76917 19.0259 4.67309 19.0385 4.56219 19.0857L4.05044 18.163C4.00686 17.9409 3.85447 17.6423 4.00912 17.3749C4.03362 17.3769 4.05813 17.379 4.08263 17.3811C4.1302 17.4431 4.17776 17.5051 4.22533 17.5671C4.42252 17.5394 4.45909 17.4964 4.61419 17.4249C4.49474 17.2928 4.46615 17.2795 4.30708 17.1615C4.30043 17.1279 4.29378 17.0944 4.28714 17.0608C4.44491 17.076 4.57389 17.0839 4.72096 17.0762C4.71633 17.0425 4.7117 17.0089 4.70707 16.9752C3.80609 16.3761 4.7889 16.1502 4.5271 15.8111C4.4869 15.787 4.44669 15.7628 4.40648 15.7386C4.41877 15.6948 4.43106 15.6509 4.44334 15.607C4.49274 15.6206 4.54214 15.6343 4.59154 15.6479C4.68071 15.7361 4.76988 15.8242 4.85904 15.9124C4.88691 15.911 4.91478 15.9096 4.94265 15.9082C4.99201 15.4291 5.08723 14.9884 5.12339 14.5018C5.28229 14.4847 5.21712 14.4853 5.40628 14.5233C5.41111 14.4967 5.41594 14.4701 5.42077 14.4435C5.26197 14.3102 5.10467 14.1766 4.94855 14.0421C5.02851 13.661 5.5023 13.5645 5.45303 13.1652C5.4315 12.9862 5.44549 12.9477 5.55619 12.849C5.71713 12.9148 5.70532 12.9259 5.86462 12.9373C5.86437 12.9129 5.86411 12.8885 5.86385 12.8642C5.78582 12.8124 5.70779 12.7606 5.62976 12.7088C5.63946 12.686 5.64917 12.6631 5.65887 12.6403C5.74168 12.6607 5.82449 12.6812 5.9073 12.7017C5.92139 12.5905 5.91215 12.5062 5.89437 12.4352L6.96742 13.9628C6.72132 14.1048 6.66608 14.3146 5.97426 14.1119C5.9576 14.0818 5.9413 14.0516 5.92534 14.0214L5.92521 14.0213C5.92446 14.0199 5.92371 14.0185 5.92296 14.017C5.92436 14.0148 5.92576 14.0126 5.92715 14.0103L5.92728 14.0103C5.98135 13.9239 6.03329 13.8366 6.0831 13.7485C6.03877 13.7305 6.00691 13.7162 5.98085 13.7063L5.98076 13.7063C5.90393 13.6767 5.87849 13.6883 5.7391 13.737C5.64322 13.8835 5.61997 13.9193 5.53719 14.0785C5.2701 14.0436 5.28799 13.9943 5.27387 13.6507Z" fill="#F8E095"/>
<path d="M16.7109 13.6506C15.6922 13.6871 16.2748 14.0696 15.4836 13.1662C15.1929 12.7732 15.0245 12.7838 14.8559 12.7157C14.7025 12.6507 14.5211 12.4789 14.5568 11.7679C14.347 11.8199 14.42 11.7995 14.2077 11.9259C14.1175 11.8596 13.8147 11.3117 13.6785 10.6939C13.5275 10.0774 13.5586 9.42812 13.5646 9.22077C13.6339 9.16445 13.7042 9.11049 13.7754 9.05893C13.7565 8.95391 13.7044 8.5516 13.7211 8.35795L13.7211 8.35786C13.724 8.30924 13.7292 8.27462 13.7362 8.26225C14.0254 7.7494 14.2455 7.33542 14.5624 6.89083C14.757 6.93832 14.6844 6.9128 14.8702 7.02239C14.9807 6.91542 14.9131 6.83282 14.8238 6.64368C14.988 6.43026 15.8281 5.63325 16.84 5.43711C17.8467 5.19868 18.7579 5.55171 18.8121 5.77267C18.8047 5.82488 18.7972 5.87709 18.7896 5.92928C18.6053 6.1301 18.4406 6.11837 18.2691 6.12101C17.7956 6.12783 17.2657 6.07634 16.7682 6.25276C15.8055 6.5876 14.9799 7.431 14.6484 8.52137L14.6484 8.52136C14.6094 8.64721 14.5766 8.77517 14.5502 8.90551C14.4564 9.36792 14.4608 9.86348 14.5947 10.3334C14.6591 10.5599 14.8037 10.77 14.873 10.9939C14.9599 11.2887 14.9445 11.7341 15.3497 11.7676C15.5139 11.78 15.8702 12.1438 16.3301 12.429C16.7819 12.7245 17.3315 12.9173 17.5499 12.9596L17.5499 12.9596C17.5587 12.9615 17.5669 12.9632 17.5745 12.9647C17.836 13.0166 18.1053 13.0144 18.3674 12.9875L18.2359 12.8002C18.1836 12.9598 18.1307 13.1191 18.0698 13.2752C17.957 13.5637 17.7746 13.8275 17.6782 14.1213C17.5795 14.4207 17.5776 14.7548 17.4865 15.0573C17.1379 16.2193 16.7505 17.3683 16.3907 18.5275L16.168 18.1258C16.4358 18.1505 16.7039 18.1738 16.9722 18.1949C16.9849 18.2103 17.1492 18.4186 17.1522 18.4184C17.291 18.4294 17.5285 18.3992 17.768 18.3868L17.4283 18.5606C17.4953 18.2671 17.5901 17.9783 17.7724 17.9104C17.8709 17.9377 17.9694 17.9651 18.068 17.9925C18.0791 17.9636 18.0903 17.9348 18.1015 17.906C17.9099 17.8178 18.0081 17.8599 17.8081 17.7813C17.8463 17.5217 18.0428 17.1736 18.2182 16.8203C18.5014 16.2492 18.6457 15.1915 19.1897 14.7729C19.2323 14.7399 19.3983 14.8256 19.4907 14.8626C19.5026 14.8376 19.5144 14.8125 19.5263 14.7875C19.4625 14.7057 19.2997 14.5407 19.3328 14.4817C19.5118 14.1588 19.12 13.7425 19.638 13.6495C19.7343 13.4033 19.6467 13.1269 19.8003 12.973C19.9572 12.9881 20.0266 13.0035 20.1894 13.0363C20.2063 13.0161 20.2232 12.996 20.24 12.9758C20.1993 12.8934 20.1478 12.7907 20.0861 12.6668C20.222 12.139 20.4052 11.6077 20.65 11.1267C20.7256 10.9783 20.6373 10.6565 20.6793 10.5836C20.6899 10.565 20.7002 10.5462 20.7103 10.5273L20.7266 10.4953C20.887 10.2295 20.9116 9.91768 20.9311 9.62908L20.9311 9.62918C20.9374 9.53923 20.9436 9.4511 20.9538 9.36289C20.9572 9.33661 21.0717 9.23532 21.0764 9.22197C21.1286 9.09605 21.331 9.00003 21.2155 8.88965C21.1095 8.89259 21.0035 8.8962 20.8976 8.90047C20.8682 8.87989 20.8385 8.86008 20.8087 8.84106C20.92 8.7405 20.9108 8.75876 21.0735 8.6524C20.9193 8.52533 20.8287 8.63859 20.7937 8.57552C20.7602 8.50138 20.7599 8.0217 20.6685 7.99158C20.5192 7.94076 20.3578 8.00112 20.2133 7.90226C20.2392 7.87435 20.2647 7.84608 20.29 7.81746C20.4897 7.5834 20.5211 7.56011 20.4966 7.41416C20.4617 7.41502 20.427 7.41651 20.3925 7.41859C20.309 7.527 20.2298 7.62179 20.1366 7.72362C20.0166 7.74623 19.8803 7.54517 19.7018 7.34236C19.5284 7.13679 19.3029 6.9358 19.2079 6.87625C19.2144 6.77165 19.2131 6.6712 19.2032 6.573C19.1781 6.56444 19.1527 6.55623 19.1272 6.54837C19.0067 6.44044 18.8667 6.2521 18.7782 5.99327C18.8089 5.87844 18.8407 5.76384 18.8736 5.6495C19.108 5.95502 19.6046 5.88657 20.0865 6.0318C20.5596 6.16285 20.9417 6.49196 20.5809 6.97898C20.5556 6.98924 20.5304 6.9997 20.5053 7.01035C20.3271 7.08738 20.2348 7.11795 20.0869 7.27296C20.0939 7.30023 20.1004 7.32746 20.1064 7.35462C20.4046 7.25813 20.7018 6.96266 20.9966 6.68352C21.557 6.79126 21.0164 7.0642 21.2672 7.25053C21.7207 7.60512 22.3998 8.02448 22.279 8.74733C22.2022 9.11706 22.2 9.03254 22.5381 9.23386C22.5469 9.58075 22.4017 9.65397 22.2775 9.86658L22.2775 9.86663C22.2567 9.90111 22.2359 9.93918 22.2152 9.98261C22.1662 10.0812 22.4397 10.3545 22.3335 10.6353C22.1407 10.6444 22.2197 10.651 22.0122 10.5769C21.9909 10.5977 21.9695 10.6182 21.948 10.6384C22.0904 10.7737 22.0092 10.7131 22.2214 10.8038C22.2044 10.8247 22.1872 10.8453 22.1699 10.8658C22.0986 10.8587 22.0275 10.8506 21.9568 10.8414C21.937 10.8697 21.9068 10.9654 21.8594 11.1028L21.8674 11.087C21.7001 11.6835 21.3896 13.1661 21.3216 13.2017C20.3141 13.7233 21.2768 14.1872 20.2969 14.7871C20.2343 14.8237 20.4275 15.3298 20.2752 15.5534C20.1006 15.6093 20.0781 15.593 19.8484 15.576C19.8264 15.6008 19.8045 15.6257 19.7826 15.6505C19.9446 15.7966 19.8857 15.7504 20.085 15.8713C20.0794 15.8964 20.0739 15.9214 20.0683 15.9464C20.0145 15.9572 19.9606 15.968 19.9068 15.9787C19.9466 16.2061 19.9936 16.208 19.8909 16.3542C19.6662 16.3786 19.4788 16.3666 19.3611 16.4683C19.4169 16.5491 19.4726 16.6298 19.5284 16.7105C19.399 16.9229 19.1299 17.0218 19.0565 17.3276C19.0248 17.4592 18.7323 18.3579 18.7914 18.3442C18.3708 18.4416 18.5036 18.8117 18.438 19.0491L17.5733 19.4914C17.4274 19.4923 17.3073 19.4136 17.2516 19.0818C17.0776 19.1262 16.9593 19.1588 16.7876 19.171C16.6478 18.9461 16.701 18.9555 16.5222 18.9094C16.3869 19.0426 16.3623 19.1425 16.2766 19.3575C16.2577 19.354 16.2388 19.3504 16.2199 19.3469C16.2414 19.2689 16.2629 19.1908 16.2844 19.1128C16.2059 19.0257 16.1097 19.0384 15.9987 19.0858L15.4868 18.1628C15.4431 17.9407 15.291 17.6423 15.4455 17.375C15.47 17.3771 15.4945 17.3792 15.519 17.3813C15.5666 17.4433 15.6142 17.5053 15.6617 17.5673C15.8589 17.5396 15.8955 17.4966 16.0506 17.425C15.9311 17.293 15.9026 17.2797 15.7435 17.1617C15.7368 17.1281 15.7302 17.0946 15.7235 17.061C15.8813 17.0761 16.0103 17.0841 16.1574 17.0763C16.1527 17.0427 16.1481 17.0091 16.1435 16.9754C15.2425 16.3763 16.2253 16.1504 15.9635 15.8114C15.9233 15.7872 15.8831 15.763 15.8429 15.7389C15.8552 15.695 15.8674 15.6511 15.8797 15.6073C15.9291 15.6209 15.9785 15.6345 16.0279 15.6481C16.1171 15.7363 16.2063 15.8245 16.2954 15.9126C16.3233 15.9112 16.3512 15.9098 16.379 15.9084C16.4284 15.4294 16.5236 14.9886 16.5597 14.502C16.7187 14.485 16.6535 14.4856 16.8426 14.5236C16.8475 14.497 16.8523 14.4704 16.8571 14.4438C16.6983 14.3105 16.541 14.1769 16.3849 14.0424C16.4649 13.6613 16.9386 13.5648 16.8894 13.1655C16.8678 12.9865 16.8818 12.948 16.9925 12.8493C17.1535 12.9151 17.1417 12.9263 17.301 12.9376C17.3007 12.9132 17.3004 12.8889 17.3002 12.8645C17.2222 12.8127 17.1441 12.7609 17.0661 12.7091C17.0758 12.6863 17.0855 12.6634 17.0952 12.6406C17.178 12.6611 17.2608 12.6815 17.3436 12.702C17.3578 12.5905 17.3484 12.506 17.3305 12.4349L18.4037 13.9631C18.1585 14.1048 18.1034 14.3144 17.4113 14.1118C17.3948 14.0819 17.3786 14.052 17.3627 14.0221L17.3626 14.022C17.3617 14.0203 17.3608 14.0186 17.3599 14.017C17.3616 14.0143 17.3632 14.0117 17.3649 14.009L17.365 14.009C17.4189 13.923 17.4706 13.8361 17.5202 13.7484C17.4761 13.7306 17.4443 13.7163 17.4183 13.7064L17.4182 13.7064C17.341 13.6765 17.3158 13.6881 17.1761 13.7369C17.0802 13.8834 17.057 13.9192 16.9742 14.0784C16.7071 14.0435 16.725 13.9942 16.7109 13.6506Z" fill="#F8E095"/>
</svg>
