<svg width="24" height="24" viewBox="0 0 24 24" fill="none" xmlns="http://www.w3.org/2000/svg">
<path d="M18.7261 10.3493C19.7448 10.3127 19.1622 9.93023 19.9535 10.8335C20.2443 11.2265 20.4127 11.2159 20.5812 11.284C20.7347 11.349 20.9161 11.5208 20.8804 12.2318C21.0903 12.1798 21.0172 12.2002 21.2295 12.0738C21.3197 12.14 21.6226 12.688 21.7589 13.3058C21.9099 13.9222 21.8788 14.5716 21.8729 14.7789C21.8036 14.8353 21.7333 14.8892 21.6621 14.9408C21.681 15.0459 21.7331 15.4485 21.7165 15.6421L21.7164 15.6421C21.7135 15.6906 21.7083 15.7252 21.7014 15.7375C21.4122 16.2504 21.1921 16.6644 20.8752 17.109C20.6806 17.0615 20.7532 17.0871 20.5674 16.9775C20.4568 17.0845 20.5244 17.1671 20.6138 17.3562C20.4496 17.5696 19.6095 18.3667 18.5975 18.5629C17.5908 18.8013 16.6796 18.4483 16.6254 18.2273C16.6328 18.1751 16.6403 18.1229 16.6479 18.0707C16.8322 17.8699 16.9969 17.8816 17.1684 17.879C17.642 17.8722 18.1718 17.9236 18.6694 17.7472C19.632 17.4124 20.4575 16.569 20.7891 15.4786L20.7891 15.4786C20.8281 15.3527 20.8609 15.2247 20.8873 15.0943C20.981 14.6318 20.9766 14.1363 20.8427 13.6664C20.7783 13.4399 20.6337 13.2298 20.5643 13.0058C20.4774 12.711 20.4928 12.2656 20.0875 12.2322C19.9235 12.2197 19.5673 11.8562 19.1075 11.5711C18.6559 11.2756 18.1064 11.0828 17.8876 11.0404L17.8876 11.0404C17.8787 11.0385 17.8703 11.0368 17.8626 11.0352C17.601 10.9833 17.3314 10.9854 17.0691 11.0124L17.2006 11.1996C17.2528 11.0402 17.3057 10.8811 17.3666 10.7252C17.4793 10.4367 17.6618 10.1728 17.7582 9.87901C17.8569 9.57955 17.8588 9.24547 17.9499 8.94293C18.2985 7.7808 18.6859 6.63165 19.0458 5.47233L19.2686 5.87404C19.0008 5.84934 18.7329 5.82607 18.4646 5.80499C18.452 5.78956 18.2876 5.58126 18.2847 5.58144C18.146 5.57054 17.9088 5.60061 17.6695 5.613L18.009 5.43933C17.942 5.73311 17.8472 6.02233 17.6647 6.09028C17.5662 6.0629 17.4677 6.03552 17.3691 6.00815C17.358 6.03697 17.3468 6.0658 17.3356 6.09463C17.5272 6.18279 17.429 6.14072 17.629 6.21931C17.5908 6.47899 17.3942 6.82705 17.2187 7.18029C16.9355 7.75141 16.791 8.80916 16.247 9.22773C16.2045 9.26075 16.0384 9.17497 15.946 9.13799C15.9341 9.16301 15.9223 9.18802 15.9104 9.21304C15.9742 9.29484 16.137 9.45994 16.1039 9.51892C15.9248 9.8418 16.3165 10.2581 15.7985 10.3511C15.7023 10.5972 15.7898 10.8737 15.6362 11.0276C15.4793 11.0125 15.4098 10.9971 15.247 10.9642C15.2302 10.9844 15.2133 11.0046 15.1965 11.0248C15.2372 11.1072 15.2887 11.2098 15.3504 11.3338C15.2144 11.8616 15.0311 12.3929 14.7862 12.8739C14.7106 13.0223 14.7989 13.3441 14.7569 13.4169C14.7464 13.4354 14.7362 13.454 14.7262 13.4726L14.1013 12.2509C14.1016 12.251 14.1019 12.251 14.1023 12.2511L14.7109 13.5047C14.5505 13.7705 14.5259 14.0823 14.5064 14.3709L14.5064 14.3708C14.5001 14.4607 14.4939 14.5488 14.4837 14.637C14.4803 14.6632 14.3658 14.7645 14.3611 14.7779C14.3089 14.9038 14.1065 14.9998 14.222 15.1102C14.328 15.1073 14.434 15.1037 14.5399 15.0994C14.5693 15.12 14.599 15.1398 14.6288 15.1588C14.5174 15.2594 14.5267 15.2411 14.3639 15.3475C14.5182 15.4746 14.6088 15.3613 14.6437 15.4244C14.6773 15.4985 14.6776 15.9782 14.7689 16.0083C14.9183 16.0592 15.0796 15.9988 15.2241 16.0977C15.1983 16.1256 15.1727 16.1539 15.1475 16.1825C14.9478 16.4165 14.9164 16.4398 14.9408 16.5858C14.9758 16.5849 15.0105 16.5834 15.045 16.5814C15.1284 16.4729 15.2077 16.3782 15.3008 16.2763C15.4209 16.2537 15.5571 16.4548 15.7357 16.6576C15.909 16.8632 16.1346 17.0642 16.2295 17.1237C16.2231 17.2283 16.2244 17.3288 16.2343 17.427C16.2594 17.4356 16.2848 17.4438 16.3103 17.4516C16.4308 17.5596 16.5707 17.7479 16.6593 18.0067C16.6286 18.1216 16.5968 18.2362 16.5639 18.3505C16.3294 18.045 15.8329 18.1134 15.351 17.9682C14.8779 17.8371 14.4957 17.508 14.8566 17.021C14.8819 17.0107 14.9071 17.0003 14.9321 16.9896C15.1104 16.9126 15.2027 16.882 15.3505 16.727C15.3435 16.6997 15.337 16.6725 15.3311 16.6453C15.0328 16.7418 14.7356 17.0373 14.4409 17.3164C13.8804 17.2086 14.4211 16.9357 14.1703 16.7494C13.7167 16.3948 13.0376 15.9754 13.1585 15.2525C13.2353 14.8827 13.2375 14.9673 12.8994 14.7659C12.8906 14.4191 13.0358 14.3459 13.1599 14.1334L13.1599 14.1334C13.1807 14.0988 13.2016 14.0607 13.2224 14.0172C13.2714 13.9186 12.9979 13.6452 13.1041 13.3644C13.2969 13.3553 13.2179 13.3488 13.4254 13.4229C13.4467 13.402 13.4681 13.3815 13.4896 13.3613C13.3472 13.226 13.4284 13.2866 13.2162 13.196C13.2332 13.1751 13.2504 13.1544 13.2677 13.1339C13.339 13.1411 13.4101 13.1492 13.4808 13.1584C13.5006 13.13 13.5308 13.0344 13.5782 12.8972L13.8791 13.5169C13.8787 13.5169 13.8784 13.5169 13.8781 13.5169L13.569 12.9127C13.7365 12.3157 14.0469 10.8343 14.1149 10.7987C15.1224 10.2772 14.1598 9.81318 15.1398 9.21335C15.2024 9.1768 15.0093 8.67068 15.1616 8.4471C15.3362 8.39114 15.3587 8.40747 15.5884 8.42456C15.6104 8.39971 15.6323 8.37485 15.6542 8.35C15.4922 8.20388 15.5511 8.25013 15.3519 8.12916C15.3574 8.10412 15.363 8.07908 15.3685 8.05404C15.4224 8.04329 15.4762 8.03254 15.5301 8.02179C15.4903 7.79438 15.4433 7.79252 15.546 7.64632C15.7707 7.6219 15.9581 7.63392 16.0758 7.53222C16.02 7.45147 15.9643 7.37072 15.9086 7.28996C16.038 7.07758 16.3071 6.97872 16.3806 6.6729C16.4123 6.54138 16.7049 5.64263 16.6458 5.6563C17.0668 5.55887 16.9334 5.18815 16.9994 4.95081L17.8643 4.50847C18.0098 4.50781 18.1296 4.58685 18.1852 4.91809C18.3592 4.8737 18.4776 4.84105 18.6492 4.82891C18.789 5.05376 18.7358 5.0444 18.9147 5.09053C19.0499 4.95729 19.0746 4.85734 19.1603 4.64238C19.1792 4.64592 19.1981 4.64947 19.217 4.65301C19.1955 4.73103 19.174 4.80904 19.1525 4.88705C19.2308 4.97407 19.3269 4.96152 19.4378 4.91427L19.9496 5.83699C19.9931 6.05907 20.1455 6.35766 19.9909 6.62515C19.9664 6.62306 19.9419 6.62097 19.9174 6.61888C19.8698 6.55689 19.8222 6.4949 19.7747 6.43291C19.5775 6.46055 19.5409 6.5036 19.3858 6.57515C19.5053 6.70716 19.5338 6.72048 19.6929 6.83849C19.6996 6.87205 19.7062 6.90561 19.7129 6.93917C19.5551 6.92404 19.4261 6.91613 19.279 6.92385C19.2837 6.95748 19.2883 6.99112 19.2929 7.02476C20.1939 7.62389 19.2111 7.84982 19.4729 8.18886C19.5131 8.21302 19.5533 8.23719 19.5935 8.26135C19.5812 8.30522 19.5689 8.3491 19.5567 8.39297C19.5073 8.37936 19.4579 8.36574 19.4085 8.35213C19.3193 8.26395 19.2301 8.17576 19.141 8.08758C19.1131 8.08899 19.0852 8.09039 19.0573 8.0918C19.008 8.57088 18.9128 9.01161 18.8766 9.49822C18.7177 9.51526 18.7829 9.51465 18.5937 9.47671C18.5889 9.5033 18.5841 9.52988 18.5792 9.55647C18.738 9.68981 18.8953 9.8234 19.0515 9.95787C18.9715 10.339 18.4977 10.4355 18.547 10.8348C18.5685 11.0138 18.5545 11.0523 18.4438 11.151C18.2829 11.0852 18.2947 11.0741 18.1354 11.0627C18.1356 11.0871 18.1359 11.1115 18.1362 11.1358C18.2142 11.1876 18.2922 11.2394 18.3702 11.2912C18.3605 11.314 18.3508 11.3369 18.3411 11.3597C18.2583 11.3393 18.1755 11.3188 18.0927 11.2983C18.0786 11.4095 18.0879 11.4938 18.1056 11.5648L17.0326 10.0372C17.2787 9.89522 17.3339 9.68539 18.0257 9.88815C18.0424 9.91823 18.0587 9.94839 18.0747 9.97863L18.0748 9.97865C18.0755 9.98009 18.0763 9.98152 18.077 9.98295C18.0756 9.98519 18.0742 9.98743 18.0728 9.98968L18.0727 9.98965C18.0187 10.0761 17.9667 10.1634 17.9169 10.2515C17.9612 10.2695 17.9931 10.2838 18.0191 10.2937L18.0192 10.2937C18.0961 10.3233 18.1215 10.3117 18.2609 10.263C18.3568 10.1165 18.38 10.0807 18.4628 9.92145C18.7299 9.95635 18.712 10.0057 18.7261 10.3493Z" fill="black"/>
<path d="M7.28909 10.3494C8.30777 10.3129 7.72525 9.93044 8.51635 10.8338C8.80708 11.2268 8.97554 11.2162 9.14406 11.2843C9.29746 11.3493 9.47891 11.5211 9.44316 12.2321C9.65297 12.1801 9.57995 12.2005 9.79226 12.0741C9.88246 12.1404 10.1853 12.6883 10.3215 13.3061C10.4725 13.9226 10.4414 14.5719 10.4354 14.7792C10.3661 14.8355 10.2958 14.8895 10.2246 14.9411C10.2435 15.0461 10.2956 15.4484 10.2789 15.6421L10.2789 15.6421C10.276 15.6908 10.2708 15.7254 10.2638 15.7378C9.97464 16.2506 9.75451 16.6646 9.43761 17.1092C9.24301 17.0617 9.3156 17.0872 9.12983 16.9776C9.01925 17.0846 9.08686 17.1672 9.17615 17.3563C9.01197 17.5697 8.17194 18.3667 7.15996 18.5629C6.1533 18.8013 5.24205 18.4483 5.18786 18.2273C5.19531 18.1751 5.20284 18.1229 5.21044 18.0707C5.39471 17.8699 5.55938 17.8816 5.73087 17.879C6.20444 17.8722 6.73428 17.9237 7.23183 17.7472C8.1945 17.4124 9.02005 16.569 9.35162 15.4786L9.35162 15.4786C9.39063 15.3528 9.42342 15.2248 9.44977 15.0945C9.54356 14.6321 9.53919 14.1365 9.40526 13.6666C9.3409 13.4401 9.19631 13.23 9.12696 13.0061C9.04007 12.7113 9.05551 12.2659 8.65027 12.2324C8.48613 12.22 8.12983 11.8562 7.66987 11.571C7.21814 11.2755 6.66854 11.0827 6.45008 11.0404L6.45006 11.0404C6.44131 11.0385 6.43312 11.0368 6.4255 11.0353C6.16398 10.9834 5.89467 10.9856 5.63259 11.0125L5.76412 11.1998C5.8164 11.0402 5.86932 10.8809 5.93024 10.7248C6.04295 10.4363 6.22544 10.1725 6.32182 9.87872C6.4205 9.57927 6.42243 9.2452 6.51349 8.94268C6.86209 7.78069 7.24948 6.63168 7.60927 5.47251L7.83204 5.87418C7.5642 5.84948 7.29615 5.8262 7.02779 5.80511C7.01515 5.78967 6.85079 5.58138 6.84785 5.58156C6.70905 5.57065 6.47146 5.60079 6.23197 5.61316L6.57169 5.43937C6.50469 5.73291 6.40993 6.02172 6.22765 6.08963C6.12911 6.06227 6.03058 6.0349 5.93204 6.00753C5.92087 6.03636 5.90969 6.06519 5.89852 6.09402C6.09011 6.18215 5.99188 6.14009 6.19187 6.21866C6.15371 6.47834 5.95721 6.82641 5.78176 7.17966C5.49864 7.75079 5.35427 8.80852 4.81033 9.22713C4.76775 9.26015 4.60169 9.1744 4.50929 9.13742C4.49742 9.16244 4.48555 9.18746 4.47368 9.21247C4.53754 9.29427 4.70029 9.45934 4.66719 9.51832C4.48819 9.84122 4.87995 10.2575 4.36197 10.3505C4.26572 10.5967 4.35327 10.8731 4.19974 11.027C4.04277 11.0119 3.97336 10.9965 3.81055 10.9637C3.79369 10.9839 3.77684 11.004 3.75998 11.0242C3.80071 11.1066 3.85222 11.2093 3.91394 11.3332C3.77801 11.861 3.59481 12.3923 3.34996 12.8733C3.27437 13.0217 3.36275 13.3435 3.32069 13.4164C3.31009 13.435 3.29976 13.4538 3.28969 13.4727L3.2734 13.5047C3.11299 13.7705 3.08837 14.0823 3.06888 14.3709L3.0689 14.3708C3.06255 14.4608 3.05641 14.5489 3.04618 14.6371C3.04278 14.6634 2.92828 14.7647 2.92363 14.778C2.87144 14.9039 2.66905 15 2.78449 15.1104C2.89052 15.1074 2.9965 15.1038 3.10244 15.0995C3.13183 15.1201 3.16146 15.1399 3.1913 15.1589C3.07996 15.2595 3.0892 15.2412 2.92646 15.3476C3.08068 15.4747 3.17133 15.3614 3.20626 15.4245C3.23984 15.4986 3.24012 15.9783 3.33148 16.0084C3.48085 16.0592 3.64218 15.9989 3.78667 16.0977C3.76082 16.1256 3.73527 16.1539 3.71003 16.1825C3.51033 16.4166 3.47891 16.4399 3.50338 16.5858C3.5383 16.585 3.57301 16.5835 3.60753 16.5814C3.69097 16.473 3.77021 16.3782 3.86336 16.2764C3.98339 16.2538 4.11967 16.4548 4.29822 16.6576C4.47156 16.8632 4.69709 17.0642 4.79206 17.1238C4.78561 17.2283 4.78691 17.3288 4.79679 17.427C4.82195 17.4356 4.84728 17.4438 4.87279 17.4516C4.99333 17.5596 5.13325 17.7479 5.22178 18.0067C5.19107 18.1216 5.15929 18.2362 5.12644 18.3505C4.89196 18.045 4.3954 18.1134 3.91355 17.9682C3.44041 17.8371 3.05828 17.508 3.41911 17.021C3.44443 17.0108 3.46963 17.0003 3.4947 16.9897C3.67292 16.9126 3.7652 16.8821 3.91306 16.727C3.90607 16.6998 3.89959 16.6725 3.89362 16.6454C3.59536 16.7419 3.29819 17.0373 3.00343 17.3165C2.44295 17.2087 2.98363 16.9358 2.73281 16.7495C2.27929 16.3949 1.60015 15.9755 1.721 15.2527C1.79781 14.8829 1.80001 14.9675 1.4619 14.7661C1.45306 14.4193 1.59835 14.346 1.72252 14.1334L1.72253 14.1334C1.74329 14.0989 1.76408 14.0608 1.78483 14.0174C1.83381 13.9188 1.56031 13.6455 1.66647 13.3647C1.85926 13.3556 1.7803 13.349 1.98782 13.4231C2.00906 13.4023 2.03047 13.3818 2.05204 13.3616C1.90958 13.2263 1.99083 13.2869 1.77859 13.1962C1.79561 13.1753 1.8128 13.1547 1.83014 13.1342C1.90144 13.1413 1.97248 13.1494 2.04323 13.1586C2.06302 13.1303 2.09321 13.0346 2.14063 12.8972L2.13258 12.913C2.29989 12.3165 2.61041 10.8339 2.67842 10.7983C3.68588 10.2767 2.7232 9.81276 3.70312 9.21285C3.76567 9.1763 3.57255 8.67021 3.72479 8.44662C3.89939 8.39065 3.92191 8.40698 4.15165 8.42405C4.17357 8.39919 4.1955 8.37434 4.21743 8.34948C4.0554 8.20338 4.11432 8.24963 3.91503 8.12868C3.92058 8.10364 3.92612 8.0786 3.93167 8.05355C3.98553 8.0428 4.03939 8.03204 4.09325 8.02129C4.05345 7.79389 4.00643 7.79204 4.10909 7.64584C4.33385 7.62139 4.52123 7.6334 4.63887 7.53169C4.58313 7.45094 4.52738 7.3702 4.47163 7.28945C4.60099 7.07706 4.87014 6.97818 4.94355 6.67237C4.97522 6.54085 5.26772 5.64209 5.20863 5.65577C5.62919 5.55839 5.4964 5.18831 5.56202 4.95095L6.42673 4.5086C6.57261 4.50768 6.69266 4.58644 6.74837 4.91821C6.92237 4.87382 7.04072 4.84116 7.21236 4.82902C7.35218 5.05388 7.299 5.04452 7.47781 5.09065C7.61306 4.9574 7.63774 4.85746 7.72342 4.64249C7.74232 4.64604 7.76122 4.64958 7.78013 4.65313C7.75862 4.73114 7.73712 4.80915 7.71561 4.88716C7.79406 4.97428 7.89025 4.96161 8.00131 4.91422L8.51322 5.83725C8.55691 6.05927 8.70903 6.35766 8.55448 6.62498C8.52998 6.62289 8.50547 6.62081 8.48097 6.61872C8.4334 6.55673 8.38583 6.49474 8.33826 6.43275C8.14108 6.46039 8.1045 6.50344 7.94941 6.57498C8.06886 6.70699 8.09745 6.72031 8.25652 6.83832C8.26317 6.87188 8.26982 6.90544 8.27647 6.93899C8.11869 6.92386 7.98971 6.91595 7.84265 6.92367C7.84728 6.9573 7.85191 6.99094 7.85654 7.02457C8.75752 7.6237 7.77472 7.84961 8.03651 8.18864C8.07672 8.2128 8.11693 8.23697 8.15714 8.26113C8.14485 8.30501 8.13256 8.34888 8.12028 8.39275C8.07088 8.37913 8.02148 8.36552 7.97208 8.35191C7.88291 8.26373 7.79374 8.17554 7.70457 8.08736C7.67671 8.08877 7.64884 8.09018 7.62097 8.09158C7.57162 8.57064 7.4764 9.01136 7.44025 9.49796C7.28135 9.515 7.34652 9.51439 7.15736 9.47644C7.15253 9.50303 7.1477 9.52962 7.14286 9.5562C7.30167 9.68954 7.45897 9.82313 7.6151 9.9576C7.53514 10.3387 7.06135 10.4352 7.11063 10.8345C7.13216 11.0135 7.11817 11.052 7.00747 11.1507C6.84652 11.0849 6.85834 11.0737 6.69904 11.0624C6.69929 11.0868 6.69955 11.1111 6.69981 11.1355C6.77784 11.1873 6.85587 11.2391 6.9339 11.2909C6.9242 11.3137 6.9145 11.3366 6.90479 11.3594C6.82198 11.3389 6.73917 11.3185 6.65637 11.298C6.64223 11.4095 6.65157 11.494 6.66946 11.5651L5.59632 10.0369C5.84155 9.89515 5.8966 9.68559 6.58867 9.88822C6.60523 9.91805 6.62142 9.94796 6.63728 9.97794L6.63741 9.97797C6.6383 9.97966 6.63919 9.98135 6.64008 9.98305C6.63842 9.9857 6.63677 9.98834 6.63511 9.99099L6.63499 9.99097C6.58112 10.077 6.52938 10.1639 6.47978 10.2516C6.52388 10.2694 6.55566 10.2837 6.58167 10.2936L6.58176 10.2936C6.65895 10.3235 6.68421 10.3119 6.82389 10.2631C6.9198 10.1166 6.94304 10.0808 7.02584 9.92158C7.29292 9.95651 7.27502 10.0058 7.28909 10.3494Z" fill="black"/>
</svg>
