<svg width="24" height="24" viewBox="0 0 24 24" fill="none" xmlns="http://www.w3.org/2000/svg" xmlns:xlink="http://www.w3.org/1999/xlink">
<g id="Form 4_inner" data-figma-trr="r5u2.5-0f">
<path d="M11.3732 2.74256C10.9463 2.83483 10.9375 2.95994 11.1892 2.64573C11.3914 2.37937 10.6916 2.86846 11.375 2.26463C11.1983 2.3618 11.2607 2.32724 11.0508 2.45634C10.9809 2.47068 11.0545 2.07017 11.0242 2.01494C11.0768 1.96802 11.1293 1.9209 11.1816 1.87359C11.1524 1.86892 10.9977 1.87161 11.0097 1.85116C11.1066 1.67823 11.1022 1.58654 11.0789 1.49287C11.2219 1.36685 11.1644 1.41552 11.3328 1.28087C11.343 1.23754 11.2575 1.29722 11.1038 1.3988C11.0943 1.29804 10.9089 0.5906 11.1567 0.262772C11.1943 0.225841 11.232 0.188902 11.2696 0.151961C11.4598 0.0177978 11.4972 0.0479738 11.5321 0.0770561C11.6335 0.160652 11.597 0.363903 11.6314 0.502494C11.7034 0.802185 11.7705 1.08985 11.786 1.39947C11.7923 1.5138 11.8006 1.62068 11.8365 1.70898C11.8544 1.75188 11.9223 1.76676 11.9062 1.83037C11.8851 1.9166 11.6808 2.10914 11.944 2.00951C12.1709 1.92749 12.1754 2.35307 12.1982 2.42398C12.2263 2.50406 12.3153 2.5485 12.3572 2.62417C12.3874 2.67891 12.3497 2.76477 12.3932 2.81111C12.4368 2.85779 12.5752 2.86667 12.6265 2.91453C12.8677 3.13593 13.0418 3.40199 13.2637 3.66324C13.2521 3.67013 13.0933 3.7576 13.094 3.75775C13.1399 3.8086 13.4943 3.89083 13.2712 3.99972C13.1742 4.02666 13.0772 4.05343 12.9801 4.08006C12.9839 4.08552 12.9877 4.09097 12.9916 4.09643C13.1967 4.04782 13.093 4.07305 13.3009 4.02111C13.3895 4.05403 13.3834 4.143 13.396 4.22621C13.4165 4.3544 13.7803 4.52252 13.4934 4.69723C13.471 4.71077 13.2858 4.73488 13.1876 4.74968C13.1886 4.75529 13.1895 4.7609 13.1905 4.7665C13.284 4.76335 13.5027 4.75129 13.5004 4.76617C13.4897 4.84432 14.0253 4.82934 13.6091 4.9431C13.6353 4.99738 13.8378 5.0252 13.7706 5.07577C13.6243 5.09982 13.5556 5.10886 13.3959 5.13028C13.39 5.13603 13.384 5.14152 13.3781 5.14755C13.4514 5.15385 13.5433 5.16186 13.6539 5.17242C13.7695 5.28038 13.842 5.40094 13.8341 5.52009C13.8317 5.55544 14.0523 5.60808 14.0463 5.62822C14.0121 5.75126 14.1599 5.87337 14.1413 5.9943C14.1403 6.00233 14.0297 6.03097 14.0247 6.0346C13.9738 6.07217 13.7669 6.08457 13.8712 6.12189C13.9768 6.12923 14.0825 6.13665 14.1881 6.14414C14.215 6.153 14.2419 6.1619 14.2688 6.17086C14.1442 6.19126 14.1561 6.18704 13.9771 6.19842C14.1019 6.25241 14.2136 6.23259 14.2333 6.25657C14.2587 6.29042 14.0877 6.4156 14.1452 6.44336C14.2528 6.48999 14.4245 6.51514 14.4895 6.58304C14.4526 6.58276 14.4157 6.58241 14.3788 6.582C14.0817 6.57775 14.0443 6.57388 13.9722 6.60603C13.9995 6.61559 14.0269 6.6252 14.0542 6.63484C14.1872 6.64087 14.308 6.64603 14.4438 6.65199C14.66 6.71888 14.3376 7.04222 14.2804 7.1185C14.1812 7.11177 14.0877 7.10782 13.9979 7.1062C13.9969 7.11581 13.9959 7.12511 13.9949 7.1341C13.9252 7.16633 13.7636 7.20283 13.5196 7.18385C13.406 7.15048 13.2924 7.11676 13.1789 7.08281C13.7277 7.04468 12.4419 6.53056 13.621 6.63825C13.646 6.64393 13.6711 6.64962 13.6962 6.65534C13.8752 6.69534 13.9585 6.72264 14.1709 6.7504C14.1864 6.7438 14.2018 6.73747 14.217 6.73191C13.9411 6.65139 13.5224 6.61073 13.1204 6.55942C12.773 6.43184 13.3556 6.52173 13.2579 6.44722C13.0763 6.30418 12.597 6.17519 12.8001 6.07317C12.9087 6.01656 12.8999 6.02561 12.5641 5.97921C12.5427 5.91439 12.7221 5.91514 12.8056 5.85821C12.8334 5.83945 12.509 5.7987 12.5147 5.75614C12.6927 5.74563 12.616 5.7482 12.8365 5.74872C12.849 5.74412 12.8616 5.73949 12.8741 5.73482C12.6914 5.72198 12.7892 5.7268 12.5586 5.72596C12.5663 5.72195 12.5741 5.71792 12.5818 5.71386C12.65 5.71036 12.7183 5.70673 12.7865 5.70299C12.8249 5.65915 12.2611 5.29038 12.313 5.27968C12.9775 5.05814 11.914 5.15908 12.511 4.91972C12.5497 4.90286 12.1503 4.88753 12.1828 4.8359C12.311 4.79423 12.3383 4.79177 12.5479 4.74476C12.5558 4.73765 12.5638 4.73051 12.5717 4.72334C12.3629 4.74398 12.4357 4.73583 12.2057 4.76733C12.1992 4.76392 12.1927 4.76052 12.1862 4.75713C12.2286 4.74463 12.2709 4.73201 12.3133 4.71926C12.1748 4.70755 12.1329 4.71847 12.1561 4.68296C12.3415 4.63002 12.5105 4.58697 12.5664 4.54933C12.4808 4.55532 12.3952 4.56148 12.3097 4.56855C12.3254 4.52154 12.5138 4.4462 12.4366 4.40324C12.4038 4.38333 12.2416 4.24563 12.197 4.2641C12.6988 4.05941 11.682 4.23655 12.4916 3.96609C12.4122 3.95577 12.356 3.95011 12.3074 3.93177C12.4879 3.84611 12.4906 3.85537 12.4946 3.81756C12.3402 3.84089 12.2414 3.86899 12.0218 3.92547C12.021 3.9221 12.0202 3.91873 12.0194 3.91536C12.097 3.89354 12.1746 3.87177 12.2522 3.85005C12.4363 3.74196 11.8208 3.88278 11.8592 3.78685C11.8811 3.77829 11.9031 3.76972 11.925 3.76114C11.9911 3.74669 12.0573 3.73246 12.1235 3.71842C12.2818 3.64752 12.2956 3.63233 12.3991 3.57272C12.2425 3.60964 12.2126 3.61948 12.0281 3.67233C12.0087 3.67343 11.9893 3.67456 11.9699 3.67574C12.1111 3.61896 12.2245 3.5716 12.3469 3.51713C12.3291 3.51748 12.3114 3.51786 12.2937 3.51827C11.2813 3.83302 12.0264 3.46283 11.6657 3.55466C11.6219 3.56996 11.5782 3.58528 11.5344 3.60063C11.527 3.59529 11.5196 3.58995 11.5122 3.58462C11.5593 3.56538 11.6064 3.5461 11.6535 3.52681C11.7645 3.49293 11.8756 3.45948 11.9868 3.42647C12.0097 3.41544 12.0326 3.40439 12.0554 3.39331C11.9001 3.36103 11.8003 3.31886 11.6316 3.30191C11.7561 3.23437 11.7024 3.26209 11.8742 3.18143C11.8672 3.17916 11.8603 3.1769 11.8534 3.17466C11.6678 3.24214 11.4837 3.30992 11.3005 3.37818C11.2134 3.35001 11.5617 3.14185 11.3592 3.1697C11.2692 3.18275 11.2652 3.17767 11.3146 3.12888C11.4713 3.05342 11.4664 3.05883 11.5994 2.98489C11.5892 2.98536 11.5791 2.98584 11.5689 2.98634C11.4849 3.02342 11.401 3.06063 11.3172 3.09796C11.3157 3.09397 11.3143 3.08997 11.3128 3.08598C11.3877 3.04697 11.4626 3.00788 11.5375 2.96873C11.3907 2.95025 11.1019 3.12942 11.1744 2.96587C11.1982 2.95031 11.222 2.93472 11.2457 2.9191C11.3339 2.87833 11.4221 2.83777 11.5105 2.79741C11.5373 2.75421 11.5445 2.75189 11.4416 2.77992C11.2926 2.8498 11.2562 2.86733 11.0999 2.94515C11.0542 2.93249 11.0974 2.91158 11.3732 2.74256Z" fill="black"/>
</g>
<use xlink:href="#Form%204_inner" transform="translate(19.7045 -3.12088) rotate(72)"/>
<use xlink:href="#Form%204_inner" transform="translate(28.7616 14.6548) rotate(144)"/>
<use xlink:href="#Form%204_inner" transform="translate(14.6548 28.7616) rotate(-144)"/>
<use xlink:href="#Form%204_inner" transform="translate(-3.12088 19.7045) rotate(-72)"/>
</svg>
