<svg width="24" height="24" viewBox="0 0 24 24" fill="none" xmlns="http://www.w3.org/2000/svg">
<path d="M18.4932 13.336C18.127 13.5289 17.962 13.5579 17.8555 13.6063C17.7529 13.6472 17.7143 13.6697 17.6714 13.6752C17.5937 13.685 17.4402 13.6244 16.974 13.4056C16.6028 13.2284 16.5029 13.3174 16.3873 13.3507C16.269 13.3933 16.1824 13.3437 15.8451 13.1062C15.8588 13.254 15.8548 13.2017 15.9138 13.3675C15.9013 13.3889 15.8655 13.391 15.8013 13.4347L15.1925 12.038C15.8355 12.0792 16.8859 12.184 17.1548 12.1885C17.2044 12.2386 17.254 12.2886 17.3036 12.3387C17.429 12.3235 17.973 12.2331 18.0343 12.2487C18.1593 12.28 18.2805 12.3059 18.3999 12.3276L18.4889 12.335C19.2511 12.5709 19.3867 13.2221 19.4318 13.674C19.3051 13.7632 19.3558 13.7369 19.2034 13.7596C19.2017 13.7924 19.2023 13.8196 19.2056 13.8439C19.2189 13.9484 19.2873 13.9881 19.3894 14.0878C19.3758 14.1954 19.3556 14.4122 19.2302 14.6948C19.1251 14.9647 18.766 15.3695 18.2992 15.3614C17.6681 15.3644 16.8922 15.4493 16.2585 15.4297C15.9433 15.42 15.6527 15.3849 15.4701 15.2942C15.2674 15.192 15.3442 15.0946 15.3883 15.0914C15.426 15.09 15.4636 15.0894 15.5013 15.0895C15.6097 15.0789 15.5153 14.885 15.54 14.8973C15.5604 14.8835 15.6435 14.8972 15.7331 14.8979C16.2794 14.8969 16.9969 14.8719 17.6615 14.8292C17.8561 14.8158 18.0527 14.8042 18.2525 14.8006C18.5916 14.8478 18.8391 14.3498 18.8402 13.8629C18.8504 13.4925 18.7412 13.0528 18.3852 12.9572L18.3999 12.9584C18.099 12.9356 17.798 12.9119 17.4968 12.8868C16.9653 12.8428 16.4361 12.8042 15.9027 12.7905C15.6722 12.7847 15.4244 12.8125 15.1925 12.7928L15.2484 12.9209C15.2662 12.9048 15.2845 12.8902 15.3032 12.877C15.5876 12.6826 15.8787 12.8206 16.1504 12.6159C16.2378 12.5483 16.5797 12.5451 16.9885 12.6216C17.3963 12.6836 17.8818 12.8438 18.3103 12.7065C18.6534 12.5579 18.6721 12.2343 18.6957 12.1291C18.7455 11.6138 18.5727 11.1048 18.2014 10.7417C18.092 10.6437 17.948 10.5612 17.7831 10.554C17.5714 10.5413 17.3508 10.5257 17.1393 10.5348C16.7832 10.5494 16.435 10.6374 16.0803 10.658C14.9215 10.7257 13.7607 10.7724 12.6019 10.8288L12.3436 10.8164L12.4308 10.5915C12.6015 10.0659 12.876 9.60287 13.2951 9.21523C13.2967 9.21486 13.2998 9.21418 13.3041 9.21324C13.3126 9.25178 13.4856 9.18427 13.4855 9.17189C13.617 8.87597 13.4261 8.0114 13.5956 7.73966C13.6676 7.72007 13.7396 7.70002 13.8115 7.67951C13.8099 7.64435 13.808 7.60973 13.8061 7.57524C13.6555 7.58056 13.7317 7.57484 13.5788 7.59355C13.5222 7.31739 13.5254 6.8749 13.4948 6.43705C13.4553 5.87877 13.2221 5.03596 13.1243 4.4545C13.106 4.36256 13.1192 4.33929 13.0739 4.26879C13.056 4.24422 13.0907 4.11628 13.1031 4.04599C13.0754 4.03885 13.0468 4.0339 13.0182 4.03081C12.9585 4.09081 12.8963 4.2473 12.8406 4.25142C12.485 4.29835 12.468 4.73905 12.0637 4.62305C12.056 4.62849 12.0486 4.63397 12.0415 4.63948L12.196 4.3756C12.202 4.66618 12.3089 4.9134 12.2346 5.13713C12.1224 5.18864 12.0711 5.20109 11.9513 5.23418C11.9432 5.26278 11.9351 5.29073 11.9268 5.31903C11.9699 5.38984 12.0238 5.47756 12.0868 5.58617C12.0461 6.18885 12.0807 6.76679 11.61 7.48637C11.5965 7.50297 11.5731 7.53249 11.5578 7.55157C11.444 7.6947 11.404 8.01146 11.3426 8.0866C10.9606 8.55814 10.6973 9.09895 10.3358 9.57647C10.311 9.60952 10.1541 9.69193 10.1403 9.70509C10.0005 9.83704 9.81345 9.84382 9.77886 10.0201C9.83492 10.0716 9.89096 10.1231 9.94707 10.1745C9.9417 10.2151 9.9363 10.2557 9.93089 10.2964C9.78002 10.3541 9.80133 10.339 9.63107 10.3569C9.57364 10.5914 9.71588 10.5296 9.66527 10.625C9.60088 10.7467 9.09717 11.2459 9.0783 11.3453C9.04215 11.531 9.12182 11.6318 8.99733 11.8912C8.96574 11.8901 8.93419 11.8889 8.90266 11.8877C8.64875 11.8782 8.62893 11.8597 8.4773 11.9866C8.47588 12.0231 8.47461 12.0593 8.47349 12.0953C8.57917 12.1111 8.67533 12.125 8.77948 12.1463C8.78854 12.2482 8.59064 12.5271 8.34573 12.8312L7.9994 13.2637L7.54407 13.2411C7.01515 13.2134 6.38994 13.1429 6.17779 13.1272C6.11755 13.0568 6.05583 12.9908 5.98867 12.9277C5.94835 12.9283 5.90803 12.929 5.86771 12.9297C5.6399 12.8857 5.36891 12.779 5.2002 12.6074C5.21346 12.5228 5.22673 12.4382 5.23999 12.3536C5.77785 12.6444 6.91946 12.1187 7.54407 12.2786L7.55623 12.2792L7.56548 12.2677C7.70273 12.1541 7.86185 12.102 8.05293 12.1536C8.06074 12.174 8.06798 12.1952 8.07537 12.2161C8.12881 12.365 8.14066 12.4538 8.26861 12.5381C8.29872 12.5139 8.32922 12.4893 8.36008 12.4641C8.31971 12.1736 8.041 12.0466 7.80113 11.8843C7.87545 11.3419 8.14032 11.694 8.28598 11.3645C8.55973 10.7483 8.60711 10.0893 9.12964 9.61071C9.40858 9.35556 9.3634 9.40772 9.28159 9.11071C9.49604 8.78772 9.62818 8.82406 9.87782 8.58225C9.96072 8.50214 9.88911 8.20671 10.0581 7.98354C10.2038 7.99999 10.1479 7.9836 10.2767 8.07422C10.3005 8.05702 10.3241 8.04006 10.3475 8.02335C10.286 7.88677 10.3268 7.94921 10.1959 7.84911C10.2155 7.83188 10.2349 7.81488 10.2541 7.79812C10.306 7.80996 10.3577 7.82198 10.4092 7.8342C10.4682 7.77336 10.669 7.39716 10.9331 6.94491C11.1132 6.49881 11.0949 5.52095 11.1274 5.50527C11.5209 4.93583 11.3441 4.66663 11.2957 4.32558L11.2972 4.06306L11.5574 3.87874C11.7526 3.71287 12.0171 3.5491 12.5466 3.57891C12.5937 3.58507 12.7174 3.48024 12.9641 3.41913C13.1874 3.34276 13.6979 3.42923 13.91 3.76575C14.0078 4.06815 13.9575 4.08127 13.8847 4.23725C13.8765 4.2472 13.8676 4.2579 13.8581 4.2695C13.8627 4.30996 13.8677 4.35649 13.8697 4.39323C14.0325 4.43355 13.9773 4.42786 14.1453 4.41986C14.1557 4.44849 14.1662 4.47804 14.1765 4.50852C14.1545 4.55835 14.1304 4.59934 14.1071 4.64538C14.2411 4.85026 14.2674 4.82367 14.2783 5.03435C14.163 5.19351 14.0508 5.2911 14.0272 5.45923C14.0944 5.50633 14.1617 5.55737 14.2284 5.60472C14.2432 5.8925 14.1243 6.14116 14.1972 6.49008C14.2371 6.63717 14.361 7.72361 14.3861 7.68326C14.0043 8.16222 14.6977 8.79407 13.9959 9.0815C13.9758 9.29559 14.0188 9.45861 13.7427 9.7614C13.7391 9.76575 13.7355 9.77016 13.7318 9.77461C13.5184 9.77267 13.5496 9.74212 13.4171 9.86596C13.426 10.0213 13.4807 10.0731 13.58 10.2072C13.5694 10.2202 13.5588 10.2336 13.5484 10.247C13.5068 10.2067 13.4654 10.1661 13.4244 10.1251C13.1887 10.2188 13.3122 10.6315 13.2837 10.8757L12.6019 9.92986C12.6608 9.92156 12.7299 9.91929 12.7966 9.92548C12.8047 9.94227 12.8128 9.95906 12.8209 9.97585C12.7767 10.0239 12.732 10.072 12.6866 10.1201C12.8001 10.2433 12.8608 10.256 12.9994 10.3396C13.0877 10.2252 13.0895 10.2027 13.1452 10.0658C13.1773 10.0525 13.2098 10.0391 13.2425 10.0257C13.2934 10.1343 13.3383 10.2218 13.4093 10.3172C13.4433 10.3051 13.4754 10.293 13.5086 10.281C13.7549 9.52406 14.4059 10.1147 14.6496 9.85065C14.6579 9.81756 14.6662 9.78447 14.6745 9.75138C14.7255 9.74779 14.7766 9.74421 14.8276 9.74062C14.8342 9.77698 14.8408 9.81334 14.8475 9.8497C14.7929 9.93233 14.7383 10.015 14.6838 10.0976C14.697 10.1157 14.7102 10.1338 14.7234 10.1519C15.2451 10.0565 15.7457 10.0018 16.2699 9.89568C16.3547 9.99638 16.3265 9.95337 16.3662 10.0888C16.3954 10.0849 16.4265 10.081 16.4562 10.0771C16.5281 9.93627 16.6023 9.79637 16.6765 9.65701C17.1016 9.609 17.3972 9.8858 17.7831 9.76397C17.8038 9.76171 17.8246 9.7598 17.8456 9.75822C18.3669 9.75003 18.511 9.87607 18.7385 10.1122C18.6533 10.2033 18.639 10.1816 18.6399 10.3309C18.6772 10.3574 18.7141 10.3867 18.7472 10.4143C18.8203 10.3983 18.8953 10.3862 18.971 10.3769C19.0015 10.4169 19.0303 10.4579 19.0566 10.4981C19.0191 10.5506 18.9801 10.6016 18.9398 10.6511C19.1779 10.9728 19.273 11.0633 19.3823 11.2098C19.4739 11.3627 19.6084 11.5426 19.5221 12.1816C19.4989 12.212 19.4752 12.2404 19.4504 12.2705C19.3901 12.2029 19.3262 12.1433 19.2603 12.0893C19.2027 12.339 19.2101 12.3067 19.1931 12.5971C19.2615 12.7427 19.2749 12.7796 19.3391 12.9214C19.051 13.4118 18.8406 13.4343 18.5791 13.3786C18.5525 13.3665 18.524 13.3525 18.4932 13.336Z" fill="black"/>
<path d="M13.6708 20.7088C13.083 20.9958 13.5442 21.0546 12.8557 20.7729C12.2887 20.5399 12.5162 21.1537 11.8159 20.4963C11.7615 20.6389 11.7797 20.5884 11.7649 20.7642C11.6869 20.7913 11.185 20.7217 10.7331 20.6569L10.5219 20.6215C10.2332 20.4902 9.96632 20.3681 9.86288 20.3324C9.84446 20.274 9.82605 20.2157 9.80763 20.1573C9.71816 20.1447 9.32251 20.1138 9.28575 20.0856C8.97604 19.8516 8.68182 19.719 8.33439 19.5787C8.3341 19.436 8.32842 19.4906 8.37044 19.3423C8.27128 19.2846 8.2247 19.3478 8.1185 19.4516C8.07937 19.4351 8.01476 19.4081 7.93056 19.3725L8.05123 19.3888C7.30434 19.35 5.12972 19.2203 4.94955 18.965C4.94663 18.9274 4.94371 18.8898 4.94078 18.8523C5.06738 18.6828 5.23767 18.6716 5.40339 18.6611C5.8744 18.6305 6.36201 18.7279 6.83404 18.7555C7.23262 18.7789 7.63065 18.8006 8.02859 18.8229L8.10226 18.8329C8.68382 19.0816 9.26459 19.3318 9.84308 19.5933C10.1365 19.7258 10.43 19.8543 10.7297 19.9682L10.7495 19.9715C10.8063 19.976 10.8645 19.9801 10.9229 19.9836C11.1034 19.9941 11.3018 19.9639 11.4798 20.0022C11.7205 20.0535 11.9547 20.2553 12.178 20.0626C12.3668 19.8997 13.844 20.0782 14.1459 20.091C14.3294 20.0993 14.5132 20.0925 14.6969 20.0848L14.7069 20.0845C14.8584 20.0629 15.0106 20.0445 15.1632 20.0378C15.4094 20.0269 15.6574 20.0783 15.9023 20.071C16.1521 20.0636 16.4048 19.9894 16.6574 19.9826C16.8901 19.9761 17.1226 19.9708 17.3542 19.9606C17.4552 19.9541 17.5574 19.9475 17.6594 19.9406C18.4917 19.882 18.7114 18.7549 18.4052 18.1598C18.4139 18.1498 18.4698 17.9766 18.4645 17.973C18.4007 17.8782 18.2236 17.7846 18.0803 17.7875L18.1865 17.7963C17.9859 17.8624 17.7891 17.9032 17.6786 17.8328C17.6541 17.7636 17.6296 17.6945 17.6051 17.6253C17.581 17.6305 17.5568 17.6357 17.5326 17.6409C17.5568 17.7896 17.5423 17.7147 17.5766 17.8644C17.3859 17.9479 17.0673 17.9745 16.7543 18.0155C16.2746 18.0786 15.5559 18.3938 15.042 18.2991L15.0334 17.6998C15.0297 17.7086 15.0439 17.7195 15.0611 17.7296C15.0868 17.7449 15.1005 17.8773 15.1127 17.9474C15.1354 17.9448 15.1538 17.9421 15.1765 17.9384C15.2017 17.8672 15.2276 17.7035 15.2772 17.6957C15.5548 17.6478 15.6108 17.233 15.9288 17.4613C16.1278 17.3909 16.2541 17.2082 16.429 17.2141C16.4994 17.3046 16.525 17.349 16.5863 17.4516C16.6073 17.4508 16.6284 17.45 16.6495 17.4492C16.6806 17.3875 16.7189 17.3104 16.7669 17.2177C17.1708 17.0374 17.617 16.8896 18.0864 16.848C18.0929 16.8475 18.0996 16.8466 18.1064 16.8454C18.1986 16.8259 18.2302 16.6598 18.2426 16.6564C18.3815 16.6145 18.3707 16.3975 18.356 16.1949C18.3559 16.1822 18.4231 16.1125 18.4239 16.1036C18.4435 16.0312 18.5593 15.9232 18.4606 15.8994C18.3928 15.933 18.3255 15.9678 18.259 16.0037C18.2379 16.0063 18.2176 16.0108 18.1983 16.0171C18.2567 15.9478 18.2551 15.9583 18.3309 15.8529C18.2329 15.8856 18.2043 15.9672 18.1876 15.9726C18.1766 15.9796 18.2032 15.9535 18.1869 15.9278L18.2474 15.9328C18.1256 15.9112 18.017 15.8959 17.9879 15.9134C17.8633 15.9882 17.8335 16.1108 17.6302 16.1541C17.6188 16.1274 17.6074 16.1006 17.596 16.0739C17.503 15.8588 17.5087 15.8321 17.3729 15.7782C17.3509 15.7976 17.329 15.8169 17.307 15.8363C17.3382 15.9324 17.3655 16.0197 17.3937 16.1177C17.2584 16.2699 16.1125 16.0298 15.8511 15.9919C15.8111 15.9198 15.77 15.8521 15.7248 15.7872C15.6962 15.7867 15.6675 15.7862 15.6389 15.7857C15.4789 15.7353 15.2909 15.621 15.178 15.4448C15.1908 15.3606 15.2036 15.2765 15.2164 15.1923C15.6901 15.5837 16.9192 14.6669 17.1102 15.5215C17.1006 15.5394 17.091 15.5573 17.0815 15.5753C17.0141 15.7032 16.9639 15.7629 16.9627 15.916C16.9893 15.9273 17.0159 15.9387 17.0426 15.95C17.2008 15.7533 17.1703 15.4515 17.1754 15.162C17.5282 14.9183 17.4185 15.3352 17.6721 15.27C17.8839 15.2158 18.0835 15.1193 18.283 15.0436L18.2973 15.0448C18.5995 14.9645 19.0064 15.1477 19.1087 15.4904C19.1934 15.8156 19.1501 15.7359 19.4361 15.8472C19.524 16.2076 19.3872 16.2686 19.2893 16.5488C19.2513 16.633 19.4428 16.8817 19.2763 17.1443C19.129 17.1369 19.1862 17.1484 19.0551 17.0615C19.0335 17.0767 19.0115 17.0911 18.9892 17.1046C19.0475 17.2392 19.0078 17.1767 19.1312 17.2863C19.1098 17.3025 19.0879 17.3182 19.0658 17.3329C19.0154 17.3148 18.9662 17.2946 18.9185 17.2724C18.8703 17.3091 18.6115 17.5958 18.1909 17.6913C17.6998 17.8434 17.0855 18.1551 17.0437 18.1389C16.2308 17.8443 16.4452 18.5941 15.5513 18.3662C15.5268 18.3595 15.4723 18.4174 15.3862 18.4877C15.2879 18.5539 15.223 18.6534 14.9269 18.6581L14.9079 17.3443C14.9427 17.331 14.9774 17.3229 15.0112 17.3227C15.1246 17.4025 15.1234 17.4224 15.2118 17.5645C15.238 17.5673 15.2642 17.5701 15.2904 17.5728C15.3179 17.4178 15.3125 17.4714 15.307 17.3048C15.3261 17.2978 15.3453 17.2908 15.3645 17.2839C15.3951 17.3112 15.4258 17.3385 15.4564 17.3658C15.5915 17.2495 15.5723 17.2211 15.7149 17.2218C15.829 17.344 15.9023 17.4592 16.0216 17.4869C16.0515 17.4211 16.0814 17.3553 16.1113 17.2896C16.3099 17.279 16.4931 17.3969 16.73 17.3153C16.8319 17.2802 17.5614 17.0854 17.5265 17.0562C17.7408 17.2356 17.9121 17.0888 18.0757 17.008L18.3195 17.0283C18.5844 17.0546 18.8299 17.2509 18.7203 17.5541C18.8792 17.659 18.9758 17.755 19.0707 17.9136C18.9995 18.138 18.9813 18.0771 19.01 18.2543C19.1374 18.3398 19.2094 18.3387 19.3763 18.3719C19.3784 18.3932 19.3802 18.4146 19.3817 18.4355C19.3237 18.4316 19.2657 18.4284 19.2077 18.4257C19.0755 18.6841 19.5395 18.9862 19.3136 19.5071C19.295 19.5091 19.2763 19.5109 19.2577 19.5125C19.2289 19.4534 19.1978 19.3968 19.1646 19.3427C19.0153 19.4018 18.9854 19.4467 18.8583 19.5214C18.9277 19.6397 18.9455 19.6529 19.0382 19.7679C19.0339 19.8026 19.0284 19.8377 19.0215 19.8734C18.9016 19.8593 18.8043 19.8466 18.6898 19.8389C18.6808 19.8701 18.6709 19.9011 18.6593 19.9326C18.8724 20.2675 18.6701 20.5243 18.3928 20.6289C18.1107 20.742 17.8278 20.69 17.682 20.822C17.6748 20.8456 17.6672 20.8692 17.6594 20.8927C17.6577 20.9023 17.6559 20.9118 17.6541 20.9214C17.6167 20.925 17.5796 20.9285 17.5425 20.932C17.5379 20.8956 17.5332 20.8592 17.5285 20.8228C17.5683 20.7404 17.608 20.6578 17.6475 20.5752C17.6379 20.5571 17.6284 20.539 17.6189 20.5209C17.5278 20.5439 17.4379 20.5641 17.3486 20.5832L17.3374 20.583C17.048 20.6366 16.7657 20.6713 16.4821 20.7365C16.4278 20.6327 16.4453 20.6767 16.4243 20.54C16.4032 20.5428 16.382 20.5456 16.361 20.5484C16.3031 20.6864 16.2453 20.8236 16.1878 20.9605C15.8935 20.9959 15.7011 20.7024 15.4396 20.8434C15.3243 20.9066 15.2957 20.9084 15.1972 20.8645C15.1937 20.7403 15.2048 20.7448 15.1647 20.6376C15.1482 20.6449 15.1317 20.6522 15.1152 20.6596C15.1037 20.7256 15.0929 20.7917 15.0823 20.8578C15.0642 20.8583 15.0461 20.8588 15.028 20.8595C15.0161 20.7997 15.0042 20.7399 14.992 20.6801C14.875 20.7168 14.8154 20.7698 14.7666 20.8201L14.6832 20.8227C14.5712 20.9098 14.5033 20.9911 14.148 20.9186C14.1353 20.8981 14.1226 20.8777 14.1098 20.8572C14.1346 20.7884 14.1595 20.7196 14.1843 20.6508C14.0679 20.6172 14.0759 20.6121 13.9676 20.6843C13.9273 20.8009 13.9186 20.8296 13.8915 20.9537C13.734 20.9751 13.7416 20.941 13.6708 20.7088Z" fill="black"/>
</svg>
