<svg width="24" height="24" viewBox="0 0 24 24" fill="none" xmlns="http://www.w3.org/2000/svg">
<path d="M12.4094 8.56606C13.1038 8.2775 12.5958 8.22157 13.33 8.45908C13.4037 8.46749 13.4793 8.48233 13.5568 8.50536C14.0237 8.66401 14.1601 8.85833 14.2918 8.95265C14.4144 9.05668 14.4978 9.11389 14.5752 9.18936C14.714 9.32958 14.8776 9.59471 14.6719 10.2254C14.8272 10.2848 14.7723 10.2665 14.9493 10.2597C14.968 10.3177 14.9986 10.5077 14.9632 10.8077C14.9429 10.9585 14.9095 11.1399 14.8035 11.363C14.704 11.5768 14.4747 11.8808 14.1133 12.009C13.4728 12.1983 12.9762 12.1709 12.7946 12.1975C12.7427 12.1533 12.6916 12.1086 12.641 12.0638C12.5284 12.0934 12.0432 12.2233 11.9872 12.21C11.5513 12.1198 11.1729 12.0916 10.7648 12.0859L10.7228 11.2226C10.7564 11.2235 10.7903 11.2244 10.8246 11.2252C10.8836 11.3589 10.8677 11.3057 10.8797 11.4594C11.0189 11.479 11.0472 11.4035 11.1282 11.2693C11.4293 11.2795 12.8579 11.3257 13.9429 11.4291L13.9636 11.4304C14.3494 11.5486 14.4435 11.905 14.4596 12.1114C14.4744 12.3326 14.4223 12.479 14.3712 12.521C14.3337 12.5247 14.2962 12.5282 14.2587 12.5317C14.0881 12.4027 14.0561 12.2605 14.0025 12.1548C13.9397 12.0366 13.9102 12.0044 13.8729 11.9742L13.9641 11.98C13.6 11.9585 13.2343 11.9172 12.8755 11.9023C12.1647 11.8728 11.4553 11.8469 10.7457 11.8174L10.7298 11.4917C11.2948 11.5069 11.8511 11.536 12.414 11.5357C12.8812 11.532 13.3519 11.5213 13.8152 11.3718C13.8279 11.3674 13.8405 11.3628 13.8529 11.3579C14.1125 11.2506 14.1612 10.9626 14.2129 10.756C14.2889 10.4571 14.4073 10.0591 14.1079 9.8536C14.0537 9.81928 13.9858 9.70782 13.8734 9.57253C13.7636 9.44309 13.5875 9.26369 13.33 9.2583C12.7404 9.24717 12.0495 9.19716 11.8384 9.19298C11.4201 9.18417 11.0038 9.22668 10.5863 9.2301C10.2802 9.23254 9.97059 9.18219 9.66548 9.19686C9.35406 9.21153 9.04837 9.29954 8.73607 9.32008C8.54012 9.33315 8.34487 9.34544 8.14879 9.35716L8.08182 9.35349L8.10461 9.29587C8.2578 8.79867 8.53009 8.3381 8.93104 7.97537C9.23727 7.47569 9.13673 6.59457 9.08086 5.88306C9.09002 5.8688 9.20871 5.67013 9.20783 5.66715C9.1767 5.35846 8.88517 4.62956 9.02591 4.3674C9.09535 4.34174 9.16476 4.31597 9.23413 4.29008C9.22885 4.25975 9.22345 4.22914 9.21805 4.19911C9.069 4.22105 9.14414 4.20722 8.99409 4.24132C8.90887 4.00579 8.87803 3.61598 8.80276 3.25159C8.79121 3.19712 8.77588 3.14015 8.75874 3.09159C8.71419 2.76298 8.02539 3.12449 7.58305 3.29324L7.73301 3.03716C7.71559 3.10581 7.69342 3.1742 7.66678 3.23352C7.64602 3.28166 7.51333 3.26581 7.44211 3.26723C7.44017 3.29406 7.43801 3.32242 7.43587 3.34949C7.49841 3.39968 7.64679 3.49189 7.63716 3.55967C7.58562 3.92352 7.93513 4.18627 7.5839 4.45252C7.55438 4.71844 7.64923 4.96306 7.5458 5.16438C7.42894 5.19493 7.37688 5.1979 7.2547 5.2088C7.24325 5.23297 7.23193 5.25594 7.22 5.28022C7.25309 5.35085 7.29422 5.43865 7.33607 5.5536C7.29535 5.72626 7.25083 5.90494 7.11214 6.11273C6.92598 6.41569 6.71048 6.74737 6.48513 7.04277C6.38654 7.17232 6.36474 7.46711 6.31312 7.5301C5.97459 7.94866 5.75724 8.42758 5.43875 8.84762C5.41675 8.87697 5.27143 8.94376 5.25912 8.95486C5.13279 9.06869 4.95421 9.06406 4.93166 9.224C4.98841 9.27456 5.04516 9.32512 5.10191 9.37568C5.09915 9.41273 5.09637 9.44982 5.09353 9.48699C4.95241 9.53152 4.97196 9.51875 4.81011 9.52528C4.76861 9.7381 4.90135 9.68922 4.85857 9.77397C4.80376 9.8827 4.3512 10.3121 4.33871 10.4027C4.3153 10.5709 4.39716 10.6688 4.29335 10.8998C4.263 10.897 4.23268 10.8941 4.20241 10.8912C3.95871 10.8677 3.93856 10.8496 3.80082 10.9575C3.80248 10.9897 3.8025 11.0242 3.8036 11.0571C3.90625 11.0771 3.99829 11.0967 4.09953 11.1219C4.11133 11.1865 4.02645 11.3304 3.90146 11.4997L3.54404 11.9398L3.09095 11.9141C2.59649 11.909 1.83154 11.8084 1.60473 11.7893C1.55188 11.7189 1.49774 11.6529 1.43882 11.5898C1.40344 11.5905 1.36807 11.5911 1.3327 11.5918C1.13283 11.5478 0.89509 11.4411 0.74707 11.2695C0.758708 11.1849 0.770346 11.1003 0.781983 11.0157C1.35883 11.3711 2.72724 10.5065 3.09095 11.1658L3.20491 11.1722L3.29481 11.0615C3.32957 11.0663 3.3659 11.0746 3.40385 11.0868C3.41237 11.1063 3.42094 11.1256 3.42955 11.1449C3.43273 11.1519 3.43579 11.1588 3.43877 11.1655L3.28538 11.3544L3.09095 11.3433C3.01989 11.4609 2.96703 11.5238 2.97279 11.669C3.00621 11.6793 3.03964 11.6896 3.07306 11.6998C3.07929 11.693 3.08525 11.6861 3.09095 11.6791L3.43754 11.6987L3.71095 11.3621C3.64123 11.1131 3.3789 10.9813 3.14711 10.8244C3.18693 10.3294 3.4613 10.6684 3.5811 10.3744C3.80682 9.82393 3.81372 9.22033 4.28576 8.81016C4.53764 8.59163 4.4973 8.63723 4.40156 8.35901C4.58791 8.0738 4.71567 8.11604 4.94052 7.90719C5.01492 7.83834 4.92901 7.56193 5.07649 7.36674C5.21655 7.39054 5.16234 7.37192 5.29111 7.46256C5.31287 7.44797 5.33457 7.43347 5.35621 7.41905C5.28924 7.28947 5.33159 7.35001 5.20026 7.25042C5.21757 7.23614 5.23483 7.22193 5.25204 7.2078C5.30245 7.22144 5.35298 7.23491 5.40338 7.24856C5.49754 7.15369 6.00802 6.0975 6.34972 5.50279C6.36405 5.43161 6.40498 5.27198 6.417 5.26862C7.11418 4.66138 6.35691 4.45843 6.91143 3.62785C6.94543 3.57533 6.72161 3.22057 6.7385 2.98191L6.73816 2.67589L7.04829 2.45291C7.05964 2.44591 7.07126 2.43938 7.0831 2.43336C7.26478 2.43422 7.26815 2.45676 7.42515 2.54577C7.4596 2.5348 7.49417 2.52438 7.52897 2.51446C7.52562 2.34989 7.53246 2.40487 7.4862 2.24348C7.51174 2.22703 7.53748 2.21091 7.5639 2.19492C7.61326 2.20771 7.66249 2.22133 7.711 2.23605C7.89316 2.06745 7.86525 2.0413 8.10709 2.00627C8.3032 2.10952 8.40665 2.21713 8.60976 2.27873C8.68761 2.22617 8.78193 2.1818 8.89479 2.15748C9.22586 2.27942 9.40607 2.64364 9.43624 2.89802C9.44916 2.99565 9.46744 3.0997 9.50336 3.19746C9.56279 3.33474 9.78069 4.26592 9.80512 4.22609C9.47474 4.69565 10.2418 5.08721 9.65101 5.43293C9.71272 5.59454 9.75534 5.70547 9.79041 5.87369C9.65441 6.05807 9.65336 6.00057 9.64546 6.18818C9.75678 6.29845 9.82984 6.30591 9.99158 6.35563C9.99135 6.37577 9.99107 6.39585 9.99074 6.41588C9.93327 6.40742 9.87579 6.39905 9.81831 6.3908C9.6645 6.66119 10.1212 6.94172 9.99901 7.48348C9.98109 7.48959 9.96316 7.49558 9.94522 7.50145C9.90537 7.44586 9.86368 7.39727 9.82169 7.34722C9.68522 7.43731 9.66435 7.49542 9.5548 7.61378C9.6479 7.72376 9.66956 7.7282 9.78533 7.82648C9.78845 7.86614 9.79076 7.90569 9.79171 7.9462C9.66734 7.97655 9.56907 7.99281 9.44564 8.03297C9.43863 8.0759 9.43312 8.113 9.41656 8.16287C9.49642 8.28446 9.51655 8.42974 9.42115 8.58802C9.47746 8.90105 9.01614 8.90123 9.11697 9.15018C9.14176 9.17279 9.16669 9.19521 9.19176 9.21743C9.17737 9.24666 9.16356 9.27622 9.1504 9.306C9.11685 9.29135 9.08323 9.27685 9.04954 9.26251C8.99602 9.18979 8.94469 9.11483 8.89629 9.03686C8.87595 9.03516 8.85532 9.03403 8.83479 9.03282C8.78201 9.19746 8.73058 9.38 8.72524 9.50275L8.14879 8.70296C8.3969 8.65991 8.64683 8.61679 8.90236 8.55778C8.97709 8.65849 8.95249 8.61548 8.98799 8.75092C9.01378 8.74702 9.03974 8.74311 9.06585 8.7392C9.12935 8.59838 9.19421 8.45848 9.25923 8.31912C9.6387 8.27022 9.90227 8.55826 10.2502 8.4189C10.4063 8.3568 10.447 8.35579 10.5782 8.40273C10.5774 8.52693 10.5628 8.52208 10.6115 8.63063C10.6338 8.62395 10.656 8.61726 10.6783 8.61057C10.6969 8.54505 10.7155 8.47952 10.734 8.414C10.7585 8.41432 10.783 8.41464 10.8077 8.41495C10.8196 8.47528 10.8315 8.5356 10.8434 8.59593C11.3062 8.50791 11.1477 8.26585 11.8161 8.3656C11.8323 8.38581 11.8485 8.40602 11.8646 8.42623C11.8358 8.49551 11.8067 8.56479 11.7773 8.63407C11.9226 8.66537 11.9118 8.6707 12.0442 8.59637C12.0908 8.47903 12.1002 8.45017 12.1314 8.32549C12.3244 8.30104 12.3182 8.33528 12.4094 8.56606ZM13.7652 13.0094C13.664 12.7283 13.6324 12.6864 13.7162 12.9426C13.8255 13.1322 13.4541 12.6525 13.8534 13.154C13.7584 13.0461 13.7919 13.0844 13.6735 12.9541C13.6236 12.9349 13.7873 13.0573 13.8108 13.0285C13.8559 13.0503 13.9014 13.0713 13.9473 13.0915C13.9378 13.0773 13.8676 13.013 13.8829 13.0165C14.0134 13.0389 14.0617 13.0137 14.1002 12.9798C14.2328 13.01 14.1806 12.9972 14.3296 13.0361C14.3578 13.0269 14.2867 13.0043 14.1614 12.965C14.2159 12.9448 14.4817 12.5768 14.7626 12.5062C14.8002 12.504 14.8378 12.5018 14.8754 12.4996C15.0408 12.5162 15.0465 12.5527 15.0509 12.5858C15.064 12.6828 14.9429 12.7765 14.8873 12.8604C14.7662 13.0454 14.6298 13.2163 14.4457 13.3202C14.3785 13.358 14.3155 13.3874 14.2708 13.4238C14.25 13.4409 14.2567 13.4866 14.2133 13.4824C14.1516 13.4796 14.0111 13.3412 14.1108 13.5134C14.1919 13.6745 13.9053 13.6427 13.8742 13.6267C13.8533 13.6265 13.8351 13.6345 13.8145 13.6442C13.7842 13.6574 13.7541 13.6746 13.7228 13.6789C13.6825 13.6844 13.6385 13.637 13.5993 13.6544C13.5594 13.6717 13.5244 13.7621 13.4842 13.785C13.296 13.8935 13.1023 13.955 12.9085 14.0616C12.9062 14.0524 12.8768 13.9269 12.8765 13.9274C12.8362 13.95 12.7374 14.1827 12.7012 14.0105C12.6977 13.9387 12.6942 13.8669 12.6907 13.795C12.6867 13.7969 12.6827 13.7987 12.6786 13.8006C12.6813 13.9511 12.6796 13.8749 12.684 14.0279C12.6513 14.0846 12.5984 14.0672 12.5457 14.0647C12.4619 14.0611 12.3253 14.2974 12.2447 14.0775C12.2384 14.0603 12.2396 13.9269 12.2391 13.856C12.2354 13.8561 12.2317 13.8562 12.2281 13.8563C12.2217 13.9228 12.2105 14.0787 12.2015 14.0758C12.153 14.0608 12.1219 14.4419 12.0836 14.1373C12.0486 14.1516 12.0186 14.2935 11.9916 14.2423C11.9858 14.1366 11.9844 14.0871 11.9807 13.9721C11.9774 13.9675 11.9741 13.9629 11.9708 13.9583C11.9625 14.01 11.9523 14.0749 11.9398 14.1529C11.8671 14.2285 11.7911 14.2744 11.7196 14.2648C11.6972 14.2618 11.6593 14.4177 11.6482 14.413C11.5759 14.3856 11.5016 14.4899 11.4306 14.4771C11.4257 14.4764 11.4091 14.3975 11.4071 14.394C11.3855 14.358 11.3776 14.2104 11.3556 14.2854C11.3516 14.3609 11.3476 14.4364 11.3436 14.512C11.3385 14.5313 11.3335 14.5507 11.3283 14.5701C11.3153 14.4814 11.3179 14.4899 11.3093 14.3623C11.2788 14.4525 11.2915 14.5318 11.278 14.5464C11.2614 14.5654 11.1812 14.4473 11.169 14.4897C11.1446 14.5683 11.1339 14.6917 11.0971 14.7413C11.0963 14.715 11.0955 14.6887 11.0947 14.6624C11.0882 14.4505 11.0905 14.4237 11.0693 14.3742C11.0647 14.3942 11.06 14.4141 11.0553 14.4341C11.0563 14.5292 11.0572 14.6154 11.0578 14.7124C11.0273 14.8687 10.8388 14.6635 10.7947 14.6328C10.7923 14.5621 10.7884 14.4956 10.7845 14.4321C10.7794 14.4325 10.7744 14.4328 10.7694 14.4331C10.7458 14.3873 10.7178 14.2784 10.7121 14.1058C10.7202 14.0216 10.7281 13.9373 10.7361 13.8531C10.7928 14.231 11.0468 13.2793 11.0367 14.1261C11.0343 14.1443 11.0318 14.1624 11.0294 14.1806C11.0121 14.3104 11.0001 14.3714 10.9926 14.5243C10.9967 14.5348 11.0009 14.5453 11.005 14.5559C11.0411 14.3546 11.0499 14.0544 11.0645 13.7652C11.1335 13.5109 11.0978 13.9305 11.1421 13.8574C11.2274 13.7216 11.3051 13.376 11.3799 13.5199C11.4191 13.5968 11.4118 13.5907 11.4429 13.3506C11.4886 13.3352 11.4882 13.4634 11.5261 13.5234C11.5389 13.5434 11.5689 13.312 11.6004 13.3169C11.6047 13.4442 11.6042 13.3894 11.5997 13.5468C11.6027 13.5558 11.6056 13.5649 11.6086 13.5739C11.6211 13.4437 11.6159 13.5135 11.6212 13.3488C11.6239 13.3544 11.6266 13.36 11.6293 13.3656C11.6303 13.4144 11.6313 13.4632 11.6324 13.512C11.6552 13.5385 11.9402 13.1528 11.9485 13.1921C12.0581 13.6794 12.0675 12.9162 12.1873 13.3607C12.1948 13.3896 12.2447 13.1083 12.2782 13.1368C12.294 13.2317 12.2934 13.2513 12.3039 13.4043C12.3081 13.4107 12.3122 13.4171 12.3163 13.4234C12.3244 13.2738 12.3223 13.3261 12.3253 13.1603C12.3285 13.1561 12.3317 13.1519 12.3349 13.1477C12.3391 13.179 12.3434 13.2102 12.3476 13.2415C12.3718 13.1452 12.3691 13.1144 12.3916 13.1349C12.4071 13.2718 12.4166 13.396 12.4352 13.4399C12.4413 13.379 12.4473 13.318 12.4533 13.257C12.4851 13.274 12.5124 13.4161 12.5518 13.3678C12.569 13.3472 12.6877 13.2543 12.6824 13.2205C12.7441 13.602 12.7867 12.8662 12.8382 13.4739C12.8582 13.4206 12.8715 13.3827 12.8922 13.3523C12.9186 13.4925 12.9117 13.4927 12.9357 13.5023C12.9469 13.3915 12.9457 13.3181 12.9471 13.1562C12.9496 13.1563 12.952 13.1563 12.9545 13.1564C12.9552 13.214 12.9558 13.2715 12.9565 13.3291C12.9951 13.4762 13.0154 13.0255 13.0757 13.0708C13.0772 13.0876 13.0787 13.1043 13.0802 13.1211C13.0769 13.1693 13.0736 13.2175 13.0702 13.2658C13.0872 13.3885 13.0945 13.4009 13.1136 13.4839C13.1194 13.3692 13.1188 13.3467 13.12 13.2097C13.1231 13.1962 13.1262 13.1827 13.1294 13.1692C13.1392 13.2774 13.1479 13.3647 13.1596 13.4597C13.1629 13.4475 13.1663 13.4353 13.1696 13.4231C13.1666 12.6657 13.2636 13.2526 13.279 12.9875C13.2783 12.9544 13.2776 12.9213 13.2769 12.8882C13.2824 12.8843 13.2878 12.8805 13.2933 12.8766C13.2958 12.9129 13.2983 12.9492 13.3008 12.9855C13.2989 13.0683 13.2968 13.1511 13.2946 13.234C13.297 13.252 13.2993 13.27 13.3017 13.2879C13.3559 13.1899 13.4091 13.1322 13.4607 13.0228C13.4761 13.1228 13.4704 13.08 13.4831 13.2149C13.4862 13.2108 13.4893 13.2067 13.4924 13.2026C13.4919 13.0616 13.4913 12.9214 13.4906 12.7818C13.5338 12.7301 13.5865 13.0152 13.6199 12.8731C13.6347 12.8098 13.6394 12.8084 13.6592 12.854C13.6685 12.9778 13.6663 12.9731 13.6806 13.0809C13.6829 13.074 13.6852 13.0671 13.6875 13.0603C13.6848 12.9947 13.6821 12.9292 13.6793 12.8637C13.6824 12.8638 13.6854 12.8639 13.6885 12.864C13.6946 12.924 13.7008 12.984 13.707 13.044C13.7364 12.9909 13.7355 12.8891 13.7466 12.8298C13.742 12.787 13.7348 12.7682 13.7327 12.8115C13.7356 12.8315 13.7386 12.8515 13.7418 12.8714C13.7547 12.9395 13.7665 13.0078 13.7772 13.0763C13.7845 13.1068 13.7872 13.1117 13.773 13.0387C13.7485 12.9239 13.7418 12.8959 13.7129 12.7745C13.6986 12.7528 13.704 12.7869 13.7652 13.0094ZM15.6383 12.1483C15.5485 11.8622 15.5062 11.8264 15.6405 12.0598C15.7579 12.2493 15.4865 11.7043 15.7961 12.2679C15.7361 12.1372 15.7573 12.1835 15.6811 12.0248C15.6631 11.9796 15.8192 12.1265 15.838 12.1231C15.8638 12.166 15.8897 12.2089 15.9158 12.2517C15.9137 12.2356 15.8903 12.1451 15.9001 12.1575C15.9828 12.259 16.0211 12.2798 16.0566 12.2917C16.1285 12.4071 16.1004 12.3612 16.1794 12.4935C16.199 12.5108 16.1625 12.446 16.0992 12.3312C16.1384 12.3495 16.427 12.4456 16.6068 12.6785C16.6278 12.7097 16.6489 12.741 16.6699 12.7722C16.7524 12.9147 16.7429 12.9262 16.7338 12.937C16.7079 12.9681 16.6117 12.8913 16.5547 12.8723C16.4317 12.8298 16.3143 12.7952 16.1887 12.7272C16.1418 12.7028 16.1003 12.6812 16.069 12.682C16.0543 12.6824 16.057 12.72 16.0302 12.6951C15.9938 12.6618 15.8948 12.4912 15.9654 12.6764C16.0241 12.8343 15.8634 12.7425 15.8427 12.7415C15.8179 12.7416 15.8098 12.7896 15.7879 12.8004C15.7719 12.8082 15.7403 12.7652 15.7283 12.7839C15.7161 12.8026 15.7215 12.8923 15.7071 12.9168C15.6417 13.0323 15.5502 13.1003 15.4346 13.1991C15.4333 13.1898 15.423 13.0633 15.4232 13.0638C15.4051 13.0851 15.3208 13.3094 15.3218 13.1351C15.3296 13.0636 15.3378 12.9922 15.3462 12.9208C15.3441 12.9223 15.3421 12.9239 15.34 12.9254C15.3195 13.0746 15.3296 12.999 15.3098 13.1508C15.2833 13.2039 15.2544 13.1809 15.2257 13.1719C15.1848 13.1598 15.0301 13.3609 15.0566 13.1367C15.0589 13.1193 15.1045 12.9939 15.1281 12.9271C15.1264 12.9266 15.1247 12.9261 15.123 12.9257C15.0977 12.9872 15.0381 13.1315 15.0342 13.1269C15.0163 13.1045 14.8531 13.4497 14.9488 13.1599C14.9247 13.1655 14.8506 13.288 14.8567 13.2347C14.8977 13.1373 14.9178 13.0921 14.9646 12.9871C14.965 12.9823 14.9654 12.9774 14.9658 12.9726C14.9399 13.0176 14.9072 13.074 14.8668 13.1413C14.7971 13.1926 14.7338 13.2125 14.7021 13.1852C14.6926 13.1769 14.5955 13.3017 14.5915 13.2942C14.5682 13.2506 14.475 13.3175 14.4456 13.2855C14.4434 13.2834 14.478 13.2124 14.479 13.2089C14.4878 13.1724 14.5652 13.047 14.5134 13.1033C14.4699 13.1652 14.4263 13.227 14.3827 13.2888C14.3695 13.3034 14.3563 13.318 14.343 13.3326C14.3858 13.2551 14.3824 13.2629 14.4494 13.1546C14.3846 13.2208 14.3462 13.29 14.3315 13.2981C14.3121 13.3085 14.3403 13.1876 14.3106 13.219C14.2542 13.2763 14.1783 13.3742 14.1315 13.4032C14.1463 13.3815 14.1611 13.3598 14.1759 13.3381C14.2955 13.1637 14.3123 13.1427 14.3317 13.0966C14.3179 13.1115 14.3041 13.1264 14.2903 13.1412C14.2351 13.2185 14.1852 13.2887 14.129 13.3676C14.0219 13.4843 14.0534 13.262 14.0545 13.2272C14.096 13.1702 14.1348 13.1166 14.1716 13.0652C14.1692 13.0641 14.1669 13.063 14.1645 13.0619C14.1816 13.019 14.2368 12.9262 14.3393 12.7882C14.3941 12.7238 14.4489 12.6593 14.5037 12.5949C14.2998 12.9097 14.9703 12.21 14.463 12.8872C14.4512 12.9012 14.4394 12.9152 14.4277 12.9292C14.3436 13.0292 14.3023 13.0752 14.2086 13.1962C14.2043 13.2058 14.1999 13.2155 14.1956 13.2251C14.3307 13.0731 14.5107 12.8327 14.6874 12.6034C14.8645 12.4146 14.6033 12.7447 14.6645 12.6966C14.7784 12.6072 15.0033 12.3397 14.9479 12.4727C14.9194 12.5446 14.9211 12.5386 15.0635 12.3439C15.0868 12.339 15.0171 12.4465 14.9983 12.5043C14.9923 12.5238 15.1254 12.3333 15.1323 12.3422C15.0673 12.4515 15.0957 12.4047 15.0123 12.5382C15.0087 12.5465 15.005 12.5548 15.0014 12.5631C15.0732 12.454 15.0352 12.5127 15.1222 12.3728C15.1202 12.378 15.1181 12.3832 15.1161 12.3885C15.0912 12.4304 15.0664 12.4724 15.0417 12.5144C15.0424 12.5456 15.313 12.2472 15.2897 12.2786C15.1143 12.7328 15.4242 12.0357 15.2818 12.4562C15.2748 12.4844 15.3836 12.2245 15.3779 12.2524C15.3501 12.3432 15.3437 12.3617 15.2984 12.5079C15.2975 12.5143 15.2967 12.5207 15.2959 12.5271C15.3439 12.3854 15.3273 12.435 15.3783 12.2772C15.3801 12.2734 15.3819 12.2695 15.3837 12.2657C15.375 12.2957 15.3665 12.3258 15.3581 12.356C15.3909 12.2653 15.3983 12.2353 15.396 12.2561C15.3607 12.3884 15.3304 12.5089 15.3243 12.5528C15.3416 12.4943 15.3584 12.4357 15.3746 12.3769C15.3757 12.3948 15.3509 12.5352 15.371 12.4904C15.3808 12.4716 15.42 12.3852 15.422 12.3513C15.3932 12.7329 15.4646 12.0017 15.433 12.6095C15.442 12.557 15.447 12.5195 15.4529 12.4899C15.4556 12.6308 15.4546 12.6308 15.4617 12.6411C15.4664 12.5306 15.4661 12.4572 15.4662 12.2954C15.4665 12.2955 15.4669 12.2957 15.4673 12.2958C15.4677 12.3534 15.468 12.4109 15.4683 12.4685C15.481 12.6165 15.4744 12.1666 15.4803 12.2136C15.4817 12.2304 15.483 12.2471 15.4844 12.2638C15.4872 12.3118 15.4896 12.3599 15.4917 12.4079C15.5028 12.5307 15.5058 12.5432 15.5175 12.6261C15.511 12.5119 15.509 12.4895 15.498 12.353C15.4975 12.3396 15.4969 12.3262 15.4963 12.3128C15.5078 12.4208 15.5177 12.5078 15.5302 12.6024C15.5301 12.5903 15.5299 12.5781 15.5297 12.566C15.4488 11.8135 15.5301 12.3983 15.4968 12.1363C15.4914 12.1036 15.4859 12.071 15.4804 12.0383C15.4803 12.0347 15.4801 12.0311 15.48 12.0275C15.4865 12.0633 15.4929 12.0991 15.4995 12.1348C15.5133 12.2163 15.5265 12.2979 15.539 12.3796C15.5424 12.3973 15.5458 12.4151 15.5493 12.4328C15.5477 12.3364 15.5485 12.2801 15.5343 12.1743C15.5604 12.2716 15.5494 12.23 15.5834 12.3611C15.5833 12.3571 15.5832 12.3531 15.5831 12.3491C15.5503 12.2121 15.5166 12.0764 15.4817 11.9414C15.4724 11.8934 15.5594 12.168 15.5274 12.0321C15.5122 11.9717 15.5122 11.9707 15.5297 12.0143C15.5685 12.1323 15.5664 12.1279 15.6018 12.2305C15.6004 12.224 15.599 12.2174 15.5976 12.2108C15.5775 12.1484 15.5573 12.0861 15.5369 12.0238C15.5376 12.0239 15.5383 12.024 15.539 12.0241C15.5586 12.0812 15.5782 12.1382 15.598 12.1952C15.5843 12.1068 15.4963 11.8813 15.5473 11.9687C15.5549 11.9874 15.5625 12.0062 15.5702 12.0249C15.5941 12.0899 15.6179 12.155 15.6414 12.2201C15.6575 12.2475 15.6594 12.2525 15.637 12.1814C15.5959 12.0715 15.5857 12.0445 15.5409 11.9282C15.5369 11.9034 15.5489 11.9355 15.6383 12.1483ZM17.2676 15.2651C17.5688 15.1929 17.5777 15.1081 17.3932 15.3241C17.2465 15.5099 17.744 15.1572 17.2552 15.5861C17.3806 15.5153 17.3363 15.5405 17.4855 15.447C17.535 15.4359 17.4769 15.7101 17.4985 15.7487C17.461 15.7823 17.4237 15.8161 17.3864 15.8499C17.4067 15.8522 17.5148 15.8458 17.5063 15.8605C17.438 15.9842 17.44 16.0473 17.455 16.1114C17.3534 16.202 17.3942 16.167 17.2747 16.264C17.267 16.2942 17.3276 16.251 17.4365 16.1772C17.4449 16.2489 17.5632 16.7382 17.3818 16.97C17.3547 16.9961 17.3276 17.0222 17.3004 17.0483C17.1645 17.1438 17.1393 17.1234 17.1157 17.1038C17.0473 17.0476 17.0776 16.9067 17.0554 16.8106C17.0114 16.6055 16.967 16.4077 16.9575 16.192C16.9555 16.115 16.9485 16.0384 16.9241 15.9783C16.912 15.9494 16.8656 15.9424 16.877 15.8973C16.8922 15.8366 17.0381 15.6997 16.8516 15.7736C16.692 15.8371 16.6927 15.5405 16.6795 15.4936C16.6622 15.4406 16.5989 15.4075 16.5723 15.3572C16.553 15.3206 16.5827 15.2625 16.5536 15.2298C16.5241 15.1964 16.4278 15.1915 16.393 15.1557C16.2321 14.996 16.1257 14.8023 16.0006 14.588C16.0095 14.5843 16.1322 14.5428 16.1317 14.5428C16.1055 14.503 15.8695 14.3901 16.0428 14.3475C16.1147 14.3446 16.1865 14.342 16.2584 14.3396C16.2566 14.3354 16.2549 14.3312 16.2531 14.327C16.1025 14.3262 16.1788 14.3261 16.0257 14.3273C15.9697 14.2891 15.9898 14.2242 15.998 14.1641C16.0081 14.072 15.807 13.8523 16.048 13.8079C16.0666 13.805 16.195 13.8413 16.2636 13.8592C16.2645 13.8555 16.2654 13.8515 16.2664 13.8477C16.2041 13.8235 16.0578 13.7679 16.0639 13.758C16.0936 13.7103 15.7478 13.5443 16.0516 13.6011C16.0531 13.5567 15.9378 13.4647 15.9994 13.4522C16.0994 13.4876 16.1453 13.5061 16.252 13.5492C16.2577 13.5477 16.2635 13.5462 16.2693 13.5447C16.2262 13.5147 16.1727 13.476 16.1093 13.428C16.0807 13.3134 16.0946 13.1973 16.1584 13.1219C16.1777 13.099 16.0824 12.9654 16.0969 12.9544C16.1837 12.8862 16.1791 12.7347 16.2768 12.6621C16.2833 12.657 16.3584 12.6957 16.363 12.6964C16.4006 12.6989 16.469 12.7557 16.4919 12.7549L16.349 13.3358C16.3513 13.3296 16.3452 13.3271 16.325 13.3307C16.2559 13.3615 16.1868 13.3922 16.1177 13.423C16.0981 13.4272 16.0785 13.4314 16.0589 13.4356C16.1318 13.3836 16.1256 13.3899 16.2351 13.3238C16.1406 13.3374 16.076 13.3852 16.0568 13.3797C16.032 13.3727 16.1001 13.2472 16.0563 13.255C15.9752 13.2695 15.8611 13.3175 15.7999 13.3076C15.8228 13.2947 15.8458 13.2817 15.8687 13.2688C16.0531 13.1643 16.0779 13.1538 16.1119 13.1119C16.092 13.1171 16.0722 13.1223 16.0523 13.1275C15.9687 13.1727 15.8928 13.2136 15.8072 13.2592C15.655 13.3051 15.7479 13.0434 15.7538 12.991C15.8147 12.9547 15.8714 12.9202 15.9253 12.8863C15.9226 12.8821 15.9199 12.8779 15.9173 12.8737C15.9456 12.83 16.0285 12.7553 16.1756 12.6646C16.2531 12.6306 16.3306 12.5966 16.4081 12.5626C16.1055 12.7949 17.0677 12.5762 16.3155 12.9662C16.2983 12.9725 16.2811 12.9788 16.2639 12.9851C16.1409 13.0301 16.0815 13.0485 15.9429 13.1134C15.9355 13.122 15.9281 13.1305 15.9208 13.139C16.1158 13.0774 16.3854 12.9448 16.6477 12.8224C16.9063 12.7679 16.5175 12.9299 16.6039 12.9375C16.7646 12.9519 17.1099 12.8679 17.0176 13.0039C17.0079 13.0181 17.0002 13.0291 16.9958 13.037L17.0576 13.0948L16.9263 13.3196C16.8947 13.3056 16.9193 13.3393 17.0339 13.4964C17.0235 13.5276 16.9366 13.4334 16.8715 13.4147C16.8493 13.4091 17.0035 13.5834 16.9874 13.5954C16.8893 13.5144 16.9308 13.5501 16.8134 13.4452C16.805 13.4412 16.7964 13.4373 16.7879 13.4335C16.8812 13.5251 16.8305 13.4768 16.9544 13.5855C16.9489 13.5834 16.9434 13.5813 16.9379 13.5792C16.8998 13.5487 16.8615 13.5184 16.8231 13.4884C16.7756 13.4979 16.995 13.881 16.9696 13.8559C16.4926 13.7287 17.1964 14.0201 16.7526 13.9507C16.7226 13.9497 16.9829 14.0617 16.9512 14.0727C16.8565 14.0601 16.8377 14.0551 16.6867 14.0284C16.6797 14.0303 16.6728 14.0321 16.6658 14.0341C16.8104 14.073 16.7598 14.0599 16.9213 14.0974C16.9249 14.1004 16.9286 14.1035 16.9323 14.1063C16.9011 14.1025 16.8699 14.0989 16.8387 14.0956C16.9298 14.1311 16.9606 14.134 16.9378 14.1451C16.8012 14.1314 16.6772 14.1195 16.6314 14.1283C16.6909 14.1424 16.7506 14.1558 16.8104 14.1685C16.7905 14.188 16.6463 14.1959 16.6915 14.2322C16.7099 14.2488 16.7986 14.3464 16.833 14.3412C16.4508 14.3957 17.1867 14.4035 16.582 14.4763C16.6362 14.4917 16.6747 14.4995 16.7063 14.5145C16.5684 14.5492 16.5678 14.544 16.5603 14.5669C16.6716 14.5659 16.7444 14.5567 16.9054 14.5396C16.9055 14.5415 16.9056 14.5434 16.9057 14.5453C16.8486 14.5526 16.7915 14.5598 16.7344 14.5669C16.5923 14.6193 17.0405 14.5751 17.0022 14.6254C16.9859 14.6294 16.9696 14.6334 16.9532 14.6375C16.9053 14.643 16.8573 14.6483 16.8093 14.6532C16.6905 14.6877 16.6793 14.6964 16.6004 14.7277C16.7142 14.7129 16.7362 14.7083 16.8711 14.6843C16.8848 14.6844 16.8985 14.6844 16.9122 14.6843C16.8073 14.7125 16.7229 14.7363 16.6317 14.765C16.6442 14.7657 16.6568 14.7664 16.6693 14.767C17.4104 14.6128 16.8516 14.8088 17.1129 14.7614C17.1449 14.7528 17.1768 14.7441 17.2088 14.7354C17.2134 14.7385 17.218 14.7415 17.2227 14.7445C17.188 14.7555 17.1534 14.7666 17.1188 14.7777C17.0383 14.7971 16.9577 14.816 16.8769 14.8343C16.86 14.8406 16.843 14.847 16.826 14.8534C16.9327 14.8775 16.9991 14.9031 17.116 14.9132C17.0244 14.9558 17.0638 14.9384 16.9383 14.9895C16.943 14.9909 16.9477 14.9922 16.9523 14.9936C17.0865 14.9503 17.2195 14.9064 17.3517 14.8617C17.4094 14.8752 17.1545 15.0124 17.297 14.9906C17.3602 14.9801 17.3626 14.9829 17.3254 15.0145C17.2122 15.0657 17.2159 15.0622 17.1193 15.112C17.1264 15.1115 17.1336 15.1109 17.1407 15.1104C17.2011 15.085 17.2615 15.0594 17.3218 15.0338C17.3226 15.0362 17.3233 15.0387 17.3241 15.0411C17.2699 15.0677 17.2158 15.0943 17.1617 15.121C17.2638 15.1308 17.4731 15.0083 17.4147 15.1141C17.3974 15.1248 17.3802 15.1355 17.3631 15.1463C17.3 15.1752 17.2369 15.2039 17.1737 15.2324C17.1533 15.2613 17.1482 15.2631 17.2211 15.2422C17.3276 15.1925 17.3536 15.1801 17.4655 15.1249C17.4967 15.1316 17.4658 15.1464 17.2676 15.2651ZM20.1107 10.455C20.5421 10.5878 20.442 10.3316 20.4273 10.8152C20.4179 11.2155 20.855 10.7691 20.5396 11.4663C20.6766 11.4134 20.6285 11.4327 20.7797 11.3424C20.8607 11.381 21.1249 12.1461 21.2105 12.2785C21.181 12.324 21.1514 12.3693 21.1218 12.4146C21.1624 12.4473 21.3663 12.5823 21.3682 12.6118C21.3721 12.6904 21.3866 12.7669 21.4021 12.8322L20.9784 12.6142C21.1174 12.6668 21.2527 12.69 21.4023 12.7091C21.4282 12.845 21.4216 12.7913 21.4245 12.9453C21.4909 12.9702 21.5059 12.8959 21.5473 12.7648C21.7777 12.7996 23.3844 13.0363 23.4975 13.3306C23.4983 13.3683 23.4992 13.4059 23.5 13.4436C23.4209 13.6079 23.3196 13.6122 23.2211 13.6162C22.941 13.6279 22.6541 13.5111 22.3748 13.4646C21.9088 13.3869 21.4439 13.3161 20.9784 13.2334L20.9169 13.2261L20.8982 13.1921C20.836 13.061 20.7748 12.9269 20.7158 12.7915C20.6244 12.5817 20.532 12.376 20.4193 12.1816C20.365 12.0882 20.2714 12.0092 20.2427 11.9025C20.2024 11.7568 20.2917 11.5325 20.0559 11.5302C19.8538 11.5288 19.5159 10.7036 19.4335 10.5458C19.3386 10.3696 19.201 10.2188 19.0986 10.0469C19.0235 9.92064 18.9947 9.76677 18.9114 9.64626C18.8266 9.52312 18.6791 9.43542 18.5911 9.31291C18.1935 8.75727 17.8466 8.17104 17.5327 7.5396C17.5212 7.51645 17.5096 7.49403 17.4979 7.47236C17.5045 7.46258 17.5932 7.33874 17.5911 7.3355C17.5186 7.19391 17.173 7.03132 17.2476 6.87103C17.2975 6.8188 17.3461 6.7653 17.3935 6.7105C17.3821 6.70063 17.3708 6.69131 17.3595 6.68252C17.254 6.78997 17.3071 6.73526 17.2023 6.84687C17.0973 6.82034 17.0394 6.76307 16.9556 6.77243C16.7796 6.78499 16.6706 7.24942 16.3587 7.34971C16.333 7.3583 16.2209 7.28591 16.1591 7.25106C16.1523 7.26215 16.1457 7.27326 16.1391 7.2844C16.1846 7.33755 16.301 7.44688 16.2841 7.47061C16.2226 7.55913 16.3308 7.69932 16.3245 7.77487L16.3676 7.58353C16.3817 7.62775 16.3586 7.67264 16.2533 7.72353C16.268 7.84871 16.4102 7.94881 16.3594 8.04639C16.2538 8.07243 16.2044 8.08021 16.0895 8.09984C16.0849 8.11196 16.0803 8.12408 16.0758 8.13619C16.1276 8.16302 16.1926 8.19626 16.2709 8.23649C16.3476 8.49034 16.3951 8.75547 16.3873 9.01185C16.3848 9.09095 16.5418 9.21029 16.5374 9.25014C16.5119 9.50866 16.6186 9.75689 16.6083 10.0102C16.6078 10.0279 16.5296 10.0949 16.5262 10.1027C16.491 10.1828 16.3438 10.2313 16.4196 10.3C16.4952 10.3036 16.5708 10.3072 16.6465 10.3108C16.666 10.3261 16.6856 10.3413 16.7051 10.3565C16.6171 10.4137 16.6254 10.4032 16.4983 10.4516C16.5897 10.5458 16.6684 10.4895 16.6836 10.5346C16.6907 10.5555 16.6801 10.6077 16.6659 10.6676L16.6319 10.4453C16.6394 10.553 16.6429 10.6867 16.6765 10.7021C16.774 10.7472 16.8966 10.7244 16.9812 10.8232C16.9584 10.8381 16.9355 10.8529 16.9127 10.8678C16.7291 10.9883 16.7026 10.9938 16.6808 11.0863C16.7038 11.0923 16.7268 11.0982 16.7499 11.1042C16.8342 11.0561 16.9109 11.013 16.9977 10.9659C17.1708 10.9921 17.1899 11.7042 17.2103 11.8612C17.1507 11.9064 17.0954 11.951 17.0437 11.9968C17.0494 12.0128 17.0551 12.0289 17.0608 12.0449C17.0474 12.1497 16.9797 12.2906 16.8371 12.4097C16.7547 12.4296 16.6723 12.4495 16.5899 12.4694C16.8585 12.0813 15.7263 11.6941 16.4943 11.3142C16.5133 11.3138 16.5323 11.3133 16.5513 11.3129C16.6869 11.3092 16.7542 11.3179 16.8994 11.2695C16.9044 11.2511 16.9094 11.2327 16.9144 11.2143C16.6941 11.1897 16.4151 11.3033 16.1399 11.3934C15.8333 11.276 16.2515 11.2031 16.1353 11.0835C16.0097 10.9538 15.8213 10.8583 15.6943 10.7383L15.6835 10.6676C15.6218 10.5573 15.5947 10.4443 15.6538 10.3215C15.7291 10.1655 15.7232 10.1946 15.4822 10.1136C15.465 9.95028 15.5932 9.93026 15.6519 9.78585C15.6714 9.73784 15.4391 9.65541 15.4431 9.53762C15.5702 9.5073 15.5154 9.51547 15.6729 9.5141C15.6818 9.50238 15.6908 9.49066 15.6997 9.47893C15.5692 9.44764 15.6391 9.45909 15.4743 9.45773C15.4799 9.44724 15.4854 9.43675 15.4909 9.42626C15.5397 9.41731 15.5884 9.40836 15.6372 9.39942C15.6626 9.31598 15.2705 8.29881 15.31 8.26331C15.7073 7.91026 15.2686 7.84658 15.3388 7.58353L15.3948 7.33448C15.4377 7.28043 15.5103 7.22622 15.6259 7.18284C15.6647 7.17072 15.5216 6.85177 15.6372 6.73499C15.7569 6.72867 15.7716 6.74238 15.9227 6.7948C15.9382 6.78451 15.9538 6.77438 15.9694 6.76442C15.8712 6.64662 15.9075 6.68523 15.7849 6.57295C15.7908 6.55849 15.7969 6.54403 15.8032 6.52956C15.8403 6.53348 15.8769 6.53832 15.9138 6.54309C15.9149 6.39449 15.8867 6.37922 15.9822 6.31107C16.1363 6.35148 16.2509 6.41457 16.3462 6.39424C16.3322 6.32749 16.3217 6.25916 16.3154 6.18921C16.4829 6.10111 16.6741 6.14215 16.9407 6.07462C16.9949 6.05509 17.2773 6.04554 17.4838 6.14572C17.6907 6.23633 17.815 6.34884 17.8202 6.32574C17.7832 6.57072 17.9165 6.61953 18.0316 6.70114C18.1451 6.78168 18.2221 6.87571 17.9728 7.06764C18.0544 7.12564 18.1116 7.16955 18.1687 7.24131C18.1173 7.30981 18.0888 7.33619 18.0765 7.35833C18.0636 7.37724 18.0657 7.3918 18.0743 7.43232C18.195 7.44314 18.2653 7.42146 18.4247 7.38654C18.4274 7.39455 18.4301 7.40259 18.4329 7.41065C18.3776 7.42708 18.3223 7.44343 18.267 7.45971C18.1688 7.62298 18.6307 7.5737 18.666 7.78002C18.6518 7.7895 18.6376 7.79899 18.6234 7.80849C18.5722 7.81093 18.521 7.8132 18.4698 7.81531C18.3733 7.90398 18.3711 7.93158 18.3172 8.01779C18.4366 8.00589 18.4574 7.99715 18.5919 7.96302C18.6093 7.96941 18.6267 7.9758 18.6441 7.98218C18.553 8.04452 18.4805 8.0971 18.4053 8.16245C18.4219 8.17003 18.4385 8.17761 18.4552 8.18518C19.1841 7.9619 18.759 8.44442 19.0417 8.42002C19.0729 8.40843 19.104 8.39682 19.1352 8.3852C19.1473 8.40184 19.1596 8.41852 19.1719 8.43523C19.1405 8.45375 19.1091 8.47228 19.0777 8.49083C18.9939 8.50785 18.91 8.52464 18.8261 8.54119C18.8122 8.55398 18.7984 8.5668 18.7845 8.57964C18.9648 8.72966 19.1067 8.88554 19.3012 9.02481C19.2286 9.10273 19.2611 9.07235 19.1495 9.15076C19.1587 9.15973 19.168 9.1687 19.1772 9.17767C19.3154 9.13727 19.4527 9.09719 19.5897 9.05743C19.7156 9.18677 19.5237 9.43435 19.7251 9.5076C19.8149 9.54027 19.8251 9.55594 19.8147 9.63247C19.7068 9.69386 19.7076 9.68547 19.6247 9.75921C19.6357 9.76496 19.6467 9.7707 19.6577 9.77644C19.7189 9.75138 19.78 9.72626 19.8411 9.7011C19.8466 9.71119 19.852 9.72128 19.8575 9.73137C19.808 9.76632 19.7586 9.80131 19.7091 9.83632C19.8946 9.98022 20.065 9.79335 20.1386 10.1127C20.1251 10.1296 20.1117 10.1464 20.0982 10.1633C20.0318 10.1872 19.9653 10.211 19.8988 10.2347C19.9068 10.3092 19.8999 10.3082 19.9956 10.3231C20.1075 10.2815 20.1347 10.2707 20.2488 10.2185C20.3167 10.2837 20.2852 10.2978 20.1107 10.455Z" fill="black"/>
<path d="M12.2728 15.529C12.5877 15.2179 12.3265 15.1785 12.7261 15.4308C13.0555 15.6393 12.8969 15.0362 13.3225 15.6623C13.3458 15.5176 13.3382 15.5688 13.3375 15.3926C13.366 15.3722 13.5036 15.3869 13.6687 15.4123L13.9424 15.449C14.4937 15.6583 14.7384 16.245 14.7782 16.3584C14.7466 16.4086 14.7131 16.4565 14.6778 16.5023C14.7261 16.5597 14.8935 16.8371 14.8789 16.8751C14.7997 17.1789 14.7579 17.3924 14.6915 17.6455C14.5526 17.653 14.6069 17.6537 14.4545 17.6311C14.4179 17.6949 14.4875 17.7225 14.6045 17.7985C14.5691 17.8886 14.4513 18.1998 14.1734 18.4556C13.9042 18.7261 13.4451 18.8129 13.2063 18.6989C13.0444 18.6346 12.9294 18.5634 12.9032 18.4894C12.9026 18.4518 12.9021 18.4141 12.9016 18.3764C12.9773 18.2127 13.0722 18.2088 13.1642 18.2051C13.1782 18.2044 13.1923 18.2042 13.2063 18.2043C13.3329 18.2058 13.4865 18.2672 13.6513 18.1679C14.0158 17.9386 14.259 17.351 14.1981 16.783C14.1737 16.574 14.0804 16.3462 13.8787 16.2129C13.8321 16.1822 13.777 16.1649 13.7212 16.1512L13.697 16.1479C13.6427 16.1539 13.5884 16.1566 13.5359 16.1411C13.3986 16.1003 13.257 15.909 13.1416 16.1112C13.0441 16.2823 12.2069 16.1662 12.0371 16.1654C11.847 16.1639 11.659 16.2137 11.4695 16.2244C11.3304 16.2322 11.1878 16.1873 11.0497 16.2073C10.9089 16.2274 10.7727 16.3207 10.6321 16.3467C10.5859 16.3553 10.5397 16.3637 10.4934 16.3719L10.4956 16.3134C11.0935 16.2278 11.6982 16.052 12.2977 15.882C12.3059 15.8902 12.4112 16.0031 12.4124 16.0024C12.5485 15.9619 12.8643 15.6872 12.9998 15.8444C13.017 15.9147 13.0341 15.985 13.0512 16.0553C13.0648 16.0518 13.0783 16.0483 13.0918 16.0448C13.0713 15.8956 13.083 15.971 13.0567 15.82C13.1623 15.7502 13.3444 15.7463 13.5231 15.7301C13.569 15.7258 13.6202 15.7149 13.6726 15.7008C13.9134 15.624 13.9615 15.429 14.1937 15.4003C14.2164 15.3965 14.3296 15.4668 14.3917 15.5012C14.3977 15.4911 14.4035 15.4808 14.4091 15.4703C14.3613 15.4195 14.2345 15.3249 14.2457 15.307C14.3135 15.1783 13.9463 15.0624 14.2578 15.0069C14.2504 14.9134 14.1037 14.8588 14.1458 14.7946C14.2477 14.7622 14.2954 14.7481 14.4055 14.7116C14.4082 14.7009 14.4107 14.6902 14.413 14.6794C14.3576 14.6684 14.2881 14.6579 14.2053 14.6537C14.0816 14.5058 13.957 14.4287 13.8824 14.3777C13.851 14.3566 13.767 14.495 13.766 14.4908C13.7609 14.4864 13.7545 14.4841 13.7471 14.4835L13.7986 14.4877C13.5854 14.4818 13.3753 14.5547 13.1651 14.5373C13.1484 14.5361 13.0881 14.4554 13.0809 14.4517C13.0065 14.4135 12.9664 14.2646 12.8985 14.3377C12.892 14.4131 12.8856 14.4886 12.8791 14.564C12.8639 14.583 12.8487 14.6019 12.8336 14.6209C12.783 14.5308 12.7926 14.5395 12.7519 14.4106C12.6591 14.4984 12.7093 14.5792 12.666 14.5926C12.6106 14.61 12.3363 14.4845 12.2977 14.526C12.2263 14.6029 12.2074 14.726 12.0923 14.7728C12.0863 14.7463 12.0804 14.7198 12.0744 14.6933C12.0259 14.48 12.0295 14.4532 11.9541 14.4017C11.9414 14.4214 11.9287 14.4411 11.916 14.4609C11.9319 14.5564 11.9457 14.6431 11.9598 14.7406C11.8811 14.895 11.2405 14.6751 11.094 14.6419C11.0728 14.5705 11.0508 14.5036 11.0266 14.4395C11.0104 14.4395 10.9943 14.4395 10.9782 14.4395C10.8891 14.3919 10.7853 14.2811 10.7248 14.1069C10.7335 14.0226 10.7422 13.9383 10.7509 13.8539C11.0106 14.2367 11.7182 13.299 11.8107 14.1498C11.805 14.1679 11.7993 14.1859 11.7936 14.204C11.7535 14.333 11.7242 14.3935 11.7208 14.5465C11.7356 14.5574 11.7504 14.5683 11.7652 14.5792C11.8577 14.3798 11.8458 14.0788 11.8537 13.7894C12.0565 13.5396 11.9875 13.9582 12.1313 13.8886C12.3998 13.7594 12.6376 13.4199 12.9087 13.5717C13.0533 13.6529 13.026 13.6459 13.1123 13.4081C13.2674 13.3972 13.2812 13.526 13.4155 13.5901C13.4601 13.6114 13.5474 13.3825 13.6587 13.3908C13.6823 13.519 13.6767 13.464 13.6717 13.6214C13.6825 13.6307 13.6932 13.6401 13.7039 13.6495C13.7388 13.5203 13.7251 13.5897 13.733 13.4251C13.7427 13.431 13.7524 13.437 13.7621 13.4429C13.7686 13.4919 13.7751 13.541 13.7817 13.59C13.7899 13.593 13.8083 13.5918 13.8346 13.5871L13.8589 13.5891C14.0019 13.5725 14.4008 13.6078 14.6861 13.8311C14.9744 14.0386 15.1258 14.3223 15.1159 14.3459C14.9669 14.6985 15.0274 14.7863 15.1059 14.9405C15.1774 15.0784 15.2487 15.2933 14.9326 15.5161C14.899 15.5312 15.0508 15.8925 14.8837 16.0499C14.7492 16.0638 14.7352 16.0477 14.5864 15.982C14.5673 15.9923 14.5479 16.002 14.5285 16.0113C14.5988 16.1495 14.5712 16.1037 14.6674 16.2397C14.6555 16.2555 14.6432 16.2711 14.6305 16.2866C14.5907 16.2782 14.5517 16.2685 14.5135 16.2573C14.4543 16.4139 14.4727 16.4384 14.3433 16.4813C14.199 16.3978 14.1158 16.2967 14.0179 16.2813C14.0078 16.348 13.9936 16.415 13.9754 16.482C13.8935 16.4928 13.8225 16.4677 13.747 16.4447C13.6886 16.4159 13.6259 16.3941 13.5575 16.4272C13.5018 16.4531 13.1009 16.5936 13.1221 16.6255C12.8831 16.2701 12.7837 17.0248 12.5686 16.4396C12.5031 16.5018 12.459 16.5459 12.3888 16.5856C12.2909 16.4569 12.3154 16.4535 12.2317 16.4547C12.1978 16.571 12.2049 16.6441 12.2061 16.8073C12.1975 16.8083 12.1889 16.8093 12.1802 16.8104C12.1758 16.7529 12.1713 16.6954 12.1668 16.638C12.0284 16.5075 11.9708 16.9698 11.7534 16.9514C11.7479 16.9352 11.7423 16.919 11.7368 16.9028C11.7487 16.8527 11.7595 16.8027 11.7708 16.7527C11.7103 16.6365 11.6835 16.6273 11.617 16.5519C11.5978 16.6699 11.5995 16.6923 11.5949 16.831C11.5836 16.846 11.5724 16.861 11.5613 16.876C11.5269 16.771 11.4972 16.6866 11.4566 16.5957C11.4448 16.6094 11.433 16.6231 11.4213 16.6367C11.418 17.4007 11.0777 16.8467 11.0003 17.1189C11 17.1522 10.9996 17.1855 10.9992 17.2187C10.9783 17.2244 10.954 17.2303 10.9316 17.2359C10.9254 17.1999 10.9193 17.1639 10.9132 17.128C10.9298 17.0436 10.9477 16.9589 10.9619 16.8745C10.9546 16.8571 10.9476 16.8396 10.9402 16.8221C10.7894 16.8951 10.6952 16.9624 10.4198 16.9956L10.4671 15.686C10.537 15.655 10.6073 15.6216 10.6784 15.582C10.7161 15.6814 10.7032 15.6388 10.7244 15.7735C10.7361 15.7692 10.7479 15.7648 10.7596 15.7605C10.7831 15.6186 10.8069 15.4777 10.8314 15.3373C11.0018 15.2818 11.1328 15.565 11.2856 15.4197C11.3541 15.3549 11.3725 15.3532 11.4341 15.3978C11.4385 15.5219 11.4317 15.5173 11.4579 15.625C11.4678 15.6179 11.4776 15.6108 11.4875 15.6037C11.4934 15.5379 11.4994 15.4721 11.5053 15.4063C11.5165 15.4062 11.5276 15.4061 11.5388 15.406C11.5465 15.4661 11.5542 15.5261 11.5619 15.5862C11.7689 15.4902 11.6875 15.2511 11.9952 15.3391C12.0033 15.359 12.0114 15.3789 12.0196 15.3988C12.009 15.4685 11.9985 15.5383 11.988 15.608C12.0548 15.6368 12.0506 15.6422 12.1077 15.5657C12.1245 15.4476 12.128 15.4186 12.137 15.2935C12.2242 15.2656 12.2216 15.3 12.2728 15.529ZM7.19474 17.8389C7.40199 17.5447 7.24401 17.4918 7.47751 17.7645C7.67008 17.9897 7.60003 17.3793 7.83294 18.0265C7.85372 17.8831 7.84676 17.9339 7.85426 17.758C7.90059 17.7101 8.36278 17.9218 8.4549 17.9301C8.46605 17.9804 8.4773 18.0307 8.48841 18.081C8.51927 18.0664 8.65498 17.9787 8.66955 17.9947C8.79362 18.1264 8.90337 18.1657 9.0321 18.1967C9.0444 18.3329 9.04164 18.2791 9.04024 18.4331C9.07842 18.4588 9.08865 18.3846 9.11539 18.2541C9.24876 18.2916 10.1801 18.5463 10.2405 18.8417C10.2403 18.8793 10.2401 18.917 10.2399 18.9547C10.1909 19.1181 10.1316 19.1213 10.0741 19.1242C9.91056 19.1329 9.74557 19.0128 9.58368 18.9632C9.23003 18.8546 8.8774 18.7576 8.52439 18.63C8.39468 18.5833 8.26571 18.5419 8.13481 18.5254C8.07262 18.5178 8.00332 18.551 7.94236 18.5155C7.85964 18.4678 7.78122 18.2694 7.70165 18.4653C7.63416 18.6312 7.12475 18.4718 7.02087 18.4621C6.90402 18.4507 6.78645 18.4905 6.66989 18.4913C6.58344 18.4917 6.49921 18.4394 6.41279 18.452C6.37584 18.4575 6.33638 18.4766 6.29956 18.4981L6.31771 18.5011C6.26198 18.5143 6.20507 18.5312 6.15441 18.5273C5.73562 18.4962 5.32906 18.4233 4.90861 18.3962C4.90743 18.3861 4.89344 18.2493 4.89253 18.2495C4.80355 18.2438 4.53015 18.3989 4.5159 18.2133C4.53287 18.1433 4.54984 18.0732 4.56681 18.0032C4.55814 18.0023 4.54947 18.0014 4.5408 18.0005C4.49622 18.1444 4.51804 18.0713 4.47595 18.2185C4.39286 18.2511 4.29311 18.2004 4.18996 18.1645C4.02315 18.1068 3.68379 18.2467 3.58847 17.9859C3.58092 17.9656 3.62267 17.8388 3.64234 17.7707C3.63499 17.7685 3.62764 17.7663 3.62029 17.7641C3.58804 17.8236 3.52024 17.9658 3.50332 17.9573C3.50295 17.9571 3.50257 17.957 3.50219 17.9568L3.59484 17.9693C3.49319 17.9619 3.45191 18.341 3.35459 18.0417C3.2823 18.0593 3.2297 18.2038 3.17086 18.1552C3.15148 18.0503 3.14498 18.0011 3.12895 17.8867C3.12172 17.8825 3.11448 17.8782 3.10724 17.8739C3.0937 17.9263 3.07694 17.9921 3.05665 18.0712C2.91192 18.1538 2.75946 18.2074 2.60989 18.2056C2.56373 18.205 2.50052 18.3645 2.47715 18.3611C2.32562 18.3417 2.18536 18.454 2.0375 18.4497C2.02717 18.4496 1.98501 18.373 1.98035 18.3697C1.93232 18.3364 1.89815 18.1905 1.86123 18.2678C1.86214 18.3435 1.86305 18.4191 1.86396 18.4948C1.85588 18.5147 1.84779 18.5346 1.83971 18.5544C1.80292 18.4678 1.80936 18.4759 1.7761 18.35C1.72488 18.4436 1.76084 18.5209 1.73519 18.5371C1.70236 18.558 1.52614 18.4505 1.50521 18.4944C1.46641 18.5757 1.46275 18.6997 1.39521 18.7538C1.38985 18.7278 1.3845 18.7017 1.37915 18.6757C1.33563 18.466 1.33614 18.4391 1.28656 18.3926C1.28005 18.4131 1.27354 18.4336 1.26704 18.454C1.28294 18.5483 1.29701 18.6339 1.31197 18.7302C1.27365 18.8893 0.866858 18.7113 0.774963 18.6876C0.757359 18.6178 0.73957 18.5525 0.720562 18.4901C0.71069 18.4912 0.700818 18.4922 0.690946 18.4933C0.633261 18.4515 0.562475 18.3476 0.514196 18.1778C0.514072 18.0932 0.513948 18.0085 0.513824 17.9239C0.697685 18.2889 1.07088 17.308 1.18246 18.1506C1.18014 18.169 1.17781 18.1873 1.17549 18.2057C1.15921 18.337 1.14515 18.3992 1.15296 18.5521C1.16273 18.562 1.17249 18.5719 1.18225 18.5818C1.22609 18.3769 1.19938 18.0775 1.18555 17.7883C1.29373 17.5261 1.27842 17.948 1.36209 17.8693C1.51832 17.7231 1.64212 17.3692 1.81806 17.5031C1.91194 17.5748 1.89473 17.5696 1.93229 17.3268C2.02666 17.3059 2.04344 17.4335 2.12986 17.4888C2.1586 17.5072 2.1973 17.2732 2.26604 17.2743C2.28877 17.4007 2.28183 17.3461 2.28891 17.5034C2.2961 17.5121 2.30328 17.5208 2.31047 17.5295C2.32347 17.3983 2.31959 17.4684 2.3138 17.3037C2.32013 17.309 2.32646 17.3143 2.33279 17.3196C2.33994 17.3681 2.3471 17.4166 2.35426 17.4651C2.40385 17.4885 2.98038 17.0731 3.00263 17.1118C3.27326 17.5869 3.24231 16.8242 3.52744 17.2566C3.53315 17.2657 3.54645 17.2424 3.56437 17.2075L3.73336 17.2303C3.7942 17.1737 3.89227 17.0751 3.93436 17.1087C3.93895 17.2097 3.93173 17.228 3.90766 17.3809C3.91415 17.3897 3.92064 17.3984 3.92713 17.4071C3.98858 17.2697 3.96852 17.3182 4.02461 17.162C4.03247 17.1601 4.04034 17.1582 4.0482 17.1563C4.04746 17.1889 4.04671 17.2214 4.04596 17.254C4.1246 17.178 4.12898 17.147 4.16926 17.1814C4.15937 17.3219 4.14038 17.4463 4.1647 17.5002C4.19596 17.4462 4.22721 17.3921 4.25847 17.3381C4.31857 17.3752 4.32982 17.5281 4.4254 17.5082C4.4665 17.4997 4.74126 17.4912 4.74146 17.4558C4.73927 17.8564 5.07887 17.1932 4.97405 17.7987C5.03323 17.7621 5.07389 17.7356 5.12697 17.7212C5.13089 17.8702 5.11665 17.8657 5.1621 17.8909C5.22463 17.7948 5.24871 17.7255 5.31019 17.5752C5.31522 17.577 5.32025 17.5788 5.32528 17.5805C5.30581 17.6347 5.28635 17.6889 5.26689 17.7431C5.29202 17.9066 5.49878 17.5003 5.60808 17.5848C5.60489 17.6014 5.60171 17.618 5.59853 17.6346C5.57348 17.6771 5.54843 17.7196 5.52339 17.7621C5.51225 17.8879 5.52254 17.9045 5.52999 17.9946C5.58519 17.8921 5.59244 17.8708 5.64712 17.7445C5.65873 17.7342 5.67034 17.7238 5.68194 17.7135C5.6609 17.8207 5.64515 17.9076 5.63264 18.0037C5.64407 17.9947 5.6555 17.9856 5.66692 17.9766C5.95406 17.2737 5.92725 17.8849 6.0644 17.6515C6.07638 17.6206 6.08835 17.5897 6.10033 17.5587C6.11336 17.5591 6.1264 17.5595 6.13943 17.5599C6.12995 17.595 6.12047 17.6302 6.11099 17.6653C6.07317 17.74 6.03534 17.8147 5.99752 17.8894C5.99513 17.9076 5.99274 17.9258 5.99035 17.944C6.14132 17.892 6.27513 17.8771 6.4299 17.815C6.41922 17.9173 6.42568 17.8742 6.394 18.0063C6.40216 18.0048 6.41033 18.0033 6.41849 18.0018C6.47814 17.873 6.53771 17.7451 6.59745 17.6179C6.5979 17.6178 6.59835 17.6178 6.5988 17.6177L6.32162 17.5713C6.42745 17.5277 6.49404 17.8146 6.59471 17.6781C6.63927 17.617 6.65059 17.6163 6.68665 17.664C6.68357 17.7882 6.67953 17.7833 6.69081 17.8921C6.69709 17.8856 6.70338 17.879 6.7097 17.8725C6.71635 17.8071 6.72302 17.7417 6.7297 17.6763C6.73652 17.6768 6.74336 17.6773 6.75022 17.6777C6.75215 17.7381 6.7541 17.7985 6.75605 17.8589C6.88751 17.7738 6.84865 17.5309 7.03328 17.6348C7.03732 17.6551 7.04136 17.6754 7.04541 17.6957C7.03578 17.7648 7.02618 17.8339 7.0166 17.903C7.05596 17.9351 7.05316 17.9404 7.09184 17.8669C7.10767 17.7499 7.11118 17.7211 7.12254 17.5967C7.17687 17.5734 7.17381 17.6076 7.19474 17.8389ZM11.5662 20.4774C11.6526 20.1837 11.5932 20.1314 11.6643 20.4016C11.7372 20.6235 11.6938 20.0154 11.8052 20.655C11.8078 20.511 11.807 20.562 11.8024 20.386C11.8142 20.3381 12.0158 20.5268 12.0592 20.5273C12.0696 20.5766 12.0802 20.6258 12.091 20.6749C12.1031 20.6585 12.1504 20.5618 12.1586 20.5764C12.2295 20.6975 12.2858 20.7269 12.3477 20.7456C12.3763 20.8787 12.366 20.8259 12.3917 20.9777C12.4141 20.9993 12.4063 20.9252 12.3951 20.7942C12.4712 20.8178 12.889 20.9788 13.099 21.1831C13.1185 21.2153 13.1381 21.2474 13.1579 21.2795C13.1877 21.4528 13.1252 21.4826 13.0913 21.4989C12.9794 21.5509 12.8621 21.4588 12.7654 21.4338C12.556 21.377 12.3637 21.3165 12.1735 21.2173C12.104 21.1809 12.0372 21.1483 11.9728 21.1392C11.9421 21.135 11.9108 21.1717 11.879 21.1389C11.8353 21.095 11.7934 20.8996 11.7614 21.0977C11.7323 21.268 11.4821 21.1115 11.4412 21.0947C11.3897 21.0795 11.3292 21.1121 11.2766 21.102C11.2367 21.0942 11.2177 21.0348 11.1816 21.0348C11.1457 21.0348 11.0695 21.094 11.0198 21.0791C10.999 21.0736 10.9772 21.0643 10.9572 21.0528C10.7817 20.9613 10.6226 20.8653 10.4308 20.7836C10.4364 20.7759 10.514 20.6727 10.5135 20.6728C10.4696 20.655 10.2211 20.7178 10.3318 20.5799C10.386 20.5326 10.4402 20.4853 10.4945 20.4382C10.4904 20.436 10.4864 20.4338 10.4824 20.4317C10.3654 20.5266 10.4243 20.4782 10.3066 20.576C10.2402 20.5833 10.2181 20.5261 10.1857 20.478C10.1356 20.4054 9.84605 20.3991 9.98591 20.2011C9.99693 20.186 10.1129 20.1199 10.1738 20.0836C10.1717 20.0803 10.1696 20.077 10.1676 20.0737C10.1067 20.1013 9.965 20.1675 9.96237 20.1567C9.94946 20.103 9.59136 20.2401 9.84267 20.0606C9.81153 20.0291 9.66633 20.052 9.69951 19.9987C9.79377 19.9501 9.83867 19.9293 9.94311 19.881C9.94593 19.8757 9.94877 19.8705 9.95164 19.8652C9.90025 19.8761 9.83561 19.8892 9.75727 19.9029C9.6542 19.8456 9.57909 19.7578 9.56737 19.6584C9.56389 19.6295 9.40121 19.6076 9.40307 19.5893C9.41162 19.4911 9.32166 19.4037 9.31144 19.3032C9.31027 19.2938 9.31012 19.2845 9.31125 19.2752C9.31179 19.2687 9.39028 19.2464 9.39377 19.2439C9.42946 19.2159 9.57704 19.2039 9.50214 19.1784C9.42661 19.1743 9.35109 19.1701 9.27557 19.1658C9.25626 19.1593 9.23696 19.1526 9.21769 19.1459C9.3066 19.1283 9.29812 19.1317 9.426 19.1212C9.33675 19.0812 9.25698 19.0968 9.24296 19.0785C9.22418 19.0553 9.34958 18.9467 9.30972 18.9259C9.23496 18.8841 9.11258 18.8623 9.07211 18.7932C9.09859 18.794 9.12507 18.7949 9.15153 18.7959C9.3647 18.8046 9.39057 18.8119 9.4455 18.7858C9.42698 18.7758 9.40855 18.7656 9.39019 18.7552C9.29547 18.7439 9.20916 18.7357 9.11241 18.7254C8.95966 18.6696 9.25141 18.2524 9.52936 18.0503C9.60723 18.0729 9.68331 18.0944 9.75717 18.1186C9.77898 18.1019 9.80213 18.0858 9.8288 18.0697C9.99572 18.0071 10.3164 18.0968 10.3587 18.3092C10.3236 18.3867 10.2931 18.4659 10.2675 18.5466C10.2461 18.4387 10.1132 18.4423 10.0688 18.5069C10.0186 18.5691 10.035 18.6522 10.0544 18.7057C10.0947 18.8152 10.1191 18.854 9.70116 18.7747C9.68406 18.7679 9.667 18.761 9.64997 18.754C9.52811 18.7046 9.47395 18.6708 9.32683 18.6286C9.31431 18.6346 9.3017 18.6412 9.28947 18.6468C9.47223 18.748 9.7684 18.8038 10.0484 18.8769C10.2864 18.989 9.87897 18.8835 9.94401 18.9452C10.0674 19.0581 10.4116 19.1348 10.2676 19.2012C10.1909 19.2385 10.1971 19.2336 10.4377 19.2583C10.4466 19.2796 10.4132 19.291 10.3713 19.3032C10.3359 19.3116 10.2945 19.321 10.2681 19.3371C10.249 19.3499 10.4817 19.3564 10.4795 19.3765C10.3533 19.3932 10.4078 19.3872 10.251 19.4014C10.2423 19.405 10.2336 19.4086 10.225 19.4122C10.3556 19.4066 10.2858 19.4107 10.4498 19.3944C10.4445 19.3969 10.4392 19.3996 10.4339 19.4022C10.3856 19.4093 10.3374 19.4166 10.2892 19.4242C10.2639 19.4661 10.6927 19.5637 10.6574 19.5668C10.2386 19.8286 10.9343 19.5173 10.5803 19.7967C10.5587 19.8176 10.8222 19.7121 10.8101 19.7467C10.7353 19.8063 10.7184 19.8161 10.5931 19.9044C10.5896 19.9108 10.5861 19.9173 10.5826 19.9238C10.713 19.8501 10.6678 19.8763 10.8092 19.7898C10.8141 19.7897 10.819 19.7895 10.8239 19.7894C10.7993 19.809 10.7748 19.8288 10.7505 19.8487C10.8421 19.8129 10.8663 19.7936 10.8593 19.8201C10.7525 19.9067 10.6547 19.9838 10.6283 20.023C10.6817 19.9929 10.7348 19.9625 10.7877 19.9318C10.7894 19.9638 10.6891 20.0678 10.75 20.069C10.7757 20.0698 10.9178 20.102 10.9413 20.0769C10.6797 20.3614 11.2791 19.9324 10.8399 20.3555C10.8941 20.3377 10.9321 20.3242 10.969 20.3213C10.8778 20.4311 10.8732 20.4258 10.8816 20.4512C10.9747 20.3899 11.0306 20.3424 11.1568 20.2408C11.1584 20.2429 11.16 20.2449 11.1615 20.2469C11.1175 20.284 11.0734 20.321 11.0294 20.358C10.9413 20.4825 11.3034 20.2132 11.3109 20.2938C11.2989 20.3056 11.2869 20.3174 11.2749 20.3292C11.2351 20.3566 11.1952 20.3841 11.1554 20.4115C11.0717 20.503 11.067 20.517 11.0153 20.585C11.1087 20.518 11.1258 20.5034 11.2337 20.4188C11.2465 20.4131 11.2593 20.4075 11.272 20.4018C11.1943 20.4778 11.132 20.5396 11.0656 20.6086C11.0774 20.6039 11.0893 20.5991 11.1011 20.5944C11.6947 20.1234 11.303 20.5744 11.5263 20.4302C11.5525 20.4099 11.5787 20.3897 11.6049 20.3694C11.6123 20.3728 11.6197 20.3761 11.6272 20.3795C11.5998 20.4034 11.5723 20.4273 11.5448 20.4511C11.4761 20.4977 11.4076 20.5445 11.3393 20.5916C11.3266 20.6045 11.3138 20.6175 11.301 20.6304C11.3681 20.6263 11.4254 20.6316 11.4865 20.6367C11.4903 20.5864 11.49 20.5369 11.4948 20.4834C11.4272 20.5587 11.4551 20.5258 11.3746 20.6348C11.3755 20.6306 11.3765 20.6267 11.3775 20.6226C11.4524 20.5033 11.5198 20.3803 11.5805 20.2544C11.5455 20.1798 11.4325 20.4483 11.4785 20.3163C11.4961 20.2568 11.4946 20.2553 11.4843 20.3011C11.4531 20.4214 11.4533 20.4164 11.4283 20.5221C11.431 20.5159 11.4337 20.5096 11.4363 20.5034C11.4528 20.44 11.4688 20.3764 11.4845 20.3128C11.485 20.3133 11.4856 20.3137 11.4862 20.3142C11.473 20.3731 11.4601 20.432 11.4475 20.491C11.4935 20.4105 11.5188 20.1695 11.5415 20.2734C11.54 20.2936 11.5385 20.3138 11.5372 20.334C11.5269 20.4025 11.5161 20.471 11.5049 20.5394C11.5128 20.5719 11.5123 20.5772 11.5316 20.5046C11.5481 20.3883 11.5517 20.3597 11.5664 20.2359C11.5819 20.2128 11.5773 20.2467 11.5662 20.4774ZM11.0185 18.7885C11.0432 19.0872 11.077 19.1313 11.0063 18.8727C10.9317 18.6638 11.1198 19.2425 10.9062 18.6371C10.9523 18.7732 10.9361 18.725 10.9949 18.8909C11.0143 18.9358 10.9317 18.7514 10.921 18.75C10.8932 18.7084 10.8648 18.6672 10.8356 18.6265C10.8409 18.6412 10.8922 18.716 10.8831 18.7032C10.7983 18.6058 10.7611 18.5891 10.7311 18.5808C10.6265 18.494 10.6675 18.5287 10.5498 18.4294C10.5252 18.4199 10.5808 18.4695 10.6815 18.5534C10.649 18.5178 10.3476 18.6047 10.0544 18.6036C10.0176 18.5958 9.98075 18.5879 9.94392 18.5801C9.7876 18.5257 9.79041 18.4951 9.79375 18.4683C9.80263 18.3909 9.94247 18.3495 10.0146 18.3083C10.1748 18.2082 10.3482 18.1527 10.5118 18.1842C10.5716 18.1953 10.623 18.2102 10.6616 18.2064C10.6797 18.2046 10.6841 18.1647 10.7136 18.1898C10.7551 18.2228 10.8314 18.4045 10.7912 18.2102C10.7606 18.0416 10.9492 18.1543 10.9742 18.1624C11.0072 18.1678 11.0391 18.1232 11.0734 18.1188C11.0989 18.1157 11.1246 18.166 11.1496 18.1518C11.1747 18.1376 11.2045 18.0508 11.2337 18.0321C11.3691 17.9433 11.5125 17.9111 11.6696 17.8422C11.6692 17.8516 11.6588 17.9787 11.659 17.9782C11.6899 17.963 11.8181 17.7575 11.7965 17.9306C11.7794 18.0004 11.7622 18.0702 11.7448 18.14C11.7479 18.139 11.7509 18.138 11.754 18.137C11.7935 17.9916 11.7738 18.0653 11.8128 17.9173C11.8501 17.8692 11.8813 17.8968 11.9155 17.9103C11.9687 17.9306 12.1381 17.7382 12.1189 17.965C12.1173 17.9826 12.0713 18.1079 12.0477 18.1748C12.0501 18.1754 12.0524 18.1761 12.0547 18.1768C12.0812 18.1157 12.1417 17.9717 12.1466 17.9767C12.1723 18.0018 12.3287 17.6534 12.2459 17.9475C12.274 17.9428 12.3461 17.8185 12.3452 17.8731C12.31 17.9728 12.2925 18.0191 12.2521 18.1267C12.2526 18.1318 12.253 18.1369 12.2533 18.142C12.2779 18.0961 12.3089 18.0385 12.3466 17.9695C12.4229 17.9183 12.4921 17.897 12.5366 17.9263C12.55 17.9351 12.6393 17.8038 12.6451 17.8115C12.6842 17.8584 12.7777 17.7859 12.8236 17.8217C12.8269 17.824 12.8031 17.8999 12.8029 17.9037C12.8016 17.9429 12.7402 18.077 12.7888 18.0172C12.8257 17.9512 12.8627 17.8852 12.8997 17.8192C12.912 17.8037 12.9244 17.7882 12.9369 17.7728C12.9059 17.8562 12.9079 17.8478 12.8553 17.964C12.918 17.8943 12.9459 17.8197 12.9622 17.8115C12.984 17.8012 12.9827 17.9327 13.0129 17.9009C13.0682 17.8411 13.1352 17.7369 13.1873 17.7086C13.1751 17.7319 13.1629 17.7552 13.1506 17.7785C13.0517 17.9657 13.0366 17.9879 13.0262 18.0386C13.0393 18.023 13.0524 18.0074 13.0657 17.9919C13.1125 17.9092 13.1549 17.8342 13.2025 17.7498C13.3029 17.6255 13.3495 17.8905 13.3646 17.9382C13.3277 17.9984 13.2942 18.0559 13.2619 18.1106C13.2659 18.1128 13.27 18.1151 13.274 18.1174C13.2677 18.168 13.2246 18.2704 13.1268 18.4123C13.0717 18.4765 13.0167 18.5408 12.9619 18.6052C13.1362 18.266 12.4772 18.9829 12.9237 18.2651C12.9346 18.2503 12.9455 18.2356 12.9564 18.2209C13.0343 18.1158 13.0738 18.0681 13.1573 17.9398C13.1596 17.9291 13.162 17.9183 13.1643 17.9075C13.0353 18.0658 12.8789 18.3222 12.7222 18.5656C12.5526 18.763 12.787 18.4132 12.7228 18.462C12.6027 18.5525 12.3989 18.8375 12.4245 18.6908C12.4381 18.6124 12.4385 18.6193 12.3135 18.8259C12.2827 18.8289 12.3394 18.7139 12.3442 18.6505C12.3458 18.6293 12.2289 18.8304 12.2144 18.8189C12.2665 18.7028 12.2433 18.7524 12.3129 18.6112C12.3151 18.6023 12.3173 18.5934 12.3194 18.5844C12.257 18.6992 12.2897 18.6374 12.2168 18.7852C12.2177 18.7795 12.2187 18.7738 12.2196 18.768C12.2397 18.7236 12.2597 18.6792 12.2797 18.6347C12.2742 18.6027 11.9644 18.893 11.978 18.8568C12.0987 18.3812 11.8161 19.0901 11.9089 18.651C11.9141 18.6222 11.7911 18.8769 11.7834 18.8441C11.8066 18.7517 11.8134 18.7334 11.858 18.5868C11.8578 18.58 11.8575 18.5731 11.8573 18.5663C11.8037 18.7061 11.822 18.6571 11.7662 18.8132C11.7632 18.8166 11.7601 18.8201 11.757 18.8235C11.765 18.7931 11.7729 18.7627 11.7807 18.7324C11.7367 18.8191 11.7284 18.8489 11.7231 18.8254C11.7582 18.6928 11.7918 18.5731 11.7948 18.5278C11.7724 18.5846 11.7502 18.6415 11.7282 18.6985C11.7164 18.6767 11.7435 18.5361 11.707 18.5752C11.6909 18.5915 11.5996 18.6608 11.594 18.6944C11.6596 18.316 11.4505 19.0212 11.5727 18.4246C11.5481 18.473 11.5316 18.5079 11.5131 18.5343C11.531 18.394 11.5345 18.3947 11.5229 18.3817C11.4914 18.488 11.4759 18.5597 11.4394 18.7174C11.4382 18.717 11.437 18.7166 11.4357 18.7162C11.4479 18.6599 11.4602 18.6037 11.4725 18.5475C11.4824 18.3982 11.3762 18.8357 11.3577 18.7843C11.3602 18.7677 11.3627 18.751 11.3651 18.7344C11.3759 18.6875 11.3869 18.6406 11.3981 18.5938C11.413 18.4713 11.4112 18.4581 11.4161 18.3741C11.3913 18.4859 11.3875 18.5081 11.3617 18.6426C11.3576 18.6555 11.3536 18.6683 11.3496 18.6812C11.364 18.5736 11.3751 18.4867 11.3853 18.3918C11.3812 18.4033 11.3772 18.4149 11.3732 18.4265C11.245 19.1725 11.2973 18.5837 11.25 18.844C11.2457 18.8768 11.2415 18.9096 11.2373 18.9425C11.2346 18.9457 11.2318 18.949 11.2291 18.9524C11.2328 18.9162 11.2365 18.88 11.2401 18.8438C11.2518 18.762 11.264 18.6802 11.2767 18.5985C11.278 18.5804 11.2792 18.5624 11.2805 18.5443C11.2387 18.6355 11.2072 18.6878 11.1758 18.7923C11.1774 18.6915 11.1764 18.7345 11.1815 18.5992C11.1797 18.603 11.1778 18.6068 11.176 18.6106C11.1652 18.7511 11.1557 18.8907 11.1474 19.0299C11.1325 19.0782 11.1242 18.79 11.1091 18.9295C11.1036 18.9916 11.1029 18.9927 11.0968 18.9459C11.0934 18.8217 11.0944 18.8265 11.0889 18.7181C11.088 18.7248 11.0872 18.7315 11.0863 18.7382C11.0876 18.8038 11.0891 18.8693 11.0908 18.9348C11.0899 18.9345 11.089 18.9342 11.0881 18.9339C11.0853 18.8737 11.0823 18.8134 11.0792 18.7532C11.0618 18.8422 11.086 19.0831 11.0605 18.9853C11.058 18.9652 11.0555 18.9452 11.0529 18.9251C11.0464 18.8561 11.0403 18.7871 11.0347 18.7181C11.0254 18.6875 11.0246 18.6823 11.0279 18.7567C11.04 18.8735 11.0433 18.9021 11.0579 19.0259C11.0571 19.0507 11.0542 19.0166 11.0185 18.7885ZM13.1693 19.6556C12.9207 19.8226 12.8992 19.8745 13.0904 19.6864C13.2337 19.5162 12.8184 19.961 13.2364 19.4728C13.137 19.5767 13.1722 19.54 13.0533 19.6698C13.0225 19.7063 13.0967 19.5072 13.0791 19.4888C13.1051 19.4459 13.1306 19.4028 13.1559 19.3595C13.1414 19.368 13.0699 19.43 13.0757 19.4154C13.1195 19.2911 13.1116 19.2441 13.0957 19.2044C13.1533 19.0812 13.1299 19.1296 13.1985 18.9917C13.1991 18.9641 13.1634 19.0295 13.1007 19.1447C13.0943 19.0959 12.9245 18.7847 12.9405 18.4938C12.9482 18.4569 12.9558 18.42 12.9634 18.3831C13.016 18.2263 13.047 18.229 13.072 18.2314C13.1479 18.2387 13.1822 18.3725 13.2264 18.4385C13.3247 18.5835 13.4049 18.7251 13.4432 18.8925C13.457 18.9537 13.469 19.0095 13.4934 19.0458C13.505 19.0629 13.5442 19.0501 13.537 19.0891C13.5287 19.1427 13.4084 19.2993 13.5616 19.1728C13.6966 19.0665 13.6974 19.2957 13.7007 19.3219C13.7122 19.3552 13.7664 19.3639 13.7859 19.3954C13.8001 19.4185 13.7644 19.4624 13.7869 19.4801C13.8096 19.4983 13.9017 19.4959 13.9298 19.5202C14.0574 19.6264 14.1228 19.78 14.1967 19.9513C14.1993 19.9571 14.202 19.9628 14.2047 19.9686C14.1952 19.9693 14.0674 19.9723 14.0679 19.9724C14.0858 20.0027 14.2969 20.1307 14.1216 20.1218C14.051 20.1081 13.9804 20.0942 13.91 20.0801C13.9111 20.0833 13.9122 20.0865 13.9132 20.0898C14.0601 20.1232 13.9857 20.1066 14.1352 20.1393C14.184 20.178 14.1555 20.2174 14.1404 20.2576C14.1194 20.3172 14.2927 20.5247 14.061 20.4983C14.0431 20.4959 13.9232 20.4373 13.8591 20.4071C13.858 20.4096 13.857 20.4121 13.8559 20.4146C13.9138 20.4477 14.0496 20.5249 14.0434 20.5306C14.0132 20.5576 14.331 20.7707 14.0486 20.6508C14.0455 20.6846 14.1509 20.784 14.0933 20.7786C14.0017 20.7255 13.9597 20.6993 13.8623 20.6383C13.857 20.6379 13.8517 20.6376 13.8464 20.6372C13.8856 20.6716 13.9347 20.715 13.9921 20.7691C14.0169 20.8665 14.005 20.9562 13.9504 21.0026C13.9342 21.0164 14.0214 21.1513 14.009 21.1572C13.9364 21.1927 13.9476 21.3234 13.8757 21.3644C13.8707 21.3676 13.8077 21.3168 13.804 21.3152C13.7634 21.3011 13.669 21.1874 13.6956 21.2608C13.7369 21.3242 13.7781 21.3876 13.8191 21.4512C13.8259 21.4702 13.8325 21.4892 13.8391 21.5083C13.7753 21.4448 13.7825 21.4501 13.7017 21.3508C13.7262 21.4434 13.782 21.5013 13.7776 21.5219C13.7709 21.5497 13.6316 21.4969 13.641 21.5397C13.657 21.6212 13.7091 21.7338 13.6912 21.7995C13.6774 21.777 13.6637 21.7544 13.6502 21.7318C13.5413 21.5495 13.5325 21.524 13.4893 21.4903C13.4939 21.5104 13.4984 21.5304 13.5028 21.5506C13.5466 21.635 13.5871 21.7112 13.633 21.7967C13.6713 21.9564 13.3521 21.8663 13.2896 21.8479C13.263 21.7819 13.2384 21.7199 13.2148 21.6606C13.2092 21.6626 13.2039 21.6645 13.1979 21.6664C13.1548 21.6309 13.0945 21.533 13.0502 21.3658C13.0399 21.2818 13.0291 21.1979 13.018 21.114C13.0808 21.2932 13.1211 21.1331 13.1374 21.0347C13.1582 20.9355 13.1733 20.8972 13.3509 21.2818C13.3565 21.2993 13.3621 21.3168 13.3676 21.3342C13.4071 21.4591 13.4208 21.5199 13.4774 21.6621C13.4862 21.6697 13.495 21.6772 13.504 21.6847C13.4563 21.485 13.3301 21.2122 13.2198 20.9445C13.1527 20.6931 13.3124 21.0826 13.3108 21.0003C13.3082 20.8458 13.1565 20.5304 13.2661 20.6268C13.3276 20.6762 13.3237 20.6715 13.1916 20.4697C13.1971 20.4445 13.2758 20.5456 13.3298 20.5776C13.3486 20.5875 13.2084 20.4021 13.2199 20.3971C13.3069 20.4898 13.27 20.4494 13.3749 20.5668C13.3822 20.5723 13.3896 20.5777 13.3969 20.5832C13.3128 20.4832 13.3584 20.5363 13.2477 20.4142C13.2524 20.4174 13.257 20.4207 13.2617 20.4239C13.2955 20.459 13.3295 20.494 13.3636 20.5288C13.4035 20.5292 13.1871 20.1803 13.2099 20.2111C13.6406 20.4414 12.9937 20.0382 13.4021 20.2144C13.4302 20.2229 13.1871 20.0797 13.2167 20.0829C13.3055 20.1168 13.3232 20.1251 13.4653 20.1822C13.4719 20.1828 13.4786 20.1835 13.4853 20.1841C13.3494 20.1213 13.397 20.1429 13.245 20.0768C13.2416 20.074 13.2382 20.0713 13.2347 20.0685C13.2642 20.0792 13.2937 20.0897 13.3234 20.0999C13.238 20.0542 13.2085 20.0448 13.2307 20.0444C13.3606 20.0881 13.4788 20.1268 13.5236 20.1322C13.4673 20.1085 13.4108 20.0855 13.3541 20.0629C13.3745 20.0563 13.5146 20.0858 13.4745 20.0524C13.458 20.0373 13.3834 19.958 13.3494 19.9538C13.7303 20.0022 13.0124 19.8434 13.6159 19.9233C13.5656 19.9031 13.5294 19.8899 13.5014 19.8742C13.5612 19.8767 13.5957 19.8783 13.6164 19.8788C13.6446 19.8797 13.6473 19.878 13.6541 19.8712C13.545 19.8516 13.472 19.8442 13.3112 19.8261C13.3114 19.8254 13.3116 19.8246 13.3119 19.8238C13.3691 19.8294 13.4264 19.8352 13.4836 19.841C13.6328 19.8361 13.1849 19.7921 13.2322 19.7849C13.249 19.7849 13.2658 19.7848 13.2826 19.7847C13.3307 19.7864 13.3787 19.7886 13.4268 19.7913C13.55 19.7885 13.5628 19.7854 13.6464 19.7772C13.5319 19.7731 13.5094 19.7734 13.3725 19.7735C13.3591 19.7726 13.3457 19.7717 13.3323 19.771C13.4408 19.7665 13.5283 19.7617 13.6234 19.7541C13.6113 19.7527 13.5991 19.7515 13.587 19.7503C12.831 19.7824 13.4186 19.7309 13.1555 19.7534C13.1228 19.7581 13.09 19.7628 13.0573 19.7676C13.0537 19.7678 13.0501 19.7682 13.0465 19.7686C13.0824 19.7628 13.1183 19.7569 13.1542 19.751C13.2359 19.7384 13.3177 19.727 13.3998 19.7167C13.4176 19.7136 13.4354 19.7105 13.4532 19.7072C13.356 19.7019 13.2988 19.6999 13.1947 19.7219C13.2907 19.6916 13.2497 19.7045 13.3789 19.6639C13.3749 19.6641 13.3709 19.6644 13.3669 19.6647C13.2319 19.7049 13.0986 19.7475 12.9667 19.7925C12.923 19.8155 13.1894 19.7056 13.0602 19.7579C13.0035 19.7833 13.0032 19.785 13.0451 19.7638C13.1563 19.7085 13.1522 19.7112 13.2488 19.6617C13.2426 19.6642 13.2364 19.6667 13.2302 19.6693C13.1716 19.6986 13.1131 19.7282 13.0548 19.7582C13.0551 19.7579 13.0553 19.7577 13.0555 19.7574C13.1089 19.7293 13.1622 19.701 13.2154 19.6725C13.1322 19.704 12.9269 19.8326 13.0105 19.7782C13.0273 19.767 13.0441 19.7557 13.0609 19.7444C13.1187 19.7063 13.1769 19.6687 13.2354 19.6316C13.2592 19.6108 13.2632 19.6072 13.1998 19.6462C13.1025 19.7118 13.0788 19.7283 12.9766 19.7997C12.9562 19.8131 12.9849 19.7944 13.1693 19.6556ZM19.6842 19.6378C19.6499 19.2968 19.5103 19.3386 19.7976 19.3992L19.8974 19.2731L20.3613 19.1874C20.3705 19.1972 20.3804 19.2074 20.3909 19.2182C20.6076 19.4392 20.5163 18.8305 20.7869 19.4725C20.8064 19.3287 20.8 19.3796 20.8041 19.2036C20.8538 19.1547 21.3657 19.3566 21.4668 19.3629C21.4802 19.413 21.4936 19.463 21.5069 19.5131C21.5407 19.4979 21.6872 19.4075 21.7037 19.4231C21.8425 19.5522 21.964 19.5894 22.1056 19.6177C22.1221 19.7536 22.1179 19.6999 22.1198 19.8539C22.1622 19.8788 22.1718 19.8045 22.1982 19.6734C22.3453 19.7082 23.3715 19.9449 23.4437 20.2392C23.4442 20.2769 23.4448 20.3145 23.4453 20.3522C23.3948 20.5165 23.3301 20.5208 23.2672 20.5248C23.0883 20.5365 22.9051 20.4197 22.7267 20.3732C22.337 20.2715 21.9486 20.1815 21.5589 20.0612C21.4158 20.0172 21.2733 19.9786 21.1297 19.9649C21.0609 19.9585 20.9864 19.9933 20.9184 19.959C20.8269 19.9131 20.7364 19.7165 20.6534 19.914C20.6229 19.9866 20.5 19.9998 20.3613 19.9908L20.3328 19.9961L20.3267 20.0039C20.1842 20.1132 19.9906 20.1998 19.9374 20.2349C19.8316 20.3043 19.7544 20.413 19.652 20.4884C19.5767 20.5437 19.4708 20.5543 19.4015 20.6167C19.3307 20.6802 19.2981 20.8044 19.2264 20.8713C18.9937 21.0886 18.7361 21.2774 18.4505 21.4452C18.2974 21.5267 18.1499 21.5688 18.0028 21.6123C17.997 21.6036 17.9264 21.4817 17.9258 21.4821C17.832 21.5107 17.5845 21.7429 17.5095 21.5679C17.505 21.4959 17.5008 21.424 17.4966 21.352C17.4872 21.3536 17.4778 21.3552 17.4683 21.3568C17.4661 21.5073 17.4663 21.4311 17.468 21.5842C17.3877 21.6387 17.2635 21.6163 17.143 21.607C16.9477 21.593 16.616 21.8048 16.447 21.5694C16.4337 21.5511 16.4468 21.4183 16.4508 21.3475C16.4424 21.3469 16.434 21.3463 16.4256 21.3457C16.4059 21.4108 16.3684 21.564 16.3479 21.5593C16.2379 21.5347 16.1386 21.9084 16.0738 21.5967C15.9927 21.6036 15.9139 21.7388 15.8569 21.682C15.8507 21.5753 15.8507 21.5256 15.8496 21.41C15.8423 21.4047 15.8351 21.3994 15.8278 21.3941C15.8055 21.444 15.7778 21.5065 15.7442 21.5818C15.5747 21.6418 15.4007 21.6715 15.2387 21.6469C15.1886 21.6393 15.097 21.7876 15.0721 21.7806C14.9106 21.7384 14.7437 21.8286 14.5851 21.8028C14.574 21.8012 14.5396 21.7192 14.535 21.7154C14.4887 21.6755 14.4711 21.526 14.421 21.5974C14.4116 21.6724 14.4022 21.7475 14.3928 21.8226C14.3815 21.8412 14.3702 21.8597 14.3589 21.8783C14.3315 21.7874 14.3372 21.7963 14.3188 21.6669C14.2512 21.7525 14.2795 21.8342 14.2499 21.8467C14.2119 21.8627 14.0389 21.733 14.011 21.774C13.9597 21.8497 13.9421 21.9724 13.864 22.0178C13.8615 21.9913 13.8589 21.9648 13.8564 21.9383C13.8354 21.7249 13.8388 21.6981 13.7922 21.6462C13.7831 21.6658 13.774 21.6855 13.7649 21.7051C13.7709 21.8006 13.7757 21.8872 13.7802 21.9846C13.7212 22.1369 13.3258 21.9193 13.2382 21.8916C13.2253 21.8208 13.2117 21.7544 13.1966 21.691C13.1866 21.6914 13.1768 21.6919 13.167 21.6924C13.1131 21.6474 13.0455 21.5405 13.0034 21.3693C13.0058 21.2847 13.0084 21.2001 13.0112 21.1155C13.1771 21.4827 13.6757 20.5422 13.7083 21.3939C13.7038 21.4119 13.6993 21.4299 13.6949 21.4479C13.6633 21.5767 13.6423 21.6371 13.6344 21.79C13.6435 21.8008 13.6525 21.8117 13.6616 21.8226C13.7293 21.6237 13.7348 21.3232 13.7515 21.0341C13.9007 20.7862 13.8337 21.2035 13.9342 21.1356C14.1204 21.0097 14.3048 20.6759 14.479 20.8336C14.5718 20.918 14.5541 20.9105 14.6287 20.6755C14.7345 20.6686 14.7356 20.7975 14.8216 20.865C14.8501 20.8876 14.9259 20.6617 15.001 20.6733C15.0075 20.8017 15.0078 20.7467 14.9927 20.9035C14.9993 20.9131 15.0058 20.9228 15.0123 20.9325C15.0455 20.8046 15.0311 20.8734 15.0487 20.7096C15.0548 20.7158 15.0609 20.722 15.0671 20.7282C15.0678 20.7772 15.0685 20.8263 15.0693 20.8754C15.1203 20.906 15.8065 20.5829 15.8237 20.6241C16.0487 21.1346 16.1213 20.3751 16.3684 20.8433C16.3834 20.8736 16.5205 20.6032 16.5956 20.6379C16.6252 20.7356 16.6222 20.755 16.635 20.9096C16.6441 20.9167 16.6531 20.9238 16.6621 20.9309C16.6923 20.7833 16.6833 20.835 16.703 20.6703C16.7107 20.6666 16.7184 20.663 16.726 20.6594C16.7333 20.6913 16.7405 20.7233 16.7478 20.7552C16.8098 20.6634 16.8074 20.6323 16.8576 20.6566C16.8828 20.7957 16.895 20.9211 16.9338 20.9679C16.9523 20.908 16.971 20.8482 16.9893 20.7883C17.0612 20.8101 17.1123 20.9558 17.2061 20.9126C17.2456 20.8949 17.5198 20.8124 17.5084 20.7776C17.6294 21.1624 17.7429 20.4264 17.84 21.0315C17.8841 20.9768 17.9131 20.9374 17.9526 20.9046C18.0109 21.0411 17.9985 21.0423 18.0476 21.0475C18.0629 20.9346 18.0555 20.8614 18.0448 20.6996C18.0489 20.6992 18.053 20.6988 18.057 20.6984C18.0635 20.7556 18.0698 20.8128 18.0759 20.87C18.1475 20.9928 18.1618 20.647 18.1345 20.6023C18.1434 20.5919 18.1548 20.586 18.1695 20.5863C18.1773 20.6013 18.1851 20.6163 18.1929 20.6313C18.2013 20.6796 18.2093 20.7281 18.2168 20.7766C18.2849 20.8825 18.3037 20.8889 18.3668 20.9535C18.3434 20.8395 18.3351 20.8185 18.2944 20.6871C18.2961 20.6719 18.2978 20.6567 18.2993 20.6415C18.3525 20.7368 18.3973 20.8129 18.4516 20.8932C18.4543 20.8788 18.457 20.8644 18.4596 20.8501C18.2002 20.1378 18.5817 20.6086 18.5167 20.3442C18.5031 20.314 18.4895 20.2838 18.4758 20.2536C18.4845 20.245 18.4931 20.2364 18.5017 20.2278C18.5201 20.2592 18.5385 20.2905 18.557 20.3219C18.5846 20.4008 18.6118 20.4799 18.6383 20.5593C18.6495 20.5738 18.6608 20.5883 18.6721 20.6028C18.741 20.4588 18.8203 20.3504 18.874 20.1936C18.944 20.2689 18.9158 20.2357 18.995 20.346C18.9993 20.3388 19.0036 20.3316 19.0079 20.3243C18.9493 20.195 18.8903 20.0669 18.8313 19.9394C18.8902 19.8446 19.1094 20.0452 19.112 19.8752C19.1131 19.7993 19.1207 19.7928 19.1777 19.8104C19.2484 19.9125 19.2422 19.911 19.3155 19.9922C19.3169 19.9831 19.3182 19.974 19.3195 19.9649C19.2862 19.9082 19.2528 19.8516 19.2193 19.7951C19.225 19.7915 19.2309 19.7877 19.2366 19.7841C19.2741 19.8314 19.3117 19.8787 19.3493 19.926C19.405 19.7778 19.2255 19.61 19.4319 19.5799C19.4477 19.5933 19.4634 19.6067 19.4792 19.6201C19.5148 19.68 19.5503 19.7401 19.5855 19.8003C19.6368 19.8007 19.6384 19.8062 19.6224 19.7247C19.5611 19.6238 19.5453 19.5995 19.4755 19.4958C19.5022 19.444 19.5204 19.4732 19.6842 19.6378Z" fill="black"/>
</svg>
