<svg width="48" height="48" viewBox="0 0 48 48" fill="none" xmlns="http://www.w3.org/2000/svg">
<path d="M17.5178 7.75201C19.4281 6.44749 17.7341 6.82828 20.4795 6.70103C22.5556 6.77164 21.8284 5.8044 24 6.63245C24.1526 6.69728 24.3175 6.77403 24.495 6.86513C24.6979 6.58374 24.6311 6.68376 24.6854 6.33335C25.2417 6.06629 30.3055 7.53881 31.1324 8.16752C31.214 8.31413 31.2927 8.46117 31.3685 8.60854C31.6879 8.70842 33.0502 9.26747 33.1686 9.397C34.2 10.3575 35.0786 11.1598 36.0147 12.184C35.9329 12.4891 35.9803 12.3842 35.7717 12.6115C36.0148 12.9368 36.1812 12.9021 36.5482 12.9196C37.0076 13.4537 38.7164 15.8105 39.4037 18.4492C40.1674 21.0689 39.9085 23.6761 39.6084 23.9853C39.5331 23.9903 39.4578 23.9952 39.3825 24C39.0546 23.5479 39.0227 22.9933 38.9582 22.4475C38.7785 20.9033 38.5934 19.2839 38.0307 17.7879C36.8146 14.5312 34.4219 11.6791 31.3258 9.81201C30.1897 9.12487 28.9538 8.58587 27.6479 8.25651C27.0199 8.09776 26.3242 8.05264 25.6965 7.9192C25.1327 7.79807 24.5631 7.57143 24 7.5684C23.7261 7.56686 23.4585 7.61849 23.2095 7.76009C22.5429 7.91 17.392 8.88486 16.4825 9.60637C15.4032 10.1513 14.4459 10.9008 13.5383 11.6817C12.8719 12.2541 12.1668 12.8178 11.618 13.5106C11.0577 14.2173 10.6869 15.0391 10.2698 15.8175C8.91429 18.3402 8.24098 21.1909 8.35712 24C8.40705 25.2669 8.61315 26.5203 8.97421 27.7189C8.9629 27.761 8.86092 28.3537 8.86669 28.362C9.11815 29.2168 10.3709 30.9447 10.4388 31.6878C10.3385 31.8024 10.2392 31.918 10.1408 32.0348C10.1875 32.1081 10.2348 32.181 10.2826 32.2534C10.5348 32.0882 10.4109 32.1782 10.6502 31.9822C11.0952 32.5129 11.6757 33.4293 12.3874 34.2384C13.5236 35.6085 15.9734 36.8628 17.2846 37.9259C17.3878 38.0135 17.2621 38.2488 17.2189 38.3854C17.289 38.4182 17.3594 38.4505 17.4301 38.4822C17.6027 38.4148 17.9228 38.2147 18.0886 38.2895C19.0263 38.6996 19.7499 38.1207 20.3972 38.9091C21.1015 39.047 21.6996 38.8547 22.2262 39.0195C22.3474 39.2461 22.3828 39.349 22.4724 39.5887C22.5413 39.6046 22.6103 39.62 22.6797 39.6349C22.8432 39.5445 23.0451 39.4285 23.2802 39.2828C23.5183 39.2684 23.7583 39.2502 24 39.2282C25.213 39.1183 26.4251 38.9084 27.5868 38.6373C28.0223 38.5398 28.5611 38.0444 28.7658 37.9808C30.1269 37.5689 31.2489 36.7536 32.378 35.9886C32.4571 35.9361 32.8441 35.847 32.8824 35.8254C33.2727 35.6182 33.6717 35.671 33.8623 35.305C33.778 35.1778 33.6933 35.0509 33.608 34.9244C33.6438 34.8409 33.6787 34.7572 33.7125 34.6735C34.0576 34.5951 34.0041 34.6219 34.3716 34.6204C34.6096 34.1261 34.2777 34.2345 34.4264 34.0394C34.6266 33.8098 35.8153 32.726 35.8536 32.4875C35.9475 32.0766 35.7925 31.8765 36.033 31.2929C36.0978 31.2872 36.1627 31.2812 36.2277 31.2746C36.7528 31.2142 36.7975 31.2499 37.0941 30.9022C37.0905 30.8225 37.0862 30.743 37.0813 30.6638C36.8609 30.6781 36.6632 30.6842 36.4455 30.6802C36.4546 30.2359 38.0237 27.0407 38.086 26.1702C38.2454 26.0594 38.3954 25.9398 38.5394 25.8025C38.5493 25.7106 38.5584 25.6186 38.5666 25.5263C38.7097 25.0191 38.9482 24.407 39.2896 24C39.4588 24.0319 39.6279 24.0648 39.7968 24.0987C39.2286 25.6543 39.9439 30.2694 37.9327 30.3089C37.9117 30.2668 37.8905 30.2248 37.8692 30.1829C37.7154 29.887 37.6602 29.6974 37.3718 29.594C37.3196 29.6653 37.2666 29.7366 37.2133 29.8069C37.3883 30.4082 37.9798 30.5496 38.517 30.7702C38.4425 32.0919 37.8388 31.4091 37.5339 32.2314C36.9311 33.7456 36.5083 35.3677 34.9689 36.3714C34.1467 36.8829 34.2962 36.759 34.1921 37.4529C33.3901 38.0874 33.1345 37.942 32.3182 38.2962C32.0477 38.4077 31.8271 39.0701 31.1471 39.3793C30.8681 39.2282 30.961 39.3055 30.8226 39.0227C30.7499 39.036 30.6773 39.0489 30.6046 39.0612C30.5334 39.3771 30.5411 39.2209 30.664 39.527C30.5992 39.5428 30.5344 39.5581 30.4698 39.573C30.3809 39.5044 30.2927 39.4352 30.2053 39.3654C29.8696 39.5937 25.7567 41.214 24 41.1916C23.6359 41.2219 23.4008 41.2246 23.3615 41.2095C20.7734 40.0358 20.4529 41.5455 17.9414 39.7701C17.8016 39.6608 16.5425 39.752 15.8405 39.302C15.5924 38.9523 15.6249 38.9234 15.5598 38.533C15.4846 38.4745 15.4101 38.4155 15.3361 38.3559C15.0262 38.5177 15.1209 38.4526 14.8897 38.6995C14.8206 38.6666 14.7518 38.6332 14.6832 38.5993C14.6318 38.4922 14.5818 38.3849 14.5333 38.2776C13.9574 38.1204 13.9638 38.1996 13.5568 37.8466C13.431 37.4067 13.423 37.0839 13.1589 36.7453C12.9713 36.7457 12.7826 36.7428 12.5928 36.7364C12.0603 36.2082 11.8287 35.5796 11.1641 34.9549C10.8327 34.7279 9.10823 32.5071 9.1447 32.6078C9.17594 31.1589 7.31272 30.4858 8.17764 29.2104C7.92846 28.7861 7.76505 28.4907 7.58781 28.0234C7.74239 27.4492 7.77621 27.607 7.69243 27.0758C7.41688 26.7992 7.27045 26.8007 6.92791 26.7108C6.91905 26.6527 6.91054 26.5949 6.90235 26.5372C7.01958 26.5434 7.13679 26.549 7.25397 26.5542C7.41655 25.8268 6.6408 25.1919 6.55438 24C6.54502 23.8617 6.54567 23.7173 6.55926 23.567C6.59337 23.5457 6.62752 23.5245 6.66171 23.5034C6.75442 23.627 6.84843 23.7489 6.94368 23.8691C7.19336 23.5732 7.22226 23.4174 7.40835 23.0622C7.19328 22.8204 7.14949 22.8119 6.88771 22.6415C6.8678 22.5532 6.84855 22.4648 6.82999 22.3761C7.05886 22.2616 7.24549 22.1569 7.45644 21.9981C7.44279 21.9094 7.42983 21.8204 7.41758 21.7313C5.98535 20.8521 7.54359 19.3119 7.26109 18.5623C7.2052 18.5202 7.14943 18.4778 7.09378 18.4351C7.13136 18.2979 7.17057 18.1613 7.21138 18.0252C7.28604 18.0323 7.36066 18.0396 7.43523 18.0472C7.5401 18.244 7.64816 18.4377 7.75927 18.6281C7.80471 18.6059 7.85018 18.5839 7.89568 18.5622C8.16039 17.1874 8.64458 15.9145 9.23315 14.5948C9.52749 14.5093 9.41415 14.5271 9.69961 14.5856C9.73698 14.5147 9.77477 14.4442 9.81325 14.3737C9.68935 14.055 9.57629 13.7294 9.47502 13.3957C10.1282 12.3506 11.1128 12.1139 11.6981 11.1581C11.9712 10.728 12.0705 10.6382 12.447 10.4375C12.606 10.6285 12.5659 10.6495 12.8209 10.7182C12.8648 10.6637 12.9092 10.6093 12.9539 10.5552C12.9152 10.4174 12.8776 10.279 12.8412 10.14C12.9021 10.0918 12.9633 10.0439 13.0248 9.99646C13.1288 10.0682 13.2323 10.1405 13.3353 10.2133C14.3876 9.23219 13.6971 9.05077 15.6526 8.17321C15.717 8.18488 15.7813 8.1969 15.8453 8.20927C15.8275 8.37448 15.812 8.53932 15.7987 8.70373C16.2224 8.55051 16.1976 8.5758 16.5009 8.26329C16.5318 7.98871 16.537 7.92297 16.5206 7.65597C17.0659 7.35703 17.0766 7.43405 17.5178 7.75201Z" fill="#34140B"/>
<path d="M21.2011 24.2301C20.7737 23.6252 20.7314 24.1237 21.0525 23.3631C21.3179 22.7361 20.5193 23.0326 21.3382 22.2263C21.1441 22.1802 21.2127 22.1952 20.9777 22.1947C20.906 22.0571 21.1065 20.5955 21.1014 20.3088C21.1663 20.2678 21.2311 20.2268 21.296 20.1858C21.2713 20.0912 21.1312 19.6823 21.1499 19.6346C21.3033 19.2337 21.3365 18.8873 21.3553 18.4846C21.5341 18.4294 21.4631 18.4447 21.668 18.4297C21.6955 18.308 21.5952 18.2856 21.4171 18.219C21.4437 17.8005 21.6218 14.8813 22.0042 14.6583C22.0542 14.6544 22.1043 14.6505 22.1544 14.6466C22.38 14.7793 22.3944 14.962 22.4081 15.1399C22.4476 15.6455 22.3165 16.1714 22.2785 16.6793C22.1951 17.7886 22.1272 18.8936 22.0191 20.0041C21.9796 20.412 21.9472 20.8178 21.9482 21.2252C21.9489 21.4202 22.0051 21.6289 21.9686 21.8236C21.9196 22.0854 21.6699 22.3539 21.9441 22.5766C22.1762 22.7646 22.054 24.3627 22.0595 24.6871C22.0649 25.0503 22.1387 25.4099 22.1603 25.7719C22.1714 25.9576 22.1482 26.1463 22.1441 26.3332L22.1649 26.4874L22.2939 26.4762C22.3744 26.4817 22.4546 26.4837 22.5346 26.4778C22.8051 26.4583 23.072 26.3409 23.3425 26.3135C24.0314 26.2431 24.7212 26.1897 25.4111 26.134L25.2192 26.3169C25.2003 25.7346 25.1797 25.1521 25.1458 24.5694C25.1588 24.557 25.3349 24.3951 25.3344 24.3926C25.3187 24.1228 25.0433 23.4457 25.2837 23.24C25.3801 23.2289 25.4766 23.2178 25.5731 23.2068C25.572 23.1802 25.5709 23.1536 25.5698 23.127C25.3691 23.1209 25.4708 23.1216 25.2663 23.1258C25.2018 22.9071 25.2424 22.5657 25.2627 22.2272C25.2949 21.6801 25.0224 20.7933 25.3403 20.2804C25.365 20.24 25.5426 20.2528 25.6373 20.2514C25.6382 20.2276 25.6392 20.2038 25.6401 20.18C25.5535 20.1364 25.3489 20.0596 25.3556 20.0019C25.3904 19.6862 24.891 19.4864 25.3088 19.2404C25.3002 19.0131 25.1195 18.8231 25.1957 18.6499C25.3386 18.6097 25.4051 18.5988 25.5598 18.5707C25.567 18.5491 25.5741 18.5275 25.5812 18.5058C25.5146 18.454 25.4308 18.3898 25.3301 18.312C25.25 17.8482 25.21 17.366 25.2427 16.903C25.2529 16.7602 25.0543 16.5344 25.0636 16.4627C25.12 15.997 24.9997 15.5415 25.0354 15.0843C25.0376 15.0524 25.1477 14.9362 25.1529 14.9224C25.1975 14.8044 25.3424 14.7304 25.3371 14.6353L25.9736 15.3033C25.9539 15.3053 25.9336 15.3139 25.9123 15.3313C25.9057 15.4322 25.8991 15.533 25.8925 15.6338C25.865 15.6599 25.8374 15.686 25.8099 15.712C25.7065 15.5947 25.7255 15.6058 25.6379 15.4363C25.4673 15.5582 25.5693 15.6631 25.4877 15.6833C25.3832 15.7094 24.8497 15.5569 24.7793 15.6142C24.6488 15.7205 24.622 15.8855 24.4057 15.9539C24.3923 15.9189 24.379 15.884 24.3656 15.849C24.2566 15.5673 24.2615 15.5315 24.1134 15.4669C24.0906 15.4939 24.0679 15.5208 24.0452 15.5477C24.0828 15.6742 24.1158 15.789 24.1503 15.9181C24.0117 16.128 22.7714 15.8692 22.4891 15.8327C22.4432 15.7388 22.3961 15.6508 22.3448 15.5667C22.314 15.5676 22.2833 15.5684 22.2525 15.5693C22.0787 15.5106 21.8719 15.3685 21.7432 15.1396C21.7533 15.0268 21.7634 14.914 21.7735 14.8013C22.2988 15.2974 23.5787 14.0104 23.8204 15.1389C23.8109 15.1633 23.8014 15.1877 23.7919 15.212C23.7251 15.3861 23.6737 15.4682 23.679 15.6723C23.7081 15.686 23.7371 15.6997 23.7662 15.7134C23.9277 15.4428 23.882 15.0425 23.8749 14.6565C24.2432 14.3129 24.1433 14.8742 24.4127 14.7738C24.9157 14.5874 25.3438 14.1225 25.8732 14.3103C25.9128 14.3243 25.9458 14.3363 25.9736 14.3455L26.2798 14.3189L26.2938 14.6815C26.2288 14.8497 26.2742 14.8305 26.5442 14.9698C26.5528 15.266 26.3804 15.294 26.2896 15.5512C26.2594 15.6368 26.5616 15.8007 26.5461 16.0133C26.3741 16.06 26.4478 16.0487 26.238 16.0411C26.225 16.0617 26.2121 16.0823 26.1991 16.1029C26.3702 16.1679 26.2781 16.1427 26.4975 16.1557C26.4892 16.1744 26.4809 16.193 26.4726 16.2116C26.4069 16.2246 26.3412 16.2376 26.2755 16.2507C26.2344 16.3999 26.6679 18.2636 26.6121 18.3253C25.9278 19.074 26.9444 19.1217 26.3138 19.9234C26.2728 19.9732 26.6325 20.3103 26.5837 20.5383C26.4521 20.6407 26.4262 20.6353 26.2189 20.6982C26.2091 20.7252 26.1993 20.7522 26.1895 20.7792C26.3863 20.8411 26.3173 20.8241 26.5372 20.8537C26.5417 20.8754 26.5463 20.8971 26.5509 20.9188C26.5079 20.9452 26.4648 20.9717 26.4218 20.9981C26.5423 21.1652 26.5841 21.1511 26.5495 21.3011C26.3622 21.3953 26.1938 21.4481 26.1293 21.5679C26.2085 21.6134 26.2876 21.6589 26.3668 21.7044C26.3338 21.9158 26.1357 22.0838 26.1868 22.3507C26.2087 22.4656 26.2917 23.2756 26.3382 23.2451C25.8111 23.5908 26.7715 24.0182 25.9482 24.2387C26.0118 24.3827 26.0573 24.4803 26.0902 24.6256C25.8953 24.7683 25.8975 24.7219 25.8762 24.8794C26.0188 24.981 26.1162 24.9917 26.3298 25.0425C26.3288 25.059 26.3278 25.0755 26.3268 25.092C26.2505 25.0817 26.1742 25.0715 26.0979 25.0612C25.8896 25.2797 26.4776 25.5377 26.395 25.9373C26.3724 25.9424 26.3497 25.9475 26.327 25.9527C26.2647 25.9155 26.2023 25.8783 26.1399 25.8412C25.9717 25.9186 25.9525 25.9638 25.836 26.0653C25.9851 26.1394 26.015 26.1422 26.1953 26.1939C26.2119 26.2193 26.2285 26.2448 26.2452 26.2702C26.1293 26.2953 26.031 26.319 25.9309 26.3512L25.9481 26.7999L25.4111 26.8465C25.4014 26.8205 25.391 26.7945 25.3799 26.7679C25.3545 26.784 25.3292 26.8001 25.3039 26.8162C25.116 27.8254 24.6197 27.0379 24.4337 27.3899C24.4273 27.4341 24.421 27.4782 24.4147 27.5223C24.3757 27.5271 24.3368 27.5319 24.2979 27.5367C24.2928 27.4882 24.2878 27.4397 24.2828 27.3912C24.3244 27.281 24.366 27.1709 24.4076 27.0607C24.3975 27.0366 24.3875 27.0125 24.3774 26.9883C23.9795 27.1155 23.5975 27.1884 23.1979 27.3299C23.1332 27.1956 23.1547 27.253 23.1241 27.0724C23.1013 27.0776 23.0786 27.0828 23.0558 27.088C23.0006 27.2758 22.9447 27.4623 22.8877 27.6481C22.6612 27.6929 22.482 27.5256 22.2939 27.4768L21.3038 27.5628L21.1446 26.3805C21.1627 26.2939 21.1562 26.2067 21.0937 26.1149C21.0046 25.9832 21.0016 25.9481 21.0587 25.8309C21.2242 25.8238 21.2183 25.8368 21.3609 25.7878C21.3511 25.7689 21.3413 25.75 21.3314 25.7311C21.2434 25.7191 21.1554 25.707 21.0673 25.695C21.0668 25.6736 21.0662 25.6523 21.0656 25.631C21.1454 25.6169 21.2253 25.6028 21.3052 25.5887C21.1689 25.1923 20.8531 25.3452 20.9585 24.7585C20.9848 24.7432 21.011 24.7278 21.0372 24.7125C21.1307 24.7333 21.2242 24.7542 21.3176 24.775C21.3534 24.6476 21.3609 24.6557 21.2565 24.5458C21.0983 24.5124 21.0594 24.5055 20.8921 24.487C20.8516 24.3202 20.8976 24.3254 21.2011 24.2301ZM27.0484 32.7692C27.18 33.3634 27.413 33.1187 26.7999 33.3791C26.3771 33.5108 26.8094 33.8165 26.367 33.7914C26.2898 33.7779 26.1757 33.7545 26.0251 33.7018C26.1203 33.8722 26.0857 33.8127 26.2294 33.9984C26.2118 34.0561 25.948 34.2055 25.6527 34.2978C25.3577 34.395 25.0475 34.4263 24.9529 34.4496C24.9085 34.3934 24.8656 34.3364 24.824 34.2788C24.773 34.3174 24.5319 34.4924 24.4962 34.4747C24.2458 34.3606 24.0585 34.3168 23.8525 34.2804C23.8274 34.2758 23.802 34.2713 23.7764 34.2667C23.7528 34.085 23.7587 34.1568 23.7607 33.9514C23.6967 33.9163 23.6793 34.0144 23.6256 34.1864C23.509 34.1595 23.0145 34.0209 22.6572 33.7122C22.2908 33.411 22.1231 33.0006 22.2277 32.8309C22.2615 32.7938 22.2953 32.7566 22.3291 32.7195C22.5228 32.6008 22.575 32.638 22.6321 32.6753C22.788 32.7754 22.8803 33.005 23.0625 33.1349C23.2833 33.2945 23.5551 33.4103 23.8525 33.4876C24.0761 33.5458 24.3093 33.5843 24.5554 33.5939C24.7655 33.6022 24.9837 33.5751 25.181 33.4885C25.2762 33.4465 25.3438 33.3491 25.4518 33.3272C25.5788 33.3031 25.8191 33.3785 25.8128 33.1961C25.8104 33.1745 25.8052 33.1477 25.7948 33.1164C25.7567 32.9985 25.914 32.836 26.0663 32.6471C26.2216 32.4618 26.3654 32.2409 26.3971 32.1583C26.4725 31.9746 26.4559 31.7703 26.4683 31.582C26.4739 31.4992 26.5004 31.417 26.5152 31.3327C26.5253 31.2751 26.53 31.2171 26.5185 31.1601C26.4901 31.0155 26.3539 30.8935 26.2966 30.7699C26.1108 30.3626 25.828 30.0386 25.4828 29.8191C25.3266 29.7145 25.1638 29.6362 24.9963 29.588C24.9993 29.575 25.0133 29.3907 25.0106 29.3904C24.8745 29.3463 24.515 29.5429 24.4834 29.3031C24.4997 29.2084 24.5151 29.1136 24.5297 29.0185C24.5161 29.0177 24.5025 29.017 24.4889 29.0164C24.4468 29.2128 24.4673 29.1132 24.4288 29.3137C24.3198 29.3654 24.1788 29.3175 24.0264 29.3048C23.9746 29.3004 23.915 29.3116 23.8525 29.3304C23.6122 29.3993 23.4009 29.5778 23.1735 29.4046C23.1502 29.3875 23.1021 29.2162 23.073 29.1262C23.0618 29.1297 23.0507 29.1332 23.0396 29.1368C23.0463 29.2275 23.0823 29.4344 23.0583 29.4385C22.9111 29.4707 23.0753 29.9553 22.8002 29.6416C22.7248 29.7044 22.7694 29.9014 22.6772 29.8831C22.5811 29.7786 22.5377 29.7287 22.4343 29.6145C22.4226 29.6155 22.4109 29.6167 22.3991 29.6179C22.4229 29.6865 22.4545 29.7717 22.497 29.8715C22.4729 29.9299 22.4491 29.9865 22.4244 30.0409C22.3653 30.1717 22.308 30.2836 22.2346 30.3771C22.2001 30.4209 22.3424 30.5914 22.3282 30.6058C22.2256 30.7231 22.3149 30.8997 22.277 31.0287C22.2745 31.0373 22.1652 31.0584 22.16 31.0631C22.1066 31.1022 21.9077 31.1166 22.0045 31.1725C22.1048 31.1829 22.2052 31.1929 22.3056 31.2025C22.3309 31.2131 22.3564 31.2233 22.3819 31.2332C22.263 31.2592 22.2744 31.253 22.104 31.2788C22.2235 31.3417 22.3282 31.3068 22.3497 31.3327C22.3499 31.3329 22.3501 31.3332 22.3503 31.3335C22.374 31.365 22.2339 31.5449 22.2962 31.5604C22.4071 31.5847 22.5708 31.5656 22.6476 31.5979C22.6141 31.6083 22.5806 31.619 22.5473 31.63C22.2795 31.7211 22.2448 31.7322 22.1953 31.7944C22.2233 31.7939 22.2511 31.7929 22.2789 31.7916C22.3965 31.7436 22.5042 31.7032 22.6264 31.6609C22.8269 31.6292 22.6819 31.9313 22.7187 32.0283C22.6515 32.0949 22.5908 32.1601 22.5361 32.2259C22.5429 32.2328 22.5497 32.2396 22.5567 32.2463C22.547 32.3256 22.4923 32.4737 22.3742 32.677C22.2934 32.7558 22.2122 32.8342 22.1305 32.9121C22.2145 32.6492 21.9456 32.6497 21.7325 32.5355C21.5224 32.4305 21.3998 32.2298 21.9163 31.9955C21.9404 31.9907 21.9645 31.9857 21.9886 31.9805C22.1605 31.9431 22.2422 31.9257 22.4308 31.8479C22.4406 31.8355 22.4506 31.8234 22.4607 31.8116C22.1924 31.8663 21.8158 32.0006 21.4538 32.1351C21.0666 32.056 21.6207 31.9442 21.4944 31.8484C21.3204 31.7066 21.0062 31.547 20.9446 31.3327C20.9241 31.2621 20.9324 31.1873 20.9849 31.1146C21.0986 30.961 21.0883 31.0007 20.782 30.8658C20.7893 30.678 20.9634 30.6873 21.0782 30.5616C21.1164 30.523 20.8467 30.3409 20.9048 30.2086C21.0752 30.2393 21.0038 30.2214 21.1986 30.2997C21.2143 30.2928 21.2301 30.2862 21.2459 30.2797C21.0993 30.1802 21.1802 30.228 20.9796 30.1383C20.9913 30.1301 21.003 30.122 21.0148 30.114C21.0782 30.1316 21.1413 30.1499 21.2042 30.1689C21.2358 30.1252 21.3239 29.4397 21.527 29.0974C21.5897 28.9746 21.6473 28.8937 21.6646 28.8974C22.0661 28.9879 22.0972 28.8644 22.1622 28.7084C22.2194 28.5603 22.3195 28.3823 22.6748 28.5635C22.7125 28.5892 22.7939 28.1636 22.963 28.1634C23.0629 28.2698 23.0659 28.2962 23.1513 28.4867C23.1694 28.4917 23.1872 28.4969 23.2049 28.5022C23.1997 28.3002 23.2044 28.3703 23.1776 28.1505C23.1907 28.1425 23.2037 28.1345 23.2168 28.1267C23.2423 28.1647 23.2672 28.203 23.2914 28.2416C23.3753 28.1 23.3633 28.0602 23.4648 28.0772C23.5495 28.2526 23.5969 28.4152 23.671 28.4701C23.6913 28.3877 23.713 28.3056 23.7364 28.2236C23.777 28.2294 23.8149 28.2514 23.8525 28.2775C23.9385 28.3371 24.0176 28.417 24.13 28.3806C24.1944 28.3478 24.7142 28.3128 24.7088 28.2736C24.7651 28.5493 24.8991 28.467 25.0362 28.4315C25.1686 28.3941 25.2985 28.4048 25.1951 28.8054C25.3014 28.7784 25.3779 28.7619 25.4763 28.7728C25.4621 28.9829 25.4352 28.9662 25.5067 29.0287C25.6351 28.9372 25.6944 28.8597 25.8406 28.6986C25.8497 28.7053 25.8589 28.712 25.8679 28.7188C25.8194 28.7784 25.7712 28.8382 25.7232 28.8983C25.719 29.1133 26.1068 28.8282 26.3154 28.9525L26.3038 28.9415C26.3277 28.9551 26.3484 28.9739 26.3646 28.9991C26.352 29.0181 26.3393 29.0371 26.3266 29.056C26.2651 29.0853 26.2045 29.1159 26.1446 29.1474C26.0701 29.3035 26.078 29.3349 26.0418 29.4578C26.1795 29.3812 26.2021 29.3616 26.3553 29.2584C26.3795 29.2584 26.4038 29.2587 26.4281 29.2592C26.3372 29.3748 26.2642 29.4686 26.1877 29.575C26.2097 29.5761 26.2319 29.5777 26.254 29.5795C27.1266 29.0448 26.7034 29.8217 27.0572 29.7561C27.0985 29.7396 27.1398 29.7234 27.1812 29.7074C27.1997 29.7323 27.2178 29.7575 27.2356 29.7831C27.1938 29.808 27.1519 29.8327 27.1099 29.8573C26.997 29.8769 26.8852 29.8998 26.7744 29.9257C26.7562 29.9429 26.7379 29.96 26.7195 29.9769C26.9532 30.1548 27.113 30.386 27.3085 30.6401C27.1857 30.7116 27.239 30.6856 27.0653 30.7393C27.0732 30.7532 27.081 30.7673 27.0887 30.7814C27.2799 30.7863 27.4706 30.7988 27.6606 30.8182C27.738 31.017 27.5172 31.1799 27.5099 31.3327C27.5079 31.3749 27.521 31.4176 27.5587 31.4657C27.6377 31.5677 27.6369 31.5975 27.5674 31.6768C27.4025 31.6612 27.4097 31.6538 27.2629 31.6693C27.2705 31.6834 27.278 31.6976 27.2854 31.7119C27.3711 31.7324 27.4566 31.7538 27.542 31.776C27.5397 31.7918 27.5373 31.8078 27.5348 31.8236C27.454 31.8209 27.3733 31.8176 27.2926 31.8139C27.3604 32.1103 27.7082 32.0928 27.4455 32.5016C27.4164 32.5036 27.3873 32.5054 27.3583 32.5069C27.2775 32.4579 27.1961 32.4103 27.114 32.3643C27.0456 32.4364 27.0419 32.4254 27.1046 32.5389C27.2392 32.6241 27.2721 32.6451 27.4179 32.7279C27.3947 32.8669 27.3518 32.8468 27.0484 32.7692Z" fill="#34140B"/>
</svg>
