<svg width="124" height="40" viewBox="0 0 124 40" fill="none" xmlns="http://www.w3.org/2000/svg">
<path fill-rule="evenodd" clip-rule="evenodd" d="M20.9684 28.6552C20.937 28.7018 20.8997 28.7572 20.8542 28.8247C20.8823 28.7829 20.9074 28.7457 20.9298 28.7124C20.9436 28.6919 20.9565 28.6729 20.9684 28.6552Z" fill="#F6F2EC"/>
<path fill-rule="evenodd" clip-rule="evenodd" d="M33.5839 32.341L33.5873 32.3442C33.7994 32.5408 34.0115 32.7373 34.2236 32.9338C34.0103 32.7362 33.7971 32.5386 33.5839 32.341ZM25.0945 29.1014C25.0855 29.0926 25.0761 29.0833 25.0662 29.0735L25.0256 29.0334C25.0515 29.0589 25.0742 29.0813 25.0945 29.1014Z" fill="#F6F2EC"/>
<path fill-rule="evenodd" clip-rule="evenodd" d="M28.5652 7.84429C27.6344 7.91731 24.2859 9.15087 23.4274 10.1123C23.0405 10.5456 22.6244 11.2418 22.2444 11.8775C21.7814 12.6524 21.3719 13.3375 21.1342 13.3477C20.8864 13.3584 20.2745 12.9828 19.6678 12.6103C19.5999 12.5686 19.5318 12.526 19.4636 12.4833C19.1366 12.2788 18.8037 12.0706 18.4448 11.9334C17.8487 11.7047 15.2493 10.7077 13.2202 11.6406C11.1602 12.5876 10.3817 14.6126 10.2381 15.9014C10.0945 17.1902 10.8268 19.437 11.2582 20.1449C11.5931 20.6947 12.8222 21.445 13.6122 21.9274L13.6138 21.9283C14.5965 22.5283 15.4963 23.2547 16.3908 23.9769L16.3917 23.9776C16.4836 24.0518 16.5754 24.1259 16.6672 24.1999L16.6688 24.2033C17.0191 24.4183 18.1175 25.1223 18.9915 25.6825C19.8896 26.2578 20.8127 26.7701 21.756 27.2673L21.8356 27.3085C21.775 27.3991 21.7489 27.4677 21.687 27.5599C21.4854 27.8607 21.3014 28.1353 21.2901 28.1564C21.2795 28.1736 21.2695 28.1896 21.2603 28.2046C21.2015 28.2994 21.1679 28.3535 21.1335 28.407C21.0877 28.4783 21.0403 28.5486 20.9298 28.7124C20.9074 28.7457 20.8823 28.7829 20.8542 28.8247C19.7661 30.4229 18.8869 32.0997 17.9953 33.8004L17.7588 34.2512C17.4997 34.8054 17.1974 35.4516 17.0496 35.715C17.0371 35.7372 17.0255 35.7587 17.0144 35.7794L17.0123 35.7833C16.9248 35.9449 16.8669 36.0517 16.6654 36.0768C16.3256 35.8685 16.1157 35.6959 15.9376 35.5494L15.9367 35.5486C15.6076 35.2778 15.3874 35.0966 14.6561 34.9458C14.3283 34.8776 13.4343 34.8029 13.18 34.9458C11.9767 35.6224 12.012 36.5725 12.9274 37.454C14.1656 38.6467 15.9125 39.4014 16.6958 39.497C16.8336 39.516 16.9966 39.5658 17.1668 39.618C18.113 39.9078 18.677 39.497 18.8677 39.1653C19.2515 38.4986 19.6361 37.8316 20.0208 37.1646C20.23 36.802 20.4391 36.4394 20.6481 36.0768C20.9377 35.5744 21.2714 34.9945 21.5757 34.4652C21.824 34.033 22.0526 33.6346 22.2214 33.3397C22.3414 33.13 22.5601 32.7835 22.829 32.3576L22.8322 32.3525C23.3013 31.6093 23.9221 30.6257 24.4388 29.7046C24.4494 29.6859 24.4597 29.6786 24.4668 29.6698L24.4745 29.6601L24.4763 29.658L24.9989 29.0066C25.0133 29.0214 25.0225 29.0307 25.0256 29.0334L25.0662 29.0735C25.1456 29.1519 25.191 29.1967 25.2356 29.2422C25.295 29.3029 25.3531 29.3648 25.4886 29.5091C25.5161 29.5384 25.5468 29.5711 25.5814 29.6079C26.9 31.0258 28.3444 32.2608 29.8093 33.5131L30.1975 33.8453C30.6822 34.2231 31.2473 34.6639 31.4719 34.8672C31.491 34.8845 31.5095 34.9007 31.5272 34.9162L31.5304 34.919C31.6689 35.0407 31.7605 35.1212 31.7385 35.321C31.4551 35.6001 31.2367 35.7622 31.0515 35.8998L31.0507 35.9004C30.7083 36.1546 30.4792 36.3247 30.1617 36.994C30.0187 37.2938 29.7383 38.1374 29.8199 38.4154C30.2061 39.7308 31.148 39.9167 32.2263 39.2394C33.6852 38.3234 34.8315 36.8159 35.1068 36.0838C35.1574 35.9554 35.2442 35.8101 35.3348 35.6582C35.8388 34.8142 35.5656 34.176 35.2839 33.9155C34.7184 33.3924 34.1529 32.8683 33.5873 32.3442L33.5839 32.341L33.577 32.3346C33.2716 32.0517 32.9662 31.7687 32.6608 31.4858C32.2342 31.0907 31.7415 30.6349 31.2918 30.2194C30.9246 29.8802 30.586 29.5678 30.3353 29.3369C30.157 29.1729 29.8673 28.8822 29.5111 28.5247L29.5105 28.5241L29.5065 28.5201C28.8732 27.8847 28.0312 27.0399 27.2325 26.3202C27.234 26.3193 27.1615 26.2438 27.0775 26.1568C27.3101 25.7265 27.5604 25.2648 27.8139 24.7973C28.6464 23.2618 29.5128 21.664 29.8926 20.9126C30.2137 20.4569 30.4257 20.0633 30.5855 19.7665L30.5862 19.7653C30.7917 19.3836 31.0425 19.0379 31.2968 18.6872C31.3135 18.6642 31.3302 18.6412 31.3469 18.6181L31.3586 18.6019L31.3596 18.6008C31.982 17.7421 32.883 16.4989 33.0482 16.0664C33.3175 15.3615 33.9676 13.4514 33.9503 13.0559C33.9486 13.0181 33.9481 12.9641 33.9474 12.8968C33.9411 12.2597 33.4594 10.1776 32.365 9.29896C31.155 8.32736 29.496 7.77127 28.5652 7.84429ZM24.1501 23.7714C24.2363 23.6164 24.3227 23.4607 24.4093 23.3045C25.0316 22.1831 25.6666 21.0387 26.3289 19.9483L26.3297 19.9471C26.6905 19.3532 26.9812 18.8301 27.2582 18.3315C27.7607 17.4272 28.2185 16.6034 28.9679 15.5852C29.3953 15.0039 29.7092 14.572 29.7561 14.4631C30.0891 13.6893 30.1538 12.5006 29.7587 11.8572C29.3635 11.2138 28.2243 11.0977 27.2978 11.2696C25.9304 11.5232 23.8061 14.2758 23.1515 15.4831C23.1063 15.5665 23.0622 15.6518 23.018 15.7376C22.8939 15.9781 22.768 16.222 22.6094 16.4366C22.3893 16.7346 21.5648 16.6048 21.1139 16.5338C20.3375 16.4121 19.5712 15.8959 18.8302 15.3968C18.433 15.1292 18.043 14.8665 17.6625 14.672C17.1234 14.3971 16.4501 14.3351 15.7057 14.468L15.6543 14.4771L15.6098 14.485C14.4619 14.6889 13.8208 14.8027 13.9629 16.0874C14.0385 16.7636 14.2484 17.2011 14.6313 17.775C15.8223 19.5594 17.518 20.5487 19.2592 21.5645C19.6435 21.7887 20.03 22.0142 20.4138 22.2498C21.1183 22.6825 22.0552 23.2659 23.0104 23.8634L23.856 24.3493C23.9635 24.1634 24.0427 23.9953 24.0949 23.8844C24.119 23.8333 24.1373 23.7944 24.1501 23.7714Z" fill="#F6F2EC"/>
<path d="M36.9388 2.33243C37.1617 2.21369 37.744 1.88763 37.9935 1.92113C40.0552 2.19855 38.2036 4.07362 37.4863 4.72653C36.8566 5.29951 36.1713 6.11146 35.3827 6.46645L34.9586 6.6638C34.2641 6.9831 34.1835 6.96423 33.4867 6.7139C33.4334 6.36257 33.123 5.85666 33.2663 5.52994C33.4746 5.03369 34.032 4.76645 34.3682 4.43346C34.8657 3.94063 35.244 3.54001 35.8315 3.13977C36.2232 2.87296 36.4917 2.56161 36.9388 2.33243Z" fill="#F6F2EC"/>
<path d="M6.31224 21.4214C7.54071 21.3496 8.72438 22.1572 7.53156 23.3138C6.81053 24.0129 5.01504 25.0945 4.00815 25.1292C3.46545 25.1244 3.13402 25.1369 2.60413 24.998C2.43851 24.8363 2.35467 24.7436 2.20996 24.5622C2.44267 24.2455 2.7566 23.9365 2.98961 23.5884C3.18874 23.2909 3.68399 22.9279 3.96797 22.6913C4.72495 22.0607 5.29332 21.5207 6.31224 21.4214Z" fill="#F6F2EC"/>
<path d="M26.7068 0C27.0476 0.010253 27.238 0.156343 27.4655 0.376885C27.6253 1.16793 27.4026 1.7465 27.2257 2.53091C27.1338 2.93848 26.8544 3.22677 26.8759 3.7379C26.8897 4.06941 26.1352 4.59778 25.8455 4.83053C25.349 4.87183 25.2732 4.97536 24.7295 4.89409C24.689 4.87269 24.6557 4.87927 24.6095 4.87875C24.4307 4.87679 24.1458 4.77341 23.9997 4.67047C23.9398 4.62825 23.8528 4.5415 23.8469 4.46582C23.8268 4.20722 24.9574 1.6625 25.1557 1.27875C25.3157 0.968942 25.5117 0.616013 25.7461 0.355362C25.9948 0.0787556 26.351 0.0213897 26.7068 0Z" fill="#F6F2EC"/>
<path d="M15.1012 2.49062C15.4641 2.4384 15.8337 2.4552 16.1904 2.54007C16.8536 2.70355 17.1578 3.02393 17.4934 3.59314C17.8458 4.14978 18.3867 5.05018 17.9471 5.69482C17.9208 5.73345 16.9617 6.37915 16.8662 6.43567C15.2823 6.82857 14.5778 4.25987 13.9023 3.25411C14.4638 2.99969 14.3801 2.59032 15.1012 2.49062Z" fill="#F6F2EC"/>
<path d="M5.71826 6.13672C6.0637 6.15065 6.19308 6.23153 6.56232 6.33283C7.42615 6.56974 9.45346 7.53894 9.71107 8.38769C9.8359 8.79897 8.56463 9.59229 8.01309 9.61433C7.74863 9.65614 7.29907 9.51215 7.07911 9.35831C6.45724 8.92336 5.85193 8.46165 5.23748 8.0162C4.9049 7.77512 4.54003 7.57217 4.21342 7.32271C4.16359 7.28457 4.01657 6.97176 3.97949 6.8944C4.33836 6.73207 4.43583 6.56943 4.69087 6.26763C5.07921 6.1954 5.32484 6.14293 5.71826 6.13672Z" fill="#F6F2EC"/>
<path d="M2.76354 14.3946C3.36804 14.3903 3.94327 14.5356 4.53722 14.6426C5.00589 14.7271 6.43259 14.8057 6.5055 15.428C6.37934 16.0209 5.66451 16.2862 5.20564 16.6673C4.90963 16.5974 4.28528 16.6164 3.94885 16.6081C3.56354 16.6145 3.03768 16.6749 2.65905 16.6255C1.9356 16.5312 1.31421 16.3934 0.576565 16.3252C0.345992 16.0319 0.301168 15.9764 0 15.7467C0.701208 15.058 0.806645 14.7672 1.80929 14.5845C2.12222 14.5275 2.3964 14.4348 2.76354 14.3946Z" fill="#F6F2EC"/>
<path fill-rule="evenodd" clip-rule="evenodd" d="M48.9657 5.5634C49.2962 5.56334 53.7898 5.45034 54.0858 5.71184C54.3812 5.9735 54.0858 7.13377 54.0858 7.39543C54.0859 7.6576 54.2391 8.65949 53.8553 8.80168C53.4693 8.94362 50.3768 8.78008 50.1795 8.96477C50.0123 9.1217 50.0204 10.0957 50.0204 10.7636C50.0204 11.435 50.0809 12.9723 50.0809 13.2675C50.0809 13.5619 50.0204 15.376 50.0204 15.8993C50.0204 16.3645 50.1795 18.7124 50.1795 19.0068C50.1791 19.3011 49.6871 19.6933 49.4247 19.6933H47.1932C46.9635 19.6933 46.7987 19.3988 46.7987 19.039C46.7987 18.8664 46.7521 17.1172 46.7333 15.0663C46.7206 13.6846 46.7333 12.0765 46.7333 11.0585C46.7333 10.4698 46.7659 9.29186 46.6346 9.0302C46.4864 8.73825 44.7308 8.93254 44.37 8.93254C44.0086 8.93261 42.9353 9.03042 42.7294 8.80168C42.5237 8.57285 42.6638 7.59244 42.6639 7.39543C42.6639 7.19926 42.5341 6.05371 42.7948 5.79289C43.0245 5.564 45.4137 5.84256 46.0438 5.8427C46.733 5.8427 48.6375 5.5634 48.9657 5.5634Z" fill="#F6F2EC"/>
<path fill-rule="evenodd" clip-rule="evenodd" d="M111.229 23.925C112.132 23.8715 113.344 23.7996 113.509 23.964C113.77 24.2244 115.478 26.8098 115.478 27.006C116.046 27.9083 117.224 29.7992 117.382 30.1457C117.579 30.5783 118.432 31.617 118.694 31.6173C118.957 31.6173 119.022 31.0296 119.022 30.7677V27.6925C119.022 27.526 119.008 27.2233 118.991 26.8615C118.945 25.8725 118.879 24.4402 119.022 24.1281C119.177 23.794 119.697 23.8838 120.008 23.9377C120.092 23.9523 120.162 23.964 120.204 23.964C120.401 23.964 122.009 23.9645 122.206 24.1281C122.386 24.2779 122.38 26.3452 122.378 27.0959C122.378 27.1652 122.377 27.2234 122.377 27.2677C122.377 27.4181 122.377 27.6547 122.376 27.924C122.374 28.5922 122.372 29.4617 122.377 29.713C122.38 29.8668 122.348 30.3487 122.311 30.9054C122.263 31.6248 122.206 32.4696 122.206 32.8937C122.206 33.0862 122.213 33.4815 122.221 33.9689C122.244 35.3887 122.279 37.5897 122.206 37.8322C122.117 38.126 119.679 37.9167 118.889 37.8488C118.803 37.8414 118.736 37.8354 118.694 37.8322C118.268 37.7992 117.673 36.215 117.382 35.7716C117.186 35.4736 116.502 34.4714 116.106 34.0109L116.102 34.005C115.967 33.8436 115.785 33.5166 115.62 33.2189C115.502 33.0063 115.392 32.809 115.313 32.6974C114.854 32.0433 114.428 30.8986 113.41 30.8986C113.148 30.9569 113.363 33.7097 113.345 35.0197C113.338 35.4613 113.345 37.4258 113.345 37.506C113.345 37.8658 113.18 38.1603 112.95 38.1603H110.719C110.456 38.1603 109.964 37.7681 109.964 37.4738C109.964 37.3433 109.996 36.8095 110.03 36.215C110.074 35.468 110.123 34.6251 110.123 34.3664C110.123 34.0672 110.071 33.362 110.026 32.758C109.993 32.305 109.964 31.9085 109.964 31.7824C109.964 31.665 109.989 31.3433 110.02 30.9562C110.065 30.3709 110.123 29.6358 110.123 29.2316C110.123 28.6273 110.086 27.9412 110.05 27.2687C109.959 25.5738 109.874 23.964 110.391 23.964C110.568 23.964 110.874 23.9459 111.229 23.925Z" fill="#F6F2EC"/>
<path fill-rule="evenodd" clip-rule="evenodd" d="M84.709 23.925C85.612 23.8715 86.8242 23.7996 86.9893 23.964C87.2504 24.2244 88.958 26.8098 88.958 27.006C89.5268 27.9083 90.7045 29.7992 90.8623 30.1457C91.0592 30.5783 91.9121 31.617 92.1748 31.6173C92.4373 31.6173 92.5029 31.0296 92.5029 30.7677V27.6925C92.5029 27.526 92.4886 27.2233 92.4717 26.8615C92.4255 25.8725 92.359 24.4402 92.5029 24.1281C92.6577 23.794 93.1772 23.8838 93.4883 23.9377C93.5729 23.9523 93.6424 23.964 93.6846 23.964C93.8815 23.964 95.4896 23.9645 95.6865 24.1281C95.8667 24.2778 95.8608 26.3452 95.8584 27.0959C95.8582 27.1652 95.8574 27.2234 95.8574 27.2677C95.8574 27.4181 95.8571 27.6547 95.8564 27.924C95.8549 28.5922 95.8528 29.4617 95.8574 29.713C95.8603 29.8668 95.8281 30.3487 95.791 30.9054C95.743 31.6248 95.6865 32.4696 95.6865 32.8937C95.6865 33.0862 95.6932 33.4815 95.7012 33.9689C95.7243 35.3887 95.7598 37.5897 95.6865 37.8322C95.5976 38.126 93.1599 37.9167 92.3691 37.8488C92.2834 37.8414 92.2166 37.8354 92.1748 37.8322C91.7482 37.7991 91.1531 36.215 90.8623 35.7716C90.6668 35.4736 89.9826 34.4714 89.5869 34.0109L89.582 34.005C89.4473 33.8436 89.2658 33.5166 89.1006 33.2189C88.9826 33.0063 88.8723 32.809 88.7939 32.6974C88.3344 32.0433 87.9081 30.8986 86.8906 30.8986C86.6282 30.957 86.8437 33.7098 86.8252 35.0197C86.819 35.4613 86.8252 37.4259 86.8252 37.506C86.8252 37.8658 86.6604 38.1603 86.4307 38.1603H84.1992C83.9366 38.1602 83.4444 37.7681 83.4443 37.4738C83.4443 37.3433 83.476 36.8095 83.5107 36.215C83.5544 35.468 83.6035 34.6251 83.6035 34.3664C83.6035 34.0672 83.5513 33.362 83.5068 32.758C83.4735 32.305 83.4443 31.9085 83.4443 31.7824C83.4444 31.665 83.4697 31.3433 83.5 30.9562C83.5458 30.3709 83.6035 29.6358 83.6035 29.2316C83.6035 28.6273 83.5662 27.9412 83.5303 27.2687C83.4397 25.5738 83.3542 23.964 83.8711 23.964C84.0484 23.964 84.3549 23.9459 84.709 23.925Z" fill="#F6F2EC"/>
<path d="M57.44 5.31939C58.4302 5.31283 62.6675 5.28443 63.7202 5.4522C63.9141 5.47836 64.2785 5.56443 64.4409 5.67291C65.3983 6.31291 66.1894 6.91978 66.6587 7.99517C66.887 8.51849 66.9527 9.46749 66.9527 10.1544C66.9527 11.1347 66.294 11.9179 65.5991 12.5088C65.1688 12.8748 64.6613 13.3063 64.5972 13.3956C64.4669 13.577 64.4513 13.7669 64.5025 13.9629L64.9605 14.7129L65.1909 15.0606C66.0633 16.6641 66.9006 18.0591 67.232 18.6114L67.2329 18.6124L67.2339 18.6153L67.2349 18.6172C67.3123 18.7462 67.3618 18.8281 67.3765 18.8545C67.5509 19.1688 67.1484 19.3906 66.9527 19.3907H64.6382C64.373 19.3923 63.8365 19.3957 63.7036 19.1563C63.6403 19.0421 63.4094 18.5616 63.1519 18.0264L63.1509 18.0245C62.8268 17.3509 62.461 16.5906 62.3355 16.3643C62.3246 16.3448 62.3127 16.3229 62.2993 16.2999C62.1705 16.0787 61.9032 15.6811 61.6402 15.2891C61.3735 14.8919 61.3462 14.3784 60.9995 14.3038C60.6528 14.2292 60.3861 14.3045 60.2984 14.3086C60.1703 14.3147 60.0478 14.4234 59.9634 14.5626C59.8905 14.6828 59.9124 15.3252 59.9077 15.5508C59.9072 15.5775 59.9068 15.6027 59.9068 15.6251C59.9068 15.882 59.9545 16.7131 59.9976 17.4551L59.9986 17.46V17.4717L59.9995 17.4737C60.0341 18.068 60.065 18.6021 60.065 18.7325C60.0645 19.0268 59.5748 19.419 59.314 19.419H57.0962C56.868 19.4188 56.7046 19.1244 56.7046 18.7647C56.7046 18.692 56.7011 18.3088 56.6948 17.7364C56.6764 16.0391 56.6402 12.6755 56.6402 10.7842C56.6402 10.3266 56.5904 9.53113 56.5611 9.06255L56.5601 9.06158V9.05279C56.552 8.92215 56.6423 6.38371 56.6392 6.31451C56.6392 5.56232 56.8542 5.32046 57.2456 5.32037C57.2727 5.32037 57.3399 5.32005 57.44 5.31939ZM62.9165 8.70709C61.8482 8.37881 60.2003 8.56459 60.065 8.69048C59.9061 8.84048 59.9064 9.73731 59.9068 10.3995C59.9069 10.6423 59.9167 10.8846 59.9312 11.127C59.9966 11.2819 60.1857 11.377 60.396 11.4297C61.1839 11.6273 62.7265 11.5795 63.3648 10.9395C63.5278 10.7759 63.6906 10.2526 63.6255 9.59869C63.5903 9.2457 63.4055 8.9158 63.1294 8.78326C63.126 8.78164 63.1221 8.78091 63.1187 8.77935C63.1052 8.77316 63.0915 8.76698 63.0777 8.76177C63.0689 8.75848 63.0602 8.75491 63.0513 8.75201C63.0063 8.73795 62.9616 8.72093 62.9165 8.70709Z" fill="#F6F2EC"/>
<path d="M71.6265 24.0958C72.6167 24.0892 76.8541 24.0608 77.9068 24.2286C78.1007 24.2547 78.4651 24.3408 78.6275 24.4493C79.5848 25.0893 80.3759 25.6961 80.8452 26.7715C81.0736 27.2949 81.1392 28.2439 81.1392 28.9307C81.1392 29.911 80.4805 30.6943 79.7857 31.2852C79.3553 31.6512 78.8479 32.0827 78.7837 32.1719C78.6535 32.3534 78.6378 32.5432 78.689 32.7393L79.147 33.4893L79.3775 33.837C80.2498 35.4405 81.0871 36.8355 81.4185 37.3877L81.4195 37.3887L81.4204 37.3917L81.4214 37.3936C81.4988 37.5226 81.5483 37.6044 81.563 37.6309C81.7374 37.9452 81.3349 38.1669 81.1392 38.167H78.8247C78.5595 38.1686 78.023 38.1721 77.8902 37.9327C77.8268 37.8184 77.596 37.3372 77.3384 36.8018L77.3374 36.8008C77.0133 36.1273 76.6475 35.367 76.522 35.1407C76.5112 35.1211 76.4993 35.0993 76.4859 35.0762C76.357 34.855 76.0898 34.4575 75.8267 34.0655C75.5601 33.6683 75.5327 33.1548 75.1861 33.0801C74.8393 33.0056 74.5726 33.0809 74.4849 33.085C74.3568 33.0911 74.2343 33.1998 74.1499 33.3389C74.077 33.4592 74.0989 34.1016 74.0943 34.3272C74.0937 34.3539 74.0933 34.3791 74.0933 34.4014C74.0933 34.6584 74.141 35.4894 74.1841 36.2315L74.1851 36.2364V36.2481L74.1861 36.2501C74.2206 36.8444 74.2515 37.3784 74.2515 37.5088C74.251 37.8032 73.7613 38.1954 73.5005 38.1954H71.2827C71.0545 38.1952 70.8911 37.9007 70.8911 37.5411C70.8911 37.4684 70.8876 37.0852 70.8814 36.5127C70.863 34.8155 70.8267 31.4519 70.8267 29.5606C70.8267 29.103 70.7769 28.3075 70.7476 27.8389L70.7466 27.8379V27.8292C70.7385 27.6986 70.8288 25.1602 70.8257 25.0909C70.8257 24.3387 71.0408 24.0968 71.4322 24.0967C71.4593 24.0967 71.5265 24.0964 71.6265 24.0958ZM77.103 27.4835C76.0347 27.1552 74.3868 27.341 74.2515 27.4669C74.0926 27.6168 74.0929 28.5137 74.0933 29.1758C74.0934 29.4186 74.1032 29.661 74.1177 29.9034C74.1831 30.0583 74.3722 30.1534 74.5825 30.2061C75.3704 30.4036 76.913 30.3559 77.5513 29.7159C77.7143 29.5523 77.8772 29.029 77.812 28.3751C77.7768 28.0221 77.592 27.6922 77.3159 27.5596C77.3126 27.558 77.3086 27.5573 77.3052 27.5557C77.2917 27.5495 77.278 27.5433 77.2642 27.5381C77.2554 27.5349 77.2468 27.5313 77.2378 27.5284C77.1929 27.5143 77.1481 27.4973 77.103 27.4835Z" fill="#F6F2EC"/>
<path fill-rule="evenodd" clip-rule="evenodd" d="M69.541 5.59746C70.0486 5.54034 70.8892 5.44575 71.1748 5.87578C71.8866 6.94746 72.9616 8.59556 73.8672 9.98907C74.7725 8.5959 75.8461 6.94799 76.5576 5.87676C76.8436 5.44724 77.684 5.54232 78.1914 5.59942C78.3226 5.61419 78.4316 5.62576 78.5029 5.62578C78.5694 5.62578 78.6471 5.62391 78.7314 5.62188C79.3555 5.60687 80.3739 5.58276 80.374 6.2293C80.15 6.56662 79.4595 7.65157 78.9102 8.51446C78.5474 9.08418 78.2465 9.55747 78.1816 9.65508C78.112 9.75988 77.8691 10.0718 77.5918 10.4295L77.5898 10.4324L77.5889 10.4344C77.2171 10.9137 76.7828 11.4731 76.6172 11.7225C76.4737 11.9386 76.0486 12.6663 75.6719 13.3123L75.6377 13.3709C75.6255 15.0748 75.6053 16.9905 75.5928 18.1404C75.5865 18.7129 75.582 19.0962 75.582 19.1688C75.5819 19.5282 75.418 19.8218 75.1885 19.8221H72.9561C72.6934 19.8218 72.2012 19.4298 72.2012 19.1355C72.2012 19.0049 72.2328 18.4711 72.2676 17.8768V17.8748C72.3112 17.1283 72.3604 16.2866 72.3604 16.0281C72.3603 15.7293 72.3091 15.0261 72.2646 14.4227L72.2637 14.4217V14.4158C72.2376 14.0607 72.2139 13.7408 72.2051 13.5594L72.0596 13.3094C71.6829 12.6636 71.2585 11.9363 71.1152 11.7205C70.9496 11.4711 70.5153 10.9118 70.1436 10.4324C69.8651 10.0733 69.6219 9.75862 69.5518 9.65313C69.4869 9.55551 69.185 9.0823 68.8223 8.5125C68.2729 7.64962 67.5824 6.56466 67.3584 6.22735C67.3587 5.58104 68.377 5.60492 69.001 5.61992C69.0854 5.62195 69.163 5.62383 69.2295 5.62383C69.3008 5.62381 69.4098 5.61223 69.541 5.59746Z" fill="#F6F2EC"/>
<path d="M87.6777 5.35122C89.7778 5.40227 91.4519 6.52844 92.043 7.01919C92.9922 7.80749 93.4547 8.45919 93.2578 8.75357C93.0603 9.04831 91.4853 10.3227 91.0586 10.3229C90.7304 10.3229 90.402 9.11335 88.5313 8.62271C87.6224 8.38436 86.2012 8.6224 85.2822 9.11294C84.6692 9.44022 83.8381 11.002 83.7725 11.6969C83.7068 12.3919 83.7516 14.117 84.0352 14.7057C84.3187 15.2945 85.3477 16.9938 86.4307 17.1247C87.1476 17.2113 89.1879 16.9951 89.5488 16.6354C89.844 16.3408 89.9422 15.0992 89.7783 14.8698C89.6032 14.6255 87.0044 14.7184 86.8242 14.5749C86.6604 14.4437 86.7256 13.9862 86.7256 13.692C86.7256 13.3977 86.5615 12.1217 86.7256 11.9254C86.8898 11.7292 89.1349 11.8278 89.7783 11.8278C90.4833 11.8278 91.8466 11.6969 92.1748 11.6969C92.5029 11.697 92.9296 11.7298 92.9297 12.3834V15.3278C92.9298 15.8516 93.1916 17.519 92.6338 18.1403C92.0757 18.7617 89.7787 19.7759 88.3018 19.9069C86.9743 20.0245 85.7744 19.7755 84.8555 19.6774C83.9365 19.5793 82.2296 18.1727 81.3105 16.7663C80.8734 16.097 80.3585 14.0843 80.3584 13.1032C80.3583 12.1221 80.6493 10.7382 80.7529 10.2907C80.8513 9.86548 81.5077 8.65534 81.8359 8.1647C82.1642 7.67408 82.9847 6.94518 83.7725 6.36587C84.5601 5.78658 86.3321 5.31856 87.6777 5.35122Z" fill="#F6F2EC"/>
<path d="M102.579 5.54947C104.68 5.60052 106.354 6.72682 106.944 7.21744C107.893 8.00565 108.356 8.65642 108.159 8.95083C107.962 9.24518 106.387 10.5209 105.96 10.5211C105.632 10.5211 105.303 9.31061 103.433 8.81998C102.524 8.58165 101.103 8.81975 100.184 9.31021C99.5706 9.63744 98.7397 11.1991 98.6738 11.8942C98.6082 12.5891 98.652 14.3152 98.9355 14.904C99.2192 15.4927 100.544 17.1254 101.627 17.2565C102.344 17.3431 104.089 17.1933 104.45 16.8336C104.746 16.5393 104.844 15.296 104.68 15.067C104.35 14.6076 101.906 14.9166 101.726 14.7731C101.561 14.6423 101.627 14.1837 101.627 13.8893C101.627 13.5945 101.463 12.3208 101.627 12.1237C101.791 11.9274 104.036 12.0251 104.68 12.0251C105.385 12.025 106.748 11.8942 107.076 11.8942C107.404 11.8942 107.831 11.9278 107.831 12.5817V15.5251C107.831 16.0484 108.093 17.716 107.535 18.3376C106.977 18.9589 104.68 19.9732 103.203 20.1042C101.876 20.2217 100.676 19.9738 99.7568 19.8756C98.8379 19.7775 97.131 18.3709 96.2119 16.9645C95.7747 16.2954 95.2598 14.2817 95.2598 13.3004C95.2598 12.3192 95.5508 10.9352 95.6543 10.4879C95.7529 10.0626 96.4091 8.85252 96.7373 8.36197C97.0656 7.87135 97.8862 7.14235 98.6738 6.56314C99.4616 5.98392 101.234 5.51679 102.579 5.54947Z" fill="#F6F2EC"/>
<path fill-rule="evenodd" clip-rule="evenodd" d="M45.2326 23.9345C46.2292 23.928 50.171 23.885 51.2306 24.0527C52.0469 24.1619 52.838 24.7923 53.4005 25.3525C53.5647 25.516 53.9589 26.0723 54.1886 26.5957C54.4182 27.1189 54.4835 27.9589 54.4835 28.7539C54.4835 29.3324 53.9584 30.3569 53.7286 30.5859C53.6801 30.6342 53.5339 30.7601 53.3478 30.9179C53.6228 31.1504 53.8612 31.3525 53.9259 31.417C54.1557 31.6459 54.6808 32.7584 54.6808 33.249C54.6808 33.9358 54.6146 34.8838 54.3849 35.4072C53.9118 36.4848 53.1152 37.0905 52.1535 37.7295C51.99 37.8381 51.6229 37.925 51.4279 37.9511C50.3684 38.1189 46.3508 38.0221 45.3546 38.0156C44.8447 38.0123 44.4183 37.8931 44.4181 37.2968C44.4181 37.2242 44.4146 36.841 44.4083 36.2685C44.3898 34.5713 44.4181 31.2898 44.4181 29.3984C44.4181 28.9329 44.4191 27.2915 44.38 26.6504C44.3358 25.9253 44.2365 23.9411 45.2326 23.9345ZM50.1368 32.1543C49.8754 32.1218 48.3663 32.0558 48.1027 32.1211C47.5827 32.2506 47.6095 32.5986 47.6095 33.0615C47.6093 33.5266 47.4986 34.4769 47.7501 34.7129C47.959 34.9078 49.544 35.0236 50.6193 34.6953C51.0341 34.5686 51.2891 34.2439 51.3331 33.8046C51.4183 32.9549 51.0578 32.269 50.1368 32.1543ZM50.5577 27.3515C49.9285 27.1524 48.107 26.7715 47.5529 27.291C47.4332 27.404 47.4095 27.8477 47.4054 28.3418V28.9326C47.4054 29.3954 47.3777 29.7434 47.8976 29.873C48.7766 30.092 50.1396 30.0635 50.879 29.3984C51.2049 29.1055 51.2138 28.477 51.1749 28.0898C51.1395 27.7368 50.9146 27.5153 50.6368 27.3828L50.6339 27.3818C50.6287 27.3798 50.6234 27.3773 50.6183 27.375C50.5987 27.3657 50.5784 27.3582 50.5577 27.3515Z" fill="#F6F2EC"/>
<path d="M60.9283 24.2196C61.2683 24.1499 61.4701 24.1567 61.814 24.1864C62.1993 24.2196 62.4774 24.1754 62.8648 24.1864C62.9646 24.1862 63.5542 24.1436 63.6197 24.1864C63.6802 24.2273 63.9603 24.8863 64.1285 25.3631C64.2302 25.6419 64.3225 25.9243 64.4351 26.1991C65.407 28.5701 66.6638 31.3191 66.897 32.0721L67.5162 33.7801C68.0121 35.1552 68.5972 36.4963 69.1041 37.8661C69.229 38.2036 68.7938 38.3611 68.5992 38.3309C68.3364 38.2902 67.7011 38.2853 67.0982 38.2811C66.4402 38.2765 65.8204 38.2724 65.7662 38.2215C65.6349 38.1234 65.2045 36.9654 65.0308 36.3963C64.9514 36.1316 64.8691 35.8675 64.7877 35.6034C63.1204 35.59 61.3703 35.4756 59.6881 35.579C59.5972 35.8729 59.506 36.1671 59.4175 36.4618C59.2439 37.0309 58.8144 38.1888 58.6832 38.287C58.6307 38.3381 58.0101 38.3419 57.3511 38.3465C57.0913 38.3484 55.0803 38.6473 55.3453 37.9315C56.0301 36.0793 56.8161 34.2636 57.5113 32.4178C57.9767 31.3079 58.8243 29.6491 58.9488 29.0956C59.0426 28.678 60.0072 26.6173 60.4674 25.3563C60.6494 24.8574 60.8178 24.2422 60.9283 24.2196ZM62.2711 29.3397C62.1385 29.3397 61.4515 30.8723 61.1099 31.6649C61.0536 31.7955 60.9398 32.0935 60.8062 32.452C61.7708 32.5026 62.881 32.5011 63.8463 32.452C63.5799 31.6982 62.893 30.4363 62.7945 30.2401C62.6961 30.0765 62.4038 29.341 62.2711 29.3397Z" fill="#F6F2EC"/>
<path d="M115.024 5.44653C115.364 5.37679 115.566 5.38467 115.91 5.4143C116.295 5.44748 116.573 5.40329 116.961 5.4143C117.059 5.41428 117.65 5.37143 117.715 5.4143C117.775 5.45385 118.056 6.11365 118.224 6.59106C118.326 6.86984 118.419 7.15224 118.532 7.427C119.504 9.79765 120.76 12.5457 120.994 13.2991L121.612 15.0081C122.108 16.3831 122.693 17.7242 123.2 19.094C123.325 19.4313 122.891 19.5887 122.696 19.5588C122.433 19.5181 121.797 19.5133 121.194 19.509C120.534 19.5044 119.913 19.4997 119.862 19.4485C119.73 19.3493 119.301 18.1932 119.128 17.6243C119.048 17.3594 118.966 17.0946 118.884 16.8303C117.217 16.8169 115.467 16.7036 113.785 16.8069C113.694 17.1009 113.603 17.395 113.514 17.6897C113.341 18.2588 112.91 19.4156 112.779 19.5139C112.727 19.5652 112.107 19.5698 111.447 19.5745C111.187 19.5763 109.176 19.8752 109.441 19.1594C110.126 17.3071 110.913 15.4916 111.608 13.6457C112.073 12.5359 112.92 10.8773 113.045 10.3235C113.138 9.90596 114.104 7.84528 114.564 6.58422C114.746 6.08532 114.913 5.46919 115.024 5.44653ZM116.367 10.5676C116.234 10.568 115.547 12.1004 115.206 12.8928C115.149 13.0235 115.036 13.3216 114.903 13.6799C115.867 13.7305 116.977 13.7291 117.942 13.6799C117.676 12.9261 116.989 11.6642 116.89 11.468C116.792 11.3042 116.499 10.5676 116.367 10.5676Z" fill="#F6F2EC"/>
<path fill-rule="evenodd" clip-rule="evenodd" d="M99.1396 24.1972C99.8544 24.1924 102.252 24.177 103.94 24.2304L105.983 24.2518C106.534 24.258 106.904 24.2626 106.975 24.2626C107.322 24.2626 107.606 24.4245 107.606 24.6513V26.8544C107.606 27.1135 107.227 27.5995 106.943 27.5995C106.819 27.5995 106.318 27.5696 105.756 27.536L105.727 27.5341C105.392 27.5139 105.035 27.4925 104.726 27.4755C104.371 27.4559 104.076 27.4423 103.942 27.4423C103.655 27.4423 102.98 27.4932 102.398 27.537L102.39 27.538C102.157 27.5556 101.939 27.5714 101.768 27.5829C101.622 27.7686 101.622 28.6311 101.622 29.2743V29.3671C101.622 29.4992 101.629 29.6672 101.639 29.8534C101.878 29.8535 102.11 29.8535 102.322 29.8534C102.803 29.8532 103.185 29.8528 103.33 29.8514C103.373 29.851 103.429 29.8499 103.482 29.8485C103.541 29.8471 103.607 29.8448 103.68 29.8427C103.696 29.8422 103.713 29.8422 103.729 29.8417H103.734C104.551 29.818 106.068 29.774 106.317 29.9569C106.603 30.1679 106.58 32.41 106.159 32.5702C105.735 32.7319 104.742 32.6664 104.221 32.6317C104.189 32.6296 104.159 32.6267 104.131 32.6249C104.09 32.6223 104.054 32.6207 104.022 32.619L104.017 32.618C103.997 32.617 103.979 32.6166 103.964 32.6161C103.949 32.6156 103.936 32.6151 103.926 32.6151H101.84C101.831 32.7605 101.826 32.8967 101.822 33.0165C101.82 33.0796 101.819 33.1385 101.819 33.1913V33.5761C101.82 33.863 101.825 34.1659 101.845 34.4188C101.855 34.5501 101.868 34.6681 101.888 34.7636C102.777 34.7814 103.553 34.8052 103.729 34.83C104.298 34.9103 105.95 34.8376 106.606 34.8085H106.607L106.808 34.7997L106.847 34.7977H106.872C107.216 34.7977 107.499 34.9612 107.499 35.1903V37.4188C107.499 37.681 107.122 38.1718 106.841 38.1718C106.831 38.1718 106.818 38.1712 106.803 38.1708C106.784 38.1703 106.76 38.1699 106.734 38.1688C106.634 38.1647 106.483 38.1568 106.302 38.1464C106.267 38.1444 106.231 38.1417 106.194 38.1395H106.188L106.144 38.1366L106.11 38.1347L106.083 38.1327H106.08C106.009 38.1284 105.934 38.1246 105.858 38.12L105.851 38.119L105.841 38.118L105.764 38.1141L105.636 38.1063C105.171 38.078 104.668 38.0473 104.305 38.0292C104.286 38.0283 104.268 38.0271 104.251 38.0263H104.244L104.243 38.0253H104.231C104.17 38.0224 104.113 38.0204 104.062 38.0184C103.981 38.0153 103.914 38.0136 103.867 38.0136H103.863C103.679 38.0138 103.34 38.0346 102.969 38.0614L102.654 38.0848L102.327 38.1093L102.317 38.1102C101.888 38.1431 101.514 38.1717 101.393 38.1718L101.348 38.1727L101.279 38.1747L101.171 38.1776C100.453 38.2014 98.4136 38.2693 98.413 37.91C98.413 37.8858 98.4126 37.86 98.412 37.8329L98.4091 37.7372C98.4066 37.6623 98.4034 37.5791 98.3993 37.4901L98.3984 37.4804L98.3974 37.4589C98.3905 37.3066 98.3835 37.137 98.3788 36.9598C98.3724 36.7192 98.3715 36.4636 98.3857 36.2147C98.3663 34.4312 98.3349 31.4145 98.3349 29.662C98.3349 29.396 98.3178 29.0158 98.2978 28.6522C98.2834 28.3903 98.2673 28.1364 98.2548 27.9403V27.9364L98.2421 27.7372L98.2363 27.6337C98.2052 27.0542 98.2021 26.5652 98.2197 26.1552C98.223 26.0775 98.2266 26.0026 98.2314 25.9305C98.2364 25.857 98.2427 25.7865 98.249 25.7186C98.357 24.5567 98.6667 24.1985 98.9443 24.1981H99.0175L99.1396 24.1972Z" fill="#F6F2EC"/>
</svg>
