<svg width="146" height="48" viewBox="0 0 146 48" fill="none" xmlns="http://www.w3.org/2000/svg">
<path fill-rule="evenodd" clip-rule="evenodd" d="M24.7095 33.1937C24.6725 33.2476 24.6285 33.3118 24.5749 33.39C24.6081 33.3416 24.6376 33.2985 24.6641 33.26C24.6803 33.2362 24.6954 33.2142 24.7095 33.1937Z" fill="#1A1A1A"/>
<path fill-rule="evenodd" clip-rule="evenodd" d="M39.5759 37.4633L39.58 37.467C39.8299 37.6947 40.0798 37.9224 40.3297 38.15C40.0785 37.9211 39.8272 37.6922 39.5759 37.4633ZM29.5717 33.7105C29.5612 33.7003 29.5502 33.6896 29.5385 33.6782L29.4906 33.6317C29.5211 33.6614 29.5478 33.6873 29.5717 33.7105Z" fill="#1A1A1A"/>
<path fill-rule="evenodd" clip-rule="evenodd" d="M33.6618 9.08651C32.5649 9.17109 28.6189 10.6 27.6073 11.7138C27.1513 12.2157 26.661 13.0221 26.2132 13.7586C25.6675 14.6561 25.185 15.4498 24.9049 15.4616C24.6129 15.474 23.8918 15.0389 23.1769 14.6074C23.0969 14.5592 23.0166 14.5098 22.9362 14.4603C22.5509 14.2234 22.1586 13.9822 21.7356 13.8233C21.0331 13.5584 17.97 12.4035 15.5788 13.4841C13.1513 14.5812 12.2338 16.9269 12.0646 18.4198C11.8953 19.9127 12.7583 22.5154 13.2667 23.3355C13.6614 23.9723 15.1098 24.8415 16.0407 25.4002L16.0427 25.4013C17.2007 26.0964 18.261 26.9378 19.3152 27.7744L19.3162 27.7752C19.4244 27.8611 19.5326 27.947 19.6409 28.0327L19.6427 28.0366C20.0555 28.2857 21.3499 29.1012 22.3798 29.7501C23.4382 30.4166 24.526 31.01 25.6376 31.5859L25.7314 31.6336C25.66 31.7386 25.6292 31.8181 25.5564 31.9249C25.3188 32.2734 25.1019 32.5915 25.0886 32.6159C25.0761 32.6358 25.0644 32.6543 25.0534 32.6717C24.9841 32.7815 24.9446 32.8442 24.904 32.9062C24.85 32.9887 24.7942 33.0702 24.6641 33.26C24.6376 33.2985 24.6081 33.3416 24.5749 33.39C23.2926 35.2413 22.2566 37.1838 21.206 39.1538L20.9272 39.676C20.6219 40.318 20.2656 41.0665 20.0915 41.3717C20.0768 41.3975 20.0631 41.4224 20.05 41.4462L20.0475 41.4509C19.9444 41.638 19.8761 41.7617 19.6388 41.7908C19.2382 41.5496 18.9909 41.3495 18.7811 41.1798L18.78 41.1789C18.3921 40.8652 18.1327 40.6553 17.2709 40.4807C16.8846 40.4017 15.8311 40.3151 15.5314 40.4807C14.1134 41.2645 14.1551 42.365 15.2338 43.3861C16.6929 44.7678 18.7515 45.642 19.6745 45.7527C19.837 45.7747 20.029 45.8325 20.2296 45.8928C21.3447 46.2286 22.0092 45.7527 22.234 45.3685C22.6862 44.5962 23.1395 43.8236 23.5929 43.0509C23.8393 42.6309 24.0858 42.2108 24.3321 41.7908C24.6733 41.2088 25.0666 40.5371 25.4251 39.9239C25.7177 39.4233 25.9871 38.9618 26.1861 38.6202C26.3275 38.3773 26.5852 37.9759 26.9021 37.4825L26.9059 37.4766C27.4587 36.6157 28.1902 35.4763 28.7992 34.4093C28.8116 34.3876 28.8238 34.3792 28.8321 34.369L28.8412 34.3578L28.8432 34.3553L29.4591 33.6007C29.4761 33.6179 29.4869 33.6286 29.4906 33.6317L29.5385 33.6782C29.632 33.7691 29.6855 33.821 29.7381 33.8737C29.8081 33.9439 29.8766 34.0156 30.0362 34.1828C30.0686 34.2168 30.1048 34.2547 30.1455 34.2973C31.6995 35.9398 33.4016 37.3703 35.1279 38.8211L35.5854 39.2058C36.1565 39.6435 36.8224 40.1541 37.0871 40.3896C37.1096 40.4096 37.1314 40.4284 37.1523 40.4464L37.1561 40.4496C37.3193 40.5906 37.4272 40.6838 37.4013 40.9152C37.0673 41.2385 36.81 41.4264 36.5917 41.5857L36.5907 41.5864C36.1872 41.8809 35.9173 42.0779 35.5431 42.8533C35.3747 43.2006 35.0442 44.1777 35.1403 44.4998C35.5955 46.0235 36.7054 46.239 37.9761 45.4543C39.6954 44.3932 41.0462 42.647 41.3706 41.7989C41.4302 41.6502 41.5324 41.4818 41.6392 41.3059C42.2331 40.3282 41.9113 39.589 41.5792 39.2872C40.9128 38.6812 40.2464 38.0741 39.58 37.467L39.5759 37.4633L39.5677 37.4559C39.2079 37.1281 38.8481 36.8003 38.4882 36.4726C37.9854 36.0149 37.4048 35.487 36.8749 35.0057C36.4422 34.6127 36.0432 34.2508 35.7477 33.9834C35.5376 33.7934 35.1962 33.4566 34.7764 33.0426L34.7757 33.0419L34.771 33.0372C34.0247 32.3012 33.0324 31.3225 32.0912 30.4889C32.0931 30.4878 32.0076 30.4003 31.9086 30.2996C32.1827 29.8011 32.4776 29.2663 32.7764 28.7247C33.7575 26.9461 34.7785 25.0951 35.2261 24.2247C35.6044 23.6969 35.8542 23.2409 36.0425 22.8971L36.0434 22.8957C36.2856 22.4535 36.581 22.0531 36.8808 21.6469C36.9005 21.6202 36.9201 21.5935 36.9398 21.5668L36.9536 21.5481L36.9548 21.5468C37.6882 20.552 38.75 19.1119 38.9447 18.611C39.262 17.7944 40.0281 15.5817 40.0077 15.1236C40.0058 15.0798 40.0051 15.0173 40.0043 14.9393C39.9968 14.2013 39.4292 11.7894 38.1396 10.7716C36.7136 9.64609 34.7586 9.00193 33.6618 9.08651ZM28.4589 27.5364C28.5604 27.3567 28.6623 27.1764 28.7644 26.9955C29.4977 25.6964 30.246 24.3708 31.0265 23.1077L31.0273 23.1064C31.4525 22.4184 31.7951 21.8124 32.1216 21.2349C32.7138 20.1873 33.2532 19.233 34.1364 18.0535C34.64 17.3801 35.0098 16.8798 35.0652 16.7537C35.4576 15.8574 35.5338 14.4804 35.0682 13.7351C34.6025 12.9897 33.26 12.8552 32.1682 13.0543C30.5569 13.3482 28.0536 16.5367 27.2821 17.9352C27.2288 18.0318 27.1769 18.1307 27.1247 18.2301C26.9785 18.5087 26.8302 18.7912 26.6433 19.0398C26.384 19.3849 25.4124 19.2346 24.8809 19.1524C23.966 19.0113 23.063 18.4135 22.1897 17.8352C21.7217 17.5253 21.2621 17.221 20.8137 16.9957C20.1785 16.6772 19.385 16.6055 18.5078 16.7593L18.4472 16.7699L18.3948 16.7791C17.042 17.0152 16.2866 17.1471 16.454 18.6353C16.5431 19.4185 16.7905 19.9254 17.2417 20.5901C18.6452 22.6572 20.6435 23.8032 22.6953 24.9799C23.1482 25.2396 23.6037 25.5008 24.0559 25.7738C24.8861 26.275 25.9902 26.9508 27.1159 27.6429L28.1123 28.2058C28.239 27.9904 28.3323 27.7957 28.3938 27.6672C28.4222 27.608 28.4438 27.5629 28.4589 27.5364Z" fill="#1A1A1A"/>
<path d="M43.5293 2.70183C43.7919 2.56429 44.4781 2.18657 44.7721 2.22538C47.2016 2.54675 45.0197 4.71881 44.1744 5.47514C43.4324 6.13887 42.6248 7.07943 41.6955 7.49064L41.1957 7.71925C40.3773 8.08913 40.2823 8.06727 39.4611 7.77729C39.3984 7.37031 39.0326 6.78427 39.2014 6.4058C39.4469 5.83094 40.1038 5.52138 40.5 5.13565C41.0863 4.56476 41.532 4.10069 42.2244 3.63704C42.686 3.32797 43.0024 2.96731 43.5293 2.70183Z" fill="#1A1A1A"/>
<path d="M7.43775 24.8147C8.88541 24.7315 10.2803 25.667 8.87463 27.0068C8.02495 27.8167 5.90909 29.0695 4.72255 29.1098C4.08302 29.1042 3.69245 29.1187 3.06802 28.9578C2.87284 28.7705 2.77404 28.6631 2.60352 28.453C2.87775 28.0861 3.24769 27.7282 3.52227 27.3249C3.75693 26.9803 4.34055 26.5598 4.67521 26.2857C5.56724 25.5552 6.23703 24.9297 7.43775 24.8147Z" fill="#1A1A1A"/>
<path d="M31.472 0C31.8736 0.011877 32.098 0.181106 32.3661 0.43658C32.5543 1.35292 32.292 2.02313 32.0835 2.93178C31.9752 3.40391 31.646 3.73786 31.6712 4.32995C31.6876 4.71397 30.7984 5.32603 30.457 5.59565C29.8719 5.64349 29.7826 5.76342 29.1419 5.66927C29.0942 5.64448 29.0549 5.6521 29.0005 5.6515C28.7898 5.64923 28.454 5.52947 28.2818 5.41023C28.2113 5.36132 28.1088 5.26084 28.1019 5.17316C28.0782 4.8736 29.4104 1.92582 29.6441 1.4813C29.8327 1.12241 30.0637 0.713584 30.3398 0.411648C30.6329 0.0912298 31.0527 0.0247777 31.472 0Z" fill="#1A1A1A"/>
<path d="M17.7956 2.88497C18.2233 2.82448 18.6588 2.84394 19.0791 2.94226C19.8606 3.13162 20.2192 3.50275 20.6146 4.16212C21.0299 4.80693 21.6673 5.84994 21.1492 6.59669C21.1182 6.64143 19.988 7.38941 19.8755 7.45488C18.009 7.91001 17.1788 4.93446 16.3828 3.76939C17.0444 3.47467 16.9458 3.00047 17.7956 2.88497Z" fill="#1A1A1A"/>
<path d="M6.73944 7.1084C7.14652 7.12454 7.29898 7.21823 7.7341 7.33557C8.75207 7.61001 11.1411 8.73271 11.4447 9.7159C11.5918 10.1923 10.0937 11.1113 9.44373 11.1368C9.13208 11.1853 8.60231 11.0185 8.3431 10.8403C7.61027 10.3364 6.89696 9.80158 6.17287 9.28557C5.78096 9.0063 5.35098 8.77122 4.96609 8.48224C4.90738 8.43806 4.73413 8.07571 4.69043 7.98609C5.11333 7.79805 5.22818 7.60965 5.52874 7.26004C5.98636 7.17637 6.27583 7.1156 6.73944 7.1084Z" fill="#1A1A1A"/>
<path d="M3.25663 16.6744C3.96899 16.6694 4.64686 16.8377 5.34679 16.9617C5.89907 17.0596 7.58034 17.1506 7.66626 17.8714C7.51759 18.5583 6.67521 18.8657 6.13446 19.3071C5.78564 19.2261 5.04989 19.2481 4.65344 19.2385C4.19937 19.2459 3.57969 19.3159 3.13349 19.2587C2.28096 19.1494 1.5487 18.9898 0.67944 18.9108C0.407727 18.571 0.354905 18.5068 0 18.2406C0.826322 17.4429 0.950572 17.106 2.13211 16.8944C2.50088 16.8284 2.82399 16.7209 3.25663 16.6744Z" fill="#1A1A1A"/>
<path fill-rule="evenodd" clip-rule="evenodd" d="M57.7034 6.44482C58.0932 6.44474 63.3886 6.31466 63.7366 6.61767C64.0844 6.92104 63.7366 8.26383 63.7366 8.56689C63.7367 8.87049 63.9183 10.031 63.4661 10.1958C63.0136 10.3606 59.3661 10.1711 59.134 10.3853C58.9369 10.5671 58.9465 11.6955 58.9465 12.4692C58.9465 13.2474 59.0178 15.0287 59.0178 15.3696C59.0178 15.7111 58.9465 17.8112 58.9465 18.4175C58.9465 18.9558 59.134 21.6761 59.134 22.0171C59.1339 22.3581 58.5538 22.813 58.2444 22.813H55.6145C55.3438 22.813 55.1507 22.4718 55.1506 22.0552C55.1506 21.856 55.0947 19.8297 55.0725 17.4536C55.0575 15.8528 55.0725 13.9894 55.0725 12.8101C55.0725 12.1284 55.1117 10.7656 54.9573 10.4614C54.7843 10.1226 52.7143 10.3471 52.2883 10.3472C51.8629 10.3472 50.5963 10.461 50.3538 10.1958C50.1116 9.93033 50.2765 8.79492 50.2766 8.56689C50.2766 8.33957 50.1243 7.01195 50.4319 6.71045C50.7026 6.44523 53.5193 6.76904 54.261 6.76904C55.0735 6.76895 57.3166 6.44482 57.7034 6.44482Z" fill="#1A1A1A"/>
<path fill-rule="evenodd" clip-rule="evenodd" d="M131.074 27.7142C132.138 27.6523 133.566 27.5698 133.761 27.7601C134.068 28.0615 136.082 31.0557 136.082 31.2836C136.752 32.3289 138.14 34.5203 138.325 34.9212C138.557 35.4225 139.562 36.6256 139.872 36.6263C140.181 36.6263 140.259 35.9442 140.259 35.641V32.0795C140.259 31.8866 140.243 31.5359 140.223 31.1166C140.168 29.9707 140.089 28.3107 140.259 27.9496C140.441 27.5626 141.053 27.6664 141.42 27.7289C141.52 27.7459 141.602 27.7601 141.651 27.7601C141.883 27.7601 143.779 27.7601 144.011 27.9496C144.223 28.1229 144.216 30.5173 144.213 31.3871C144.213 31.4674 144.212 31.5349 144.212 31.5863C144.212 31.7604 144.212 32.035 144.211 32.347C144.209 33.1209 144.206 34.1279 144.212 34.4193C144.215 34.5973 144.178 35.1562 144.134 35.8011C144.077 36.6343 144.011 37.6127 144.011 38.1039C144.011 38.3267 144.018 38.7845 144.027 39.349C144.055 40.9935 144.097 43.5432 144.011 43.8246C143.906 44.1649 141.033 43.9228 140.102 43.8441C140 43.8356 139.921 43.8283 139.872 43.8246C139.369 43.786 138.668 41.9514 138.325 41.4378C138.095 41.0926 137.289 39.9322 136.822 39.3988L136.816 39.392C136.658 39.205 136.444 38.8258 136.249 38.4808C136.11 38.2346 135.981 38.0056 135.889 37.8763C135.347 37.1186 134.844 35.7926 133.646 35.7923C133.336 35.8591 133.589 39.0492 133.567 40.5668C133.56 41.0796 133.567 43.3635 133.567 43.4476C133.567 43.8643 133.374 44.2054 133.104 44.2054H130.474C130.164 44.2054 129.584 43.7505 129.584 43.4095C129.584 43.2584 129.621 42.6401 129.662 41.9515C129.714 41.0863 129.771 40.1097 129.771 39.8099C129.771 39.4635 129.711 38.6473 129.658 37.9476C129.619 37.4227 129.584 36.9629 129.584 36.8168C129.584 36.6809 129.614 36.3075 129.649 35.8587C129.703 35.1808 129.771 34.3297 129.771 33.8617C129.771 33.1616 129.728 32.3664 129.686 31.5873C129.579 29.624 129.478 27.7601 130.087 27.7601C130.296 27.7601 130.657 27.7385 131.074 27.7142Z" fill="#1A1A1A"/>
<path fill-rule="evenodd" clip-rule="evenodd" d="M99.8232 27.7143C100.887 27.6523 102.316 27.5697 102.511 27.7602C102.819 28.0633 104.831 31.0559 104.831 31.2836C105.501 32.329 106.889 34.5204 107.074 34.9213C107.306 35.4226 108.311 36.6257 108.621 36.6264C108.93 36.6264 109.008 35.9443 109.008 35.6411V32.0795C109.008 31.8867 108.992 31.536 108.972 31.1167C108.917 29.9708 108.838 28.3108 109.008 27.9497C109.19 27.5628 109.802 27.6665 110.169 27.729C110.269 27.746 110.351 27.7602 110.4 27.7602C110.632 27.7602 112.528 27.7602 112.76 27.9497C112.972 28.123 112.965 30.5174 112.962 31.3872C112.962 31.4675 112.961 31.535 112.961 31.5864C112.961 31.7605 112.961 32.0351 112.96 32.3471C112.958 33.121 112.955 34.128 112.961 34.4194C112.964 34.5974 112.927 35.1563 112.883 35.8012C112.826 36.6344 112.76 37.6128 112.76 38.104C112.76 38.3268 112.767 38.7846 112.776 39.3491C112.804 40.9936 112.846 43.5434 112.76 43.8247C112.655 44.165 109.782 43.9229 108.851 43.8442C108.749 43.8356 108.67 43.8284 108.621 43.8247C108.118 43.7861 107.417 41.9515 107.074 41.4379C106.844 41.0927 106.038 39.9323 105.571 39.3989L105.565 39.392C105.407 39.2051 105.193 38.8259 104.998 38.4809C104.859 38.2347 104.73 38.0057 104.638 37.8764C104.096 37.1187 103.593 35.7927 102.395 35.7924C102.085 35.8592 102.338 39.0493 102.316 40.5669C102.309 41.0797 102.316 43.3636 102.316 43.4477C102.316 43.8643 102.123 44.2055 101.853 44.2055H99.2227C98.9132 44.2055 98.3331 43.7506 98.333 43.4096C98.333 43.2585 98.3702 42.6402 98.4111 41.9516C98.4626 41.0863 98.5205 40.1098 98.5205 39.81C98.5205 39.4636 98.4596 38.6474 98.4072 37.9477C98.3679 37.4228 98.333 36.963 98.333 36.8169C98.333 36.681 98.3627 36.3076 98.3984 35.8588C98.4525 35.1809 98.5205 34.3298 98.5205 33.8618C98.5205 33.1617 98.4769 32.3665 98.4346 31.5874C98.3278 29.6241 98.2268 27.7602 98.8359 27.7602C99.0448 27.7602 99.406 27.7386 99.8232 27.7143Z" fill="#1A1A1A"/>
<path fill-rule="evenodd" clip-rule="evenodd" d="M67.6891 6.16203C68.8561 6.15443 73.849 6.12198 75.0895 6.31632C75.318 6.34659 75.7477 6.4464 75.9391 6.57218C77.0673 7.31365 77.9993 8.01657 78.5524 9.26261C78.8213 9.86882 78.899 10.9671 78.899 11.7626C78.899 12.8982 78.1231 13.8056 77.3043 14.4902C76.7971 14.9141 76.1992 15.4141 76.1237 15.5175C75.97 15.7278 75.9519 15.9475 76.0123 16.1747L76.5514 17.0439L76.8229 17.4462C77.851 19.3038 78.8377 20.9198 79.2281 21.5595L79.2291 21.5605L79.2301 21.5634L79.232 21.5663C79.3228 21.715 79.3805 21.8097 79.3981 21.8407C79.6036 22.2048 79.1297 22.4617 78.899 22.4618H76.2154L76.1735 22.4628H76.1715C75.8589 22.4647 75.2274 22.4676 75.0709 22.1903C74.9963 22.0582 74.7232 21.5011 74.4195 20.8808L74.4186 20.8788C74.0366 20.0985 73.6054 19.2178 73.4576 18.956C73.4449 18.9334 73.4304 18.9084 73.4147 18.8818C73.2628 18.6254 72.9482 18.1648 72.6383 17.7109L72.6373 17.7099C72.3232 17.2497 72.292 16.6566 71.8834 16.5702C71.4748 16.4839 71.1606 16.5703 71.0572 16.5751C70.9065 16.5822 70.7621 16.708 70.6627 16.8691C70.5767 17.0084 70.6028 17.7535 70.5973 18.0146C70.5966 18.0453 70.5963 18.0737 70.5963 18.0995C70.5963 18.3968 70.6529 19.3598 70.7037 20.2196V20.2275L70.7047 20.2333V20.2411C70.7454 20.9297 70.7819 21.548 70.7819 21.6991C70.7818 22.0401 70.2056 22.4949 69.8981 22.495H67.2838C67.015 22.4947 66.8229 22.1537 66.8229 21.7372C66.8229 21.6531 66.8185 21.209 66.8112 20.5458C66.7895 18.5797 66.7457 14.6829 66.7457 12.4921C66.7457 11.9621 66.6876 11.0418 66.6529 10.4989V10.497L66.652 10.4931V10.4872C66.6424 10.3371 66.7497 7.38785 66.7457 7.31437C66.7457 6.44295 66.9992 6.163 67.4606 6.163C67.4927 6.163 67.5716 6.16279 67.6891 6.16203ZM74.1432 10.0868C72.8834 9.70619 70.939 9.92145 70.7819 10.0673C70.5948 10.2413 70.5959 11.2789 70.5963 12.0458C70.5964 12.3272 70.6076 12.6086 70.6246 12.8896C70.7017 13.069 70.9247 13.179 71.1725 13.2402C72.1009 13.4689 73.9184 13.4132 74.6705 12.6718C74.8626 12.4823 75.0549 11.8765 74.9781 11.1191C74.9367 10.7102 74.7185 10.3283 74.3932 10.1747C74.3893 10.1729 74.3853 10.1716 74.3815 10.1698C74.3655 10.1626 74.349 10.1554 74.3326 10.1493C74.3223 10.1455 74.3119 10.1419 74.3014 10.1386C74.2485 10.1223 74.1962 10.1029 74.1432 10.0868Z" fill="#1A1A1A"/>
<path fill-rule="evenodd" clip-rule="evenodd" d="M84.4069 27.912C85.5739 27.9044 90.5667 27.872 91.8072 28.0663C92.0357 28.0966 92.4655 28.1964 92.6569 28.3222C93.7849 29.0635 94.7171 29.766 95.2701 31.0116C95.5392 31.6178 95.6168 32.717 95.6168 33.5126C95.6168 34.6482 94.8409 35.5556 94.0221 36.2402C93.5149 36.6641 92.917 37.1641 92.8414 37.2675C92.6878 37.4778 92.6696 37.6975 92.7301 37.9247L93.2692 38.7939L93.5406 39.1962C94.5687 41.0539 95.5555 42.6698 95.9459 43.3095L95.9469 43.3105L95.9479 43.3134L95.9498 43.3163C96.0406 43.4651 96.0983 43.5597 96.1158 43.5907C96.3214 43.9548 95.8475 44.2117 95.6168 44.2118H92.9332L92.8912 44.2128H92.8893C92.5767 44.2147 91.9452 44.2176 91.7887 43.9403C91.7141 43.8082 91.441 43.2512 91.1373 42.6308L91.1363 42.6288C90.7544 41.8485 90.3232 40.9678 90.1754 40.706C90.1627 40.6834 90.1482 40.6584 90.1324 40.6318C89.9806 40.3755 89.666 39.9149 89.3561 39.4609L89.3551 39.4599C89.041 38.9997 89.0097 38.4066 88.6012 38.3202C88.1926 38.2339 87.8784 38.3193 87.775 38.3241C87.6242 38.3312 87.4799 38.458 87.3805 38.6191C87.2945 38.7584 87.3205 39.5035 87.3151 39.7646C87.3144 39.7953 87.3141 39.8237 87.3141 39.8495C87.3141 40.1468 87.3707 41.1098 87.4215 41.9696V41.9775L87.4225 41.9833V41.9911C87.4632 42.6797 87.4996 43.298 87.4996 43.4491C87.4995 43.7901 86.9233 44.2449 86.6158 44.245H84.0016C83.7328 44.2447 83.5407 43.9037 83.5406 43.4872C83.5406 43.4031 83.5362 42.959 83.5289 42.2958C83.5072 40.3297 83.4635 36.4329 83.4635 34.2421C83.4635 33.7122 83.4053 32.7918 83.3707 32.2489V32.246L83.3697 32.2431V32.2372C83.3602 32.0871 83.4675 29.1379 83.4635 29.0644C83.4635 28.1929 83.717 27.913 84.1783 27.913C84.2105 27.913 84.2894 27.9128 84.4069 27.912ZM90.861 31.8368C89.6012 31.4562 87.6568 31.6715 87.4996 31.8173C87.3126 31.9913 87.3137 33.029 87.3141 33.7958C87.3142 34.0772 87.3254 34.3586 87.3424 34.6396C87.4195 34.819 87.6425 34.929 87.8903 34.9902C88.8187 35.2189 90.6362 35.1632 91.3883 34.4218C91.5804 34.2323 91.7727 33.6265 91.6959 32.8691C91.6544 32.4602 91.4363 32.0783 91.111 31.9247C91.1071 31.9229 91.1031 31.9216 91.0992 31.9198C91.0833 31.9126 91.0668 31.9054 91.0504 31.8993C91.04 31.8955 91.0298 31.891 91.0192 31.8876C90.9663 31.8714 90.9139 31.8529 90.861 31.8368Z" fill="#1A1A1A"/>
<path fill-rule="evenodd" clip-rule="evenodd" d="M81.9492 6.48492C82.5473 6.41875 83.5384 6.30904 83.875 6.80718C84.7138 8.04861 85.9797 9.95763 87.0469 11.5718C88.1137 9.95811 89.3784 8.04999 90.2168 6.80913C90.5534 6.31103 91.5445 6.4207 92.1426 6.48687C92.2972 6.50397 92.4257 6.51807 92.5098 6.51812C92.5881 6.51812 92.6798 6.51559 92.7793 6.51324C93.5148 6.49585 94.7148 6.46829 94.7148 7.21734C94.4507 7.60821 93.6376 8.86438 92.9902 9.86382C92.5627 10.5239 92.2073 11.072 92.1309 11.1851C92.0488 11.3065 91.7635 11.6691 91.4365 12.0835L91.4326 12.0875C90.9945 12.6427 90.4833 13.2907 90.2881 13.5796C90.1194 13.8294 89.6181 14.6736 89.1738 15.4224L89.1338 15.4908C89.1194 17.4644 89.0949 19.6832 89.0801 21.0152C89.0727 21.6782 89.0674 22.1215 89.0674 22.2056C89.0674 22.6224 88.8742 22.9634 88.6035 22.9634H85.9736C85.6642 22.9634 85.084 22.5085 85.084 22.1675C85.084 22.0162 85.1211 21.398 85.1621 20.7095V20.7076C85.2135 19.8429 85.2715 18.8674 85.2715 18.5679C85.2714 18.2218 85.2105 17.4075 85.1582 16.7085V16.7056L85.1572 16.7007C85.1265 16.2896 85.0993 15.9188 85.0889 15.7085L84.917 15.4195C84.4729 14.671 83.9723 13.8273 83.8037 13.5777C83.6085 13.2888 83.0972 12.6407 82.6592 12.0855C82.3307 11.6692 82.0433 11.305 81.9609 11.1832C81.8845 11.0701 81.53 10.5218 81.1025 9.86187C80.4552 8.8624 79.641 7.60625 79.377 7.21538C79.377 6.46618 80.578 6.4939 81.3135 6.51128C81.4128 6.51363 81.5038 6.51617 81.582 6.51617C81.6661 6.51613 81.7945 6.50203 81.9492 6.48492Z" fill="#1A1A1A"/>
<path fill-rule="evenodd" clip-rule="evenodd" d="M103.321 6.19913C105.796 6.25827 107.77 7.56342 108.466 8.13175C109.584 9.04484 110.129 9.79858 109.896 10.1396C109.663 10.4811 107.808 11.9577 107.306 11.9579C106.919 11.9579 106.532 10.5565 104.327 9.98819C103.256 9.71211 101.581 9.98824 100.498 10.5566C99.7756 10.936 98.7961 12.7448 98.7188 13.5497C98.6415 14.3549 98.6942 16.3531 99.0283 17.0351C99.3625 17.717 100.576 19.6849 101.852 19.8368C102.696 19.9372 105.101 19.6871 105.526 19.2704C105.874 18.9293 105.99 17.4897 105.797 17.2245C105.59 16.9417 102.531 17.0497 102.316 16.8837C102.123 16.7321 102.2 16.2013 102.2 15.8603C102.2 15.5187 102.007 14.0416 102.2 13.8144C102.395 13.5874 105.039 13.7011 105.797 13.7011C106.627 13.7011 108.233 13.5498 108.62 13.5497C109.007 13.5497 109.51 13.5872 109.51 14.3446V17.7548C109.51 18.361 109.82 20.2937 109.162 21.0136C108.504 21.7334 105.797 22.9079 104.057 23.0595C102.492 23.1957 101.078 22.9075 99.9951 22.7939C98.9121 22.68 96.9013 21.0509 95.8184 19.4218C95.3032 18.6466 94.6964 16.3152 94.6963 15.1786C94.6962 14.042 95.0391 12.438 95.1611 11.9198C95.2774 11.4269 96.0499 10.0251 96.4365 9.45694C96.8233 8.8887 97.7907 8.0449 98.7188 7.37393C99.6469 6.70293 101.736 6.16135 103.321 6.19913Z" fill="#1A1A1A"/>
<path fill-rule="evenodd" clip-rule="evenodd" d="M120.882 6.42765C123.357 6.48678 125.33 7.79194 126.026 8.36026C127.145 9.27342 127.689 10.0271 127.457 10.3681C127.225 10.7091 125.369 12.1871 124.866 12.1874C124.479 12.1874 124.092 10.785 121.888 10.2167C120.817 9.94065 119.142 10.2168 118.059 10.7851C117.336 11.1643 116.357 12.9733 116.279 13.7782C116.202 14.5831 116.255 16.5812 116.589 17.2636C116.923 17.9456 118.485 19.8386 119.761 19.9901C120.606 20.0904 122.661 19.9163 123.087 19.4999C123.435 19.1589 123.551 17.7183 123.357 17.453C122.968 16.9212 120.09 17.2783 119.877 17.1122C119.683 16.9607 119.761 16.4308 119.761 16.0898C119.761 15.7488 119.567 14.2713 119.761 14.0439C119.954 13.8165 122.599 13.9296 123.357 13.9296C124.188 13.9296 125.793 13.7783 126.181 13.7782C126.567 13.7782 127.07 13.8164 127.07 14.5741V17.9843C127.07 18.5909 127.38 20.5223 126.723 21.2421C126.065 21.9619 123.358 23.1363 121.617 23.288C120.053 23.4242 118.639 23.137 117.556 23.0233C116.473 22.9096 114.462 21.2804 113.379 19.6513C112.864 18.8762 112.257 16.5438 112.257 15.4071C112.257 14.2706 112.6 12.6676 112.722 12.1493C112.838 11.6568 113.61 10.2549 113.997 9.68643C114.384 9.11814 115.351 8.2735 116.279 7.60245C117.207 6.93144 119.296 6.38986 120.882 6.42765Z" fill="#1A1A1A"/>
<path fill-rule="evenodd" clip-rule="evenodd" d="M53.3027 27.7269C54.4769 27.7193 59.1221 27.6684 60.371 27.8627C61.333 27.9892 62.2658 28.7195 62.9286 29.3685C63.1221 29.558 63.5856 30.2028 63.8564 30.809C64.127 31.4151 64.205 32.388 64.205 33.309C64.205 33.979 63.5862 35.1656 63.3154 35.431C63.2583 35.487 63.085 35.6326 62.8652 35.8158C63.1891 36.0849 63.4703 36.3191 63.5468 36.3939C63.8176 36.6592 64.4365 37.9477 64.4365 38.516C64.4364 39.3117 64.3595 40.4108 64.0888 41.017C63.5313 42.265 62.5921 42.9663 61.4589 43.7064C61.2663 43.8323 60.8333 43.9321 60.6034 43.9623C59.3552 44.1566 54.6219 44.0451 53.4472 44.0375C52.8461 44.0336 52.3437 43.8956 52.3437 43.2045C52.3437 43.1204 52.3383 42.6771 52.331 42.0141C52.3092 40.0481 52.3437 36.246 52.3437 34.0551C52.3437 33.5153 52.3448 31.615 52.2988 30.8725C52.2466 30.0328 52.1288 27.7345 53.3027 27.7269ZM59.0829 37.2475C58.7759 37.2099 56.9939 37.1336 56.6845 37.2094C56.0717 37.3595 56.1044 37.763 56.1044 38.2992C56.1041 38.8381 55.9732 39.9381 56.2695 40.2113C56.5146 40.4374 58.3837 40.5724 59.6513 40.1918C60.1401 40.0451 60.4402 39.6683 60.4921 39.1596C60.5924 38.1754 60.1679 37.3804 59.0829 37.2475ZM59.5781 31.685C58.8366 31.4544 56.6901 31.0119 56.037 31.6137C55.8958 31.7441 55.8681 32.2588 55.8632 32.8314V33.516C55.8632 34.0522 55.8305 34.4557 56.4433 34.6059C57.4792 34.8595 59.0856 34.8256 59.957 34.0551C60.3408 33.7157 60.3504 32.9879 60.3046 32.5394C60.2628 32.1308 59.9989 31.8746 59.6718 31.7211L59.6679 31.7201C59.6616 31.7177 59.6554 31.7141 59.6493 31.7113C59.6264 31.7006 59.6023 31.6926 59.5781 31.685Z" fill="#1A1A1A"/>
<path fill-rule="evenodd" clip-rule="evenodd" d="M71.7998 28.0561C72.2005 27.9753 72.4383 27.9837 72.8437 28.018C73.2976 28.0565 73.6247 28.0053 74.081 28.018C74.197 28.018 74.8929 27.9685 74.9707 28.018C75.0412 28.0633 75.3727 28.8271 75.5712 29.3803C75.6911 29.7033 75.7999 30.0308 75.9326 30.3491C77.0778 33.0956 78.559 36.2794 78.8339 37.1518L79.5634 39.1313C80.1479 40.7243 80.8362 42.2779 81.4336 43.8647C81.5807 44.2556 81.0692 44.4376 80.8398 44.4028C80.5302 44.3556 79.781 44.3501 79.0703 44.3452C78.2947 44.3398 77.5646 44.3348 77.5009 44.2759C77.3462 44.1622 76.8394 42.8209 76.6347 42.1616C76.5411 41.8548 76.4446 41.5487 76.3486 41.2426C74.3837 41.2272 72.3214 41.0947 70.3388 41.2143C70.2317 41.5549 70.1237 41.8954 70.0195 42.2368C69.815 42.8957 69.3092 44.2363 69.1543 44.351C69.0936 44.4104 68.3614 44.416 67.5839 44.4214C67.2771 44.4236 64.9085 44.769 65.2207 43.9399C66.0276 41.7944 66.9542 39.6912 67.7734 37.5532C68.3218 36.2676 69.3199 34.3461 69.4668 33.7046C69.5773 33.221 70.7145 30.8343 71.2568 29.3735C71.4713 28.7955 71.6695 28.0824 71.7998 28.0561ZM73.3818 33.9868C73.2255 33.987 72.4161 35.7631 72.0136 36.6811C71.9472 36.8327 71.8136 37.1781 71.6562 37.5932C72.7928 37.6519 74.1008 37.6502 75.2382 37.5932C74.9246 36.7204 74.1155 35.2589 73.999 35.0307C73.8829 34.8413 73.538 33.9868 73.3818 33.9868Z" fill="#1A1A1A"/>
<path fill-rule="evenodd" clip-rule="evenodd" d="M135.548 6.30944C135.949 6.22866 136.186 6.23799 136.592 6.27233C137.046 6.31077 137.373 6.25958 137.83 6.27233C137.947 6.27222 138.642 6.22272 138.72 6.27233C138.791 6.32099 139.121 7.08277 139.319 7.63464C139.439 7.95757 139.548 8.28511 139.681 8.60339C140.826 11.3499 142.307 14.5338 142.582 15.4061L143.311 17.3856C143.896 18.9786 144.585 20.5322 145.183 22.119C145.329 22.5098 144.817 22.692 144.588 22.6571C144.278 22.6099 143.529 22.6044 142.818 22.5995C142.041 22.5941 141.31 22.5885 141.249 22.5292C141.094 22.4153 140.587 21.0752 140.383 20.4159C140.289 20.1092 140.193 19.803 140.097 19.4969C138.132 19.4814 136.069 19.3489 134.087 19.4686C133.98 19.8091 133.873 20.1497 133.769 20.4911C133.564 21.1503 133.057 22.4916 132.902 22.6053C132.842 22.6647 132.109 22.6693 131.332 22.6747C131.024 22.677 128.657 23.0231 128.969 22.1942C129.776 20.0487 130.702 17.9455 131.521 15.8075C132.07 14.5216 133.068 12.5989 133.215 11.9579C133.326 11.4736 134.463 9.08733 135.005 7.62683C135.219 7.04891 135.418 6.33569 135.548 6.30944ZM137.13 12.2411C136.973 12.2429 136.164 14.0167 135.762 14.9344C135.695 15.0858 135.562 15.4321 135.404 15.8475C136.541 15.9062 137.849 15.9044 138.986 15.8475C138.673 14.9743 137.863 13.5114 137.747 13.2841C137.631 13.0937 137.286 12.2411 137.13 12.2411Z" fill="#1A1A1A"/>
<path fill-rule="evenodd" clip-rule="evenodd" d="M116.83 28.0302C117.673 28.0248 120.498 28.0065 122.487 28.0683L124.894 28.0937C125.545 28.1008 125.98 28.1054 126.062 28.1054C126.472 28.1055 126.807 28.2939 126.807 28.5566V31.1084C126.806 31.4085 126.36 31.9715 126.025 31.9716C125.879 31.9716 125.288 31.9363 124.625 31.8974L124.592 31.8955C124.196 31.8721 123.776 31.8478 123.411 31.8281C122.993 31.8054 122.646 31.789 122.489 31.789C122.151 31.789 121.355 31.8476 120.67 31.8984L120.659 31.8994C120.384 31.9198 120.128 31.9388 119.927 31.9521C119.754 32.1672 119.754 33.167 119.755 33.9121V34.0195C119.755 34.1725 119.762 34.3664 119.773 34.582C120.055 34.5821 120.328 34.5821 120.579 34.582C121.146 34.5818 121.597 34.5816 121.767 34.58C121.818 34.5796 121.884 34.5777 121.947 34.5761C122.031 34.5741 122.13 34.5714 122.238 34.5683H122.244C123.206 34.5409 124.993 34.4902 125.287 34.7021C125.624 34.9452 125.597 37.5427 125.101 37.7295C124.601 37.9168 123.432 37.8399 122.817 37.7998C122.78 37.7973 122.744 37.795 122.711 37.7929C122.663 37.7899 122.621 37.7881 122.584 37.7861L122.576 37.7851C122.553 37.7839 122.532 37.7828 122.515 37.7822C122.497 37.7816 122.481 37.7812 122.469 37.7812H120.012C120.002 37.9498 119.994 38.1082 119.99 38.247C119.988 38.3202 119.986 38.388 119.986 38.4492V38.8212L119.987 38.8379V38.8945C119.989 39.2267 119.994 39.5772 120.017 39.8701C120.028 40.0224 120.045 40.1597 120.067 40.2705C121.116 40.2912 122.032 40.3189 122.238 40.3476C122.909 40.4407 124.855 40.356 125.628 40.3222H125.63L125.866 40.3115L125.912 40.3105L125.941 40.3095C126.347 40.3095 126.679 40.4991 126.68 40.7646V43.3457C126.68 43.6491 126.237 44.2182 125.905 44.2187C125.893 44.2187 125.877 44.2182 125.859 44.2177C125.837 44.2172 125.81 44.216 125.779 44.2148C125.661 44.2101 125.483 44.2006 125.269 44.1884C125.229 44.1861 125.186 44.1841 125.142 44.1816L125.14 44.1806H125.136L125.084 44.1777L125.044 44.1757L125.011 44.1738L125.009 44.1728C124.924 44.1678 124.836 44.1635 124.746 44.1582L124.738 44.1572L124.726 44.1562L124.635 44.1513L124.484 44.1425C123.937 44.1097 123.344 44.0737 122.916 44.0527C122.894 44.0517 122.873 44.0507 122.852 44.0498H122.845L122.844 44.0488H122.829C122.757 44.0454 122.689 44.0422 122.63 44.04C122.533 44.0363 122.454 44.0341 122.399 44.0341H122.395C122.179 44.0344 121.779 44.0587 121.342 44.0898L120.971 44.1171L120.585 44.1464L120.574 44.1474C120.068 44.1855 119.627 44.2186 119.485 44.2187L119.432 44.2197L119.35 44.2216L119.223 44.2255C118.377 44.2531 115.973 44.3312 115.973 43.915C115.973 43.8869 115.972 43.8567 115.972 43.8252L115.969 43.7158C115.966 43.6289 115.961 43.5319 115.956 43.4287V43.417L115.955 43.3925C115.947 43.2161 115.938 43.0197 115.933 42.8144C115.925 42.5357 115.924 42.2395 115.94 41.9511C115.918 39.885 115.881 36.3903 115.881 34.3603C115.881 34.0522 115.86 33.6116 115.837 33.1904C115.82 32.8873 115.802 32.5942 115.787 32.3671V32.3613L115.772 32.1308L115.765 32.0117C115.728 31.3404 115.724 30.7739 115.745 30.2988C115.749 30.2087 115.754 30.1217 115.76 30.038C115.766 29.9528 115.772 29.8707 115.779 29.792C115.907 28.4456 116.272 28.0312 116.6 28.0312H116.685L116.83 28.0302Z" fill="#1A1A1A"/>
</svg>
