<svg width="170" height="42" viewBox="0 0 170 42" fill="none" xmlns="http://www.w3.org/2000/svg">
<g clip-path="url(#clip0_1493_1572)">
<path d="M117.045 31.0035C118.683 30.9944 122.478 30.7531 123.934 31.3559C126.738 32.5173 126.841 36.6037 123.723 37.9211C124.495 39.0595 125.546 40.7024 126.368 41.7495L124.741 41.7558C124.353 41.7601 123.965 41.7607 123.578 41.7573C123.004 41.0838 121.819 39.2024 121.278 38.382C120.701 38.3525 120.009 38.3594 119.422 38.3536L119.423 41.7692L117.047 41.7486L117.045 31.0035ZM119.421 36.2339C120.622 36.2546 122.083 36.4189 123.106 35.8181C123.536 35.2919 123.586 35.086 123.529 34.4016C123.388 32.7059 120.547 33.1873 119.419 33.1525L119.421 36.2339Z" fill="#1A1A1A"/>
<path d="M118.982 15.9667C119.799 15.9431 120.694 15.953 121.516 15.9473L121.522 26.7792C120.76 26.7575 119.922 26.7754 119.154 26.7759C119.131 25.3033 119.143 23.805 119.141 22.3302L119.128 19.8246C118.132 21.2973 117.065 22.8942 116.121 24.3951C115.13 22.8751 114.131 21.3603 113.124 19.8507C113.133 22.1624 113.129 24.4739 113.112 26.7855C112.365 26.7573 111.523 26.7788 110.769 26.7815C110.675 23.3657 110.729 19.4019 110.767 15.9643C111.624 15.9509 112.482 15.9532 113.339 15.9712C114.275 17.3569 115.238 19.0291 116.163 20.4693C116.762 19.3891 118.276 16.9503 118.982 15.9667Z" fill="#1A1A1A"/>
<path d="M102.579 30.9922L104.891 30.9958C104.899 32.0993 104.979 41.4592 104.813 41.7816C104.173 41.7561 103.541 41.7607 102.902 41.7621C102.296 41.0857 101.574 40.0752 101.004 39.3255L97.7362 35.0443C97.7503 37.2927 97.7428 39.5411 97.7146 41.7893C97.0879 41.7305 95.9739 41.7563 95.3107 41.7515C95.3082 38.1798 95.28 34.5731 95.3206 31.0041L97.5668 31.006C99.1539 33.1344 100.911 35.5049 102.569 37.5578C102.508 35.5603 102.529 32.9897 102.579 30.9922Z" fill="#1A1A1A"/>
<path d="M145.614 15.9643L147.924 15.9453C148.009 18.3209 147.904 20.8505 147.946 23.2411C147.955 23.7699 147.98 26.4027 147.893 26.7343L147.76 26.7772L145.943 26.78C144.673 24.8837 142.243 21.8549 140.798 19.993L140.794 26.7825C140.038 26.7516 139.158 26.7776 138.393 26.782C138.287 23.4238 138.361 19.3451 138.395 15.9507C139.142 15.9483 139.889 15.9569 140.635 15.9767C142.28 18.1623 143.94 20.3374 145.611 22.5022L145.614 15.9643Z" fill="#1A1A1A"/>
<path d="M84.9189 15.9497C85.6461 15.9702 86.4844 15.9463 87.2199 15.9434C87.2282 17.0315 87.3062 26.5755 87.1319 26.7792L85.2227 26.7784C83.5576 24.5307 81.7957 22.2709 80.0972 20.0416L80.0823 26.7839C79.317 26.7574 78.4451 26.7788 77.6718 26.7803C77.5721 23.493 77.6115 19.2672 77.677 15.959C78.4089 15.9532 79.141 15.9569 79.8729 15.9701C81.4283 17.8217 83.3683 20.5607 84.9007 22.5381L84.9189 15.9497Z" fill="#1A1A1A"/>
<path d="M103.105 0.990128C103.863 0.975588 104.622 0.976716 105.38 0.99352C107.035 3.06451 108.669 5.35011 110.319 7.46452L110.327 0.993296C111.088 0.97324 111.889 0.982231 112.652 0.978516C112.654 2.18239 112.811 11.3396 112.55 11.6956L110.636 11.689C108.947 9.46819 107.18 7.20237 105.541 4.9522C105.47 7.10199 105.523 9.52484 105.524 11.6951L103.114 11.6943L103.105 0.990128Z" fill="#1A1A1A"/>
<path d="M154.74 15.7813C156.886 15.6433 158.008 16.0553 159.693 17.282C159.131 17.8825 158.668 18.4723 158.159 19.1142C156.185 17.4942 153.395 17.4486 152.483 20.2025C152.164 21.144 152.239 22.1744 152.691 23.0599C153.728 25.0955 155.922 25.0312 157.719 24.1157L157.725 22.5775C156.938 22.5657 156.133 22.5739 155.345 22.5732C155.355 21.878 155.171 21.1621 155.435 20.622C155.724 20.4316 155.767 20.5002 156.18 20.5003L159.986 20.4934L159.993 25.2701C154.579 29.6651 147.114 24.7338 150.686 18.2362C151.459 16.8305 153.201 16.0933 154.74 15.7813Z" fill="#1A1A1A"/>
<path d="M102.724 15.9021C103.296 15.8605 104.334 15.8956 104.942 15.8965L107.969 23.0077C108.434 24.0989 109.17 25.6898 109.517 26.7819C108.709 26.7569 107.821 26.7765 107.007 26.7777C106.81 26.0633 106.337 25.1064 106.081 24.3183L105.166 24.3054L101.576 24.3154C101.252 24.9752 100.849 26.0569 100.529 26.7794L98.0977 26.77C99.6657 23.1862 101.19 19.506 102.724 15.9021ZM102.424 22.1856L103.912 22.1728L105.154 22.1628C105.011 21.7746 103.946 19.0214 103.794 18.8873C103.323 19.9805 102.866 21.0801 102.424 22.1856Z" fill="#1A1A1A"/>
<path d="M92.6084 0.98462L100.708 0.978516C100.703 1.69977 100.712 2.42104 100.735 3.14195C98.8132 3.12972 96.8916 3.13214 94.9691 3.1492L94.9725 5.179C96.6085 5.14313 98.3949 5.17517 100.042 5.17602L100.038 7.33089C98.7161 7.2526 96.9688 7.30552 95.6183 7.3116C95.3908 7.30783 95.3244 7.30567 95.1036 7.35838C94.8214 7.74168 94.965 8.97806 94.9691 9.54755L100.815 9.5468C100.849 10.2186 100.825 11.0195 100.821 11.7016C98.0952 11.672 95.3468 11.693 92.6184 11.6971C92.532 8.22547 92.6042 4.47434 92.6084 0.98462Z" fill="#1A1A1A"/>
<path d="M72.6421 30.9995L75.0411 30.9961L75.0607 35.6197C76.4775 34.07 77.9048 32.53 79.3426 30.9998L82.2642 31.0058C81.206 32.0113 78.8784 34.4904 77.8888 35.584C78.7068 36.7825 79.8006 38.1805 80.6774 39.368C81.2458 40.1473 81.8425 40.9987 82.4499 41.7411L79.5783 41.7655C78.4418 40.2951 77.3825 38.7349 76.2365 37.2489C75.813 37.6676 75.4648 38.028 75.0704 38.4737C75.0112 39.4304 75.0472 40.7801 75.045 41.7655C74.263 41.7428 73.4347 41.7631 72.6491 41.7699C72.5464 38.3715 72.6341 34.421 72.6421 30.9995Z" fill="#1A1A1A"/>
<path d="M131.811 0.98698C132.737 0.958397 133.798 0.984002 134.733 0.988016C133.323 2.46574 131.861 4.03725 130.419 5.47317C130.804 6.17196 132.595 8.47835 133.158 9.22725L134.961 11.6889L132.101 11.6907C131.094 10.4662 129.721 8.46409 128.781 7.15149C128.396 7.52244 127.928 8.05455 127.556 8.45513C127.497 9.42457 127.526 10.7047 127.522 11.6985L125.172 11.6989C125.127 8.16331 125.166 4.52743 125.167 0.984541L127.524 0.979747C127.532 2.5126 127.562 4.10583 127.527 5.63373C128.772 4.1636 130.475 2.41429 131.811 0.98698Z" fill="#1A1A1A"/>
<path d="M92.9603 15.7842C94.5076 15.6746 96.0416 16.2858 97.2768 17.1789C96.8966 17.7896 96.4384 18.4132 96.0416 19.0394C95.0156 18.2272 93.2177 17.5018 92.0149 18.318C91.555 18.6332 92.0182 19.4718 92.361 19.6534C94.2461 20.6499 97.6113 20.4364 97.588 23.3989C97.5656 26.206 95.6307 26.8425 93.2583 26.8708C91.6961 26.6436 90.251 26.3673 89.0723 25.136C89.5155 24.5575 89.992 24.0196 90.4701 23.4705C91.4571 24.1753 93.69 25.5146 95.0239 24.2716C95.1493 24.1554 95.2746 23.7832 95.2049 23.6335C94.5192 22.1486 91.7692 22.5067 90.5598 21.3952C90.0335 21.005 89.6351 20.4935 89.5479 19.8125C89.2291 17.3254 90.549 16.1605 92.9603 15.7842Z" fill="#1A1A1A"/>
<path d="M75.2484 0.852462C75.2727 0.848572 75.2971 0.844856 75.3216 0.841331C77.0272 0.596771 78.634 1.1553 79.9886 2.16853C79.6005 2.67643 79.1413 3.41485 78.7799 3.96079C78.1851 3.61255 74.8139 1.75183 74.5914 3.95382C74.5058 4.80103 77.1075 5.24962 77.9915 5.59104C79.7958 6.28802 80.7022 7.4648 80.1774 9.5346C79.669 11.2884 77.8207 11.8449 76.2088 11.877C74.4374 11.8097 73.1267 11.212 71.7656 10.1434C72.1544 9.59764 72.7176 8.96337 73.1582 8.44107C74.2318 9.20365 75.3386 9.84174 76.7001 9.74362C77.2134 9.70662 78.1519 9.09997 77.9228 8.58705C77.2902 7.17068 74.4973 7.44067 73.3355 6.40638C72.7371 5.8737 72.344 5.58476 72.2091 4.74743C71.9586 2.49493 73.1645 1.18814 75.2484 0.852462Z" fill="#1A1A1A"/>
<path d="M118.022 0.854935C119.842 0.579794 121.326 1.15354 122.793 2.15338C122.421 2.63614 121.874 3.46565 121.557 3.97135C120.806 3.51492 120.14 3.12101 119.258 2.96405C118.532 2.83467 117.444 2.96082 117.299 3.85603C117.43 5.1369 121.125 5.2287 122.13 6.33901C122.675 6.8301 123.071 7.44336 123.101 8.22607C123.195 10.71 121.447 11.7258 119.283 11.8756C117.433 11.9094 115.959 11.2407 114.539 10.1311C115.014 9.56837 115.479 8.99672 115.932 8.41645L116.079 8.52552C117.048 9.23833 118.274 9.88247 119.509 9.72886C120.096 9.65587 120.814 9.28752 120.653 8.60083C120.619 8.32728 120.337 7.98828 120.089 7.88096C117.815 6.90683 114.561 7.02608 115.018 3.53963C115.23 1.92055 116.515 1.09777 118.022 0.854935Z" fill="#1A1A1A"/>
<path d="M88.7642 0.990549C89.61 0.963377 90.543 0.983964 91.3947 0.9851C91.0959 1.53196 90.6095 2.85818 90.4086 3.44033C89.9595 4.36614 89.439 5.78187 89.0439 6.76776C88.3815 8.42172 87.6627 10.1409 87.0484 11.8056L84.9325 11.7886C83.7547 9.04188 82.7152 6.212 81.5649 3.45086C81.2309 2.64907 80.8887 1.80805 80.6113 0.986203L83.1811 0.979982C83.5638 1.72424 83.9763 2.9525 84.276 3.76266L85.9892 8.39916C86.3254 7.68743 86.7189 6.52311 87.0011 5.75945L88.7642 0.990549Z" fill="#1A1A1A"/>
<path d="M106.529 31.0017L115.448 30.9961L115.447 33.2363C114.646 33.1405 113.033 33.2036 112.19 33.2171C112.215 34.9959 112.195 36.8277 112.197 38.6105V41.7685C111.444 41.7353 110.5 41.7631 109.732 41.7641L109.736 33.2223C108.739 33.1744 107.545 33.2 106.533 33.1997L106.529 31.0017Z" fill="#1A1A1A"/>
<path d="M123.999 15.9606L126.336 15.9463C126.4 18.7518 126.346 21.7422 126.344 24.5618C128.123 24.5795 129.902 24.58 131.68 24.5629C131.682 25.0461 131.727 26.4147 131.639 26.7773C129.162 26.7143 126.458 26.7682 123.971 26.7793C123.88 24.7149 124.003 22.2973 123.952 20.1964C123.933 19.3813 123.907 16.5976 123.999 15.9606Z" fill="#1A1A1A"/>
<path d="M149.828 30.9962L152.179 30.9932C152.328 33.4118 152.208 37.0631 152.203 39.5674L157.552 39.5658L157.553 41.7768C155.048 41.7027 152.34 41.7562 149.82 41.762L149.828 30.9962Z" fill="#1A1A1A"/>
<path d="M140.86 30.9863C141.584 31.0162 142.451 30.9927 143.186 30.9916C143.258 33.7624 143.198 36.7766 143.196 39.5659L148.567 39.5654L148.559 41.7734C146.388 41.703 143.01 41.697 140.857 41.7868C140.747 38.4389 140.834 34.3765 140.86 30.9863Z" fill="#1A1A1A"/>
<path d="M72.6421 15.9661L75.0302 15.9512L75.0317 26.7828C74.2721 26.7538 73.4101 26.7775 72.6429 26.7817C72.5976 23.2139 72.6286 19.5376 72.6421 15.9661Z" fill="#1A1A1A"/>
<path d="M133.453 15.969L135.739 15.9463L135.754 26.7831C135.028 26.7493 134.132 26.7737 133.394 26.7742L133.381 19.48C133.38 18.8862 133.332 16.3667 133.453 15.969Z" fill="#1A1A1A"/>
<path d="M15.4653 0H16.7375C17.7774 0.18836 18.8782 0.234929 19.8899 0.4773C23.7423 1.43695 27.1133 3.76513 29.3734 7.02693C30.1971 8.21508 31.5673 10.8371 31.6997 12.2512C33.5067 6.0635 37.8559 1.58701 44.3497 0.324715C45.0448 0.189601 46.0236 0.176703 46.6724 0H48.0167C49.1349 0.216112 50.0683 0.23265 51.2271 0.515777C55.0978 1.48381 58.4744 3.84554 60.7098 7.14806C63.0956 10.7032 63.9786 15.0564 63.1664 19.2592C62.3449 23.4519 59.8949 27.1489 56.3523 29.5411C52.8052 31.9307 48.4523 32.8118 44.2541 31.9898C40.0515 31.165 36.3506 28.7019 33.9691 25.145C32.8427 23.4673 32.2572 22.0279 31.6954 20.1156C31.4282 22.2641 29.3955 25.3216 28.1981 27.109C24.9516 31.9549 21.8193 36.8938 18.5518 41.7235L9.74039 41.7285C10.6724 40.4592 11.7585 38.7075 12.6403 37.3527C13.7009 35.7233 14.9544 33.9355 15.9483 32.2976C11.3844 32.1144 7.40313 30.5093 4.27185 27.1126C2.41743 25.1243 1.10339 22.6947 0.454928 20.0552C0.336631 19.5547 0.0771904 17.8068 0 17.573V14.7801C0.0853445 14.4978 0.268354 13.1265 0.35711 12.705C0.794965 10.6518 1.64007 8.70707 2.84253 6.98563C5.11365 3.71633 8.50573 1.39269 12.3764 0.454782C13.3427 0.227462 14.4596 0.183027 15.4653 0ZM17.0104 24.8946C21.8389 24.3914 25.3435 20.0701 24.8355 15.2457C24.3275 10.4214 19.9996 6.92354 15.1719 7.43565C10.3507 7.94708 6.85576 12.2648 7.36308 17.0827C7.87041 21.9007 12.1882 25.3969 17.0104 24.8946ZM48.2656 24.8903C53.0881 24.3826 56.5858 20.0649 56.0781 15.2462C55.5705 10.4274 51.2498 6.93203 46.4272 7.43881C41.6039 7.94567 38.1053 12.2638 38.613 17.0832C39.1207 21.9026 43.4425 25.3981 48.2656 24.8903Z" fill="#1A1A1A"/>
<path d="M46.3177 34.1895L47.9716 34.1758C48.0251 36.642 47.9805 39.271 47.9777 41.746L46.5571 41.7322C45.3997 40.3381 44.0926 38.5246 42.9765 37.0634C42.9622 38.621 42.9617 40.1786 42.9746 41.7362L41.242 41.7315C41.225 39.2171 41.2221 36.7026 41.2331 34.1881C41.7455 34.1727 42.3072 34.1902 42.8241 34.1971C43.8613 35.3929 45.3041 37.4358 46.3174 38.7531L46.3177 34.1895Z" fill="#1A1A1A"/>
<path d="M30.6379 34.19C31.2735 34.1686 32.0181 34.1872 32.6625 34.1869C31.6664 35.2649 30.6281 36.3034 29.6296 37.3909C30.1425 38.1846 31.0323 39.3102 31.6162 40.0965C32.0142 40.6458 32.421 41.1887 32.8367 41.7248L30.7803 41.7293C30.0441 40.7688 29.1756 39.4306 28.4207 38.5761L27.652 39.3735C27.6009 40.2137 27.6009 40.8989 27.611 41.7347L25.9228 41.7314C25.8938 39.237 25.917 36.7008 25.9169 34.2031C26.4378 34.1753 27.0772 34.1863 27.6078 34.1815C27.5962 35.252 27.6036 36.3226 27.6299 37.3928C28.4767 36.4514 29.7339 35.0092 30.6379 34.19Z" fill="#1A1A1A"/>
<path d="M48.7305 34.1874L55.0157 34.1768L55.0082 35.743C54.3022 35.715 53.4545 35.7403 52.7382 35.7434L52.7391 39.4393L52.7252 41.7386L51.0524 41.7323L51.0496 35.741C50.2925 35.7232 49.4912 35.7383 48.7305 35.7403L48.7305 34.1874Z" fill="#1A1A1A"/>
<path d="M86.5771 41.8864C85.3411 41.3913 84.472 41.1829 83.5598 40.113C79.5284 35.3859 84.5874 28.9845 90.2087 31.2651C91.5393 31.8036 92.6002 32.8499 93.1563 34.1723C94.3218 36.9518 93.0833 40.2788 90.2685 41.4586C89.885 41.6194 89.4442 41.7525 89.0474 41.8864H86.5771ZM88.4448 39.6243C90.2411 39.3048 91.4331 37.5843 91.1002 35.7916C90.7674 33.999 89.0366 32.8204 87.2453 33.1661C85.4723 33.5082 84.3069 35.2157 84.6364 36.9901C84.9659 38.7643 86.6668 39.9406 88.4448 39.6243Z" fill="#1A1A1A"/>
<path d="M131.981 41.8868C130.249 41.2889 128.92 40.6455 128.067 38.9003C127.41 37.538 127.316 35.972 127.805 34.541C128.275 33.1762 129.269 32.0543 130.568 31.4226C131.984 30.7347 133.813 30.6569 135.296 31.1726C136.645 31.6332 137.754 32.6131 138.376 33.8944C139.724 36.693 138.589 40.1413 135.728 41.3988C135.311 41.5823 134.864 41.733 134.434 41.8868H131.981ZM133.79 39.6243C135.586 39.3032 136.776 37.5829 136.442 35.7914C136.109 33.9999 134.379 32.8221 132.589 33.1674C130.815 33.5093 129.65 35.2176 129.98 36.9923C130.31 38.767 132.012 39.9426 133.79 39.6243Z" fill="#1A1A1A"/>
<path d="M162.89 23.4466C164.158 24.3676 165.288 25.0417 166.944 24.6197C167.631 24.4445 167.969 23.5766 167.344 23.1468C165.752 22.0533 162.942 22.3558 162.077 20.2712C161.018 15.6946 166.042 14.9232 169.054 16.6817C169.299 16.8248 169.503 16.947 169.583 17.2397C169.513 17.6037 168.714 18.6802 168.475 19.0294C167.774 18.4983 166.163 17.6735 165.219 17.9465C164.729 18.1119 163.815 18.8269 164.455 19.3545C165.554 20.2605 167.125 20.2026 168.355 20.9111C169.347 21.4815 169.671 21.815 170.001 22.8639V24.1897C169.218 27.1736 166.034 27.2727 163.592 26.428C162.819 26.1606 162.126 25.6679 161.482 25.1738C161.836 24.6748 162.484 23.9378 162.89 23.4466Z" fill="#1A1A1A"/>
<path d="M35.6232 41.8864C34.8174 41.5969 34.1523 41.3827 33.5161 40.7722C32.4006 39.7016 31.9858 38.1546 32.5158 36.6884C32.8674 35.6878 33.6043 34.8689 34.5628 34.4137C35.5586 33.9497 36.8481 33.9146 37.878 34.2964C38.8465 34.6485 39.6322 35.3755 40.058 36.3134C40.4813 37.2411 40.5075 38.4021 40.1463 39.3531C39.7807 40.3129 39.0457 41.0864 38.1052 41.5009C37.7867 41.6407 37.3415 41.781 37.0093 41.8864H35.6232ZM36.8087 40.2104C38.0665 39.9616 38.8818 38.7381 38.6261 37.4825C38.3704 36.2271 37.1415 35.4191 35.8865 35.6813C34.641 35.9415 33.8397 37.1582 34.0934 38.4041C34.3471 39.6501 35.5604 40.4572 36.8087 40.2104Z" fill="#1A1A1A"/>
<path d="M58.1117 41.8863C56.8794 41.4507 55.7297 40.9606 55.1701 39.6903C53.6538 36.2492 56.9271 33.0371 60.3367 34.2747C61.2882 34.6247 62.0629 35.3359 62.492 36.2538C63.3796 38.1674 62.5991 40.6041 60.6422 41.4794C60.298 41.6334 59.8442 41.7732 59.4802 41.8863H58.1117ZM59.2208 40.218C60.4809 39.9991 61.3224 38.7979 61.0971 37.5398C60.8717 36.2818 59.6654 35.4469 58.4076 35.6782C57.1584 35.908 56.3299 37.1032 56.5537 38.3524C56.7775 39.6017 57.9695 40.4354 59.2208 40.218Z" fill="#1A1A1A"/>
<path d="M67.409 0H67.8605L67.8683 27.8012L67.8678 36.8538C67.8675 38.4013 67.9265 40.3843 67.8278 41.8864H67.4568C67.3743 41.4582 67.4065 38.9476 67.407 38.3323L67.412 30.4543L67.409 0Z" fill="#1A1A1A"/>
</g>
<defs>
<clipPath id="clip0_1493_1572">
<rect width="170" height="41.8864" fill="white"/>
</clipPath>
</defs>
</svg>
