<svg width="79" height="42" viewBox="0 0 79 42" fill="none" xmlns="http://www.w3.org/2000/svg">
<g clip-path="url(#clip0_1493_1544)">
<path d="M54.5146 2.70066C56.0726 2.53511 57.288 2.90229 58.313 4.08735C58.311 3.78526 58.2817 3.27665 58.3998 3.01684C58.5085 2.91956 61.0236 2.95553 61.4105 2.92771L61.4139 10.2495C61.4151 11.6039 61.476 13.0764 61.3499 14.4183C60.9445 18.732 55.4932 19.7145 52.2294 18.0158C51.0903 17.423 50.5595 16.5944 50.2035 15.3998C50.1599 15.1128 50.136 14.9161 50.1206 14.6268C50.3061 14.6093 50.5252 14.6124 50.7135 14.6149C51.5197 14.6257 52.3421 14.5885 53.1467 14.6332C53.4569 15.4569 53.9383 15.7625 54.7954 15.9128C56.0028 16.1244 57.4744 15.8927 58.1035 14.7112C58.5159 13.9377 58.2296 13.0312 58.3666 12.227L58.3701 12.2091C56.8036 14.2044 53.7446 14.0518 51.8144 12.6925C49.4054 10.9963 49.108 6.90631 50.833 4.64012C51.77 3.40943 53.0221 2.91828 54.5146 2.70066ZM55.9503 10.8283C57.4427 10.5914 58.4603 9.19429 58.2227 7.70738C57.9855 6.22051 56.5833 5.20671 55.0905 5.44284C53.5973 5.67905 52.5793 7.07654 52.8165 8.56394C53.0541 10.0514 54.4571 11.0652 55.9503 10.8283Z" fill="#1A1A1A"/>
<path d="M4.93466 19.765C5.18806 19.74 5.443 19.7339 5.69732 19.7467C6.94905 19.8091 7.75093 20.1773 8.5743 21.0856L8.63058 21.0731C8.58379 20.7524 8.65503 20.3481 8.69499 20.0188C9.69877 20.0192 10.7325 20.0362 11.7327 20.0022L11.7345 27.3004C11.7359 28.7026 11.7946 30.2837 11.6456 31.6663C11.5479 32.3646 11.298 33.0421 10.908 33.6298C8.72971 36.9117 1.37045 36.7056 0.511363 32.3562C0.465526 32.1378 0.4606 31.9192 0.448422 31.6964C1.42429 31.7432 2.46432 31.6768 3.45842 31.7205C3.55744 31.9468 3.71836 32.3001 3.9077 32.4549C4.97744 33.3294 7.14666 33.2408 8.10493 32.2415C8.80574 31.5107 8.68246 30.2265 8.66549 29.3101C7.11064 31.3081 3.93953 31.0961 2.06088 29.7049C-0.28443 27.9682 -0.558774 23.9205 1.18183 21.6808C2.15416 20.4297 3.41065 19.9617 4.93466 19.765ZM6.19014 27.9116C7.69234 27.7182 8.75135 26.3465 8.55335 24.8506C8.35535 23.3546 6.97559 22.3032 5.47443 22.5044C3.97876 22.7048 2.92802 24.0731 3.1253 25.5635C3.32258 27.054 4.69346 28.1042 6.19014 27.9116Z" fill="#1A1A1A"/>
<path d="M41.4741 2.70265C41.9486 2.65028 42.428 2.6608 42.9002 2.73391C43.8784 2.89133 44.6854 3.33691 45.2694 4.13864C45.1996 3.7523 45.2652 3.32693 45.2991 2.92942C46.1084 2.98845 47.5191 2.96423 48.3399 2.93489L48.3449 10.3327C48.3453 11.6701 48.414 13.2354 48.2682 14.5475C47.7872 18.8712 42.0319 19.757 38.8742 17.8472C37.9289 17.2756 37.357 16.3565 37.1244 15.2938C37.0919 15.0674 37.072 14.8503 37.0506 14.6229C37.706 14.5838 39.4243 14.5908 40.0739 14.6359C40.426 15.4665 40.8878 15.7767 41.7858 15.9215C42.6973 16.0685 43.6628 15.9704 44.4324 15.4247C45.6008 14.5963 45.1487 13.331 45.3269 12.183L45.3103 12.2055C43.8032 14.2333 40.5568 14.0261 38.6925 12.6473C36.3517 10.9163 36.0476 6.9292 37.7548 4.66927C38.7137 3.39974 39.9435 2.90808 41.4741 2.70265ZM42.3088 10.8581C43.8078 10.939 45.0927 9.80146 45.1876 8.30882C45.2829 6.81619 44.1531 5.52591 42.6556 5.41712C41.1385 5.30688 39.822 6.45064 39.7255 7.96314C39.6291 9.47564 40.7898 10.7762 42.3088 10.8581Z" fill="#1A1A1A"/>
<path d="M63.5908 15.6706C64.6303 15.6829 65.6703 15.6794 66.7099 15.6602C66.6674 16.4801 66.7025 17.6333 66.7025 18.471L66.7014 23.9891V28.1335C66.7014 28.7868 66.6724 29.8613 66.7303 30.4741L63.9159 30.4773C63.8473 30.0754 63.7852 29.5796 63.7462 29.1774C63.2879 29.719 62.8945 30.0394 62.2349 30.3318C61.2049 30.7881 59.4097 30.7701 58.3778 30.3518C57.6673 30.1481 56.8511 29.5745 56.3747 29.0251C54.5227 26.8889 54.608 22.8759 56.7967 20.9884C57.8899 20.0456 59.3457 19.7015 60.7648 19.8078C61.9564 19.8971 62.8501 20.3748 63.622 21.2611C63.5456 20.902 63.5591 19.5031 63.5661 19.0423C63.583 17.9624 63.531 16.737 63.5908 15.6706ZM61.4364 27.8699C62.881 27.5487 63.796 26.1278 63.487 24.6858C63.1776 23.2437 61.76 22.3191 60.3096 22.6137C58.8403 22.9122 57.8972 24.3472 58.2104 25.8081C58.5233 27.2691 59.9725 28.1953 61.4364 27.8699Z" fill="#1A1A1A"/>
<path d="M34.4017 19.7696C35.9477 19.7431 36.9066 19.9678 37.9363 21.1484C37.9452 20.7589 37.9456 20.3762 38.0037 19.9904C38.9519 19.9984 39.9857 20.0105 40.9277 19.9722C40.8297 22.3591 40.9639 24.8454 40.9107 27.2417C40.888 28.2703 40.8806 29.4577 40.9404 30.4765L38.1233 30.4776C38.0521 30.045 37.9949 29.6692 37.9483 29.2315C37.7707 29.4609 37.6076 29.6246 37.3889 29.8129C35.6464 31.1519 32.8517 30.9027 31.1799 29.5732C28.9084 27.7668 28.702 23.8059 30.495 21.6062C31.5275 20.3395 32.8379 19.9265 34.4017 19.7696ZM35.6284 27.9329C37.1308 27.6648 38.1296 26.2328 37.8577 24.7367C37.5858 23.2405 36.1464 22.2482 34.645 22.5219C33.1475 22.7949 32.1547 24.2241 32.4259 25.7163C32.6971 27.2085 34.1299 28.2002 35.6284 27.9329Z" fill="#1A1A1A"/>
<path d="M73.3109 19.7288C75.2384 19.5831 77.4584 20.3869 78.3676 22.1787C79.0469 23.5165 79.0411 24.7903 78.8598 26.2331C78.2179 26.2671 77.4738 26.2309 76.8208 26.2419C74.9514 26.2735 72.995 26.1898 71.133 26.259C71.4778 27.31 72.1486 27.8225 73.2395 27.9881C74.4442 28.1711 75.7067 27.9273 76.7019 27.207C76.8404 27.4067 77.3762 27.9574 77.5768 28.1857C77.87 28.5127 78.1643 28.8381 78.4609 29.1619C76.3301 31.1167 71.9218 31.2656 69.7262 29.3535C67.5734 27.4784 67.4275 23.529 69.3134 21.4218C70.3596 20.2529 71.7949 19.8183 73.3109 19.7288ZM71.1345 24.0048C71.6815 23.9415 73.3163 23.9837 73.9663 23.9847L76.1337 23.9824C75.9976 23.6132 75.9027 23.3321 75.6169 23.0434C75.0649 22.4863 74.0835 22.2878 73.3213 22.3795C72.1791 22.4927 71.5812 22.9804 71.1345 24.0048Z" fill="#1A1A1A"/>
<path d="M25.0614 2.89355C25.2809 2.94915 25.8026 2.92536 26.0445 2.93249C26.8084 2.95501 27.744 2.88006 28.485 2.94672C28.6959 3.32746 29.055 4.34618 29.2363 4.77667C29.8762 6.29551 30.4374 7.94938 31.1019 9.44928C31.2042 9.12315 31.3411 8.76279 31.4709 8.44612C32.2184 6.62367 32.8626 4.7203 33.6399 2.91412C33.7915 2.92541 33.9699 2.9277 34.1233 2.92607C35.099 2.91573 36.1071 2.96506 37.0795 2.91054C36.7837 3.46695 36.2039 4.94632 35.9352 5.5774L33.6166 11.0193L31.4725 16.0533C31.1965 16.7007 30.6581 17.865 30.4469 18.4999C29.4988 18.5572 28.0224 18.5137 27.0326 18.5133L28.5647 14.9893C28.8255 14.389 29.1742 13.6437 29.3984 13.0391L26.6111 6.63297C26.4442 6.24932 25.0213 3.08964 25.0614 2.89355Z" fill="#1A1A1A"/>
<path d="M48.9399 19.7628C48.963 19.76 48.9858 19.7575 49.0085 19.7555C50.0906 19.6507 51.5911 19.8956 52.4336 20.6426C54.0602 22.0594 53.8978 24.2671 53.9287 26.2029C53.9503 27.5671 53.8442 29.1391 53.9692 30.4764L50.7918 30.4754C50.7027 28.4256 50.8617 26.2892 50.7263 24.2476C50.6171 22.6035 48.7424 22.1297 47.4112 22.8921C47.2877 22.9777 47.1724 23.0741 47.0667 23.1803C46.7473 23.4968 46.5197 23.893 46.4071 24.3273C46.247 24.9638 46.2921 26.2695 46.2921 26.9805L46.2991 30.4756L43.261 30.4761C43.1673 27.7279 43.281 24.933 43.2336 22.1812C43.2216 21.479 43.2147 20.6866 43.2691 19.9899C44.1918 19.9957 45.1141 19.9924 46.0364 19.9799C46.0954 20.4364 46.1571 20.8507 46.0966 21.3085C47.0463 20.2873 47.54 19.9754 48.9399 19.7628Z" fill="#1A1A1A"/>
<path d="M26.434 19.9826C27.5028 19.9954 28.9023 20.0359 29.9533 19.9727C29.7139 20.3988 29.1331 21.8404 28.9292 22.3434C28.4994 23.2796 28.0841 24.297 27.6772 25.2472L25.4175 30.5263C24.4803 30.5877 23.0199 30.5424 22.0447 30.5412C21.7551 30.0063 21.3696 29.0223 21.1195 28.4374L19.4497 24.5324L18.215 21.6648C18.0425 21.2646 17.6347 20.374 17.543 19.9802C18.5895 20.0176 19.9891 19.9334 20.9685 20.0218C21.1855 20.3827 21.6149 21.5461 21.7862 21.9827C22.4785 23.7163 23.122 25.4689 23.716 27.2383C23.8854 26.6303 24.2384 25.7224 24.4607 25.1006C25.0827 23.3811 25.7406 21.6748 26.434 19.9826Z" fill="#1A1A1A"/>
<path d="M64.653 0.0679865C65.0079 0.114455 67.2915 0.0861975 67.7173 0.0625C67.7459 0.436278 67.7513 2.68189 67.7038 2.99072C68.5725 2.9831 69.5327 2.96642 70.3948 2.99862C70.3527 3.84528 70.4249 4.75238 70.3682 5.56855C69.9357 5.6195 68.1648 5.60206 67.6981 5.57355C67.7289 6.52875 67.5785 9.41899 67.7887 10.0876C67.8743 10.3601 68.0387 10.6057 68.3006 10.7355C68.8356 11.0005 69.6268 10.7772 70.161 10.5962C70.3199 11.2601 70.5425 11.9892 70.73 12.6513C70.7663 12.8341 70.8199 12.9758 70.8816 13.1496C69.2815 13.7772 66.6793 14.0231 65.4654 12.5166C64.3946 11.1876 64.6225 9.11457 64.6009 7.51277C64.5936 6.97034 64.5489 6.1099 64.6083 5.58757C63.9938 5.58638 63.3793 5.58888 62.7648 5.59503C62.7266 4.78177 62.7513 3.80914 62.7606 2.98711C63.3774 2.98113 63.9942 2.98307 64.6106 2.99292C64.5936 2.44949 64.5701 0.523037 64.653 0.0679865Z" fill="#1A1A1A"/>
<path d="M8.74858 0.0615234C9.25922 0.145007 11.4893 0.00758856 11.7837 0.134318C11.8953 0.392075 11.8596 2.61216 11.8265 2.99071L14.4714 2.98869L14.4705 5.57457C13.9195 5.60854 12.3342 5.61476 11.7946 5.57472C11.828 6.5036 11.7822 7.44201 11.8016 8.37677C11.8134 8.9474 11.7221 9.97223 12.0719 10.4448C12.6605 11.24 13.6519 10.6218 14.2347 10.676C14.3935 10.835 14.801 12.4918 14.8983 12.8254L14.9899 13.1653C14.1473 13.4709 13.4216 13.6379 12.5168 13.6392C11.5273 13.6406 10.4975 13.4519 9.77658 12.7234C8.60524 11.5398 8.70838 9.62105 8.71085 8.08773L8.71629 5.57622C8.1717 5.60996 7.44049 5.59063 6.88189 5.59109C6.81601 4.8183 6.8498 3.76419 6.87707 2.99143C7.47841 2.97255 8.12379 2.98626 8.72883 2.98953C8.69396 2.45612 8.69137 0.544431 8.74858 0.0615234Z" fill="#1A1A1A"/>
<path d="M21.9574 2.70467C23.1979 2.66043 23.9512 2.877 24.9163 3.66087L23.6077 6.11798C22.3529 5.11332 20.0516 5.49363 19.6141 7.20056C19.5078 7.80916 19.4915 8.55275 19.5215 9.1718C19.5869 10.5195 19.4255 12.0866 19.553 13.41L18.8826 13.4117L16.4076 13.4118C16.3334 10.6798 16.4314 7.91284 16.3908 5.17811C16.38 4.4532 16.3718 3.66518 16.4137 2.94464C16.8786 2.9532 18.9621 2.91127 19.2575 3.01006C19.4055 3.16265 19.4696 3.82764 19.5058 4.07274C19.5362 4.02939 19.5675 3.98662 19.5996 3.94455C20.2422 3.1027 20.9446 2.84055 21.9574 2.70467Z" fill="#1A1A1A"/>
<path d="M13.5965 19.9577C14.5672 19.9586 15.6975 19.9244 16.652 19.9659C16.5768 21.135 16.6858 30.3509 16.6145 30.4746L13.5146 30.4756C13.4269 27.1717 13.5412 23.8225 13.4971 20.5142C13.4948 20.3413 13.4743 20.0769 13.5965 19.9577Z" fill="#1A1A1A"/>
<path d="M29.6419 34.2529C30.0942 34.258 30.4697 34.344 30.8567 34.5882C30.9566 34.6513 31.1316 34.7784 31.2327 34.8128C31.2225 34.653 31.2156 34.5596 31.2961 34.4214C31.4555 34.3096 32.4582 34.3585 32.7115 34.3614C32.6574 34.9322 32.6761 35.6872 32.6756 36.2695L32.6863 39.414L31.3014 39.4083L31.2479 38.8307L30.9827 39.0897C30.6711 39.3099 30.3103 39.4509 29.9315 39.5009C27.4835 39.8171 26.2938 36.9495 27.6691 35.1506C28.1547 34.5153 28.8845 34.334 29.6419 34.2529ZM30.1441 38.162C30.8457 38.0294 31.3102 37.3599 31.1868 36.6593C31.0633 35.9586 30.3978 35.4867 29.6928 35.6C29.228 35.6747 28.8396 35.9928 28.6762 36.4327C28.5128 36.8725 28.5997 37.3658 28.9037 37.7239C29.2077 38.082 29.6816 38.2494 30.1441 38.162Z" fill="#1A1A1A"/>
<path d="M64.1826 34.2524C64.9784 34.1771 65.9211 34.4239 66.4527 35.0466C67.0294 35.7221 67.0344 36.5492 66.963 37.3804C65.9014 37.4445 64.3674 37.3801 63.2526 37.4006C63.6938 38.4893 65.0497 38.3557 65.8918 37.8346C66.0538 37.9559 66.1557 38.0872 66.2856 38.2394C66.4461 38.4405 66.6039 38.5881 66.7875 38.7671C65.2349 39.9226 62.5058 39.8876 61.8562 37.7089C61.4589 36.3775 62.0255 34.7811 63.452 34.3844C63.7093 34.3129 63.9145 34.2825 64.1826 34.2524ZM63.2549 36.2786L64.4862 36.2809C64.8542 36.2804 65.2723 36.2895 65.6361 36.2723C65.3375 35.689 65.0563 35.5416 64.3832 35.5155C63.815 35.6051 63.5226 35.7306 63.2549 36.2786Z" fill="#1A1A1A"/>
<path d="M45.8239 34.2527C46.6023 34.1574 47.6145 34.458 48.1137 35.07C48.6703 35.7521 48.6776 36.5603 48.5951 37.3839C47.5111 37.4417 46.0241 37.3817 44.895 37.4004C45.322 38.4943 46.6999 38.3525 47.5358 37.8322C47.6577 37.9283 47.7931 38.0898 47.8992 38.2083C48.0843 38.4382 48.214 38.5631 48.4288 38.7679C46.8993 39.8992 44.2181 39.9022 43.5172 37.7826C43.0782 36.4551 43.6379 34.7953 45.0717 34.3905C45.3375 34.3155 45.5446 34.2846 45.8239 34.2527ZM44.8777 36.2821C45.2935 36.2772 45.7093 36.277 46.1252 36.2813C46.4959 36.2808 46.914 36.2898 47.2805 36.2725C46.9761 35.6968 46.6949 35.5405 46.0214 35.516C45.3687 35.6201 45.2229 35.7297 44.8777 36.2821Z" fill="#1A1A1A"/>
<path d="M35.2304 34.2507C36.179 34.184 36.7889 34.3408 37.558 34.8937C37.4514 35.0185 36.8721 35.8138 36.7305 35.762C36.2774 35.5964 34.9562 35.0639 34.8918 35.9175C34.8639 36.2883 36.2446 36.2989 36.5039 36.3769C36.8373 36.4772 37.1631 36.5692 37.4324 36.8242C37.9969 37.3719 37.9366 38.4667 37.3707 38.9916C36.7989 39.5215 36.1518 39.6026 35.4302 39.5999C34.5035 39.5503 33.9598 39.2867 33.2305 38.7522C33.3591 38.4721 33.6915 37.9459 33.8595 37.662C34.4635 38.0775 35.0636 38.3359 35.8124 38.3116C36.0403 38.3042 36.3946 38.1041 36.3305 37.8454C36.2293 37.437 35.2857 37.4466 34.9097 37.3863C33.6546 37.1851 32.9853 36.1366 33.6654 34.9923C33.9511 34.5183 34.6612 34.3381 35.2304 34.2507Z" fill="#1A1A1A"/>
<path d="M25.6977 34.3535C26.2649 34.3614 26.8322 34.3635 27.3994 34.36C27.2365 34.6739 27.0326 35.1902 26.8851 35.5283C26.3973 36.7731 25.7526 38.1799 25.2208 39.4238C24.7112 39.4472 24.0919 39.4357 23.5742 39.4391C23.1316 38.2813 22.5107 37.0455 22.0503 35.8843C21.8848 35.467 21.5363 34.7663 21.4336 34.3587C21.9139 34.3539 22.6226 34.3443 23.0867 34.389C23.4324 35.0561 23.7433 36.0178 24.0261 36.729C24.1345 37.0018 24.2529 37.4978 24.3894 37.7265C24.4222 37.7079 25.5194 34.7277 25.6977 34.3535Z" fill="#1A1A1A"/>
<path d="M41.9146 34.3555L43.6196 34.3644C43.4402 34.7223 43.2458 35.214 43.0865 35.5922L41.4552 39.4093C40.9525 39.4466 40.3114 39.4339 39.7976 39.435C39.3452 38.3435 38.8537 37.2569 38.397 36.1667C38.1493 35.5755 37.8612 34.9608 37.6543 34.3576C38.1715 34.3588 38.8267 34.3449 39.3309 34.3806C39.8034 35.5091 40.2335 36.6547 40.6204 37.815C40.8692 36.9531 41.54 35.1986 41.9146 34.3555Z" fill="#1A1A1A"/>
<path d="M51.8766 34.2516C52.392 34.2154 52.834 34.4599 53.2564 34.7027C53.0666 35.0993 52.8263 35.5039 52.6269 35.9166C51.0068 35.06 50.5331 36.3362 50.6793 37.6699C50.7283 38.1174 50.6889 38.9361 50.6781 39.4045L50.373 39.4191C49.9664 39.4122 49.5598 39.4091 49.1533 39.4099C49.1016 38.2034 49.1506 36.9818 49.1355 35.7739C49.1297 35.3079 49.134 34.8343 49.1621 34.3695C49.5595 34.3514 50.1628 34.3475 50.5528 34.3784C50.594 34.5389 50.6195 34.7482 50.6446 34.9153C51.0168 34.436 51.3115 34.3398 51.8766 34.2516Z" fill="#1A1A1A"/>
<path d="M14.8623 15.1301C15.8319 15.0227 16.7057 15.7175 16.8154 16.6831C16.9251 17.6488 16.2291 18.5205 15.26 18.6316C14.2883 18.7429 13.4104 18.0475 13.3004 17.0793C13.1905 16.1111 13.8902 15.2378 14.8623 15.1301Z" fill="#1A1A1A"/>
<path d="M53.6114 34.3514C54.0871 34.3732 54.6641 34.3603 55.1482 34.3624C55.0719 36.004 55.1926 37.7668 55.1243 39.4039C54.7548 39.4354 54.0061 39.412 53.6084 39.4104C53.5412 38.5016 53.5972 37.3356 53.5779 36.4053C53.569 35.9755 53.5574 34.711 53.6114 34.3514Z" fill="#1A1A1A"/>
<path d="M19.6004 34.3496C20.1095 34.3714 20.6315 34.3581 21.1418 34.3521C21.1035 35.9953 21.1443 37.7548 21.1374 39.4121C20.6308 39.4098 20.1241 39.411 19.6174 39.4164C19.5678 38.9349 19.5918 38.0156 19.5915 37.5056C19.5859 36.4536 19.5889 35.4016 19.6004 34.3496Z" fill="#1A1A1A"/>
<path d="M20.1506 32.2489C20.6078 32.1339 21.0726 32.4077 21.1916 32.8623C21.3107 33.3168 21.0394 33.7819 20.5841 33.9041C20.1236 34.0276 19.6503 33.7537 19.53 33.2941C19.4096 32.8345 19.6883 32.3651 20.1506 32.2489Z" fill="#1A1A1A"/>
<path d="M54.1366 32.2516C54.4375 32.1745 54.7561 32.2655 54.9702 32.4895C55.1843 32.7134 55.2595 33.0352 55.1673 33.3305C55.0751 33.6257 54.8298 33.8481 54.5262 33.9116C54.071 34.0069 53.6224 33.7225 53.5167 33.2712C53.411 32.82 53.6864 32.3671 54.1366 32.2516Z" fill="#1A1A1A"/>
<path d="M17.3152 38.8911C16.8348 39.3591 16.4138 39.5393 15.7193 39.547C13.2862 39.5747 12.4006 36.5403 13.9383 34.9397C14.3994 34.4597 15.2016 34.2417 15.8569 34.2482C16.6399 34.2369 17.0381 34.7652 17.2744 34.8043C17.3584 34.6547 17.2352 34.3958 17.419 34.3757C17.8363 34.33 18.3863 34.3625 18.8029 34.3574C18.7928 35.5414 18.7913 36.7255 18.7984 37.9095C18.7993 39.0059 18.9659 40.3651 18.1384 41.222C17.6083 41.7711 17.0482 41.7692 16.4198 41.9997H15.5635C14.7862 41.7938 14.0503 41.6259 13.6136 40.8712C13.5593 40.7774 13.2295 39.9758 13.4285 39.9666C13.8049 39.9493 14.272 39.9362 14.651 39.995C14.8912 40.01 15.05 40.3805 15.2356 40.4661C15.7186 40.6886 16.3834 40.674 16.8381 40.3874C17.4233 40.0181 17.2245 39.454 17.3152 38.8911ZM16.2543 38.1322C16.9443 37.9728 17.3779 37.2908 17.2274 36.6013C17.0769 35.9118 16.3983 35.4706 15.7041 35.611C15.2465 35.7035 14.8743 36.0343 14.7301 36.4767C14.5858 36.9191 14.6917 37.4046 15.0073 37.7474C15.323 38.0902 15.7994 38.2372 16.2543 38.1322Z" fill="#1A1A1A"/>
<path d="M59.7578 38.8924C59.2968 39.3501 58.876 39.5414 58.2206 39.5518C56.3235 39.5806 55.282 37.7919 55.7468 36.0822C56.2309 34.2999 58.3351 33.6757 59.7277 34.8554C59.7655 34.7518 59.7697 34.4801 59.7767 34.3571C60.1481 34.358 60.9219 34.3405 61.2633 34.373C61.2367 35.5092 61.2494 36.7124 61.2556 37.853C61.2652 39.6413 61.5071 41.3728 59.2667 41.9035C59.1676 41.9269 58.9847 41.968 58.8856 42.0003H57.998C56.7015 41.5842 56.0593 41.4919 55.7985 39.9526C56.2359 39.9549 56.8446 39.9376 57.2593 40.0206C57.3245 40.0982 57.3962 40.1851 57.4665 40.2573C57.9128 40.7173 58.9091 40.7415 59.3867 40.328C59.6058 40.1378 59.7369 39.8665 59.7493 39.5775C59.7605 39.3631 59.7566 39.1099 59.7578 38.8924ZM58.6858 38.1373C59.3805 37.9933 59.8291 37.3187 59.6914 36.6253C59.5533 35.9319 58.8806 35.4786 58.1832 35.6093C57.4765 35.7419 57.014 36.4233 57.1536 37.1261C57.2933 37.8289 57.9818 38.2832 58.6858 38.1373Z" fill="#1A1A1A"/>
</g>
<defs>
<clipPath id="clip0_1493_1544">
<rect width="79" height="42" fill="white"/>
</clipPath>
</defs>
</svg>
