<svg width="200" height="48" viewBox="0 0 200 48" fill="none" xmlns="http://www.w3.org/2000/svg">
<path d="M91.9289 46.8313C82.852 47.4289 90.0622 47.5277 79.2365 46.9927C70.3132 46.5507 74.0716 47.7682 62.924 46.4842C62.1212 46.7717 62.3866 46.67 62.2179 47.022C60.1712 47.1198 39.0834 46.7159 34.9159 46.7032C34.3654 46.6031 33.8149 46.503 33.2644 46.4029C31.8735 46.4332 25.839 46.6142 25.1589 46.5829C24.2676 46.5426 23.3938 46.5069 22.5312 46.4749C17.6356 46.2789 13.1218 44.812 9.00859 41.7648C8.60637 41.1259 8.69061 41.3177 8.81542 41.0268C7.45712 39.8783 7.09426 39.6945 6.1148 39.0778C4.63123 37.5935 -0.193077 31.6579 0.00574887 23.3423C0.00574887 23.3423 0.00574887 23.3423 0.00574887 23.3423C-0.100667 15.8994 4.71543 8.08603 10.4927 4.76798C16.2313 1.23039 21.6017 1.57746 22.4656 1.734C22.4877 1.80924 22.5096 1.88452 22.5312 1.95983C20.5089 2.277 17.987 2.62592 15.6414 3.45884C8.97319 5.72091 3.35643 11.5832 1.7256 18.5731C1.34832 20.1308 1.14894 21.7338 1.12866 23.3423C0.701526 34.7391 10.8868 45.2917 22.5312 45.1831C25.3934 45.2227 28.2567 45.2637 31.1215 45.3066C37.0177 45.3946 42.8882 45.4719 48.8048 45.4993C51.6378 45.512 54.7059 45.4426 57.5081 45.511C61.277 45.603 65.0052 45.9962 68.4262 45.6011C71.3156 45.2666 94.4396 45.5628 99.1545 45.5775C104.432 45.5951 109.704 45.5101 114.977 45.5033C118.848 45.4984 122.76 45.5991 126.615 45.5698C130.548 45.5404 134.429 45.3644 138.361 45.3233C151.071 45.1892 163.803 45.0964 176.531 44.9852C182.194 44.9633 187.764 42.5828 191.68 38.5638C191.845 38.4758 193.643 36.8153 193.643 36.7615C195.855 34.326 198.217 27.4329 198.006 23.3423C198.006 23.3423 198.006 23.3423 198.006 23.3423C198.024 22.5252 198.014 21.833 198.023 21.3128C198.146 21.0783 198.264 20.8348 198.378 20.5906C198.327 20.2088 198.266 19.8286 198.194 19.4492C197.907 19.5518 198.047 19.4666 197.779 19.7168C197.223 16.7234 195.472 11.9921 192.074 8.51467C188.86 4.95377 182.591 1.89724 176.531 2.06682C172.649 2.08841 168.955 2.0544 166.004 1.88545C165.401 1.85123 165.462 1.58433 165.375 1.44251C165.029 1.44281 164.683 1.4431 164.337 1.4434C163.764 1.57641 162.792 1.88839 161.949 1.88253C157.341 1.8532 154.79 2.61598 150.924 2.00772C147.63 2.03706 144.997 2.3216 142.43 2.21989C141.744 2.00867 141.54 1.90984 141.023 1.68003C140.704 1.6709 140.386 1.66177 140.067 1.65265C139.361 1.75631 138.487 1.88639 137.428 2.04287C130.75 2.19641 123.775 2.29132 117.03 2.27568C114.948 2.27079 111.809 2.58464 110.76 2.57586C103.959 2.525 97.4287 2.73827 90.7655 2.71773C90.2998 2.7167 88.536 2.56029 88.3315 2.55344C86.2247 2.48302 84.9464 2.18869 83.1413 2.34025C83.0458 2.4915 82.9502 2.64276 82.8547 2.79402C82.4542 2.83312 82.0537 2.87221 81.6532 2.91131C80.1497 2.73528 80.4255 2.75193 79.1522 2.49766C76.6724 2.68053 78.1552 2.83795 76.9689 2.86827C75.4502 2.90738 67.6938 2.6786 66.6701 2.7646C64.7729 2.924 64.384 3.17146 61.2392 3.27415C61.0448 3.22168 60.8504 3.16921 60.6559 3.11674C59.0707 2.69427 59.1423 2.64045 56.9894 2.54363C56.6588 2.58405 56.3283 2.62446 55.9977 2.66488C56.5448 2.8546 57.0251 3.02677 57.5263 3.22041C55.5105 3.53525 37.479 3.14705 33.3759 3.09229C32.7076 2.95147 32.023 2.81943 31.278 2.69328C30.8307 2.69459 30.3834 2.69591 29.9362 2.69723C27.409 2.60921 24.4029 2.39594 22.5312 2.05267C22.6784 1.8835 22.8256 1.71433 22.9727 1.54516C30.609 2.28934 49.2162 0.358923 52.7297 2.05166C52.5917 2.08821 52.4537 2.12476 52.3157 2.16131C51.3441 2.42241 50.5975 2.54562 50.6742 2.85171C51.0968 2.87226 51.5195 2.8928 51.9421 2.91335C54.2893 2.50749 53.625 1.90697 53.5227 1.32801C58.8764 0.812681 57.4243 1.65459 61.3411 1.50402C68.6537 1.22432 74.8774 0.527 82.5735 0.808654C86.6798 0.95926 85.9129 0.947564 88.0453 0.465427C92.3407 0.431204 92.8674 0.687475 96.6667 0.804833C97.9298 0.843952 100.098 0.379407 103.197 0.38723C103.995 0.641478 103.78 0.531963 103.816 0.846861C104.124 0.864776 104.433 0.88269 104.741 0.900605C105.565 0.6395 105.263 0.779333 105.299 0.449763C105.575 0.460843 105.851 0.471923 106.127 0.483003C106.362 0.580473 106.598 0.677943 106.833 0.775414C109.028 0.826213 135.789 0.0420849 136.723 0.121182C148.075 1.0923 148.055 -0.434291 160.138 0.452692C160.89 0.510391 165.533 -0.0528084 168.878 0.0038867C170.458 0.193604 170.396 0.232719 171.455 0.538785C171.854 0.551521 172.253 0.564256 172.652 0.576992C173.414 0.277735 173.214 0.382284 173.49 0.050754C173.802 0.0423059 174.114 0.0338579 174.426 0.0254099C174.84 0.0879846 175.255 0.150559 175.669 0.213134C176.004 0.185538 176.287 0.160631 176.531 0.138329C178.075 0.0356756 178.194 -0.0256557 180.174 0.282737C181.696 0.81716 182.536 1.26389 184.246 1.95317C184.877 2.05103 185.506 2.17604 186.135 2.32997C189.059 3.75928 191.178 5.51776 193.882 8.4351C194.473 9.04718 196.69 11.7868 197.899 14.7879C199.183 17.7527 199.509 20.7325 199.521 20.4699C199.511 21.4389 199.503 22.3903 199.478 23.3423C199.478 23.3423 199.478 23.3423 199.478 23.3423C199.42 27.9395 198.526 32.7934 195.918 35.068C194.898 36.913 194.059 38.1044 192.568 39.6817C190.694 41.0325 191.242 40.5863 189.321 41.968C188.27 42.9398 188.247 43.0903 187.871 43.6827C187.648 43.8067 187.424 43.9266 187.198 44.0431C187.235 43.8945 187.27 43.746 187.304 43.5977C184.477 44.7424 181.7 46.6237 176.531 46.7879C175.97 46.7973 175.385 46.7982 174.771 46.7883C174.681 46.7547 174.59 46.7211 174.5 46.6876C174.996 46.5914 175.492 46.4953 175.988 46.3991C174.746 46.1526 174.076 46.1272 172.521 45.96C171.549 46.1888 171.529 46.2338 170.905 46.5076C170.547 46.5344 170.189 46.5611 169.831 46.5878C169.269 46.3707 168.757 46.1956 167.98 46.0049C167.612 46.029 167.244 46.0532 166.875 46.0773C164.145 47.5911 156.93 46.4099 154.224 46.9379C154.132 47.0041 154.04 47.0703 153.948 47.1365C153.382 47.1437 152.816 47.1508 152.25 47.158C152.177 47.0853 152.104 47.0126 152.031 46.9399C152.636 46.7746 153.241 46.6093 153.846 46.4441C153.699 46.4079 153.553 46.3717 153.406 46.3355C147.622 46.5262 142.069 46.6357 136.259 46.8479C135.319 46.6465 135.631 46.7325 135.186 46.4616C134.855 46.4694 134.524 46.4773 134.193 46.4851C133.391 46.7667 132.578 47.0465 131.749 47.3252C126.958 47.423 123.624 46.8469 119.226 47.1257C117.252 47.2499 116.74 47.2519 115.078 47.158C115.089 46.9096 115.273 46.9193 114.659 46.7022C114.378 46.7156 114.097 46.729 113.816 46.7423C113.58 46.8734 113.345 47.0044 113.11 47.1355C112.8 47.1348 112.489 47.1342 112.179 47.1336C112.029 47.0129 111.879 46.8923 111.729 46.7716C105.879 46.9477 107.884 47.4318 99.4357 47.2323C99.2311 47.1919 99.0265 47.1514 98.8219 47.111C99.1884 46.9725 99.555 46.8339 99.9216 46.6953C98.096 46.6327 98.2187 46.6221 96.5517 46.7707C95.9585 47.0054 95.8306 47.0631 95.4471 47.3125C92.9977 47.3614 93.105 47.2929 91.9289 46.8313Z" fill="#34140B"/>
</svg>
