<svg width="109" height="104" viewBox="0 0 109 104" fill="none" xmlns="http://www.w3.org/2000/svg">
<path d="M14.6014 66.664C17.5906 63.5884 20.747 60.0977 23.1805 56.544C23.9478 55.4401 24.0717 56.2948 24.6247 55.5161C25.6987 53.9852 26.2929 52.2384 27.3775 50.592C27.739 50.0466 28.1352 51.145 28.4993 50.5589C29.3131 49.2408 30.0231 47.8839 30.7098 46.4983C31.8087 44.277 32.887 42.1411 34.3089 39.9456C39.7105 31.1811 48.9175 22.8745 59.0931 19.7459C69.0732 16.456 77.8393 15.4394 85.8851 11.9302C86.7135 11.577 87.4966 11.3052 88.4633 11.0788C91.0583 10.3906 94.9121 10.7925 97.5589 12.6564C100.22 14.4486 101.682 16.7986 102.708 18.9217C104.701 23.2511 105.286 27.3283 105.755 31.1617C105.851 32.0548 106.553 31.4792 106.624 31.6473C107.657 34.3787 106.134 33.5016 105.894 35.2775C105.419 37.9198 105.138 40.5353 103.216 43.9687C101.744 46.5514 98.629 48.9574 95.5633 49.5176C92.5286 50.1491 89.9902 49.7388 87.8143 49.2939C84.9443 48.593 87.3172 50.865 84.7646 49.1438C84.5986 49.0244 85.5347 48.5321 84.8419 48.1906C83.2488 47.4291 80.344 46.2114 79.2592 45.5659C77.1643 44.3327 76.8276 44.1412 74.8915 43.0244C72.2769 41.5094 69.3865 39.2104 66.8596 38.1576C66.3696 37.9725 66.6175 38.9649 65.8847 38.7895C65.7468 38.7639 65.5392 38.7099 65.5052 38.7135C64.7358 38.5089 63.6479 38.3588 63.158 38.2433C62.5346 38.0844 62.7374 37.4476 62.6115 37.3102C61.3998 36.1125 59.2057 38.5843 59.0069 38.7765C53.6618 41.9264 48.5297 45.9569 44.0393 51.3001C40.6479 55.4124 37.5969 60.334 34.7632 64.6515C31.3964 69.7844 28.3594 74.1252 25.4605 79.4444C25.1555 80.0036 26.3411 79.8163 25.9742 80.4939C24.8167 82.629 23.6642 84.7682 22.4477 86.9102C22.0533 87.5714 21.8823 88.2001 21.8785 88.2295C21.8652 88.2426 21.8786 88.0426 21.6951 87.6733C21.5247 87.3072 21.0901 86.889 20.756 86.7508C20.4168 86.598 20.2487 86.6353 20.2621 86.6559C20.2714 86.6809 20.4305 86.6942 20.651 86.6518C21.1016 86.571 21.7683 86.285 22.4361 85.8365C23.0325 85.4282 23.6219 84.9612 24.1987 84.4446C24.7062 83.9817 24.7204 85.204 25.2786 84.7502C28.7897 82.0655 33.581 75.15 31.349 71.043C32.7774 67.971 34.497 64.0217 36.5369 61.3868C37.8602 59.6962 37.7762 61.9192 38.5725 59.4578C38.7625 58.9027 37.7089 59.2159 38.0578 58.3992C38.9955 56.2302 40.3603 54.0296 41.9696 51.9533C42.8202 50.8513 43.6664 49.7617 44.4415 48.6636C44.8657 48.0606 44.2082 47.7356 44.2541 47.4938C44.6803 45.4614 48.0011 44.5279 48.5398 44.1913C52.6784 41.4858 55.1537 38.9691 58.9927 36.4197C59.8914 35.8389 58.3059 35.7353 59.1663 35.145C63.6357 32.1114 69.1129 29.6954 74.7668 29.2132C76.016 29.1188 75.0037 30.0909 75.5962 30.0923C78.1493 30.1606 78.6746 28.6039 81.2548 29.0374C81.7907 29.1401 81.4365 29.8124 81.5287 29.8948C81.6566 30.0128 81.7829 30.1079 81.9081 30.1834C82.0171 30.2053 82.1226 30.2185 82.4045 30.2949C82.6383 30.3902 83.1427 30.423 83.8999 31.2378C84.6955 32.1129 84.6283 33.4098 84.5189 33.7273C84.3889 34.2395 84.2987 34.3422 84.2054 34.5204C84.0444 34.7867 83.9375 34.8983 83.8652 34.9794C83.7829 35.0699 83.7241 35.1263 83.6704 35.1784C83.463 35.3754 83.3365 35.4981 83.2362 35.6247C83.0322 35.8778 82.9114 36.1426 82.8339 36.3967C82.6737 36.9083 82.6542 37.4005 82.5487 37.515C80.0425 40.2348 77.4056 40.9205 74.8258 42.7622C74.3077 43.1311 73.7906 43.5435 73.2751 44.0243C72.9091 44.3679 74.3407 44.3242 73.275 45.2494C66.1472 51.4246 58.1569 57.1461 50.6636 62.4033C49.4989 63.2224 49.8618 62.0697 49.7414 62.0635C47.8047 62.0145 48.1678 63.9314 47.8569 64.2762C45.3694 66.9655 41.8625 68.1655 41.4244 71.3273C35.828 76.027 30.8617 81.3555 26.6657 87.105C26.6502 87.109 26.7326 87.0781 26.92 86.5557C26.9641 86.4193 27.0128 86.2432 27.0443 86.0009C27.0597 85.8798 27.0703 85.7418 27.0695 85.5848C27.0716 85.3524 27.0283 84.8923 26.8605 84.4604C26.5525 83.536 25.5767 82.7409 24.9183 82.5457C24.2425 82.3152 23.852 82.3572 23.6083 82.3712C23.5476 82.3766 23.4924 82.3837 23.4505 82.39C23.4339 82.3925 23.4181 82.3951 23.4033 82.3976C23.3735 82.4027 23.347 82.4078 23.3232 82.4127C23.2757 82.4225 23.2391 82.4316 23.2105 82.4393C23.1535 82.4547 23.1276 82.4642 23.1201 82.467C23.1036 82.4739 23.1715 82.4486 23.2488 82.4137C23.3567 82.3661 23.5174 82.2888 23.7134 82.1874C23.8115 82.1367 23.9188 82.0798 24.0342 82.0173C24.1438 81.9579 24.2139 81.9196 24.3098 81.8665C24.6664 81.6698 25.1427 81.3937 25.5561 81.1492C25.9375 80.9243 26.3522 80.6753 26.797 80.4046C28.4647 79.3907 30.1504 78.3378 31.9082 77.2549C35.3503 75.1349 38.777 73.0975 42.3627 71.1738C42.536 71.0785 42.7264 71.9674 43.0703 71.774C47.223 69.4425 45.7295 68.8957 47.3596 65.7985C47.761 65.0261 50.8458 65.1979 51.0952 65.1934C52.0209 65.1736 52.0933 66.6504 52.361 66.5839C54.5548 65.9954 51.8931 62.8306 54.2406 61.1573C54.3179 61.1106 54.4504 61.9479 54.6908 61.8692C55.4394 61.6267 55.8717 60.948 56.6234 60.7322C58.3488 60.2427 60.0031 61.5228 61.4176 59.0755C61.5952 58.7619 59.8244 57.1551 61.9886 55.7382C62.8457 55.1807 66.5304 52.4814 67.6357 51.8708C68.7626 51.2453 68.4902 52.3704 68.5828 52.3439C71.9667 51.1324 71.1432 52.2351 73.3885 52.4338C75.664 52.6033 73.2168 50.0469 73.5587 49.3173C73.8966 48.592 76.4125 47.7872 77.0907 47.6491C77.7593 47.5181 77.4155 48.3579 77.9552 48.1671C81.4829 46.9184 78.2297 45.8205 78.8757 44.6659C80.3904 41.9423 83.6601 42.7823 85.963 41.4273C86.5644 41.0763 85.7617 40.927 86.2223 40.5246C88.1302 38.8807 89.7837 38.6823 91.6492 36.4178C91.8027 36.2371 92.0058 35.6287 92.531 34.9281C92.7741 34.592 92.9494 34.3388 93.3551 34.0236C93.5266 33.8884 93.6826 33.7899 93.8339 33.7288C93.9825 33.6475 94.1048 33.5938 94.223 33.5546C94.2837 33.5342 94.3402 33.5189 94.4251 33.4913C94.4359 33.4877 94.4473 33.4839 94.4597 33.4797C94.4662 33.4792 94.4938 33.4646 94.5804 33.4217C94.6902 33.381 94.6966 33.3222 95.2698 33.1845C95.4331 33.1563 95.6512 33.1091 96.0718 33.1545C96.4638 33.1955 97.2745 33.4206 97.8267 34.1986C98.3797 34.9853 98.3199 35.7819 98.244 36.1504C98.1593 36.5487 98.0511 36.7367 97.977 36.8774C97.679 37.3658 97.6179 37.3538 97.5442 37.4407C97.4793 37.5017 97.4419 37.5311 97.408 37.5577C97.3426 37.6082 97.2966 37.6386 97.2455 37.6728C97.137 37.696 97.0245 37.7101 96.9079 37.7141C96.6388 37.7196 96.6956 36.8404 95.7745 37.3999C94.3971 38.2415 92.0376 39.8523 90.7722 41.0187C89.8386 41.8823 91.6404 41.9118 90.1437 42.5645C89.4795 42.8492 90.1915 41.5891 88.9783 42.1609C87.7724 42.7357 84.9997 44.6164 83.9324 45.3218C82.8749 46.0286 83.8967 46.3335 83.8401 46.435C83.4848 47.0381 81.6135 48.6772 81.427 48.7893C72.1925 54.6506 62.7398 58.2896 54.3811 64.6266C53.7272 65.1237 54.6648 65.5112 54.57 65.5943C52.4998 67.4946 52.9869 64.363 50.9348 64.9036C52.1846 66.1404 51.0547 66.5559 49.601 67.9058C48.9061 68.5576 49.7267 68.7732 49.6997 68.8804C49.2229 70.5375 47.6639 70.1147 47.2921 70.07C45.9394 69.8952 45.9191 71.4464 45.0111 71.3583C44.0989 71.2827 44.5718 69.5711 43.1375 70.8492C43.1539 71.6656 45.2718 71.9472 44.3875 73.0905C43.4172 74.3581 42.0673 75.7719 40.6283 77.2767C40.5211 77.3886 40.4373 77.4806 40.3812 77.5444C40.3336 77.5941 40.2685 77.6894 40.3281 77.5893C40.3559 77.4904 40.4021 77.6182 40.5571 76.8795C40.6071 76.5363 40.608 75.8978 40.1988 75.2514C39.7524 74.5397 39.0328 74.2502 38.673 74.1832C38.48 74.1429 38.3386 74.1363 38.232 74.1358C38.1747 74.1361 38.1305 74.1386 38.0916 74.1418C38.0146 74.1483 37.9658 74.1573 37.9344 74.164C37.8696 74.1787 37.8875 74.1796 37.9056 74.1763C38.1996 74.1091 38.8234 73.856 39.3857 73.6117C40.5388 73.1093 41.7279 72.5468 42.8782 71.9954C45.1339 70.9137 47.197 69.8859 48.5402 69.125C52.3549 66.9517 53.4976 66.0886 55.7879 64.916C59.9222 62.7831 57.8438 62.6731 59.9693 60.6648C62.0899 58.6524 62.5207 61.8896 63.2114 62.2025C63.9034 62.5135 63.9076 61.7325 64.5316 61.7461C65.152 61.7617 64.4557 62.7256 65.5361 62.1846C66.6077 61.6509 68.717 58.9293 68.7113 58.1364C68.6478 56.4926 66.6896 56.0135 69.5432 54.7557C69.7148 54.6792 69.6391 55.6622 70.2862 55.3282C70.4798 55.2269 70.6446 55.1435 70.8251 55.0484C71.0303 54.9368 71.2114 54.8399 71.3659 54.7594C76.2229 52.2948 80.9394 50.3397 85.6131 48.2651C86.3092 47.9637 86.1393 49.048 86.5497 48.8801C90.8193 47.0781 88.6809 46.6119 89.8947 43.9502C90.5748 46.0486 92.504 46.5151 95.4025 44.3626C97.1127 43.0308 96.2281 42.5127 96.7809 41.131C96.9453 40.7244 98.4443 40.1265 98.2856 39.6213C97.706 38.0183 95.8807 37.9581 98.0057 35.9666C98.0971 35.8704 98.5713 36.6327 98.8414 36.2617C100.085 34.3956 99.2905 33.4033 98.6907 32.4252C98.6892 32.6885 98.8021 33.2305 99.2845 33.718C99.748 34.1846 100.248 34.3134 100.44 34.3617C100.836 34.4393 100.647 34.4482 100.406 34.5625C98.581 35.2449 93.4612 37.4679 90.7054 39.2461C89.5057 37.4075 87.5093 39.1215 87.122 41.0459C87.0779 41.2511 87.0515 41.4584 87.0456 41.6635C85.2279 42.9125 83.3571 44.391 81.4936 45.4505C80.8527 45.8157 80.8327 44.9642 80.7133 44.9568C78.8694 44.8188 79.0405 46.6971 78.6903 47.0263C74.8526 50.5329 70.7082 51.9336 67.3345 55.7141C67.2153 55.8483 67.9338 57.3999 66.1506 57.1283C66.0327 57.1059 66.9434 55.5565 64.9967 56.8128C63.0478 58.0713 58.9269 59.7545 56.6709 62.171C56.1261 62.7554 55.224 64.9824 53.3138 64.9463C53.0581 64.939 52.9887 64.4083 52.5876 64.3477C51.2992 64.1609 51.7705 65.8835 50.018 65.2889C48.2649 64.6939 45.6787 65.0633 43.4707 67.6185C43.3992 67.6973 43.464 69.2483 42.5868 69.7667C41.1867 70.5934 39.0736 71.5581 37.627 72.4426C36.9345 72.8667 37.8125 73.3152 37.6998 73.4013C35.2418 75.1887 32.991 76.3891 30.5861 77.5496C28.6232 78.494 26.5183 79.2922 24.0946 80.275C23.103 80.6808 20.7579 82.9998 18.4838 83.0112C15.9847 83.0414 16.5327 78.2649 12.0197 81.3833C11.6909 81.6105 11.4104 81.9694 11.1435 82.42C10.9731 82.6656 10.8881 82.8874 10.6724 83.2117C10.5819 83.3662 10.5006 83.5145 10.3222 83.7595C10.2314 83.8946 10.1931 83.9432 9.90177 84.3438C9.83725 84.4404 9.76536 84.5558 9.69017 84.7096C9.65273 84.7866 9.61461 84.8736 9.57853 84.9737C9.5605 85.0238 9.54301 85.0771 9.52666 85.1342C9.50986 85.1903 9.47083 85.3319 9.45252 85.4499C9.35061 85.9357 9.49038 86.715 9.8731 87.1867C10.0537 87.4258 10.2549 87.5926 10.4316 87.7071C10.4759 87.7358 10.5191 87.7615 10.5609 87.7847C10.5846 87.797 10.6039 87.8064 10.6248 87.8163C10.6659 87.8357 10.7056 87.8527 10.7436 87.8678C11.049 87.9855 11.2542 87.9995 11.4181 88.0043C11.5794 88.0068 11.7153 87.9887 11.7592 87.9671C11.8869 87.925 11.9927 87.8754 12.0945 87.8232C12.3215 87.7153 12.381 87.612 12.5283 87.5008C12.8128 87.2762 12.9641 87.0654 13.2176 86.8468C13.4024 86.6403 13.6388 86.432 13.862 86.2433C14.0628 86.0594 14.2905 85.8876 14.5528 85.7337C15.4718 85.1605 16.5426 84.9348 17.9858 85.4369C24.8975 82.7326 31.7113 80.9553 37.6836 76.3809C37.9534 76.1749 38.1123 74.3885 38.7818 74.004C39.7811 73.434 40.6779 73.6758 41.4023 73.272C44.4441 71.5894 46.7404 69.3214 49.5079 67.4631C49.8398 67.2393 50.0707 67.1687 50.2717 67.1501C50.4242 67.177 50.6512 67.1768 50.8923 67.131C50.9963 67.1214 51.1151 67.0918 51.2703 67.0151C51.4262 66.9378 51.6266 66.8065 51.8044 66.6679C53.002 65.7245 53.1806 64.3624 55.0413 63.4014C56.4741 62.6578 58.8403 63.163 60.5857 62.0322C59.4611 60.539 60.5848 59.6699 62.2463 57.7227C62.572 57.3428 61.755 57.1597 61.8886 56.9534C62.3998 56.1215 63.4188 56.0076 63.8946 55.1755C64.0095 54.9753 63.6262 54.4647 63.699 54.272C64.3111 52.604 67.161 52.2508 67.6503 52.2005C69.5185 51.9917 69.6353 50.8791 70.8689 50.4502C72.0945 50.0314 70.8628 51.4883 72.1677 50.834C74.8737 49.4769 77.9883 47.2579 80.6021 45.7816C81.6625 45.1809 80.5205 44.8546 80.6622 44.7515C82.7771 43.2913 85.3187 43.1087 86.1748 41.0607C87.6885 42.8812 87.9025 42.7318 88.3562 42.0985C88.6171 41.7838 88.9151 41.3534 89.4528 41.1073C89.7494 40.9879 90.1015 40.9236 90.4845 40.9912C90.9018 41.0674 91.3794 41.3146 91.6946 41.7831C91.8036 41.9401 91.4939 42.4206 91.0318 42.748C90.5733 43.078 90.0494 43.381 89.9373 43.499C89.8279 43.6063 89.6833 43.4344 89.1756 43.383C88.6916 43.3321 88.0448 43.4146 87.4535 43.8399C87.1892 44.0084 86.2387 46.4644 86.1019 46.6754C84.8054 48.2829 83.0877 45.7355 82.9036 45.6293C80.9246 44.5839 79.8151 47.6878 79.3691 48.1466C77.2351 50.2625 74.9478 51.3197 73.1999 53.1511C72.0605 54.3482 73.1367 56.0813 72.0872 56.779C68.6141 59.1155 65.6777 57.8183 64.0731 62.2311C63.7438 63.1681 65.7718 64.3779 62.3108 64.9334C62.083 64.975 59.2839 65.1978 58.9364 66.7979C58.8889 67.0024 59.3008 67.5015 59.1618 67.6871C58.2445 68.9029 57.2055 69.099 56.0914 70.3491C55.4778 71.0014 55.2413 71.4299 54.0703 72.4417C53.3292 73.1061 52.5138 73.7423 51.6248 74.2208C50.6081 74.7713 48.7165 74.6005 48.1002 74.6584C46.3553 74.8101 45.7323 76.879 44.3674 76.5279C43.0049 76.1669 43.727 73.8532 41.2747 74.6078C42.0879 76.0821 42.8188 77.6599 43.5801 79.1773C38.7714 82.085 33.6278 84.2922 28.3785 86.6396C27.7243 86.9315 28.7556 87.4748 28.0561 87.8091C25.081 89.2076 22.1564 89.5849 18.8964 90.7631C17.941 91.1068 16.9605 91.5441 15.9493 91.9871C15.031 92.3563 14.4953 92.7284 12.7887 93.0971C12.5743 93.1371 12.114 93.2013 11.4971 93.1945C11.1342 93.1571 10.2961 93.2586 8.57497 92.5107C8.46467 92.4594 8.35009 92.4028 8.23125 92.3398C8.17187 92.3083 8.11123 92.2751 8.04975 92.2403C8.01887 92.2228 7.9884 92.2052 7.95632 92.1864C7.89399 92.1496 7.83061 92.111 7.76628 92.0704C7.25391 91.7466 6.66665 91.2902 6.10237 90.631C4.92952 89.3547 4.1797 87.0392 4.36197 85.3453C4.39205 84.9198 4.45684 84.5287 4.53943 84.1776C4.58079 84.0017 4.6267 83.8354 4.67547 83.6783C4.72894 83.5087 4.73939 83.481 4.77231 83.3867C4.88794 83.0611 5.01277 82.7796 5.13672 82.5327C5.38578 82.039 5.62813 81.6805 5.84311 81.3919C6.27036 80.8253 6.62268 80.4947 6.85805 80.2762C7.0118 80.1332 7.14595 80.0179 7.26729 79.9174C7.50946 79.7176 7.7022 79.5748 7.87477 79.4507C8.11629 79.2715 8.31145 79.1364 8.50033 79.0097C9.11803 78.5863 9.54672 78.3226 9.94951 78.086C12.4306 79.0257 15.5478 76.9774 18.0872 76.027C18.9708 75.6965 19.1238 76.1906 19.8012 76.0666C22.3416 75.5813 20.5543 74.5295 21.0581 74.0005C23.1453 71.7323 25.1136 75.0994 27.9768 73.398C27.9967 73.386 28.0284 73.3228 28.0669 73.2225C28.3699 72.5576 29.0917 70.346 29.2687 70.1129C30.5675 68.3786 29.9171 70.5599 31.0731 70.0514C33.1826 69.12 34.8046 68.7177 36.788 66.8041C37.3664 66.243 38.2944 64.1731 40.1067 64.2101C40.3452 64.2144 40.6092 64.8485 40.7672 64.797C43.5977 63.8117 42.5284 61.9624 43.5473 60.4647C44.5648 58.9675 47.5187 58.8168 48.1902 58.8863C49.9379 59.0625 47.561 59.8507 47.5563 59.9803C47.5131 61.5299 48.9787 60.3279 50.245 59.6341C51.557 61.2738 53.1819 60.0645 51.5526 58.9069C51.3722 58.7824 50.5397 59.557 50.245 59.6341C50.1907 57.2265 51.8832 55.8091 54.9766 56.0553C56.4253 56.1693 56.1069 57.6449 58.789 55.3886C60.0046 54.3632 58.6948 53.5113 59.6278 52.4077C61.7562 49.8895 65.9158 48.6553 68.4841 46.5986C69.415 45.8531 68.0139 45.8732 68.6338 45.3417C70.2755 43.9291 72.1699 43.3121 73.7584 41.8068C73.9016 41.6696 73.0327 41.2774 73.5744 40.8776C76.5895 38.6359 79.4988 36.856 82.5419 34.8099C83.5641 34.11 84.8229 33.2433 86.0098 32.4139C88.2538 30.8465 91.9524 27.777 95.2142 26.3496C95.9939 26.0164 96.8278 25.6688 98.1987 25.3563C98.933 25.2251 99.7104 24.9796 101.52 25.1821C102.405 25.3073 103.87 25.6535 105.258 26.8645C106.715 28.1334 107.337 29.8214 107.498 31.0142C108.055 38.6171 103.021 42.434 100.948 44.8758C98.7888 47.1015 99.808 47.2256 99.1279 48.5062C97.7617 50.9971 93.1194 51.6111 92.5258 51.6007C92.5073 51.6088 94.4443 50.1639 93.1322 50.489C92.0369 50.1342 92.5499 51.581 92.5258 51.6007C92.1133 51.6556 87.9467 53.821 87.2163 54.3668C86.8173 54.6793 87.4328 55.235 87.2173 55.3848C83.4842 58.0041 78.9448 60.3893 76.2631 62.0248C74.981 62.8591 73.6716 63.6497 72.3607 64.399C72.2612 64.4451 71.9211 63.6239 71.6919 63.7423C68.5196 65.3474 67.2012 67.4666 65.0815 69.5755C62.9666 71.6794 60.8914 72.7368 58.6295 72.3845C56.8635 73.716 53.8164 74.8195 52.0445 75.4217C50.2882 76.0155 50.9161 77.6166 50.8002 77.726C49.0313 79.3636 47.4036 80.3776 45.6061 81.2499C44.7249 81.6721 43.7665 82.0905 42.5639 82.5447C42.2075 82.6808 41.9597 82.7676 41.4616 82.9366C40.8769 83.0892 40.7648 83.295 38.7544 83.512C38.5015 83.441 37.049 83.9492 34.3944 82.4068C33.0981 81.6447 31.8337 79.8922 31.4963 78.5599C31.0807 77.1484 31.1853 76.0026 31.3355 75.2147C31.4141 74.8145 31.5124 74.4853 31.6118 74.2033C31.705 73.9348 31.838 73.6355 31.8639 73.5832C31.9629 73.3707 32.0592 73.1892 32.1514 73.0274C32.336 72.7047 32.5046 72.4578 32.6625 72.2412C32.8209 72.0243 32.9742 71.8368 33.0482 71.7515C33.1399 71.6438 33.2301 71.5422 33.3197 71.4438C33.4991 71.2473 33.6769 71.0633 33.8605 70.8797C34.1296 70.6209 34.4054 70.3546 34.6888 70.0792C36.5845 68.1843 40.3205 64.5068 42.4275 62.6234C44.0812 61.1121 45.3893 60.6258 46.8743 59.226C47.0766 59.037 46.4071 58.5875 46.4579 58.5146C47.7789 56.4472 47.9654 58.5966 48.5357 58.5947C50.606 58.6079 51.7932 58.5555 53.8363 56.5261C54.3027 56.0615 54.4545 52.786 55.3838 52.0144C56.5899 51.0184 56.6032 52.138 57.8491 51.0883C57.9561 50.9998 57.6213 50.5127 58.481 50.0122C62.4665 47.685 66.8961 45.471 70.8268 43.0324C71.3644 42.7013 70.1895 42.3187 70.9562 41.8279C74.5566 39.5248 78.4629 37.1372 82.0121 35.2574C82.8872 34.7966 82.7465 35.6833 83.0329 35.7236C84.7956 35.9481 85.329 33.4698 85.5457 33.2702C87.2092 31.7557 88.8048 30.4932 90.3555 29.2972C90.3411 29.3095 90.3119 29.3334 90.2334 29.402C90.1418 29.4878 90.0612 29.5362 89.6383 29.9817C89.5248 30.1051 89.3844 30.2584 89.1675 30.5361C88.9501 30.8335 88.6505 31.1721 88.1716 32.1789C87.9439 32.699 87.6321 33.4004 87.4678 34.694C87.3167 35.9174 87.3841 38.0909 88.7562 40.2078C90.0885 42.3174 92.3138 43.4386 93.689 43.7572C95.1068 44.1051 95.9832 44.0305 96.6169 43.9776C97.8461 43.8319 98.2838 43.6292 98.6584 43.5054C99.0105 43.3743 99.2084 43.2809 99.3662 43.2064C99.6712 43.059 99.8029 42.9811 99.9108 42.92C100.121 42.7968 100.17 42.7609 100.219 42.729C100.3 42.6738 100.278 42.684 100.236 42.7102C100.092 42.8031 100.055 42.8227 99.943 42.8945C99.8412 42.9592 99.7215 43.0364 99.5865 43.1245C99.5196 43.1682 99.4457 43.2168 99.3743 43.2636C99.3236 43.2957 99.2712 43.3289 99.2172 43.3632C98.8106 43.6193 98.1604 44.0478 97.7537 44.3006C96.7507 44.9428 95.8039 45.5421 94.7402 46.2514C92.799 47.5353 90.6767 49.0524 88.6708 50.8205C88.3308 51.1205 86.7678 54.5152 84.6088 54.139C84.4513 54.124 82.3716 53.6457 81.9539 55.3041C81.9275 55.408 83.1612 55.5367 81.8065 56.4126C80.4893 57.2616 78.7005 59.236 76.4279 59.7544C75.7042 59.9234 73.4222 59.5929 72.5097 61.8243C72.4551 61.9739 71.5479 66.1859 69.4655 65.2262C69.124 65.0672 68.0525 63.2403 66.678 65.5569C66.4184 66.001 67.386 65.8865 66.5506 66.8466C65.2726 68.3194 62.8896 69.3287 61.5358 71.4471C61.3064 71.815 60.71 73.9976 58.9473 73.916C58.6714 73.9032 58.6003 73.0899 57.9571 73.4498C54.8802 75.1697 52.1599 77.6665 48.9585 79.3095C47.822 79.8944 47.6972 78.5932 46.4556 79.0865C45.2096 79.5835 42.8719 80.8453 42.0121 82.0655C41.1562 83.2835 43.4255 83.9298 41.8084 85.2108C39.658 86.9044 37.4637 88.4283 35.0895 89.9126C33.9501 90.6219 32.6999 91.3673 31.3682 92.0957C30.6324 92.4965 30.0642 92.8003 29.0265 93.293C28.7856 93.4048 28.5563 93.507 28.2719 93.6261C27.8167 93.8182 27.3368 94.0185 26.5435 94.2409C26.3424 94.296 26.118 94.352 25.8548 94.4059C25.7232 94.4328 25.5817 94.4591 25.4275 94.4838C25.389 94.49 25.3496 94.4961 25.3094 94.502C25.2907 94.5046 25.1784 94.5217 25.0539 94.5372C24.8106 94.5675 24.5377 94.5928 24.2222 94.6045C23.0549 94.5948 20.6789 94.7189 17.8302 92.3181C16.4785 91.1445 15.4708 89.3582 15.1081 87.8372C14.9135 87.0735 14.8408 86.3743 14.83 85.7671C14.825 85.4529 14.8354 85.1888 14.8549 84.9295C15.0535 82.8911 15.5664 82.0228 15.8918 81.3389C16.2401 80.6796 16.5241 80.2795 16.7794 79.9309C19.2514 76.8439 21.9016 73.9889 24.5401 71.1984C25.5165 70.1753 24.2387 70.5885 25.6619 69.0598C30.8674 63.3463 40.3053 54.469 46.1046 51.6299C50.7379 49.3242 46.3098 53.9574 49.5955 51.8996C51.1763 50.9104 51.4354 48.0173 51.7446 47.6885C54.7455 44.4597 57.6878 43.3496 60.5249 40.7291C61.1103 40.1875 59.9681 40.0036 60.4706 39.5508C62.1795 38.0001 64.287 36.7894 65.9126 35.3545C66.6405 34.7084 66.086 34.3199 66.7987 33.79C66.8992 33.7145 66.9991 33.6401 67.0987 33.5667C68.759 32.3345 70.3357 31.3718 72.236 30.5194C72.4218 30.4353 71.9531 31.896 73.201 30.8796C73.8045 30.3865 74.4853 29.8924 75.1581 29.3983C75.4931 29.1523 75.8329 28.9001 76.1091 28.6882C76.2459 28.5838 76.3774 28.4769 76.3923 28.4761C76.3873 28.4932 76.3906 28.4744 76.1213 28.8043C76.039 28.9098 75.9666 28.9965 75.7823 29.2708C75.6321 29.5326 75.3528 29.8205 74.941 31.0559C74.7538 31.8247 74.3641 32.7659 74.8721 34.96C75.2858 36.9914 77.4221 38.9803 78.3123 39.3416C79.4359 39.926 79.9057 39.9706 80.3198 40.0694C80.6942 40.1409 80.8782 40.1553 81.0313 40.1697C80.1754 40.0645 79.2772 40.111 78.4329 40.4172C77.7887 40.6606 77.9798 42.1095 76.4906 41.3068C76.1784 41.1545 76.1777 39.286 74.864 41.1878C74.5824 41.4934 72.6796 44.2708 70.8536 43.6698C70.3714 43.496 68.7989 42.6176 68.0881 43.2637C67.9989 43.354 68.8038 43.829 68.1911 44.2509C66.0319 45.7329 63.6381 47.2783 61.5857 49.2659C61.0432 49.7975 62.4338 49.7293 61.6211 50.4973C59.393 52.6043 56.4554 55.1967 54.2058 57.3573C53.3728 58.1548 53.3807 57.1067 53.2698 57.119C51.4552 57.3441 52.1928 59.0372 51.9892 59.4358C51.9134 59.5809 51.8366 59.721 51.7588 59.8565C50.9204 61.5472 49.4439 62.7142 48.5696 64.8517C48.3154 65.4793 49.2308 65.4006 49.2332 65.5516C49.2355 67.098 48.4268 65.546 47.8968 66.2954C46.4062 68.419 45.2966 71.313 44.2748 74.076C43.8981 75.0951 45.2023 74.3077 44.852 75.2229C42.7523 80.6166 40.1882 86.9781 34.8615 92.5563C33.8415 93.5808 33.9156 92.4305 33.5997 92.5484C32.1799 93.0444 31.2195 94.5275 30.4389 95.6746C29.9591 96.3397 29.5514 96.884 29.3235 97.0994C26.0621 99.7735 24.1845 100.481 18.1688 100.084C16.0765 99.8032 13.4071 98.8015 11.3229 96.6493C9.21091 94.5212 8.19446 91.6278 8.00391 89.3847C7.68894 84.8352 9.06052 82.221 10.1995 80.0144C13.8169 73.284 18.3382 65.7227 22.2705 59.855C29.4964 49.3056 35.4338 41.3958 45.8572 32.5302C46.5579 31.9748 45.2721 31.7911 45.8808 31.2999C51.0615 27.2094 59.4552 22.5825 69.3584 25.3696C72.2407 26.2923 73.3076 27.0358 74.6939 27.7424C75.9897 28.4461 77.1526 29.1072 78.3014 29.7381C78.8924 30.0645 78.5036 28.8094 79.4696 29.3093C81.4505 30.3301 83.6863 31.6864 85.2983 32.8417C86.0865 33.4033 84.5942 33.4836 85.4009 34.0352C87.2648 35.3111 89.3954 36.2945 91.0129 36.5655C91.6637 36.6637 90.9616 35.5661 91.7218 35.7343C92.6117 35.9333 93.0588 35.7558 92.4756 35.8746C92.2084 35.938 91.7408 36.1598 91.4286 36.4248C91.1038 36.6905 90.9635 36.9244 90.9586 36.943C90.7451 37.344 90.837 37.2534 90.9006 37.0255C90.9734 36.7971 91.0665 36.4019 91.1403 35.9629C91.2924 35.0688 91.3856 33.9582 91.4126 32.8291C91.4709 30.5668 91.2675 28.1272 90.9186 26.2153C90.8554 25.8425 92.3756 24.6923 91.6673 24.1584C91.2006 24.3683 90.6897 24.6799 90.214 24.9435C90.0193 24.6525 89.854 24.4957 89.8533 24.5147C89.8457 24.525 90.0504 24.7284 90.46 24.8916C90.8625 25.0621 91.4029 25.1127 91.6565 25.0805C91.9247 25.0528 91.9223 25.0093 91.7316 25.0903C80.5351 30.131 68.6631 30.9857 61.0218 34.6369C60.5868 34.8446 61.7476 35.3551 60.9306 35.7569C56.2718 38.0999 53.0804 41.5652 48.9717 46.0739C48.5754 46.5209 47.2701 45.3533 46.5543 47.0338C46.4104 47.3363 45.2535 49.8659 45.2524 50.7116C45.2586 50.8225 46.1933 50.746 45.8135 51.538C45.5406 52.1071 45.2616 52.6962 44.9769 53.3062C42.7655 57.9959 40.2502 62.9505 36.7904 67.6531C36.1495 68.5097 36.0444 67.0979 35.5833 67.6966C32.3734 71.9412 28.7747 76.8391 24.6117 79.4989C21.8348 81.2625 21.7658 79.3548 19.5761 79.3178C19.2622 79.3195 17.7591 80.504 17.1556 79.9063C15.6416 78.4118 14.8883 76.0468 13.1866 74.5248C12.8354 74.1906 11.2466 76.1146 11.6535 74.2973C11.6864 74.1744 12.8003 72.7793 12.8588 72.2109C12.9104 71.8117 11.9589 71.4892 12.1954 70.8366C12.4222 70.1908 13.3846 70.3199 13.8319 69.3827C14.2746 68.4332 13.3356 67.9853 14.6014 66.664ZM43.9609 78.0576C42.0482 78.1604 43.1663 80.9494 44.5581 79.3935C44.6214 79.3157 44.0594 78.0494 43.9609 78.0576ZM32.5487 82.1177C29.9699 81.9368 29.3873 84.3242 31.2757 84.5667C33.1879 84.7836 33.3456 82.1607 32.5487 82.1177ZM51.5977 69.1968C48.9084 69.8359 51.0021 73.547 52.7814 71.2319C52.8853 71.098 51.7549 69.1584 51.5977 69.1968ZM25.0047 73.8225C24.9599 73.8166 23.9399 74.7702 23.9392 74.8207C24.0603 76.0353 26.1395 74.0928 25.0047 73.8225ZM68.491 54.2979C67.5091 54.3143 66.0989 56.2283 67.3158 56.1954C68.286 56.172 69.7062 54.2778 68.491 54.2979ZM86.8763 42.5684C86.8321 42.5454 86.0183 43.0859 86.1794 43.2802C86.7162 43.8933 87.6699 42.9191 86.8763 42.5684ZM87.2093 48.4242C88.9587 48.5073 90.2867 48.7078 91.4297 48.3558L91.3989 48.4055C92.7647 46.7014 94.0948 46.3253 93.61 49.0381C93.5403 49.3045 93.1775 49.8662 92.9782 50.0562C92.4315 50.6127 91.606 51.0795 90.7095 51.3C89.9455 51.4623 90.707 51.0244 91.2907 50.4164C91.8945 49.7914 92.1668 49.1106 91.3579 49.4726C88.566 50.2217 86.5527 51.7423 84.1375 50.5758C83.6041 50.3151 86.9479 48.4206 87.2188 48.4195C87.2156 48.421 87.2124 48.4226 87.2093 48.4242ZM41.3944 75.359C41.3699 75.3496 41.0476 75.4983 40.7574 75.6355C40.4449 75.7849 40.123 75.9415 40.1227 75.9632C39.8742 77.1529 42.3733 75.9732 41.3944 75.359ZM39.8928 73.8872C39.7781 73.8658 37.2095 75.5409 37.1481 75.6752C36.6929 77.8746 41.9555 74.4477 39.8928 73.8872ZM90.6254 39.2233C90.0712 40.6486 89.0125 41.6475 87.6037 41.7017C87.4241 41.7054 87.2399 41.6921 87.0517 41.6605C87.1683 41.5826 87.2846 41.5042 87.4007 41.4254C88.4823 40.675 89.5392 39.9242 90.6254 39.2233Z" fill="#A0677E"/>
<path d="M34.2553 30.861C34.3999 28.4048 33.2292 28.8201 35.6989 29.2321C37.7365 29.5745 34.9793 26.6682 38.8724 29.0559C38.4531 28.2102 38.604 28.5077 37.9789 27.549C38.012 27.3998 38.4256 27.2019 38.9875 26.9906L44.0899 22.0877L47.2541 30.314C47.171 31.4012 46.9889 33.1221 47.079 33.548C46.7869 33.7147 46.4956 33.8832 46.2049 34.0534C46.3561 34.2401 47.1828 34.9891 47.116 35.1151C46.5663 36.2106 46.5802 37.0494 46.7069 37.982C45.9073 38.3733 46.2287 38.2332 45.287 38.5733C45.2279 38.8962 45.7061 38.7977 46.5665 38.6741C46.5512 39.6989 47.9596 46.3601 46.9177 47.8803C46.7165 48.0198 46.5154 48.1595 46.3145 48.2992C45.2146 48.5777 44.9071 48.147 44.6398 47.7453C43.8624 46.5835 43.9317 45.0142 43.6866 43.7223C43.1527 40.8882 42.838 38.1313 42.864 35.339C42.8748 34.316 42.8773 33.3142 42.7456 32.3416C42.6988 31.9997 42.5033 31.6565 42.4616 31.3055L42.1931 30.6073L41.76 31.0234C41.6527 31.0847 41.5368 31.1309 41.4069 31.1515C40.7207 31.2606 39.4854 30.5591 39.7437 31.9398C39.9633 33.1079 36.2465 34.4949 35.5729 34.9002C34.8167 35.3506 34.2501 36.0754 33.5397 36.5908C33.0178 36.9689 32.2958 37.068 31.8211 37.5102C31.4587 37.8457 31.2508 38.3977 30.9756 38.856L30.9463 38.8859C30.9184 39.065 30.8792 39.237 30.8163 39.3939C29.6562 42.3056 28.2556 45.0681 27.118 47.9977C27.0502 47.9908 26.1389 47.8839 26.1383 47.8906C25.8975 48.5106 26.2678 50.6754 25.042 50.4969C24.6309 50.2717 24.2198 50.0465 23.8088 49.8213C23.7832 49.8812 23.7576 49.9411 23.732 50.001C24.5543 50.5323 24.1348 50.2683 24.9843 50.787C25.003 51.423 24.4485 52.0514 23.9813 52.7261C23.2282 53.8177 23.349 56.4255 21.455 56.7068C21.3069 56.7295 20.588 56.244 20.1951 56.0025C20.1643 56.0512 20.1334 56.0998 20.1025 56.1484C20.4111 56.4658 21.169 57.1585 21.0759 57.2653C20.5745 57.8533 22.4114 59.5714 20.4065 59.0215C20.1847 59.5317 20.716 60.4064 20.2049 60.5814C19.5689 60.2991 19.2819 60.1509 18.6108 59.8119C18.5569 59.8399 18.5029 59.8679 18.449 59.8959C18.6657 60.1793 18.9388 60.5333 19.2666 60.9602C19.0721 62.1629 18.6912 63.3021 18.0314 64.2116C17.8276 64.4922 18.3921 65.4896 18.2723 65.6196C17.5117 66.4741 17.4928 67.763 16.8271 68.6524C16.7817 68.7153 16.1957 68.6809 16.1584 68.6971C15.8675 68.8236 15.2712 68.6542 15.1063 68.7917L13.6069 70.3832L12.5093 70.191C12.4436 70.1712 12.3759 70.2055 12.3031 70.3248C12.2872 70.8164 12.2713 71.308 12.2554 71.7996C12.1888 71.9266 12.1221 72.0537 12.0554 72.1808C11.8052 71.6087 11.8511 71.6628 11.6392 70.8364C11.2265 71.4307 11.4733 71.9423 11.2758 72.0409C11.0231 72.168 9.7322 71.4244 9.56182 71.7039C9.24607 72.222 9.18135 73.0263 8.65797 73.36C8.62561 73.1895 8.59325 73.0189 8.56089 72.8484C8.29707 71.4754 8.30898 71.3005 7.95068 70.9858C7.89566 71.1172 7.84064 71.2485 7.78561 71.3799C7.87668 71.9965 7.95662 72.556 8.04002 73.1853C7.70453 74.2086 4.70357 72.9469 4.02069 72.7689C3.90947 72.3113 3.79553 71.8821 3.67154 71.4722C3.5971 71.4764 3.52266 71.4807 3.44821 71.485C3.02761 71.1989 2.52731 70.5058 2.21582 69.3902C2.24031 68.8404 2.2648 68.2906 2.28929 67.7408C3.5602 70.1594 6.65698 63.8855 7.24173 69.3869C7.21876 69.5057 7.19579 69.6245 7.17283 69.7433C7.01113 70.5918 6.88687 70.9923 6.89963 71.9871C6.96997 72.0538 7.04032 72.1206 7.11066 72.1874C7.5013 70.8684 7.39073 68.9167 7.37371 67.0351C8.26472 65.3602 8.02305 68.0964 8.67492 67.6071C9.89195 66.6981 10.9278 64.4318 12.2086 65.3471C12.3332 65.4363 12.4308 65.508 12.5093 65.5561L11.2354 66.2425C11.6094 66.067 11.3753 65.9517 10.4647 65.0046C10.765 64.3464 11.5088 64.7313 12.1751 64.4129C12.3969 64.3073 11.3345 63.1755 11.6394 62.7588C12.4025 63.1024 12.0856 62.9364 12.9436 63.4943C13.0205 63.4835 13.0973 63.4726 13.1742 63.4618C12.5408 62.8806 12.8928 63.1725 12.0015 62.5784C12.0569 62.5598 12.1122 62.5413 12.1675 62.5227C12.4536 62.6642 12.7397 62.8057 13.0259 62.9472C13.3647 62.7329 13.6858 57.6117 13.986 57.6233C17.661 57.7812 13.5155 55.0553 17.0291 54.9611C17.2546 54.9598 16.1509 53.3077 16.6109 52.9442C17.2705 53.0637 17.3711 53.1421 18.2987 53.5421C18.3698 53.5094 18.4409 53.4767 18.512 53.444C17.7694 52.8031 18.0349 53.0178 17.1603 52.3868C17.166 52.3283 17.1716 52.2699 17.1772 52.2114C17.385 52.2657 17.5927 52.32 17.8005 52.3743C17.4919 51.7044 17.3032 51.6269 17.6164 51.394C18.4968 51.6752 19.2522 51.9963 19.6544 51.9056C19.3789 51.6035 19.1033 51.3015 18.8278 50.9994C19.2039 50.6306 20.2123 50.781 20.3037 50.0759C20.3435 49.7729 20.9182 47.8189 20.6915 47.7644C23.2607 48.3822 19.7776 44.9859 23.4283 46.6369C23.3288 46.1638 23.2513 45.8366 23.2804 45.44C24.2471 45.6363 24.1854 45.7302 24.4517 45.4471C23.9778 44.8608 23.5874 44.5865 22.7627 43.9262C22.7855 43.8933 22.8083 43.8604 22.8311 43.8275C23.1348 44.0465 23.4384 44.2655 23.7421 44.4844C24.8501 44.5528 22.7133 42.4812 23.5072 41.8362C23.6066 41.8836 23.706 41.9311 23.8054 41.9785C24.021 42.2194 24.2366 42.4602 24.4522 42.701C25.2348 42.9688 25.3652 42.9212 25.9615 43.004C25.4293 42.46 25.3091 42.3767 24.6229 41.8005C24.5831 41.703 24.5433 41.6054 24.5034 41.5078C25.1442 41.8177 25.6663 42.0596 26.2551 42.2925C26.2233 42.1982 26.1916 42.1039 26.1599 42.0096C22.3007 38.9241 26.1674 40.0326 24.9817 38.7127C24.8105 38.5816 24.6393 38.4506 24.4681 38.3195C24.5004 38.228 24.5327 38.1365 24.5651 38.045C24.7692 38.1648 24.9732 38.2846 25.1773 38.4044C25.5705 38.7839 25.9637 39.1634 26.3569 39.5429C26.4685 39.5872 26.5801 39.6315 26.6917 39.6757C26.7035 38.531 26.9148 37.5634 26.8705 36.3766C27.3722 36.5584 27.3115 36.5266 27.6515 36.7162L28.7406 35.6051C28.8043 35.6845 28.8876 35.7881 29.0035 35.9297C29.0345 35.8776 29.0655 35.8255 29.0965 35.7734C28.688 34.9433 28.2843 34.1174 27.8847 33.2928C28.3618 32.5791 29.8798 33.8076 29.9697 32.6465C30.0117 32.1277 30.0782 32.0741 30.4789 32.1688C30.9349 32.835 30.8918 32.8264 31.3757 33.35C31.3896 33.2877 31.4036 33.2253 31.4175 33.163C31.2085 32.7898 30.9995 32.4167 30.7904 32.0436C30.8342 32.016 30.8779 31.9885 30.9216 31.9609C31.1643 32.2699 31.407 32.5788 31.6497 32.8878C32.1279 31.8648 30.9617 30.7573 32.4876 30.495C32.59 30.584 32.6925 30.6729 32.795 30.7619C32.9998 31.1675 33.2047 31.5732 33.4095 31.9788C33.7751 31.9743 33.778 32.0145 33.7329 31.4592C33.3821 30.7747 33.2934 30.6081 32.8869 29.9041C33.1327 29.5422 33.2441 29.7357 34.2553 30.861ZM53.8019 46.4559C54.7266 44.748 54.8356 44.4429 54.0587 45.9983C53.4661 47.3069 55.0716 43.6907 53.4038 47.5158C53.7749 46.6582 53.6433 46.9615 54.0929 45.9094C54.2012 45.6103 53.7136 46.8293 53.7258 46.8774C53.6264 47.1872 53.5289 47.4975 53.4331 47.8085C53.4721 47.7175 53.6542 47.1581 53.6248 47.2554C53.4078 48.0661 53.3856 48.3102 53.3782 48.4972C53.1938 49.3613 53.2679 49.0197 53.0559 49.9982C53.042 50.161 53.1492 49.6896 53.3278 48.8567C53.2698 49.0853 53.5116 50.6646 53.6817 52.5709C53.6821 52.8156 53.6825 53.0604 53.6831 53.3052C53.631 54.3731 53.545 54.4006 53.4712 54.4238C53.2496 54.4936 53.0862 53.7192 52.9477 53.3985C52.6322 52.6958 52.4248 52.0439 52.3943 51.2167C52.3832 50.9139 52.3834 50.6482 52.3335 50.5344C52.31 50.4815 52.1838 50.6744 52.2289 50.4525C52.2839 50.152 52.7656 48.968 52.2021 50.1225C51.7113 51.097 51.7989 50.0641 51.7829 49.9957C51.7464 49.9095 51.541 50.1089 51.46 50.0849C51.4012 50.0671 51.5301 49.761 51.4315 49.81C51.3323 49.8587 50.9606 50.2978 50.8291 50.3685C50.2121 50.708 49.7266 50.7699 49.0219 51.0279C49.0585 50.9797 49.57 50.3373 49.568 50.3398C49.4293 50.404 48.266 51.371 48.9928 50.5133C49.3115 50.1717 49.6306 49.8305 49.9501 49.4896C49.9376 49.4937 49.925 49.4978 49.9125 49.5018C49.2367 50.21 49.5782 49.8509 48.8937 50.5727C48.5986 50.7964 48.6094 50.6431 48.5571 50.5641C48.4784 50.4463 47.1842 51.3147 48.1279 50.2324C48.2019 50.1486 48.8406 49.5616 49.1785 49.2482C49.1739 49.2446 49.1692 49.241 49.1646 49.2374C48.8401 49.5231 48.0804 50.1948 48.0835 50.17C48.0998 50.0465 46.2146 51.6574 47.6405 50.2859C47.5284 50.3031 46.7971 50.8716 47.0124 50.6153C47.5222 50.1555 47.7627 49.9425 48.3218 49.4471C48.3405 49.4235 48.3593 49.3998 48.378 49.3762C48.1146 49.5866 47.7837 49.8502 47.3841 50.1653C46.9219 50.3928 46.5927 50.4798 46.5476 50.3439C46.5346 50.3028 45.7007 50.8937 45.7087 50.8579C45.7493 50.6446 45.1211 50.9667 45.0867 50.8123C45.0832 50.8023 45.4645 50.464 45.4798 50.4474C45.6353 50.2739 46.3828 49.6766 45.9688 49.9456C45.5754 50.2404 45.1819 50.5351 44.7883 50.8296C44.6818 50.8994 44.5752 50.9691 44.4685 51.0386C44.9064 50.669 44.8665 50.706 45.5122 50.1896C45.0061 50.5053 44.6141 50.8354 44.5202 50.8743C44.3976 50.9228 44.8998 50.3509 44.6624 50.4995C44.2206 50.7729 43.5652 51.2392 43.2534 51.3776C43.3891 51.2743 43.5249 51.171 43.6607 51.0678C44.7545 50.2371 44.898 50.1371 45.1283 49.9183C45.0176 49.9893 44.9069 50.0603 44.7961 50.1311C44.301 50.4988 43.8519 50.8328 43.3469 51.2085C42.4867 51.7662 43.2849 50.7075 43.3877 50.541C43.7574 50.2708 44.1037 50.017 44.434 49.7736C44.4254 49.7685 44.4167 49.7635 44.4081 49.7584C44.6159 49.5553 45.1566 49.1174 46.0639 48.4674C46.5219 48.1632 46.9799 47.8589 47.4377 47.5544C45.521 49.0393 50.8423 45.703 46.3826 48.9233C46.2843 48.99 46.1859 49.0567 46.0875 49.1233C45.3849 49.5994 45.0491 49.8181 44.2378 50.3938C44.1884 50.4396 44.139 50.4854 44.0897 50.5312C45.1938 49.808 46.7747 48.6632 48.3076 47.5721C49.7204 46.6686 47.4816 48.2418 47.9185 48.0111C48.731 47.5834 50.6025 46.3027 49.9359 46.939C49.5814 47.2819 49.6072 47.2529 50.8708 46.3258C50.994 46.3038 50.3378 46.8168 50.0707 47.0947C49.9823 47.188 51.1906 46.2825 51.1945 46.3284C50.5524 46.8486 50.8301 46.626 50.0273 47.2608C49.9844 47.3004 49.9415 47.34 49.8988 47.3798C50.5715 46.8624 50.2124 47.141 51.0521 46.476C51.0262 46.5013 51.0003 46.5266 50.9744 46.5518C50.7283 46.7513 50.4823 46.951 50.2365 47.1509C50.1385 47.2949 52.3241 45.9392 52.1237 46.0981C49.8308 48.272 53.5561 44.9956 51.5003 47.0204C51.3698 47.1556 52.7555 45.9586 52.6413 46.1063C52.2016 46.5388 52.1082 46.625 51.3912 47.3146C51.3645 47.3467 51.3378 47.3787 51.3111 47.4108C52.0259 46.7512 51.7767 46.9822 52.5628 46.2453C52.585 46.2288 52.6072 46.2123 52.6293 46.1958C52.4845 46.3386 52.3399 46.4816 52.1955 46.6249C52.6671 46.2123 52.8089 46.0708 52.7279 46.1792C52.0965 46.8065 51.524 47.376 51.335 47.592C51.6244 47.3213 51.9131 47.0498 52.2011 46.7775C52.1442 46.8785 51.5102 47.5528 51.7634 47.3653C51.8737 47.2872 52.3806 46.9502 52.5258 46.7853C50.8701 48.6405 54.1517 45.1689 51.5146 48.1191C51.7639 47.8817 51.9392 47.7101 52.0854 47.5807C51.4974 48.2827 51.4928 48.2787 51.4706 48.348C51.9564 47.8187 52.2697 47.4592 52.9638 46.6687C52.9647 46.6707 52.9656 46.6728 52.9666 46.6749C52.7211 46.9571 52.4754 47.2392 52.2296 47.5211C51.6317 48.2772 53.5556 46.0751 53.383 46.3322C53.314 46.4167 53.245 46.5013 53.1761 46.586C52.9743 46.8246 52.7717 47.0626 52.5685 47.3C52.0668 47.9245 52.0202 47.9933 51.6903 48.4256C52.1701 47.8573 52.2624 47.7439 52.8285 47.0573C52.8858 46.9918 52.9429 46.9262 52.9999 46.8605C52.5596 47.4119 52.2061 47.8579 51.8252 48.347C51.8778 48.2887 51.9302 48.2302 51.9825 48.1717C55.0673 44.339 52.72 47.3764 53.7844 46.0299C53.9146 45.8587 54.0448 45.6874 54.1748 45.5161C54.1905 45.4988 54.2062 45.4814 54.2219 45.464C54.0802 45.6532 53.9387 45.8425 53.7972 46.0318C53.4726 46.4597 53.1463 46.8864 52.8182 47.3117C52.7484 47.4062 52.6786 47.5009 52.6089 47.5955C53.0246 47.1328 53.2674 46.8691 53.6863 46.3203C53.3171 46.8608 53.475 46.6302 52.9766 47.3559C52.9932 47.3365 53.0097 47.317 53.0262 47.2975C53.5501 46.5469 54.0664 45.7984 54.5763 45.0496C54.7511 44.7842 53.7339 46.3562 54.2345 45.601C54.4536 45.262 54.4549 45.255 54.2956 45.5153C53.8699 46.2013 53.8853 46.1737 53.516 46.7749C53.5401 46.7387 53.5641 46.7025 53.588 46.6662C53.8124 46.3042 54.0362 45.9418 54.2593 45.579C54.2585 45.5809 54.2578 45.5829 54.257 45.5849C54.0529 45.9196 53.8491 46.2546 53.6457 46.5899C53.9641 46.1138 54.752 44.7516 54.4237 45.3109C54.3591 45.4252 54.2946 45.5396 54.2303 45.6542C54.0093 46.0466 53.7872 46.4383 53.5639 46.8293C53.4705 47.0102 53.4553 47.0414 53.6951 46.622C54.0662 45.9556 54.1567 45.7913 54.5472 45.0811C54.6206 44.9401 54.5105 45.1336 53.8019 46.4559ZM44.5877 89.6955C44.3591 91.6601 44.9237 91.9223 44.5633 92.0716L43.64 93.2601L40.9326 93.9941C40.6909 93.9387 40.1989 93.6527 38.931 93.1992C36.1546 92.203 37.8718 95.9294 34.0146 92.3384C33.9386 93.2981 33.9602 92.9594 34.0991 94.0961C33.5681 94.5062 27.3471 94.2064 26.1533 94.3623C25.9433 94.0673 25.7333 93.7723 25.5234 93.4774C25.1433 93.6402 23.5206 94.5051 23.3102 94.4368C21.5447 93.8788 20.0792 93.8768 18.3872 93.9702C18.0491 93.1307 18.1558 93.4672 17.9703 92.4832C17.4457 92.4058 17.4124 92.9012 17.2414 93.7929C15.4785 93.8562 3.18716 94.3329 2.02673 92.5856C1.98042 92.3452 1.93412 92.1048 1.88781 91.8644C2.30609 90.7126 3.0603 90.5589 3.79459 90.4115C5.88101 89.9886 8.15504 90.3816 10.2974 90.3328C14.9776 90.2276 19.6308 90.0495 24.3307 90.0634C26.0569 90.0674 27.7701 90.0383 29.4699 89.8469C30.2835 89.754 31.1205 89.3865 31.9551 89.4738C33.0774 89.5907 34.3481 90.6755 35.1127 89.2473C35.4756 88.5676 37.7673 88.2254 39.9438 88.0249L40.1213 87.9768L40.1819 87.8988C41.4367 86.7581 42.7116 85.7733 43.1519 85.3693C44.2717 84.3474 45.1764 83.1023 46.2718 82.0481C47.0774 81.2735 48.1262 80.7532 48.884 79.935C49.6568 79.1031 50.1069 77.929 50.866 77.0728C54.4172 73.0536 58.2652 69.3017 61.7621 65.2706C61.8389 65.283 62.9225 65.4088 62.9267 65.4003C63.6799 64.537 64.6506 61.5802 66.0594 61.7574C66.4334 62.045 66.808 62.332 67.1831 62.6183C67.2549 62.5313 67.3258 62.4449 67.3958 62.359C66.6957 61.6747 67.057 62.0143 66.3155 61.3488C66.5295 60.8298 67.007 60.283 67.5236 59.7326C67.8892 59.3419 68.2193 58.9983 68.5656 58.5694C69.2157 57.7712 69.6252 56.4198 69.7332 55.3565C69.8459 54.252 69.7681 53.6966 70.1523 52.779C70.2091 52.6342 70.9918 52.2635 71.3972 52.0425C71.3555 51.959 71.3112 51.8769 71.2646 51.7961C70.8044 51.8593 69.8454 52.2433 69.7708 52.1147C69.5247 51.7135 68.8251 51.8936 68.3833 52.0119C67.9175 52.1172 67.6995 52.1245 67.7637 51.0562C67.0517 50.8294 66.2796 51.5797 65.839 51.1578C65.8209 50.4563 65.824 50.1313 65.8059 49.373C65.7279 49.3314 65.65 49.2908 65.5711 49.2512C65.3477 49.563 65.083 49.9618 64.8141 50.4567C63.2486 50.8746 61.8904 51.5028 60.7378 52.0905C60.5752 52.1727 60.4913 52.4618 60.4647 52.7515L60.4805 52.7404C60.3265 53.1833 60.2157 53.6332 60.0704 53.7169C58.3725 54.717 57.2345 56.3724 55.6261 57.4299C55.5145 57.5049 54.8051 57.3844 54.744 57.4004C54.1154 57.5653 53.2613 56.998 53.1208 57.7012C53.3824 58.1182 53.644 58.5353 53.9057 58.9524C53.8847 59.123 53.8638 59.2935 53.8429 59.464C53.158 59.2481 53.2543 59.2462 52.4766 58.7843C52.2359 59.6832 52.881 59.8532 52.6585 60.1316C52.4804 60.3552 51.5289 60.7084 50.8228 61.0392C49.6987 61.7562 48.4554 62.0125 48.1324 62.1706C46.4937 62.838 45.7228 63.9873 42.4928 62.6974C42.401 62.4413 42.3247 62.1855 42.263 61.9312C41.9018 59.8642 42.123 59.9182 41.468 58.2355C41.2283 58.0558 40.9954 57.8498 40.7748 57.6187C40.3553 58.2811 40.0544 58.9613 39.7994 59.7559C39.0968 59.4875 37.2373 55.7312 38.9008 52.1798C39.6924 50.5732 41.1325 48.5573 41.5284 47.899C42.0251 47.8957 42.4972 47.8772 42.9583 47.8352C43.0037 47.7142 43.0491 47.5933 43.0945 47.4723C43.6379 46.9075 44.6102 46.3706 45.8477 46.2979C46.3394 46.5474 46.8312 46.7969 47.323 47.0464C44.6591 48.0091 47.1045 53.6541 44.2633 54.399C43.7932 54.58 43.2048 54.7945 42.4373 54.993C42.3292 54.8955 42.2238 54.7946 42.1219 54.6873C41.3912 53.9131 41.2634 53.1882 40.3154 52.8767C40.1179 53.1925 39.9372 53.5414 39.7846 53.9148C40.7513 56.3681 42.9291 55.3733 44.759 55.4913C45.182 55.8621 45.386 55.939 45.4246 56.0824C45.467 56.2147 45.3677 56.3769 45.2567 56.5816C45.0299 56.9639 44.7761 57.6189 45.5259 57.8086C46.69 58.0584 47.5456 57.1648 47.584 56.4669C48.1069 55.1863 48.7279 54.0511 50.1098 53.734C51.3602 53.4482 51.1575 53.5451 50.7542 51.9106C51.7019 51.103 52.3074 51.6948 53.423 51.372C53.794 51.2649 53.4322 49.671 54.177 49.1746C54.8426 49.7158 54.5863 49.4612 55.1862 50.2904C55.2926 50.2864 55.3989 50.2824 55.5052 50.2785C55.2087 49.4486 55.4004 49.8697 54.7897 48.9897C54.8756 48.973 54.9614 48.9564 55.0472 48.9397C55.2858 49.1589 55.5243 49.3781 55.7629 49.5973C55.9433 49.5292 56.4894 48.9136 57.1796 48.0804L57.1899 48.0731C59.2477 45.4555 64.5993 43.8727 64.8718 44.2079C66.9641 45.8958 67.8218 45.749 69.1167 45.6741C70.2771 45.6174 72.111 45.7477 72.9753 48.7079C73.0153 48.8948 73.7121 49.0335 74.5022 49.5181C75.2884 49.9809 76.1256 50.8603 76.2546 51.7855C75.8422 52.734 75.6926 52.7414 74.7628 53.3216C74.7385 53.4954 74.7084 53.668 74.6728 53.8389C75.6534 54.1494 75.3097 54.0737 76.3871 54.2153C76.4129 54.3697 76.435 54.525 76.4534 54.6819C76.2385 54.8764 76.0179 55.0584 75.7928 55.2283C76.2618 56.3586 76.4482 56.3989 76.0565 57.2912C74.9989 57.6782 74.1372 57.6605 73.6061 58.1356C73.867 58.5128 74.1295 58.8738 74.3715 59.2638C73.6855 60.2952 72.4513 60.4671 71.8884 61.6663C71.7923 61.8618 71.4928 62.3993 71.0702 63.0427C70.4233 64.0732 69.6389 65.245 69.7985 65.2843C66.9203 64.6305 68.9825 69.2283 65.4842 67.0653C65.2742 67.7219 65.1375 68.1761 64.8152 68.7273C63.7266 68.475 63.8694 68.3469 63.3273 68.742C63.5094 69.5422 63.8066 69.916 64.3775 70.8161C64.3242 70.8623 64.2708 70.9085 64.2173 70.9547C63.9898 70.6565 63.7622 70.3584 63.5346 70.0603C62.1763 69.9791 63.383 72.8154 61.9008 73.7061C61.8091 73.6414 61.7173 73.5768 61.6256 73.5121C61.528 73.182 61.4301 72.8521 61.3317 72.5226C60.5338 72.1573 60.329 72.227 59.6352 72.1124C59.915 72.8561 60.0067 72.9702 60.4574 73.7584C60.4368 73.8921 60.416 74.0259 60.395 74.1598C59.8072 73.7367 59.3203 73.4066 58.7443 73.0871C58.7162 73.2159 58.688 73.3447 58.6596 73.4737C61.3029 77.6986 57.214 76.176 57.7606 77.9807C57.8828 78.1597 58.0049 78.3387 58.1271 78.5177C58.0207 78.6423 57.9142 78.7669 57.8076 78.8917C57.6358 78.7281 57.4639 78.5645 57.292 78.4009C57.0677 77.8828 56.8437 77.3647 56.6197 76.8465C56.5105 76.786 56.4012 76.7255 56.2919 76.665C55.4512 78.2291 54.4922 79.5511 53.7172 81.1699C53.0807 80.8611 53.3335 81.0101 52.6513 80.4392C52.5979 80.5213 52.5444 80.6033 52.491 80.6853C52.9317 81.5198 53.3677 82.3507 53.7998 83.1807C53.007 84.3237 51.0479 83.5762 50.7479 85.0864C50.6147 85.7596 50.5143 85.8621 49.9646 85.9578C49.4155 85.366 49.4753 85.3533 48.8667 84.9563C48.8384 85.0423 48.8101 85.1283 48.7819 85.2143C49.0248 85.5704 49.2681 85.9262 49.5117 86.2816C49.4472 86.3395 49.3822 86.3977 49.3172 86.4561C49.0177 86.1996 48.718 85.9432 48.4181 85.687C47.6171 87.2368 49.1061 87.9789 46.9797 89.1477C46.8474 89.0936 46.7154 89.0393 46.5827 88.9856C46.3388 88.5937 46.0953 88.2016 45.8529 87.8084C45.3486 88.019 45.3437 87.9753 45.3545 88.6453C45.7757 89.3024 45.8834 89.4599 46.3819 90.1075C46.021 90.6941 45.8843 90.5173 44.5877 89.6955Z" fill="#34140B"/>
<path d="M57.8373 86.8515C59.7793 87.67 60.1003 87.0191 58.3617 87.9956C56.9251 88.8006 60.8821 88.4622 56.709 89.4665C57.6434 89.5398 57.3128 89.5154 58.4569 89.5308C58.5063 89.5596 58.5163 89.6301 58.4978 89.7269L59.5872 93.0968L52.9978 95.2269C52.4577 95.1265 51.0528 94.1849 50.7356 94.15C50.686 93.8247 50.6363 93.4993 50.5867 93.174C50.4614 93.2725 49.9176 93.8606 49.8563 93.7589C49.341 92.9198 48.8899 92.6783 48.3641 92.4939C48.3028 91.6104 48.3185 91.9599 48.3115 90.9588C48.1539 90.7967 48.1184 91.28 48.0203 92.1318C47.4742 91.9061 43.6648 90.3676 43.3966 88.4542C43.3946 88.2094 43.3926 87.9647 43.3906 87.7199C43.5782 86.652 43.8183 86.6237 44.0519 86.5982C44.716 86.5219 45.3962 87.2814 46.0584 87.5833C47.505 88.2444 48.947 88.8292 50.3936 89.6111C50.925 89.8971 51.454 90.1483 51.9872 90.2373C52.2425 90.2786 52.519 90.0529 52.7716 90.2754C52.8473 90.342 52.9228 90.4572 52.9978 90.5819L54.0221 90.2508L53.8528 89.7269C54.2875 89.4696 54.8368 89.2099 53.8389 88.9704C52.7519 88.711 53.7147 86.6245 53.7624 86.1999C53.8196 85.724 53.5433 85.2488 53.5211 84.774C53.5052 84.424 53.8325 84.0711 53.7371 83.725C53.6418 83.3685 53.0697 83.0187 52.9362 82.6645C52.8288 82.3867 52.7296 82.0988 52.6357 81.8176C52.5887 81.6739 52.543 81.5354 52.4983 81.3922C52.4871 81.3608 52.476 81.3193 52.4649 81.287C52.4594 81.2765 52.4538 81.245 52.4483 81.2353C52.448 81.2346 52.4476 81.234 52.4473 81.2334C52.4471 81.2331 52.447 81.2328 52.4468 81.2325C52.4467 81.2339 52.4467 81.2285 52.4467 81.2283C52.4466 81.228 52.4466 81.2279 52.4466 81.2278C52.4466 81.2278 52.4466 81.2278 52.4466 81.2278C52.4466 81.2278 52.4466 81.2278 52.4466 81.2278C52.4466 81.2278 52.4466 81.2278 52.4466 81.2278C51.8341 81.2278 54.1616 81.2278 53.5491 81.2278C53.5491 81.2278 53.5491 81.2278 53.5491 81.2278C53.5491 81.2278 53.5491 81.2278 53.5491 81.2278C53.5491 81.2278 53.5491 81.2278 53.5491 81.2278C53.5491 81.2278 53.5491 81.2278 53.5491 81.2278C53.5491 81.2278 53.5491 81.2278 53.5491 81.2278C53.5491 81.2278 53.5491 81.2278 53.5491 81.2278C53.5491 81.2278 53.5491 81.2278 53.5491 81.2278C53.5491 81.2278 53.5491 81.2278 53.5491 81.2278C53.5491 81.2278 53.5491 81.2278 53.5491 81.2278C53.5491 81.2279 53.5491 81.2279 53.5491 81.228C53.5491 81.2282 53.5491 81.2289 53.5492 81.2299C53.5493 81.2371 53.5493 81.2324 53.5494 81.2337C53.5501 81.2348 53.5508 81.2361 53.5515 81.2376C53.5529 81.2406 53.5542 81.2442 53.5556 81.2485C53.5584 81.2559 53.5611 81.2729 53.5638 81.2792C53.5858 81.3442 53.6075 81.4106 53.6291 81.4922C53.7376 81.5452 53.7194 81.3647 53.8401 81.3602C53.9573 81.3305 54.1589 81.2977 54.3682 81.2368C54.7933 81.1171 55.2723 80.9197 55.736 80.6643C55.7517 80.724 56.0288 81.5226 56.0348 81.5185C56.374 81.3498 56.9375 79.7548 57.3808 80.8141C57.4779 81.2715 57.5761 81.7287 57.6753 82.1856C57.7077 82.1683 57.74 82.1509 57.7722 82.1335C57.5988 81.1701 57.6893 81.6574 57.5006 80.6805C57.6995 80.2751 58.1338 80.3127 58.5507 80.2422C58.9887 80.1675 59.4361 79.4088 59.9233 79.2075L58.19 81.2565C58.1861 80.9361 58.3497 80.6503 58.8758 80.4574C58.9918 80.4144 59.8544 80.5062 60.3138 80.5442C60.316 80.5131 60.3181 80.482 60.3203 80.4508C59.8953 80.3565 58.895 80.1685 58.9216 80.0947C59.0577 79.691 56.6139 79.2155 58.6156 79.0656C58.5503 78.7608 57.6537 78.4326 58.0056 78.2353C58.6948 78.2422 59.0163 78.2558 59.7641 78.2838C59.7965 78.2581 59.8288 78.2325 59.8612 78.2069C59.5323 78.1101 59.1195 77.9896 58.6229 77.8441C58.1863 77.1955 57.9419 76.5394 58.053 75.9396C58.0875 75.7546 57.1007 75.3715 57.1385 75.2803C57.3639 74.6869 56.7328 74.0323 56.859 73.4415C56.8665 73.4 57.3881 73.2925 57.4121 73.2763C57.6587 73.1102 58.622 73.0907 58.1481 72.8799C57.6598 72.8224 57.1715 72.7649 56.6832 72.7074C56.5603 72.6589 56.4375 72.6103 56.3146 72.5618C56.8974 72.4839 56.8411 72.5032 57.6748 72.4713C57.1056 72.1898 56.5833 72.2718 56.4959 72.1556C56.383 72.0068 57.1924 71.3853 56.9235 71.2656C56.425 71.044 55.6282 70.9291 55.3243 70.6139C55.4958 70.6134 55.6672 70.6129 55.8386 70.6125C57.219 70.6069 57.3924 70.6308 57.7248 70.469C57.5971 70.4263 57.4694 70.3836 57.3416 70.3409C56.7232 70.3286 56.1621 70.316 55.5314 70.2983C54.5313 70.0157 55.9484 68.5243 56.1623 68.1741C56.6237 68.1597 57.0568 68.141 57.4715 68.115C57.4712 68.0745 57.471 68.034 57.4707 67.9934C57.778 67.7953 58.4947 67.5947 59.6215 67.5378C60.1673 67.6058 60.7131 67.6737 61.2588 67.7416C58.7838 68.1857 64.8596 70.4785 59.354 70.2461C59.2371 70.2219 59.1201 70.1977 59.0031 70.1735C58.1675 70.002 57.7757 69.8952 56.7852 69.8031C56.715 69.8343 56.6447 69.8656 56.5745 69.8968C57.8659 70.2386 59.8139 70.3732 61.6871 70.5513C63.3056 71.198 60.596 70.7955 61.0478 71.1954C61.8867 71.9416 64.086 72.7252 63.1061 73.3243C62.5823 73.6438 62.627 73.5788 64.167 73.9259C64.2392 74.3222 63.4057 74.2865 62.9921 74.5893C62.8543 74.6899 64.3371 75.0346 64.284 75.3099C63.4547 75.2992 63.8107 75.3154 62.7921 75.2168C62.7314 75.2386 62.6707 75.2605 62.61 75.2824C63.447 75.4406 62.9975 75.3684 64.0629 75.4782C64.0246 75.4993 63.9863 75.5205 63.948 75.5417C63.6307 75.5313 63.3134 75.5208 62.9961 75.5104C62.8121 75.6908 65.1079 78.3441 64.8438 78.4022C61.6015 79.1062 66.5385 79.598 63.5617 80.3948C63.3684 80.4435 65.1481 81.042 64.9347 81.3236C64.307 81.4039 64.1811 81.3858 63.1818 81.3817C63.1371 81.4134 63.0923 81.445 63.0475 81.4767C64.0085 81.6418 63.6722 81.5901 64.7418 81.722C64.7663 81.7528 64.7908 81.7835 64.8154 81.8142C64.6232 81.8299 64.4311 81.8457 64.239 81.8614L64.511 83.1193L61.5228 85.0724C61.5165 85.0599 61.5102 85.0474 61.5038 85.0348C61.4394 85.7008 61.5036 85.8909 61.253 85.818C60.8783 84.9954 60.6036 84.2319 60.3648 83.996C60.4014 84.395 60.4383 84.7937 60.4714 85.1932C60.1402 85.1577 59.6944 84.3109 59.3934 84.6933C59.2706 84.8615 58.2291 85.662 58.3041 85.867C57.3966 83.5027 57.4562 88.3154 56.5844 84.4303C56.4162 84.7939 56.2929 85.0518 56.0845 85.2629C55.7769 84.3678 55.8561 84.3626 55.6115 84.3096C55.5001 85.0343 55.5069 85.5108 55.4732 86.5648C55.4432 86.5649 55.4132 86.5649 55.3832 86.5648C55.3843 86.1905 55.3845 85.8163 55.3837 85.4421C54.9866 84.4808 54.637 87.4504 53.4935 87.0013C53.4912 86.8907 53.4896 86.7802 53.4887 86.6697C53.6282 86.3746 53.7613 86.0768 53.8718 85.7751C53.7733 84.956 53.6913 84.8614 53.5628 84.2825C53.2617 84.9792 53.2218 85.1196 52.8797 85.9513C52.7775 86.0148 52.6704 86.0754 52.5579 86.1322C52.6265 85.4156 52.6968 84.8392 52.7711 84.2021C52.6713 84.2467 52.5663 84.2868 52.4553 84.3209C51.4713 85.8399 50.4093 86.0779 49.4219 85.2153C48.3951 84.3618 48.1249 82.4585 48.2722 81.4922C48.3019 81.427 48.3006 81.39 48.235 81.3406C48.2022 81.3147 48.1533 81.295 48.0842 81.2799C48.0496 81.2736 48.01 81.255 47.9648 81.2479C47.9422 81.2436 47.9182 81.2401 47.8928 81.2372C47.88 81.2358 47.8669 81.2346 47.8535 81.2336C47.8518 81.2342 47.8501 81.2314 47.8484 81.2283C47.8482 81.228 47.848 81.2279 47.8478 81.2279C47.8477 81.2278 47.8477 81.2278 47.8476 81.2278C47.8476 81.2278 47.8476 81.2278 47.8476 81.2278C47.8476 81.2278 47.8476 81.2278 47.8476 81.2278C47.8476 81.2278 47.8476 81.2278 47.8476 81.2278C47.8476 81.2278 47.8476 81.2278 47.8476 81.2278C47.8476 81.2278 47.8476 81.2278 47.8476 81.2278C47.8476 81.2278 47.8476 81.2278 47.8476 81.2278C47.8476 81.2278 47.8476 81.2278 47.8476 81.2278C51.2811 81.2278 36.4025 81.2278 58.1481 81.2278C58.1481 81.2278 58.1481 81.2278 58.1481 81.2278C58.1481 81.2278 58.1481 81.2278 58.1481 81.2278C58.1481 81.2278 58.1481 81.2278 58.1481 81.2278C58.1481 81.2278 58.1481 81.2278 58.1481 81.2278C58.1481 81.2278 58.1481 81.2278 58.1481 81.2278C58.1481 81.2278 58.1482 81.2278 58.1482 81.2278C58.1482 81.2278 58.1482 81.2278 58.1482 81.2278C58.1483 81.2278 58.1484 81.2279 58.1486 81.2279C58.149 81.2281 58.1494 81.2287 58.1498 81.2295C58.1507 81.2318 58.1515 81.2328 58.1524 81.2325C58.1558 81.2328 58.1592 81.2331 58.1627 81.2333C58.1696 81.2339 58.1766 81.2345 58.1837 81.2351C58.3988 81.2403 58.6139 81.2482 58.829 81.2588C58.8523 81.307 58.8757 81.3622 58.899 81.4111C58.6626 81.418 58.4263 81.425 58.1899 81.4322C57.6528 81.3762 57.1157 81.3169 56.5786 81.2712C56.461 81.2813 56.3435 81.2931 56.2259 81.3065C56.8457 81.8266 57.2014 82.3368 57.8911 82.8539C57.2365 82.9383 57.5161 82.9105 56.6357 82.9508C56.6611 82.981 56.6865 83.0115 56.7119 83.0422C57.6273 83.1133 58.5366 83.1852 59.4424 83.2607C59.7603 83.6921 57.888 83.9945 58.7938 84.3909C59.1975 84.5682 59.2041 84.6134 58.899 84.7647C58.0917 84.7637 58.1232 84.7471 57.4176 84.8027C57.4611 84.8278 57.5045 84.853 57.548 84.8782C57.9739 84.8993 58.3998 84.9204 58.8257 84.9415C58.8236 84.9694 58.8216 84.9974 58.8195 85.0254C58.4274 85.039 58.0353 85.0525 57.6432 85.0661C58.2153 85.5934 59.7887 85.4128 59.1403 86.1746C59.0089 86.193 58.8776 86.2114 58.7462 86.2299C58.2959 86.1968 57.8456 86.1638 57.3952 86.1308C57.1918 86.2953 57.1572 86.2844 57.6403 86.4347C58.403 86.4881 58.5906 86.4997 59.401 86.5343C59.56 86.755 59.3374 86.7452 57.8373 86.8515Z" fill="#34140B"/>
<path d="M104.934 39.8791C105.739 43.6508 106.935 41.3609 103.824 44.4588C101.168 46.7721 105.269 47.5379 99.6214 48.9331C100.263 49.6702 100.032 49.4157 100.968 50.0763C100.939 51.035 95.1569 56.2875 93.9979 57.1327C93.6288 57.042 93.262 56.9473 92.8975 56.8487C92.6355 57.2615 91.4692 59.1217 91.2119 59.1951C89.1503 59.8668 87.6554 60.7101 85.9081 61.6836C85.2213 61.0823 85.4673 61.3374 84.885 60.5227C84.3163 60.71 84.4742 61.1824 84.6281 62.0976C83.4953 62.7225 77.7076 65.3148 73.0808 65.6238L72.8591 65.7138L72.5492 65.5454C70.7426 63.6761 69.4076 62.0061 69.5042 61.2304C69.6341 61.0228 69.7639 60.8152 69.8938 60.6076C71.0432 60.0905 71.7722 60.5423 72.4803 60.9839C73.2086 61.4363 73.8826 61.9837 74.5314 62.5721L72.0404 62.2051C73.4279 62.0224 74.9141 61.8602 76.3046 61.4522C81.0613 60.0452 85.6346 57.741 89.9118 54.7771C91.482 53.6844 92.9695 52.4508 94.2442 51.0007C94.855 50.3048 95.2687 49.3696 95.9667 48.7457C96.9003 47.918 98.6667 47.4848 98.1002 45.8579C97.7835 44.6048 101.436 38.0503 101.63 36.4174C102.07 34.7315 102.054 32.9721 102.166 31.2617C102.193 30.8616 102.248 30.4593 102.307 30.052C102.433 29.1617 102.586 28.3035 102.523 27.4741C102.43 26.1358 101.816 24.9416 101.578 23.6844C100.671 18.0575 97.5682 11.4973 92.237 11.9156C92.208 11.8445 91.563 10.9794 91.5364 10.9875C90.2664 11.0188 87.9063 13.0296 86.7049 12.3059C86.491 11.8845 86.2764 11.4639 86.0561 11.0455C85.9436 11.0962 85.8312 11.148 85.7188 11.2008C86.0657 12.1164 85.8812 11.656 86.2751 12.5715C85.5048 13.2298 84.1074 13.7004 82.7695 14.4115C80.5417 15.5508 78.3835 19.0242 75.7167 19.5232C75.5035 19.5635 74.9403 18.9038 74.613 18.578C74.5311 18.6523 74.4495 18.7269 74.3682 18.8018C74.5212 19.2461 74.9832 20.1979 74.7809 20.3611C74.5215 20.5731 74.3871 20.8663 74.3084 21.1797L72.5416 22.6137L71.3958 21.0846C70.3803 20.7916 69.1892 21.1463 69.5965 19.4462C68.8027 18.8315 67.6177 19.0429 67.2452 18.3272C67.5119 17.6637 67.6587 17.3714 67.9861 16.6814C67.9255 16.5977 67.8644 16.5144 67.8028 16.4313C67.425 16.5696 66.9614 16.7538 66.4105 16.9881C64.4997 16.2549 62.6337 15.5949 60.9253 14.9445C60.3815 14.7318 59.3301 15.5079 59.1114 15.4349C57.4905 14.9044 56.0716 15.6346 54.9886 15.922C54.9142 15.9392 54.4349 15.5744 54.3838 15.5736C53.9373 15.5099 53.2206 14.8051 53.1239 15.4418C53.3662 15.87 53.6123 16.2959 53.8622 16.7196C53.8733 16.863 53.8886 17.0053 53.9079 17.1464C53.3727 16.8245 53.4442 16.8386 52.7324 16.3484C52.7277 17.1288 53.302 17.3136 53.203 17.5335C53.1421 17.6751 52.7441 17.8434 52.3429 18.1261C51.9544 18.3861 51.5741 18.7563 51.6365 18.9207C51.8535 19.5542 52.4955 20.0342 52.5016 20.756C52.3307 20.7167 52.1589 20.6794 51.9865 20.6441C50.5909 20.3825 50.4255 20.3145 49.9237 20.694C50.0122 20.8237 50.1016 20.9527 50.1919 21.0811C50.8174 21.1767 51.3793 21.2821 52.0025 21.4242C52.6933 22.0727 50.3247 26.0503 50.0664 27.3263C49.5874 27.4469 49.1359 27.5853 48.7017 27.7535C48.6895 27.8856 48.6779 28.0189 48.6667 28.1535C48.2995 28.8294 47.5325 29.6549 46.3796 30.1817C45.8343 30.0974 45.2891 30.0117 44.744 29.9248C47.1555 27.9542 42.2604 20.6255 48.0099 21.2362C48.1094 21.3122 48.2091 21.3877 48.3091 21.4628C49.0248 21.9946 49.3474 22.3068 50.3021 22.5864C50.3993 22.5005 50.4965 22.4173 50.5938 22.3368C49.5352 21.3541 47.6573 20.8255 45.8691 20.2343C44.9399 17.9605 47.2881 19.4754 47.3668 18.1616C47.5004 15.8546 47.2303 12.2951 50.3159 11.3286C51.9042 10.9411 51.5407 11.1385 51.7127 9.33478C53.3455 8.58799 53.8231 9.36463 55.2675 9.52406C55.7182 9.5966 56.4655 7.99766 57.7438 8.08525C58.0143 8.92807 57.9423 8.56863 57.8904 9.59039C57.9967 9.6559 58.1017 9.72257 58.2055 9.79032C58.5795 8.97318 58.4322 9.41651 58.5526 8.35177C58.6559 8.3986 58.7584 8.4464 58.8601 8.49513C58.9121 8.82063 58.9589 9.14626 59.0007 9.47187C59.3736 9.58483 62.0735 9.451 64.6845 10.0162C67.2885 10.5176 69.7262 11.5308 69.7891 11.7302C71.0862 16.4713 74.1218 13.1171 75.2349 17.6256L70.7032 17.4776C70.8465 17.4456 70.998 17.4169 71.158 17.392C71.4595 17.3572 71.3937 14.9097 72.4319 14.2787C73.2539 14.3915 73.32 14.5037 74.2308 15.0425C74.362 14.9886 74.4934 14.9354 74.6248 14.8829C74.219 13.9616 74.3792 14.269 73.784 13.3656C73.8532 13.2756 73.9227 13.1859 73.9926 13.0963C74.2332 13.1662 74.4728 13.2377 74.7112 13.311C74.9819 12.3183 74.8044 12.2011 75.5167 11.8496C76.469 12.2629 77.173 12.7555 77.8405 12.6518C77.7922 12.2074 77.7494 11.7612 77.7122 11.3132C78.6971 10.8128 79.9292 11.145 80.9581 10.2438C81.3422 9.79994 85.0311 7.60576 84.8547 7.50926C86.2124 8.35877 86.9698 7.5578 87.8734 6.983C88.758 6.40884 89.8065 6.09244 90.6164 8.04192C91.3719 7.67219 91.9344 7.43769 92.8146 7.33983C93.5925 8.37184 93.284 8.31508 94.1572 8.58054C94.8632 8.02207 95.0479 7.58815 95.6343 6.67118C95.743 6.70823 95.8514 6.74679 95.9593 6.7869C95.7891 7.12306 95.6226 7.46085 95.4598 7.80018C96.3208 9.14091 99.2403 7.21258 101.204 9.61662C101.155 9.72403 101.106 9.83086 101.055 9.93708C100.664 9.97511 100.28 10.03 99.9038 10.1014C99.7325 11.0553 99.8612 11.3146 99.8252 12.1229C100.643 11.9528 100.766 11.8769 101.644 11.5662C101.809 11.6448 101.972 11.724 102.129 11.7998C101.682 12.3968 101.32 12.8811 100.947 13.4592C101.088 13.5384 101.228 13.6216 101.368 13.7086C106.312 12.318 104.008 16.9418 105.804 17.293C106.022 17.2724 106.239 17.2528 106.457 17.2342C106.54 17.4547 106.62 17.6782 106.699 17.9045C106.476 17.9893 106.254 18.0756 106.03 18.1567C105.451 18.0408 104.871 17.937 104.293 17.8527C104.193 17.9368 104.094 18.0203 103.994 18.1033C105.122 19.9966 105.75 22.0445 106.573 24.03C105.941 24.4135 106.213 24.2833 105.343 24.4945C105.375 24.6114 105.407 24.7291 105.438 24.8476C106.367 25.0991 107.286 25.325 108.201 25.5993C108.569 27.3812 106.677 28.4851 107.518 30.0962C107.555 30.1683 107.588 30.2355 107.617 30.2984C107.882 30.8938 107.847 31.1112 107.53 31.6475C106.726 31.58 106.763 31.5185 106.041 31.6822C106.077 31.7864 106.111 31.8908 106.146 31.9953C106.562 32.1173 106.978 32.2419 107.394 32.3689C107.381 32.4816 107.368 32.5996 107.353 32.7154C106.958 32.7311 106.562 32.7451 106.166 32.7576C106.464 34.9285 108.175 34.4843 106.899 37.4996C106.754 37.5468 106.609 37.5931 106.464 37.6385C106.056 37.4038 105.646 37.1731 105.234 36.9465C104.891 37.5507 104.869 37.4909 105.193 38.1941C105.879 38.5899 106.048 38.6842 106.795 39.0314C106.706 39.979 106.493 39.8894 104.934 39.8791Z" fill="#34140B"/>
</svg>
