<svg width="129" height="129" viewBox="0 0 129 129" fill="none" xmlns="http://www.w3.org/2000/svg">
<path d="M37.0958 77.6878C39.8456 81.7502 43.994 86.7227 47.4149 90.3403C48.4846 91.4725 48.3236 90.5842 49.0827 91.3513C50.5697 92.8476 51.6969 94.4812 53.2838 95.9204C53.8088 96.3911 53.7413 95.2739 54.2771 95.7735C57.4285 98.5606 59.2536 101.341 64.591 104.338C65.5352 104.757 66.7158 105.417 69.0576 105.468C69.5141 105.46 69.9603 105.439 70.4082 105.398C70.8773 105.352 71.2204 105.319 71.9793 105.169C72.3178 105.098 72.6684 105.008 73.039 104.887C73.4296 104.751 73.7178 104.663 74.4159 104.299C75.6002 103.661 77.2532 102.35 77.8792 99.9161C78.3799 97.4433 77.8465 96.4569 77.491 95.435C77.2625 94.9002 77.1406 94.6957 76.9707 94.3972C76.8085 94.1199 76.6432 93.8673 76.4758 93.6292C76.1055 93.1076 75.8853 92.8523 75.6008 92.5205C75.3352 92.2143 75.0139 91.8695 74.7796 91.632C72.7597 89.6099 70.9194 88.1696 69.1206 86.6958C65.4619 83.7417 61.9961 80.9944 58.6383 78.052C52.0173 72.2264 45.7101 65.8209 42.3312 58.5169C39.9832 53.7133 39.1278 47.4996 42.0692 42.805C42.1255 42.7083 42.1817 42.6134 42.2379 42.5203C42.6116 41.9109 42.9452 42.587 43.0546 42.4943C44.7191 41.1982 43.2771 41.1849 43.8457 40.0516C46.4735 35.3053 48.8723 35.3966 52.38 39.5922C53.6311 41.2476 51.3856 40.4169 53.1821 41.6127C53.3067 41.7033 53.5176 40.883 53.9172 41.3082C54.8632 42.2992 56.133 44.6171 56.6937 45.5651C57.7751 47.3547 57.9418 47.7202 58.7983 49.536C59.9822 52.0673 61.5032 55.0509 62.3449 57.9934C62.5193 58.6134 61.6111 58.0235 61.8274 59.0291C62.0508 60.0348 62.907 62.6185 63.3055 63.4599C63.711 64.3013 64.1118 63.7817 64.2732 63.906C65.639 64.9373 65.0471 68.3843 65.0963 68.7815C66.1975 76.1171 67.9874 82.3445 68.1022 89.1074C68.1199 91.6252 67.9287 94.0482 67.3988 96.2924C66.9422 98.516 65.7351 100.18 65.4941 100.107C65.6902 100.019 65.943 99.9576 66.1717 99.9474C66.609 99.9283 66.8445 100.049 66.879 100.069C66.9201 100.097 66.8288 100.057 66.6964 99.9541C66.4417 99.7638 66.0503 99.3657 65.7012 98.945C64.9707 98.0671 64.2572 96.9901 63.5959 95.8758C62.2705 93.6281 61.1006 91.1742 60.0852 88.4743C59.873 87.9061 60.8655 88.2868 60.6104 87.5926C60.0446 86.0405 59.5121 84.467 59.0453 82.9267C58.8101 82.1483 58.5964 81.3963 58.4169 80.6673C58.3755 80.4987 58.3318 80.3124 58.2956 80.147C58.2607 79.988 58.2278 79.8254 58.2036 79.69C58.1811 79.5687 58.1636 79.4357 58.1616 79.4278C58.1592 79.4198 58.1637 79.4518 58.1571 79.5867C58.1214 79.6769 58.2477 80.0218 57.697 81.1164C57.1735 82.0065 56.7038 82.2374 56.4896 82.3794C56.2747 82.5016 56.1902 82.5225 56.1624 82.5316C56.1136 82.5419 56.2476 82.4956 56.4164 82.459C56.7606 82.3811 57.2663 82.3059 57.7788 82.243C58.8236 82.1154 59.9876 82.0148 61.1656 81.8997C63.5417 81.6612 65.9992 81.4213 68.6777 80.752C69.6136 80.5017 68.2607 80.0801 69.1685 79.7839C70.0288 79.4886 70.9931 79.127 72.0703 78.4479C73.1854 77.8228 74.0369 76.488 74.2143 75.4097C74.4374 74.2686 74.2926 73.3776 74.1338 72.5956C73.7843 71.0151 73.1988 69.6801 72.7279 68.4838C71.7353 66.0389 70.9883 63.9354 71.3325 62.0885C69.2971 59.1035 66.5544 55.7483 64.0504 53.7546C62.4325 52.4758 63.1531 54.4501 61.7603 52.385C61.4413 51.9226 62.4208 52.0189 61.9 51.3571C59.6893 48.5636 56.7831 45.9838 54.1996 43.4307C53.6648 42.9048 54.1933 42.5714 54.0936 42.3546C53.233 40.5204 49.7693 39.9618 49.0871 39.7561C46.8539 39.0745 44.742 37.7256 41.0891 38.9964C40.5161 39.2431 39.985 39.6658 39.6232 40.1367C39.2748 40.59 39.0984 40.989 38.965 41.3902C38.718 42.2179 38.7274 42.6124 38.7215 43.1598C38.7276 43.5813 38.7652 43.9667 38.8233 44.3669C38.8748 44.7188 38.9349 45.0357 39.0108 45.3799C39.296 46.6558 39.6918 47.8474 40.1464 49.0159C40.5384 50.0007 39.3299 49.116 39.6954 50.0951C41.5842 54.9757 44.1068 59.503 46.8116 63.5838C47.4197 64.4902 47.5151 63.2843 47.8359 63.6992C49.24 65.514 48.3912 66.6006 49.7542 68.3406C50.0414 68.7079 50.4052 68.1843 50.5034 68.2237C52.037 68.8271 51.4257 70.5397 51.5785 70.8458C53.4801 74.7057 56.2235 76.2126 58.4452 79.7138C58.7181 80.1394 57.4566 79.647 58.259 80.8107C59.7728 82.8464 60.7164 84.6562 63.6214 87.0062C67.1116 89.2183 70.5436 90.5322 74.732 90.995C76.7108 91.0627 79.6875 91.4022 82.0515 88.3632C83.9191 85.1606 82.7352 82.8138 82.1442 81.0661C81.5074 79.5903 81.3883 80.8683 81.2896 80.7927C79.745 79.7385 80.5909 78.3261 80.4 77.8273C80.3585 77.7245 80.3151 77.6216 80.2698 77.5187C80.2958 77.5563 80.3511 77.6142 80.4065 77.8762C80.4626 78.0856 80.4339 78.612 80.2439 78.9498C80.058 79.3026 79.8757 79.4292 79.813 79.4827C79.7364 79.5401 79.7331 79.5366 79.7575 79.526C79.8836 79.4627 80.3167 79.2964 80.7083 79.1373C81.5203 78.8114 82.4012 78.3856 83.1868 77.9349C84.7928 77.0232 86.1034 76.0391 87.692 75.4532C90.0762 72.4523 91.2192 69.0857 91.9815 65.8423C93.1768 61.2988 95.855 56.1807 97.5918 50.8702C98.4654 48.1692 99.2849 45.3785 99.2917 42.1027C99.2678 40.4784 99.0117 38.6161 97.9063 36.8809C96.8158 35.1256 94.8713 34.0399 93.1982 33.6854C91.562 33.3042 89.7907 33.3086 88.1872 33.7398C87.9661 33.7985 88.4841 34.4151 88.0617 34.5295C85.5765 35.3213 84.7447 35.8387 83.8184 35.9021C82.9275 36.0134 82.0525 35.8444 80.2924 36.4582C79.3549 36.7881 78.7034 39.7091 78.6679 39.9324C78.4429 40.7927 79.752 40.941 79.6337 41.1852C78.6838 43.1195 76.3127 40.7003 74.5503 42.405C74.4996 42.4596 75.1573 42.7188 75.0541 42.8999C74.718 43.4844 74.0828 43.6362 73.995 43.898C73.9368 44.0532 74.0696 44.2213 74.0797 44.4487C74.0944 44.6726 73.896 44.8697 73.6196 44.8474C73.0667 44.8188 72.4664 44.1447 72.5743 42.8713C72.5951 42.6596 73.4566 42.5237 73.8478 41.8429C74.1061 41.6369 74.2901 41.5612 74.2951 41.3131C74.289 41.1849 74.4466 40.5797 75.1005 39.8055C75.7196 39.0447 76.682 38.294 77.0723 37.954C77.8926 37.2566 76.9427 37.1289 76.9849 37.0667C79.1942 34.7878 78.0625 35.0828 79.0756 33.2442C80.2389 31.4454 80.8307 34.3931 81.5348 34.4908C82.2271 34.5707 84.2796 33.36 84.8421 33.0624C85.3798 32.7392 84.5969 32.4488 85.1023 32.2387C88.5886 31.023 86.7205 33.5667 87.7823 33.9897C89.9711 35.162 92.0797 33.4249 94.0599 34.9244C94.5109 35.3242 93.8271 35.3034 94.1064 35.7091C94.7926 36.7952 95.3586 37.6584 95.5676 38.9451C95.6609 39.5732 95.6683 40.3325 95.4837 41.1856C95.41 41.6361 94.0614 43.5796 94.8314 45.0514C94.9445 45.2599 95.5568 44.773 95.5494 45.7687C95.5452 47.2868 95.0933 50.0143 94.487 51.5363C94.0401 52.674 93.5432 51.1106 93.4062 52.6303C93.34 53.3051 94.1908 52.2572 94.0175 53.524C93.8519 54.808 92.7814 57.8881 92.3218 59.0287C91.8686 60.1831 91.472 59.3064 91.3942 59.3843C90.9375 59.8696 89.7678 61.9131 89.6818 62.1098C85.576 71.738 81.8647 80.8989 76.1311 89.502C75.6681 90.1924 75.3526 89.3438 75.2757 89.4453C73.5643 91.6071 76.3392 90.7757 75.8184 92.7817C74.7468 91.7572 74.3515 92.882 73.1497 94.3999C72.5505 95.1543 72.3773 94.4014 72.2796 94.4441C70.8159 95.0902 71.1521 96.5086 71.2076 96.8127C71.2695 97.0288 71.1768 97.3113 71.1147 97.4623C71.0729 97.5513 71.0645 97.5789 70.9852 97.6759C70.9547 97.7132 70.9301 97.7384 70.9183 97.7463C70.9126 97.7502 70.9101 97.7497 70.9139 97.743C70.9158 97.7397 70.9192 97.7347 70.9251 97.7278C70.9529 97.7082 70.8601 97.7592 71.0742 97.6167C71.1307 97.5848 71.2086 97.5398 71.3604 97.4995C71.5078 97.4632 71.7711 97.421 72.0977 97.5556C72.428 97.6855 72.6671 98.0096 72.7365 98.2204C72.8152 98.4389 72.8107 98.5722 72.8098 98.6643C72.8063 98.7557 72.7958 98.8096 72.788 98.8491C72.7832 98.8726 72.7847 98.8674 72.7831 98.8759C72.781 98.8876 72.7792 98.8976 72.7776 98.9063C72.7711 98.9409 72.7687 98.9566 72.7698 98.9644C72.7719 98.979 72.787 98.9623 72.8102 98.9326C72.8709 98.8451 72.9047 98.8179 72.95 98.7595C73.0376 98.6496 73.1321 98.5019 73.1945 98.3183C73.2393 98.1895 73.2531 98.0562 73.2287 97.9195C73.1382 97.45 72.716 97.5563 72.4512 97.4825C72.3169 97.4487 72.2169 97.387 72.1943 97.2268C72.1828 97.1463 72.192 97.0361 72.2232 96.8825C72.2428 96.7606 72.284 96.6033 72.3512 96.3804C73.0089 95.9687 73.8842 97.8797 74.5377 96.3397C76.6577 90.8186 76.3506 80.7419 76.8223 76.4315C77.2282 72.1327 77.5224 70.7655 77.705 68.2663C78.0822 63.7487 78.8168 65.5321 79.7793 62.9008C80.7847 60.298 78.0948 61.0922 77.6553 60.5812C77.2231 60.0646 77.8567 59.7521 77.6867 59.2021C77.5185 58.6508 76.9115 59.6128 77.0821 58.4493C77.2418 57.2228 79.1085 54.3984 79.8023 54.2261C81.2301 53.8495 81.8237 55.4938 82.5607 52.7976C82.608 52.6453 81.7927 52.8152 82.0073 52.2427C82.6891 50.4824 83.8381 48.7977 85.2982 48.7248C86.8313 48.6169 88.5855 49.9651 90.0414 51.4235C90.7824 52.1485 91.2467 53.2212 91.5449 54.3777C91.7132 55.0625 92.3382 54.3311 92.4407 54.7469C93.1632 59.3391 91.7555 57.7248 90.2267 59.9107C92.068 59.5821 93.1111 61.1093 92.3588 64.551C91.8815 66.6101 91.194 66.0442 90.3112 67.1846C90.0442 67.5339 90.1588 69.0647 89.7217 69.2112C88.2981 69.6702 87.4351 68.0082 86.8633 71.4211C86.8378 71.574 87.6255 71.3294 87.4907 71.8433C86.5983 75.1386 85.2596 75.0819 83.7208 78.3852C82.5141 80.9766 81.0334 85.9268 79.5773 88.8796C81.4122 89.7767 79.4868 92.34 77.6331 92.7076C76.6045 94.5863 75.3352 96.4633 74.3224 98.2664C73.9788 98.8764 74.7226 98.838 74.7247 98.9465C74.7523 100.649 73.0732 100.595 72.7665 100.903C70.5099 103.214 68.3848 106.07 66.4999 106.226C66.2089 106.222 66.0394 106.159 66.018 106.124C66.0159 106.077 66.1627 106.239 66.1647 106.178C66.1847 106.051 66.4326 105.369 66.8148 104.879C66.8589 104.818 67.2287 104.866 67.5277 104.753C67.8178 104.663 68.0261 104.427 67.8469 103.656C67.8335 103.535 66.5449 104.587 67.5113 102.674C68.5069 100.742 70.2969 96.7953 72.6543 94.6054C73.2287 94.0641 75.274 93.166 75.4412 91.3763C75.4615 91.1365 74.9995 91.0884 74.988 90.7136C74.9549 89.5135 76.4288 89.9006 76.0819 88.2743C75.7298 86.6457 76.3204 84.2317 78.6961 82.0268C78.7638 81.9637 80.1363 81.9096 80.6296 81.0431C81.4319 79.6432 82.3101 77.5349 82.9493 76.0035C83.2583 75.2599 83.7153 75.9973 83.7803 75.8721C84.6983 73.8764 85.4498 71.6574 84.4 69.4592C83.0329 66.9602 81.2929 64.7874 79.1104 62.1564C78.4471 61.3426 77.2732 58.352 75.3281 57.3102C73.2125 56.2045 72.2143 60.1575 69.3797 55.9653C68.2384 54.3133 69.4143 49.2901 65.107 48.4245C60.1022 43.1817 54.2914 39.7767 48.5131 35.505C48.2714 35.3351 47.9466 33.7672 47.0679 33.4721C46.4768 33.2931 45.8654 33.2422 45.2727 33.6015C45.1065 33.7063 44.9744 33.874 44.9255 34.0335C44.8773 34.187 44.8813 34.3344 44.9057 34.475C44.9629 34.7231 45.0436 34.8606 45.1332 35.1064C45.2345 35.3552 45.3553 35.593 45.5184 35.8848C47.0434 38.5725 48.9763 40.8874 51.5484 42.5529C52.6305 43.2315 52.559 42.4943 53.8471 43.2227C55.1383 43.9252 55.6707 45.0861 57.6617 45.6088C59.1741 45.9972 61.1764 45.1307 63.0951 45.7155C62.5696 47.1946 63.8661 47.6884 66.0044 48.9841C66.4147 49.2343 65.7406 49.5526 65.9242 49.6971C66.6652 50.2958 67.6203 50.1918 68.3008 50.8009C68.4665 50.9481 68.2727 51.4473 68.397 51.596C69.4411 52.8694 72.0818 52.719 72.5401 52.7079C74.3176 52.6566 74.661 53.6106 75.8698 53.9028C77.0742 54.2074 75.6829 52.9896 77.014 53.5128C79.8087 54.6099 83.0054 57.061 84.8074 59.6523C85.5187 60.6846 84.4387 60.3685 84.5275 60.5259C85.7423 62.6036 87.1197 65.045 85.8439 66.5301C89.6356 67.9234 85.778 68.0339 86.115 71.3569C86.131 71.6275 87.7977 72.3054 88.2127 71.198C88.6162 70.1212 88.1945 68.3275 88.4202 66.6738C88.4485 66.4739 88.8065 65.7747 89.1045 65.0369C89.4015 64.2668 89.6284 63.463 89.6273 63.2844C89.5188 60.3781 86.8264 61.2044 86.6916 61.1727C84.7658 60.6345 84.6224 57.655 84.1303 57.0081C82.2214 54.2302 79.6488 53.0505 77.5793 51.4413C76.2082 50.4074 76.8062 48.8143 75.5554 48.2665C71.389 46.5224 69.1309 48.2525 66.1957 44.8483C65.5761 44.1246 67.026 42.7116 63.7137 42.9421C63.509 42.96 60.9392 43.3412 60.1594 42.0503C60.062 41.8887 60.2938 41.3982 60.1265 41.2713C59.0166 40.4326 58.0249 40.4312 56.8881 39.5753C55.7428 38.7104 54.5701 37.6111 53.369 36.8806C52.653 36.461 51.1953 36.4501 50.7368 36.3079C49.4386 35.9191 49.6739 34.3753 48.7746 34.1307C48.7388 34.1218 48.7015 34.1157 48.6624 34.1123C48.167 34.0911 47.7181 34.412 47.2712 34.6572C47.0477 34.7778 46.8152 34.8627 46.5642 34.8285C46.4373 34.8047 46.3204 34.7943 46.1883 34.681C46.0551 34.6 45.9918 34.4339 45.8946 34.5539C46.5339 34.8309 47.1267 35.3778 47.2492 36.2487C47.3955 37.1043 47.0725 38.075 46.792 38.8678C45.9738 39.0699 45.5165 38.9891 45.3316 38.9685C45.1655 38.9428 45.1023 38.9193 45.0962 38.915C45.0954 38.9074 45.236 38.9465 45.426 39.0211C45.5899 39.0833 45.8024 39.1733 46.0486 39.2881C46.2589 39.3844 46.4944 39.4986 46.7503 39.6293C47.716 40.1191 48.8046 40.7476 49.8249 41.375C51.9164 42.6664 54.0016 44.1222 55.9789 45.75C56.4704 46.1579 55.4859 46.3367 55.9999 46.7908C58.1366 48.6867 60.3906 49.9206 62.4445 52.0963C64.0309 53.7838 65.2832 56.1102 66.7871 57.9482C68.965 57.8603 71.0007 60.8427 72.7164 62.6923C73.3265 63.3476 73.6198 63.0286 74.1262 63.4317C76.0164 64.9848 74.1919 64.9836 74.4062 65.6261C75.2348 68.3667 78.0488 66.682 79.6555 69.5285C79.7142 69.6276 79.4564 71.1902 79.2412 71.9695C79.0242 71.9135 78.8765 71.8516 78.8407 71.8245C78.4007 71.4914 78.5995 71.6035 78.8412 71.5677C79.0929 71.5693 79.4519 71.4852 79.5124 71.6425C79.7095 72.4615 79.5799 74.1927 78.0967 75.9936C77.66 76.5401 75.9128 77.4956 75.8924 79.1112C75.8876 79.3278 76.4269 79.5354 76.3755 79.6831C75.3838 82.3267 73.8127 81.4185 72.4342 82.4004C71.0505 83.3793 70.6274 86.1332 70.6178 86.7628C70.5952 88.3926 71.5329 86.145 71.6462 86.1375C73.0154 86.0514 71.8134 87.4536 71.0656 88.666C72.3779 89.8447 71.1406 91.4085 70.2861 89.9173C70.1971 89.7484 70.9656 88.9464 71.0656 88.666C68.95 88.6845 67.4912 90.3461 67.3977 93.282C67.3633 94.6589 68.6897 94.2416 66.4606 96.9708C65.4744 98.2054 64.7754 97.0637 63.7306 98.1039C62.6994 99.1853 61.8652 100.551 61.1676 102.525C60.8977 103.523 60.3287 104.567 60.6688 107.052C60.7873 108.307 62.1528 110.337 63.4877 110.873C64.9384 111.547 65.6571 111.481 66.5002 111.5C67.1854 111.487 67.8096 111.372 68.3726 111.212C68.8953 111.062 69.3039 110.902 69.7224 110.719C71.4547 109.864 70.1664 111.338 71.2972 110.745C74.1256 109.049 75.0557 107.093 76.8062 105.408C76.9616 105.254 77.1622 106.107 77.6422 105.524C81.193 101.11 83.1431 96.9335 85.7546 92.0686C87.01 89.738 89.4245 85.6322 90.4462 83.068C92.2673 78.6428 93.3582 72.7921 94.6986 68.8754C95.5712 66.2934 96.0667 67.04 96.812 65.9769C98.2872 63.92 97.2534 59.3621 96.9849 58.7265C96.9965 58.7255 96.5676 61.2251 96.3572 59.8651C95.7033 59.0007 96.9778 58.7623 96.9849 58.7265C96.9558 58.448 96.7252 52.9111 96.076 51.3815C95.8769 50.6097 96.6402 50.7957 96.5023 50.3769C96.1649 49.3962 95.584 48.2377 94.7402 47.2232C94.1767 46.5087 93.5959 45.8502 92.9794 45.2449C92.2111 44.5149 91.5249 43.928 90.4536 43.2729C88.6787 42.0267 84.4125 40.9669 81.24 42.6295C75.416 46.0581 75.1293 49.6212 73.9516 52.5578C73.9226 52.6802 74.6732 52.7525 74.6034 53.0192C73.6788 56.8026 72.3594 58.8666 71.24 61.734C70.1529 64.5777 69.9809 66.9561 70.9789 68.8338C70.5042 70.9966 70.6672 74.1696 70.7945 75.9859C70.9213 77.7969 69.4792 77.8799 69.4325 78.0354C67.9774 82.794 68.5331 85.7087 68.0149 90.5098C67.9271 91.2828 67.7777 92.2419 67.5636 93.2405C67.4701 93.6712 67.3303 94.2431 67.2205 94.5758C67.1552 94.7864 67.0956 94.9403 67.0581 95.0119C67.0197 95.0962 66.9914 95.0749 67.1366 94.7914C67.0175 94.9833 66.9099 95.1594 66.8083 95.3312C66.7574 95.4173 66.708 95.5024 66.6584 95.5901C66.6416 95.6187 66.5901 95.7141 66.5374 95.8174C66.4851 95.92 66.4306 96.0305 66.3681 96.1693C66.3055 96.31 66.2349 96.4722 66.1453 96.7335C66.1006 96.8658 66.0507 97.0236 65.997 97.2424C65.9937 97.2561 65.9903 97.2699 65.9869 97.2843C65.9813 97.3095 65.9887 97.2732 65.9628 97.3919C65.9258 97.5668 65.8872 97.7773 65.8594 98.0603C65.844 98.6251 65.6493 99.5102 66.4598 101.255C66.8721 102.1 67.7259 103.122 68.843 103.721C69.9541 104.337 71.1152 104.477 71.9197 104.434C73.5536 104.309 74.1461 103.867 74.5936 103.639C75.021 103.386 75.2362 103.208 75.4114 103.065C75.4407 103.04 75.4683 103.017 75.4943 102.995C75.5465 102.95 75.5926 102.91 75.6347 102.871C75.7187 102.795 75.7867 102.73 75.8465 102.672C75.9654 102.555 76.0527 102.462 76.1304 102.378C76.4655 102.007 76.5283 101.925 76.6571 101.775C76.7754 101.635 76.8919 101.492 77.0108 101.344C77.1054 101.228 77.1834 101.133 77.2704 101.025C77.4356 100.821 77.6327 100.567 77.7681 100.397C79.1306 98.664 79.5441 97.4116 80.7749 95.8951C80.9414 95.688 81.3321 96.2552 81.3962 96.2004C83.2339 94.7273 81.3324 94.8218 81.3415 94.2898C81.3509 92.3748 81.4248 91.2468 83.2318 89.1487C83.6639 88.6383 86.5088 88.2106 87.2221 87.2286C88.1121 86.0072 87.1329 86.1105 88.0902 84.806C88.1727 84.6905 88.5875 84.9646 89.0431 84.0994C91.1749 80.0622 93.2153 75.4938 95.2697 71.1691C95.5488 70.5757 95.9086 71.6695 96.3236 70.8131C98.2679 66.7925 100.123 62.1716 101.159 57.7646C101.409 56.6796 100.673 57.1754 100.591 56.8967C100.101 55.2011 102.026 53.5866 102.143 53.224C103.809 48.2837 104.367 43.4742 103.444 37.7878C102.985 33.6626 99.3975 28.0802 94.4299 26.189C93.8437 25.6936 88.6502 23.1664 86.6694 24.7517C86.4941 24.8386 84.7076 26.2792 82.9745 25.6805C82.8593 25.6491 83.901 24.7281 81.8829 25.2053C79.8998 25.6857 76.6067 26.2719 74.4339 28.282C73.7141 28.9495 72.7046 30.9198 69.8245 32.0045C69.7274 32.0509 68.3999 32.3296 67.0132 33.3773C65.6249 34.3543 64.2072 36.5958 64.6439 38.2307C64.7118 38.4845 65.1677 38.6265 65.3813 39.3111C65.6649 39.9971 65.3821 41.1927 65.7192 44.121C65.7223 44.2024 65.7248 44.2861 65.7267 44.3721C65.7512 45.0471 65.0004 44.0203 65.3112 45.7535C65.4894 46.5227 65.7219 47.2802 66.3449 48.4061C67.0179 49.4411 67.8871 51.2907 71.2269 52.6304C74.7736 53.8635 77.621 52.4926 78.8208 51.8834C80.1846 51.157 80.9341 50.6191 81.7143 50.1865C82.2895 49.8749 84.6343 49.1814 84.8335 47.6302C84.8702 47.384 84.1753 47.2581 84.5996 46.715C86.5404 44.138 88.8244 42.913 89.5392 42.4044C89.8165 42.1988 89.4608 41.2791 89.8992 40.9854C90.1487 40.8291 90.5903 40.709 91.1102 40.8434C91.4023 40.9149 91.421 41.0308 91.2535 41.1412C91.0601 41.2664 90.6829 41.5773 90.3524 41.8839C90.0286 42.183 89.6225 42.4193 89.2807 41.9823C88.9501 41.5141 88.987 41.4082 88.9676 41.7193C88.9577 42.0157 88.9115 42.6106 88.7927 43.3103C88.5581 44.7284 88.0885 46.519 87.5157 48.3759C86.3642 52.16 84.8109 56.0127 83.184 60.7926C82.7167 62.3123 82.5851 60.7419 81.8747 63.3128C81.8652 63.3512 81.8557 63.3898 81.8463 63.4287C81.4096 65.2737 80.5369 67.3164 79.6511 68.3212C79.2062 68.8377 78.8785 69.0904 78.384 69.3653C78.1123 69.5103 77.8495 69.6348 77.1323 69.9066C76.7131 70.0902 76.3788 70.1069 74.8424 70.9381C74.1433 71.4492 72.2627 72.1479 70.9659 75.6702C69.9649 79.3297 71.2023 81.1936 71.6195 82.1262C72.7237 83.8371 73.1644 85.4125 73.4262 84.6517C73.5463 84.3902 73.7761 83.8954 74.044 83.5838C74.305 83.2696 74.5573 83.1027 74.7027 83.073C75.0055 83.0098 74.9772 83.3385 74.9932 83.6478C75.0001 83.9697 75.0782 84.2148 75.2088 84.244C75.2756 84.2589 75.3515 84.2234 75.4734 84.1069C75.5976 83.9894 75.7935 83.7488 76.1173 83.5177C76.7678 83.0992 76.7087 82.874 76.51 82.4362C76.3118 82.028 76.0708 81.5577 75.9805 81.5221C74.0046 80.79 70.8243 80.329 69.0683 78.9424C69.1217 78.9745 69.1632 79.0002 69.1959 79.0198C69.3619 79.117 69.4054 78.9097 69.5483 78.7804C69.6664 78.6313 69.8161 78.5137 69.7926 78.4685C69.2047 77.7502 67.3748 75.9155 66.2856 74.2819C65.7556 73.4904 66.3266 73.3486 65.7993 72.6672C64.5614 71.0492 63.3468 69.6288 61.8172 68.1951C61.6767 68.0623 61.7859 69.4963 60.9223 68.1938C59.5362 66.0946 57.4601 63.6728 56.4495 60.8957C56.1518 60.068 57.2204 59.4265 55.5576 58.2467C55.2122 57.9978 54.138 59.1708 54.2281 56.6529C54.2348 56.2317 54.0832 52.2645 52.324 51.245C51.858 50.9804 50.2282 50.4595 49.9862 49.485C49.9573 49.3499 50.7939 49.5539 50.5061 48.7805C50.0058 47.4378 49.4596 46.0771 49.0568 44.8606C48.8503 44.2404 48.6832 43.6483 48.6113 43.242C48.5695 43.019 48.5626 42.8752 48.5798 42.8589C48.5889 42.8595 48.606 42.9023 48.6189 43.0307C48.6304 43.1834 48.6397 43.4496 48.5677 43.8836C48.4729 44.4374 48.3288 44.8994 48.3706 44.9929C48.4009 45.1103 48.5606 44.9804 48.6903 44.9049C48.8177 44.8325 48.9374 44.7975 48.8761 45.1518C48.7177 45.4767 48.8641 46.3971 46.5469 48.2262C46.1695 48.4891 45.7646 48.7139 45.3597 48.8911C43.4418 49.6743 42.7218 49.2444 42.7523 49.3028C42.7522 49.2981 43.2141 49.4628 43.7138 49.7206C44.7585 50.2442 46.1203 51.1205 47.2717 51.9272C48.1542 52.5516 47.9506 51.6349 48.0515 51.6366C49.6921 51.6791 49.3814 53.2667 49.6379 53.6094C51.3012 55.802 53.2375 56.886 54.8418 58.9342C55.2817 59.499 54.4536 59.5546 54.5039 59.6996C55.0355 61.1759 55.2079 59.5791 55.9157 60.2005C57.8988 61.9472 59.6706 64.3057 61.0537 66.4733C61.5551 67.266 60.3329 66.8198 60.7882 67.53C61.9186 69.3202 62.9959 71.1897 63.6858 72.7041C64.0264 73.4212 64.2433 74.1489 64.2605 74.0866C64.2686 74.061 64.2661 73.9747 64.2832 73.7596C64.2922 73.6541 64.307 73.5226 64.3355 73.361C64.3669 73.1782 64.4158 72.9584 64.4953 72.7075C64.7128 71.7353 66.0349 69.9525 67.2988 69.4263C67.564 69.3465 67.3428 69.5145 67.0125 69.6475C66.4849 69.8541 66.951 70.3462 66.86 70.5044C66.1028 71.6404 63.9783 70.5732 63.546 70.4823C61.4608 70.0981 60.6431 70.6411 58.54 70.6835C57.6406 70.7046 56.6945 70.7343 55.5287 70.8526C54.9204 70.9197 54.2883 70.9932 53.3727 71.2057C52.881 71.3266 52.3342 71.4673 51.5312 71.8104C50.6991 72.2901 49.3397 72.4665 47.4561 75.4384C46.7217 76.8096 46.616 77.6726 46.5143 78.3233C46.4916 78.4992 46.4818 78.6049 46.4737 78.694C46.4653 78.7872 46.4589 78.876 46.4538 78.961C46.4436 79.1311 46.4389 79.2864 46.4373 79.4315C46.4347 80.0478 46.4651 80.3462 46.4924 80.6606C46.561 81.3353 46.6178 81.6628 46.6991 82.125C46.8363 82.8851 46.9957 83.5717 47.1586 84.2194C47.485 85.508 47.8411 86.6886 48.2233 87.8601C48.9948 90.2126 49.8595 92.464 50.8261 94.6955C52.9566 99.221 54.3887 103.157 59.1948 107.959C59.9796 108.644 61.0095 109.492 62.6995 110.185C64.3939 110.94 67.4936 111.261 69.9237 110.088C76.5308 106.479 76.8304 101.802 77.6766 98.7848C78.2837 95.6358 78.3594 92.805 78.3261 90.1425C78.2201 84.7473 77.5806 79.7108 76.7197 74.255C76.5949 73.4903 77.4977 74.1233 77.3992 73.4665C76.0403 64.9315 73.5224 56.8953 70.4544 48.6568C70.1958 47.9791 71.2786 48.6683 70.8812 47.568C70.0785 45.3294 68.7365 42.5187 67.3128 40.3861C66.632 39.3716 66.8528 41.1004 66.1813 40.0864C64.5439 37.6399 62.8802 35.0789 60.7268 32.419C59.8084 31.3157 61.8371 32.4278 60.5632 31.0241C58.845 29.2155 56.8529 27.3863 53.7566 25.9769C50.7802 24.5312 46.0234 24.1312 42.4665 25.6565C35.5499 28.7881 33.5276 33.3169 31.4534 37.1719C29.8592 40.4382 28.8823 44.036 28.7679 47.7893C28.7501 48.7204 30.1962 49.6013 29.9456 51.4272C29.5238 51.5803 29.0225 51.5918 28.5693 51.6724C30.3832 71.5332 44.3638 81.2686 54.9618 90.9686C55.4357 91.3729 54.09 91.2884 55.0027 92.0711C57.6275 94.3231 60.2141 96.5257 62.5736 98.5522C63.7126 99.5268 64.9343 100.63 65.4031 101.077C65.4976 101.149 65.513 101.181 65.3368 100.787C65.2688 100.618 65.0407 100.13 64.9126 99.3449C64.7879 98.7181 64.7132 96.9452 65.5314 95.3891C66.4051 93.7413 67.3434 93.1512 68.0804 92.7239C68.2615 92.6262 68.4265 92.5504 68.5737 92.4903C68.7345 92.4252 68.7838 92.4128 68.8766 92.3832C69.0429 92.3327 69.1765 92.3042 69.2805 92.2879C69.7047 92.2312 69.6071 92.3231 69.4834 92.3733C69.3558 92.4193 69.31 92.8131 69.1283 93.1589C69.3805 93.3253 69.6626 93.5106 69.8678 93.6623C70.0624 93.8096 70.1343 93.9045 70.0668 93.813C70.0662 93.7903 69.8258 93.6141 69.3519 93.1588C68.9269 92.7429 68.3978 92.1337 68.2534 91.8011C68.2195 91.7083 68.9954 91.5019 68.4079 90.9583C64.8995 87.6497 60.9439 83.2188 57.1412 79.1932C56.5247 78.538 56.5721 79.729 56.1277 79.265C52.9702 75.9547 50.362 71.6564 47.2365 68.5211C45.1479 66.4237 44.794 68.0153 42.8902 67.4616C42.6216 67.385 41.5337 65.9222 40.9013 66.2467C39.3134 67.0735 38.2687 68.948 36.5107 69.7379C36.4162 69.7807 36.2697 69.6603 36.1252 69.512C36.0621 69.4507 35.9575 69.3235 35.8752 69.2275C35.7867 69.1227 35.7274 69.0589 35.6372 68.959C35.5401 68.8491 35.4674 68.7811 35.4059 68.7444C35.3795 68.7323 35.3058 68.6559 35.255 68.6154C35.225 68.5881 35.1933 68.5604 35.1321 68.4836C35.0683 68.3883 34.9811 68.3293 34.7337 67.7691C34.6147 67.5003 34.4483 66.9331 34.4136 66.4488C34.3939 66.2201 34.3955 66.0793 34.391 66.127C34.3876 66.1682 34.3839 66.3905 34.4113 66.6508C34.5725 67.8533 34.8883 68.2359 34.9426 68.4089C35.0978 68.736 35.0632 68.7328 35.0853 68.8425C35.1174 69.0348 35.0449 69.1067 35.0988 69.3964C35.0848 69.4949 35.8915 71.183 35.8997 71.7603C35.8876 72.1369 34.988 72.1168 35.1124 72.7917C35.2628 73.5011 36.1511 73.7006 36.4961 74.7555C36.8448 75.82 35.8995 75.918 37.0958 77.6878ZM71.3954 84.1039C71.8962 85.7789 69.3759 85.7442 70.1678 84.0743C70.2091 83.9936 71.3713 84.0168 71.3954 84.1039ZM53.07 41.0545C55.4074 41.3931 55.5462 43.5773 53.8791 43.3713C52.1911 43.1588 52.3639 40.9584 53.07 41.0545ZM53.3179 41.0828C50.8251 40.4502 52.7619 37.4394 54.2212 39.326C54.3104 39.4331 53.4618 41.115 53.3179 41.0828ZM46.959 73.5286C46.912 73.5225 46.1136 72.5166 46.11 72.456C46.3275 71.4206 47.9543 73.4739 46.959 73.5286ZM72.7822 50.8065C71.8718 50.9147 70.0045 49.52 71.1385 49.352C72.0622 49.2132 73.9323 50.6699 72.7822 50.8065ZM94.983 34.1177C94.9462 34.1098 94.1925 33.4803 94.326 33.3355C94.8198 32.8139 95.7893 34.0289 94.983 34.1177ZM83.8975 82.092C86.2163 76.8561 84.2416 72.8665 82.581 78.3687C82.2463 79.3471 84.2742 76.6764 84.0374 77.9803C83.5466 80.4822 81.185 81.126 80.8095 83.8986C80.7487 84.4141 83.7998 82.3742 83.9054 82.0851C83.9028 82.0875 83.9001 82.0898 83.8975 82.092ZM74.2852 85.3637C74.3142 85.406 74.1945 86.7298 74.1584 86.7517C73.2859 87.3721 73.526 84.7154 74.2852 85.3637ZM92.269 34.5171C92.2943 34.5041 92.5509 34.5401 92.9222 34.6318C93.982 34.7962 95.7515 35.9827 95.7388 36.1307C95.9205 36.9199 95.3894 36.7734 94.7775 36.5045C94.1341 36.2065 93.3075 35.8454 92.6617 35.5245C92.0449 35.2076 91.6869 34.8611 92.269 34.5171ZM79.6006 88.9511C78.2238 89.833 77.3341 91.2254 77.6355 92.7016C78.2958 91.4634 78.9732 90.2309 79.6006 88.9511Z" fill="#A0677E"/>
<path d="M24.6367 41.1051C24.6344 41.086 24.6321 41.0668 24.63 41.0474C24.3623 37.9426 24.235 37.4892 24.0646 37.1219C24.0173 36.4233 23.781 36.5801 26.6947 32.1019C27.4175 31.1252 27.9379 30.4554 28.2984 29.9013C29.3687 28.33 29.5567 27.5119 30.3862 26.5854C31.1988 25.7317 32.871 24.6198 36.5222 24.6063C36.7128 23.6261 36.661 23.9682 36.3805 22.9976C36.738 22.7643 38.1375 22.2036 40.0544 21.8064C42.7123 21.277 45.4795 21.2858 48.6377 22.1872C50.1511 22.6472 51.0702 23.2863 51.5876 23.5792L51.608 23.5891C53.726 24.7851 55.2344 26.0486 55.9243 26.5875C56.0556 27.0467 56.1725 27.5046 56.2756 27.9605C57.0945 28.4243 60.3136 30.9989 60.499 31.4628C61.2468 32.8068 61.9026 34.0783 62.5103 35.3482C63.5228 37.4485 64.1362 39.3682 64.972 41.1184C64.4701 41.8139 64.6955 41.5855 63.9504 42.0502C64.037 42.2734 64.1331 42.4407 64.2405 42.5669C64.4392 42.817 64.627 42.9129 64.8565 42.9406C65.0741 42.9578 65.3692 42.9305 65.5118 42.6668C65.489 42.6512 65.4506 42.6201 65.363 42.57C65.2873 42.532 64.9892 42.3816 64.5698 42.4482C64.1547 42.5223 64.024 42.7182 64.0697 42.6899C64.1087 42.6766 64.245 42.5339 64.3999 42.3156C64.5714 42.0824 64.7016 41.8432 65.0765 41.3209L64.9639 41.5027C65.2328 41.1907 65.3933 40.3138 66.0231 38.9872L65.9794 39.091C68.1746 34.0058 72.6043 27.31 77.2794 24.5578C78.2093 24.0113 79.1181 23.8456 79.9171 23.6479C81.6067 23.3861 82.9207 23.7229 83.4819 23.8316C83.5016 23.8356 83.5142 23.8416 83.5262 23.8477C83.5974 24.0503 83.6686 24.2529 83.7398 24.4554C83.7218 24.479 83.7036 24.5022 83.6852 24.5252L83.6747 24.5281C82.552 25.5531 81.1851 25.7818 80.8826 26.0065C80.5949 26.1365 80.3374 26.2462 80.0973 26.3559C79.6447 26.5555 79.1637 26.8224 79.1396 26.8373C76.4707 28.8796 73.8721 31.5176 71.9441 34.6354C70.8415 36.4131 69.8671 38.3001 68.9847 40.2446L68.9469 40.3341C68.6131 40.8686 68.4561 41.8974 67.7972 43.0435L67.7188 43.1702C67.4941 43.4369 67.1582 44.0612 66.6781 44.6218C66.4227 44.9069 66.1286 45.2427 65.5474 45.4963C64.9625 45.7834 64.0576 45.6147 63.6552 45.2958C62.8014 44.6434 62.6842 44.0633 62.4412 43.6534C61.2775 41.4445 60.6282 39.1926 59.5531 37.1872C58.4005 35.0375 56.9561 33.0153 55.249 31.2051C53.7063 29.5727 51.9309 28.1294 49.9253 27.0298C49.2308 26.6543 48.5183 26.2148 47.6756 25.9744C47.1789 25.832 46.6749 25.7334 46.168 25.6651C44.5154 25.4519 42.7577 25.6987 41.1125 25.9644C41.0088 25.9815 40.9051 25.998 40.8014 26.0137C38.5621 26.3302 35.7236 26.382 34.5637 28.6192C34.2923 29.1892 32.9331 30.2945 31.7366 32.1601C30.6161 33.823 29.6532 36.1089 29.0996 38.3183C28.8142 39.342 28.4754 40.4078 28.3548 41.415C28.1835 42.7928 28.046 44.1481 27.8568 44.6912L27.8111 44.9297C27.7986 45.2909 27.79 45.5921 27.7867 45.8211C27.7463 48.3763 27.8952 50.9295 27.965 53.4823L27.9919 53.6427C28.1734 54.122 28.2208 54.7315 28.2754 55.3491C28.2961 55.5838 28.3154 55.8239 28.3459 56.0718C28.6022 58.1713 28.8158 60.3259 29.4638 62.3469C30.1967 64.6422 31.4896 66.6768 32.5607 68.7776C33.9384 71.4792 35.5157 74.0642 37.167 76.6014C41.5586 83.343 46.4054 89.818 52.1072 95.3539C52.1398 95.4718 52.6288 97.0324 52.6499 97.0457C54.3407 98.7075 59.4111 101.504 60.2931 103.356C60.1478 103.762 60.0049 104.169 59.8644 104.577C60.0544 104.71 60.2449 104.842 60.4363 104.973C60.9272 104.27 60.6948 104.638 61.1226 103.87C61.4322 104.029 61.764 104.22 62.1156 104.434C62.0027 104.346 62.2708 104.464 62.5057 104.531C62.7704 104.624 63.0379 104.674 63.5608 104.976L62.7635 104.745C63.3647 104.731 64.0004 104.728 64.6566 104.731L63.9013 104.935C64.187 104.777 64.3003 104.742 64.4528 104.677C64.5953 104.618 64.7267 104.567 64.8534 104.518C65.1003 104.421 65.3566 104.318 65.4866 104.252C65.8653 104.059 66.238 103.831 66.5998 103.575C68.0133 102.595 69.3426 100.757 70.8407 98.739L70.8304 98.7509C72.9812 95.8466 75.1166 92.7777 77.3024 91.0061C77.5903 90.7721 78.187 91.2428 78.5456 91.4351C78.6657 91.2657 78.7852 91.0959 78.9044 90.9259C78.7946 90.4258 78.3985 89.4439 78.6956 89.0418C80.3218 86.8154 79.2924 84.3952 81.9581 83.3664C82.4456 82.4866 82.7024 81.5915 82.9701 80.7738C83.1288 80.186 83.3217 79.461 83.8732 78.7313C83.8929 78.7072 83.913 78.6831 83.9335 78.6591C84.6623 78.6011 84.967 78.6371 85.6886 78.6975C85.8076 78.5448 85.9265 78.3925 86.0452 78.2402C86.0031 77.7258 85.9471 77.0862 85.8707 76.3219C86.1256 75.7324 86.3792 75.1437 86.621 74.5613L86.6117 74.5788C87.8991 71.4311 89.2927 68.2514 90.7945 65.2311C91.1408 64.5354 91.2708 63.4623 91.3872 62.622L91.3991 62.5971C91.4759 62.0892 91.548 61.6668 91.6589 61.4591C92.7732 59.3522 93.6052 57.215 94.3473 55.1142C94.6273 54.3389 94.8625 53.6693 94.9732 53.2009L94.9844 53.1655C95.1881 52.4232 95.3828 51.6798 95.5833 50.9338C95.6504 50.6945 96.2974 49.8581 96.3372 49.7488C96.7667 48.6687 97.7091 48.0844 97.4141 47.0238C96.9939 46.9163 96.5734 46.8106 96.1525 46.7068C96.0685 46.4797 95.9823 46.2544 95.8938 46.0309C96.4711 45.2805 96.4096 45.4265 97.1811 44.7825C96.7376 43.3953 96.2453 44.1904 96.1851 43.5495C96.1383 43.0031 96.4129 40.9317 96.3772 39.4571L96.3789 39.4762C96.3748 38.8683 96.2974 38.2888 96.1923 38.1199C95.6695 37.2565 95.0411 37.1045 94.5046 35.6578C94.4244 35.4781 94.3467 35.2738 94.272 35.0451C94.4055 34.9225 94.5389 34.8018 94.6715 34.6788C95.7292 33.6778 95.8945 33.6645 95.9305 32.5118C95.7806 32.3693 95.6298 32.2323 95.4779 32.0998C95.0209 32.4965 94.595 32.8341 94.1058 33.1833C93.7189 32.9193 93.3748 31.5873 92.9225 30.5198C92.4209 29.3936 92.2059 29.0129 91.6979 28.6564C90.9007 28.3428 90.7547 28.2468 90.7178 28.2022C90.6982 28.1109 89.6202 27.97 88.891 27.808C88.5814 27.5545 88.2262 27.2885 87.7912 26.9513L89.1893 27.1786C88.974 26.9835 88.7527 26.7941 88.5218 26.609C88.2527 26.6128 87.9837 26.6165 87.7147 26.6203C86.1947 26.3698 84.3867 25.7629 83.261 24.7861C83.3495 24.3047 83.438 23.8233 83.5265 23.3419C84.9409 23.9941 86.9812 23.9244 89.1893 23.6564L88.9069 23.6105C89.9818 23.8332 90.8396 23.6525 91.6414 23.6849C92.1418 23.6993 92.668 23.8136 93.2159 23.9112C96.9418 24.4638 98.6908 28.4814 96.6599 29.9979C96.5373 29.9657 96.4148 29.9356 96.2926 29.9076C95.4215 29.7134 94.966 29.587 94.1929 29.9869C94.2115 30.1642 94.2267 30.3459 94.2381 30.5307C95.6741 31.0596 97.2148 30.36 98.7512 29.7401C101.075 32.5036 98.4666 32.2154 99.2683 34.403C99.3382 34.6138 99.4098 34.8268 99.4818 35.0347C99.9614 36.4351 100.637 37.6609 101.137 39.0365C102.057 41.562 102.625 44.3077 101.781 47.2259C101.015 49.7149 101.095 49.1932 102.188 50.7987C101.78 53.0697 101.104 53.5341 100.306 54.8867L100.311 54.8709C100.143 55.1736 99.9594 55.4897 99.761 55.8425C99.574 56.1757 99.6165 56.7382 99.6519 57.3894C99.6831 58.1575 99.674 59.0949 99.2393 60.0132C98.3775 60.1555 98.7157 60.1651 97.8932 59.8093C97.7682 59.958 97.643 60.1063 97.5176 60.2542C97.9787 61.0218 97.6955 60.6877 98.5353 61.106C98.4351 61.2451 98.3347 61.3839 98.2343 61.5224C97.9222 61.5334 97.6104 61.5436 97.2986 61.5532C97.1168 61.8496 96.6413 63.1255 96.0305 64.8399L96.0375 64.8254C94.7466 68.5941 92.6694 74.4885 91.5631 77.1672L91.5488 77.1943C91.1804 78.0586 90.9203 78.5804 90.8369 78.6505C89.6017 79.6543 88.7974 80.4865 88.2492 81.2684C87.8674 81.7815 87.6248 82.5011 87.3038 83.2966C86.5239 85.4194 86.4559 87.5332 82.6724 90.4327C82.2873 90.7184 81.9779 93.9954 80.5981 95.5718C79.5808 96.0352 79.513 95.9372 78.4269 95.9285C78.25 96.1011 78.0726 96.2731 77.8948 96.4445C78.2835 97.3347 78.1224 97.0561 78.7632 97.7693C78.6636 97.9367 78.5636 98.1039 78.4632 98.2709C78.1646 98.363 77.8661 98.4538 77.5676 98.5432C77.093 100.015 77.3166 100.017 76.3573 100.997C75.444 101.163 74.7086 101.175 74.01 101.471L73.9971 101.485C73.788 101.567 73.5808 101.678 73.3721 101.83C73.3973 102.332 73.4193 102.838 73.431 103.351C72.0406 104.746 70.3894 105.51 68.2208 107.263C68.0745 107.376 67.7878 107.587 67.3798 107.84C67.0156 108.052 66.7476 108.181 66.472 108.32C66.3373 108.388 66.2056 108.454 66.0934 108.514C66.038 108.543 65.9868 108.572 65.9551 108.593C65.9304 108.61 65.8901 108.643 66.018 108.58L65.5001 108.911L64.6566 108.946C64.0509 108.999 63.3974 109.055 62.7635 109.113L62.0525 109.144L61.2241 108.667C61.3794 108.776 61.3397 108.757 61.2778 108.749C61.2102 108.736 61.0981 108.708 60.9611 108.671C60.8225 108.633 60.6594 108.587 60.447 108.511C60.2269 108.425 59.9886 108.359 59.4995 108.032C58.5145 107.457 57.8191 107.044 57.8599 107.16C56.5693 103.437 51.2044 104.172 51.9392 100.009C50.8359 99.3318 50.085 98.8612 49.0815 98.0295C48.7488 96.4803 49.0313 96.7944 48.1393 95.6981C47.1104 95.4766 46.7596 95.7051 45.8208 96.0252C45.7239 95.9103 45.6273 95.7952 45.531 95.68C45.8195 95.5141 46.1078 95.3477 46.3957 95.1808C45.7319 93.0845 42.4185 93.0914 40.4584 89.9626C40.5024 89.8607 40.5465 89.759 40.5907 89.6573C40.9934 89.7458 41.3958 89.8318 41.798 89.9154C41.9074 88.8824 41.7238 88.5085 41.5592 87.4586C40.6844 87.3515 40.5729 87.4143 39.7137 87.5463C39.5245 87.4087 39.3356 87.2705 39.1471 87.1317C39.4575 86.4944 39.6899 85.953 39.8722 85.2556C39.6892 85.1082 39.5067 84.9606 39.3241 84.8117C34.7827 85.8093 35.2082 80.1848 33.0959 79.5443C32.905 79.5921 32.7141 79.6397 32.5231 79.6871C32.4702 79.6091 32.4174 79.531 32.3647 79.453C32.2193 79.2373 32.0749 79.022 31.9316 78.807C32.0868 78.6626 32.2421 78.5183 32.3976 78.3743C32.8784 78.4463 33.3569 78.512 33.837 78.5787C33.9525 78.5941 34.0681 78.6093 34.1836 78.6244C34.2177 78.5202 34.2519 78.416 34.2863 78.312C34.2946 78.2863 34.3029 78.2606 34.3113 78.2349C32.0347 75.4536 30.0839 72.5503 28.0582 69.301C28.3518 68.5167 28.204 68.7964 28.8095 68.2409C28.7094 68.0533 28.6103 67.8647 28.5122 67.6753C27.5782 67.4882 26.6447 67.2675 25.7101 67.008C24.365 64.0093 25.4014 61.4296 24.0996 58.7344C23.6657 57.8056 23.5347 57.3797 23.541 56.7431C23.5259 56.4061 23.5463 56.0958 23.588 55.8019C24.2938 55.7572 24.2737 55.8573 24.8592 55.4296C24.8081 55.267 24.7583 55.1272 24.7088 55.015C24.3281 54.9557 23.9482 54.9265 23.5748 54.9518C23.5713 54.9126 23.571 54.9263 23.6006 55.0272C23.82 54.9992 24.0396 54.9687 24.2587 54.9331L24.0151 53.4823C24.1396 53.4496 24.2642 53.4169 24.3888 53.3841C23.8878 49.8656 22.5102 51.0712 23.0779 45.9902C23.193 45.8672 23.308 45.7441 23.423 45.6211C23.8173 45.8415 24.2116 46.062 24.6058 46.2825C24.7303 45.515 24.7826 45.32 24.6584 44.9297L24.9276 43.5253C24.7786 43.845 24.7605 43.853 24.7099 43.8593C24.6661 43.8537 24.6239 43.7909 24.5736 43.6924C23.9431 43.3766 23.7864 43.2872 23.0996 43.0358C23.0798 41.7675 23.2544 41.8215 24.6367 41.1051Z" fill="#34140B"/>
</svg>
