<svg width="46" height="55" viewBox="0 0 46 55" fill="none" xmlns="http://www.w3.org/2000/svg">
<path d="M1.71226 8.06312L1.61444 45.8011C1.60771 48.3968 3.5884 50.566 6.17405 50.7946L27.3286 52.665H32.3596H38.5251C40.8701 52.665 42.7652 51.0226 42.8939 48.6812C43.3185 40.9579 43.6163 24.3121 43.6021 12.145C43.5981 8.75709 40.8359 3.50334 37.8093 1.98103C37.1576 1.65324 36.4987 1.53928 35.8322 1.83867C34.2685 2.54099 32.9562 3.89469 31.2429 3.94754C22.1726 4.22728 13.0647 3.54694 7.41486 2.98426C4.39816 2.68382 1.72012 5.03151 1.71226 8.06312Z" fill="#610228"/>
<path d="M44.8751 41.6189C45.3937 45.1644 45.6328 42.3612 44.8196 46.5492C44.5921 47.6981 44.5949 48.3283 44.639 48.7771C44.6633 49.4024 44.6953 49.8731 44.3895 50.6185C44.0822 51.3144 43.3332 52.4966 41.4878 53.0787C41.2868 53.5398 41.3454 53.379 41.4382 53.7505C41.1754 53.9156 40.0438 54.4467 38.5251 54.3903C36.7287 54.3119 34.2133 54.1748 32.3596 54.086C31.365 54.0381 30.5609 54.0035 30.1607 53.9965C29.9479 53.8964 29.7352 53.7969 29.5225 53.6978C29.1828 53.7139 28.1264 53.7823 27.3286 53.8211L27.2268 53.8166C26.7619 53.7982 26.3853 53.7779 26.29 53.7576C24.1126 53.2993 22.1925 53.0501 19.9523 52.786C19.7123 52.5165 19.7707 52.6198 19.7656 52.3399C19.0966 52.2338 18.9331 52.3537 18.4934 52.5479C17.1512 52.3858 11.1802 51.67 6.15482 51.0122C4.1955 50.7765 2.77753 49.3947 2.25216 48.2011C1.69484 46.9869 1.82651 46.0433 1.90822 45.8262C1.96467 45.8179 2.02113 45.81 2.07759 45.8023C2.3194 46.5287 2.53954 47.3718 3.01635 48.092C3.72116 49.1763 4.90737 49.9603 6.23361 50.121C7.5693 50.2826 8.90218 50.4543 10.2204 50.6009C15.9342 51.2366 21.6309 51.8744 27.336 52.5814C27.7838 52.5971 28.239 52.6136 28.6944 52.6305C29.9176 52.6759 31.1379 52.7197 32.3596 52.7553C33.4137 52.786 34.4688 52.8107 35.5278 52.8248C36.5004 52.8376 37.5448 52.7834 38.5251 52.8216C38.6528 52.8264 38.7784 52.828 38.904 52.8269C40.3606 52.8732 42.2351 52.2063 42.5937 50.6841C42.6594 50.395 42.9863 49.689 43.0177 48.688C43.1233 45.6494 43.4822 40.1609 43.5339 38.7838C43.6126 36.7434 43.5615 34.7036 43.5949 32.6663C43.6195 31.1701 43.7708 29.6596 43.7602 28.1684C43.7502 26.6475 43.5511 25.1452 43.5152 23.6246C43.4245 19.8022 43.34 15.9657 43.2166 12.1454C42.9788 9.0213 41.2744 5.93103 39.048 3.82764C39.032 3.75853 38.5941 2.89962 38.5673 2.89587C38.3271 2.72702 37.9912 2.53856 37.6002 2.39678C37.0681 2.19634 36.5097 2.19601 36.1139 2.46592C35.1204 3.06502 34.0581 3.93833 33.3031 3.99246C33.1225 3.84558 32.9475 3.69365 32.7799 3.5359C32.6469 3.60164 32.5115 3.66247 32.3731 3.71683C32.542 4.13068 32.439 3.92799 32.6776 4.32355C32.3176 4.51033 31.8346 4.67611 31.2665 4.71289C30.1554 4.79448 28.7912 4.79638 27.4396 4.79935C24.353 4.81623 19.3841 5.43155 16.4476 4.56522C16.2155 4.49799 16.2647 4.07292 16.2442 3.84451C16.1103 3.83723 15.9769 3.82985 15.8441 3.82238C15.6099 4.02172 15.2025 4.49961 14.8762 4.47045C13.0992 4.30902 12.0093 5.48093 10.591 4.37261C9.31651 4.31817 8.24461 4.69727 7.27161 4.43768C7.27118 4.43697 7.27075 4.43626 7.27032 4.43555C7.10822 4.07088 7.04895 3.90444 6.87584 3.52174C6.76547 3.50726 6.65522 3.49662 6.54313 3.49001C6.31215 3.68144 6.05127 3.94085 5.81708 4.28108C4.22949 4.95122 3.25641 6.55955 3.3228 8.06729C3.32919 8.47589 3.33132 8.88308 3.32879 9.28812C3.32274 10.0924 3.87714 11.3071 3.86507 11.7122C3.79087 14.3402 4.18719 16.8649 4.17077 19.4397C4.17045 19.6197 3.89154 20.3005 3.87941 20.3795C3.75712 21.1933 3.22157 21.6859 3.50163 22.3842C3.77863 22.4218 4.05576 22.4595 4.33301 22.4971C4.40582 22.6521 4.47877 22.807 4.55185 22.962C4.23361 23.5422 4.26353 23.4356 3.79864 23.9265C4.1415 24.8857 4.42867 24.3134 4.48822 24.772C4.56677 25.359 4.16406 28.3554 4.32741 28.7514C4.63236 29.4853 5.0994 29.6368 5.30746 30.8526C5.20907 30.9275 5.11058 31.0024 5.01202 31.0772C4.21776 31.6878 4.11442 31.6598 3.93568 32.4913C4.01339 32.6193 4.09121 32.7472 4.16915 32.8752C4.52931 32.6647 4.85545 32.4799 5.22161 32.2872C5.8317 33.0677 5.17014 40.034 5.07213 41.6193C4.79738 41.8769 4.5392 42.1408 4.29207 42.428C4.29592 42.6009 4.29977 42.7737 4.30362 42.9466C4.13666 43.9227 3.72018 45.0833 3.03521 45.8048C2.69672 45.747 2.35844 45.6893 2.02037 45.6316C3.4773 42.6844 -0.255891 35.4843 3.00341 34.135C3.07356 34.1885 3.14375 34.242 3.21398 34.2955C3.7157 34.6723 3.95462 34.9614 4.54247 34.9333C4.58058 34.7701 4.61862 34.6068 4.65658 34.4436C3.87094 33.5345 2.72684 33.7883 1.61818 33.825C0.642215 31.7536 2.24415 32.3189 1.9592 30.8046C1.42948 27.9773 0.156662 25.569 0.697073 22.5963C0.982936 21.0103 0.956549 21.3066 0.0872707 20.4803C0.0404184 18.8203 0.505664 18.6179 0.725408 17.1503C0.797832 16.6624 -0.0256598 15.8223 0.000941396 14.6248C0.454668 14.3178 0.25953 14.4002 0.817819 14.3879C0.850306 14.2688 0.882747 14.1496 0.915142 14.0305C0.455175 13.7112 0.701956 13.8282 0.119236 13.8129C0.139794 13.7063 0.160325 13.5997 0.180832 13.4931C0.35375 13.4026 0.526474 13.3121 0.699007 13.2216C0.742046 12.8387 0.497012 10.5206 0.240808 8.0593C0.0438465 6.11471 0.957517 4.03664 2.12042 2.88761C3.27051 1.69834 4.46025 1.29764 4.58743 1.28381C5.87267 1.21721 6.79661 1.36986 7.56286 1.49818C9.8903 1.94279 10.7339 0.687689 14.3324 2.12336C14.613 2.23707 16.4497 1.46471 17.7158 1.63407C18.3057 1.97197 18.2765 2.03209 18.66 2.53829C18.8128 2.56657 18.9648 2.59459 19.1163 2.62237C19.429 2.16507 19.3454 2.32612 19.4738 1.80913C19.5937 1.8021 19.7143 1.795 19.8331 1.78774C19.9866 1.89421 20.1409 2.0003 20.296 2.106C21.2023 1.84491 21.1152 1.74562 21.9547 1.84403C22.5134 2.29301 22.8438 2.6897 23.526 2.84409C23.7632 2.66157 23.9968 2.47912 24.2319 2.29685C25.4132 2.37882 26.3993 2.82886 27.8711 2.68352C28.2384 2.64853 29.906 2.5333 31.1951 2.39785C31.6835 2.32116 32.1537 1.99306 32.0862 1.98375C33.2049 2.2057 33.9826 1.03482 35.1613 0.344934C36.4066 -0.376269 37.9816 0.12477 38.3002 1.00511C38.3288 1.07228 38.3537 1.14231 38.3748 1.21518C39.2602 1.53851 39.8115 1.86173 40.5153 2.4392C40.8795 3.4086 40.6801 3.18091 41.2517 3.94308C41.841 4.2065 42.0271 4.12503 42.5446 4.07374C42.6024 4.16027 42.6596 4.2477 42.7158 4.33521C42.5586 4.3897 42.4014 4.44481 42.2449 4.50131C42.6239 5.87087 44.4693 6.4669 45.1009 9.04905C45.0674 9.10041 45.0336 9.1514 44.9997 9.20201C44.8163 9.02755 44.6285 8.857 44.4393 8.69752C44.2732 9.30452 44.3186 9.5819 44.2315 10.2658C44.6168 10.6062 44.6757 10.6058 45.0846 10.826C45.1424 10.9783 45.198 11.1426 45.2487 11.3025C44.9891 11.5825 44.7739 11.8227 44.5277 12.1439C44.5176 12.1553 44.5075 12.1668 44.4974 12.1784C44.5294 12.3194 44.5613 12.461 44.5932 12.6032C46.6232 13.6617 45.001 16.4551 45.6844 17.5046C45.7707 17.5407 45.8569 17.5768 45.9431 17.613C45.9484 17.832 45.9537 18.0544 45.9589 18.2721C45.8633 18.2997 45.7677 18.3274 45.6722 18.3551C45.4605 18.1215 45.2478 17.883 45.0342 17.6478C44.986 17.7043 44.9379 17.761 44.8898 17.8176C45.1102 20.0594 45.2128 22.2071 45.4301 24.46C45.1679 24.8209 45.279 24.7015 44.9342 24.8695C44.9414 24.9976 44.9486 25.1256 44.9557 25.2537C45.3031 25.5688 45.646 25.888 45.9854 26.2136C46.0524 28.0714 45.308 29.3505 45.5976 31.0585C45.7246 31.8276 45.7196 32.0214 45.5858 32.6656C45.2872 32.6558 45.3008 32.5848 45.0328 32.8171C45.0457 32.9262 45.0585 33.0351 45.0713 33.1439C45.2257 33.2379 45.3799 33.3305 45.5337 33.4258C45.5289 33.5466 45.5241 33.6672 45.5193 33.7876C45.3733 33.8428 45.2274 33.8979 45.0816 33.953C45.2189 36.2237 45.816 35.4531 45.4542 38.726C45.4042 38.804 45.3543 38.8818 45.3044 38.9594C45.1497 38.8139 44.9945 38.6677 44.8389 38.5211C44.7407 39.2267 44.731 39.1742 44.8775 39.8286C45.1385 40.0657 45.2026 40.1166 45.4826 40.2721C45.4974 41.2284 45.4195 41.1774 44.8751 41.6189Z" fill="#610228"/>
</svg>
