<svg width="547" height="400" viewBox="0 0 547 400" fill="none" xmlns="http://www.w3.org/2000/svg">
<path d="M426.5 345.038C426.5 361.585 351.955 375 260 375C168.045 375 93.5 361.585 93.5 345.038C93.5 328.49 168.045 315.076 260 315.076C351.955 315.076 426.5 328.49 426.5 345.038Z" fill="#DFCCD4"/>
<path fill-rule="evenodd" clip-rule="evenodd" d="M223.35 255.735C223.072 256.159 222.741 256.663 222.337 257.277C222.587 256.896 222.809 256.559 223.008 256.256C223.13 256.069 223.244 255.897 223.35 255.735Z" fill="#34140B"/>
<path fill-rule="evenodd" clip-rule="evenodd" d="M335.162 289.255L335.193 289.284C337.072 291.071 338.952 292.858 340.832 294.645C338.942 292.849 337.052 291.052 335.162 289.255ZM259.919 259.793C259.84 259.713 259.757 259.629 259.669 259.539L259.309 259.174C259.538 259.407 259.74 259.611 259.919 259.793Z" fill="#34140B"/>
<path fill-rule="evenodd" clip-rule="evenodd" d="M290.681 66.4787C282.431 67.1427 252.753 78.3609 245.144 87.1044C241.715 91.045 238.027 97.3758 234.659 103.157C230.555 110.204 226.926 116.435 224.819 116.527C222.623 116.624 217.2 113.209 211.823 109.822C211.221 109.442 210.617 109.055 210.012 108.667C207.115 106.807 204.164 104.913 200.983 103.665C195.699 101.586 172.661 92.5192 154.677 101.003C136.419 109.615 129.519 128.031 128.246 139.751C126.973 151.471 133.463 171.904 137.287 178.342C140.256 183.342 151.149 190.165 158.151 194.552L158.165 194.56C166.875 200.017 174.85 206.623 182.778 213.191L182.786 213.197C183.6 213.871 184.414 214.546 185.228 215.218L185.242 215.249C188.346 217.205 198.082 223.607 205.828 228.701C213.788 233.933 221.969 238.592 230.33 243.113L231.036 243.488C230.498 244.312 230.267 244.936 229.719 245.775C227.932 248.51 226.301 251.008 226.201 251.2C226.107 251.356 226.019 251.501 225.936 251.637C225.415 252.499 225.118 252.991 224.813 253.478C224.407 254.126 223.987 254.766 223.008 256.256C222.809 256.559 222.587 256.896 222.337 257.277C212.693 271.811 204.901 287.06 196.999 302.526L194.903 306.626C192.606 311.666 189.927 317.542 188.617 319.938C188.506 320.14 188.404 320.336 188.305 320.523L188.286 320.56C187.511 322.029 186.997 323 185.212 323.228C182.2 321.334 180.339 319.764 178.761 318.432L178.753 318.425C175.836 315.962 173.885 314.314 167.403 312.943C164.498 312.323 156.574 311.643 154.32 312.943C143.655 319.096 143.969 327.736 152.082 335.753C163.056 346.599 178.539 353.463 185.481 354.332C186.703 354.504 188.147 354.958 189.656 355.432C198.042 358.068 203.04 354.332 204.731 351.316C208.133 345.252 211.542 339.187 214.951 333.121C216.805 329.824 218.658 326.526 220.511 323.228C223.077 318.659 226.036 313.386 228.732 308.572C230.933 304.642 232.959 301.019 234.455 298.337C235.519 296.43 237.457 293.279 239.84 289.405L239.869 289.359C244.026 282.601 249.529 273.656 254.109 265.279C254.202 265.108 254.294 265.042 254.356 264.962L254.425 264.874L259.072 258.931C259.2 259.066 259.281 259.15 259.309 259.174L259.669 259.539C260.373 260.253 260.775 260.66 261.17 261.074C261.697 261.625 262.212 262.188 263.413 263.501C263.657 263.767 263.929 264.065 264.235 264.399C275.923 277.294 288.724 288.525 301.708 299.914L305.149 302.935C309.444 306.371 314.452 310.379 316.443 312.228C316.612 312.385 316.776 312.532 316.934 312.674L316.962 312.699C318.19 313.806 319.001 314.538 318.806 316.354C316.295 318.893 314.359 320.367 312.717 321.618L312.71 321.624C309.675 323.936 307.645 325.482 304.831 331.569C303.564 334.296 301.078 341.967 301.801 344.495C305.225 356.458 313.572 358.149 323.13 351.989C336.06 343.659 346.22 329.95 348.66 323.292C349.108 322.125 349.877 320.803 350.681 319.422C355.147 311.746 352.727 305.942 350.229 303.573C345.217 298.816 340.205 294.05 335.193 289.284L335.162 289.255L335.101 289.197C332.394 286.623 329.688 284.05 326.981 281.477C323.199 277.884 318.833 273.739 314.847 269.961C311.593 266.876 308.592 264.035 306.369 261.935C304.789 260.443 302.221 257.799 299.064 254.549L299.059 254.543L299.024 254.507C293.411 248.728 285.948 241.046 278.869 234.501C278.883 234.492 278.239 233.806 277.495 233.015C279.556 229.101 281.775 224.903 284.022 220.651C291.401 206.688 299.08 192.156 302.446 185.323C305.292 181.18 307.171 177.6 308.587 174.901L308.594 174.89C310.415 171.418 312.637 168.275 314.892 165.086C315.04 164.876 315.188 164.667 315.336 164.457L315.439 164.31L315.448 164.3C320.964 156.49 328.95 145.184 330.414 141.252C332.801 134.841 338.563 117.47 338.41 113.874C338.395 113.53 338.39 113.039 338.384 112.427C338.328 106.633 334.059 87.6981 324.359 79.7077C313.634 70.8717 298.931 65.8146 290.681 66.4787ZM251.549 211.322C252.313 209.912 253.079 208.496 253.847 207.076C259.362 196.877 264.99 186.47 270.861 176.554L270.867 176.543C274.065 171.142 276.642 166.385 279.097 161.851C283.551 153.627 287.608 146.135 294.251 136.875C298.039 131.589 300.82 127.661 301.236 126.671C304.188 119.634 304.761 108.824 301.259 102.973C297.756 97.1215 287.659 96.0653 279.448 97.6285C267.329 99.9354 248.501 124.968 242.699 135.946C242.298 136.705 241.907 137.481 241.515 138.261C240.415 140.449 239.3 142.667 237.894 144.618C235.944 147.328 228.636 146.148 224.639 145.502C217.758 144.395 210.966 139.701 204.398 135.162C200.878 132.728 197.421 130.339 194.049 128.571C189.271 126.07 183.304 125.507 176.706 126.715L175.856 126.87C165.681 128.724 160 129.759 161.259 141.443C161.929 147.592 163.79 151.571 167.183 156.789C177.739 173.017 192.769 182.014 208.2 191.252C211.607 193.291 215.033 195.341 218.434 197.484C224.678 201.419 232.982 206.725 241.448 212.159L248.943 216.577C249.895 214.886 250.597 213.358 251.06 212.349C251.274 211.885 251.436 211.53 251.549 211.322Z" fill="#34140B"/>
<path d="M364.891 46.7825C366.866 45.6736 372.027 42.6286 374.239 42.9415C392.511 45.5322 376.101 63.0429 369.743 69.1403C364.163 74.4912 358.088 82.0738 351.099 85.3889L347.34 87.2319C341.184 90.2138 340.47 90.0376 334.294 87.6998C333.822 84.4188 331.071 79.6942 332.341 76.6431C334.187 72.0087 339.127 69.5131 342.107 66.4034C346.517 61.801 349.869 58.0598 355.077 54.322C358.548 51.8303 360.928 48.9227 364.891 46.7825Z" fill="#34140B"/>
<path d="M93.4449 225.051C104.333 224.38 114.824 231.922 104.252 242.723C97.8613 249.252 81.9477 259.353 73.0235 259.677C68.2135 259.632 65.276 259.749 60.5795 258.452C59.1116 256.942 58.3685 256.076 57.0859 254.382C59.1485 251.424 61.9309 248.539 63.996 245.288C65.7609 242.51 70.1504 239.12 72.6674 236.91C79.3765 231.021 84.4141 225.978 93.4449 225.051Z" fill="#34140B"/>
<path d="M274.205 25C277.226 25.0957 278.913 26.46 280.93 28.5196C282.345 35.9069 280.372 41.3101 278.804 48.6354C277.99 52.4416 275.514 55.1338 275.703 59.9072C275.826 63.0031 269.139 67.9373 266.571 70.1109C262.17 70.4966 261.499 71.4635 256.68 70.7045C256.321 70.5046 256.026 70.566 255.617 70.5612C254.032 70.5429 251.506 69.5775 250.211 68.6162C249.681 68.2218 248.91 67.4118 248.858 66.705C248.679 64.29 258.7 40.5256 260.457 36.9419C261.876 34.0487 263.613 30.7528 265.69 28.3186C267.894 25.7355 271.051 25.1998 274.205 25Z" fill="#34140B"/>
<path d="M171.348 48.257C174.565 47.7694 177.841 47.9263 181.002 48.7189C186.88 50.2455 189.577 53.2375 192.551 58.5532C195.674 63.7515 200.468 72.16 196.572 78.1802C196.338 78.5409 187.838 84.5709 186.992 85.0987C172.953 88.7679 166.709 64.7796 160.723 55.3871C165.699 53.0111 164.957 49.1882 171.348 48.257Z" fill="#34140B"/>
<path d="M88.1883 82.3061C91.2499 82.4362 92.3966 83.1915 95.6692 84.1375C103.325 86.35 121.294 95.401 123.577 103.327C124.683 107.168 113.416 114.577 108.528 114.782C106.184 115.173 102.199 113.828 100.25 112.392C94.7379 108.33 89.373 104.018 83.927 99.858C80.9793 97.6066 77.7454 95.7114 74.8507 93.3818C74.4091 93.0256 73.106 90.1043 72.7773 89.3819C75.958 87.8659 76.8219 86.3471 79.0824 83.5286C82.5242 82.8541 84.7013 82.3641 88.1883 82.3061Z" fill="#34140B"/>
<path d="M61.9935 159.425C67.3513 159.385 72.4497 160.742 77.7139 161.742C81.8677 162.531 94.5128 163.264 95.159 169.076C94.0408 174.612 87.7052 177.091 83.6382 180.649C81.0146 179.997 75.4809 180.174 72.4991 180.096C69.0841 180.156 64.4233 180.72 61.0674 180.259C54.6554 179.378 49.148 178.091 42.6102 177.454C40.5666 174.715 40.1693 174.198 37.5 172.052C43.7149 165.621 44.6494 162.905 53.5359 161.199C56.3095 160.667 58.7396 159.8 61.9935 159.425Z" fill="#34140B"/>
</svg>
