<svg width="24" height="24" viewBox="0 0 24 24" fill="none" xmlns="http://www.w3.org/2000/svg">
<path d="M16.2388 10.0438C16.9985 9.90245 16.7644 9.57615 16.8669 10.3618C16.9507 11.0103 17.5797 9.94826 17.213 11.3181C17.4313 11.1261 17.3549 11.1947 17.5886 10.9313C17.7361 10.9277 18.3468 11.9699 18.5108 12.1246C18.469 12.2203 18.4273 12.316 18.3855 12.4117C18.4625 12.4369 18.8283 12.5084 18.8362 12.556C18.906 12.9523 19.0649 13.1832 19.2693 13.4295C19.1223 13.6611 19.1844 13.5728 18.9891 13.8111C19.0292 13.9101 19.1413 13.81 19.3551 13.6474C19.5606 13.9113 21.0013 15.7434 20.745 16.2972C20.6974 16.3556 20.6498 16.414 20.6022 16.4724C20.3046 16.6513 20.189 16.5654 20.0769 16.4812C19.7574 16.2429 19.5962 15.8016 19.3526 15.475C18.8207 14.7612 18.2758 14.0671 17.7679 13.3248C17.5811 13.0524 17.3884 12.7892 17.1617 12.5625C17.0529 12.4542 16.8815 12.4006 16.8098 12.2508C16.7134 12.0494 16.8127 11.619 16.4169 11.8022C16.0822 11.9576 15.318 10.9268 15.1327 10.7516C14.9261 10.5546 14.6536 10.4363 14.4315 10.2582C14.2685 10.1273 14.1718 9.91421 13.9937 9.80256C13.8124 9.68825 13.5387 9.68791 13.3499 9.58257C12.6278 9.18163 11.9417 8.73552 11.2296 8.32111L11.7877 8.3057C11.6748 8.45645 11.5634 8.60875 11.4543 8.76342C11.4341 8.75689 11.1639 8.66478 11.1631 8.66682C11.039 8.84273 10.9763 9.53548 10.6157 9.40084C10.5082 9.30462 10.4007 9.2084 10.2932 9.11218C10.2805 9.12903 10.2678 9.14588 10.2551 9.16273C10.4636 9.38017 10.3566 9.27141 10.5745 9.48672C10.5285 9.68441 10.3077 9.84257 10.1098 10.0207C9.79059 10.3091 9.61551 11.1225 9.013 11.0866C8.96583 11.084 8.7853 10.8874 8.68468 10.7873C8.67128 10.8004 8.65788 10.8134 8.64448 10.8264C8.71312 10.9445 8.88874 11.2076 8.85155 11.2345C8.65031 11.3837 9.07277 12.0336 8.5039 11.7337C8.39453 11.8769 8.486 12.1816 8.31536 12.2025C8.14366 12.074 8.06788 12.0096 7.89007 11.8614C7.87128 11.8665 7.85249 11.8717 7.83371 11.8768C7.87701 11.9784 7.93178 12.1055 7.99741 12.2586C7.84007 12.6176 7.63089 12.9448 7.35498 13.183C7.26981 13.2564 7.36147 13.6011 7.31424 13.6335C7.01199 13.8482 6.9014 14.2451 6.62536 14.4767C6.60634 14.4932 6.4298 14.4446 6.41706 14.4472C6.28597 14.4738 6.03399 14.3068 6.06689 14.484C6.1668 14.5976 6.26671 14.7113 6.36662 14.825C6.37767 14.8683 6.38872 14.9116 6.39977 14.9549C6.22002 14.8823 6.24227 14.8842 6.01794 14.7462C6.04578 14.9711 6.21197 15.0309 6.18611 15.0969C6.15321 15.1815 5.69146 15.302 5.71015 15.4025C5.74481 15.5887 5.89912 15.7833 5.84586 15.9745C5.80226 15.9435 5.75865 15.9124 5.71505 15.8814C5.36318 15.6324 5.32911 15.5906 5.17811 15.5998C5.19281 15.6414 5.20751 15.6831 5.22221 15.7248C5.37375 15.8427 5.51064 15.9503 5.66305 16.0727C5.79958 16.3766 4.82461 16.7611 4.62576 16.8731C4.50297 16.7953 4.38555 16.7244 4.26981 16.6601C4.25312 16.6776 4.23644 16.6952 4.21976 16.7127C4.06008 16.7421 3.79572 16.698 3.48688 16.5173C3.37672 16.3887 3.26656 16.26 3.1564 16.1314C3.96666 16.3907 3.37518 14.2965 4.67345 15.3991C4.69307 15.4309 4.7127 15.4626 4.73233 15.4943C4.87308 15.7204 4.92816 15.8377 5.14097 16.0578C5.17166 16.0571 5.20236 16.0564 5.23306 16.0558C5.04718 15.6734 4.60949 15.2606 4.20867 14.8428C4.06596 14.2695 4.58589 14.9363 4.63668 14.6817C4.73249 14.2074 4.49926 13.4693 4.99487 13.3897C5.25953 13.3474 5.22136 13.3673 4.97476 12.9373C5.12018 12.7534 5.31653 12.9205 5.54634 12.8654C5.62281 12.8471 5.38968 12.4286 5.51688 12.3196C5.72249 12.4753 5.63899 12.4035 5.85622 12.6315C5.88062 12.6331 5.90503 12.6347 5.92943 12.6364C5.78285 12.4157 5.86684 12.5287 5.64237 12.2874C5.66082 12.2853 5.67926 12.2831 5.69771 12.281C5.77376 12.3432 5.84982 12.4055 5.92588 12.4678C6.04699 12.4235 6.56168 10.8623 6.65261 10.8854C7.7645 11.1725 6.71744 10.0616 7.80042 10.2603C7.86952 10.2745 7.66607 9.69259 7.83641 9.61013C8.02856 9.68981 8.05296 9.72056 8.30434 9.90427C8.32876 9.89878 8.35318 9.89329 8.37759 9.8878C8.20245 9.64169 8.26625 9.7252 8.04989 9.47357C8.05637 9.45587 8.06284 9.43818 8.06931 9.42048C8.12848 9.45072 8.18765 9.48097 8.24682 9.51121C8.20687 9.28425 8.15539 9.24809 8.27019 9.19645C8.51677 9.34041 8.72183 9.48859 8.85232 9.48664C8.79255 9.37547 8.73278 9.26429 8.67301 9.15312C8.8181 9.06356 9.1145 9.17544 9.19981 8.96354C9.23661 8.87249 9.57139 8.30615 9.50644 8.27461C10.2425 8.63208 9.45266 7.35701 10.4357 8.10379C10.4437 7.95119 10.4466 7.84507 10.4877 7.72443C10.7676 7.84778 10.7411 7.87278 10.8457 7.80259C10.7483 7.59075 10.6511 7.48068 10.4524 7.22322C10.4621 7.21454 10.4717 7.20587 10.4814 7.19719C10.5565 7.28452 10.6316 7.37186 10.7067 7.4592C10.8307 7.49373 10.8415 7.40799 10.8214 7.27899L11.2503 6.71621L12.1378 7.24264C12.3506 7.18358 12.6762 7.02207 12.7899 7.19576C12.772 7.22459 12.7541 7.25342 12.7362 7.28225C12.6537 7.33855 12.5713 7.39485 12.4889 7.45114C12.3815 7.68287 12.3928 7.72564 12.3492 7.90762C12.5367 7.76637 12.5666 7.73268 12.7687 7.54493C12.8007 7.53691 12.8327 7.5289 12.8647 7.52089C12.7481 7.70652 12.6565 7.85825 12.5657 8.03115C12.5965 8.02551 12.6272 8.01987 12.6579 8.01423C13.7458 6.95122 13.2829 8.10569 13.7348 7.79585C13.7812 7.74843 13.8277 7.70101 13.8741 7.65359C13.9021 7.66778 13.9301 7.68198 13.9581 7.69617C13.9142 7.75434 13.8704 7.81252 13.8266 7.87069C13.6952 7.97606 13.5637 8.08143 13.4323 8.1868C13.415 8.21957 13.3978 8.25233 13.3806 8.2851C13.7422 8.34037 14.0421 8.4498 14.4187 8.48949C14.3278 8.67626 14.3703 8.59963 14.2142 8.8223C14.2329 8.82783 14.2516 8.83335 14.2703 8.83888C14.4849 8.65136 14.6987 8.46561 14.9124 8.28122C15.1733 8.37305 14.9399 8.92966 15.3011 8.86941C15.4626 8.84305 15.485 8.85929 15.4932 8.9889C15.3328 9.17855 15.3314 9.16472 15.2169 9.35212C15.2371 9.35168 15.2573 9.35123 15.2776 9.35079C15.3717 9.25872 15.4658 9.16666 15.56 9.0746C15.5724 9.08588 15.5848 9.09716 15.5972 9.10844C15.5256 9.20594 15.4541 9.30344 15.3826 9.40094C15.7376 9.46974 15.9666 9.02972 16.187 9.47611C16.1694 9.51414 16.1519 9.55217 16.1343 9.5902C16.0299 9.68344 15.9255 9.77668 15.8211 9.86992C15.8562 9.98128 15.8442 9.98517 16.0088 9.92945C16.1845 9.77055 16.227 9.73087 16.4034 9.55345C16.5361 9.60123 16.4875 9.64988 16.2388 10.0438Z" fill="#34140B"/>
</svg>
