<svg width="24" height="24" viewBox="0 0 24 24" fill="none" xmlns="http://www.w3.org/2000/svg">
<path d="M7.76121 13.9562C7.00147 14.0976 7.23561 14.4239 7.13311 13.6382C7.04932 12.9897 6.42029 14.0517 6.78701 12.6819C6.56865 12.8739 6.64514 12.8053 6.41141 13.0687C6.26392 13.0723 5.65316 12.0301 5.48923 11.8754C5.53098 11.7797 5.57272 11.684 5.61447 11.5883C5.5375 11.5631 5.17175 11.4916 5.16381 11.444C5.09402 11.0477 4.93512 10.8168 4.7307 10.5705C4.87772 10.3389 4.81564 10.4272 5.0109 10.1889C4.9708 10.0899 4.85875 10.19 4.64494 10.3526C4.43941 10.0887 2.99868 8.25659 3.255 7.70276C3.30259 7.64438 3.35019 7.58601 3.39778 7.52763C3.69538 7.34868 3.81103 7.43465 3.92314 7.51883C4.24257 7.75714 4.40377 8.19837 4.6474 8.52499C5.17928 9.23883 5.72419 9.93292 6.23213 10.6752C6.41893 10.9476 6.61159 11.2108 6.83829 11.4375C6.9471 11.5458 7.11854 11.5994 7.19017 11.7492C7.2866 11.9506 7.18729 12.381 7.58307 12.1978C7.91783 12.0424 8.68198 13.0732 8.86725 13.2484C9.07385 13.4454 9.34635 13.5637 9.56849 13.7418C9.73151 13.8727 9.82819 14.0858 10.0063 14.1974C10.1876 14.3118 10.4613 14.3121 10.6501 14.4174C11.3722 14.8184 12.0583 15.2645 12.7704 15.6789L12.2123 15.6943C12.3252 15.5435 12.4366 15.3912 12.5457 15.2366C12.5659 15.2431 12.8361 15.3352 12.8369 15.3332C12.961 15.1573 13.0237 14.4645 13.3843 14.5992C13.4918 14.6954 13.5993 14.7916 13.7068 14.8878C13.7195 14.871 13.7322 14.8541 13.7449 14.8373C13.5364 14.6198 13.6434 14.7286 13.4255 14.5133C13.4715 14.3156 13.6923 14.1574 13.8902 13.9793C14.2094 13.6909 14.3845 12.8775 14.987 12.9134C15.0342 12.916 15.2147 13.1126 15.3153 13.2127C15.3287 13.1996 15.3421 13.1866 15.3555 13.1736C15.2869 13.0555 15.1113 12.7924 15.1485 12.7655C15.3497 12.6163 14.9272 11.9664 15.4961 12.2663C15.6055 12.1231 15.514 11.8184 15.6846 11.7975C15.8563 11.926 15.9321 11.9904 16.1099 12.1386C16.1287 12.1335 16.1475 12.1283 16.1663 12.1232C16.123 12.0216 16.0682 11.8945 16.0026 11.7414C16.1599 11.3824 16.3691 11.0552 16.645 10.817C16.7302 10.7436 16.6385 10.3989 16.6858 10.3665C16.988 10.1518 17.0986 9.75487 17.3746 9.52327C17.3937 9.50679 17.5702 9.55542 17.5829 9.55284C17.714 9.52616 17.966 9.69319 17.9331 9.51604C17.8332 9.40236 17.7333 9.28868 17.6334 9.175C17.6223 9.1317 17.6113 9.08841 17.6002 9.04512C17.78 9.11768 17.7577 9.11576 17.9821 9.2538C17.9542 9.02887 17.788 8.96911 17.8139 8.90314C17.8468 8.81846 18.3085 8.69805 18.2898 8.59754C18.2552 8.41126 18.1009 8.21667 18.1541 8.02553C18.1977 8.05654 18.2413 8.08756 18.285 8.11857C18.6368 8.36756 18.6709 8.40939 18.8219 8.40023C18.8072 8.35857 18.7925 8.31691 18.7778 8.27525C18.6262 8.15734 18.4894 8.04973 18.3369 7.92727C18.2004 7.62341 19.1754 7.23888 19.3742 7.12693C19.497 7.20475 19.6144 7.27557 19.7302 7.33986C19.7469 7.32235 19.7636 7.30484 19.7802 7.28734C19.9399 7.25792 20.2043 7.30198 20.5131 7.48269C20.6233 7.61133 20.7334 7.73997 20.8436 7.8686C20.0333 7.60926 20.6248 9.70351 19.3266 8.60087C19.3069 8.56915 19.2873 8.53742 19.2677 8.5057C19.1269 8.27962 19.0718 8.16227 18.859 7.94221C18.8283 7.94289 18.7976 7.94356 18.7669 7.94424C18.9528 8.32664 19.3905 8.73936 19.7913 9.15717C19.934 9.73054 19.4141 9.06373 19.3633 9.3183C19.2675 9.79257 19.5007 10.5307 19.0051 10.6103C18.7405 10.6526 18.7786 10.6327 19.0252 11.0627C18.8798 11.2466 18.6835 11.0795 18.4537 11.1346C18.3772 11.1529 18.6103 11.5714 18.4831 11.6804C18.2775 11.5247 18.361 11.5965 18.1438 11.3685C18.1194 11.3669 18.095 11.3653 18.0706 11.3636C18.2172 11.5843 18.1332 11.4713 18.3576 11.7126C18.3392 11.7147 18.3207 11.7169 18.3023 11.719C18.2262 11.6568 18.1502 11.5945 18.0741 11.5322C17.953 11.5765 17.4383 13.1377 17.3474 13.1146C16.2355 12.8275 17.2826 13.9384 16.1996 13.7397C16.1305 13.7255 16.3339 14.3074 16.1636 14.3899C15.9714 14.3102 15.947 14.2794 15.6957 14.0957C15.6712 14.1012 15.6468 14.1067 15.6224 14.1122C15.7976 14.3583 15.7337 14.2748 15.9501 14.5264C15.9436 14.5441 15.9372 14.5618 15.9307 14.5795C15.8715 14.5493 15.8123 14.519 15.7532 14.4888C15.7931 14.7157 15.8446 14.7519 15.7298 14.8036C15.4832 14.6596 15.2782 14.5114 15.1477 14.5134C15.2075 14.6245 15.2672 14.7357 15.327 14.8469C15.1819 14.9364 14.8855 14.8246 14.8002 15.0365C14.7634 15.1275 14.4286 15.6938 14.4936 15.7254C13.7575 15.3679 14.5473 16.643 13.5643 15.8962C13.5563 16.0488 13.5534 16.1549 13.5123 16.2756C13.2324 16.1522 13.2589 16.1272 13.1543 16.1974C13.2517 16.4093 13.3489 16.5193 13.5476 16.7768C13.5379 16.7855 13.5283 16.7941 13.5186 16.8028C13.4435 16.7155 13.3684 16.6281 13.2933 16.5408C13.1693 16.5063 13.1585 16.592 13.1786 16.721L12.7497 17.2838L11.8622 16.7574C11.6494 16.8164 11.3238 16.9779 11.2101 16.8042C11.228 16.7754 11.2459 16.7466 11.2638 16.7178C11.3463 16.6615 11.4287 16.6052 11.5111 16.5489C11.6185 16.3171 11.6072 16.2744 11.6508 16.0924C11.4633 16.2336 11.4334 16.2673 11.2313 16.4551C11.1993 16.4631 11.1673 16.4711 11.1353 16.4791C11.2519 16.2935 11.3435 16.1418 11.4343 15.9689C11.4035 15.9745 11.3728 15.9801 11.3421 15.9858C10.2542 17.0488 10.7171 15.8943 10.2652 16.2041C10.2188 16.2516 10.1723 16.299 10.1259 16.3464C10.0979 16.3322 10.0699 16.318 10.0419 16.3038C10.0858 16.2457 10.1296 16.1875 10.1734 16.1293C10.3048 16.0239 10.4363 15.9186 10.5677 15.8132C10.585 15.7804 10.6022 15.7477 10.6194 15.7149C10.2578 15.6596 9.9579 15.5502 9.5813 15.5105C9.67218 15.3237 9.62966 15.4004 9.78577 15.1777C9.76708 15.1722 9.74839 15.1666 9.7297 15.1611C9.51512 15.3486 9.30133 15.5344 9.08758 15.7188C8.82671 15.6269 9.06009 15.0703 8.69894 15.1306C8.53742 15.1569 8.51498 15.1407 8.50682 15.0111C8.66725 14.8215 8.66862 14.8353 8.78312 14.6479C8.76289 14.6483 8.74266 14.6488 8.72242 14.6492C8.6283 14.7413 8.53417 14.8333 8.44004 14.9254C8.42764 14.9141 8.41523 14.9028 8.40283 14.8916C8.47435 14.7941 8.54587 14.6966 8.61739 14.5991C8.26241 14.5303 8.03335 14.9703 7.81298 14.5239C7.83057 14.4859 7.84815 14.4478 7.86573 14.4098C7.97012 14.3166 8.07452 14.2233 8.17891 14.1301C8.14383 14.0187 8.15577 14.0148 7.99118 14.0706C7.8155 14.2294 7.77305 14.2691 7.59658 14.4465C7.46393 14.3988 7.51247 14.3501 7.76121 13.9562Z" fill="#34140B"/>
</svg>
