<svg width="21" height="26" viewBox="0 0 21 26" fill="none" xmlns="http://www.w3.org/2000/svg" xmlns:xlink="http://www.w3.org/1999/xlink">
<path d="M11.5849 9.27226C12.0497 9.5452 12.0646 9.49369 12.1109 9.51728C12.1434 9.55556 12.1648 9.70867 12.0725 10.062C11.981 10.3342 12.0806 10.3729 12.1328 10.4613C12.1796 10.5394 12.1729 10.6599 11.7457 10.8471C11.8968 10.9326 11.8427 10.904 12.0377 10.9699C12.0385 10.9836 12.0361 11.0027 12.0252 11.0389C11.9995 11.0941 12.0453 11.0623 11.8793 11.331C11.5638 11.7514 11.1142 11.8063 10.8755 11.8029C10.6167 11.7992 10.4235 11.7445 10.322 11.7315C10.2968 11.6702 10.2735 11.6085 10.2472 11.5446C10.2274 11.5441 10.2016 11.5485 10.1287 11.5358C9.72046 11.4103 9.63479 11.2861 9.63104 11.2867C9.63342 11.2585 9.64098 11.2398 9.65555 11.2307C9.43313 10.9296 9.48325 10.6405 9.52426 10.5021C9.57203 10.3487 9.62523 10.2559 9.70094 10.1413C9.72492 10.0986 9.75336 10.0625 9.77976 10.035C10.0202 10.0285 9.92437 10.0407 10.0388 10.1752C10.175 10.1374 10.1382 10.0745 10.1717 9.90849C10.3155 9.89882 10.6089 9.95782 10.9076 10.083C11.0731 10.1126 11.1358 10.244 11.1491 10.2921C11.1664 10.35 11.1654 10.3884 11.1643 10.4186C11.1761 10.5219 11.1522 10.5663 11.1256 10.6296C11.1089 10.6824 11.0375 10.7554 10.995 10.7626C10.8193 10.8053 10.6982 10.7326 10.634 10.6654L10.6478 10.6707C10.6598 10.6562 10.6835 10.6537 10.7007 10.6636C10.7227 10.7221 10.7312 10.7567 10.7561 10.7964C10.7739 10.8366 10.7915 10.8768 10.8088 10.9172C10.828 10.9545 10.8521 10.9842 10.9104 10.974C10.9641 10.9736 11.0867 10.8569 11.1159 10.747C11.1541 10.6277 11.1772 10.4188 10.915 10.2311L10.729 10.1598C10.7087 10.1526 10.7101 10.1524 10.708 10.151C10.7078 10.1475 10.7027 10.1557 10.6508 10.2174C10.6105 10.2341 10.4778 10.4282 10.492 10.4881C10.5009 10.5389 10.5078 10.5155 10.5448 10.6091C10.5472 10.5768 10.5519 10.5635 10.5717 10.5822C10.5848 10.5883 10.6621 10.7136 10.8363 10.7266C10.8337 10.7255 10.831 10.7244 10.8284 10.7232C10.7224 10.6799 10.607 10.6418 10.4956 10.6099C10.4399 10.5941 10.3843 10.5799 10.3339 10.5688C10.3091 10.5632 10.285 10.5587 10.2687 10.5544C10.2558 10.5392 10.233 10.5834 10.3119 10.4745C10.2398 10.5377 10.1782 10.6356 10.1876 10.6906C10.2364 10.7699 10.2552 10.8442 10.3052 10.8989C10.3105 10.9045 10.3163 10.9096 10.3226 10.9142C10.4669 10.9948 10.6441 11.028 10.819 11.0054C10.9103 10.9906 10.9846 10.9245 11.0878 10.8904C11.118 10.8797 11.1546 10.8698 11.1933 10.851C11.346 10.7213 11.4421 10.6613 11.2774 10.5443C11.1691 10.4772 11.2164 10.2371 11.1346 9.9928C11.1117 9.9172 11.0665 9.82129 10.998 9.76329C10.9485 9.71412 10.9046 9.67277 10.8774 9.65398C10.7428 9.55128 10.5194 9.53831 10.3559 9.58182C10.348 9.58347 10.34 9.58501 10.332 9.58648C10.2255 9.60587 10.097 9.59058 9.9927 9.66683C9.93382 9.71029 9.89063 9.78637 9.87541 9.86326C9.86973 9.91974 9.85498 9.97935 9.83164 10.0272C9.78088 10.1281 9.75135 10.2308 9.74599 10.3333C9.72276 10.5694 9.78499 10.7448 9.90354 10.9349C10.0021 11.108 10.0787 11.322 10.1491 11.3388C10.1523 11.3416 10.1555 11.3445 10.1587 11.3473C10.1521 11.3573 10.0696 11.4951 10.0713 11.496C10.1209 11.5529 10.3791 11.5516 10.2757 11.4991C10.3159 11.5039 10.3446 11.5268 10.3616 11.5833C10.3603 11.6674 10.3598 11.7515 10.3605 11.8356C10.3717 11.8343 10.3831 11.8329 10.3941 11.8314C10.402 11.6559 10.3986 11.7448 10.4033 11.5662C10.4819 11.5053 10.593 11.5244 10.71 11.507C10.7873 11.4959 10.8713 11.4278 10.951 11.36C11.0999 11.2507 11.2444 11.1637 11.3695 11.2637C11.3867 11.2767 11.4676 11.4097 11.5129 11.479C11.5204 11.4741 11.5277 11.4691 11.5345 11.4641C11.5048 11.3902 11.3936 11.2437 11.385 11.2573C11.3812 11.2664 11.3584 11.2743 11.3294 11.2914C11.2242 11.3342 11.0074 11.1839 11.2979 11.1309C11.2888 11.0333 11.1317 10.9345 11.2001 10.8608C11.3249 10.8539 11.3829 10.8548 11.5179 10.8559C11.5244 10.847 11.5308 10.8385 11.5373 10.8297C11.4801 10.801 11.4083 10.7652 11.3226 10.7196C11.3188 10.7058 11.3152 10.6921 11.3119 10.678C11.2608 10.4958 11.2619 10.1868 11.2639 10.2535C11.2662 10.2662 11.2586 10.2887 11.2586 10.3358C11.2037 10.3256 11.1013 10.3617 11.106 10.3622C11.1194 10.3485 11.1121 10.4262 11.2538 10.5214C11.3021 10.5733 11.3954 10.5994 11.3608 10.5942C11.3601 10.5935 11.3275 10.5062 11.3224 10.5031C11.3017 10.4821 11.2701 10.417 11.2436 10.3876C11.2202 10.3688 11.2012 10.366 11.1899 10.4058C11.2082 10.4922 11.2266 10.5786 11.2451 10.6649C11.2399 10.6897 11.235 10.7143 11.23 10.7391C11.1659 10.6492 11.1758 10.6567 11.106 10.5213C11.0679 10.6412 11.1294 10.7203 11.1038 10.7451C11.0694 10.7768 10.85 10.7001 10.848 10.7548C10.8415 10.8546 10.8705 10.9973 10.8718 11.0612C10.8595 11.0332 10.8471 11.0052 10.8345 10.9773C10.7357 10.751 10.7069 10.7313 10.7025 10.6688C10.7202 10.6855 10.7408 10.7005 10.7683 10.7098C10.8109 10.8155 10.8486 10.9101 10.8898 11.0166C10.9119 11.033 10.9341 11.044 11.0043 11.0064C11.041 10.9843 11.0899 10.9557 11.177 10.8573C11.2524 10.7651 11.4277 10.5486 11.4297 10.146C11.4096 10.3584 11.3885 10.5416 11.2053 10.1842C11.0983 10.1653 10.9823 10.1383 10.8473 10.1271C10.83 10.1135 10.8113 10.1003 10.7915 10.0878C10.7089 10.038 10.6771 10.0302 10.6519 10.0201C10.4969 10.0339 10.6138 10.187 10.6117 10.3816C10.6114 10.4803 10.6073 10.579 10.6017 10.6776C10.569 10.5666 10.4478 10.5337 10.4843 10.5862C10.4955 10.699 10.2829 10.5147 10.2666 10.4103C10.2354 10.2928 10.3134 10.1989 10.6737 10.1551C10.6747 10.1558 10.6757 10.1565 10.6767 10.1572C10.6773 10.1565 10.6778 10.1558 10.6784 10.155C10.6992 10.1589 10.72 10.1627 10.7408 10.1666C10.8935 10.1949 10.9655 10.2159 11.144 10.2124C11.1559 10.2001 11.1678 10.1873 11.1797 10.174C11.1485 10.1646 11.1154 10.1566 11.0806 10.1502C10.9458 10.4534 10.7728 10.3732 10.6527 10.3253C10.5256 10.264 10.3969 10.1872 10.2598 10.1343C10.2046 9.76201 10.4463 10.2223 10.4862 10.1031C10.6094 9.87978 10.7045 9.43645 10.9616 9.54173C11.0036 9.55876 11.0298 9.57087 11.0471 9.57113C11.0922 9.57086 11.0763 9.50988 11.0957 9.30615C11.2657 9.25919 11.3126 9.40095 11.4776 9.48516C11.5128 9.50621 11.6205 9.38907 11.7474 9.36077C11.813 9.35567 11.884 9.37096 11.9384 9.41253C11.8959 9.56635 11.9188 9.50443 11.8059 9.64903C11.8119 9.66738 11.8166 9.68549 11.8202 9.70328C11.956 9.62287 11.8891 9.6721 12.0274 9.5383C12.0354 9.55578 12.0425 9.57305 12.0487 9.59002C12.0153 9.63824 11.9797 9.68447 11.9423 9.72884C11.9586 9.76253 12.0887 9.86833 12.2022 10.0165C12.3375 10.38 12.3238 10.4714 12.3719 10.6087C12.4074 10.7304 12.4383 10.8153 12.4395 10.8483C12.4398 10.8561 12.4384 10.8608 12.4349 10.862C12.1392 10.9612 12.2044 11.0519 12.2824 11.1338C12.3213 11.1758 12.3637 11.2174 12.3656 11.2696C12.3666 11.296 12.3575 11.3245 12.332 11.3622C12.3009 11.4122 12.2828 11.4049 12.1696 11.5908C12.1532 11.6124 12.1351 11.633 12.116 11.6516C12.0806 11.7403 11.9319 12.2716 11.7827 12.2843C11.6734 12.2124 11.6688 12.1888 11.5651 12.0387C11.5494 12.0371 11.5344 12.0351 11.5193 12.0331C11.5599 12.2048 11.5437 12.1456 11.6049 12.3293C11.5965 12.3379 11.5887 12.3462 11.5805 12.3545C11.5546 12.3253 11.5291 12.2959 11.5042 12.2662C11.4747 12.397 11.4933 12.4284 11.4241 12.4279C11.3557 12.331 11.2995 12.2377 11.2487 12.1813C11.2258 12.16 11.2042 12.1442 11.1831 12.1361C11.1859 12.2103 11.1876 12.2846 11.1867 12.3594C11.0653 12.3757 10.9369 12.2377 10.8076 12.3149C10.7585 12.3603 10.2992 12.4739 10.3117 12.5043C10.2618 12.3775 10.2123 12.3477 10.1606 12.3558C9.73658 12.3188 9.39008 12.2916 9.7051 11.8881C9.60808 11.867 9.54268 11.8508 9.47462 11.8137C9.47946 11.8058 9.48413 11.7985 9.48862 11.7915C9.5488 11.6253 9.56621 11.6539 9.53381 11.5583C9.39181 11.553 9.31052 11.5773 9.12281 11.6135C9.11906 11.6022 9.11561 11.5915 9.11233 11.581C9.17747 11.5641 9.24252 11.5469 9.30743 11.5293C9.4315 11.3546 8.90336 11.3907 8.92957 11.3051C8.94513 11.2982 8.96067 11.2912 8.97619 11.2841C8.97845 11.2828 8.98071 11.2815 8.98297 11.2801C8.98439 11.2801 8.98581 11.28 8.98724 11.28C9.04098 11.2673 9.09523 11.2563 9.1499 11.2468C9.20714 11.2159 9.24032 11.1944 9.26671 11.1747C9.29651 11.1426 9.3164 11.1138 9.35779 11.0685C9.22064 11.0802 9.19536 11.0871 9.03577 11.1127C9.01643 11.1034 8.99723 11.0941 8.97784 11.0837C9.09248 11.0246 9.18516 10.977 9.28564 10.9208C9.26861 10.9109 9.25153 10.9001 9.23462 10.889C8.79186 10.9359 8.71321 10.7837 8.73467 10.6333C8.75477 10.4785 8.86822 10.3645 8.72822 10.272C8.69103 10.2606 8.65389 10.2489 8.61681 10.2371C8.61817 10.2065 8.61996 10.1769 8.622 10.1485C8.6642 10.1542 8.70637 10.16 8.7485 10.1661C8.83631 10.2149 8.92503 10.2619 9.01499 10.3056C9.0369 10.3032 9.05881 10.301 9.0807 10.299C9.06812 10.2468 9.05897 10.197 9.0514 10.1495C9.02414 9.91003 9.15567 9.59016 9.18338 9.41442C9.29108 9.46852 9.24616 9.44413 9.37524 9.53597C9.37648 9.52726 9.37694 9.51945 9.37646 9.51272C9.31022 9.45166 9.24121 9.39436 9.16761 9.34373C9.13336 9.26532 9.10506 9.18297 9.08183 9.09861C9.48287 8.62889 9.80755 8.93595 9.96497 8.70361C10.0311 8.62011 10.0595 8.60401 10.1214 8.6242C10.1368 8.62641 10.1535 8.62968 10.172 8.63401C10.1979 8.77669 10.1865 8.77278 10.2481 8.8905C10.2648 8.87973 10.2815 8.86929 10.2997 8.85903C10.3056 8.78113 10.3137 8.70321 10.3257 8.62524C10.3508 8.62319 10.376 8.6217 10.4021 8.6208C10.4181 8.69051 10.4322 8.76044 10.4451 8.83054C10.6613 8.77765 10.7654 8.70907 10.889 8.66851C11.0039 8.62796 11.2002 8.65051 11.3732 8.82549C11.3703 8.85134 11.3667 8.87686 11.3626 8.90215C11.3045 8.96106 11.2467 9.0205 11.1902 9.08091C11.2439 9.15634 11.2329 9.15754 11.3342 9.12073C11.4287 9.01936 11.4515 8.99415 11.5446 8.8816C11.5713 8.88906 11.5843 8.89539 11.5874 8.90922C11.6668 8.99122 11.6476 9.07689 11.5849 9.27226Z" fill="black"/>
<g id="Repeat group 1_inner" data-figma-trr="r5u1-0f">
<path d="M7.1073 5.10658C7.42766 5.48275 7.44178 5.14387 7.24115 5.64413C7.10885 6.08766 7.64132 5.74642 7.18682 6.42687C7.33485 6.41392 7.28275 6.41915 7.45085 6.36643C7.50281 6.43715 7.74813 7.3809 7.88195 7.53288C7.85579 7.58242 7.83028 7.6325 7.80547 7.68312C7.85579 7.73006 8.10208 7.8872 8.11177 7.91793C8.18894 8.19723 8.34094 8.39018 8.54318 8.57104C8.49006 8.70011 8.51498 8.65176 8.42919 8.77977C8.48594 8.84975 8.54654 8.79989 8.65969 8.71666C8.7937 8.87098 9.72386 9.41736 10.4976 9.37133C10.534 9.36894 10.5722 9.36693 10.6102 9.3692C10.6478 9.3646 10.6913 9.40096 10.6538 9.42562C10.6463 9.43922 10.6221 9.45187 10.6405 9.49132C10.6654 9.52082 10.6873 9.51906 10.7033 9.52506C10.7385 9.53326 10.7683 9.53685 10.7971 9.54084C10.9093 9.55558 10.9873 9.57229 11.0252 9.60588C11.038 9.6413 11.0509 9.67671 11.0638 9.71211C11.0312 9.80886 10.9797 9.86991 10.8966 9.91275C10.8474 9.93327 10.819 9.95543 10.6793 9.96023C10.6342 9.95696 10.5842 9.96552 10.4563 9.90871C10.3882 9.87667 10.2918 9.80524 10.234 9.69385C10.1758 9.58252 10.1737 9.48249 10.1776 9.42368C10.208 9.22113 10.2343 9.21846 10.2057 9.28819C10.2002 9.31315 10.1878 9.34868 10.1926 9.43421C10.193 9.51546 10.2548 9.67936 10.3614 9.75967C10.5609 9.8986 10.6171 9.85462 10.646 9.86454C10.7061 9.86282 10.701 9.85908 10.7034 9.85924C10.7005 9.85912 10.6788 9.86367 10.6549 9.86945L10.6081 9.88207C10.2191 9.94535 9.82806 9.86661 9.47274 9.76836C8.53748 9.51002 7.85703 8.83917 7.4333 8.09953C7.2761 7.82498 7.14537 7.5451 7.01573 7.26569C6.95368 7.13258 6.85407 7.00082 6.82975 6.85286C6.79545 6.65027 6.92175 6.41595 6.68307 6.30509C6.44328 6.21596 6.41261 4.97429 6.4934 4.74861C6.52599 4.48398 6.54234 4.20956 6.64361 3.96038C6.71916 3.77523 6.86343 3.63336 6.97524 3.4816C7.08904 3.3267 7.18615 3.13164 7.36238 3.00886C8.20883 2.43998 9.32549 2.59208 10.288 2.80265C10.2952 2.81454 10.3833 2.97832 10.3852 2.97873C10.4191 2.98706 10.4628 2.99335 10.5132 2.99953L10.3928 3.00628C10.5867 2.83548 10.9179 2.55562 11.1011 2.65312C11.1356 2.71755 11.1693 2.78226 11.2025 2.84724C11.2219 2.83935 11.2412 2.83164 11.2605 2.82413C11.2154 2.68042 11.2404 2.75254 11.186 2.60903C11.3386 2.50471 11.6189 2.45452 11.9053 2.43653C12.3242 2.36819 13.2628 2.35397 13.5001 2.88914C13.5174 2.92656 13.4257 3.02401 13.3824 3.08028C13.3966 3.09267 13.4106 3.1053 13.4243 3.11817C13.4918 3.09035 13.6445 3.0224 13.6779 3.06405C13.842 3.27009 14.2663 3.24601 14.0935 3.60232C14.1852 3.77793 14.3675 3.90361 14.3508 4.07295C14.2558 4.13583 14.2093 4.15683 14.1013 4.20616C14.1 4.22527 14.0983 4.24307 14.0964 4.26115C14.1535 4.29175 14.2248 4.33199 14.3089 4.3874C14.4257 4.77638 14.4336 5.20944 14.3377 5.59464C14.3101 5.71016 14.4095 5.9356 14.3865 5.99291C14.2415 6.37535 14.1854 6.76567 13.9863 7.11038C13.973 7.13415 13.8545 7.18526 13.8456 7.19361C13.7537 7.28262 13.5888 7.27004 13.6002 7.39418C13.6612 7.43915 13.7222 7.48425 13.783 7.52951C13.7871 7.55961 13.7909 7.58986 13.7944 7.62026C13.6725 7.64598 13.6881 7.63727 13.5414 7.62755C13.5354 7.79821 13.6483 7.77263 13.6211 7.83827C13.5908 7.92179 13.2217 8.21572 13.2191 8.28165C13.2114 8.41605 13.2927 8.51325 13.207 8.68927C13.1795 8.6807 13.1522 8.67205 13.1248 8.66332C12.9064 8.59062 12.8906 8.56843 12.7726 8.62472C12.7747 8.65211 12.7767 8.67959 12.7785 8.70715C12.8689 8.74951 12.9507 8.788 13.0416 8.83228C13.0816 9.04158 12.1833 9.62935 11.9761 9.74428C11.9008 9.71501 11.8302 9.68721 11.7585 9.66388C11.7396 9.67988 11.7206 9.69586 11.7014 9.71182C11.5639 9.76471 11.3638 9.78208 11.1782 9.70501C11.1349 9.63193 11.0913 9.55896 11.0476 9.48609C11.6312 9.534 11.7166 8.165 12.4297 8.62749C12.4374 8.64579 12.445 8.66412 12.4525 8.68249C12.5063 8.81389 12.5216 8.88541 12.6322 8.99131C12.6564 8.98165 12.6798 8.97283 12.7049 8.96211C12.6567 8.72176 12.4117 8.5422 12.2011 8.3437C12.2097 7.96176 12.462 8.30702 12.5467 8.09982C12.7046 7.70594 12.6091 7.25862 12.9377 7.0088C13.1097 6.8769 13.0883 6.89762 12.933 6.6863C13.0209 6.49615 13.1454 6.53385 13.2825 6.38705C13.3277 6.33765 13.1621 6.14449 13.2205 6.0096C13.3527 6.02116 13.2981 6.0102 13.4452 6.06638C13.4592 6.05535 13.4731 6.04426 13.4869 6.03311C13.3794 5.94868 13.4393 5.98765 13.2857 5.92789C13.2955 5.91764 13.3052 5.90736 13.3149 5.89707C13.3645 5.90326 13.4145 5.90852 13.4643 5.91373C13.4961 5.86501 13.5289 5.49159 13.4869 5.15223C13.4512 4.80856 13.338 4.53267 13.3555 4.51172C13.5752 4.25245 13.4648 4.12077 13.3578 4.03893C13.2426 3.94953 13.1534 3.90918 13.1925 3.59627C13.1913 3.54586 12.8789 3.62102 12.8204 3.55157C12.8326 3.44507 12.8447 3.42997 12.8875 3.27735C12.8769 3.26381 12.8658 3.25037 12.8548 3.2373C12.7591 3.35607 12.7904 3.31359 12.7076 3.45746C12.6967 3.45678 12.6859 3.45626 12.675 3.45589C12.676 3.4219 12.6756 3.38758 12.674 3.353C12.5607 3.41202 12.5656 3.44674 12.4991 3.40585C12.484 3.26028 12.4749 3.13038 12.4048 3.07458C12.3695 3.13081 12.3365 3.18803 12.3057 3.24605C12.1929 3.21729 12.0762 3.07187 11.9071 3.13577C11.8321 3.15 11.3408 3.36109 11.3718 3.39628C11.0025 3.11127 11.0526 3.89074 10.6257 3.42452C10.6211 3.43067 10.6166 3.4367 10.6122 3.44264L10.5121 3.50405L10.344 3.45767C10.235 3.46822 10.1579 3.47786 10.0559 3.47315C9.99483 3.30489 10.0257 3.31466 9.92008 3.27123C9.82358 3.35747 9.79955 3.42711 9.72836 3.57492C9.71784 3.57173 9.70736 3.56857 9.69692 3.56546C9.71678 3.51127 9.73675 3.45713 9.75685 3.40302C9.62832 3.21326 9.36303 3.60709 9.11885 3.51674C9.11745 3.49947 9.11601 3.48221 9.11453 3.46495C9.14558 3.42136 9.17765 3.37814 9.21072 3.33529C9.17114 3.203 9.13953 3.18465 9.07501 3.09074C9.01146 3.19732 9.00792 3.21968 8.96214 3.35186C8.94429 3.36312 8.92674 3.37451 8.90949 3.38603C8.8967 3.27539 8.88252 3.18585 8.85512 3.08764C8.83695 3.09811 8.81933 3.10875 8.80148 3.11949C8.6175 3.8603 8.35467 3.27679 8.25963 3.55751C8.26049 3.59077 8.26153 3.62401 8.26277 3.65723C8.24368 3.66342 8.22523 3.66985 8.2074 3.6765C8.19896 3.64105 8.19038 3.60563 8.18165 3.57024C8.1884 3.48521 8.19866 3.39995 8.21234 3.31468C8.20387 3.29759 8.19527 3.28054 8.18655 3.26353C7.9583 3.39229 7.77191 3.52101 7.6793 3.70739C7.59915 3.63948 7.63138 3.66984 7.54206 3.5668C7.53439 3.57684 7.52697 3.58693 7.51978 3.59706C7.58011 3.72748 7.64858 3.85205 7.72476 3.97025C7.68498 4.06767 7.39807 3.96528 7.44755 4.15893C7.47455 4.23967 7.47108 4.25002 7.4071 4.27918C7.29282 4.23062 7.3002 4.22538 7.19135 4.20436C7.19355 4.21655 7.1958 4.22889 7.19831 4.24087C7.25626 4.2726 7.31464 4.30343 7.37342 4.33336C7.36965 4.34259 7.36593 4.35196 7.36229 4.36145C7.30371 4.34623 7.24495 4.3316 7.18602 4.31756C7.20783 4.56016 7.45714 4.52003 7.3184 4.81242C7.29756 4.81811 7.27674 4.82405 7.25594 4.83021C7.1881 4.81025 7.12048 4.78921 7.0531 4.76705C7.01477 4.83946 7.00982 4.83623 7.08005 4.9106C7.19607 4.94112 7.22477 4.94722 7.34886 4.96652C7.37092 5.06187 7.33766 5.05385 7.1073 5.10658Z" fill="black"/>
<path d="M7.71296 5.675C7.84848 6.02151 7.81462 5.73358 7.81887 6.17261C7.84283 6.54098 7.96955 6.3399 7.93318 6.82982C7.98491 6.84588 7.96688 6.84087 8.01864 6.82899C8.04478 6.90613 8.35986 7.70403 8.46819 7.8387C8.46777 7.86569 8.46757 7.89274 8.46761 7.91985C8.50188 7.96659 8.66742 8.14819 8.68226 8.172C8.79449 8.37753 8.92453 8.53715 9.09782 8.70162C9.09189 8.75046 9.09723 8.7337 9.06944 8.77062C9.11964 8.82346 9.14649 8.8161 9.20564 8.81308C9.31529 8.94872 10.1431 9.47161 10.7513 9.3444C10.9147 9.25846 10.8298 9.496 10.962 9.43717C11.041 9.432 11.0931 9.4259 11.1156 9.43224C11.12 9.44265 11.1244 9.45305 11.1289 9.46345C11.0917 9.50112 11.0477 9.52878 10.9855 9.5487C10.947 9.55335 10.943 9.58307 10.819 9.54724C10.7814 9.53654 10.7245 9.46498 10.725 9.41855C10.7211 9.37355 10.7289 9.35674 10.7316 9.34346C10.7446 9.329 10.7187 9.28283 10.7459 9.40352C10.8248 9.51281 10.8573 9.46754 10.8562 9.47681C10.8593 9.47652 10.853 9.47723 10.8473 9.47855C10.8337 9.4815 10.8171 9.48609 10.7979 9.4919L10.7814 9.49619C10.4889 9.54977 10.1901 9.5073 9.92147 9.42014C9.2363 9.19439 8.73838 8.65756 8.38206 8.08584C8.24998 7.87196 8.13575 7.65242 8.02898 7.42733C7.97775 7.31957 7.91482 7.20563 7.87925 7.09254C7.83115 6.94024 7.83379 6.77426 7.73446 6.65678C7.62695 6.56065 7.4781 5.58863 7.5076 5.39177C7.50586 5.16806 7.50905 4.94882 7.55593 4.73114C7.59004 4.57376 7.65748 4.42234 7.72828 4.28034C7.80003 4.13586 7.87966 3.98874 8.00359 3.87648C8.62573 3.33183 9.55348 3.55618 10.2614 3.81095C10.2678 3.81629 10.3514 3.89258 10.3529 3.89333C10.3911 3.90812 10.4443 3.92597 10.5058 3.94749L10.4604 3.94883C10.625 3.83524 10.8635 3.7074 10.9723 3.71591C10.9876 3.73355 11.0045 3.75075 11.0202 3.76836C11.0361 3.76286 11.0519 3.75754 11.0677 3.75241C11.0529 3.70976 11.062 3.73088 11.0405 3.68947C11.1672 3.63421 11.3804 3.59087 11.6012 3.58864C11.9428 3.55258 12.5595 3.72458 12.7368 4.04942C12.7516 4.07271 12.7201 4.09768 12.707 4.11473C12.717 4.12573 12.7269 4.13683 12.7364 4.14786C12.7671 4.15296 12.8305 4.15665 12.8526 4.18761C12.9675 4.3514 13.123 4.40747 13.1074 4.60529C13.165 4.7366 13.2388 4.84099 13.2495 4.95566C13.2253 4.99247 13.2127 5.00439 13.1835 5.03342C13.1849 5.04724 13.1863 5.0618 13.1873 5.07503C13.208 5.10159 13.2335 5.13523 13.2632 5.17808C13.3272 5.4657 13.3364 5.77848 13.2937 6.07286C13.2817 6.16089 13.3026 6.30626 13.2911 6.35286C13.2228 6.64336 13.1638 6.92964 13.0463 7.20046C13.0378 7.22049 12.9859 7.28077 12.9811 7.28846C12.9338 7.36792 12.87 7.39896 12.8547 7.48023C12.873 7.49417 12.8913 7.50816 12.9095 7.5222C12.9065 7.54116 12.9041 7.55874 12.9011 7.57709C12.8474 7.62307 12.8551 7.61365 12.7953 7.64442C12.7668 7.75273 12.8187 7.70743 12.7969 7.75545C12.7694 7.82147 12.5615 8.08803 12.5436 8.13275C12.5167 8.2139 12.5382 8.24921 12.4676 8.37145C12.4562 8.37377 12.4447 8.37605 12.4332 8.37831C12.3402 8.39672 12.3355 8.39011 12.2671 8.45388C12.2631 8.46882 12.2589 8.48377 12.2547 8.49876C12.2917 8.49793 12.3248 8.49749 12.3612 8.4981C12.3527 8.60529 11.7715 9.16062 11.6254 9.26663C11.5893 9.27134 11.5533 9.27759 11.5172 9.28466C11.5031 9.29765 11.489 9.31061 11.4747 9.32355C11.3847 9.38609 11.2634 9.44644 11.1674 9.45807C11.1564 9.43437 11.1454 9.4107 11.1343 9.38708C11.4744 9.26931 11.8162 8.50604 12.0939 8.55031C12.0942 8.55841 12.0946 8.56651 12.0949 8.57463C12.0975 8.63216 12.0897 8.66931 12.1266 8.69665C12.1412 8.6844 12.1558 8.67212 12.1702 8.65979C12.1907 8.54116 12.1016 8.50703 12.0325 8.45487C12.1149 8.23112 12.1732 8.35928 12.2573 8.21041C12.4065 7.93625 12.4579 7.65964 12.6391 7.39872C12.7366 7.25384 12.7201 7.28078 12.6913 7.17136C12.757 7.00959 12.8015 7.0005 12.8719 6.86085C12.8952 6.81343 12.8601 6.70418 12.8959 6.58538C12.9414 6.565 12.9232 6.56872 12.9689 6.58023C12.9749 6.569 12.9811 6.55673 12.9871 6.54497C12.9585 6.50127 12.9753 6.51907 12.9281 6.50482C12.9327 6.49421 12.9372 6.4836 12.9416 6.47299C12.9582 6.46724 12.9747 6.46139 12.9913 6.45546C13.0065 6.41235 13.0513 6.11498 13.0433 5.82403C13.04 5.53254 12.9795 5.26604 12.9822 5.24581C13.0414 4.77121 12.8374 4.8293 12.7229 4.37381C12.713 4.34116 12.5413 4.2519 12.4571 4.16953C12.4325 4.11016 12.4376 4.10743 12.4338 4.04631C12.4227 4.03543 12.4114 4.02474 12.3999 4.01425C12.3503 4.03414 12.3655 4.02586 12.3293 4.06123C12.3192 4.05597 12.3091 4.05091 12.2989 4.04598C12.2912 4.0301 12.2831 4.01428 12.2745 3.99852C12.1848 3.98202 12.1896 3.99505 12.1194 3.95806C12.0849 3.90016 12.0627 3.8527 12.0002 3.82197C11.9728 3.83356 11.9461 3.84597 11.9199 3.85913C11.8086 3.83137 11.7093 3.77842 11.56 3.79852C11.4908 3.79263 11.0501 3.91822 11.0706 3.93275C10.8485 3.89204 10.7336 4.13867 10.5483 4.11309L10.4937 4.14454L10.4278 4.11666C10.4185 4.10138 10.4107 4.08422 10.4044 4.0648C10.3162 4.04232 10.2578 4.02935 10.175 4.00497C10.1073 3.93218 10.1322 3.94194 10.0477 3.90632C9.98571 3.9184 9.9741 3.93772 9.9338 3.97466C9.92409 3.97113 9.91441 3.96765 9.90477 3.96422C9.91431 3.94931 9.92389 3.93443 9.93352 3.91958C9.80682 3.82924 9.65763 3.91867 9.4238 3.85217C9.4213 3.8465 9.41879 3.84084 9.41626 3.83517C9.43871 3.82518 9.46163 3.81548 9.48501 3.80608C9.44268 3.75871 9.4162 3.74908 9.3591 3.71304C9.31474 3.73985 9.31302 3.74652 9.28278 3.7831C9.26866 3.78489 9.2547 3.78682 9.24091 3.78887C9.22591 3.7539 9.20643 3.72477 9.17714 3.69268C9.16119 3.69448 9.14545 3.69646 9.1299 3.6986C9.00409 3.90863 8.73711 3.73935 8.65255 3.83986C8.65088 3.85022 8.6493 3.86057 8.6478 3.87092C8.6277 3.87574 8.60815 3.88096 8.58912 3.88657C8.58412 3.87658 8.57906 3.8666 8.57394 3.85665C8.58912 3.8275 8.60613 3.7985 8.62494 3.76979C8.61826 3.76554 8.61156 3.76134 8.60482 3.75718C8.39377 3.82856 8.21826 3.93659 8.09721 4.09928C8.05287 4.10082 8.06975 4.10232 8.02942 4.08573C8.02197 4.09526 8.01468 4.10493 8.00756 4.11472C8.01966 4.16457 8.03439 4.21283 8.05137 4.25966C7.97326 4.39039 7.84468 4.46317 7.83292 4.6335C7.82983 4.70727 7.82618 4.72384 7.79846 4.78106C7.76228 4.77266 7.76523 4.76576 7.72843 4.78201C7.72808 4.79311 7.72782 4.80425 7.72763 4.81543C7.74507 4.82827 7.76261 4.84092 7.78024 4.85336C7.77797 4.86506 7.7758 4.87682 7.77383 4.8879C7.75512 4.89035 7.73639 4.89295 7.71767 4.8957C7.71552 5.12354 7.78782 5.04892 7.75492 5.37553C7.74901 5.38371 7.74314 5.39208 7.73729 5.40027C7.71621 5.38626 7.69521 5.37179 7.67432 5.35721C7.66621 5.4321 7.66455 5.42534 7.68976 5.49064C7.72605 5.51224 7.735 5.51672 7.77316 5.52936C7.78704 5.62453 7.77721 5.62085 7.71296 5.675Z" fill="black"/>
</g>
<use xlink:href="#Repeat%20group%201_inner" transform="translate(17.1127 -2.71039) rotate(72)"/>
<use xlink:href="#Repeat%20group%201_inner" transform="translate(24.9786 12.7272) rotate(144)"/>
<use xlink:href="#Repeat%20group%201_inner" transform="translate(12.7272 24.9786) rotate(-144)"/>
<use xlink:href="#Repeat%20group%201_inner" transform="translate(-2.71039 17.1127) rotate(-72)"/>
<path d="M6.32122 17.6037C6.57519 18.0311 6.57909 17.6664 6.43633 18.219C6.33266 18.6797 6.74904 18.4162 6.37896 19.0503C6.49253 19.0675 6.45255 19.0623 6.58349 19.0437C6.62642 19.1356 6.74973 20.1794 6.83099 20.3744C6.80484 20.4128 6.77903 20.4518 6.75333 20.4907C6.78642 20.552 6.96084 20.8076 6.96378 20.8415C6.98524 21.1413 7.06868 21.3817 7.18986 21.6495C7.11679 21.7284 7.14807 21.7014 7.04869 21.7605C7.07577 21.8482 7.13495 21.8389 7.24765 21.8378C7.31069 21.9761 7.58213 22.5279 7.92256 23.0267C8.25487 23.5313 8.65892 23.9765 8.65767 24.1132C8.64131 24.1363 8.62497 24.1593 8.60864 24.1824C8.44268 24.2099 8.32537 24.1187 8.21632 24.027C7.9029 23.7651 7.67731 23.4011 7.4563 23.0705C6.97037 22.3455 6.6215 21.5547 6.4065 20.7369C6.32731 20.436 6.26078 20.1379 6.18835 19.8383C6.15315 19.6936 6.089 19.5463 6.08109 19.3979C6.07027 19.198 6.17737 18.9822 6.00119 18.836C5.86622 18.7308 5.80616 17.8157 5.83714 17.4162L5.72874 17.4912C5.78391 17.5168 5.83981 17.5445 5.86663 17.5571C6.11214 17.6727 6.37114 17.7734 6.6076 17.9104C6.77978 18.0103 6.93125 18.1532 7.0999 18.2583C7.27135 18.3652 7.47273 18.4356 7.6417 18.5556C8.43317 19.1161 9.10321 19.8634 9.59166 20.7372C9.59019 20.7497 9.55864 20.9105 9.55892 20.9111C9.65992 21.0861 9.99558 21.5328 9.90897 21.732C9.86009 21.7578 9.81109 21.7833 9.76198 21.8086C9.7684 21.8278 9.77473 21.8471 9.78097 21.8665C9.88985 21.8363 9.83523 21.8535 9.94381 21.8147C10.0266 21.9675 10.0706 22.2381 10.1032 22.4983C10.1649 22.9148 10.3523 23.6072 10.1527 24.0147L9.78684 23.8684C9.78879 23.8674 9.79074 23.8663 9.7927 23.8653C9.82172 23.8497 9.898 23.9145 9.94238 23.9442C9.95353 23.93 9.9646 23.9158 9.97558 23.9016C9.95482 23.8471 9.8916 23.7372 9.91829 23.7048C10.0667 23.5204 9.88949 23.2654 10.1822 23.2184C10.2557 23.0699 10.2205 22.9053 10.3094 22.8089C10.3955 22.8127 10.4334 22.8191 10.5227 22.8317C10.5327 22.8184 10.5426 22.805 10.5525 22.7915C10.5322 22.7424 10.5059 22.6818 10.4729 22.61C10.5522 22.2799 10.6265 21.9418 10.7146 21.6174C10.7426 21.5162 10.6614 21.3392 10.6748 21.2894C10.7619 20.9641 10.7275 20.6322 10.7627 20.3061C10.7651 20.2835 10.8301 20.2012 10.8333 20.1907C10.8669 20.0876 10.9804 20.0295 10.9275 19.9361C10.871 19.929 10.8145 19.9219 10.758 19.9149C10.7442 19.8944 10.7302 19.8741 10.7162 19.8539C10.7845 19.7819 10.7778 19.7954 10.8745 19.7344C10.8079 19.6103 10.7477 19.683 10.737 19.6241C10.7251 19.5495 10.8023 19.166 10.7655 19.1155C10.7008 19.0235 10.608 19.0133 10.558 18.8626C10.5769 18.8517 10.5958 18.8407 10.6146 18.8297C10.7659 18.739 10.7868 18.743 10.8121 18.6309C10.7953 18.6159 10.7785 18.6011 10.7617 18.5865C10.6939 18.6211 10.6321 18.6513 10.5623 18.683C10.4468 18.5984 10.4537 17.7285 10.4048 17.5679C10.4465 17.5247 10.486 17.486 10.5191 17.4379C10.5122 17.4198 10.5054 17.4031 10.4989 17.3877C10.4965 17.3359 10.5012 17.2791 10.5224 17.2371C10.5525 17.1772 10.5521 17.2363 10.8112 17.1694C10.7669 17.1146 10.7488 17.0471 10.7589 16.9845C10.7015 17.2229 11.5849 18.1418 10.9708 18.3976C10.9563 18.3923 10.9417 18.387 10.9272 18.3818C10.8237 18.3456 10.7728 18.3165 10.6597 18.3364C10.6549 18.3576 10.6501 18.379 10.6452 18.4005C10.8112 18.4956 11.0304 18.4375 11.2452 18.4049C11.4693 18.66 11.1467 18.6205 11.2202 18.816C11.3532 19.1839 11.6228 19.5184 11.5026 19.9291C11.4367 20.1461 11.4423 20.1023 11.6155 20.2298C11.6112 20.4626 11.5122 20.4841 11.4458 20.6799C11.4234 20.7442 11.5819 20.884 11.5527 21.0507C11.4517 21.0785 11.494 21.0733 11.3772 21.0564C11.3679 21.0716 11.3586 21.0868 11.3492 21.1019C11.4384 21.1618 11.3893 21.1372 11.5108 21.16C11.5042 21.1742 11.4975 21.1883 11.4908 21.2024C11.4525 21.2087 11.4143 21.2146 11.3761 21.2204C11.3731 21.3269 11.2393 22.8178 11.1506 22.8579C10.5627 23.2728 11.0688 23.5516 10.4083 23.9426C10.3776 23.9582 10.3808 24.1465 10.3199 24.3007L9.38873 25.5175L9.4685 23.9603C9.45492 23.9117 9.44823 23.8644 9.45623 23.8225C9.53173 23.749 9.54604 23.7529 9.66305 23.7052C9.66865 23.6856 9.67416 23.6659 9.6796 23.6463C9.56864 23.6051 9.60747 23.6162 9.48358 23.5994C9.48082 23.5843 9.47801 23.5693 9.47515 23.5544C9.49901 23.5354 9.52282 23.5143 9.54651 23.4941C9.47505 23.3771 9.45189 23.39 9.46553 23.2831C9.56647 23.208 9.65835 23.164 9.68657 23.0701C9.63927 23.0419 9.59179 23.0144 9.54415 22.9878C9.54633 22.8367 9.64043 22.6982 9.57747 22.5131C9.55824 22.4339 9.36914 21.885 9.34487 21.9168C9.55253 21.5776 8.9434 21.5064 9.29811 21.1695C9.22256 21.0896 9.16994 21.0396 9.10581 20.9544C9.1545 20.8103 9.16872 20.8394 9.12429 20.7334C9.01934 20.7101 8.96807 20.7314 8.84754 20.7631C8.84218 20.7527 8.8368 20.7424 8.8314 20.7322C8.87157 20.7158 8.91179 20.6994 8.95206 20.6832C8.97 20.4833 8.59895 20.5107 8.47456 20.2641C8.48251 20.2534 8.49044 20.2427 8.49835 20.232C8.54163 20.2313 8.58507 20.2312 8.62867 20.2315C8.6711 20.1289 8.65999 20.0956 8.66616 19.9959C8.56811 20.0062 8.55387 20.0155 8.45311 20.0515C8.4349 20.0436 8.41639 20.0355 8.39787 20.0274C8.44667 19.9566 8.48379 19.8968 8.51664 19.8221C8.49816 19.8129 8.47969 19.8039 8.46122 19.795C7.93787 20.043 8.05275 19.5008 7.81263 19.5395C7.79169 19.5535 7.77078 19.5676 7.74991 19.5817C7.72967 19.5645 7.70922 19.5474 7.68821 19.5299C7.70517 19.5083 7.7221 19.4866 7.73899 19.4649C7.80364 19.4421 7.86869 19.4201 7.93362 19.3981C7.93843 19.3836 7.94321 19.369 7.94796 19.3544C7.6969 19.1984 7.4671 19.046 7.19823 18.9316C7.20941 18.8437 7.20125 18.8785 7.24717 18.7853C7.23248 18.7774 7.21781 18.7696 7.20319 18.7619C7.1068 18.8206 7.01316 18.881 6.91824 18.9402C6.71657 18.8346 6.70624 18.5658 6.47039 18.5397C6.3654 18.5287 6.34314 18.5162 6.29514 18.4465C6.34291 18.3666 6.34933 18.3746 6.36494 18.2892C6.35009 18.2863 6.33535 18.2835 6.32073 18.2807C6.2859 18.3173 6.25133 18.3541 6.21705 18.3911C6.20428 18.3834 6.19164 18.3759 6.17913 18.3686C6.19535 18.3258 6.21149 18.2829 6.22754 18.24C5.94608 18.1624 5.94819 18.3618 5.62858 18.1303C5.62612 18.1127 5.62399 18.0952 5.62219 18.0779C5.65698 18.0364 5.69368 17.9958 5.73226 17.9561C5.66269 17.8996 5.66604 17.8967 5.57995 17.9219C5.56579 17.9474 5.54605 17.9632 5.54486 17.9836L6.36277 17.4178C6.40254 17.4169 6.43299 17.4277 6.49586 17.4356C6.51669 17.5453 6.49174 17.5415 6.32122 17.6037Z" fill="black"/>
</svg>
