<svg width="24" height="24" viewBox="0 0 24 24" fill="none" xmlns="http://www.w3.org/2000/svg">
<path d="M7.22767 13.8192C6.45055 13.3089 6.72013 13.9148 6.54983 12.8699C6.52514 12.7176 6.48714 12.6149 6.44277 12.5415L5.44729 11.0321L7.38184 10.916C7.38216 10.916 7.38249 10.916 7.38281 10.916L6.44458 12.543C6.22368 12.1443 5.79129 12.3736 6.15528 11.19C5.93771 11.1692 6.01413 11.1742 5.77305 11.2288C5.68274 11.1094 5.52305 10.1358 5.6202 9.33301C5.66668 8.84257 5.77399 8.41947 5.80707 8.25244C5.88627 8.20586 5.96594 8.16151 6.04599 8.11939C6.04408 7.97399 6.0992 7.32426 6.15278 7.26309C6.5283 6.75322 6.81135 6.32878 7.18915 5.86722C7.38347 5.92342 7.31203 5.89396 7.49025 6.01551C7.61842 5.90187 7.55899 5.81119 7.48629 5.61004C7.68365 5.38604 8.61116 4.5424 9.71275 4.22967C10.8056 3.87866 11.8791 4.06599 11.9942 4.27413C11.9962 4.32685 11.9981 4.37956 12 4.43228C11.825 4.66204 11.6207 4.67871 11.414 4.71035C10.8383 4.79788 10.2055 4.82985 9.63149 5.0753C8.38711 5.60196 7.34376 6.69865 6.84043 8.08139C6.69436 8.47929 6.59979 8.90154 6.574 9.333C6.56692 9.45107 6.56499 9.56973 6.56857 9.68852C6.57654 9.95445 6.66435 10.2295 6.67349 10.4942C6.6825 10.8439 6.54046 11.2935 6.9255 11.4902C7.02338 11.5386 7.15068 11.7589 7.32031 12.0362L7.38281 11.9278C7.38249 11.9278 7.38216 11.9278 7.38184 11.9278L7.253 11.9355L7.3193 12.0361C7.70418 12.6681 8.17415 13.6893 8.31817 13.9534C8.54866 14.3777 8.84113 14.7658 9.08621 15.1812C9.26606 15.4862 9.38376 15.8314 9.57774 16.1267C9.77523 16.4281 10.0593 16.6741 10.2639 16.9713C10.9255 17.9308 11.563 18.9063 12.2115 19.8752L11.7789 19.875C12.0118 19.4016 12.2425 18.9269 12.4673 18.4493C12.4872 18.4408 12.7534 18.3331 12.7545 18.3299C12.9072 18.0054 13.0688 17.0804 13.4224 16.9514C13.52 16.9837 13.6176 17.016 13.7152 17.0482C13.7306 17.0165 13.7461 16.9847 13.7616 16.953C13.5767 16.8515 13.6719 16.9001 13.4771 16.809C13.5522 16.5218 13.8023 16.1396 14.0315 15.7512C14.4016 15.1234 14.6961 13.9531 15.3133 13.4994C15.3617 13.4637 15.5206 13.562 15.6105 13.6048C15.6262 13.5773 15.6419 13.5498 15.6575 13.5222C15.6031 13.4303 15.4585 13.2441 15.5007 13.1793C15.7294 12.8247 15.3839 12.3554 15.9295 12.2623C16.0244 12.0689 16.0252 11.8567 16.0828 11.69L16.6191 12.6195C16.6188 12.6195 16.6185 12.6196 16.6182 12.6196L15.5105 12.5532L16.0819 11.6896C16.101 11.6299 16.1282 11.5773 16.1739 11.5344C16.3307 11.5539 16.4001 11.5699 16.5641 11.6018C16.5822 11.5797 16.6002 11.5574 16.6181 11.5349C16.5793 11.4478 16.5283 11.341 16.4617 11.2173C16.5801 10.6638 16.6378 10.1066 16.6748 9.56682C16.6797 9.4976 16.6452 9.41223 16.6018 9.33301C16.5408 9.21983 16.4623 9.1221 16.4632 9.07473C16.4676 8.54369 16.2053 8.0866 16.0265 7.62891C16.0144 7.59704 16.0589 7.43009 16.0557 7.41333C16.0313 7.24807 16.1623 7.05723 15.9973 6.98511C15.9022 7.03231 15.8074 7.07997 15.7128 7.12809C15.6742 7.11666 15.6355 7.1058 15.5968 7.09559C15.6419 6.93648 15.6436 6.96072 15.7362 6.77986C15.5215 6.69651 15.4983 6.8552 15.4294 6.79636C15.3528 6.72101 15.086 6.18516 14.979 6.18006C14.7992 6.16585 14.6651 6.27485 14.4526 6.19701C14.4648 6.1599 14.4766 6.12261 14.4881 6.08515C14.5766 5.78164 14.6004 5.75075 14.5028 5.6019C14.4659 5.61118 14.4292 5.6209 14.3929 5.63105C14.3553 5.76498 14.3172 5.88448 14.2692 6.01589C14.062 6.08432 13.08 5.34337 12.7615 5.29521C12.7335 5.1897 12.6995 5.09009 12.6571 4.99444C12.6238 4.99038 12.5904 4.9867 12.5569 4.98339C12.3766 4.89755 12.1577 4.73677 12 4.49727C12.0123 4.37885 12.0255 4.26048 12.0395 4.14216C12.3719 4.402 12.9336 4.24597 13.5019 4.28765C14.0607 4.31877 14.5679 4.54406 14.3947 5.12983C14.3721 5.14637 14.3496 5.16304 14.3272 5.17983C14.1686 5.3004 14.0793 5.35144 13.9848 5.54378C14.0056 5.57091 14.0258 5.59816 14.0458 5.62563C14.334 5.46209 14.5142 5.0827 14.7087 4.72638C15.3245 4.68414 14.886 5.10606 15.2238 5.22715C15.8427 5.46588 16.6566 5.62945 16.8926 6.3932C17.0036 6.79428 16.9631 6.71542 17.3636 6.76035C17.5695 7.14984 17.4204 7.27143 17.4575 7.64897C17.4662 7.77146 17.8429 7.89513 17.8984 8.2154C17.7383 8.32803 17.8094 8.29188 17.5931 8.33429C17.586 8.36609 17.5787 8.39776 17.5711 8.42932C17.7642 8.48041 17.6628 8.46689 17.8915 8.43557C17.888 8.46451 17.8843 8.4934 17.8804 8.52224C17.8161 8.55519 17.7515 8.58737 17.6866 8.61877C17.6836 8.68509 17.7625 8.95937 17.8252 9.33298C18.0212 10.1934 17.8169 11.6292 17.7291 11.6731C17.3945 11.9347 17.2424 12.1209 17.158 12.3124L16.6182 11.3763C16.6185 11.3762 16.6188 11.3762 16.6191 11.3761L17.6591 11.3138L17.1593 12.3122C16.9941 12.6969 17.2045 13.0898 16.4501 13.5368C16.3807 13.5761 16.5095 14.1411 16.3221 14.3861C16.1348 14.4448 16.1139 14.4263 15.8799 14.4029C15.8539 14.43 15.828 14.4571 15.802 14.4843C15.9485 14.6495 15.8942 14.597 16.0825 14.735C16.0734 14.7627 16.0642 14.7904 16.055 14.818C15.9982 14.8289 15.9413 14.8398 15.8844 14.8507C15.8939 15.1036 15.942 15.1066 15.8163 15.2667C15.5817 15.2895 15.3906 15.2725 15.2556 15.383C15.3018 15.4737 15.348 15.5643 15.3942 15.6549C15.2318 15.888 14.9413 15.9924 14.8236 16.3301C14.7729 16.4754 14.348 17.4664 14.4107 17.4524C13.7004 17.6114 14.3379 18.5644 13.4271 18.4372C13.3974 18.6362 13.3796 18.7723 13.3203 18.9585C13.0485 19.0348 13.0793 18.9813 12.9616 19.1564C13.0325 19.3427 13.1175 19.401 13.2867 19.5609C13.2756 19.5799 13.2644 19.5988 13.2532 19.6177C13.1878 19.5699 13.1224 19.522 13.057 19.4741C12.7595 19.6169 13.0452 20.098 12.8716 20.5066L12.1151 22.0175L11.1182 20.5057C11.0876 20.4652 11.0609 20.4199 11.0394 20.3688C11.0556 20.3499 11.0718 20.331 11.0881 20.3121C11.169 20.3178 11.25 20.3235 11.331 20.3292C11.4236 20.1445 11.4085 20.0825 11.4388 19.9009C11.2557 19.9039 11.2274 19.918 11.0329 19.9643C11.0003 19.9453 10.9677 19.9263 10.9352 19.9073C11.0411 19.7868 11.1239 19.685 11.2041 19.5567C11.1726 19.536 11.1412 19.5153 11.1097 19.4945C10.0669 19.8075 10.4535 18.8227 10.0097 18.793C9.96536 18.8088 9.92102 18.8247 9.87668 18.8405C9.84647 18.7982 9.81625 18.7558 9.78604 18.7135C9.82679 18.6823 9.86754 18.651 9.90829 18.6198C10.0362 18.61 10.164 18.6001 10.2919 18.5903C10.3071 18.566 10.3224 18.5417 10.3376 18.5175C9.95766 18.1258 9.63752 17.724 9.24337 17.3379C9.32252 17.1929 9.28461 17.2477 9.42854 17.1177C9.40869 17.0943 9.38884 17.0708 9.36899 17.0473C9.16151 17.0822 8.9547 17.1156 8.74783 17.1474C8.46957 16.8019 8.66654 16.3363 8.29656 16.0852C8.13105 15.9722 8.10644 15.9324 8.08743 15.7679C8.23853 15.6818 8.24107 15.6998 8.34468 15.5753C8.32372 15.5577 8.30276 15.5401 8.28179 15.5224C8.19157 15.5496 8.10136 15.5768 8.01114 15.604C7.99735 15.5792 7.98355 15.5544 7.96976 15.5296C8.03607 15.4755 8.10238 15.4214 8.16869 15.3674C7.79461 14.9653 7.59264 15.2935 7.32759 14.5543C7.34275 14.5239 7.3579 14.4936 7.37306 14.4632C7.47384 14.4438 7.57461 14.4244 7.67539 14.405C7.62992 14.2385 7.64199 14.2445 7.47568 14.1643C7.30625 14.1994 7.26541 14.2094 7.09667 14.2663C6.95509 14.0893 7.00152 14.0738 7.22767 13.8192ZM13.5097 10.9354C13.1834 10.6019 13.0632 10.766 13.4815 10.6363C13.7977 10.4885 13.0712 10.5018 13.7112 10.333C13.7562 10.318 13.8079 10.3005 13.8669 10.2793C13.6651 10.2648 13.7365 10.2698 13.4901 10.2749C13.4384 10.2487 13.6231 9.74138 13.5641 9.62994C13.6225 9.58906 13.6801 9.54676 13.7369 9.50307C13.7017 9.47462 13.5152 9.40159 13.5243 9.37809C13.5988 9.15769 13.5448 9.00397 13.4526 8.85734C13.5713 8.70722 13.522 8.76434 13.6704 8.60786C13.6518 8.54156 13.5691 8.60763 13.4228 8.72291C13.3722 8.64377 13.1481 8.33144 12.8176 8.06722C12.4981 7.79392 12.0703 7.59598 12.0038 7.39286C12.0029 7.34015 12.002 7.28743 12.001 7.23471C12.0929 7.00449 12.2246 7.00353 12.3448 7.01068C12.6971 7.02989 13.0038 7.283 13.268 7.47275C13.8571 7.88808 14.2633 8.47866 14.3927 9.09866C14.4407 9.32592 14.4626 9.54515 14.4917 9.75642C14.5059 9.85677 14.5722 9.95976 14.535 10.0662C14.5016 10.1622 14.3679 10.2537 14.3649 10.3331C14.3634 10.3729 14.3937 10.4112 14.4829 10.4547C14.5982 10.5093 14.5893 10.7557 14.5024 10.9869C14.4188 11.2208 14.262 11.4224 14.2184 11.492C14.1222 11.6494 14.0671 11.8378 13.9469 11.9868C13.8581 12.0964 13.7102 12.1443 13.6209 12.2468C13.5298 12.351 13.4867 12.5341 13.3723 12.636C13.0084 12.9638 12.5223 13.1733 12.001 13.2499C11.765 13.2851 11.5205 13.2947 11.2715 13.2788C11.2653 13.2644 11.2122 13.0672 11.2122 13.0675C11.0652 13.066 10.5422 13.1916 10.5418 12.9051C10.5833 12.813 10.6256 12.7212 10.6688 12.63C10.6551 12.6249 10.6414 12.6197 10.6278 12.6144C10.5206 12.796 10.5734 12.7031 10.4703 12.8912C10.3161 12.8914 10.1499 12.7476 9.99664 12.6054C9.7541 12.4034 9.12289 12.1123 9.25579 11.6569C9.26609 11.6231 9.43626 11.5457 9.52453 11.5002C9.51866 11.4882 9.51287 11.4762 9.50716 11.4642C9.4136 11.4835 9.19684 11.5331 9.18649 11.4973C9.13561 11.3195 8.58595 11.3477 8.95512 11.0684C8.90189 10.9348 8.68554 10.8457 8.74194 10.7169C8.88522 10.6687 8.95316 10.6526 9.11118 10.6158C9.11629 10.6023 9.12149 10.5888 9.12679 10.5754C9.05211 10.5529 8.95859 10.5229 8.847 10.4811C8.82697 10.4331 8.80912 10.3837 8.79374 10.333C8.71574 10.0792 8.70341 9.7973 8.77538 9.5433C8.80011 9.45241 8.63459 9.24362 8.65878 9.19378C8.79966 8.89067 8.81667 8.52876 9.02651 8.25297C9.04093 8.23309 9.18169 8.2261 9.19141 8.2216C9.2949 8.16676 9.4906 8.25348 9.46542 8.12061C9.38866 8.04754 9.31218 7.97416 9.236 7.90047C9.22916 7.86682 9.22276 7.83295 9.2168 7.79885C9.36076 7.82441 9.34304 7.82651 9.51472 7.90496C9.51001 7.72813 9.38159 7.7009 9.41052 7.64291C9.44838 7.56034 9.85987 7.42911 9.86806 7.35616C9.88364 7.20897 9.80248 7.052 9.91643 6.89698C9.94489 6.92267 9.97312 6.94855 10.0011 6.97462C10.2255 7.18585 10.2377 7.22169 10.3644 7.23053C10.3657 7.19789 10.3673 7.16516 10.3694 7.13235C10.2843 7.02669 10.2055 6.93187 10.1167 6.82576C10.1064 6.54414 11.1934 6.44078 11.4105 6.48666C11.4614 6.57861 11.5098 6.66523 11.5582 6.74826C11.5807 6.74458 11.6032 6.7411 11.6258 6.73783C11.7603 6.78531 11.9185 6.92894 12.001 7.16972C11.9944 7.28814 11.9886 7.40658 11.9834 7.52504C11.8267 7.26339 11.546 7.49559 11.3569 7.67291C11.1574 7.84919 11.0153 7.9573 10.6957 7.45152C10.6907 7.42568 10.6859 7.39979 10.6812 7.37385C10.6474 7.18877 10.6498 7.09445 10.5634 6.8983C10.5374 6.89358 10.5112 6.88921 10.4848 6.88509C10.4874 7.19533 10.706 7.55857 10.8779 7.92526C10.8647 8.33344 10.6409 7.78699 10.5562 7.95814C10.402 8.28659 10.5865 8.77217 10.285 8.81219C10.1186 8.84323 10.1352 8.83903 10.3641 9.09406C10.3104 9.20723 10.1549 9.11766 10.0205 9.18154C9.97493 9.20558 10.2276 9.41901 10.188 9.49142C10.0169 9.43739 10.0888 9.46453 9.88787 9.37391C9.87228 9.37788 9.85669 9.38203 9.84109 9.38636C9.99787 9.48406 9.91228 9.43556 10.1236 9.52801C10.1134 9.53224 10.1031 9.53655 10.0929 9.54095C10.0273 9.52103 9.96143 9.50176 9.89537 9.48313C9.82366 9.539 10.0436 10.1762 10.1681 10.3331C10.1895 10.3722 10.1996 10.3962 10.19 10.4008C9.85674 10.5674 9.97144 10.6649 10.0884 10.7176C10.2094 10.781 10.3242 10.8006 10.0919 11.0661C10.0637 11.1069 10.4731 11.0647 10.4734 11.1463C10.3753 11.244 10.3507 11.2558 10.1803 11.3894C10.1786 11.4041 10.177 11.4188 10.1755 11.4337C10.3661 11.3439 10.3005 11.3768 10.5016 11.2608C10.5107 11.2643 10.5199 11.2677 10.529 11.2709C10.4976 11.3031 10.4666 11.3359 10.4362 11.3692C10.5825 11.3448 10.6121 11.3117 10.6212 11.3723C10.4905 11.5171 10.3714 11.6472 10.3595 11.7285C10.4364 11.6872 10.5121 11.6441 10.5864 11.5992C10.6219 11.6743 10.5364 11.8716 10.6672 11.8958C10.7226 11.9146 11.0628 11.9897 11.0735 11.9348C11.0024 12.2032 11.1404 12.1349 11.2336 12.0839C11.3315 12.0352 11.3884 12.0092 11.3092 12.4319C11.3926 12.3813 11.4457 12.3416 11.5139 12.3155C11.5311 12.5221 11.5148 12.5187 11.5823 12.5467C11.6528 12.4023 11.6712 12.301 11.7219 12.0797C11.7278 12.0808 11.7337 12.0819 11.7396 12.083C11.7255 12.1624 11.7111 12.2417 11.6963 12.3209C11.7596 12.5182 11.8976 12.043 12.001 11.9878C12.014 11.9815 12.0275 11.9808 12.042 11.9873C12.0447 12.0107 12.0474 12.0342 12.0503 12.0576C12.0401 12.1252 12.0284 12.1928 12.0153 12.2602C12.0518 12.4323 12.0726 12.4498 12.1268 12.5641C12.1477 12.4025 12.1456 12.3709 12.1478 12.1785C12.1557 12.1592 12.1633 12.1397 12.1705 12.1202C12.1989 12.2702 12.2259 12.3907 12.2656 12.5204C12.275 12.5023 12.284 12.4841 12.2928 12.4659C12.2093 11.4106 12.5071 12.1873 12.4795 11.8079C12.4671 11.7632 12.4545 11.7186 12.4418 11.674C12.4508 11.6658 12.4597 11.6574 12.4684 11.649C12.4868 11.6965 12.5054 11.7439 12.5241 11.7913C12.5509 11.9046 12.5748 12.0187 12.5958 12.1336C12.6075 12.1564 12.6193 12.1792 12.6312 12.2019C12.7382 12.0249 12.8325 11.8918 12.8658 11.6946C12.9604 11.8014 12.9215 11.7548 13.0351 11.9071C13.0394 11.8977 13.0436 11.8883 13.0477 11.8789C12.9544 11.7039 12.8563 11.5334 12.7532 11.367C12.7735 11.2676 13.0958 11.5209 13.0245 11.3145C12.9886 11.2259 12.9916 11.2202 13.0631 11.2381C13.1954 11.3508 13.1869 11.3504 13.3124 11.4373C13.3096 11.4261 13.3068 11.4149 13.3038 11.4038C13.2365 11.3412 13.1686 11.2793 13.1001 11.2181C13.1044 11.2135 13.1086 11.2089 13.1128 11.2043C13.1811 11.2541 13.2497 11.3035 13.3186 11.3524C13.302 11.1659 12.9917 11.0253 13.1897 10.9595C13.2165 10.9693 13.2435 10.9789 13.2705 10.9883C13.3532 11.0394 13.4353 11.0918 13.5165 11.1455C13.5757 11.1273 13.5822 11.1307 13.5057 11.0501C13.3632 10.9673 13.3275 10.9481 13.1719 10.8687C13.159 10.814 13.2001 10.8388 13.5097 10.9354Z" fill="black"/>
</svg>
