<svg width="24" height="24" viewBox="0 0 24 24" fill="none" xmlns="http://www.w3.org/2000/svg">
<path fill-rule="evenodd" clip-rule="evenodd" d="M18.585 5.20723C19.0618 5.16118 19.4055 5.25647 19.4386 5.2795C20.1766 5.87411 20.426 6.14863 20.7833 6.44454C21.0971 6.7353 21.4832 7.17523 21.3116 8.00411C21.2839 8.09021 21.2493 8.18279 21.2071 8.28145C21.1688 8.37359 21.5612 8.92967 21.5216 9.33028C21.3889 9.51976 21.3615 9.51294 21.1475 9.63985C21.1386 9.68767 21.1291 9.73559 21.1202 9.7834C21.3295 9.87481 21.2568 9.85093 21.4884 9.88399C21.4943 9.92137 21.501 9.95891 21.5069 9.99629C21.4631 10.046 21.4188 10.096 21.3751 10.1457C21.5099 10.4267 21.5532 10.3988 21.5245 10.6633C21.3329 10.8431 21.1584 10.9491 21.0968 11.1633C21.1821 11.2359 21.2683 11.3084 21.3536 11.3811C21.3296 11.7524 21.1303 12.0626 21.1973 12.5236C21.2262 12.7234 21.3542 14.1246 21.4014 14.0695C21.0174 14.5339 21.4381 15.0076 21.3917 15.4055C21.3739 15.6234 21.2554 15.8257 20.9864 15.9289C20.9905 16.2395 20.9604 16.4661 20.8292 16.7697C20.4746 16.9479 20.5444 16.8567 20.3077 17.0969C20.2735 17.348 20.3232 17.4347 20.3888 17.674C20.356 17.6998 20.3229 17.7259 20.2891 17.7502C20.2552 17.6754 20.219 17.601 20.1827 17.5275C19.722 17.6299 19.4946 18.3308 18.585 18.4172C18.5177 18.4237 18.4468 18.4251 18.3731 18.4182C18.3623 18.3947 18.3517 18.3703 18.3409 18.3469C18.4003 18.2797 18.4602 18.2128 18.5196 18.1457C18.3705 17.9733 18.29 17.9549 18.1036 17.8381C17.9871 17.9981 17.984 18.0296 17.9093 18.2209C17.8663 18.2396 17.8233 18.2588 17.7804 18.2775C17.7128 18.1256 17.651 18.0028 17.5577 17.8693C17.5137 17.8861 17.4698 17.9033 17.4259 17.9201C17.098 18.9796 16.2311 18.153 15.9063 18.5227C15.8953 18.5688 15.8841 18.6152 15.8731 18.6613C15.8054 18.6663 15.7377 18.672 15.67 18.677C15.6612 18.6261 15.6524 18.5745 15.6436 18.5236C15.7162 18.4081 15.7889 18.2925 15.8614 18.177C15.8438 18.1517 15.8262 18.126 15.8087 18.1008C15.1145 18.2342 14.4474 18.3107 13.7501 18.4592C13.6372 18.3183 13.6745 18.3781 13.6212 18.1887C13.5816 18.1941 13.5416 18.1998 13.502 18.2053C13.4057 18.4023 13.3075 18.5982 13.2081 18.7932C12.6331 18.8615 12.2328 18.4589 11.7052 18.6535C11.4684 18.7404 11.4063 18.7425 11.2071 18.677C11.2083 18.5031 11.2299 18.5095 11.1563 18.3576C11.1226 18.367 11.0885 18.3766 11.0548 18.3859C11.0266 18.4773 10.9989 18.569 10.9708 18.6604C10.9335 18.6599 10.8957 18.6598 10.8585 18.6594C10.8405 18.5751 10.8227 18.4907 10.8048 18.4065C10.1026 18.5297 10.3429 18.8682 9.32918 18.7287C9.30464 18.7005 9.2795 18.672 9.25496 18.6438C9.29893 18.5469 9.34283 18.4496 9.3868 18.3527C9.16791 18.309 9.18256 18.3015 8.9825 18.4055C8.91138 18.5696 8.89566 18.6101 8.84969 18.7844C8.55587 18.8186 8.56892 18.7704 8.42781 18.4475C7.33819 18.8657 8.20306 18.9352 6.9034 18.5607C6.01178 18.3033 6.17506 18.8507 5.4825 18.5227C5.26824 18.4566 5.00393 18.3332 4.73934 18.1047C4.5519 18.2601 4.6144 18.2038 4.51082 18.4299C4.37318 18.4126 3.74212 18.1826 3.23152 17.5959C2.70569 17.027 2.41519 16.1059 2.47566 15.4055C2.50537 15.0625 2.52695 14.7821 2.52937 14.6477C2.59941 14.5816 2.67027 14.5155 2.74031 14.4494C2.7191 14.2825 2.59264 13.5582 2.61434 13.4758C2.79495 12.7897 2.8471 12.1887 2.8868 11.4885C3.07689 11.4069 3.0017 11.4273 3.21687 11.4182C3.25176 11.2084 3.14807 11.161 2.96492 11.0305C2.98811 10.6833 3.07516 9.34597 3.20516 8.00411C3.26401 7.14943 3.87787 6.47695 4.42781 6.27071C4.98646 6.04609 5.40258 6.17702 5.47566 6.27852C5.47817 6.33108 5.4804 6.38415 5.4825 6.43672C5.28916 6.6661 5.10592 6.70962 4.91707 6.80391C4.8612 6.83157 4.80501 6.8617 4.75008 6.89571C4.9379 7.12959 5.0814 7.4149 5.25984 7.65352C5.76724 8.33256 6.28404 8.9986 6.77352 9.69649C6.95342 9.95256 7.13783 10.2028 7.34773 10.4289C7.44849 10.5368 7.59739 10.6122 7.67 10.7473C7.76756 10.9292 7.71969 11.2623 8.03914 11.1848C8.30976 11.1196 9.03928 12.098 9.21004 12.2746C9.40064 12.4729 9.64066 12.6192 9.84285 12.8049C9.99114 12.9413 10.0896 13.1336 10.2491 13.257C10.4115 13.3832 10.6435 13.4328 10.8116 13.5529C11.0988 13.7577 11.3806 13.9695 11.6612 14.1818C12.0238 14.4567 12.5406 14.3433 12.7286 14.0363C12.7871 13.9592 12.8458 13.8819 12.9034 13.8039C12.9211 13.8064 13.1248 13.8372 13.1358 13.8371C13.258 13.6716 13.384 13.0888 13.671 13.1428C13.7506 13.2054 13.8316 13.2677 13.9112 13.3303C13.9233 13.3146 13.9342 13.2981 13.9464 13.2824C13.7959 13.1362 13.8737 13.2079 13.7149 13.0647C13.7743 12.8938 13.9753 12.7278 14.1593 12.549C14.4564 12.2595 14.689 11.5584 15.1886 11.4924C15.2282 11.4881 15.3574 11.621 15.4307 11.6877C15.4432 11.6749 15.4554 11.6615 15.4679 11.6486C15.4229 11.5618 15.3063 11.3731 15.3389 11.344C15.5218 11.1881 15.2389 10.7178 15.6817 10.8752C15.7879 10.7393 15.7446 10.502 15.8887 10.4572C16.0185 10.5362 16.0754 10.5777 16.2081 10.6721C16.2242 10.6649 16.2408 10.6578 16.2569 10.6506C16.2315 10.5735 16.1998 10.4767 16.1612 10.3606C16.3305 10.0384 16.5394 9.73339 16.795 9.49239C16.8732 9.41768 16.8337 9.14876 16.8761 9.11348C17.1512 8.8878 17.2861 8.54149 17.5411 8.30587C17.5594 8.28943 17.701 8.30121 17.712 8.29708C17.8243 8.25425 18.0165 8.35222 18.0079 8.21114C17.9365 8.13295 17.8654 8.05397 17.794 7.97579C17.7894 7.94193 17.784 7.90808 17.7794 7.87422C17.9218 7.90574 17.9045 7.90791 18.0772 7.98653C18.0777 7.80479 17.9443 7.78056 17.9727 7.72188C18.0097 7.64671 18.4052 7.47531 18.4034 7.39473C18.3941 7.24603 18.2861 7.10828 18.3507 6.94161C18.3837 6.96027 18.4163 6.97959 18.4493 6.99825C18.717 7.14852 18.7421 7.17826 18.8692 7.14669C18.8613 7.11452 18.8527 7.08119 18.8448 7.04903C18.7309 6.97564 18.6279 6.90826 18.5138 6.83126C18.4887 6.76022 18.5543 6.6675 18.6602 6.56758C18.6351 6.56992 18.61 6.57196 18.585 6.5754C18.0008 6.63343 17.4073 6.66524 16.8282 6.65743C16.5784 6.65403 16.2013 6.87338 16.0753 6.86739C15.2588 6.8318 14.4747 6.98133 13.6749 6.967C13.6189 6.96624 13.4065 6.85656 13.3819 6.85176C13.1292 6.80232 12.9754 6.59633 12.7589 6.70235C12.7474 6.80818 12.7362 6.91488 12.7247 7.02071C12.6767 7.04801 12.6281 7.07544 12.5802 7.10274C12.3998 6.97963 12.4331 6.99056 12.2804 6.8127C11.983 6.94057 12.1603 7.05109 12.0186 7.07247C11.8362 7.09981 10.9042 6.94001 10.7813 7.0002C10.5541 7.11178 10.507 7.2848 10.13 7.35665C10.1066 7.31996 10.083 7.28298 10.0596 7.24629C9.86933 6.95057 9.87768 6.9127 9.61922 6.84493C9.5796 6.87317 9.5397 6.90165 9.50008 6.92989C9.5657 7.06255 9.62357 7.18318 9.68367 7.31856C9.44102 7.53874 7.27678 7.26705 6.78426 7.22872C6.70413 7.1303 6.62161 7.0376 6.5323 6.94942C6.47872 6.95034 6.42476 6.95143 6.37117 6.95235C6.06787 6.8907 5.70711 6.74132 5.4825 6.50118C5.50015 6.38288 5.51759 6.26401 5.53523 6.14571C6.45199 6.66652 8.68641 5.31581 9.10848 6.5002C9.09198 6.52568 9.07517 6.55187 9.05867 6.57735C8.94207 6.76003 8.8522 6.84653 8.86141 7.06075C8.9121 7.07512 8.96305 7.08935 9.01375 7.10372C9.29524 6.81971 9.21552 6.3994 9.2032 5.99434C9.84581 5.63369 9.67184 6.22244 10.1417 6.11739C11.0196 5.9216 11.7675 5.43293 12.6915 5.63008C13.1841 5.73543 13.0919 5.72716 13.3477 5.38985C13.8634 5.3659 13.9269 5.54597 14.3829 5.62813C14.5345 5.65551 14.7951 5.32973 15.1671 5.33516C15.2628 5.51299 15.237 5.43705 15.2413 5.65743C15.2783 5.66996 15.3156 5.682 15.3526 5.69454C15.4512 5.51229 15.4147 5.60945 15.419 5.37911C15.4521 5.38684 15.4856 5.39481 15.5186 5.40255C15.5469 5.47073 15.5754 5.53944 15.6036 5.60762C15.7988 5.63396 17.6122 5.33915 18.585 5.20723ZM18.8712 6.77657C18.9861 7.06365 19.3079 7.33708 19.5987 7.61934C19.657 8.07021 19.2941 7.60229 19.2247 7.82051C19.0949 8.22825 19.2109 8.80157 18.7891 8.94649C18.5636 9.02353 18.5972 9.00177 18.7579 9.31856C18.6171 9.49364 18.4702 9.38704 18.2725 9.46895C18.2079 9.49744 18.3564 9.80485 18.2393 9.91524C18.0846 9.81944 18.1464 9.865 17.9893 9.71114C17.9693 9.71364 17.9488 9.71645 17.9288 9.71895C18.0279 9.87814 17.9699 9.79898 18.1319 9.96309C18.1163 9.96779 18.0997 9.97109 18.0841 9.97579C18.0273 9.93644 17.9699 9.89697 17.9132 9.85762C17.8065 9.91582 17.2122 11.288 17.1387 11.2834C16.2409 11.2227 16.9976 11.976 16.1143 11.9836C16.0586 11.984 16.166 12.4318 16.0157 12.5275C15.8639 12.4921 15.8464 12.4705 15.6563 12.3586C15.6354 12.367 15.6138 12.3765 15.5929 12.385C15.7124 12.5598 15.6686 12.5016 15.8223 12.675C15.8152 12.6905 15.808 12.7064 15.8009 12.7219C15.7547 12.7063 15.7083 12.6906 15.6622 12.675C15.6717 12.8564 15.7108 12.8787 15.6095 12.9397C15.4186 12.8596 15.2626 12.7689 15.1534 12.7912C15.1916 12.8738 15.2304 12.9567 15.2686 13.0393C15.138 13.1363 14.9014 13.0908 14.8077 13.2795C14.7673 13.3607 14.431 13.8788 14.4786 13.8986C13.9023 13.7204 14.4268 14.6495 13.6846 14.1877C13.6618 14.3153 13.6487 14.4045 13.6016 14.5109C13.3808 14.4533 13.4044 14.4274 13.3096 14.5022C13.3481 14.6063 13.3915 14.6757 13.4552 14.7609C13.485 14.8104 13.5209 14.8652 13.5606 14.9357C13.5436 14.9517 13.5266 14.9682 13.5089 14.9836C13.4625 14.917 13.4145 14.8504 13.3663 14.7854C13.1927 14.8022 13.1576 14.9606 13.046 15.1555C12.9409 15.3457 12.7392 15.5708 12.4249 15.5656C12.4135 15.5431 12.4024 15.52 12.3917 15.4973C12.4366 15.4268 12.4765 15.3544 12.5108 15.2815C12.3784 15.1261 12.3243 15.1112 12.2081 14.9924C12.1274 15.1493 12.1211 15.1808 12.044 15.3654C12.0086 15.3801 11.9719 15.393 11.9346 15.4055C11.9071 15.2466 11.8881 15.1171 11.8653 14.9729C11.834 14.9817 11.8014 14.9896 11.7686 14.9963C11.4175 15.6005 11.0183 15.3049 10.8458 15.0393C10.8035 14.9528 10.76 14.8799 10.6309 14.9416C10.5956 14.9718 10.5598 15.0022 10.5245 15.0324C10.4998 15.0158 10.475 14.9982 10.4503 14.9816C10.4824 14.9423 10.5148 14.9028 10.547 14.8635C10.6495 14.8014 10.753 14.7391 10.8555 14.677C10.8673 14.6536 10.8789 14.63 10.8907 14.6066C10.5806 14.4958 10.3177 14.351 9.99617 14.2502C10.0576 14.1148 10.0289 14.169 10.1427 14.0158C10.1266 14.008 10.1099 14.0002 10.0938 13.9924C9.92782 14.1063 9.76231 14.2197 9.59676 14.3313C9.36883 14.2089 9.51996 13.7971 9.2198 13.7805C9.08567 13.7726 9.06533 13.7548 9.04793 13.6477C9.16777 13.5225 9.16973 13.5333 9.25105 13.4016C9.23445 13.3983 9.21786 13.395 9.20125 13.3918C9.12923 13.4498 9.05647 13.5077 8.98445 13.5656C8.9731 13.5542 8.96064 13.5429 8.9493 13.5315C9.00174 13.465 9.05506 13.3987 9.1075 13.3322C8.80206 13.2119 8.64438 13.5284 8.42195 13.1242C8.43366 13.0966 8.4454 13.0689 8.45711 13.0412C8.53777 12.9841 8.61864 12.9265 8.6993 12.8693C8.66075 12.7724 8.66949 12.7708 8.53523 12.7863C8.40001 12.8838 8.36695 12.9092 8.2325 13.0217C8.11678 12.9587 8.15423 12.9282 8.33211 12.6525C7.70155 12.6299 7.9256 12.9376 7.77547 12.2785C7.65203 11.7341 7.20659 12.4859 7.40535 11.4348C7.23642 11.5518 7.29432 11.5094 7.11824 11.6818C6.9924 11.6546 6.39364 10.698 6.24227 10.5412C6.26972 10.4709 6.29685 10.3997 6.3243 10.3293C6.25605 10.2944 5.94323 10.1693 5.93269 10.1291C5.84155 9.7932 5.68787 9.57613 5.49519 9.33809C5.60062 9.17589 5.55583 9.23602 5.70125 9.07735C5.65931 8.98942 5.57283 9.05091 5.40535 9.14473C5.27011 8.96962 4.57164 8.0723 4.21297 7.40254C4.09556 7.57565 4.01063 7.77634 3.98055 8.00411C3.96676 8.14188 3.9545 8.27943 3.94441 8.41622C3.80203 10.3432 3.67628 12.2646 3.50789 14.1916C3.47265 14.5966 3.43933 15.0009 3.41414 15.4055C3.39484 15.7182 3.45288 16.0407 3.58699 16.3322C3.73809 16.6636 4.03118 16.9268 4.29695 17.1613C4.60114 17.4475 5.04037 17.8134 5.4825 17.6535C5.52379 17.6363 5.56494 17.6144 5.60555 17.5871C5.95243 17.353 8.72887 17.5602 9.295 17.5705C9.92853 17.5828 10.5615 17.5236 11.1944 17.5188C11.6591 17.5153 12.129 17.5852 12.5919 17.5647C13.0639 17.5441 13.53 17.4215 14.002 17.3928C15.5279 17.2989 17.0569 17.2334 18.585 17.1555C19.1924 17.1258 19.7415 16.7501 19.9884 16.2404C20.0099 16.2394 20.2775 16.0857 20.2804 16.0725C20.3306 15.9178 20.3439 15.6582 20.293 15.4055C20.2129 14.921 20.145 14.385 20.295 14.1496C20.3955 14.1222 20.4962 14.095 20.5968 14.0676C20.5943 14.0215 20.5914 13.975 20.5889 13.9289C20.3786 13.935 20.4847 13.9278 20.2706 13.9523C20.1919 13.5767 20.2176 12.9777 20.2218 12.3859C20.2279 11.4296 19.8971 9.90652 20.2042 8.98555C20.2281 8.91313 20.4154 8.9198 20.5147 8.90938C20.5145 8.86809 20.514 8.82664 20.5138 8.78536C20.4207 8.71663 20.2023 8.59951 20.2061 8.49825C20.2131 8.31039 20.1564 8.15088 20.0948 8.00411C19.9687 7.77719 19.8176 7.70295 19.9893 7.38594C19.9687 7.34791 19.9444 7.31517 19.919 7.28536C19.7914 7.43726 19.6066 7.47826 19.2686 7.23165C19.2557 7.20868 19.2435 7.18528 19.2305 7.16231C19.1368 6.99753 19.1028 6.90925 18.9483 6.76094C18.9228 6.76634 18.8967 6.77117 18.8712 6.77657Z" fill="black"/>
</svg>
