<svg width="24" height="24" viewBox="0 0 24 24" fill="none" xmlns="http://www.w3.org/2000/svg">
<path d="M18.2534 4.87148C18.0932 5.17025 18.2204 5.21964 18.0294 4.95216C17.872 4.73115 17.9383 5.33991 17.7416 4.6979C17.7275 4.84165 17.7322 4.79079 17.7292 4.96681C17.6931 5.01569 17.321 4.81378 17.2475 4.80742C17.2378 4.75737 17.2281 4.70732 17.2184 4.65727C17.1938 4.67243 17.0874 4.76289 17.0754 4.74725C16.9745 4.61816 16.8862 4.58101 16.7832 4.55265C16.7712 4.41672 16.7743 4.47049 16.7729 4.31646C16.7421 4.29153 16.7351 4.36588 16.7159 4.49693C16.609 4.46221 15.8633 4.22551 15.8107 3.93115C15.8104 3.89349 15.81 3.85584 15.8096 3.81818C15.8463 3.65389 15.8933 3.64952 15.939 3.64561C16.069 3.63388 16.2022 3.75071 16.3319 3.79717C16.6151 3.89887 16.8974 3.98884 17.1806 4.10913C17.2846 4.15314 17.3882 4.19178 17.4925 4.20547C17.5425 4.21183 17.5966 4.17711 17.6461 4.21133C17.7126 4.25729 17.7784 4.4539 17.8387 4.25635C17.8897 4.08912 18.2977 4.23724 18.3808 4.24457C18.4739 4.25337 18.567 4.21087 18.66 4.20745C18.7283 4.205 18.7973 4.25536 18.8653 4.24069C18.9347 4.22602 19.0032 4.13801 19.0726 4.11747C19.2968 4.05042 19.5214 4.00403 19.746 3.94839L19.9563 4.00183L19.9245 4.12695C19.9497 4.22829 19.9766 4.32961 20.0083 4.43089C19.999 4.43422 19.8728 4.47789 19.8733 4.47853C19.8949 4.54746 20.1256 4.71752 19.953 4.77319C19.8811 4.77721 19.8093 4.78124 19.7374 4.78527C19.7392 4.79207 19.7409 4.79887 19.7427 4.80566C19.8933 4.80476 19.8171 4.80584 19.9701 4.80223C20.0264 4.85745 20.0083 4.94541 20.0053 5.03238C20.0009 5.17294 20.2371 5.39678 20.0176 5.53211C20.0005 5.54275 19.867 5.54168 19.7961 5.54321C19.7962 5.54932 19.7964 5.55542 19.7965 5.56153C19.863 5.57163 20.019 5.58877 20.0161 5.60366C20.0014 5.68495 20.3828 5.72996 20.0787 5.79817C20.0934 5.85627 20.2356 5.90274 20.1848 5.94803C20.0792 5.96012 20.0298 5.96373 19.9149 5.97284C19.9103 5.97846 19.9057 5.98409 19.9012 5.98971C19.953 6.00216 20.018 6.01759 20.0963 6.03627C20.173 6.15409 20.2205 6.27715 20.2127 6.39615C20.2102 6.43287 20.3672 6.48826 20.3628 6.50676C20.3373 6.62675 20.444 6.74197 20.4337 6.85952C20.4332 6.86774 20.355 6.89886 20.3516 6.90247C20.3164 6.93964 20.1692 6.96219 20.245 6.99404C20.3206 6.99572 20.3962 6.99741 20.4718 6.99909C20.4914 7.00616 20.5109 7.01322 20.5305 7.02029C20.4425 7.04682 20.4508 7.04195 20.3237 7.06441C20.4151 7.10817 20.4938 7.082 20.509 7.10293C20.5285 7.12973 20.4141 7.26657 20.4571 7.28463C20.5368 7.3181 20.6606 7.32497 20.7119 7.38045C20.6857 7.38388 20.6594 7.38731 20.6332 7.39074C20.422 7.41871 20.3951 7.41744 20.3467 7.45543C20.3669 7.46126 20.3871 7.46709 20.4073 7.47292C20.5021 7.46327 20.5882 7.4548 20.685 7.44596C20.8425 7.48152 20.6484 7.79964 20.621 7.87203C20.5506 7.88382 20.4846 7.8959 20.4215 7.90905C20.4221 7.91694 20.4228 7.92483 20.4235 7.93272C20.3794 7.97731 20.2728 8.03034 20.1012 8.06336C20.0166 8.06077 19.932 8.05817 19.8474 8.05557C20.2195 7.92085 19.2543 7.59257 20.1007 7.53058C20.1189 7.53302 20.1372 7.53545 20.1555 7.53788C20.286 7.55503 20.3476 7.5682 20.5007 7.56684C20.511 7.55939 20.5212 7.55193 20.5315 7.54447C20.3286 7.50306 20.0283 7.51478 19.7388 7.51659C19.4812 7.42214 19.9021 7.44775 19.8268 7.37865C19.687 7.24964 19.3383 7.13983 19.4792 7.00405C19.5545 6.93161 19.5486 6.94514 19.3076 6.90752C19.2904 6.83173 19.4186 6.82244 19.4773 6.75541C19.4968 6.73313 19.2645 6.69487 19.2685 6.64019C19.3956 6.62612 19.3408 6.62991 19.4983 6.62928C19.5072 6.62384 19.5162 6.61839 19.5251 6.61295C19.3946 6.59843 19.4645 6.60374 19.2997 6.60311C19.3053 6.59824 19.3108 6.59337 19.3163 6.5885C19.3651 6.58435 19.4138 6.5802 19.4625 6.57605C19.4879 6.53732 19.0959 6.06519 19.1354 6.04872C19.621 5.84843 18.8577 5.84878 19.3012 5.6356C19.33 5.62234 19.0484 5.54042 19.0768 5.48141C19.1716 5.45354 19.1912 5.45461 19.3442 5.43594C19.3506 5.4289 19.357 5.42186 19.3633 5.41482C19.2137 5.40138 19.266 5.4049 19.1002 5.40003C19.096 5.39453 19.0918 5.38902 19.0875 5.38352C19.1188 5.37621 19.1501 5.36891 19.1814 5.3616C19.0851 5.32028 19.0543 5.32443 19.0748 5.28555C19.2117 5.25911 19.3359 5.2435 19.38 5.21201C19.319 5.20134 19.258 5.19066 19.1971 5.17999C19.2142 5.1254 19.3565 5.07993 19.3086 5.01217C19.288 4.98302 19.1965 4.77652 19.1628 4.78491C19.5452 4.68982 18.8103 4.5922 19.4191 4.52553C19.3662 4.48944 19.3286 4.46499 19.2988 4.42818C19.4396 4.38921 19.4396 4.40111 19.4499 4.36052C19.3394 4.33625 19.266 4.33471 19.1042 4.32434C19.1043 4.3201 19.1045 4.31586 19.1046 4.31162C19.1622 4.3133 19.2197 4.31498 19.2772 4.31667C19.4099 4.26424 19.0632 4.2116 19.0232 4.12695L19.746 4.84977C19.7361 4.85444 19.7257 4.85493 19.7149 4.84996C19.7133 4.83317 19.7117 4.81638 19.7101 4.79959C19.7189 4.75151 19.7276 4.70344 19.7364 4.65536C19.7145 4.53214 19.7027 4.51941 19.6752 4.4358C19.6581 4.55021 19.6577 4.5727 19.6467 4.70961C19.6404 4.72299 19.6341 4.73636 19.6278 4.74973C19.6178 4.64118 19.6088 4.55363 19.5951 4.45827C19.5886 4.47033 19.5821 4.48239 19.5756 4.49444C19.5274 5.25138 19.4002 4.66076 19.3524 4.92478C19.3508 4.95787 19.3492 4.99097 19.3476 5.02406C19.3376 5.02764 19.3276 5.03123 19.3176 5.03482C19.3163 4.99846 19.315 4.9621 19.3137 4.92574C19.3244 4.8431 19.3351 4.76047 19.3457 4.67784C19.3432 4.65975 19.3406 4.64167 19.338 4.62358C19.2359 4.71893 19.138 4.77365 19.0355 4.87976C19.0189 4.77906 19.0244 4.82206 19.0165 4.68663C19.0107 4.69053 19.0049 4.69444 18.999 4.69834C18.9849 4.83917 18.9705 4.97907 18.9559 5.11843C18.8714 5.16733 18.8125 4.87928 18.735 5.01864C18.7001 5.08074 18.6911 5.08176 18.6618 5.03482C18.662 4.91062 18.6652 4.91547 18.6544 4.80691C18.6494 4.8136 18.6445 4.82029 18.6395 4.82697C18.6354 4.8925 18.6312 4.95802 18.6271 5.02355C18.6216 5.02323 18.6161 5.02291 18.6106 5.02259C18.608 4.96227 18.6053 4.90194 18.6027 4.84162C18.4995 4.92964 18.5348 5.1717 18.3858 5.07194C18.3822 5.05174 18.3786 5.03153 18.375 5.01132C18.3814 4.94204 18.3879 4.87276 18.3944 4.80348C18.3622 4.77218 18.3643 4.76685 18.3349 4.84117C18.3245 4.95852 18.3222 4.98737 18.3154 5.11206C18.2722 5.13651 18.2741 5.10227 18.2534 4.87148Z" fill="black"/>
<path d="M2.51094 10.0678C1.9134 9.05209 1.81463 9.8589 2.34958 8.64751C2.7916 7.649 1.57409 8.06957 2.85811 6.82216C2.5706 6.73232 2.67233 6.76202 2.32029 6.74314C2.28114 6.65144 2.32242 6.21812 2.3868 5.70152C2.42127 4.91766 2.83893 4.09349 3.37338 3.62169C3.90249 3.13215 4.48187 2.95887 4.72951 2.88984C4.86864 2.95257 4.99871 3.02519 5.11742 3.10601C5.19841 3.0817 5.36888 3.03069 5.57456 3.00217C5.82825 2.94138 6.15484 2.86516 6.2064 2.88636C6.84614 3.14454 7.40635 3.21885 8.05925 3.27557C8.13535 3.54742 8.11588 3.43988 8.12446 3.74793C8.32016 3.79781 8.36424 3.6491 8.48612 3.387C9.16422 3.45644 13.8942 3.92983 14.2272 4.51857C14.2297 4.59388 14.2322 4.66919 14.2347 4.7445C14.0018 5.07308 13.7037 5.08181 13.4136 5.08964C12.589 5.11311 11.7444 4.87943 10.9221 4.78653C9.13768 4.58445 7.3589 4.40555 5.57456 4.16734C5.563 4.16576 5.55143 4.16431 5.53986 4.16299C4.89239 4.07334 4.14647 4.49894 3.9157 5.20347C3.8625 5.35941 3.84894 5.53281 3.85667 5.70152C3.86507 5.87585 3.86748 6.05016 3.83125 6.21613C3.73932 6.63786 3.34611 7.05504 3.7412 7.43786C4.07566 7.76117 3.77944 10.3487 3.76477 10.8763C3.74716 11.4669 3.83217 12.0568 3.83901 12.6468C3.8439 13.08 3.7432 13.5177 3.77253 13.9492C3.80188 14.3892 3.97789 14.8235 4.01897 15.2636C4.11426 16.2741 4.18868 17.286 4.2637 18.298C4.31119 19.0011 4.98507 19.5074 5.57456 19.4127C5.80493 19.3922 6.03527 19.3707 6.26556 19.348C6.28673 19.3666 6.5637 19.6189 6.56771 19.6179C7.0049 19.5748 8.08354 19.1133 8.43659 19.4586C8.46215 19.6023 8.4877 19.7461 8.51326 19.8898C8.55637 19.8862 8.59947 19.8827 8.64257 19.8791C8.63685 19.5779 8.64372 19.7304 8.62083 19.4243C8.97103 19.3118 9.52894 19.348 10.0806 19.3539C10.9721 19.3627 12.3917 18.8903 13.2501 19.3294C13.3176 19.3636 13.3108 19.6306 13.3205 19.7724C13.3592 19.7721 13.3979 19.7718 13.4367 19.7715C13.5008 19.6385 13.6095 19.3265 13.7039 19.3324C14.2194 19.3617 14.505 18.5989 14.9376 19.2072C15.3061 19.1778 15.6008 18.8933 15.8881 18.995C15.9647 19.2062 15.9876 19.305 16.0454 19.5349C16.0811 19.544 16.1168 19.5531 16.1524 19.5622C16.2314 19.4586 16.3293 19.3285 16.4477 19.172C17.0117 19.0561 17.5946 18.9736 18.1711 18.9469C18.2507 18.9381 18.3227 18.9219 18.3941 18.8996C18.5061 18.8631 18.4073 18.5365 18.4159 18.5354C18.5037 18.4848 18.4924 18.368 18.4419 18.298C18.4008 17.9567 18.3607 17.6166 18.3702 17.2733C18.3712 17.2212 18.5276 17.0238 18.5345 17.0009C18.6049 16.7652 18.8992 16.6221 18.7477 16.4202C18.5964 16.4095 18.4452 16.3988 18.2939 16.3881C18.2548 16.3433 18.2157 16.2984 18.1766 16.2536C18.3526 16.0854 18.336 16.1163 18.5903 15.9738C18.4074 15.6963 18.25 15.8622 18.2197 15.7295C18.1805 15.5595 18.4093 14.6916 18.3233 14.577C18.1639 14.3647 17.9165 14.3212 17.8138 13.9693C17.8662 13.9476 17.9187 13.9258 17.9712 13.9041C18.3937 13.7267 18.4475 13.7347 18.5443 13.4938C18.5039 13.4568 18.4635 13.4198 18.423 13.3828C18.2333 13.444 18.0612 13.4978 17.8675 13.5538C17.5527 13.3283 17.9409 11.3106 17.9956 10.8514C18.1365 10.7767 18.2685 10.7 18.3946 10.6167C18.3933 10.5666 18.392 10.5166 18.3907 10.4665C18.4787 10.1837 18.692 9.84736 19.0353 9.63793C19.2044 9.65439 19.3736 9.67086 19.5428 9.68733C18.7986 10.5418 20.729 12.624 19.0363 13.0171C18.9997 13.0017 18.9632 12.9862 18.9266 12.9708C18.6655 12.8621 18.5423 12.7785 18.2362 12.7871C18.2157 12.8344 18.1951 12.8817 18.1746 12.929C18.5804 13.1916 19.181 13.1173 19.7599 13.1059C20.2752 13.7049 19.4333 13.5424 19.5839 13.9807C19.8636 14.799 20.5609 15.4954 20.2793 16.3566C20.1287 16.8161 20.1404 16.7303 20.6225 16.9689C20.6567 17.4496 20.4005 17.5085 20.2831 17.9336C20.2596 18.0184 20.4174 18.1397 20.5458 18.298C20.6315 18.4548 20.6878 18.6626 20.633 18.8807C20.3524 18.9556 20.4674 18.9413 20.1628 18.8633C20.1332 18.9021 20.1024 18.9396 20.0707 18.9752C20.2731 19.1801 20.1556 19.092 20.4606 19.2183C20.4322 19.259 20.4027 19.2989 20.3723 19.3373C20.2667 19.3325 20.1623 19.3229 20.0595 19.3084C19.9981 19.4114 19.4909 20.5987 18.1711 20.7715C17.3701 20.9533 16.5795 21.1337 16.5267 21.0937C15.2563 20.1226 15.2586 21.6492 13.9065 20.7622C13.8223 20.7045 13.3028 21.2677 12.9285 21.211C12.7517 21.0213 12.7586 20.9822 12.6401 20.6761C12.5955 20.6634 12.5508 20.6506 12.5062 20.6379C12.4209 20.9371 12.4433 20.8326 12.4124 21.1641C12.3775 21.1726 12.3425 21.181 12.3076 21.1895C12.2613 21.1269 12.215 21.0643 12.1686 21.0017C11.9065 21.1944 11.9328 21.256 11.6862 21.2149C11.5186 20.9411 11.4196 20.6927 11.2199 20.6046C11.1522 20.7266 11.0844 20.8485 11.0167 20.9704C10.6705 20.9362 10.3821 20.6516 9.95237 20.7474C9.76748 20.7885 8.45776 20.9715 8.51097 21.0389C7.90785 20.2742 7.2887 21.744 6.86583 20.5265C6.63694 20.6321 6.48186 20.7074 6.2484 20.767C6.00121 20.4854 6.07672 20.4853 5.81923 20.4648C5.66531 20.6858 5.65558 20.8326 5.58979 21.1562C5.58471 21.1562 5.57964 21.1561 5.57456 21.1561C5.53511 21.1558 5.49576 21.1548 5.45657 21.1529C5.48045 21.0387 5.50206 20.9242 5.5214 20.8095C5.23628 20.6526 4.95552 20.7618 4.53077 20.7785C4.12257 20.7985 3.54815 20.6852 3.18947 20.1516C3.20409 20.1157 3.21924 20.0802 3.23492 20.0451C3.37349 20.0698 3.51022 20.0831 3.64365 20.0857C3.6752 19.7521 3.6288 19.6483 3.6511 19.3504C3.3764 19.3203 3.33415 19.332 3.03561 19.329C2.98452 19.2743 2.93517 19.2168 2.88776 19.1563C3.06094 18.9837 3.20689 18.8493 3.37222 18.6929C3.33815 18.6393 3.30611 18.5839 3.27618 18.526C3.05777 18.4844 2.89193 18.4046 2.77332 18.298C2.05007 17.9312 2.858 17.2987 2.40434 17.0386C2.33816 17.0283 2.27197 17.018 2.20579 17.0077C2.19862 16.9444 2.19144 16.881 2.18427 16.8177C2.25699 16.8095 2.32971 16.8013 2.40243 16.7931C2.5677 16.8608 2.73296 16.9285 2.89823 16.9963C2.9344 16.9798 2.97057 16.9634 3.00674 16.947C2.81604 16.2998 2.7066 15.6784 2.49438 15.0283C2.69578 14.9231 2.60978 14.958 2.88066 14.9082C2.87284 14.8712 2.86503 14.8342 2.85722 14.7972C2.57557 14.7073 2.29577 14.6164 2.01705 14.5237C1.91925 13.9875 2.49534 13.6144 2.21662 13.1223C2.09242 12.9014 2.09038 12.8442 2.18427 12.6582C2.43267 12.6594 2.42297 12.68 2.64008 12.6113C2.62671 12.5798 2.61333 12.5484 2.59996 12.5169C2.46891 12.4906 2.33786 12.4642 2.20681 12.4379C2.20745 12.4032 2.20808 12.3685 2.20872 12.3338C2.32937 12.317 2.45002 12.3002 2.57067 12.2834C2.39463 11.6288 1.91052 11.8531 2.11002 10.9078C2.15043 10.8849 2.19085 10.862 2.23126 10.8391C2.36983 10.8801 2.50839 10.9211 2.64696 10.9622C2.70954 10.7579 2.72021 10.7716 2.57156 10.5851C2.33686 10.5187 2.27916 10.5044 2.02978 10.4615C1.98089 10.1874 2.04936 10.1994 2.51094 10.0678Z" fill="black"/>
<path d="M15.6848 5.93779C15.4715 5.31579 15.2454 5.39464 15.8514 5.55624C16.3517 5.69024 15.4297 4.88697 16.5594 5.58429C16.3787 5.35935 16.443 5.43855 16.2039 5.1801C16.1813 5.06663 16.9216 4.91926 17.0216 4.84155C17.1027 4.90256 17.1838 4.96357 17.2649 5.02457C17.2744 4.97361 17.2818 4.71674 17.3183 4.72522C17.6215 4.79295 17.7824 4.74234 17.9493 4.66173C18.1517 4.84441 18.0737 4.77017 18.2878 4.99164C18.3605 4.99128 18.2666 4.87538 18.1097 4.66287C18.2903 4.58677 19.5424 4.04803 20.0136 4.41228C20.066 4.46636 20.1184 4.52043 20.1708 4.5745C20.3519 4.85584 20.2995 4.91773 20.2482 4.97747C20.103 5.14814 19.7765 5.13634 19.5516 5.22232C19.0598 5.40978 18.5853 5.61319 18.0679 5.77375C17.8781 5.83298 17.6962 5.89944 17.5477 6.003C17.4769 6.05288 17.4576 6.16715 17.3491 6.17603C17.2032 6.18806 16.8503 5.98107 17.0479 6.33852C17.2153 6.64098 16.5046 6.90872 16.3913 6.99643C16.2636 7.09374 16.2067 7.26526 16.096 7.38017C16.0146 7.46444 15.8595 7.4731 15.7953 7.57476C15.7294 7.67802 15.7658 7.88642 15.708 7.99818C15.4383 8.52378 15.1076 8.98732 14.8436 9.51962C14.8267 9.51011 14.5985 9.37906 14.5984 9.38051C14.5425 9.49316 14.6497 10.0284 14.3425 9.8442C14.2384 9.74487 14.1343 9.64554 14.0301 9.54621C14.0241 9.55683 14.0182 9.56745 14.0122 9.57806C14.221 9.79511 14.1145 9.68597 14.3301 9.90334C14.3391 10.05 14.205 10.1278 14.093 10.2264C13.9125 10.3862 13.9604 10.9928 13.4896 10.8348C13.4528 10.8226 13.2701 10.6281 13.1704 10.5272C13.163 10.5346 13.1556 10.5421 13.1482 10.5495C13.2274 10.6577 13.4213 10.9039 13.3988 10.9173C13.2777 10.9921 13.7478 11.5977 13.2437 11.2379C13.1918 11.3278 13.3304 11.5888 13.204 11.5687C13.0434 11.43 12.9707 11.3627 12.8009 11.207C12.7876 11.2071 12.7744 11.2071 12.7611 11.2072C12.8171 11.2969 12.8877 11.4094 12.9724 11.5448C12.9321 11.7952 12.8448 12.0094 12.6863 12.1388C12.6373 12.1786 12.785 12.4714 12.756 12.4869C12.572 12.5919 12.5761 12.8825 12.416 13.0066C12.4051 13.0156 12.2586 12.9391 12.2494 12.9384C12.1547 12.9314 11.9237 12.7449 11.9887 12.8923C12.091 13.0038 12.1932 13.1153 12.2954 13.2268C12.3136 13.2635 12.3318 13.3002 12.35 13.3368C12.1957 13.2407 12.2132 13.247 12.0099 13.0895C12.0818 13.2736 12.2228 13.3567 12.2177 13.4034C12.2114 13.4634 11.8838 13.4594 11.9207 13.5431C11.9891 13.6981 12.1512 13.8854 12.1532 14.0253C12.1127 13.9914 12.0723 13.9574 12.0319 13.9235C11.7058 13.6506 11.6702 13.6102 11.5563 13.585C11.577 13.6211 11.5976 13.6573 11.6182 13.6934C11.761 13.8194 11.8903 13.9341 12.0348 14.0638C12.2078 14.3339 11.5452 14.4288 11.4176 14.4747C11.3059 14.3867 11.1998 14.3053 11.0965 14.2295C11.0876 14.2398 11.0787 14.2501 11.0698 14.2604C10.9538 14.2494 10.7409 14.1576 10.4632 13.9481C10.3497 13.8225 10.2363 13.6969 10.1228 13.5713C10.8033 13.951 9.87941 12.165 11.1237 13.3175C11.1459 13.3469 11.1681 13.3762 11.1903 13.4056C11.3491 13.6149 11.4177 13.7197 11.6305 13.9398C11.6539 13.9458 11.6773 13.9519 11.7008 13.9579C11.4723 13.6151 11.0436 13.1941 10.6421 12.777C10.4039 12.2922 10.9527 12.9321 10.9346 12.7414C10.9019 12.3863 10.5573 11.7516 10.92 11.795C11.1138 11.8185 11.089 11.826 10.8031 11.4324C10.8736 11.318 11.0619 11.4926 11.226 11.4983C11.2806 11.5003 11.0078 11.1187 11.081 11.0597C11.2738 11.2272 11.1936 11.1524 11.4115 11.3797C11.4307 11.3862 11.4498 11.3928 11.4689 11.3993C11.3068 11.1931 11.3967 11.3006 11.1702 11.0612C11.1839 11.0635 11.1975 11.0657 11.2112 11.068C11.2836 11.1337 11.356 11.1993 11.4283 11.265C11.5114 11.256 11.5567 10.1301 11.6317 10.1679C12.55 10.6344 11.4967 9.52934 12.3731 9.91964C12.4293 9.94574 12.1426 9.44107 12.2549 9.41238C12.4203 9.51681 12.446 9.54641 12.6802 9.74597C12.6978 9.74687 12.7153 9.74777 12.7328 9.74867C12.5431 9.51608 12.6108 9.59595 12.3882 9.35011C12.3892 9.33749 12.3903 9.32487 12.3913 9.31224C12.4435 9.34892 12.4957 9.3856 12.5479 9.42227C12.4664 9.23392 12.4187 9.19421 12.4953 9.17799C12.717 9.34503 12.9077 9.50649 13.0075 9.533C12.9366 9.43209 12.8658 9.33119 12.795 9.23028C12.8863 9.19054 13.139 9.34289 13.157 9.19339C13.1649 9.12919 13.295 8.7526 13.2381 8.71365C13.8835 9.15504 12.991 7.97529 13.9134 8.77815C13.8854 8.65901 13.8638 8.57557 13.8684 8.48886C14.111 8.64675 14.0962 8.66084 14.1608 8.62773C14.0385 8.439 13.9392 8.33093 13.7288 8.08428C13.7343 8.07948 13.7398 8.07468 13.7452 8.06988C13.8225 8.15521 13.8998 8.24054 13.9771 8.32587C14.2541 8.47123 13.7066 7.75018 13.9004 7.69666C13.9255 7.71909 13.9507 7.74152 13.9758 7.76395C14.0312 7.84392 14.0867 7.9239 14.1421 8.00387C14.3393 8.15642 14.3715 8.16087 14.5209 8.24955C14.3844 8.06359 14.3538 8.03058 14.1786 7.81929C14.168 7.79246 14.1574 7.76563 14.1468 7.73879C14.3089 7.88428 14.4408 8.00041 14.5893 8.1223C14.5808 8.09716 14.5722 8.07202 14.5636 8.04688C13.5794 6.89367 14.552 7.59859 14.2471 7.15979C14.2035 7.10994 14.1599 7.0601 14.1162 7.01025C14.1237 6.99325 14.1311 6.97625 14.1386 6.95925C14.1903 7.01039 14.2421 7.06152 14.2938 7.11265C14.3946 7.24495 14.4953 7.37724 14.596 7.50954C14.6242 7.53267 14.6523 7.5558 14.6805 7.57894C14.6756 7.32023 14.7218 7.12515 14.7026 6.85033C14.8621 6.97655 14.796 6.92078 14.9925 7.10765C14.9944 7.0951 14.9962 7.08254 14.9981 7.06999C14.8214 6.84929 14.6463 6.62972 14.4722 6.41062C14.5097 6.23987 14.98 6.5875 14.884 6.29395C14.8416 6.16284 14.8514 6.1507 14.9526 6.18403C15.1236 6.36412 15.1129 6.36094 15.2761 6.50536C15.273 6.48981 15.27 6.47426 15.2669 6.45871C15.1817 6.3589 15.0964 6.2591 15.0112 6.1593C15.0184 6.15328 15.0257 6.14728 15.0329 6.14127C15.1194 6.2255 15.2059 6.30974 15.2924 6.39398C15.2991 6.14451 14.9213 5.83574 15.2439 5.80403C15.2763 5.82903 15.3086 5.85402 15.341 5.87902C15.4285 5.98701 15.516 6.09499 15.6036 6.20298C15.6867 6.21023 15.6914 6.22051 15.6254 6.0781C15.4765 5.89578 15.4395 5.85132 15.2759 5.66274C15.2958 5.57625 15.3407 5.62808 15.6848 5.93779Z" fill="black"/>
</svg>
