<svg width="24" height="25" viewBox="0 0 24 25" fill="none" xmlns="http://www.w3.org/2000/svg">
<path d="M1.9027 19.3132C1.61637 19.21 1.56904 19.2919 1.82538 19.1689C2.03718 19.0674 1.45378 19.1101 2.06905 18.9834C1.93128 18.9743 1.98003 18.9773 1.81134 18.9754C1.7645 18.9521 1.958 18.7123 1.96409 18.6649C2.01205 18.6587 2.06002 18.6524 2.10799 18.6462C2.09346 18.6304 2.00676 18.5617 2.02176 18.554C2.14547 18.489 2.18107 18.4321 2.20825 18.3657C2.33851 18.358 2.28699 18.36 2.4346 18.3591C2.45849 18.3392 2.38724 18.3348 2.26165 18.3224C2.29492 18.2535 2.52176 17.7729 2.80386 17.739C2.83995 17.7388 2.87603 17.7385 2.91212 17.7383C3.06957 17.7619 3.07375 17.7922 3.0775 17.8217C3.08875 17.9055 2.97678 17.9913 2.93226 18.0749C2.83479 18.2574 2.74857 18.4393 2.63329 18.6218C2.59112 18.6888 2.55408 18.7556 2.54096 18.8229C2.53487 18.8551 2.56815 18.8899 2.53535 18.9218C2.4913 18.9647 2.30288 19.007 2.4922 19.0459C2.65247 19.0788 2.51052 19.3417 2.50349 19.3953C2.49506 19.4553 2.53579 19.5153 2.53907 19.5752C2.54141 19.6192 2.49316 19.6637 2.50722 19.7075C2.52128 19.7522 2.60562 19.7964 2.6253 19.8411C2.71855 20.0508 2.7701 20.261 2.86757 20.4709C2.85867 20.4731 2.73779 20.5012 2.73826 20.5016C2.75888 20.5461 2.98002 20.6557 2.8146 20.6915C2.74572 20.6941 2.67685 20.6967 2.60797 20.6993C2.60968 20.7037 2.61139 20.7081 2.6131 20.7125C2.75742 20.7119 2.68436 20.7126 2.83102 20.7102C2.88491 20.7458 2.86758 20.8025 2.86477 20.8586C2.86055 20.9492 3.08688 21.0934 2.87648 21.1806C2.86008 21.1875 2.73219 21.1868 2.66423 21.1878C2.66438 21.1917 2.66452 21.1956 2.66466 21.1996C2.7284 21.2061 2.87789 21.2171 2.87508 21.2267C2.86103 21.2791 3.22653 21.3081 2.93507 21.3521C2.94913 21.3895 3.08547 21.4195 3.03674 21.4486C2.93553 21.4564 2.88817 21.4588 2.77805 21.4646C2.77367 21.4683 2.7693 21.4719 2.76493 21.4755C2.8146 21.4835 2.87693 21.4935 2.95191 21.5055C3.02548 21.5814 3.07096 21.6607 3.06346 21.7374C3.06112 21.7611 3.21151 21.7968 3.2073 21.8087C3.18293 21.886 3.28513 21.9603 3.27528 22.0361C3.27479 22.0413 3.19984 22.0614 3.19656 22.0637C3.16282 22.0877 3.02179 22.1022 3.0944 22.1227C3.16688 22.1238 3.23936 22.1249 3.31184 22.126C3.33057 22.1306 3.34931 22.1351 3.36804 22.1397C3.28369 22.1568 3.29167 22.1536 3.16983 22.1681C3.25746 22.1963 3.33289 22.1794 3.34742 22.1929C3.36616 22.2102 3.25653 22.2984 3.29774 22.31C3.37412 22.3316 3.4927 22.336 3.54191 22.3718C3.51676 22.374 3.49162 22.3762 3.46648 22.3784C3.26404 22.3964 3.23826 22.3956 3.19186 22.4201C3.21123 22.4238 3.23059 22.4276 3.24996 22.4314C3.34087 22.4251 3.42337 22.4197 3.51615 22.414C3.66702 22.4369 3.481 22.6419 3.45476 22.6886C3.38729 22.6962 3.32401 22.7039 3.26357 22.7124C3.2642 22.7175 3.26483 22.7226 3.26546 22.7277C3.22328 22.7564 3.12109 22.7906 2.95661 22.8119C2.87555 22.8102 2.79448 22.8085 2.71342 22.8068C3.07001 22.72 2.14501 22.5085 2.95612 22.4685C2.97363 22.4701 2.99115 22.4716 3.00866 22.4732C3.13378 22.4843 3.19281 22.4928 3.33948 22.4919C3.34933 22.4871 3.35917 22.4823 3.36902 22.4775C3.17455 22.4508 2.88679 22.4583 2.60937 22.4595C2.36244 22.3986 2.76586 22.4151 2.69371 22.3706C2.55969 22.2875 2.22555 22.2167 2.36051 22.1292C2.43268 22.0825 2.42707 22.0912 2.19605 22.067C2.17965 22.0181 2.30244 22.0122 2.35868 21.969C2.37742 21.9546 2.15483 21.9299 2.15858 21.8947C2.2804 21.8856 2.22793 21.8881 2.37882 21.8877C2.3874 21.8842 2.39599 21.8807 2.40457 21.8772C2.27946 21.8678 2.34646 21.8712 2.18854 21.8708C2.19385 21.8677 2.19916 21.8645 2.20447 21.8614C2.25117 21.8587 2.29788 21.856 2.34458 21.8534C2.36892 21.8284 1.99319 21.5242 2.03109 21.5135C2.49642 21.3845 1.76493 21.3847 2.18994 21.2473C2.21759 21.2388 1.94772 21.186 1.97489 21.1479C2.0658 21.13 2.08454 21.1307 2.2312 21.1186C2.2373 21.1141 2.2434 21.1096 2.2495 21.105C2.10611 21.0964 2.15621 21.0986 1.99735 21.0955C1.9933 21.0919 1.98925 21.0884 1.9852 21.0849C2.01519 21.0801 2.04517 21.0754 2.07515 21.0707C1.98284 21.0441 1.95332 21.0468 1.973 21.0217C2.10421 21.0047 2.22326 20.9946 2.26543 20.9743C2.20701 20.9674 2.14859 20.9606 2.09017 20.9537C2.10657 20.9185 2.24295 20.8892 2.19702 20.8455C2.17734 20.8268 2.08967 20.6937 2.05733 20.6991C2.42379 20.6378 1.71949 20.5749 2.3029 20.5319C2.25229 20.5087 2.21621 20.4929 2.18762 20.4692C2.32258 20.4441 2.3226 20.4518 2.33244 20.4256C2.22654 20.4099 2.15623 20.409 2.00113 20.4023C2.00127 20.3995 2.00141 20.3968 2.00156 20.3941C2.0567 20.3952 2.11185 20.3962 2.167 20.3973C2.30898 20.3596 1.87787 20.3217 1.92332 20.2551C1.93941 20.254 1.9555 20.253 1.97159 20.252C2.01767 20.2576 2.06374 20.2633 2.10982 20.2689C2.22791 20.2548 2.2401 20.2471 2.32023 20.2295C2.21059 20.2184 2.18903 20.2182 2.05782 20.2111C2.04501 20.207 2.03219 20.203 2.01938 20.1989C2.12341 20.1925 2.20731 20.1867 2.29869 20.1778C2.28714 20.1737 2.27558 20.1695 2.26403 20.1653C1.53862 20.1342 2.10464 20.0522 1.85162 20.0214C1.8199 20.0204 1.78819 20.0194 1.75648 20.0183C1.75304 20.0119 1.7496 20.0054 1.74616 19.999C1.78101 19.9982 1.81586 19.9973 1.8507 19.9965C1.92989 20.0034 2.00908 20.0103 2.08827 20.0171C2.10561 20.0155 2.12294 20.0138 2.14027 20.0121C2.04889 19.9464 1.99645 19.8832 1.89476 19.8172C1.99127 19.8065 1.95006 19.81 2.07985 19.805C2.07611 19.8012 2.07237 19.7975 2.06862 19.7937C1.93366 19.7846 1.79959 19.7753 1.66604 19.7659C1.61918 19.7114 1.89522 19.6735 1.76167 19.6235C1.70215 19.6011 1.70118 19.5953 1.74616 19.5764C1.86519 19.5765 1.86055 19.5786 1.96458 19.5716C1.95817 19.5684 1.95176 19.5652 1.94535 19.562C1.88256 19.5593 1.81976 19.5567 1.75697 19.554C1.75727 19.5505 1.75758 19.5469 1.75788 19.5434C1.81569 19.5417 1.8735 19.54 1.93132 19.5383C1.84697 19.4718 1.61499 19.4946 1.71059 19.3985C1.72995 19.3962 1.74932 19.3939 1.76868 19.3915C1.83508 19.3957 1.90147 19.3999 1.96787 19.404C1.99786 19.3833 2.00297 19.3847 1.93174 19.3657C1.81928 19.359 1.79163 19.3575 1.67214 19.3532C1.64871 19.3253 1.68152 19.3265 1.9027 19.3132Z" fill="black"/>
<path d="M1.02942 12.3551C1.02158 12.2671 1.01465 12.1926 1.0079 12.1293L1.0231 12.078C1.02902 11.7307 0.997765 11.6847 1.0277 11.609C1.06471 11.54 1.15778 11.4025 1.58056 11.029C1.97164 10.7113 2.01577 10.5754 2.11521 10.4263C2.213 10.2914 2.39603 10.1314 3.03177 10.122C3.03528 9.96256 3.03608 10.018 2.9708 9.86145C3.13006 9.62489 5.1821 9.21245 5.56635 9.24909C5.62368 9.29074 5.68137 9.33282 5.73642 9.3756C5.8611 9.34392 6.42025 9.22805 6.48571 9.24577C7.02071 9.36073 7.47366 9.4222 8.00006 9.5149C8.04493 9.65198 8.03559 9.5989 8.02326 9.74613C8.17521 9.79067 8.21944 9.72581 8.3366 9.61703C8.6055 9.67189 9.68174 9.93854 10.6126 10.4352C11.5555 10.9137 12.2971 11.6086 12.3075 11.7974C12.2874 11.8275 12.2674 11.8575 12.2473 11.8876C12.0132 11.909 11.8321 11.7886 11.6474 11.6776C11.1258 11.3637 10.6013 10.991 10.0254 10.7376C8.77008 10.1882 7.38662 9.89361 5.9745 9.88206C5.45594 9.87973 4.93357 9.92717 4.42388 10.0597C4.18058 10.1229 3.93372 10.2452 3.69279 10.3149C3.37153 10.4057 2.96668 10.4169 2.81786 10.7584C2.73342 10.9324 1.94471 11.5507 1.69656 12.3025C1.58518 12.6653 1.53121 12.9846 1.51488 13.1244C1.45935 13.5935 1.50904 14.0701 1.5623 14.5318C1.60131 14.8722 1.61395 15.2239 1.70595 15.5561C1.79931 15.8938 1.9772 16.1999 2.1092 16.5191C2.73254 18.0151 3.64535 19.3839 4.80602 20.4729C4.80989 20.4907 4.87194 20.7285 4.87527 20.7305C5.12706 20.9685 5.89126 21.3418 6.00913 21.6277C5.98308 21.6944 5.95741 21.7613 5.93211 21.8284C5.96021 21.8473 5.98861 21.8663 6.01698 21.885C6.09876 21.766 6.05972 21.828 6.13237 21.6993C6.38044 21.816 6.72172 22.0693 7.08916 22.2752C7.68893 22.6292 8.74971 22.7765 9.34393 23.07C9.39128 23.0945 9.36629 23.2199 9.36306 23.2882C9.39286 23.2928 9.4227 23.2971 9.45258 23.3013C9.51163 23.2455 9.61244 23.108 9.68227 23.1184C10.0762 23.1724 10.2823 22.8091 10.6062 23.0885C10.8841 23.061 11.0774 22.8995 11.2933 22.9129C11.3162 22.9414 11.3346 22.9651 11.3509 22.9874L11.0895 23.4263C11.1204 23.3456 11.1624 23.3026 11.2345 23.2529C11.2368 23.2134 11.2432 23.1782 11.2508 23.1452C11.2087 23.0667 11.1657 22.9674 11.116 22.854C11.2052 22.2553 11.2117 21.7693 11.0928 21.2692C11.0705 21.1694 10.9698 21.0574 10.8929 20.9766L11.4809 21.33C11.4093 21.3628 11.3484 21.3865 11.3115 21.3884C10.637 21.4285 9.94215 21.4383 9.30389 21.1951C9.2583 21.179 9.12102 21.0436 9.10458 21.0323C8.9232 20.918 8.87752 20.7373 8.69055 20.7188C8.6477 20.778 8.60454 20.837 8.56105 20.8958C8.5167 20.8927 8.47227 20.889 8.42775 20.8848C8.34019 20.7351 8.35947 20.7557 8.31924 20.5861C8.069 20.5266 8.14712 20.6684 8.04162 20.6142C7.89456 20.5498 7.38047 19.9793 7.2901 19.9361C7.10523 19.864 6.99175 19.9227 6.7433 19.7291C6.74875 19.6979 6.75433 19.6668 6.76011 19.6358C6.80703 19.3852 6.83214 19.3759 6.73568 19.1901C6.70084 19.1787 6.66603 19.167 6.63125 19.1551C6.5937 19.2527 6.55992 19.341 6.52083 19.4385C6.24 19.4008 5.40864 17.8417 5.29467 17.4675C5.32548 17.3791 5.35329 17.2927 5.37778 17.2044C5.35887 17.1666 5.33979 17.1278 5.32147 17.09C5.25827 16.8564 5.24364 16.5515 5.33989 16.3338C5.42053 16.3183 5.50108 16.3023 5.58153 16.2861C5.47716 17.1198 7.11554 18.0341 6.67337 18.7345C6.65183 18.7352 6.63027 18.7358 6.60859 18.7361C6.45461 18.74 6.36561 18.7178 6.25139 18.8101C6.26711 18.8483 6.28319 18.8866 6.29963 18.9249C6.59014 18.9861 6.77702 18.7549 6.99138 18.5792C7.47503 18.789 7.08485 18.947 7.37288 19.1606C7.92366 19.5505 8.52425 19.6251 9.00091 20.0519C9.26697 20.2769 9.22446 20.2425 9.47263 20.1016C9.79335 20.2139 9.79166 20.3406 10.0831 20.4707C10.1829 20.5119 10.3927 20.3288 10.6276 20.3501C10.6808 20.476 10.6685 20.4223 10.6619 20.5732C10.6867 20.5833 10.7117 20.5931 10.737 20.6027C10.8096 20.4801 10.7819 20.546 10.7894 20.3883C10.8109 20.3942 10.833 20.3999 10.8545 20.4054C10.8724 20.4523 10.8911 20.499 10.9106 20.5456C10.9563 20.5512 11.1343 20.531 11.3684 20.4676L11.6011 20.4256L11.7072 20.6712C11.9008 21.0316 12.0884 21.6083 12.0997 22.1181C12.1159 22.6308 12.0378 22.9953 12.025 23.0136C11.8948 23.152 11.8589 23.2901 11.8234 23.1817L11.9985 23.6326L11.4853 23.7492C10.8761 23.7486 10.7043 24.2194 9.77642 23.8159C9.71206 23.785 9.23878 24.0051 8.92281 23.9083C8.79318 23.788 8.80313 23.7703 8.74102 23.6048C8.70642 23.5902 8.67203 23.5752 8.63782 23.5601C8.53299 23.6809 8.56354 23.637 8.49697 23.7836C8.46708 23.7797 8.43719 23.7757 8.40731 23.7714C8.37728 23.7317 8.3478 23.6919 8.31885 23.6519C8.07958 23.6746 8.08926 23.7086 7.89733 23.6204C7.80728 23.4481 7.77401 23.3081 7.63833 23.2064C7.56466 23.239 7.49006 23.2706 7.41456 23.3012C7.15409 23.1672 7.00284 22.9413 6.67288 22.8071C6.52386 22.7647 5.57904 22.227 5.60025 22.2678C5.43447 21.6879 4.58627 21.8737 4.73678 21.2061C4.56902 21.1135 4.45401 21.0484 4.30261 20.9302C4.2638 20.691 4.30598 20.7371 4.1744 20.5759C4.01275 20.5532 3.95468 20.5929 3.80176 20.6532C3.78734 20.6363 3.77298 20.6193 3.75866 20.6023C3.80636 20.5732 3.85399 20.5441 3.90155 20.5148C3.81673 20.1952 3.28432 20.2298 3.00179 19.7541C3.01009 19.7379 3.01842 19.7218 3.02677 19.7057C3.0909 19.7168 3.15495 19.7274 3.21892 19.7375C3.24869 19.5762 3.22364 19.5197 3.21068 19.3587C3.07073 19.3477 3.05182 19.358 2.91089 19.3831C2.88202 19.3627 2.85326 19.3423 2.82441 19.3216C2.88319 19.2212 2.92833 19.1365 2.96795 19.0283C2.9404 19.0064 2.91293 18.9843 2.88553 18.9621C2.13081 19.1309 2.28798 18.2531 1.95814 18.1462C1.92591 18.1526 1.89365 18.159 1.86138 18.1653C1.8346 18.1189 1.80814 18.0725 1.782 18.0259C1.81045 18.0046 1.83892 17.9833 1.86743 17.9622C1.96324 17.9791 2.05896 17.9949 2.15456 18.0096C2.16413 17.9899 2.17376 17.9702 2.18342 17.9505C1.8683 17.5138 1.62349 17.0596 1.35581 16.5717C1.42021 16.4579 1.39012 16.4984 1.50118 16.4196C1.48837 16.3917 1.47568 16.3637 1.46312 16.3356C1.31252 16.3053 1.16166 16.2683 1.0113 16.2279C0.840329 15.7906 1.04213 15.4215 0.843405 15.0248C0.755815 14.8438 0.748939 14.7955 0.775053 14.6269C0.893532 14.6151 0.890663 14.6328 0.987917 14.5632C0.97875 14.5371 0.96971 14.5109 0.960799 14.4847C0.896164 14.4681 0.831575 14.4511 0.767038 14.4336C0.764739 14.4033 0.762608 14.373 0.760648 14.3428C0.817203 14.3239 0.873821 14.3052 0.930499 14.2869C0.823603 13.7282 0.571219 13.9214 0.723119 13.0739C0.744395 13.0549 0.765749 13.0362 0.787179 13.0176C0.849319 13.0615 0.911881 13.1043 0.974833 13.1461C1.02182 12.97 1.02556 12.9846 0.976684 12.8126C0.87363 12.7387 0.848383 12.7216 0.736411 12.6644C0.75496 12.4114 0.789174 12.4238 1.02942 12.3551ZM18.3808 20.3974C18.551 19.8592 18.2322 20.0951 18.8221 19.8783C19.3077 19.6759 18.7338 19.449 19.5881 19.3885C19.5083 19.2681 19.5371 19.31 19.4112 19.1973C19.4542 19.0986 20.245 18.2876 20.342 18.078C20.3982 18.0752 20.4545 18.0718 20.5109 18.0678C20.5359 17.9939 20.6014 17.6641 20.6285 17.6371C20.8696 17.4094 21.0054 17.1643 21.1314 16.8694C21.2668 16.8743 21.2149 16.8672 21.3566 16.9087C21.4097 16.8218 21.3483 16.778 21.2452 16.6846C21.465 16.4069 21.904 14.0645 22.0822 13.8382C22.1181 13.8341 22.1539 13.83 22.1898 13.8258C22.3567 13.9393 22.3704 14.1042 22.3782 14.261C22.4017 14.7133 22.2653 15.1692 22.1624 15.5993C21.9385 16.5419 21.5597 17.4295 21.0323 18.2042C20.8388 18.4891 20.6354 18.7603 20.4356 19.0345C20.3403 19.1658 20.2649 19.3289 20.1417 19.4375C19.975 19.5851 19.6989 19.6254 19.7153 19.8953C19.7441 20.1427 18.6846 20.9757 18.4572 21.1152C18.2164 21.2962 17.996 21.5063 17.7446 21.6754C17.5599 21.7997 17.3438 21.875 17.1591 21.9956C16.971 22.1181 16.8118 22.2964 16.6148 22.4127C15.691 22.9586 14.6556 23.3244 13.5757 23.5392C13.5631 23.5319 13.4059 23.4258 13.4043 23.4262C13.1833 23.4722 12.6099 23.7095 12.4237 23.5342C12.4119 23.465 12.4005 23.3957 12.3895 23.3265C12.3672 23.3275 12.3449 23.3284 12.3226 23.3293C12.3199 23.4736 12.3191 23.4005 12.3256 23.5475C12.2538 23.5654 12.1659 23.5713 12.0687 23.5692L11.8775 23.5417L11.8455 23.389C11.7967 23.2463 11.7529 23.076 11.7029 22.9075C11.6395 22.6851 11.487 22.425 11.3998 22.0912C11.3073 21.7526 11.3626 21.3682 11.525 21.1702C11.55 21.1386 11.6728 21.1748 11.7398 21.1872C11.7448 21.1678 11.7503 21.147 11.7555 21.1282C11.7027 21.08 11.5763 20.98 11.5943 20.9321C11.6272 20.8429 11.6152 20.7569 11.6002 20.6719L11.7066 20.4279L11.9223 20.4474C12.0626 20.3677 12.1686 20.2745 12.3147 20.466C12.5037 20.4504 12.6451 20.31 12.7904 20.3526C12.8327 20.4521 12.8463 20.4988 12.8805 20.6074C12.8984 20.6109 12.9169 20.6143 12.9357 20.6177C12.974 20.5658 13.0205 20.5006 13.0742 20.4218C13.4425 20.3229 13.8141 20.231 14.1657 20.1601C14.2783 20.1381 14.3951 19.9507 14.4471 19.9391C14.7892 19.8632 15.0404 19.6402 15.2993 19.4805C15.3171 19.4698 15.4282 19.4837 15.4382 19.4801C15.5377 19.4494 15.6778 19.5175 15.6988 19.4033C15.6548 19.3456 15.6105 19.2881 15.5658 19.2308C15.5672 19.2046 15.5682 19.1786 15.5688 19.1526C15.6762 19.1679 15.6612 19.171 15.7902 19.2149C15.8115 19.0681 15.7065 19.0675 15.7341 19.0174C15.7689 18.9617 16.0839 18.7369 16.0764 18.666C16.0658 18.5447 15.9759 18.4677 16.0111 18.3136C16.0375 18.3185 16.0638 18.3233 16.0903 18.3278C16.3041 18.3622 16.3268 18.3754 16.4205 18.2998C16.4115 18.2756 16.4024 18.2513 16.3932 18.2271C16.2995 18.2101 16.2153 18.1926 16.1222 18.1698C16.0447 18.0315 16.5828 17.2583 16.6768 17.0371C16.7527 17.025 16.825 17.0101 16.8955 16.9916C16.903 16.9682 16.9105 16.9446 16.9179 16.9209C17.0042 16.7996 17.1526 16.6747 17.3426 16.6203C17.4172 16.6531 17.4918 16.686 17.5663 16.7189C17.1112 17.0122 17.5723 18.3712 16.7345 18.2033C16.722 18.1888 16.7096 18.1744 16.6971 18.16C16.6075 18.0579 16.5708 17.9967 16.4363 17.9383C16.4179 17.9543 16.3995 17.9701 16.3811 17.9856C16.5033 18.1793 16.7743 18.279 17.026 18.3962C17.1028 18.7885 16.7848 18.5247 16.738 18.7508C16.6461 19.1662 16.6654 19.7021 16.2075 19.9333C15.9666 20.0454 16.0115 20.011 16.0397 20.2799C15.8196 20.4554 15.7218 20.3683 15.489 20.4318C15.4138 20.4501 15.3873 20.7139 15.1992 20.7865C15.1061 20.6927 15.1388 20.736 15.081 20.5966C15.0603 20.5956 15.0388 20.5947 15.0188 20.5931C15.0167 20.7277 15.0097 20.6586 15.0629 20.8073C15.0448 20.8084 15.0266 20.8094 15.0084 20.8103C14.9786 20.7714 14.9492 20.7323 14.9201 20.693C14.811 20.768 13.2514 21.4059 13.1798 21.3375C12.5229 20.9426 12.4973 21.5438 11.9086 21.2805L12.3865 20.9475C12.3551 20.9797 12.32 21.0093 12.2781 21.0437C12.238 21.0751 12.4199 21.3914 12.3705 21.5178C12.2689 21.5681 12.2514 21.5614 12.0996 21.5904C12.0912 21.6083 12.0833 21.6253 12.0756 21.6435C12.2159 21.6889 12.1668 21.6756 12.3246 21.6961C12.328 21.708 12.3316 21.7195 12.3353 21.7308C12.305 21.7448 12.2749 21.7603 12.2452 21.7768C12.3411 21.8644 12.3695 21.8445 12.362 21.9338C12.2423 22.0146 12.1347 22.0842 12.116 22.1849C12.1805 22.202 12.2449 22.217 12.3097 22.2326C12.337 22.3932 12.2514 22.5749 12.3608 22.7753C12.385 22.8195 12.4739 23.0115 12.5544 23.1844L12.1194 22.8331C12.2796 22.8168 12.4195 22.7919 12.4076 22.7762C12.7022 23.152 12.9788 22.4375 13.2173 23.0045C13.3272 22.9457 13.4004 22.9029 13.5111 22.8622C13.6471 22.9826 13.611 22.9871 13.7397 22.9803C13.8015 22.8649 13.7959 22.7945 13.8048 22.6364C13.8176 22.6347 13.8305 22.6329 13.8433 22.6311C13.8466 22.6864 13.8497 22.7417 13.8528 22.797C14.0577 22.9088 14.1624 22.4548 14.4723 22.4298C14.4807 22.4444 14.489 22.4589 14.4975 22.4735C14.482 22.5245 14.4662 22.5754 14.4499 22.6263C14.5424 22.7264 14.5816 22.7298 14.6851 22.7868C14.7112 22.6672 14.7069 22.646 14.7071 22.5105C14.7227 22.4932 14.7382 22.4759 14.7536 22.4585C14.8098 22.5512 14.8589 22.6249 14.9252 22.7013C14.9419 22.6846 14.9585 22.6679 14.975 22.6512C14.9159 21.9161 15.4457 22.3376 15.5016 22.0451C15.4952 22.0137 15.4887 21.9822 15.4822 21.9508C15.5089 21.9372 15.5356 21.9235 15.5622 21.9096C15.5783 21.9408 15.5944 21.9719 15.6105 22.003C15.6089 22.0885 15.6064 22.1741 15.6031 22.2599C15.6166 22.2733 15.6302 22.2867 15.6438 22.3001C15.9088 22.1029 16.1654 21.934 16.4003 21.7046C16.4885 21.7686 16.4551 21.7391 16.5349 21.8443C16.5494 21.8329 16.5639 21.8214 16.5783 21.8098C16.5561 21.6697 16.5331 21.5306 16.5091 21.3922C16.7061 21.2348 16.9984 21.3845 17.1282 21.147C17.1852 21.0411 17.2064 21.0262 17.3046 21.0158C17.3695 21.1155 17.3585 21.1173 17.4434 21.1859C17.4526 21.1722 17.4617 21.1584 17.4708 21.1447C17.4465 21.0854 17.422 21.0262 17.3972 20.9672C17.411 20.9583 17.4248 20.9493 17.4385 20.9404C17.4776 20.9837 17.5168 21.0269 17.5561 21.0701C17.7661 20.8193 17.5431 20.6998 17.9515 20.5043C17.972 20.5127 17.9925 20.5212 18.013 20.5295C18.0394 20.5935 18.0653 20.6577 18.0909 20.722C18.1868 20.6842 18.1854 20.6918 18.2098 20.5799C18.1629 20.4728 18.1504 20.4472 18.0895 20.3425C18.1727 20.2422 18.1883 20.2713 18.3808 20.3974Z" fill="black"/>
<path d="M12.2926 19.5901C12.5789 19.834 12.6263 19.6404 12.3699 19.9321C12.1581 20.1718 12.7415 20.0712 12.1263 20.3715C12.264 20.3931 12.2153 20.3859 12.384 20.3905C12.4308 20.4441 12.2373 21.0134 12.2312 21.126C12.1833 21.1408 12.1353 21.1556 12.0873 21.1704C12.1019 21.2073 12.1886 21.3699 12.1736 21.3887C12.0498 21.5436 12.0142 21.6762 11.9871 21.835C11.8568 21.8533 11.9083 21.8486 11.7607 21.8507C11.7368 21.8977 11.8081 21.9082 11.9337 21.9373C11.9004 22.1013 11.6736 23.2408 11.3915 23.3177C11.3554 23.3183 11.3193 23.3189 11.2832 23.3194C11.1257 23.2652 11.1216 23.1945 11.1178 23.1239C11.1066 22.9241 11.2185 22.7195 11.2631 22.5243C11.3605 22.0918 11.4467 21.6607 11.562 21.2277C11.6042 21.0707 11.6412 20.9094 11.6543 20.7519C11.6604 20.6757 11.6272 20.5928 11.66 20.5167C11.704 20.4159 11.8924 20.3157 11.7031 20.2232C11.5428 20.1446 11.6848 19.5228 11.6918 19.3955C11.7003 19.2531 11.6595 19.1115 11.6562 18.9693C11.6539 18.8651 11.7022 18.7596 11.6881 18.6558C11.674 18.55 11.5897 18.4454 11.57 18.3394C11.4768 17.8425 11.4252 17.3445 11.3277 16.8474C11.3366 16.8423 11.4575 16.7753 11.4571 16.7743C11.4364 16.6691 11.2153 16.4096 11.3807 16.3244C11.4496 16.3182 11.5185 16.3121 11.5873 16.306C11.5856 16.2956 11.5839 16.2853 11.5822 16.275C11.4379 16.2764 11.511 16.2747 11.3643 16.2802C11.3104 16.1977 11.3277 16.0607 11.3305 15.9287C11.3348 15.716 11.1084 15.3705 11.3188 15.1667C11.3352 15.1508 11.4631 15.1524 11.5311 15.1501C11.5309 15.1409 11.5308 15.1322 11.5307 15.1224C11.4669 15.1065 11.3174 15.0798 11.3202 15.0568C11.3343 14.9301 10.9688 14.8673 11.2602 14.76C11.2462 14.6696 11.1098 14.5995 11.1586 14.5324C11.2598 14.5149 11.3071 14.5081 11.4173 14.494C11.4216 14.4851 11.426 14.4763 11.4304 14.4675C11.3807 14.4481 11.3184 14.4242 11.2434 14.3955C11.1698 14.2188 11.1244 14.0326 11.1318 13.846C11.1342 13.7921 10.9838 13.7062 10.988 13.677C11.0124 13.5004 10.9102 13.3156 10.92 13.1381C10.9205 13.1257 10.9955 13.0824 10.9988 13.0735C11.0156 13.0423 11.0594 13.0212 11.0898 13.0032C11.1202 12.9735 11.1378 12.9475 11.103 12.9137C11.0308 12.9069 10.9586 12.8997 10.8864 12.892C10.8685 12.8746 10.8509 12.8566 10.8335 12.8384C10.9229 12.7832 10.914 12.7935 11.041 12.7581C10.968 12.6497 10.8852 12.6951 10.879 12.6431C10.8646 12.5706 11.0701 12.2801 11.0573 12.2285C11.0231 12.1217 10.9226 12.0496 10.9615 11.8893C10.9881 11.8942 11.0144 11.8996 11.0407 11.9052C11.2511 11.9537 11.2679 11.9738 11.3587 11.9306C11.3517 11.908 11.3452 11.8851 11.339 11.8621C11.2539 11.8225 11.1752 11.7892 11.0866 11.7525C11.0539 11.6681 11.225 11.4684 11.4411 11.3427C11.656 11.2118 11.8971 11.1558 11.9832 11.1339C12.0361 11.1846 12.0867 11.2323 12.1357 11.2782C12.1517 11.2714 12.1688 11.2644 12.1853 11.2579C12.2937 11.2635 12.4426 11.3318 12.5379 11.4836C12.5459 11.5644 12.555 11.6451 12.5651 11.7257C12.4132 11.5697 12.2416 11.7773 12.1462 11.935C12.0404 12.0952 11.9806 12.1953 11.6422 11.9622C11.6329 11.9466 11.6237 11.931 11.6146 11.9152C11.5494 11.8027 11.5316 11.7384 11.4281 11.6344C11.4079 11.64 11.388 11.6458 11.3678 11.6522C11.4352 11.8624 11.6753 12.0289 11.8787 12.217C11.9787 12.4789 11.6873 12.1993 11.6806 12.3392C11.6803 12.6096 11.9825 12.7954 11.8367 12.9359C11.8066 12.9692 11.7903 12.9897 11.7947 13.0032C11.8016 13.0239 11.8587 13.0285 11.9993 13.0651C12.0157 13.1786 11.8929 13.2001 11.8366 13.297C11.8179 13.3323 12.0405 13.3909 12.0367 13.4731C11.9149 13.4949 11.9674 13.4891 11.8165 13.4901C11.8079 13.4986 11.7993 13.5072 11.7907 13.5159C11.9159 13.5392 11.8489 13.5307 12.0068 13.5317C12.0015 13.5394 11.9962 13.5479 11.9908 13.5551C11.9441 13.5611 11.8974 13.567 11.8507 13.5731C11.8264 13.629 12.2021 14.3575 12.1642 14.3765C11.6989 14.684 12.4304 14.6865 12.0054 15.0075C11.9777 15.0276 12.2476 15.1553 12.2204 15.2431C12.1295 15.2854 12.1108 15.2838 11.9641 15.3123C11.958 15.3231 11.9519 15.3339 11.9458 15.3447C12.0892 15.3654 12.0391 15.36 12.198 15.3675C12.202 15.376 12.2061 15.3845 12.2101 15.393C12.1801 15.4043 12.1501 15.4156 12.1202 15.427C12.2125 15.4917 12.242 15.4834 12.2223 15.5425C12.0911 15.5824 11.9721 15.6061 11.9299 15.6543C11.9883 15.6706 12.0467 15.687 12.1051 15.7034C12.0887 15.7883 11.9524 15.8565 11.9983 15.9595C12.018 16.0039 12.1056 16.3199 12.138 16.3065C11.7715 16.4516 12.4758 16.6016 11.8924 16.7025C11.943 16.7576 11.9791 16.795 12.0077 16.8516C11.8727 16.9115 11.8727 16.8938 11.8629 16.9551C11.9688 16.9919 12.0391 16.9942 12.1942 17.01C12.194 17.0164 12.1939 17.0229 12.1938 17.0293C12.1386 17.0268 12.0835 17.0242 12.0283 17.0216C11.8863 17.1104 12.3174 17.2014 12.272 17.359C12.2559 17.3614 12.2398 17.3638 12.2237 17.3662C12.1776 17.3529 12.1316 17.3397 12.0855 17.3264C11.9674 17.3596 11.9552 17.3776 11.8751 17.4193C11.9847 17.4454 12.0063 17.4459 12.1375 17.4627C12.1503 17.4723 12.1631 17.482 12.1759 17.4916C12.0719 17.5068 11.988 17.5205 11.8966 17.5415C11.9082 17.5514 11.9197 17.5614 11.9313 17.5713C12.6567 17.6456 12.0907 17.8391 12.3437 17.912C12.3754 17.9145 12.4071 17.917 12.4388 17.9195C12.4423 17.9347 12.4457 17.95 12.4491 17.9653C12.4143 17.9672 12.3795 17.9692 12.3446 17.9712C12.2654 17.9549 12.1862 17.9385 12.107 17.9222C12.0897 17.9262 12.0724 17.9301 12.055 17.9341C12.1464 18.0905 12.1989 18.2393 12.3006 18.396C12.204 18.4214 12.2453 18.413 12.1155 18.425C12.1192 18.4339 12.1229 18.4428 12.1267 18.4518C12.2616 18.4734 12.3957 18.4955 12.5293 18.5177C12.5761 18.6465 12.3001 18.7364 12.4336 18.8549C12.4932 18.9081 12.4941 18.9218 12.4491 18.9666C12.3301 18.9663 12.3348 18.9614 12.2307 18.9779C12.2371 18.9855 12.2436 18.993 12.25 19.0006C12.3128 19.007 12.3756 19.0133 12.4383 19.0196C12.438 19.028 12.4377 19.0363 12.4374 19.0447C12.3796 19.0487 12.3218 19.0528 12.264 19.0568C12.3483 19.2144 12.5803 19.1602 12.4847 19.3879C12.4654 19.3934 12.446 19.399 12.4266 19.4045C12.3602 19.3946 12.2938 19.3847 12.2274 19.3748C12.1975 19.4241 12.1923 19.4207 12.2636 19.4657C12.376 19.4817 12.4037 19.4851 12.5232 19.4954C12.5466 19.5614 12.5138 19.5585 12.2926 19.5901Z" fill="black"/>
<path d="M21.4245 22.3568C21.7108 22.4531 21.7581 22.3766 21.5018 22.4914C21.29 22.5861 21.8734 22.5463 21.2581 22.6645C21.3959 22.6731 21.3471 22.6703 21.5158 22.672C21.5627 22.6938 21.3692 22.9175 21.3631 22.9618C21.3151 22.9676 21.2671 22.9734 21.2192 22.9793C21.2337 22.994 21.3204 23.0581 21.3054 23.0653C21.1817 23.126 21.1461 23.1791 21.1189 23.241C20.9886 23.2482 21.0402 23.2464 20.8926 23.2472C20.8687 23.2658 20.9399 23.2699 21.0655 23.2815C21.0322 23.3458 20.8054 23.7944 20.5233 23.8259C20.4872 23.8262 20.4511 23.8264 20.415 23.8266C20.2576 23.8046 20.2534 23.7763 20.2496 23.7488C20.2384 23.6706 20.3504 23.5905 20.3949 23.5125C20.4924 23.3422 20.5786 23.1724 20.6939 23.002C20.736 22.9395 20.7731 22.8772 20.7862 22.8144C20.7923 22.7843 20.759 22.7518 20.7918 22.722C20.8358 22.682 21.0243 22.6425 20.8349 22.6062C20.6747 22.5755 20.8166 22.3301 20.8237 22.2801C20.8321 22.2241 20.7914 22.1681 20.7881 22.1122C20.7857 22.0711 20.834 22.0296 20.8199 21.9887C20.8059 21.9469 20.7215 21.9058 20.7018 21.864C20.6086 21.6683 20.557 21.4721 20.4596 21.2762C20.4685 21.2742 20.5894 21.2479 20.5889 21.2475C20.5683 21.2061 20.3471 21.1038 20.5125 21.0703C20.5814 21.0679 20.6503 21.0654 20.7192 21.063C20.7175 21.0589 20.7158 21.0548 20.7141 21.0507C20.5697 21.0513 20.6428 21.0506 20.4961 21.0528C20.4422 21.0196 20.4596 20.9667 20.4624 20.9144C20.4666 20.8298 20.2403 20.6952 20.4507 20.6138C20.4671 20.6074 20.595 20.6081 20.6629 20.6071C20.6628 20.6035 20.6626 20.5998 20.6625 20.5961C20.5988 20.59 20.4493 20.5797 20.4521 20.5708C20.4661 20.5219 20.1006 20.4948 20.3921 20.4538C20.378 20.4188 20.2417 20.3909 20.2904 20.3636C20.3916 20.3564 20.439 20.3542 20.5491 20.3487C20.5535 20.3453 20.5578 20.342 20.5622 20.3386C20.5125 20.3311 20.4502 20.3218 20.3752 20.3106C20.3017 20.2397 20.2562 20.1657 20.2637 20.0941C20.266 20.072 20.1156 20.0387 20.1198 20.0276C20.1442 19.9554 20.042 19.8861 20.0519 19.8154C20.0524 19.8105 20.1273 19.7917 20.1306 19.7896C20.1643 19.7672 20.3054 19.7536 20.2327 19.7345C20.1603 19.7335 20.0878 19.7325 20.0153 19.7314C19.9966 19.7272 19.9778 19.7229 19.9591 19.7187C20.0435 19.7027 20.0355 19.7057 20.1573 19.6922C20.0697 19.6658 19.9943 19.6816 19.9797 19.669C19.961 19.6529 20.0706 19.5706 20.0294 19.5597C19.953 19.5396 19.8344 19.5354 19.7852 19.5021C19.8104 19.5 19.8355 19.4979 19.8607 19.4959C20.0631 19.4791 20.0889 19.4798 20.1353 19.457C20.1159 19.4535 20.0966 19.45 20.0772 19.4464C19.9863 19.4523 19.9038 19.4573 19.811 19.4627C19.6601 19.4413 19.8461 19.2499 19.8724 19.2064C19.9399 19.1993 20.0031 19.192 20.0636 19.1841C20.0629 19.1794 20.0623 19.1746 20.0617 19.1699C20.1039 19.1431 20.2061 19.1112 20.3705 19.0913C20.4516 19.0929 20.5327 19.0944 20.6137 19.096C20.2571 19.177 21.1821 19.3745 20.371 19.4118C20.3535 19.4103 20.336 19.4088 20.3185 19.4074C20.1934 19.3971 20.1343 19.3891 19.9877 19.39C19.9778 19.3944 19.968 19.3989 19.9581 19.4034C20.1526 19.4283 20.4404 19.4213 20.7178 19.4202C20.9647 19.477 20.5613 19.4616 20.6334 19.5031C20.7675 19.5807 21.1016 19.6468 20.9666 19.7285C20.8945 19.772 20.9001 19.7639 21.1311 19.7865C21.1475 19.8321 21.0247 19.8377 20.9685 19.878C20.9497 19.8914 21.1723 19.9144 21.1686 19.9473C21.0467 19.9558 21.0992 19.9535 20.9483 19.9539C20.9397 19.9572 20.9312 19.9604 20.9226 19.9637C21.0477 19.9724 20.9807 19.9692 21.1386 19.9696C21.1333 19.9725 21.128 19.9755 21.1227 19.9784C21.076 19.9809 21.0293 19.9834 20.9826 19.9859C20.9582 20.0092 21.334 20.2932 21.2961 20.3031C20.8307 20.4235 21.5622 20.4233 21.1372 20.5516C21.1096 20.5595 21.3794 20.6088 21.3523 20.6443C21.2614 20.6611 21.2426 20.6604 21.096 20.6716C21.0898 20.6759 21.0837 20.6801 21.0776 20.6844C21.221 20.6924 21.1709 20.6903 21.3298 20.6932C21.3339 20.6966 21.3379 20.6999 21.3419 20.7032C21.312 20.7076 21.282 20.712 21.252 20.7164C21.3443 20.7412 21.3738 20.7387 21.3542 20.7621C21.2229 20.778 21.1039 20.7874 21.0617 20.8063C21.1201 20.8128 21.1786 20.8192 21.237 20.8256C21.2206 20.8584 21.0842 20.8858 21.1301 20.9265C21.1498 20.9441 21.2375 21.0683 21.2698 21.0632C20.9034 21.1204 21.6077 21.1791 21.0242 21.2192C21.0749 21.2409 21.1109 21.2557 21.1395 21.2778C21.0046 21.3012 21.0046 21.2941 20.9947 21.3185C21.1006 21.3331 21.1709 21.334 21.326 21.3403C21.3259 21.3428 21.3257 21.3454 21.3256 21.3479C21.2704 21.3469 21.2153 21.3459 21.1602 21.3449C21.0182 21.3801 21.4493 21.4155 21.4038 21.4777C21.3877 21.4786 21.3716 21.4796 21.3556 21.4805C21.3095 21.4753 21.2634 21.47 21.2173 21.4647C21.0992 21.4779 21.087 21.485 21.0069 21.5015C21.1166 21.5118 21.1381 21.5121 21.2693 21.5187C21.2821 21.5225 21.295 21.5263 21.3078 21.5301C21.2037 21.536 21.1198 21.5415 21.0285 21.5497C21.04 21.5536 21.0516 21.5575 21.0631 21.5614C21.7885 21.5904 21.2225 21.667 21.4755 21.6957C21.5072 21.6967 21.539 21.6976 21.5707 21.6986C21.5741 21.7046 21.5775 21.7106 21.581 21.7166C21.5461 21.7174 21.5113 21.7182 21.4764 21.719C21.3973 21.7126 21.3181 21.7061 21.2389 21.6997C21.2215 21.7013 21.2042 21.7028 21.1869 21.7044C21.2783 21.7658 21.3307 21.8247 21.4324 21.8863C21.3359 21.8963 21.3771 21.893 21.2473 21.8977C21.251 21.9012 21.2548 21.9047 21.2585 21.9083C21.3935 21.9168 21.5276 21.9254 21.6611 21.9342C21.708 21.985 21.4319 22.0204 21.5655 22.0671C21.625 22.088 21.626 22.0935 21.581 22.1111C21.462 22.111 21.4666 22.109 21.3626 22.1155C21.369 22.1185 21.3754 22.1215 21.3818 22.1245C21.4446 22.127 21.5074 22.1295 21.5702 22.132C21.5699 22.1353 21.5696 22.1386 21.5693 22.1419C21.5115 22.1435 21.4536 22.1451 21.3958 22.1466C21.4802 22.2087 21.7122 22.1875 21.6166 22.2771C21.5972 22.2793 21.5778 22.2814 21.5585 22.2836C21.4921 22.2797 21.4257 22.2758 21.3593 22.2719C21.3293 22.2913 21.3242 22.29 21.3954 22.3077C21.5079 22.314 21.5355 22.3154 21.655 22.3194C21.6784 22.3454 21.6456 22.3443 21.4245 22.3568Z" fill="black"/>
<path d="M5.81437 0.43992C6.27469 -0.0253167 5.83067 0.0518054 6.58741 0.129019C7.14615 0.235451 6.93989 -0.241121 7.5206 0.171368C7.56047 0.202432 7.60323 0.238786 7.6486 0.281316C7.7032 0.145167 7.68527 0.19346 7.70237 0.0252545C7.85571 -0.0658808 9.17845 0.409253 9.38668 0.57454C9.39907 0.632753 9.41024 0.690867 9.42021 0.748842C9.50463 0.768075 9.87775 0.878539 9.90551 0.918397C10.143 1.21578 10.3546 1.43254 10.5848 1.7029C10.5203 1.82323 10.5495 1.77954 10.4467 1.88553C10.4988 1.97431 10.5648 1.9418 10.7021 1.907C10.8131 2.04729 11.221 2.66617 11.3473 3.33744C11.4932 4.00619 11.3646 4.64181 11.2227 4.71292C11.1866 4.71411 11.1505 4.71527 11.1144 4.7164C10.9571 4.611 10.9477 4.48684 10.931 4.36216C10.8844 4.01261 10.8999 3.62892 10.7893 3.26929C10.5515 2.49019 10.0221 1.77802 9.29771 1.27465C9.03183 1.08949 8.73498 0.939971 8.41578 0.852899C8.26192 0.810976 8.08927 0.816024 7.93717 0.767395C7.80072 0.723323 7.6614 0.621328 7.5206 0.619852C7.45237 0.619115 7.38555 0.642302 7.32549 0.707315C7.16727 0.822252 5.90001 0.99138 5.66729 1.16798C5.39879 1.299 5.17391 1.50022 4.95265 1.69276C4.79024 1.83374 4.59986 1.95606 4.46948 2.13161C4.3362 2.31067 4.27909 2.53603 4.18651 2.72946C3.88478 3.35807 3.74763 4.04806 3.80198 4.7164C3.82597 5.01772 3.88806 5.31281 3.98793 5.59086C3.98072 5.6013 3.89761 5.75781 3.89934 5.76023C3.97151 5.96679 4.36716 6.32285 4.30872 6.53709C4.2547 6.58144 4.20106 6.62633 4.1478 6.67177C4.15989 6.68919 4.17212 6.70649 4.18448 6.72368C4.30669 6.64685 4.24567 6.68717 4.36592 6.60254C4.49438 6.71366 4.62268 6.93277 4.7893 7.12443C5.0621 7.45363 5.68956 7.64356 5.94382 7.98646C5.96436 8.01454 5.90702 8.12879 5.88216 8.19223C5.89913 8.20008 5.91616 8.20782 5.93326 8.21543C5.98833 8.1705 6.09421 8.05374 6.13229 8.07248C6.35438 8.17695 6.5708 7.86019 6.6815 8.18822C6.84831 8.21351 6.99658 8.09908 7.1134 8.16202C7.13527 8.26641 7.14107 8.3146 7.15692 8.42681C7.17309 8.43277 7.18935 8.43862 7.2057 8.44437C7.24676 8.39795 7.29682 8.33903 7.35325 8.26658C7.40889 8.25697 7.46468 8.24686 7.5206 8.23634C7.80146 8.18337 8.07437 8.11942 8.34032 8.06081C8.44122 8.03941 8.53979 7.8514 8.58529 7.83963C8.8954 7.75915 9.12052 7.52855 9.37112 7.36498C9.38854 7.35375 9.49827 7.3664 9.5081 7.3628C9.60576 7.33122 9.74447 7.39974 9.76328 7.28729C9.71907 7.22967 9.67463 7.17224 9.62997 7.115C9.63113 7.08902 9.63195 7.06313 9.63244 7.03735C9.73894 7.05395 9.72407 7.05687 9.85145 7.10321C9.87197 6.95931 9.76879 6.95558 9.79589 6.90717C9.83116 6.85124 10.1383 6.65066 10.1295 6.58407C10.1165 6.46976 10.029 6.38993 10.0562 6.25257C10.0819 6.2587 10.1076 6.26464 10.1335 6.27037C10.3425 6.31407 10.3652 6.3277 10.4531 6.26192C10.4432 6.23925 10.4331 6.21677 10.4227 6.19447C10.3304 6.17542 10.2475 6.15572 10.1558 6.13035C10.0817 5.99939 10.5062 5.37366 10.5367 5.18166C10.6077 5.16358 10.6746 5.14223 10.7387 5.1158C10.7406 5.09543 10.7422 5.07501 10.7437 5.05454C10.7979 4.94487 10.9059 4.81134 11.0699 4.7164C11.151 4.72382 11.232 4.73172 11.3131 4.74011C11.1351 4.93945 11.2517 5.27753 11.2552 5.62059C11.264 5.95797 11.1606 6.2717 10.7553 6.18098C10.7422 6.16747 10.729 6.15404 10.7158 6.1407C10.621 6.0461 10.5794 5.99205 10.4428 5.93869C10.4264 5.95219 10.4099 5.9656 10.3934 5.9787C10.5284 6.15289 10.798 6.25325 11.0529 6.36372C11.1426 6.74146 10.8195 6.48347 10.7782 6.69766C10.6938 7.0925 10.7041 7.61079 10.2708 7.81822C10.0421 7.9205 10.0841 7.88928 10.1235 8.15181C9.92295 8.32026 9.82482 8.23594 9.60673 8.30154C9.53526 8.32128 9.52973 8.58125 9.35326 8.65965C9.25808 8.56944 9.29225 8.61134 9.22766 8.475C9.20778 8.47461 9.18795 8.47407 9.16817 8.47338C9.17423 8.60723 9.16325 8.53885 9.22387 8.68472C9.20631 8.68649 9.18882 8.68812 9.17137 8.68963C9.14028 8.65197 9.10959 8.61408 9.0793 8.57594C8.99768 8.62226 7.98467 9.14968 7.5206 9.17714C7.42622 9.1917 7.36494 9.19522 7.35488 9.18824C6.71497 8.6733 6.56805 9.39232 5.97234 8.74628C5.94316 8.70706 5.56839 8.84487 5.38806 8.71512C5.34311 8.5875 5.35571 8.57247 5.37331 8.41345C5.35563 8.3961 5.33814 8.37863 5.32086 8.36104C5.20699 8.45963 5.24325 8.42296 5.14496 8.54898C5.12599 8.54197 5.10705 8.53482 5.08814 8.52753C5.08208 8.48807 5.07659 8.4487 5.07168 8.40943C4.89886 8.40395 4.89167 8.43485 4.7908 8.3355C4.79392 8.173 4.82705 8.04739 4.77301 7.94648C4.70763 7.96755 4.64143 7.98731 4.57444 8.00572C4.44126 7.863 4.42821 7.65836 4.24306 7.51377C4.15255 7.46334 3.67547 6.91532 3.67104 6.94728C3.83118 6.50047 3.05125 6.45139 3.52743 6.03135C3.44175 5.93164 3.38379 5.86091 3.32554 5.74464C3.4264 5.58367 3.43525 5.62478 3.41868 5.48991C3.29986 5.42929 3.23 5.43472 3.0709 5.42261C3.06866 5.40744 3.0665 5.39237 3.06443 5.37733C3.11987 5.37526 3.17529 5.37297 3.23068 5.37046C3.33123 5.17781 2.97841 5.03215 2.93816 4.7164C2.93368 4.68012 2.93364 4.64219 2.93935 4.60282C2.95558 4.59739 2.97182 4.59203 2.98807 4.58673C3.03323 4.6196 3.07875 4.65159 3.12459 4.6827C3.2435 4.60729 3.2566 4.56799 3.34144 4.4803C3.23536 4.41622 3.21413 4.41322 3.0862 4.36465C3.07518 4.34133 3.06433 4.31786 3.05367 4.29424C3.16055 4.26894 3.24721 4.24613 3.3434 4.21112C3.33453 4.18807 3.32584 4.16488 3.31734 4.14156C2.6167 3.86512 3.27779 3.50191 3.09296 3.27815C3.06466 3.2626 3.03641 3.24694 3.00822 3.23117C3.01681 3.19406 3.02585 3.15705 3.03532 3.12017C3.0698 3.12723 3.10424 3.13439 3.13866 3.14166C3.19977 3.20575 3.26204 3.26814 3.32539 3.3288C3.34472 3.32557 3.36403 3.32244 3.38334 3.31944C3.41149 2.95195 3.51493 2.61041 3.63103 2.23874C3.74503 2.23984 3.69964 2.23438 3.82347 2.28218C3.83169 2.26292 3.84004 2.24373 3.84858 2.22451C3.76518 2.10713 3.68611 1.98647 3.61158 1.86212C3.77295 1.56612 4.12598 1.58561 4.23865 1.29045C4.2933 1.15661 4.32039 1.13152 4.43389 1.09307C4.51047 1.18423 4.49878 1.18796 4.59602 1.24196C4.60564 1.22548 4.6154 1.20902 4.62527 1.19261C4.59703 1.13452 4.56932 1.0761 4.54215 1.01735C4.55848 1.00458 4.57489 0.991918 4.59139 0.979361C4.63496 1.01865 4.67827 1.0582 4.7213 1.09799C4.9741 0.810409 4.73658 0.673559 5.28284 0.4743C5.3041 0.484968 5.32523 0.495769 5.34626 0.506695C5.35504 0.576905 5.36484 0.646805 5.37565 0.716371C5.49292 0.688294 5.4867 0.697366 5.55225 0.586356C5.53862 0.468314 5.53488 0.439631 5.50853 0.320215C5.65096 0.230435 5.66079 0.263863 5.81437 0.43992Z" fill="black"/>
<path d="M13.5937 4.83689C14.054 4.37166 13.61 4.44878 14.3667 4.52599C14.9254 4.63242 14.7192 4.15585 15.2999 4.56834C15.3398 4.5994 15.3825 4.63576 15.4279 4.67829C15.4825 4.54214 15.4646 4.59043 15.4817 4.42223C15.635 4.33109 16.9577 4.80623 17.166 4.97151C17.1784 5.02973 17.1895 5.08784 17.1995 5.14581C17.2839 5.16505 17.657 5.27551 17.6848 5.31537C17.9223 5.61275 18.1339 5.82951 18.3641 6.09987C18.2996 6.2202 18.3288 6.17652 18.226 6.2825C18.2781 6.37129 18.3441 6.33877 18.4814 6.30397C18.5924 6.44426 19.0003 7.06314 19.1266 7.73441C19.2725 8.40316 19.1439 9.03879 19.002 9.10989C18.9659 9.11108 18.9298 9.11225 18.8937 9.11338C18.7364 9.00797 18.727 8.88382 18.7103 8.75913C18.6637 8.40958 18.6792 8.02589 18.5686 7.66627C18.3308 6.88716 17.8014 6.17499 17.077 5.67162C16.8111 5.48647 16.5143 5.33694 16.1951 5.24987C16.0412 5.20795 15.8686 5.213 15.7165 5.16437C15.58 5.1203 15.4407 5.0183 15.2999 5.01682C15.2317 5.01609 15.1648 5.03927 15.1048 5.10429C14.9466 5.21923 13.6793 5.38835 13.4466 5.56496C13.1781 5.69597 12.9532 5.89719 12.7319 6.08974C12.5695 6.23072 12.3792 6.35303 12.2488 6.52858C12.1155 6.70765 12.0584 6.93301 11.9658 7.12643C11.6641 7.75504 11.5269 8.44503 11.5813 9.11338C11.6053 9.41469 11.6674 9.70979 11.7672 9.98783C11.76 9.99827 11.6769 10.1548 11.6786 10.1572C11.7508 10.3638 12.1465 10.7198 12.088 10.9341C12.034 10.9784 11.9804 11.0233 11.9271 11.0687C11.9392 11.0862 11.9514 11.1035 11.9638 11.1206C12.086 11.0438 12.025 11.0841 12.1452 10.9995C12.2737 11.1106 12.402 11.3297 12.5686 11.5214C12.8414 11.8506 13.4689 12.0405 13.7231 12.3834C13.7437 12.4115 13.6863 12.5258 13.6615 12.5892C13.6784 12.5971 13.6955 12.6048 13.7126 12.6124C13.7676 12.5675 13.8735 12.4507 13.9116 12.4695C14.1337 12.5739 14.3501 12.2572 14.4608 12.5852C14.6276 12.6105 14.7759 12.4961 14.8927 12.559C14.9146 12.6634 14.9204 12.7116 14.9362 12.8238C14.9524 12.8297 14.9686 12.8356 14.985 12.8413C15.0261 12.7949 15.0761 12.736 15.1325 12.6636C15.1882 12.6539 15.244 12.6438 15.2999 12.6333C15.5808 12.5803 15.8537 12.5164 16.1196 12.4578C16.2205 12.4364 16.3191 12.2484 16.3646 12.2366C16.6747 12.1561 16.8998 11.9255 17.1504 11.762C17.1678 11.7507 17.2776 11.7634 17.2874 11.7598C17.3851 11.7282 17.5238 11.7967 17.5426 11.6843C17.4984 11.6266 17.4539 11.5692 17.4093 11.512C17.4104 11.486 17.4112 11.4601 17.4117 11.4343C17.5182 11.4509 17.5034 11.4538 17.6307 11.5002C17.6513 11.3563 17.5481 11.3526 17.5752 11.3041C17.6105 11.2482 17.9176 11.0476 17.9088 10.981C17.8958 10.8667 17.8083 10.7869 17.8355 10.6495C17.8612 10.6557 17.8869 10.6616 17.9128 10.6673C18.1218 10.711 18.1445 10.7247 18.2324 10.6589C18.2225 10.6362 18.2124 10.6137 18.202 10.5914C18.1097 10.5724 18.0268 10.5527 17.9351 10.5273C17.861 10.3964 18.2855 9.77063 18.316 9.57863C18.387 9.56055 18.4539 9.5392 18.518 9.51277C18.5199 9.4924 18.5215 9.47198 18.523 9.45151C18.5772 9.34184 18.6852 9.20832 18.8492 9.11338C18.9303 9.12079 19.0113 9.12869 19.0924 9.13708C18.9144 9.33642 19.031 9.67451 19.0345 10.0176C19.0433 10.3549 18.9399 10.6687 18.5346 10.578C18.5215 10.5644 18.5083 10.551 18.4951 10.5377C18.4003 10.4431 18.3587 10.389 18.2221 10.3357C18.2057 10.3492 18.1892 10.3626 18.1727 10.3757C18.3077 10.5499 18.5773 10.6502 18.8322 10.7607C18.9219 11.1384 18.5988 10.8804 18.5575 11.0946C18.4731 11.4895 18.4834 12.0078 18.0501 12.2152C17.8214 12.3175 17.8634 12.2863 17.9028 12.5488C17.7022 12.7172 17.6041 12.6329 17.386 12.6985C17.3146 12.7182 17.309 12.9782 17.1326 13.0566C17.0374 12.9664 17.0715 13.0083 17.007 12.872C16.9871 12.8716 16.9672 12.871 16.9475 12.8704C16.9535 13.0042 16.9425 12.9358 17.0032 13.0817C16.9856 13.0835 16.9681 13.0851 16.9507 13.0866C16.9196 13.0489 16.8889 13.011 16.8586 12.9729C16.777 13.0192 15.764 13.5466 15.2999 13.5741C15.2055 13.5887 15.1442 13.5922 15.1342 13.5852C14.4943 13.0703 14.3473 13.7893 13.7516 13.1432C13.7225 13.104 13.3477 13.2418 13.1674 13.1121C13.1224 12.9845 13.135 12.9694 13.1526 12.8104C13.1349 12.7931 13.1174 12.7756 13.1002 12.758C12.9863 12.8566 13.0225 12.8199 12.9243 12.946C12.9053 12.9389 12.8863 12.9318 12.8674 12.9245C12.8614 12.885 12.8559 12.8457 12.851 12.8064C12.6782 12.8009 12.671 12.8318 12.5701 12.7325C12.5732 12.57 12.6063 12.4444 12.5523 12.3435C12.4869 12.3645 12.4207 12.3843 12.3537 12.4027C12.2206 12.26 12.2075 12.0553 12.0224 11.9107C11.9319 11.8603 11.4548 11.3123 11.4503 11.3443C11.6105 10.8974 10.8305 10.8484 11.3067 10.4283C11.2211 10.3286 11.1631 10.2579 11.1048 10.1416C11.2057 9.98065 11.2145 10.0218 11.198 9.88689C11.0792 9.82626 11.0093 9.83169 10.8502 9.81958C10.848 9.80441 10.8458 9.78934 10.8437 9.7743C10.8992 9.77223 10.9546 9.76995 11.01 9.76743C11.1105 9.57478 10.7577 9.42912 10.7175 9.11338C10.713 9.07709 10.7129 9.03916 10.7187 8.99979C10.7349 8.99437 10.7511 8.989 10.7674 8.9837C10.8125 9.01657 10.858 9.04856 10.9039 9.07967C11.0228 9.00427 11.0359 8.96497 11.1207 8.87727C11.0147 8.81319 10.9934 8.8102 10.8655 8.76162C10.8545 8.7383 10.8436 8.71483 10.833 8.69121C10.9398 8.66591 11.0265 8.6431 11.1227 8.6081C11.1138 8.58504 11.1051 8.56185 11.0966 8.53853C10.396 8.26209 11.0571 7.89888 10.8723 7.67512C10.844 7.65958 10.8157 7.64392 10.7875 7.62814C10.7961 7.59103 10.8051 7.55402 10.8146 7.51714C10.8491 7.5242 10.8835 7.53136 10.918 7.53864C10.9791 7.60272 11.0413 7.66512 11.1047 7.72578C11.124 7.72254 11.1433 7.71942 11.1626 7.71641C11.1908 7.34892 11.2942 7.00738 11.4103 6.63571C11.5243 6.63681 11.4789 6.63135 11.6028 6.67916C11.611 6.65989 11.6193 6.6407 11.6279 6.62149C11.5445 6.5041 11.4654 6.38345 11.3909 6.25909C11.5522 5.96309 11.9053 5.98259 12.0179 5.68743C12.0726 5.55358 12.0997 5.52849 12.2132 5.49005C12.2898 5.5812 12.2781 5.58493 12.3753 5.63894C12.3849 5.62245 12.3947 5.60599 12.4046 5.58958C12.3763 5.5315 12.3486 5.47308 12.3214 5.41432C12.3378 5.40155 12.3542 5.38889 12.3707 5.37633C12.4143 5.41563 12.4576 5.45517 12.5006 5.49496C12.7534 5.20738 12.5159 5.07053 13.0621 4.87127C13.0834 4.88194 13.1045 4.89274 13.1256 4.90367C13.1343 4.97388 13.1441 5.04378 13.1549 5.11334C13.2722 5.08527 13.266 5.09434 13.3316 4.98333C13.3179 4.86529 13.3142 4.8366 13.2878 4.71719C13.4303 4.62741 13.4401 4.66084 13.5937 4.83689Z" fill="black"/>
<path d="M18.0135 13.989C17.5797 13.8755 17.6812 14.1181 17.6803 13.6269C17.7119 13.2372 17.2305 13.5932 17.6434 12.9748C17.504 12.995 17.5531 12.9871 17.3924 13.0388C17.3383 12.9948 17.2859 12.5587 17.3165 12.22L17.2885 12.101L17.4079 11.8085C17.4758 11.7359 17.5294 11.6784 17.5496 11.6477C17.6006 11.6559 17.6491 11.6682 17.6992 11.6778C17.7088 11.6333 17.7319 11.4273 17.7549 11.4186C17.9525 11.3316 18.0639 11.2188 18.1826 11.081C18.304 11.1328 18.2575 11.1098 18.3837 11.1865C18.4324 11.1541 18.3789 11.1054 18.2906 11.01C18.3918 10.8856 19.4003 9.83506 19.612 10.1266C19.6285 10.1587 19.6445 10.191 19.6603 10.2235C19.7751 10.3367 19.7426 10.3647 19.7049 10.4141C19.5972 10.5521 19.3743 10.6713 19.2144 10.8252C18.8645 11.1644 18.5342 11.5328 18.1836 11.8915C18.1074 11.9695 18.0313 12.0517 17.9636 12.1327L17.9552 12.1534L17.9572 12.1618C17.9521 12.2369 17.9545 12.3121 17.9642 12.3869C17.9758 12.476 18.032 12.5601 18.0263 12.6524C18.0175 12.7748 17.8871 12.9626 18.1053 12.9894C18.2685 13.0159 18.5157 13.6894 18.6366 13.7997C18.7428 13.9303 18.8935 14.0148 19.0255 14.1125C19.1218 14.1841 19.1989 14.2938 19.3119 14.3429C19.4278 14.3935 19.5736 14.3709 19.6902 14.3978C19.812 14.4261 19.9308 14.4469 20.0524 14.4622C20.4796 14.5206 20.8803 14.3762 21.1417 14.0913C21.15 14.0968 21.277 14.1529 21.2782 14.1511C21.3639 14.0635 21.382 13.7285 21.5602 13.7656C21.6176 13.8042 21.6753 13.8424 21.7334 13.8801C21.7394 13.8699 21.7454 13.8596 21.7513 13.8493C21.6367 13.7615 21.6952 13.8053 21.5763 13.7193C21.5881 13.6176 21.6815 13.5165 21.7545 13.3978C21.88 13.199 21.8044 12.802 22.0589 12.6631C22.0792 12.6519 22.2019 12.6876 22.268 12.7035C22.2707 12.6934 22.2734 12.6832 22.2759 12.6731C22.219 12.6395 22.081 12.5761 22.089 12.5548C22.1333 12.4261 21.781 12.3151 22.0794 12.2567C22.0762 12.2193 22.0448 12.1829 22.0163 12.1573C21.9832 12.1532 21.9565 12.1548 21.9785 12.1353C22.0744 12.1019 22.1184 12.0836 22.2195 12.0385C22.2214 12.0302 22.223 12.0216 22.2244 12.0128C22.1719 12.0143 22.1059 12.0179 22.0294 12.0319C21.9043 11.9416 21.7598 11.837 21.6409 11.7035C21.6031 11.6608 21.4388 11.7116 21.4216 11.6899C21.3054 11.5482 21.101 11.5128 20.9614 11.3951C20.9515 11.3869 20.957 11.2976 20.9542 11.2915C20.927 11.2296 20.9791 11.0934 20.8948 11.1228C20.8508 11.1804 20.8069 11.2381 20.763 11.2958C20.7431 11.3048 20.7233 11.3138 20.7036 11.3229C20.7176 11.2299 20.7195 11.241 20.7587 11.1201C20.6514 11.1532 20.644 11.2393 20.6085 11.2329C20.5648 11.2251 20.4417 11.0161 20.395 11.0368C20.3108 11.0748 20.2394 11.1699 20.1428 11.1701C20.1511 11.1458 20.1593 11.1215 20.1675 11.0972C20.232 10.9006 20.2454 10.8785 20.2164 10.8089C20.1989 10.8213 20.1816 10.8338 20.1643 10.8464C20.1332 10.933 20.1041 11.0113 20.07 11.0986C19.9508 11.1986 19.625 10.8281 19.5758 10.7938C19.5879 10.7266 19.5953 10.6624 19.601 10.601C19.5938 10.5995 19.5873 10.5983 19.5819 10.5975C19.5571 10.5406 19.5766 10.4752 19.6802 10.2633C19.6333 10.196 19.5975 10.1225 19.5713 10.0458C19.5744 10.3377 20.5105 9.77447 20.2239 10.5442C20.2121 10.5577 20.2004 10.5713 20.1888 10.585C20.1061 10.6827 20.0606 10.7256 19.9947 10.8566C20.0004 10.8707 20.0056 10.8846 20.0108 10.8985C20.157 10.7561 20.2803 10.4959 20.4086 10.2498C20.6728 10.113 20.4364 10.4436 20.5738 10.4396C20.8287 10.4339 21.1799 10.2618 21.3034 10.5129C21.3672 10.6464 21.3489 10.627 21.5407 10.4809C21.6617 10.5503 21.6011 10.6588 21.6606 10.7773C21.6797 10.8166 21.874 10.6869 21.9505 10.7569C21.8912 10.8664 21.9198 10.8219 21.8225 10.9372C21.8243 10.9501 21.826 10.9629 21.8277 10.9757C21.9294 10.8984 21.8785 10.9429 21.9831 10.8246C21.9865 10.8346 21.9899 10.8446 21.9932 10.8547C21.9682 10.8948 21.943 10.9349 21.9176 10.9748C21.9357 11.0077 22.1668 11.0925 22.3954 11.2226C22.6234 11.3419 22.853 11.5678 22.8452 11.6043C22.7685 11.8894 22.8044 11.9993 22.86 12.1573C22.931 12.2941 23.0642 12.4569 22.7694 12.6534C22.738 12.6709 22.9601 12.9006 22.8952 13.0123C22.7911 13.0392 22.7739 13.0307 22.6234 13.0179C22.6133 13.0287 22.603 13.0395 22.5927 13.0503C22.7189 13.1233 22.6741 13.0998 22.8201 13.1632C22.8201 13.175 22.82 13.1869 22.8199 13.1988C22.7866 13.2022 22.7533 13.2053 22.7201 13.2082C22.7756 13.3195 22.8059 13.3233 22.7567 13.3889C22.6145 13.3871 22.4943 13.3643 22.4306 13.4006C22.4747 13.4441 22.5183 13.4881 22.5613 13.5329C22.4977 13.624 22.337 13.6359 22.3092 13.7712C22.3043 13.8304 22.1332 14.219 22.1621 14.2257C21.772 14.1302 22.1165 14.7785 21.6181 14.4358C21.5955 14.5209 21.5774 14.5808 21.53 14.6496C21.3855 14.5851 21.4084 14.5701 21.3332 14.6055C21.3456 14.7217 21.3767 14.7845 21.4316 14.9316C21.4227 14.9364 21.4138 14.9412 21.4048 14.9458C21.3821 14.8954 21.3592 14.8451 21.3359 14.795C21.1648 14.7248 21.221 15.1832 20.9338 15.2126C20.926 15.198 20.9182 15.1833 20.9105 15.1686C20.9212 15.1186 20.9302 15.0687 20.9376 15.0188C20.8579 14.9181 20.8302 14.9124 20.757 14.8454C20.7416 14.96 20.7443 14.9812 20.7395 15.115C20.7264 15.13 20.7129 15.1449 20.6991 15.1597C20.6611 15.0598 20.6304 14.979 20.5926 14.8908C20.5801 14.9035 20.5672 14.9161 20.5541 14.9286C20.4717 15.6673 20.1337 15.0806 19.9982 15.3014C19.988 15.3317 19.9776 15.3619 19.9671 15.3921C19.9407 15.3903 19.9143 15.3879 19.8878 15.3852C19.8925 15.3505 19.8974 15.3158 19.9024 15.2812C19.9473 15.2106 19.9898 15.1389 20.0295 15.0662C20.0272 15.0481 20.0251 15.0299 20.0232 15.0118C19.982 15.0189 19.9405 15.0237 19.8985 15.0265C19.7168 15.0461 19.5393 15.0382 19.337 15.0413C19.3432 14.9384 19.3373 14.9809 19.3759 14.8559C19.3634 14.8543 19.3508 14.8526 19.3384 14.8509C19.2545 14.9606 19.1684 15.068 19.0775 15.1717C18.8758 15.1215 18.9046 14.8162 18.6882 14.8291C18.5885 14.8316 18.5705 14.8194 18.544 14.7425C18.6171 14.6486 18.6195 14.6563 18.6647 14.5597C18.6523 14.5582 18.6399 14.5566 18.6275 14.555C18.5815 14.5986 18.535 14.6418 18.4882 14.6847C18.4787 14.6767 18.4693 14.6686 18.4599 14.6604C18.4921 14.612 18.5244 14.5637 18.557 14.5156C18.3349 14.4328 18.2233 14.6552 18.0549 14.3386C18.0636 14.3194 18.0725 14.3004 18.0815 14.2814C18.1408 14.248 18.1996 14.2141 18.2579 14.1794C18.2337 14.1081 18.242 14.1096 18.1466 14.1078C18.046 14.1631 18.0215 14.1768 17.9196 14.2412C17.8386 14.1792 17.866 14.1596 18.0135 13.989Z" fill="black"/>
</svg>
