<svg width="400" height="400" viewBox="0 0 400 400" fill="none" xmlns="http://www.w3.org/2000/svg">
<path d="M394.5 345.038C394.5 361.585 319.955 375 228 375C136.045 375 61.5 361.585 61.5 345.038C61.5 328.49 136.045 315.076 228 315.076C319.955 315.076 394.5 328.49 394.5 345.038Z" fill="#DFCCD4"/>
<path fill-rule="evenodd" clip-rule="evenodd" d="M191.35 255.735C191.072 256.159 190.741 256.663 190.337 257.277C190.587 256.896 190.809 256.559 191.008 256.256C191.13 256.069 191.244 255.897 191.35 255.735Z" fill="#34140B"/>
<path fill-rule="evenodd" clip-rule="evenodd" d="M303.162 289.255L303.193 289.284C305.072 291.071 306.952 292.858 308.832 294.645C306.942 292.849 305.052 291.052 303.162 289.255ZM227.919 259.793C227.84 259.713 227.757 259.629 227.669 259.539L227.309 259.174C227.538 259.407 227.74 259.611 227.919 259.793Z" fill="#34140B"/>
<path fill-rule="evenodd" clip-rule="evenodd" d="M258.681 66.4787C250.431 67.1427 220.753 78.3609 213.144 87.1044C209.715 91.045 206.027 97.3758 202.659 103.157C198.555 110.204 194.926 116.435 192.819 116.527C190.623 116.624 185.2 113.209 179.823 109.822C179.221 109.442 178.617 109.055 178.012 108.667C175.115 106.807 172.164 104.913 168.983 103.665C163.699 101.586 140.661 92.5192 122.677 101.003C104.419 109.615 97.5185 128.031 96.2459 139.751C94.9727 151.471 101.463 171.904 105.287 178.342C108.256 183.342 119.149 190.165 126.151 194.552L126.165 194.56C134.875 200.017 142.85 206.623 150.778 213.191L150.786 213.197C151.6 213.871 152.414 214.546 153.228 215.218L153.242 215.249C156.346 217.205 166.082 223.607 173.828 228.701C181.788 233.933 189.969 238.592 198.33 243.113L199.036 243.488C198.498 244.312 198.267 244.936 197.719 245.775C195.932 248.51 194.301 251.008 194.201 251.2C194.107 251.356 194.019 251.501 193.936 251.637C193.415 252.499 193.118 252.991 192.813 253.478C192.407 254.126 191.987 254.766 191.008 256.256C190.809 256.559 190.587 256.896 190.337 257.277C180.693 271.811 172.901 287.06 164.999 302.526L162.903 306.626C160.606 311.666 157.927 317.542 156.617 319.938C156.506 320.14 156.404 320.336 156.305 320.523L156.286 320.56C155.511 322.029 154.997 323 153.212 323.228C150.2 321.334 148.339 319.764 146.761 318.432L146.753 318.425C143.836 315.962 141.885 314.314 135.403 312.943C132.498 312.323 124.574 311.643 122.32 312.943C111.655 319.096 111.969 327.736 120.082 335.753C131.056 346.599 146.539 353.463 153.481 354.332C154.703 354.504 156.147 354.958 157.656 355.432C166.042 358.068 171.04 354.332 172.731 351.316C176.133 345.252 179.542 339.187 182.951 333.121C184.805 329.824 186.658 326.526 188.511 323.228C191.077 318.659 194.036 313.386 196.732 308.572C198.933 304.642 200.959 301.019 202.455 298.337C203.519 296.43 205.457 293.279 207.84 289.405L207.869 289.359C212.026 282.601 217.529 273.656 222.109 265.279C222.202 265.108 222.294 265.042 222.356 264.962L222.425 264.874L227.072 258.931C227.2 259.066 227.281 259.15 227.309 259.174L227.669 259.539C228.373 260.253 228.775 260.66 229.17 261.074C229.697 261.625 230.212 262.188 231.413 263.501C231.657 263.767 231.929 264.065 232.235 264.399C243.923 277.294 256.724 288.525 269.708 299.914L273.149 302.935C277.444 306.371 282.452 310.379 284.443 312.228C284.612 312.385 284.776 312.532 284.934 312.674L284.962 312.699C286.19 313.806 287.001 314.538 286.806 316.354C284.295 318.893 282.359 320.367 280.717 321.618L280.71 321.624C277.675 323.936 275.645 325.482 272.831 331.569C271.564 334.296 269.078 341.967 269.801 344.495C273.225 356.458 281.572 358.149 291.13 351.989C304.06 343.659 314.22 329.95 316.66 323.292C317.108 322.125 317.877 320.803 318.681 319.422C323.147 311.746 320.727 305.942 318.229 303.573C313.217 298.816 308.205 294.05 303.193 289.284L303.162 289.255L303.101 289.197C300.394 286.623 297.688 284.05 294.981 281.477C291.199 277.884 286.833 273.739 282.847 269.961C279.593 266.876 276.592 264.035 274.369 261.935C272.789 260.443 270.221 257.799 267.064 254.549L267.059 254.543L267.024 254.507C261.411 248.728 253.948 241.046 246.869 234.501C246.883 234.492 246.239 233.806 245.495 233.015C247.556 229.101 249.775 224.903 252.022 220.651C259.401 206.688 267.08 192.156 270.446 185.323C273.292 181.18 275.171 177.6 276.587 174.901L276.594 174.89C278.415 171.418 280.637 168.275 282.892 165.086C283.04 164.876 283.188 164.667 283.336 164.457L283.439 164.31L283.448 164.3C288.964 156.49 296.95 145.184 298.414 141.252C300.801 134.841 306.563 117.47 306.41 113.874C306.395 113.53 306.39 113.039 306.384 112.427C306.328 106.633 302.059 87.6981 292.359 79.7077C281.634 70.8717 266.931 65.8146 258.681 66.4787ZM219.549 211.322C220.313 209.912 221.079 208.496 221.847 207.076C227.362 196.877 232.99 186.47 238.861 176.554L238.867 176.543C242.065 171.142 244.642 166.385 247.097 161.851C251.551 153.627 255.608 146.135 262.251 136.875C266.039 131.589 268.82 127.661 269.236 126.671C272.188 119.634 272.761 108.824 269.259 102.973C265.756 97.1215 255.659 96.0653 247.448 97.6285C235.329 99.9354 216.501 124.968 210.699 135.946C210.298 136.705 209.907 137.481 209.515 138.261C208.415 140.449 207.3 142.667 205.894 144.618C203.944 147.328 196.636 146.148 192.639 145.502C185.758 144.395 178.966 139.701 172.398 135.162C168.878 132.728 165.421 130.339 162.049 128.571C157.271 126.07 151.304 125.507 144.706 126.715L143.856 126.87C133.681 128.724 128 129.759 129.259 141.443C129.929 147.592 131.79 151.571 135.183 156.789C145.739 173.017 160.769 182.014 176.2 191.252C179.607 193.291 183.033 195.341 186.434 197.484C192.678 201.419 200.982 206.725 209.448 212.159L216.943 216.577C217.895 214.886 218.597 213.358 219.06 212.349C219.274 211.885 219.436 211.53 219.549 211.322Z" fill="#34140B"/>
<path d="M332.891 46.7825C334.866 45.6736 340.027 42.6286 342.239 42.9415C360.511 45.5322 344.101 63.0429 337.743 69.1403C332.163 74.4912 326.088 82.0738 319.099 85.3889L315.34 87.2319C309.184 90.2138 308.47 90.0376 302.294 87.6998C301.822 84.4188 299.071 79.6942 300.341 76.6431C302.187 72.0087 307.127 69.5131 310.107 66.4034C314.517 61.801 317.869 58.0598 323.077 54.322C326.548 51.8303 328.928 48.9227 332.891 46.7825Z" fill="#34140B"/>
<path d="M61.4449 225.051C72.3329 224.38 82.824 231.922 72.2519 242.723C65.8613 249.252 49.9477 259.353 41.0235 259.677C36.2135 259.632 33.276 259.749 28.5795 258.452C27.1116 256.942 26.3685 256.076 25.0859 254.382C27.1485 251.424 29.9309 248.539 31.996 245.288C33.7609 242.51 38.1504 239.12 40.6674 236.91C47.3765 231.021 52.4141 225.978 61.4449 225.051Z" fill="#34140B"/>
<path d="M242.205 25C245.226 25.0957 246.913 26.46 248.93 28.5196C250.345 35.9069 248.372 41.3101 246.804 48.6354C245.99 52.4416 243.514 55.1338 243.703 59.9072C243.826 63.0031 237.139 67.9373 234.571 70.1109C230.17 70.4966 229.499 71.4635 224.68 70.7045C224.321 70.5046 224.026 70.566 223.617 70.5612C222.032 70.5429 219.506 69.5775 218.211 68.6162C217.681 68.2218 216.91 67.4118 216.858 66.705C216.679 64.29 226.7 40.5256 228.457 36.9419C229.876 34.0487 231.613 30.7528 233.69 28.3186C235.894 25.7355 239.051 25.1998 242.205 25Z" fill="#34140B"/>
<path d="M139.348 48.257C142.565 47.7694 145.841 47.9263 149.002 48.7189C154.88 50.2455 157.577 53.2375 160.551 58.5532C163.674 63.7515 168.468 72.16 164.572 78.1802C164.338 78.5409 155.838 84.5709 154.992 85.0987C140.953 88.7679 134.709 64.7796 128.723 55.3871C133.699 53.0111 132.957 49.1882 139.348 48.257Z" fill="#34140B"/>
<path d="M56.1883 82.3061C59.2499 82.4362 60.3966 83.1915 63.6692 84.1375C71.3255 86.35 89.2937 95.401 91.577 103.327C92.6833 107.168 81.4159 114.577 76.5276 114.782C74.1836 115.173 70.1991 113.828 68.2496 112.392C62.7379 108.33 57.373 104.018 51.927 99.858C48.9793 97.6066 45.7454 95.7114 42.8507 93.3818C42.4091 93.0256 41.106 90.1043 40.7773 89.3819C43.958 87.8659 44.8219 86.3471 47.0824 83.5286C50.5242 82.8541 52.7013 82.3641 56.1883 82.3061Z" fill="#34140B"/>
<path d="M29.9935 159.425C35.3513 159.385 40.4497 160.742 45.7139 161.742C49.8677 162.531 62.5128 163.264 63.159 169.076C62.0408 174.612 55.7052 177.091 51.6382 180.649C49.0146 179.997 43.4809 180.174 40.4991 180.096C37.0841 180.156 32.4233 180.72 29.0674 180.259C22.6554 179.378 17.148 178.091 10.6102 177.454C8.56657 174.715 8.16929 174.198 5.5 172.052C11.7149 165.621 12.6494 162.905 21.5359 161.199C24.3095 160.667 26.7396 159.8 29.9935 159.425Z" fill="#34140B"/>
</svg>
