<svg width="110" height="4" viewBox="0 0 110 4" fill="none" xmlns="http://www.w3.org/2000/svg">
<path d="M75.474 0.466973C77.6874 -0.0822091 75.9155 -0.161635 78.553 0.305422C80.704 0.690804 79.7947 -0.399184 82.5045 0.739046C82.6961 0.479004 82.6327 0.570984 82.6712 0.253884C82.8614 0.216477 83.8719 0.249747 85.0013 0.301735C86.6766 0.376207 88.6783 0.487142 89.2792 0.487911C89.4118 0.57673 89.5435 0.665542 89.6742 0.754349C90.0262 0.723782 91.4607 0.545746 91.6402 0.571719C93.0139 0.788626 94.2378 0.840129 95.6483 0.870164C95.8146 1.11236 95.7713 1.01621 95.7938 1.29315C96.2015 1.33183 96.3173 1.1961 96.5727 0.956087C98.0289 1.03106 108.249 1.14541 109.011 1.50107C109.022 1.56823 109.033 1.63538 109.043 1.70254C108.565 2.03657 107.921 2.09532 107.286 2.14435C105.492 2.28503 103.646 2.13847 101.866 2.10472C97.9565 2.02656 94.1048 1.91092 90.2095 1.73568C88.7877 1.67096 87.3509 1.61409 85.9298 1.60068C85.6353 1.59808 85.3261 1.60924 85.0112 1.61829C84.6153 1.6301 84.2108 1.63821 83.8208 1.60588C82.8915 1.5297 82.0074 1.1816 81.1726 1.54241C80.4798 1.84868 74.8711 1.6125 73.734 1.6039C72.4612 1.59408 71.1764 1.6763 69.9057 1.68782C68.958 1.69621 68.0268 1.60934 67.0849 1.63943C66.1343 1.66954 65.1949 1.83149 64.2419 1.87192C59.7802 2.06328 55.2993 2.17384 50.8311 2.36938C50.7854 2.35279 50.1852 2.12742 50.1764 2.12832C49.2303 2.1697 46.8958 2.59128 46.1334 2.28256C46.0779 2.15333 46.0224 2.02411 45.9669 1.89489C45.8741 1.89834 45.7806 1.90179 45.687 1.90524C45.7001 2.17629 45.6849 2.0391 45.7353 2.31443C44.9724 2.41763 43.7757 2.38815 42.5748 2.38589C40.6499 2.38282 37.5754 2.81541 35.7159 2.4247C35.5696 2.39425 35.5839 2.154 35.5625 2.02641C35.4787 2.02688 35.3951 2.02735 35.3115 2.02782C35.1735 2.14786 34.9399 2.4292 34.7373 2.42441C33.6165 2.40071 33.0053 3.08867 32.0676 2.54349C31.2611 2.57183 30.6375 2.82942 30.0119 2.7394C29.8438 2.54971 29.7937 2.46088 29.6673 2.25436C29.5897 2.24633 29.5121 2.2383 29.4347 2.23028C29.2635 2.32399 29.052 2.44158 28.7976 2.58303C27.181 2.72515 25.4881 2.81477 23.8595 2.80491C23.3468 2.80184 22.6042 3.08627 22.3471 3.07905C20.6916 3.03772 19.1116 3.23411 17.5081 3.22065C17.4909 3.22056 17.4663 3.21708 17.4369 3.21126C17.2673 3.1798 16.9516 3.07976 16.9098 3.07469C16.39 3.013 16.1125 2.74903 15.6563 2.88698C15.6332 3.02319 15.6101 3.1594 15.5871 3.29561C15.4887 3.33114 15.391 3.36667 15.2939 3.40219C14.9301 3.24504 14.9967 3.25979 14.6942 3.03203C14.0958 3.19878 14.4523 3.33916 14.1624 3.36752C13.7884 3.404 11.9323 3.2055 11.6702 3.28415C11.2009 3.42966 11.1396 3.65259 10.3569 3.74867C10.3095 3.70167 10.2625 3.65467 10.2156 3.60767C9.83737 3.22927 9.85372 3.18073 9.32579 3.09628C9.24596 3.13306 9.16691 3.16984 9.08863 3.20663C9.21944 3.37669 9.33611 3.53105 9.45949 3.70469C8.97115 3.9895 4.61648 3.66651 3.62599 3.63179C3.47625 3.50677 3.28899 3.39019 3.11929 3.27892C3.01633 3.28147 2.8967 3.28433 2.79494 3.28704C2.48661 3.25207 2.16164 3.18976 1.84807 3.10105C1.69269 3.05671 1.54324 3.00569 1.40957 2.94865C1.33848 2.92033 1.27494 2.89048 1.22508 2.85902C1.19488 2.84367 1.17416 2.82764 1.16182 2.81063C1.15718 2.80183 1.15604 2.79322 1.17447 2.77974C1.18904 2.77111 1.20668 2.76475 1.26739 2.73487C1.31639 2.70768 1.35991 2.69716 1.47216 2.58366C1.62121 2.45233 1.65235 2.13024 1.63935 2.14844C1.62987 2.1383 1.62361 2.26533 1.56567 2.37457C1.51778 2.48281 1.38639 2.59555 1.35933 2.59899C1.26604 2.64533 1.20217 2.64198 1.18715 2.62802C1.1375 2.60424 1.12495 2.56606 1.11669 2.52925C1.10221 2.45443 1.10667 2.37673 1.11418 2.29943C2.91903 2.88125 7.45841 1.1466 8.29336 2.65904C8.26042 2.69213 8.22762 2.72521 8.19498 2.75829C7.96962 2.99456 7.78397 3.10656 7.80436 3.38192C7.9121 3.39978 8.01102 3.4177 8.11037 3.43562C8.66823 3.06718 8.5118 2.52762 8.48182 2.00671C9.76843 1.53598 9.44734 2.29548 10.374 2.15546C12.1454 1.89544 13.6489 1.26203 15.5119 1.50905C16.5228 1.64115 16.3125 1.63136 16.8339 1.19573C17.0707 1.188 17.2639 1.19379 17.4306 1.20858C17.9698 1.25928 18.2035 1.41515 18.931 1.49471C19.2384 1.52901 19.7423 1.10944 20.509 1.11433C20.707 1.34259 20.6538 1.24418 20.6634 1.52756C20.7398 1.54347 20.8105 1.5594 20.8844 1.57532C21.0796 1.33978 21.0084 1.46583 21.0161 1.16919C21.0819 1.17898 21.148 1.18877 21.2142 1.19856C21.2709 1.28613 21.3277 1.3737 21.3847 1.46126C21.9296 1.50522 28.3888 0.783188 28.6238 0.853938C31.3854 1.72122 31.3659 0.347378 34.2959 1.13862C34.484 1.1901 35.5918 0.680566 36.4102 0.729617C36.797 0.899429 36.7795 0.934675 37.0353 1.20951C37.1314 1.22074 37.2275 1.23197 37.3238 1.2432C37.507 0.973429 37.4591 1.06764 37.5251 0.769103C37.6004 0.761317 37.6758 0.753531 37.7513 0.745745C37.8516 0.801819 37.9521 0.857892 38.0527 0.913964C38.62 0.739198 38.5662 0.683881 39.099 0.71954C39.4603 0.965103 39.6743 1.18818 40.1065 1.26633C40.2528 1.15624 40.3992 1.04615 40.5458 0.936058C41.3014 0.964997 41.9167 1.21962 42.8495 1.13102C43.2553 1.09305 46.082 0.921119 45.9692 0.860658C47.2723 1.54555 48.6123 0.219114 49.5287 1.31239C50.0236 1.21598 50.3604 1.14728 50.8646 1.09219C51.3999 1.34417 51.2366 1.34466 51.7937 1.36157C52.1261 1.16172 52.1468 1.0296 52.2884 0.737887C52.3466 0.737988 52.4048 0.738089 52.463 0.73819C52.4402 0.841834 52.4174 0.945478 52.3946 1.04912C53.199 1.31349 54.0042 0.501449 55.4227 0.582554C55.4447 0.612709 55.4667 0.642865 55.4887 0.67302C55.3688 0.759921 55.2485 0.846821 55.1289 0.933718C55.4303 1.15462 55.5933 1.17703 55.9703 1.32639C56.205 1.11973 56.2098 1.07923 56.3601 0.832327C56.4467 0.807991 56.5333 0.783655 56.6198 0.759317C56.7565 0.954293 56.8807 1.1115 57.0693 1.28255C57.1582 1.26057 57.2472 1.23859 57.3361 1.21661C57.9946 -0.147907 59.7412 0.909586 60.397 0.432127C60.4192 0.372489 60.4413 0.31285 60.4635 0.253212C60.6007 0.246297 60.7379 0.239381 60.875 0.232462C60.893 0.29785 60.911 0.363238 60.9289 0.428627C60.7829 0.577858 60.6367 0.727088 60.4904 0.876316C60.5261 0.908749 60.5617 0.941183 60.5974 0.973616C61.9956 0.797307 63.3444 0.694101 64.7454 0.497953C64.975 0.678369 64.8988 0.601245 65.0078 0.84463C65.0882 0.837302 65.1685 0.829974 65.2488 0.822645C65.4427 0.568433 65.6387 0.31588 65.838 0.0642775C66.9885 -0.0281004 67.8135 0.487125 68.8674 0.231971C69.3428 0.118239 69.4718 0.11587 69.8747 0.198673C69.8732 0.422242 69.8284 0.413704 69.9781 0.608467C70.0462 0.596144 70.1143 0.58382 70.1823 0.571496C70.2387 0.453311 70.2951 0.335125 70.3514 0.216939C70.4264 0.217192 70.5013 0.217444 70.5761 0.217696C70.6128 0.326123 70.6494 0.43455 70.686 0.542977C72.0941 0.378371 71.6217 -0.0551023 73.6583 0.114981C73.7085 0.151117 73.7586 0.187253 73.8086 0.223389C73.7198 0.348519 73.6309 0.473647 73.5418 0.598775C73.9881 0.652996 73.9582 0.662734 74.362 0.527008C74.5047 0.31509 74.5353 0.263006 74.6268 0.0381215C75.2172 -0.00877512 75.1904 0.0529677 75.474 0.466973Z" fill="#F6F2EC"/>
</svg>
